<?xml version="1.0" encoding="UTF-8" standalone="no"?>
<svg
   xmlns:dc="http://purl.org/dc/elements/1.1/"
   xmlns:cc="http://creativecommons.org/ns#"
   xmlns:rdf="http://www.w3.org/1999/02/22-rdf-syntax-ns#"
   xmlns:svg="http://www.w3.org/2000/svg"
   xmlns="http://www.w3.org/2000/svg"
   xmlns:sodipodi="http://sodipodi.sourceforge.net/DTD/sodipodi-0.dtd"
   xmlns:inkscape="http://www.inkscape.org/namespaces/inkscape"
   height="16.535999"
   width="215.69588"
   version="1.11.1"
   id="svg10"
   sodipodi:docname="ObsidianSystemsLogo-ICFP2017.svg"
   inkscape:version="0.92.1 r15371"
   style="font-family:Alegreya">
  <metadata
     id="metadata16">
    <rdf:RDF>
      <cc:Work
         rdf:about="">
        <dc:format>image/svg+xml</dc:format>
        <dc:type
           rdf:resource="http://purl.org/dc/dcmitype/StillImage" />
        <dc:title></dc:title>
      </cc:Work>
    </rdf:RDF>
  </metadata>
  <defs
     id="defs14" />
  <sodipodi:namedview
     pagecolor="#ffffff"
     bordercolor="#666666"
     borderopacity="1"
     objecttolerance="10"
     gridtolerance="10"
     guidetolerance="10"
     inkscape:pageopacity="0"
     inkscape:pageshadow="2"
     inkscape:window-width="1479"
     inkscape:window-height="2124"
     id="namedview12"
     showgrid="false"
     inkscape:zoom="2.1693548"
     inkscape:cx="108.1275"
     inkscape:cy="7.96"
     inkscape:window-x="3840"
     inkscape:window-y="0"
     inkscape:window-maximized="0"
     inkscape:current-layer="svg10"
     fit-margin-top="0"
     fit-margin-left="0"
     fit-margin-right="0"
     fit-margin-bottom="0" />
  <g
     aria-label="OBSIDIAN.SYSTEMS"
     style="font-size:24px;font-family:Alegreya;text-anchor:middle;fill:#000000"
     id="text8"
     transform="translate(-15.8725,-12.424)">
    <path
       d="m 23.2645,27.064 c -3.144,0 -5.328,-2.856 -5.328,-6.96 0,-3.696 2.04,-6.24 5.016,-6.24 3.24,0 5.472,2.856 5.472,6.96 0,3.696 -2.112,6.24 -5.16,6.24 z m -0.744,1.224 c 4.536,0 8.04,-3.696 8.04,-8.472 0,-4.368 -2.784,-7.392 -6.792,-7.392 -4.44,0 -7.896,3.696 -7.896,8.448 0,4.392 2.712,7.416 6.648,7.416 z"
       style="font-size:24px;font-family:Alegreya;text-anchor:middle;fill:#000000"
       id="path3707"
       inkscape:connector-curvature="0" />
    <path
       d="m 35.63425,28 c 1.224,0 2.184,0.24 3.24,0.24 3.024,0 5.64,-2.136 5.64,-4.632 0,-1.776 -1.392,-3.144 -3.72,-3.648 1.776,-0.768 2.784,-2.112 2.784,-3.696 0,-2.352 -1.68,-3.648 -4.728,-3.648 0,0 -1.944,0.096 -2.832,0.096 -0.912,0 -2.664,-0.072 -2.664,-0.072 l -0.168,1.056 0.048,0.096 c 0,0 0.528,-0.048 0.816,-0.048 0.72,0 0.888,0.264 0.888,1.296 l -0.024,10.08 c 0,1.344 -0.384,1.776 -1.872,2.064 l -0.144,1.104 c 0,0 1.536,-0.288 2.736,-0.288 z m 3.576,-7.2 c 2.136,0.384 3.24,1.512 3.24,3.24 0,1.824 -1.176,2.976 -3.096,2.976 -1.992,0 -2.736,-0.456 -2.736,-1.68 l 0.096,-4.488 z m -2.448,-1.224 c 0.048,-1.992 0.12,-3.816 0.216,-5.376 0.024,-0.432 0.096,-0.552 0.432,-0.552 2.88,0 4.224,0.96 4.224,3.024 0,2.568 -2.256,3.096 -2.256,3.096 -0.36,0 -2.616,-0.192 -2.616,-0.192 z"
       style="font-size:24px;font-family:Alegreya;text-anchor:middle;fill:#000000"
       id="path3709"
       inkscape:connector-curvature="0" />
    <path
       d="m 51.106,28.288 c 3.48,0 5.928,-1.944 5.928,-4.68 0,-2.184 -2.352,-3.288 -4.44,-4.368 -1.704,-0.888 -3.264,-1.776 -3.264,-3.216 0,-1.32 1.272,-2.304 3.024,-2.304 2.16,0 2.856,0.552 2.856,2.232 0,0.744 -0.072,1.248 -0.072,1.248 l 0.144,0.12 0.936,-0.096 c 0.144,-2.208 0.528,-4.056 0.528,-4.056 l -0.072,-0.144 c 0,0 -1.536,-0.6 -3.672,-0.6 -3.12,0 -5.52,1.944 -5.52,4.464 0,2.088 1.992,3.192 3.912,4.2 1.848,0.96 3.648,1.824 3.648,3.384 0,1.632 -1.344,2.64 -3.336,2.64 -2.592,0 -3.12,-0.72 -3.12,-4.176 l -1.08,0.12 c 0,2.328 -0.288,4.176 -0.288,4.176 l 0.12,0.24 c 0,0 1.512,0.816 3.768,0.816 z"
       style="font-size:24px;font-family:Alegreya;text-anchor:middle;fill:#000000"
       id="path3711"
       inkscape:connector-curvature="0" />
    <path
       d="m 64.001125,14.944 c 0.048,-0.912 0.384,-1.2 1.728,-1.368 l 0.096,-1.08 c 0,0 -1.656,0.216 -2.76,0.216 -0.984,0 -2.856,-0.072 -2.856,-0.072 l -0.168,1.056 0.048,0.096 c 0,0 0.648,-0.048 1.008,-0.048 0.72,0 0.888,0.288 0.888,1.296 l -0.024,10.08 c 0,1.344 -0.408,1.776 -1.92,2.064 l -0.144,1.104 c 0,0 1.56,-0.288 2.784,-0.288 1.128,0 3.144,0.072 3.144,0.072 l 0.216,-1.104 -0.048,-0.096 c 0,0 -0.696,0.072 -1.272,0.072 -0.84,0 -1.056,-0.336 -1.056,-1.632 0,-1.992 0.168,-6.888 0.336,-10.368 z"
       style="font-size:24px;font-family:Alegreya;text-anchor:middle;fill:#000000"
       id="path3713"
       inkscape:connector-curvature="0" />
    <path
       d="m 74.833,28.288 c 4.656,0 8.304,-3.72 8.304,-8.496 0,-4.272 -3.216,-7.176 -7.896,-7.176 0,0 -2.544,0.096 -3.648,0.096 -0.912,0 -2.52,-0.072 -2.52,-0.072 l -0.168,1.056 0.048,0.096 c 0,0 0.528,-0.048 0.816,-0.048 0.72,0 0.888,0.264 0.888,1.296 l -0.024,10.08 c 0,1.344 -0.384,1.776 -1.872,2.064 l -0.144,1.104 c 0,0 1.56,-0.288 2.76,-0.288 1.224,0 3.456,0.288 3.456,0.288 z M 73.585,13.792 c 4.728,0 7.368,2.352 7.368,6.576 0,4.152 -2.112,6.696 -5.568,6.696 -2.424,0 -3.024,-0.456 -3.024,-2.208 0,-1.08 0.144,-4.992 0.36,-10.536 0.024,-0.432 0.192,-0.528 0.864,-0.528 z"
       style="font-size:24px;font-family:Alegreya;text-anchor:middle;fill:#000000"
       id="path3715"
       inkscape:connector-curvature="0" />
    <path
       d="m 89.548,14.944 c 0.048,-0.912 0.384,-1.2 1.728,-1.368 l 0.096,-1.08 c 0,0 -1.656,0.216 -2.76,0.216 -0.984,0 -2.856,-0.072 -2.856,-0.072 l -0.168,1.056 0.048,0.096 c 0,0 0.648,-0.048 1.008,-0.048 0.72,0 0.888,0.288 0.888,1.296 l -0.024,10.08 c 0,1.344 -0.408,1.776 -1.92,2.064 l -0.144,1.104 c 0,0 1.56,-0.288 2.784,-0.288 1.128,0 3.144,0.072 3.144,0.072 l 0.216,-1.104 -0.048,-0.096 c 0,0 -0.696,0.072 -1.272,0.072 -0.84,0 -1.056,-0.336 -1.056,-1.632 0,-1.992 0.168,-6.888 0.336,-10.368 z"
       style="font-size:24px;font-family:Alegreya;text-anchor:middle;fill:#000000"
       id="path3717"
       inkscape:connector-curvature="0" />
    <path
       d="m 104.60387,25.288 c -1.8,-5.4 -3.816,-12.864 -3.816,-12.864 h -0.192 l -1.511995,0.408 -4.68,12.264 c -0.528,1.344 -0.984,1.752 -1.872,1.848 l -0.192,1.128 c 0,0 1.488,-0.072 2.64,-0.072 1.584,0 3.336,0.168 3.336,0.168 l 0.144,-1.032 -0.048,-0.096 h -1.368 c -1.008,0 -1.44,-0.288 -1.44,-0.984 0,-0.216 0.072,-0.504 0.216,-0.936 l 0.888,-2.496 c 0.552,-0.072 1.68,-0.192 2.616,-0.192 0.672,0 1.919995,0 2.495995,0.024 l 0.792,2.616 c 0.144,0.456 0.216,0.84 0.216,1.152 0,0.576 -0.48,0.792 -2.136,0.912 l -0.096,0.936 0.072,0.168 c 0,0 1.728,-0.24 3.576,-0.24 0.816,0 2.544,0.072 2.544,0.072 l 0.168,-0.984 -0.048,-0.096 c -1.392,-0.12 -1.92,-0.504 -2.304,-1.704 z M 99.419875,15.04 h 0.168 l 1.895995,6.288 c -0.552,0.048 -1.583995,0.12 -2.231995,0.12 h -2.112 z"
       style="font-size:24px;font-family:Alegreya;text-anchor:middle;fill:#000000"
       id="path3719"
       inkscape:connector-curvature="0" />
    <path
       d="m 119.87087,24.52 c 0,0 -4.08,-5.712 -8.064,-11.904 0,0 -0.816,0.096 -1.608,0.096 -0.672,0 -2.064,-0.12 -2.064,-0.12 l -0.192,0.888 0.072,0.12 c 1.608,0.168 2.088,0.504 2.088,1.488 l -0.312,10.488 c -0.024,0.984 -0.504,1.392 -1.488,1.512 l -0.12,1.104 c 0,0 1.272,-0.192 2.232,-0.192 1.032,0 2.544,0.096 2.544,0.096 l 0.216,-1.08 -0.048,-0.096 c 0,0 -0.984,0.024 -1.224,0.024 -0.552,0 -0.744,-0.24 -0.744,-0.96 l 0.12,-10.248 h 0.12 c 0,0 4.248,5.928 8.928,13.224 l 0.696,-0.336 0.336,-13.488 c 0.024,-0.936 0.528,-1.368 1.632,-1.512 l 0.12,-1.104 c 0,0 -1.368,0.192 -2.376,0.192 -0.816,0 -2.28,-0.096 -2.28,-0.096 l -0.216,1.08 0.048,0.096 c 0,0 0.48,-0.024 0.912,-0.024 0.528,0 0.792,0.336 0.792,1.032 v 9.72 z"
       style="font-family:Alegreya;letter-spacing:0.1em"
       id="path3721"
       inkscape:connector-curvature="0" />
    <path
       d="m 129.08088,28.288 c 0.936,0 1.512,-0.672 1.512,-1.488 0,-0.744 -0.48,-1.368 -1.368,-1.368 -0.912,0 -1.488,0.672 -1.488,1.488 0,0.696 0.432,1.368 1.344,1.368 z"
       style="font-family:Alegreya;fill-opacity:0.2"
       id="path3723"
       inkscape:connector-curvature="0" />
    <path
       d="m 139.67163,28.288 c 3.48,0 5.928,-1.944 5.928,-4.68 0,-2.184 -2.352,-3.288 -4.44,-4.368 -1.704,-0.888 -3.264,-1.776 -3.264,-3.216 0,-1.32 1.272,-2.304 3.024,-2.304 2.16,0 2.856,0.552 2.856,2.232 0,0.744 -0.072,1.248 -0.072,1.248 l 0.144,0.12 0.936,-0.096 c 0.144,-2.208 0.528,-4.056 0.528,-4.056 l -0.072,-0.144 c 0,0 -1.536,-0.6 -3.672,-0.6 -3.12,0 -5.52,1.944 -5.52,4.464 0,2.088 1.992,3.192 3.912,4.2 1.848,0.96 3.648,1.824 3.648,3.384 0,1.632 -1.344,2.64 -3.336,2.64 -2.592,0 -3.12,-0.72 -3.12,-4.176 l -1.08,0.12 c 0,2.328 -0.288,4.176 -0.288,4.176 l 0.12,0.24 c 0,0 1.512,0.816 3.768,0.816 z"
       style="font-size:24px;font-family:Alegreya;text-anchor:middle;fill:#000000"
       id="path3725"
       inkscape:connector-curvature="0" />
    <path
       d="m 151.03075,14.392 c 0,-0.552 0.384,-0.744 1.824,-0.864 l 0.072,-0.84 -0.072,-0.168 c 0,0 -2.064,0.192 -3.408,0.192 -1.104,0 -2.64,-0.072 -2.64,-0.072 l -0.144,0.936 0.048,0.096 c 1.872,0.168 2.064,0.792 3.024,2.76 l 2.16,4.392 c 0.576,1.152 0.696,1.776 0.696,2.712 v 1.056 c 0,1.776 -0.144,2.256 -1.872,2.592 l -0.144,1.104 c 0,0 1.536,-0.288 2.736,-0.288 1.056,0 3.048,0.072 3.048,0.072 l 0.216,-1.104 -0.048,-0.096 c 0,0 -0.696,0.072 -1.176,0.072 -0.84,0 -1.08,-0.408 -1.056,-1.632 0.048,-2.616 0.024,-3.432 0.528,-4.296 l 2.4,-4.224 c 1.296,-2.28 1.488,-2.808 3.144,-3.12 l 0.144,-0.888 -0.096,-0.168 c 0,0 -1.272,0.096 -2.208,0.096 -0.888,0 -2.664,-0.168 -2.664,-0.168 l -0.144,0.936 0.048,0.096 c 1.032,0.072 1.512,0.312 1.512,0.72 0,0.336 -0.144,0.768 -0.384,1.2 l -2.736,5.088 h -0.12 c -0.024,0 -2.688,-5.496 -2.688,-6.192 z"
       style="font-size:24px;font-family:Alegreya;text-anchor:middle;fill:#000000"
       id="path3727"
       inkscape:connector-curvature="0" />
    <path
       d="m 165.26538,28.288 c 3.48,0 5.928,-1.944 5.928,-4.68 0,-2.184 -2.352,-3.288 -4.44,-4.368 -1.704,-0.888 -3.264,-1.776 -3.264,-3.216 0,-1.32 1.272,-2.304 3.024,-2.304 2.16,0 2.856,0.552 2.856,2.232 0,0.744 -0.072,1.248 -0.072,1.248 l 0.144,0.12 0.936,-0.096 c 0.144,-2.208 0.528,-4.056 0.528,-4.056 l -0.072,-0.144 c 0,0 -1.536,-0.6 -3.672,-0.6 -3.12,0 -5.52,1.944 -5.52,4.464 0,2.088 1.992,3.192 3.912,4.2 1.848,0.96 3.648,1.824 3.648,3.384 0,1.632 -1.344,2.64 -3.336,2.64 -2.592,0 -3.12,-0.72 -3.12,-4.176 l -1.08,0.12 c 0,2.328 -0.288,4.176 -0.288,4.176 l 0.12,0.24 c 0,0 1.512,0.816 3.768,0.816 z"
       style="font-size:24px;font-family:Alegreya;text-anchor:middle;fill:#000000"
       id="path3729"
       inkscape:connector-curvature="0" />
    <path
       d="m 178.3045,24.112 c 0,2.544 -0.168,2.76 -2.4,2.952 l -0.192,1.032 c 0,0 2.112,-0.096 3.288,-0.096 1.128,0 3.528,0.072 3.528,0.072 l 0.216,-1.104 -0.072,-0.096 c 0,0 -0.48,0.072 -1.32,0.072 -0.984,0 -1.368,-0.456 -1.368,-1.632 0,-3.888 0.192,-9.744 0.384,-11.664 3.48,0.168 3.576,0.24 4.056,3.12 l 1.128,-0.096 c 0,0 -0.288,-2.016 -0.36,-4.056 l -0.216,-0.192 -2.04,0.264 h -7.44 l -1.992,-0.264 -0.216,0.192 c -0.072,2.04 -0.36,4.152 -0.36,4.152 l 1.128,-0.096 c 0.408,-2.808 0.48,-2.856 4.248,-3.024 z"
       style="font-size:24px;font-family:Alegreya;text-anchor:middle;fill:#000000"
       id="path3731"
       inkscape:connector-curvature="0" />
    <path
       d="m 190.9495,25.48 c 0,-0.792 0.024,-1.992 0.096,-4.584 0.408,-0.072 1.128,-0.168 1.848,-0.168 1.296,0 3.36,0.072 3.36,0.072 l 0.336,-1.416 -0.096,-0.12 c 0,0 -2.064,0.264 -2.928,0.264 -0.72,0 -1.944,-0.024 -2.472,-0.024 l 0.192,-4.656 c 0.024,-0.888 0.12,-0.936 1.68,-0.936 3.384,0 3.672,0.144 3.672,1.704 0,0.336 -0.048,1.032 -0.048,1.032 l 1.152,-0.096 c 0.144,-2.208 0.552,-3.984 0.552,-3.984 l -0.072,-0.144 c -1.584,0.216 -3.384,0.288 -7.2,0.288 -1.44,0 -3.336,-0.072 -3.336,-0.072 l -0.168,1.056 0.048,0.096 c 0,0 0.528,-0.048 0.816,-0.048 0.72,0 0.888,0.264 0.888,1.296 l -0.024,10.08 c 0,1.368 -0.432,1.824 -1.872,2.016 l -0.144,1.104 c 0,0 1.512,-0.24 3.336,-0.24 2.28,0 7.272,0.168 7.272,0.168 l 0.12,-0.144 c 0.216,-2.04 0.648,-4.032 0.648,-4.032 l -0.072,-0.12 -1.056,0.12 c -0.384,2.64 -0.84,2.928 -4.632,2.928 -1.728,0 -1.896,-0.144 -1.896,-1.44 z"
       style="font-size:24px;font-family:Alegreya;text-anchor:middle;fill:#000000"
       id="path3733"
       inkscape:connector-curvature="0" />
    <path
       d="m 210.14463,28.288 4.632,-12.768 h 0.12 c 0,0 0.816,9.552 0.816,10.368 0,0.72 -0.432,1.08 -1.416,1.2 l -0.096,1.104 c 0,0 1.464,-0.192 2.496,-0.192 0.864,0 2.28,0.072 2.28,0.072 l 0.216,-1.08 -0.048,-0.096 c 0,0 -0.384,0.048 -0.672,0.048 -0.768,0 -0.96,-0.408 -1.176,-2.28 -0.264,-3.36 -0.624,-9.096 -0.624,-9.792 0,-0.792 0.504,-1.152 1.896,-1.32 l 0.12,-0.888 -0.048,-0.096 c 0,0 -1.872,0.144 -2.592,0.144 -0.48,0 -1.584,-0.072 -1.584,-0.048 -2.28,6.888 -4.152,11.856 -4.152,11.856 h -0.12 c 0,0 -1.896,-4.92 -4.056,-11.904 0,0 -0.936,0.096 -1.632,0.096 -0.768,0 -2.616,-0.12 -2.616,-0.12 l -0.192,0.84 0.072,0.12 c 1.464,0.096 2.088,0.48 2.088,1.32 0,0.72 -0.864,8.616 -1.056,10.368 -0.144,1.296 -0.528,1.728 -1.536,1.848 l -0.12,1.104 c 0,0 1.104,-0.192 2.064,-0.192 0.792,0 2.328,0.096 2.328,0.096 l 0.216,-1.08 -0.048,-0.096 c 0,0 -0.744,0.024 -0.984,0.024 -0.504,0 -0.744,-0.24 -0.744,-0.744 0,-0.624 0.816,-10.68 0.816,-10.68 h 0.12 l 4.656,12.936 z"
       style="font-size:24px;font-family:Alegreya;text-anchor:middle;fill:#000000"
       id="path3735"
       inkscape:connector-curvature="0" />
    <path
       d="m 225.64038,28.288 c 3.48,0 5.928,-1.944 5.928,-4.68 0,-2.184 -2.352,-3.288 -4.44,-4.368 -1.704,-0.888 -3.264,-1.776 -3.264,-3.216 0,-1.32 1.272,-2.304 3.024,-2.304 2.16,0 2.856,0.552 2.856,2.232 0,0.744 -0.072,1.248 -0.072,1.248 l 0.144,0.12 0.936,-0.096 c 0.144,-2.208 0.528,-4.056 0.528,-4.056 l -0.072,-0.144 c 0,0 -1.536,-0.6 -3.672,-0.6 -3.12,0 -5.52,1.944 -5.52,4.464 0,2.088 1.992,3.192 3.912,4.2 1.848,0.96 3.648,1.824 3.648,3.384 0,1.632 -1.344,2.64 -3.336,2.64 -2.592,0 -3.12,-0.72 -3.12,-4.176 l -1.08,0.12 c 0,2.328 -0.288,4.176 -0.288,4.176 l 0.12,0.24 c 0,0 1.512,0.816 3.768,0.816 z"
       style="font-size:24px;font-family:Alegreya;text-anchor:middle;fill:#000000"
       id="path3737"
       inkscape:connector-curvature="0" />
  </g>
</svg>
