<?xml version="1.0" encoding="UTF-8" standalone="no"?>
<!DOCTYPE svg PUBLIC "-//W3C//DTD SVG 1.1//EN" "http://www.w3.org/Graphics/SVG/1.1/DTD/svg11.dtd">
<svg xmlns:dc="http://purl.org/dc/elements/1.1/" xmlns:cc="http://creativecommons.org/ns#" xmlns:rdf="http://www.w3.org/1999/02/22-rdf-syntax-ns#" xmlns:svg="http://www.w3.org/2000/svg" xmlns="http://www.w3.org/2000/svg" viewBox="0 0 1053.3333 685.33331" height="685.33331" width="1053.3333" xml:space="preserve" id="svg2" version="1.1"><metadata id="metadata8"><rdf:RDF><cc:Work rdf:about=""><dc:format>image/svg+xml</dc:format><dc:type rdf:resource="http://purl.org/dc/dcmitype/StillImage"/></cc:Work></rdf:RDF></metadata><defs id="defs6"/><g transform="matrix(1.3333333,0,0,-1.3333333,0,685.33333)" id="g10"><g transform="scale(0.1)" id="g12"><path id="path14" style="fill:#b5d118;fill-opacity:1;fill-rule:nonzero;stroke:none" d="m 2758.86,298.262 c -111.58,-90.723 -250.73,-138.621 -412.12,-138.621 -161.67,0 -302.89,47.898 -414.57,138.621 -124.89,102.66 -175.16,223.398 -175.16,419.238 v 963.76 l 186.71,23.86 V 774.242 c 0,-186.543 13.88,-239.043 86.38,-318.633 75.44,-84.5 184.39,-129.879 314.38,-129.879 129.45,0 239.25,45.379 314.21,129.879 73.05,79.59 86.44,132.09 86.44,318.633 v 907.018 l 186.62,23.86 V 717.5 c 0,-200.66 -47.42,-316.578 -172.89,-419.238"/><path id="path16" style="fill:#b5d118;fill-opacity:1;fill-rule:nonzero;stroke:none" d="m 427.426,1606.23 c 111.476,90.8 250.418,138.69 411.863,138.69 161.761,0 302.911,-47.89 414.471,-138.69 125.39,-102.93 175.35,-223.57 175.35,-419.23 V 199.871 h -186.7 v 930.389 c 0,186.68 -13.83,239 -86.46,318.45 -75.31,84.33 -184.438,129.78 -314.138,129.78 -129.718,0 -239.332,-45.45 -314.433,-129.78 -72.856,-79.45 -86.406,-131.77 -86.406,-318.45 V 199.871 H 254.215 V 1187 c 0,200.51 47.82,316.3 173.211,419.23"/><path id="path18" style="fill:#b5d118;fill-opacity:1;fill-rule:nonzero;stroke:none" d="m 3968.9,1568.28 c -302.83,0 -550.88,-277.63 -550.88,-614.26 0,-339.372 248.05,-616.579 550.88,-616.579 300.6,0 548.51,277.207 548.51,616.579 0,336.63 -247.91,614.26 -548.51,614.26 m 0,-1394.909 c -437.28,0 -755.88,327.777 -755.88,780.649 0,450.46 318.6,778.15 755.88,778.15 437.27,0 753.61,-327.69 753.61,-778.15 0,-452.872 -316.34,-780.649 -753.61,-780.649"/><path id="path20" style="fill:#b5d118;fill-opacity:1;fill-rule:nonzero;stroke:none" d="M 5454.7,1569.67 H 5170.49 V 381.73 h 284.21 c 198.45,0 309.97,38.649 405.75,136.661 109.01,115.988 184.16,302.57 184.16,466.441 0,334.238 -250.36,584.838 -589.91,584.838 M 6037.67,443.25 C 5901.16,286.27 5744.22,224.699 5482.66,224.699 H 4983.59 V 1726.93 h 501.24 c 439.38,0 755.78,-311.98 755.78,-744.211 0,-195.899 -72.68,-391.36 -202.94,-539.469"/><path id="path22" style="fill:#b5d118;fill-opacity:1;fill-rule:nonzero;stroke:none" d="M 6934.13,912.031 H 6677 V 381.73 h 257.13 c 137,0 188.99,13.981 241.46,57.129 47.9,40.86 79.69,120.422 79.69,200.09 0,175.332 -116.15,273.082 -321.15,273.082 m 202.82,603.209 c -38.83,40.7 -86.33,54.43 -202.82,54.43 H 6677 v -486.81 h 243.73 c 106.84,0 154.67,15.95 204.67,65.9 45.62,45.44 73.18,116.21 73.18,193.54 0,72.65 -22.99,133.71 -61.63,172.94 M 7045.79,224.699 H 6490.56 V 1726.93 h 487.23 c 145.33,0 225.2,-25.09 300.46,-93.31 72.42,-68.52 118.27,-170.87 118.27,-275.37 0,-161.76 -97.85,-291.41 -257.39,-346.16 200.43,-38.828 314.52,-179.93 314.52,-387.031 0,-238.778 -164.3,-400.36 -407.86,-400.36"/><path id="path24" style="fill:#b5d118;fill-opacity:1;fill-rule:nonzero;stroke:none" d="m 3259.92,3499.56 -1.31,1.8 1.31,-1.8"/><path id="path26" style="fill:#b5d118;fill-opacity:1;fill-rule:nonzero;stroke:none" d="m 3938.49,4843.14 -216.77,-12.9 -482.58,-1306.09 -574.76,672.69 -227.41,56.76 -1164.39,721.22 225.9,-735.13 0.59,-3.35 -595.886,83.68 659.716,-1269.85 626.01,-410.68 -1935.836,-580.17 2677.276,313.85 -0.7,462.8 91.61,26.84 674.86,197.27 197.55,1470.44 537.22,-349.79 -492.4,662.41"/><path id="path28" style="fill:#b5d118;fill-opacity:1;fill-rule:nonzero;stroke:none" d="m 7637.1,1573.53 c 18.52,0 29.54,9.04 29.54,23.23 v 0.77 c 0,14.98 -11.02,23.25 -29.54,23.25 h -36.98 v -47.25 z m -65.36,72.85 h 66.56 c 19.68,0 35.04,-5.91 45.28,-16.15 7.88,-7.47 12.2,-18.12 12.2,-31.11 v -0.78 c 0,-24.05 -14.17,-38.97 -34.63,-44.9 l 40.17,-56.3 h -33.87 l -36.22,51.57 h -31.11 v -51.57 h -28.38 v 149.24"/><path id="path30" style="fill:#b5d118;fill-opacity:1;fill-rule:nonzero;stroke:none" d="m 7628.32,1697.39 c -70.61,0 -128.07,-57.46 -128.07,-128.12 0,-70.59 57.46,-128.04 128.07,-128.04 70.65,0 128.09,57.45 128.09,128.04 0,70.66 -57.44,128.12 -128.09,128.12 z m 0,-278.16 c -82.74,0 -150.04,67.32 -150.04,150.04 0,82.79 67.3,150.11 150.04,150.11 82.76,0 150.06,-67.32 150.06,-150.11 0,-82.72 -67.3,-150.04 -150.06,-150.04"/></g></g></svg>