<?xml version="1.0" encoding="utf-8"?>
<!-- Generator: Adobe Illustrator 22.0.1, SVG Export Plug-In . SVG Version: 6.00 Build 0)  -->
<svg version="1.1" id="Layer_1" xmlns="http://www.w3.org/2000/svg" xmlns:xlink="http://www.w3.org/1999/xlink" x="0px" y="0px"
	 viewBox="0 0 1237.7 345.2" width="1237.7" height="345.2" style="enable-background:new 0 0 1237.7 345.2;" xml:space="preserve">
<style type="text/css">
	.st0{display:none;fill:none;}
	.st1{fill:#4F008C;}
	.st2{fill:#FF375E;}
</style>
<g>
	<polygon class="st1" points="168.8,56.2 112.5,0 0,112.5 112.5,225.1 168.8,168.8 112.5,112.5 	"/>
	
		<rect x="129" y="72.7" transform="matrix(0.7071 -0.7071 0.7071 0.7071 -30.111 152.3079)" class="st2" width="79.6" height="79.6"/>
	<path class="st1" d="M300.3,137.3h26.4c2.3,8.9,9.9,14,22.5,14c13.2,0,21.2-4.7,21.2-12.8c0-7.8-3.1-11.8-22.9-12.6
		c-33.8-1.4-44.3-12.4-44.3-31.1c0-21,16.7-33.4,44.8-33.4c27.4,0,42.9,12.6,46,31.5h-25.8c-2.5-5.6-7.8-10.1-20.4-10.1
		c-12,0-19.4,4.1-19.4,10.9c0,7,3.1,9.9,22.3,10.7c34.4,1.4,45.2,12.2,45.2,33c0,22.3-17.3,35.7-46.2,35.7
		C319.5,173.2,302.4,158.6,300.3,137.3"/>
	<path class="st1" d="M467.7,150.1c18.6,0,29.9-13,29.9-33c0-19.6-11.3-32.6-29.9-32.6c-18.8,0-29.9,13-29.9,32.6
		C437.8,137.1,448.9,150.1,467.7,150.1 M467.7,173.2c-33.4,0-56.1-23.5-56.1-56.1c0-32.4,22.7-55.7,56.1-55.7
		c33.6,0,56.1,23.3,56.1,55.7C523.8,149.7,501.3,173.2,467.7,173.2"/>
	<path class="st1" d="M574.9,170.1c-21,0-30.9-11.3-30.9-28.9V18.5h25.8v120.2c0,6,3.1,8.7,8,8.7h11.1v22.7L574.9,170.1L574.9,170.1
		z"/>
	<path class="st1" d="M682.3,170.1v-12.8c-8.5,10.1-20.8,15.9-35.7,15.9c-23.9,0-38.4-16.5-38.4-41.2V64.4H634v61.5
		c0,13.8,6.4,23.9,20.4,23.9c10.9,0,23.1-7.4,27.8-18.1V64.5H708v105.8h-25.7V170.1z"/>
	<path class="st1" d="M767.7,170.1c-22.5,0-33-11.6-33-29.1V29.5h25.8v34.9h33.8V87h-33.8v50.7c0,6.6,3.5,9.7,9.3,9.7h24.5v22.7
		L767.7,170.1L767.7,170.1z"/>
	<path class="st1" d="M837.3,18.5h25.8v26.2h-25.8V18.5z M837.3,87h-24.2V64.3h50v105.8h-25.8V87z"/>
	<path class="st1" d="M941.4,150.1c18.6,0,29.9-13,29.9-33c0-19.6-11.3-32.6-29.9-32.6c-18.8,0-29.9,13-29.9,32.6
		C911.5,137.1,922.7,150.1,941.4,150.1 M941.4,173.2c-33.4,0-56.1-23.5-56.1-56.1c0-32.4,22.7-55.7,56.1-55.7
		c33.6,0,56.1,23.3,56.1,55.7C997.5,149.7,975.1,173.2,941.4,173.2"/>
	<path class="st1" d="M1019.5,170.1V64.3h25.8v13.2c8.7-10.3,21.4-16.1,36.7-16.1c24.7,0,39.6,16.5,39.6,41V170h-25.8v-61.2
		c0-13.8-6.6-23.9-21.7-23.9c-11.3,0-23.9,7.4-28.9,18.1v67h-25.7V170.1z"/>
	<path class="st1" d="M1142.1,137.3h26.4c2.3,8.9,9.9,14,22.5,14c13.2,0,21.2-4.7,21.2-12.8c0-7.8-3.1-11.8-22.9-12.6
		c-33.8-1.4-44.3-12.4-44.3-31.1c0-21,16.7-33.4,44.8-33.4c27.4,0,42.9,12.6,46,31.5H1210c-2.5-5.6-7.8-10.1-20.4-10.1
		c-12,0-19.4,4.1-19.4,10.9c0,7,3.1,9.9,22.3,10.7c34.4,1.4,45.2,12.2,45.2,33c0,22.3-17.3,35.7-46.2,35.7
		C1161.3,173.2,1144.2,158.6,1142.1,137.3"/>
	<path class="st1" d="M905.1,287.7c0,3.1,0.4,5.9,1.2,8.6c0.8,2.7,1.9,5,3.3,7c1.4,2,3.2,3.5,5.3,4.7c2.1,1.1,4.5,1.7,7.2,1.7
		c2.6,0,5-0.6,7.1-1.7c2.1-1.1,3.9-2.7,5.4-4.7s2.6-4.3,3.4-7c0.8-2.7,1.2-5.5,1.2-8.6s-0.4-5.9-1.2-8.6c-0.8-2.7-1.9-5-3.4-7
		c-1.5-1.9-3.3-3.5-5.4-4.6c-2.1-1.1-4.5-1.7-7.1-1.7c-2.7,0-5.1,0.6-7.2,1.7c-2.1,1.1-3.9,2.7-5.3,4.6c-1.4,1.9-2.6,4.3-3.3,7
		C905.5,281.7,905.1,284.6,905.1,287.7 M905.3,318.5h-11.1v-91.7h11.1v40.3c0.3-0.7,0.9-1.8,1.9-3.1c0.9-1.3,2.1-2.6,3.6-3.9
		c1.5-1.3,3.4-2.4,5.6-3.3c2.2-0.9,4.9-1.4,7.9-1.4c3.6,0,7,0.7,10.2,2.2s6,3.6,8.3,6.4c2.4,2.8,4.3,6.2,5.7,10.2s2.1,8.6,2.1,13.7
		c0,5.1-0.7,9.6-2.1,13.6c-1.4,4-3.3,7.4-5.7,10.2s-5.2,4.9-8.3,6.4c-3.2,1.5-6.6,2.2-10.2,2.2c-3.1,0-5.7-0.5-7.9-1.4
		s-4.1-2-5.6-3.2s-2.7-2.4-3.6-3.7c-0.9-1.2-1.5-2.2-1.9-2.9V318.5z"/>
	<polygon class="st1" points="981.5,345.2 970.3,345.2 981.2,317.5 956.6,257 968.9,257 987,302.7 1005,257 1016.5,257 	"/>
	<path class="st1" d="M1147.3,318.2c7.4,0,12.7-2.3,15-4.3v-15.4c-1.7,1.3-5.1,2.8-9.5,2.8c-3.1,0-5.4-0.7-7.1-2.3
		c-1.4-1.4-2.1-3.8-2.1-7.1v-65.2h-18.8V246h37.6v18.2h-37.6v32.3c0,6.6,2,11.8,5.6,15.5C1134.2,316.1,1140,318.2,1147.3,318.2
		 M1204.8,318.2c10.5,0,18.7-3.8,24.2-9.3c4.4-4.3,7.1-9.3,8.5-14.4l-16.7-5.6c-0.7,2.6-2.1,5.3-4.4,7.4c-2.7,2.6-6.4,4.4-11.7,4.4
		c-4.8,0-9.4-1.9-12.7-5.1c-3.3-3.4-5.3-8.4-5.3-14.7c0-6.4,2-11.3,5.3-14.7c3.3-3.3,7.7-5,12.5-5c5.1,0,8.7,1.7,11.3,4.3
		c2.1,2.1,3.4,4.8,4.3,7.5l16.9-5.7c-1.3-5-4-10-8-14.1c-5.7-5.6-14-9.5-24.9-9.5c-10.1,0-19.2,3.8-25.8,10.4
		c-6.6,6.7-10.5,15.9-10.5,26.8c0,10.8,4.1,20.1,10.8,26.8C1185.3,314.4,1194.6,318.2,1204.8,318.2 M1084.6,318.2
		c9.5,0,17.4-3,22.5-8c3.8-3.8,6.1-9,6.1-15c0-5.4-2-10.3-5.7-14s-9-6.4-15.7-7.7l-11-2.1c-4.6-0.9-7.1-3.1-7.1-6.3
		c0-4.1,4-7,10.4-7c4,0,7.4,1.3,9.7,3.6c1.4,1.6,2.4,3.6,2.7,5.8l15.8-3.6c-0.4-4.6-2.6-8.5-5.8-11.8c-5.1-5.1-13.1-8.4-22.5-8.4
		c-8.7,0-15.9,2.8-20.9,7.4c-4.3,4-6.7,9.4-6.7,15.4c0,5.3,1.7,9.7,5.1,13.1c3.4,3.4,8.4,6,15,7.5l10.8,2.6c5.4,1.3,7.8,3.3,7.8,6.8
		c0,4.4-4,7-10.5,7c-4.7,0-8.5-1.6-11-4.1c-1.7-1.7-2.7-4-2.8-6.6l-16.2,3.6c0.4,4.8,2.7,9.1,6.1,12.5
		C1066.1,314.8,1074.8,318.2,1084.6,318.2"/>
</g>
</svg>
