<svg xmlns="http://www.w3.org/2000/svg" width="59" height="60" viewBox="0 0 59 60"><g><g><g><path fill="#fff" d="M57.498.892v58.215H.892V.892h56.606"/></g><g><g><path fill="#4d4435" d="M58.39 60H0V0h58.39zM57.503.887H.887v58.226h56.616V.887"/></g></g><g><g><path fill="#4d4435" d="M15.137 38.09c0 1.112-.46 1.817-1.436 1.817H12.4v-5.8h1.3c.977 0 1.437.704 1.437 1.816zm2.332 11.547v-5.963c0-1.355-.489-2.52-1.464-2.927.84-.434 1.464-1.437 1.464-2.656v-2.168c0-2.331-1.085-3.957-3.768-3.957h-3.632v17.67h2.33v-7.778h1.302c.976 0 1.436.705 1.436 1.816v5.963z"/></g><g><path fill="#4d4435" d="M24.082 45.923c0 1.247-.596 1.816-1.464 1.816-.867 0-1.463-.57-1.463-1.816V35.68c0-1.247.596-1.817 1.463-1.817.868 0 1.464.57 1.464 1.817zm2.33.136V35.543c0-2.412-1.463-3.794-3.794-3.794-2.33 0-3.794 1.382-3.794 3.794V46.06c0 2.412 1.463 3.794 3.794 3.794s3.794-1.382 3.794-3.794z"/></g></g><g><g><path fill="#4d4435" d="M33.663 49.853c-2.331 0-3.686-1.382-3.686-3.794V35.543c0-2.412 1.355-3.794 3.686-3.794 2.33 0 3.659 1.382 3.659 3.794v2.006H34.99v-1.87c0-1.247-.461-1.817-1.328-1.817s-1.355.57-1.355 1.817v10.244c0 1.247.488 1.816 1.355 1.816s1.328-.57 1.328-1.816v-1.87h2.33v2.006c0 2.412-1.327 3.794-3.658 3.794z"/></g><g><path fill="#4d4435" d="M44.206 45.923c0 1.247-.596 1.816-1.464 1.816-.867 0-1.463-.57-1.463-1.816V35.68c0-1.247.596-1.817 1.463-1.817.868 0 1.464.57 1.464 1.817zm2.33.136V35.543c0-2.412-1.463-3.794-3.794-3.794-2.33 0-3.794 1.382-3.794 3.794V46.06c0 2.412 1.463 3.794 3.794 3.794s3.794-1.382 3.794-3.794z"/></g></g><g><g><path fill="#4d4435" d="M23.924 23.54c0 1.246-.597 1.815-1.464 1.815s-1.464-.569-1.464-1.815V13.295c0-1.247.597-1.816 1.464-1.816s1.464.57 1.464 1.816zm2.33.135V13.159c0-2.412-1.463-3.794-3.794-3.794-2.33 0-3.795 1.382-3.795 3.794v10.516c0 2.412 1.464 3.794 3.795 3.794s3.794-1.382 3.794-3.794z"/></g><g><g><path fill="#4d4435" d="M14.709 13.295v1.87h2.303v-2.006c0-.955-.22-1.741-.626-2.352l-1.987 1.24c.195.294.31.703.31 1.248z"/></g><g><path fill="#4d4435" d="M12.893 16.276c-.828-.879-1.06-1.589-1.08-2.617l-2.176 1.357c.191.975.62 1.794 1.467 2.697l2.628 2.845c.868.922 1.085 1.654 1.085 2.765 0 1.328-.542 2.032-1.626 2.032-.814 0-1.491-.569-1.491-1.815v-1.87H9.396v2.005c0 2.466 1.519 3.794 3.795 3.794 2.63 0 3.93-1.761 3.93-4.146 0-1.734-.353-2.873-1.6-4.201z"/></g></g></g><g><g><path fill="#4d4435" d="M47.871 49.612v-1.49h-.506v-.194H48.6v.194h-.506v1.49z"/></g><g><path fill="#4d4435" d="M48.815 49.612v-1.684h.294l.517 1.367.516-1.367h.294v1.684h-.223v-1.355l-.004-.003-.493 1.358h-.18l-.494-1.358-.004.003v1.355z"/></g></g></g></g></svg>