<svg id="Layer_1" data-name="Layer 1" xmlns="http://www.w3.org/2000/svg" viewBox="0 0 574.09 117.64"><defs><style>.cls-1{fill:#231f20;}.cls-2{fill:#ed2a3d;}.cls-3{fill:#0780d7;}</style></defs><title>WWT logo-no-inc-01</title><path class="cls-1" d="M208.27,94.19h6.1c3.51,15,3.85,16.89,4.35,20h.08c.5-2.86.91-5.64,3.81-20h6.06c3.2,15,3.47,16.47,4.08,20h.08c.46-2.59.91-5,4.46-20h5.8l-7.7,27.38h-5.49c-2.82-13.42-3.32-16.09-4.23-21.35h-.08c-.84,5.26-1.3,7.24-4.24,21.35H216l-7.74-27.38" transform="translate(-35.13 -46.04)"/><path class="cls-1" d="M261.87,111.42c0-7.32-4.92-10.67-10.37-10.67s-10.37,3.35-10.37,10.67,4.92,10.68,10.37,10.68,10.37-3.36,10.37-10.68m-5.49,0c0,2.59-.76,6.18-4.88,6.18s-4.88-3.58-4.88-6.18.76-6.18,4.88-6.18,4.88,3.59,4.88,6.18" transform="translate(-35.13 -46.04)"/><path class="cls-1" d="M264,101.28h5.11v3.51h.07c1.11-2.06,2.33-4,5.57-4a8.37,8.37,0,0,1,1,.08v5.41a9.42,9.42,0,0,0-1.52-.08c-4.16,0-4.92,2.59-4.92,4.84v10.56H264V101.28" transform="translate(-35.13 -46.04)"/><rect class="cls-1" x="243.17" y="48.15" width="5.34" height="27.38"/><path class="cls-1" d="M305.76,94.19h-5.34v9.73h-.08a6.5,6.5,0,0,0-5.87-3.17c-4.46,0-8.43,3.43-8.43,10.45,0,5.56,2.52,10.91,8.54,10.91a6.44,6.44,0,0,0,5.87-3.09h.08v2.56h5.22V94.19m-14.22,17.39c0-3.2,1.14-6.22,4.54-6.22,3.66,0,4.57,3.28,4.57,6.52,0,3-1.33,5.83-4.72,5.83s-4.39-3.73-4.39-6.14" transform="translate(-35.13 -46.04)"/><path class="cls-1" d="M316.2,94.19h6.1c3.51,15,3.85,16.89,4.35,20h.08c.49-2.86.91-5.64,3.81-20h6.06c3.2,15,3.47,16.47,4.08,20h.08c.46-2.59.92-5,4.46-20H351l-7.7,27.38h-5.49c-2.82-13.42-3.32-16.09-4.23-21.35h-.08c-.84,5.26-1.3,7.24-4.23,21.35h-5.34L316.2,94.19" transform="translate(-35.13 -46.04)"/><path class="cls-1" d="M359.55,98.88h-5.34v-5h5.34Zm0,22.69h-5.34V101.28h5.34Z" transform="translate(-35.13 -46.04)"/><path class="cls-1" d="M381.66,94.19h-5.33v9.73h-.08a6.5,6.5,0,0,0-5.87-3.17c-4.46,0-8.43,3.43-8.43,10.45,0,5.56,2.52,10.91,8.54,10.91a6.45,6.45,0,0,0,5.87-3.09h.07v2.56h5.22V94.19m-14.22,17.39c0-3.2,1.14-6.22,4.54-6.22,3.66,0,4.58,3.28,4.58,6.52,0,3-1.34,5.83-4.73,5.83s-4.38-3.73-4.38-6.14" transform="translate(-35.13 -46.04)"/><path class="cls-1" d="M397.6,115.62a3.43,3.43,0,0,1-3.43,2.21c-4.31,0-4.61-3.43-4.77-5h13.92v-1c0-9.27-5.53-11.17-9.53-11.17-8.88,0-9.72,7.82-9.72,10.25,0,8.35,4.39,11.1,10.1,11.1,3.47,0,7.51-1.61,8.92-6.48H397.6m-8-6.21c.31-2.67,1.64-4.27,4.16-4.27,1.72,0,3.81,1,4.12,4.27Z" transform="translate(-35.13 -46.04)"/><polygon class="cls-1" points="389.8 75.53 384.08 75.53 384.08 52.99 375.81 52.99 375.81 48.15 398.07 48.15 398.07 52.99 389.8 52.99 389.8 75.53"/><path class="cls-1" d="M444.3,115.62a3.43,3.43,0,0,1-3.43,2.21c-4.31,0-4.61-3.43-4.77-5H450v-1c0-9.27-5.53-11.17-9.53-11.17-8.88,0-9.72,7.82-9.72,10.25,0,8.35,4.39,11.1,10.1,11.1,3.47,0,7.51-1.61,8.92-6.48H444.3m-8-6.21c.3-2.67,1.64-4.27,4.15-4.27,1.72,0,3.81,1,4.12,4.27Z" transform="translate(-35.13 -46.04)"/><path class="cls-1" d="M469.5,114.16c-.19,2.1-1.83,7.94-9.26,7.94-7.63,0-9.38-5.83-9.38-10.11,0-6.56,2.86-11.25,9.72-11.25,3.2,0,8.46,1.45,9,7.78h-5.41c-.23-1.33-1.07-3.43-3.55-3.28-3.35,0-4.23,3.36-4.23,5.87,0,2.21.08,6.59,4.12,6.59a3.72,3.72,0,0,0,3.62-3.55h5.41" transform="translate(-35.13 -46.04)"/><path class="cls-1" d="M490,121.56h-5.34V109.25c0-1.48-.08-4-3.47-4-2.36,0-4.2,1.6-4.2,4.69v11.63h-5.34V94.19H477v9.73h.08c.69-1.68,3-3.17,5.87-3.17,4,0,7.05,2.33,7.05,6.79v14" transform="translate(-35.13 -46.04)"/><path class="cls-1" d="M511.82,121.56h-5.34V109.25c0-1.48-.08-4-3.47-4-2.37,0-4.19,1.6-4.19,4.69v11.63h-5.34V101.28h5.11v3h.08a6.53,6.53,0,0,1,6.1-3.51c4,0,7.05,2.33,7.05,6.79v14" transform="translate(-35.13 -46.04)"/><path class="cls-1" d="M534.81,111.42c0-7.32-4.92-10.67-10.37-10.67s-10.37,3.35-10.37,10.67S519,122.1,524.44,122.1s10.37-3.36,10.37-10.68m-5.49,0c0,2.59-.76,6.18-4.88,6.18s-4.88-3.58-4.88-6.18.76-6.18,4.88-6.18,4.88,3.59,4.88,6.18" transform="translate(-35.13 -46.04)"/><rect class="cls-1" x="502.03" y="48.15" width="5.34" height="27.38"/><path class="cls-1" d="M565.65,111.42c0-7.32-4.92-10.67-10.37-10.67s-10.37,3.35-10.37,10.67,4.92,10.68,10.37,10.68,10.37-3.36,10.37-10.68m-5.49,0c0,2.59-.76,6.18-4.88,6.18s-4.88-3.58-4.88-6.18.76-6.18,4.88-6.18,4.88,3.59,4.88,6.18" transform="translate(-35.13 -46.04)"/><path class="cls-1" d="M582.12,101.28v3H582a6.1,6.1,0,0,0-5.95-3.55c-4.46,0-8.42,3.43-8.42,10.45s3.85,10.48,8.73,10.48a5.51,5.51,0,0,0,5.42-3l.07.08v2.44c0,3.28-1.37,4.65-4.23,4.65-3.08,0-3.5-1-3.73-2.06h-5.8c.23,4.31,4.65,6.1,8.85,6.1,10,0,10.26-5.83,10.26-9.35V101.28h-5.11m-9,10.26c0-4.73,2.21-6.18,4.19-6.18,3,0,4.58,2.67,4.58,5.95,0,2.79-.92,5.87-4.54,5.87-3.17,0-4.23-3.05-4.23-5.64" transform="translate(-35.13 -46.04)"/><path class="cls-1" d="M602.25,121.22c-2.52,7.51-3.2,8.5-7.86,8.5-.72,0-1.64,0-2.4-.08v-4.27a6.71,6.71,0,0,0,1,.07c1.94,0,3-.26,3.51-3.05l-7.48-21.12H595l4.35,14.94h.08l4.16-14.94h5.64l-7,19.94" transform="translate(-35.13 -46.04)"/><polyline class="cls-2" points="0 0.03 67.01 79.44 161.2 0.07 121.52 0 99.22 18.77 83.55 0.03 48.67 0.03 78.66 36.03 70.12 43.19 34.22 0.03 0 0.03"/><polyline class="cls-2" points="157.82 17.72 174.14 37.19 218.28 0.03 178.37 0.03 157.82 17.72"/><polyline class="cls-3" points="150.5 23.86 166.83 43.32 139.25 66.46 182.08 117.6 147.37 117.64 118.67 83.73 90.33 107.51 74 88.05 150.5 23.86"/></svg>