<svg height="111" viewBox="0 0 3205 111" width="3205" xmlns="http://www.w3.org/2000/svg"><g fill="none" fill-rule="evenodd" opacity=".15" transform="translate(-4.782372 .782684)"><path d="m1608.00237 16.933532c8.21-.2474826 766.25-22.78992228 1155.74-15.47304449 198 3.72299958 302.1 11.16899879 447.42 18.87324069 17.28.9146097-18.7 1.8292194 0 2.7438292v90.1697586h-3206.31999785v-90.1697586c18.69999995-.9146098-17.28000005-1.8292195 0-2.7438292 145.31999985-7.7042419 249.41999985-15.15024111 447.41999985-18.87324069 389.5-7.31687779 1147.519998 15.23632199 1155.739998 15.47304449z" fill="#00dbff"/><path d="m1607.93237 41.387316v-.12.12c.04667-.000001.09334-.000001.14 0v-.12.12c12.28-.19 862.84-12.9 1304.2-5.2 123.34 2.15 298.9 8.96 298.9 8.96v64.43h-3206.33999785v-64.43s175.55999985-6.81 298.88999985-8.97c441.36-7.7 1291.919998 5.02 1304.199998 5.2z" fill="#9000b0" fill-opacity=".269744"/></g></svg>