<svg viewBox="0 0 607 583" xmlns="http://www.w3.org/2000/svg" xmlns:xlink="http://www.w3.org/1999/xlink"><linearGradient id="a" x1="5.8%" x2="106.6%" y1="41.4%" y2="56.8%"><stop offset="0" stop-color="#c4d6f4"/><stop offset="1" stop-color="#8ea1bf"/></linearGradient><linearGradient id="b" x1="3.3%" x2="104%" y1="21.4%" y2="75.2%"><stop offset="0" stop-color="#97aac8"/><stop offset="1" stop-color="#a1b3d1"/></linearGradient><linearGradient id="c" x1="37.1%" x2="59.6%" y1="7.3%" y2="106.8%"><stop offset="0" stop-color="#f6ffff"/><stop offset="1" stop-color="#daebff"/></linearGradient><linearGradient id="d" x1="42.2%" x2="61.7%" y1="-9.5%" y2="89.9%"><stop offset="0" stop-color="#b8cae8"/><stop offset="1" stop-color="#bacce9"/></linearGradient><linearGradient id="e" x1="-10.8%" x2="142.3%" y1="20.9%" y2="94.2%"><stop offset="0" stop-color="#afc1df"/><stop offset="1" stop-color="#c8daf7"/></linearGradient><linearGradient id="f" x1=".9%" x2="113.2%" y1="43.7%" y2="58.1%"><stop offset="0" stop-color="#b5c6e4"/><stop offset="1" stop-color="#b8cae8"/></linearGradient><linearGradient id="g"><stop offset="0" stop-color="#fff"/><stop offset="1" stop-color="#fff"/></linearGradient><linearGradient id="h" x1="8.5%" x2="91.9%" xlink:href="#g" y1=".1%" y2="100.4%"/><linearGradient id="i" x1="4.7%" x2="102.8%" y1="-2.9%" y2="96.2%"><stop offset="0" stop-color="#e2f4ff"/><stop offset="1" stop-color="#ddefff"/></linearGradient><linearGradient id="j" x1="-23%" x2="77.5%" y1="43%" y2="68.4%"><stop offset="0" stop-color="#c4d6f4"/><stop offset="1" stop-color="#c6d8f6"/></linearGradient><linearGradient id="k" x1="38.3%" x2="56.4%" y1="14.6%" y2="114.1%"><stop offset="0" stop-color="#f2ffff"/><stop offset="1" stop-color="#d6e8ff"/></linearGradient><linearGradient id="l" x1="7.2%" x2="107.7%" y1="12.8%" y2="77.8%"><stop offset="0" stop-color="#b3c4e2"/><stop offset="1" stop-color="#b6c8e6"/></linearGradient><linearGradient id="m" x1="-1.6%" x2="98.5%" y1="36.9%" y2="63.7%"><stop offset="0" stop-color="#bfd1ef"/><stop offset="1" stop-color="#bacce9"/></linearGradient><linearGradient id="n" x1="2.6%" x2="102.9%" y1="44.8%" y2="54.8%"><stop offset="0" stop-color="#c8daf7"/><stop offset="1" stop-color="#cddffd"/></linearGradient><linearGradient id="o" x1="-7.9%" x2="90.5%" y1="9%" y2="108.5%"><stop offset="0" stop-color="#d1e4ff"/><stop offset="1" stop-color="#a7b8d6"/></linearGradient><linearGradient id="p" x1="7.1%" x2="107.6%" y1="26.4%" y2="67.6%"><stop offset="0" stop-color="#7c8eac"/><stop offset="1" stop-color="#9eafcd"/></linearGradient><linearGradient id="q" x1="-8.2%" x2="92.4%" xlink:href="#g" y1="11.7%" y2="102.4%"/><linearGradient id="r"><stop offset="0" stop-color="#a8bad8"/><stop offset="1" stop-color="#7c8eac"/></linearGradient><linearGradient id="s" x1="-201.5%" x2="1171.3%" xlink:href="#r" y1="-73.4%" y2="600.1%"/><linearGradient id="t" x1="-53.5%" x2="308.7%" xlink:href="#r" y1="-91.6%" y2="292.2%"/><linearGradient id="u" x1="-1%" x2="99.3%" y1="30.1%" y2="89.4%"><stop offset="0" stop-color="#8293b1"/><stop offset="1" stop-color="#495b79"/></linearGradient><linearGradient id="v" x1="11.2%" x2="95.9%" xlink:href="#r" y1="-3.6%" y2="95.7%"/><linearGradient id="w" x1="-85.3%" x2="184.7%" xlink:href="#r" y1=".8%" y2="99%"/><linearGradient id="x" x1="36.9%" x2="74.2%" xlink:href="#r" y1="17.5%" y2="117.3%"/><linearGradient id="y" x1="-48%" x2="209.5%" xlink:href="#r" y1="-22.7%" y2="168.5%"/><linearGradient id="z" x1="10.6%" x2="81.5%" y1="5.4%" y2="104.9%"><stop offset="0" stop-color="#efffff"/><stop offset="1" stop-color="#efffff"/></linearGradient><linearGradient id="A" x1="18.7%" x2="68.8%" y1="11.7%" y2="117.7%"><stop offset="0" stop-color="#d1e2ff"/><stop offset="1" stop-color="#d1e2ff"/></linearGradient><linearGradient id="B" x1="-10%" x2="130.7%" y1="42.1%" y2="62.3%"><stop offset="0" stop-color="#c1d3f0"/><stop offset="1" stop-color="#bacdeb"/></linearGradient><linearGradient id="C" x1="4.2%" x2="105%" y1="12.3%" y2="81.7%"><stop offset="0" stop-color="#d3e4ff"/><stop offset="1" stop-color="#bfd1ef"/></linearGradient><linearGradient id="D" x1="11.7%" x2="112.2%" y1="15.5%" y2="93.3%"><stop offset="0" stop-color="#cddffd"/><stop offset="1" stop-color="#c3d6f4"/></linearGradient><linearGradient id="E" x1="6.6%" x2="93%" y1="-.4%" y2="99.9%"><stop offset="0" stop-color="#bccdeb"/><stop offset="1" stop-color="#bccdeb"/></linearGradient><linearGradient id="F" x1="-29.2%" x2="178.6%" y1="18.6%" y2="89.6%"><stop offset="0" stop-color="#f9ffff"/><stop offset="1" stop-color="#fff"/></linearGradient><linearGradient id="G" x1="42.4%" x2="57.2%" y1="21.4%" y2="121%"><stop offset="0" stop-color="#f0ffff"/><stop offset="1" stop-color="#fff"/></linearGradient><linearGradient id="H" x1="11.8%" x2="212%" xlink:href="#g" y1="13.6%" y2="179.1%"/><linearGradient id="I" x1="27%" x2="96.9%" xlink:href="#g" y1="-16.7%" y2="82.8%"/><linearGradient id="J" x1="3.1%" x2="72.9%" xlink:href="#g" y1="17.2%" y2="116.7%"/><linearGradient id="K" x1="8.6%" x2="109.4%" y1="37.8%" y2="58.6%"><stop offset="0" stop-color="#fff"/><stop offset="1" stop-color="#fdffff"/></linearGradient><linearGradient id="L" x1="23.1%" x2="91.4%" y1="-9.9%" y2="89.4%"><stop offset="0" stop-color="#e8f9ff"/><stop offset="1" stop-color="#f2ffff"/></linearGradient><linearGradient id="M" x1="-85%" x2="262.2%" y1="-1.1%" y2="161.7%"><stop offset="0" stop-color="#899ab8"/><stop offset="1" stop-color="#9eb1cf"/></linearGradient><linearGradient id="N" x1="15.4%" x2="115.6%" y1="6%" y2="102.6%"><stop offset="0" stop-color="#a8bad8"/><stop offset="1" stop-color="#9eafcd"/></linearGradient><linearGradient id="O" x1="15.7%" x2="84.7%" y1="-16.9%" y2="147.8%"><stop offset="0" stop-color="#9caecc"/><stop offset="1" stop-color="#90a1bf"/></linearGradient><linearGradient id="P" x1="-27.8%" x2="129.5%" y1="-31.6%" y2="162%"><stop offset="0" stop-color="#a3b5d3"/><stop offset="1" stop-color="#8597b6"/></linearGradient><linearGradient id="Q" x1="-5.3%" x2="157.3%" xlink:href="#g" y1="-77.5%" y2="262.6%"/><linearGradient id="R" x1="10.5%" x2="111.2%" y1="12%" y2="74.8%"><stop offset="0" stop-color="#edffff"/><stop offset="1" stop-color="#efffff"/></linearGradient><linearGradient id="S" x1="-9.4%" x2="91.3%" y1="24.1%" y2="86.9%"><stop offset="0" stop-color="#edffff"/><stop offset="1" stop-color="#f6ffff"/></linearGradient><linearGradient id="T" x1="45.3%" x2="57%" y1="-9.3%" y2="90.1%"><stop offset="0" stop-color="#e6f7ff"/><stop offset="1" stop-color="#dbedff"/></linearGradient><linearGradient id="U" x1="30.7%" x2="74.4%" y1="-5.2%" y2="94.3%"><stop offset="0" stop-color="#fbffff"/><stop offset="1" stop-color="#f9ffff"/></linearGradient><linearGradient id="V" x1="-15.5%" x2="82.9%" y1="16.7%" y2="116.1%"><stop offset="0" stop-color="#e4f6ff"/><stop offset="1" stop-color="#efffff"/></linearGradient><linearGradient id="W" x1="-4.2%" x2="96.1%" y1="8.2%" y2="98.3%"><stop offset="0" stop-color="#fff"/><stop offset="1" stop-color="#fbffff"/></linearGradient><linearGradient id="X" x1="33%" x2="77.5%" y1="-11.1%" y2="88.3%"><stop offset="0" stop-color="#e4f6ff"/><stop offset="1" stop-color="#edffff"/></linearGradient><linearGradient id="Y" x1="34.4%" x2="62.8%" y1="5.1%" y2="104.2%"><stop offset="0" stop-color="#f0ffff"/><stop offset="1" stop-color="#f9ffff"/></linearGradient><linearGradient id="Z" x1="14%" x2="80.1%" y1="4.3%" y2="104.2%"><stop offset="0" stop-color="#f0ffff"/><stop offset="1" stop-color="#d8e9ff"/></linearGradient><linearGradient id="aa" x1="6.6%" x2="107%" y1="26.4%" y2="68%"><stop offset="0" stop-color="#e9fbff"/><stop offset="1" stop-color="#ebfdff"/></linearGradient><linearGradient id="ab" x1="-4.8%" x2="95.6%" y1="20.4%" y2="85.4%"><stop offset="0" stop-color="#dff0ff"/><stop offset="1" stop-color="#e6f7ff"/></linearGradient><linearGradient id="ac" x1="42.4%" x2="63.8%" y1="-1.9%" y2="100.4%"><stop offset="0" stop-color="#b8cae8"/><stop offset="1" stop-color="#efffff"/></linearGradient><linearGradient id="ad" x1="-17%" x2="126.6%" y1="45.8%" y2="56.8%"><stop offset="0" stop-color="#f2ffff"/><stop offset="1" stop-color="#f6ffff"/></linearGradient><linearGradient id="ae" x1="26.5%" x2="82.3%" y1="-24.1%" y2="151.8%"><stop offset="0" stop-color="#bccfed"/><stop offset="1" stop-color="#d1e2ff"/></linearGradient><linearGradient id="af" x1="-207.9%" x2="327%" xlink:href="#r" y1="-143.3%" y2="257.6%"/><mask id="ag" fill="#fff"><path d="m0 0 69.8 70.5 109.7-60.4z" fill="#fff" fill-rule="evenodd"/></mask><mask id="ah" fill="#fff"><path d="m0 60.5 15 20.1 94.7-80.6z" fill="#fff" fill-rule="evenodd"/></mask><mask id="ai" fill="#fff"><path d="m0 0 54.8 105.8-20 10z" fill="#fff" fill-rule="evenodd"/></mask><mask id="aj" fill="#fff"><path d="m20 0 19.9 90.7-39.9-80.7z" fill="#fff" fill-rule="evenodd"/></mask><mask id="ak" fill="#fff"><path d="m0 42.8h68.3l32.6-42.8z" fill="#fff" fill-rule="evenodd"/></mask><mask id="al" fill="#fff"><path d="m29.3 0-29.3 42.8h38l101-42.8z" fill="#fff" fill-rule="evenodd"/></mask><mask id="am" fill="#fff"><path d="m15 40.3 94.7-40.3-109.7 121z" fill="#fff" fill-rule="evenodd"/></mask><mask id="an" fill="#fff"><path d="m0 120.9 139.6-120.9-25 141z" fill="#fff" fill-rule="evenodd"/></mask><mask id="ao" fill="#fff"><path d="m0 55.4h109.7l-99.7-55.4z" fill="#fff" fill-rule="evenodd"/></mask><mask id="ap" fill="#fff"><path d="m25 0 34.8 115.8-59.8 25.2z" fill="#fff" fill-rule="evenodd"/></mask><mask id="aq" fill="#fff"><path d="m59.8 0 39.9 80.6-99.7-55.4z" fill="#fff" fill-rule="evenodd"/></mask><mask id="ar" fill="#fff"><path d="m0 0 20 90.7 154.4-75.7z" fill="#fff" fill-rule="evenodd"/></mask><mask id="as" fill="#fff"><path d="m0 40.3 144.6-40.3 29.9 55.4z" fill="#fff" fill-rule="evenodd"/></mask><mask id="at" fill="#fff"><path d="m0 0 69.8 70.5-39.9-15z" fill="#fff" fill-rule="evenodd"/></mask><mask id="au" fill="#fff"><path d="m39.9 15.1 15 20.2-54.9-35.3z" fill="#fff" fill-rule="evenodd"/></mask><mask id="av" fill="#fff"><path d="m0 60.5 89.7 25.1-54.7-85.6z" fill="#fff" fill-rule="evenodd"/></mask><mask id="aw" fill="#fff"><path d="m0 4.8h10.5v-4.8z" fill="#fff" fill-rule="evenodd"/></mask><mask id="ax" fill="#fff"><path d="m0 23.1 51 40.9v-64z" fill="#fff" fill-rule="evenodd"/></mask><mask id="ay" fill="#fff"><path d="m20.5 83h71.8l37.3-22.6-129.6-60.4z" fill="#fff" fill-rule="evenodd"/></mask><mask id="az" fill="#fff"><path d="m0 80.6 94.7-80.6 34.9 141z" fill="#fff" fill-rule="evenodd"/></mask><mask id="aA" fill="#fff"><path d="m0 22.6h37.3v-22.6z" fill="#fff" fill-rule="evenodd"/></mask><mask id="aB" fill="#fff"><path d="m34.9 141 16.1-3.7v-96.3l-51-41z" fill="#fff" fill-rule="evenodd"/></mask><mask id="aC" fill="#fff"><path d="m0 3.7v22.6h5.6l10.4-4.8v-21.5z" fill="#fff" fill-rule="evenodd"/></mask><mask id="aD" fill="#fff"><path d="m0 166.2 139.6-120.9-30-45.3z" fill="#fff" fill-rule="evenodd"/></mask><mask id="aE" fill="#fff"><path d="m0 118.3h19l63.3-22.6-44.8-95.7z" fill="#fff" fill-rule="evenodd"/></mask><mask id="aF" fill="#fff"><path d="m0 22.6h70.9l-7.5-22.6z" fill="#fff" fill-rule="evenodd"/></mask><mask id="aG" fill="#fff"><path d="m0 0 114.7 20.1-69.8 75.6z" fill="#fff" fill-rule="evenodd"/></mask><mask id="aH" fill="#fff"><path d="m0 20.1 7.5 22.7h23l29.3-42.8z" fill="#fff" fill-rule="evenodd"/></mask><mask id="aI" fill="#fff"><path d="m59.8 55.4 10-55.4-69.8 75.5z" fill="#fff" fill-rule="evenodd"/></mask><mask id="aJ" fill="#fff"><path d="m0 18.2 36 4.9v-23.1z" fill="#fff" fill-rule="evenodd"/></mask><mask id="aK" fill="#fff"><path d="m0 120.9 36-18.2v-48l-36-54.7z" fill="#fff" fill-rule="evenodd"/></mask><mask id="aL" fill="#fff"><path d="m36 54.6v-40.3l-36-14.3z" fill="#fff" fill-rule="evenodd"/></mask><mask id="aM" fill="#fff"><path d="m0 10 54.8 85.7 25-95.7z" fill="#fff" fill-rule="evenodd"/></mask><mask id="aN" fill="#fff"><path d="m0 95.7 25-95.7 54.8 65.5z" fill="#fff" fill-rule="evenodd"/></mask><mask id="aO" fill="#fff"><path d="m0 5 154.5-5-99.7 70.5z" fill="#fff" fill-rule="evenodd"/></mask><mask id="aP" fill="#fff"><path d="m99.7 120.9v-120.9l-99.7 70.5z" fill="#fff" fill-rule="evenodd"/></mask><mask id="aQ" fill="#fff"><path d="m0 42.8h68l-35.5-42.8z" fill="#fff" fill-rule="evenodd"/></mask><mask id="aR" fill="#fff"><path d="m0 75.5 35.3 42.8h86.2l33-118.3z" fill="#fff" fill-rule="evenodd"/></mask><mask id="aS" fill="#fff"><path d="m0 118.3h31.3l56.6-83-54.9-35.3z" fill="#fff" fill-rule="evenodd"/></mask><mask id="aT" fill="#fff"><path d="m0 83h77l-20.4-83z" fill="#fff" fill-rule="evenodd"/></mask><mask id="aU" fill="#fff"><path d="m0 46.4 36 14.3v-60.7z" fill="#fff" fill-rule="evenodd"/></mask><mask id="aV" fill="#fff"><path d="m0 10 30 45.4 39.7-55.4z" fill="#fff" fill-rule="evenodd"/></mask><mask id="aW" fill="#fff"><path d="m0 55.4 44.9-55.4 24.9 45.3z" fill="#fff" fill-rule="evenodd"/></mask><mask id="aX" fill="#fff"><path d="m0 55.4 54.8 105.8-15-161.2z" fill="#fff" fill-rule="evenodd"/></mask><mask id="aY" fill="#fff"><path d="m0 120.9 109.7-120.9-84.8 166.2z" fill="#fff" fill-rule="evenodd"/></mask><mask id="aZ" fill="#fff"><path d="m15 161.2 144.5-40.3-159.5-120.9z" fill="#fff" fill-rule="evenodd"/></mask><mask id="a0" fill="#fff"><path d="m84.7 0 89.8 25.2-174.5 141z" fill="#fff" fill-rule="evenodd"/></mask><mask id="a1" fill="#fff"><path d="m159.5 262 15-262-174.5 141z" fill="#fff" fill-rule="evenodd"/></mask><mask id="a2" fill="#fff"><path d="m0 262 15-262 124.6 50.4z" fill="#fff" fill-rule="evenodd"/></mask><mask id="a3" fill="#fff"><path d="m0 211.6 179.5 10-40-221.6z" fill="#fff" fill-rule="evenodd"/></mask><mask id="a4" fill="#fff"><path d="m0 30.2 79.8-30.2 44.8 80.6z" fill="#fff" fill-rule="evenodd"/></mask><mask id="a5" fill="#fff"><path d="m0 0 99.7 50.4-54.8 30.2z" fill="#fff" fill-rule="evenodd"/></mask><mask id="a6" fill="#fff"><path d="m0 14.1 39.9 221.7 51-137.5v-98.3z" fill="#fff" fill-rule="evenodd"/></mask><mask id="a7" fill="#fff"><path d="m0 30.2 90.9-14.1v-11.3l-36-4.8z" fill="#fff" fill-rule="evenodd"/></mask><mask id="a8" fill="#fff"><path d="m0 137.4 51-52.8v-84.6z" fill="#fff" fill-rule="evenodd"/></mask><mask id="a9" fill="#fff"><path d="m0 52.8 51-23.1v-29.7z" fill="#fff" fill-rule="evenodd"/></mask><g fill="none" fill-rule="nonzero" opacity=".6"><path d="m0 0 69.8 70.5 109.7-60.4z" fill="url(#a)" mask="url(#ag)" transform="matrix(-1 0 0 1 230.5 409.3)"/><path d="m0 60.5 15 20.1 94.7-80.6z" fill="url(#b)" mask="url(#ah)" transform="matrix(-1 0 0 1 160.7 419.3)"/><path d="m0 0 54.8 105.8-20 10z" fill="url(#c)" mask="url(#ai)" transform="matrix(-1 0 0 1 429.8 343.8)"/><path d="m20 0 19.9 90.7-39.9-80.7z" fill="url(#d)" mask="url(#aj)" transform="matrix(-1 0 0 1 395 449.6)"/><path d="m0 42.8h68.3l32.6-42.8z" fill="url(#e)" mask="url(#ak)" transform="matrix(-1 0 0 1 456 540.2)"/><path d="m29.3 0-29.3 42.8h38l101-42.8z" fill="url(#f)" mask="url(#al)" transform="matrix(-1 0 0 1 494 540.2)"/><path d="m15 40.3 94.7-40.3-109.7 121z" fill="url(#h)" mask="url(#am)" transform="matrix(-1 0 0 1 414.9 122.2)"/><path d="m0 120.9 139.6-120.9-25 141z" fill="url(#i)" mask="url(#an)" transform="matrix(-1 0 0 1 569.4 343.8)"/><path d="m0 55.4h109.7l-99.7-55.4z" fill="url(#j)" mask="url(#ao)" transform="matrix(-1 0 0 1 464.7 484.8)"/><path d="m25 0 34.8 115.8-59.8 25.2z" fill="url(#k)" mask="url(#ap)" transform="matrix(-1 0 0 1 454.8 343.8)"/><path d="m59.8 0 39.9 80.6-99.7-55.4z" fill="url(#l)" mask="url(#aq)" transform="matrix(-1 0 0 1 454.8 459.6)"/><path d="m0 0 20 90.7 154.4-75.7z" fill="url(#m)" mask="url(#ar)" transform="matrix(-1 0 0 1 375 449.6)"/><path d="m0 40.3 144.6-40.3 29.9 55.4z" fill="url(#n)" mask="url(#as)" transform="matrix(-1 0 0 1 375 409.3)"/><path d="m0 0 69.8 70.5-39.9-15z" fill="url(#o)" mask="url(#at)" transform="matrix(-1 0 0 1 230.5 409.3)"/><path d="m39.9 15.1 15 20.2-54.9-35.3z" fill="url(#p)" mask="url(#au)" transform="matrix(-1 0 0 1 200.5 464.7)"/><path d="m0 60.5 89.7 25.1-54.7-85.6z" fill="url(#q)" mask="url(#av)" transform="matrix(-1 0 0 1 305.2 61.7)"/><path d="m0 4.8h10.5v-4.8z" fill="url(#s)" mask="url(#aw)" transform="matrix(-1 0 0 1 10.5 578.2)"/><path d="m0 23.1 51 40.9v-64z" fill="url(#t)" mask="url(#ax)" transform="matrix(-1 0 0 1 51 396.3)"/><path d="m20.5 83h71.8l37.3-22.6-129.6-60.4z" fill="url(#u)" mask="url(#ay)" transform="matrix(-1 0 0 1 145.7 500)"/><path d="m0 80.6 94.7-80.6 34.9 141z" fill="url(#v)" mask="url(#az)" transform="matrix(-1 0 0 1 145.7 419.3)"/><path d="m0 22.6h37.3v-22.6z" fill="url(#w)" mask="url(#aA)" transform="matrix(-1 0 0 1 53.4 560.4)"/><path d="m34.9 141 16.1-3.7v-96.3l-51-41z" fill="url(#x)" mask="url(#aB)" transform="matrix(-1 0 0 1 51 419.3)"/><path d="m0 3.7v22.6h5.6l10.4-4.8v-21.5z" fill="url(#y)" mask="url(#aC)" transform="matrix(-1 0 0 1 16.1 556.7)"/><path d="m0 166.2 139.6-120.9-30-45.3z" fill="url(#z)" mask="url(#aD)" transform="matrix(-1 0 0 1 569.4 298.5)"/><path d="m0 118.3h19l63.3-22.6-44.8-95.7z" fill="url(#A)" mask="url(#aE)" transform="matrix(-1 0 0 1 606.9 464.7)"/><path d="m0 22.6h70.9l-7.5-22.6z" fill="url(#B)" mask="url(#aF)" transform="matrix(-1 0 0 1 588 560.4)"/><path d="m0 0 114.7 20.1-69.8 75.6z" fill="url(#C)" mask="url(#aG)" transform="matrix(-1 0 0 1 569.4 464.7)"/><path d="m0 20.1 7.5 22.7h23l29.3-42.8z" fill="url(#D)" mask="url(#aH)" transform="matrix(-1 0 0 1 524.5 540.2)"/><path d="m59.8 55.4 10-55.4-69.8 75.5z" fill="url(#E)" mask="url(#aI)" transform="matrix(-1 0 0 1 524.6 484.8)"/><path d="m0 18.2 36 4.9v-23.1z" fill="url(#F)" mask="url(#aJ)" transform="matrix(-1 0 0 1 36 149.3)"/><path d="m0 120.9 36-18.2v-48l-36-54.7z" fill="url(#G)" mask="url(#aK)" transform="matrix(-1 0 0 1 36 46.6)"/><path d="m36 54.6v-40.3l-36-14.3z" fill="url(#H)" mask="url(#aL)" transform="matrix(-1 0 0 1 36 46.6)"/><path d="m0 10 54.8 85.7 25-95.7z" fill="url(#I)" mask="url(#aM)" transform="matrix(-1 0 0 1 270.3 51.7)"/><path d="m0 95.7 25-95.7 54.8 65.5z" fill="url(#J)" mask="url(#aN)" transform="matrix(-1 0 0 1 215.5 51.7)"/><path d="m0 5 154.5-5-99.7 70.5z" fill="url(#K)" mask="url(#aO)" transform="matrix(-1 0 0 1 190.6 46.6)"/><path d="m99.7 120.9v-120.9l-99.7 70.5z" fill="url(#L)" mask="url(#aP)" transform="matrix(-1 0 0 1 135.8 46.6)"/><path d="m0 42.8h68l-35.5-42.8z" fill="url(#M)" mask="url(#aQ)" transform="matrix(-1 0 0 1 387.7 540.2)"/><path d="m0 75.5 35.3 42.8h86.2l33-118.3z" fill="url(#N)" mask="url(#aR)" transform="matrix(-1 0 0 1 355 464.7)"/><path d="m0 118.3h31.3l56.6-83-54.9-35.3z" fill="url(#O)" mask="url(#aS)" transform="matrix(-1 0 0 1 233.6 464.7)"/><path d="m0 83h77l-20.4-83z" fill="url(#P)" mask="url(#aT)" transform="matrix(-1 0 0 1 202.2 500)"/><path d="m0 46.4 36 14.3v-60.7z" fill="url(#Q)" mask="url(#aU)" transform="matrix(-1 0 0 1 36 .3)"/><path d="m0 10 30 45.4 39.7-55.4z" fill="url(#R)" mask="url(#aV)" transform="matrix(-1 0 0 1 459.8 288.4)"/><path d="m0 55.4 44.9-55.4 24.9 45.3z" fill="url(#S)" mask="url(#aW)" transform="matrix(-1 0 0 1 459.8 243)"/><path d="m0 55.4 54.8 105.8-15-161.2z" fill="url(#T)" mask="url(#aX)" transform="matrix(-1 0 0 1 429.8 288.4)"/><path d="m0 120.9 109.7-120.9-84.8 166.2z" fill="url(#U)" mask="url(#aY)" transform="matrix(-1 0 0 1 414.9 122.2)"/><path d="m15 161.2 144.5-40.3-159.5-120.9z" fill="url(#V)" mask="url(#aZ)" transform="matrix(-1 0 0 1 390 288.4)"/><path d="m84.7 0 89.8 25.2-174.5 141z" fill="url(#W)" mask="url(#a0)" transform="matrix(-1 0 0 1 390 122.2)"/><path d="m159.5 262 15-262-174.5 141z" fill="url(#X)" mask="url(#a1)" transform="matrix(-1 0 0 1 390 147.4)"/><path d="m0 262 15-262 124.6 50.4z" fill="url(#Y)" mask="url(#a2)" transform="matrix(-1 0 0 1 230.5 147.4)"/><path d="m0 211.6 179.5 10-40-221.6z" fill="url(#Z)" mask="url(#a3)" transform="matrix(-1 0 0 1 230.5 197.7)"/><path d="m0 30.2 79.8-30.2 44.8 80.6z" fill="url(#aa)" mask="url(#a4)" transform="matrix(-1 0 0 1 215.5 117.1)"/><path d="m0 0 99.7 50.4-54.8 30.2z" fill="url(#ab)" mask="url(#a5)" transform="matrix(-1 0 0 1 135.7 117.1)"/><path d="m0 14.1 39.9 221.7 51-137.5v-98.3z" fill="url(#ac)" mask="url(#a6)" transform="matrix(-1 0 0 1 90.9 183.6)"/><path d="m0 30.2 90.9-14.1v-11.3l-36-4.8z" fill="url(#ad)" mask="url(#a7)" transform="matrix(-1 0 0 1 90.9 167.5)"/><path d="m0 137.4 51-52.8v-84.6z" fill="url(#ae)" mask="url(#a8)" transform="matrix(-1 0 0 1 51 282)"/><path d="m0 52.8 51-23.1v-29.7z" fill="url(#af)" mask="url(#a9)" transform="matrix(-1 0 0 1 51 366.5)"/></g></svg>