<svg width="1616" height="61" xmlns="http://www.w3.org/2000/svg"><g fill="none" fill-rule="evenodd" opacity=".3"><g style="mix-blend-mode:multiply"><path fill="#D6FFFF" d="M493.62 45.28v14.93h14.96V45.28z"/><path fill="#D9FFFF" d="M463.7 45.28v14.93h14.96V45.28z"/><path fill="#D6FFFF" d="M373.94 45.28v14.93h14.96V45.28zM329.06 45.28v14.93h14.96V45.28z"/><path fill="#9FCAFF" d="M314.1 45.28v14.93h14.96V45.28z"/><path fill="#D6FFFF" d="M299.14 45.28v14.93h14.96V45.28z"/><path fill="#ADEEFF" d="M284.18 45.28v14.93h14.96V45.28z"/><path fill="#9ABBFF" d="M30.74 45.28v14.93H45.7V45.28z"/><path fill="#A8E4FF" d="M15.78 45.28v14.93h14.96V45.28z"/><path fill="#98B3FF" d="M.82 45.28v14.93h14.96V45.28z"/><path fill="#B9FCFF" d="M523.54 30.35v14.93h14.96V30.35z"/><path fill="#DCFFFF" d="M508.58 30.35v14.93h14.96V30.35z"/><path fill="#F1FFFF" d="M493.62 30.35v14.93h14.96V30.35z"/><path fill="#A9E7FF" d="M478.66 30.35v14.93h14.96V30.35z"/><path fill="#DCFFFF" d="M463.7 30.35v14.93h14.96V30.35z"/><path fill="#A6DAFF" d="M448.74 30.35v14.93h14.96V30.35z"/><path fill="#C9FFFF" d="M433.78 30.35v14.93h14.96V30.35z"/><path fill="#DCFFFF" d="M418.82 30.35v14.93h14.96V30.35z"/><path fill="#A7E3FF" d="M403.86 30.35v14.93h14.96V30.35z"/><path fill="#DCFFFF" d="M373.94 30.35v14.93h14.96V30.35z"/><path fill="#B1F7FF" d="M358.98 30.35v14.93h14.96V30.35z"/><path fill="#A9E7FF" d="M344.02 30.35v14.93h14.96V30.35z"/><path fill="#ACEDFF" d="M329.06 30.35v14.93h14.96V30.35z"/><path fill="#A0CDFF" d="M314.1 30.35v14.93h14.96V30.35z"/><path fill="#ADF2FF" d="M299.14 30.35v14.93h14.96V30.35z"/><path fill="#A3D8FF" d="M284.18 30.35v14.93h14.96V30.35z"/><path fill="#AFF2FF" d="M105.54 30.35v14.93h14.96V30.35z"/><path fill="#A8E0FF" d="M90.58 30.35v14.93h14.96V30.35z"/><path fill="#D6FFFF" d="M75.62 30.35v14.93h14.96V30.35z"/><path fill="#A4D7FF" d="M60.66 30.35v14.93h14.96V30.35zM60.66 45.35v14.93h14.96V45.35z"/><path fill="#B1FEFF" d="M45.7 30.35v14.93h14.96V30.35z"/><path fill="#98B9FF" d="M30.74 30.35v14.93H45.7V30.35z"/><path fill="#A8E4FF" d="M15.78 30.35v14.93h14.96V30.35z"/><path fill="#A4D9FF" d="M.82 30.35v14.93h14.96V30.35z"/><path fill="#B9FCFF" d="M523.54 15.43v14.92h14.96V15.43z"/><path fill="#A6DFFF" d="M508.58 15.43v14.92h14.96V15.43z"/><path fill="#B9FCFF" d="M493.62 15.43v14.92h14.96V15.43z"/><path fill="#DCFFFF" d="M478.66 15.43v14.92h14.96V15.43z"/><path fill="#A6DFFF" d="M463.7 15.43v14.92h14.96V15.43z"/><path fill="#E2FFFF" d="M448.74 15.43v14.92h14.96V15.43z"/><path fill="#DCFFFF" d="M433.78 15.43v14.92h14.96V15.43z"/><path fill="#A7E3FF" d="M418.82 15.43v14.92h14.96V15.43z"/><path fill="#C9FFFF" d="M403.86 15.43v14.92h14.96V15.43z"/><path fill="#CFFFFF" d="M388.9 15.43v14.92h14.96V15.43z"/><path fill="#A8E4FF" d="M373.94 15.43v14.92h14.96V15.43z"/><path fill="#A8E8FF" d="M358.98 15.43v14.92h14.96V15.43z"/><path fill="#A0CBFF" d="M344.02 15.43v14.92h14.96V15.43z"/><path fill="#ADEEFF" d="M329.06 15.43v14.92h14.96V15.43z"/><path fill="#A9EAFF" d="M314.1 15.43v14.92h14.96V15.43z"/><path fill="#A0CDFF" d="M299.14 15.43v14.92h14.96V15.43z"/><path fill="#ABE9FF" d="M105.54 15.43v14.92h14.96V15.43z"/><path fill="#ABEAFF" d="M90.58 15.43v14.92h14.96V15.43z"/><path fill="#A9E7FF" d="M75.62 15.43v14.92h14.96V15.43z"/><path fill="#9CC1FF" d="M60.66 15.43v14.92h14.96V15.43z"/><path fill="#98B7FF" d="M45.7 15.43v14.92h14.96V15.43z"/><path fill="#A8E4FF" d="M30.74 15.43v14.92H45.7V15.43z"/><path fill="#99B8FF" d="M15.78 15.43v14.92h14.96V15.43z"/><path fill="#A6E1FF" d="M.82 15.43v14.92h14.96V15.43z"/><path fill="#B9FCFF" d="M523.54.5v14.93h14.96V.5z"/><path fill="#DCFFFF" d="M508.58.5v14.93h14.96V.5z"/><path fill="#D6FFFF" d="M493.62.5v14.93h14.96V.5z"/><path fill="#E2FFFF" d="M478.66.5v14.93h14.96V.5z"/><path fill="#93ABFF" d="M463.7.5v14.93h14.96V.5z"/><path fill="#A8E3FF" d="M448.74.5v14.93h14.96V.5z"/><path fill="#A9E7FF" d="M433.78.5v14.93h14.96V.5z"/><path fill="#CAFFFF" d="M418.82.5v14.93h14.96V.5z"/><path fill="#A8E6FF" d="M403.86.5v14.93h14.96V.5zM388.9.5v14.93h14.96V.5z"/><path fill="#9EC6FF" d="M373.94.5v14.93h14.96V.5z"/><path fill="#AFF0FF" d="M358.98.5v14.93h14.96V.5z"/><path fill="#A8E8FF" d="M344.02.5v14.93h14.96V.5z"/><path fill="#9FCCFF" d="M329.06.5v14.93h14.96V.5z"/><path fill="#9FCAFF" d="M314.1.5v14.93h14.96V.5z"/><path fill="#9DC4FF" d="M299.14.5v14.93h14.96V.5z"/><path fill="#D6FFFF" d="M268.58 45.28v14.93h14.96V45.28zM223.7 45.28v14.93h14.96V45.28z"/><path fill="#9FCAFF" d="M208.74 45.28v14.93h14.96V45.28z"/><path fill="#D6FFFF" d="M193.78 45.28v14.93h14.96V45.28z"/><path fill="#DCFFFF" d="M268.58 30.35v14.93h14.96V30.35z"/><path fill="#B1F7FF" d="M253.62 30.35v14.93h14.96V30.35z"/><path fill="#A9E7FF" d="M238.66 30.35v14.93h14.96V30.35z"/><path fill="#ACEDFF" d="M223.7 30.35v14.93h14.96V30.35z"/><path fill="#A0CDFF" d="M208.74 30.35v14.93h14.96V30.35z"/><path fill="#ADF2FF" d="M193.78 30.35v14.93h14.96V30.35z"/><path fill="#CFFFFF" d="M283.54 15.43v14.92h14.96V15.43z"/><path fill="#A8E4FF" d="M268.58 15.43v14.92h14.96V15.43z"/><path fill="#A8E8FF" d="M253.62 15.43v14.92h14.96V15.43z"/><path fill="#A0CBFF" d="M238.66 15.43v14.92h14.96V15.43z"/><path fill="#ADEEFF" d="M223.7 15.43v14.92h14.96V15.43z"/><path fill="#A9EAFF" d="M208.74 15.43v14.92h14.96V15.43z"/><path fill="#ADF2FF" d="M193.78 15.43v14.92h14.96V15.43z"/><path fill="#A8E6FF" d="M283.54.5v14.93h14.96V.5z"/><path fill="#9EC6FF" d="M268.58.5v14.93h14.96V.5z"/><path fill="#AFF0FF" d="M253.62.5v14.93h14.96V.5z"/><path fill="#A8E8FF" d="M238.66.5v14.93h14.96V.5z"/><path fill="#9FCCFF" d="M223.7.5v14.93h14.96V.5z"/><path fill="#9FCAFF" d="M208.74.5v14.93h14.96V.5z"/><path fill="#ADF2FF" d="M193.78.5v14.93h14.96V.5z"/><path fill="#98B9FF" d="M284.18.5v14.93h14.96V.5zM284.18 15.5v14.93h14.96V15.5z"/><path fill="#AFF2FF" d="M105.54.5v14.93h14.96V.5z"/><path fill="#94ACFF" d="M90.58.5v14.93h14.96V.5z"/><path fill="#A0CDFF" d="M75.62.5v14.93h14.96V.5z"/><path fill="#A0CFFF" d="M60.66.5v14.93h14.96V.5z"/><path fill="#A8E4FF" d="M45.7.5v14.93h14.96V.5z"/><path fill="#9ABBFF" d="M30.74.5v14.93H45.7V.5z"/><path fill="#A8E4FF" d="M15.78.5v14.93h14.96V.5z"/><path fill="#98B3FF" d="M.82.5v14.93h14.96V.5z"/><path fill="#D6FFFF" d="M149.62 45.28v14.93h14.96V45.28z"/><path fill="#D9FFFF" d="M119.7 45.28v14.93h14.96V45.28z"/><path fill="#B9FCFF" d="M179.54 30.35v14.93h14.96V30.35z"/><path fill="#DCFFFF" d="M164.58 30.35v14.93h14.96V30.35z"/><path fill="#F1FFFF" d="M149.62 30.35v14.93h14.96V30.35z"/><path fill="#A9E7FF" d="M134.66 30.35v14.93h14.96V30.35z"/><path fill="#DCFFFF" d="M119.7 30.35v14.93h14.96V30.35z"/><path fill="#B9FCFF" d="M179.54 15.43v14.92h14.96V15.43z"/><path fill="#A6DFFF" d="M164.58 15.43v14.92h14.96V15.43z"/><path fill="#B9FCFF" d="M149.62 15.43v14.92h14.96V15.43z"/><path fill="#DCFFFF" d="M134.66 15.43v14.92h14.96V15.43z"/><path fill="#A6DFFF" d="M119.7 15.43v14.92h14.96V15.43z"/><path fill="#B9FCFF" d="M179.54.5v14.93h14.96V.5z"/><path fill="#DCFFFF" d="M164.58.5v14.93h14.96V.5z"/><path fill="#D6FFFF" d="M149.62.5v14.93h14.96V.5z"/><path fill="#E2FFFF" d="M134.66.5v14.93h14.96V.5z"/><path fill="#93ABFF" d="M119.7.5v14.93h14.96V.5z"/><path fill="#FFF" d="M538.5 30.35v14.93h14.96V30.35z"/><path fill="#DCFFFF" d="M553.46 30.35v14.93h14.96V30.35z"/><path fill="#F1FFFF" d="M568.42 30.35v14.93h14.96V30.35z"/><path fill="#DCFFFF" d="M583.38 30.35v14.93h14.96V30.35z"/><path fill="#B9FCFF" d="M598.34 30.35v14.93h14.96V30.35z"/><path fill="#EFFFFF" d="M643.22 30.35v14.93h14.96V30.35z"/><path fill="#DCFFFF" d="M658.18 30.35v14.93h14.96V30.35zM673.14 30.35v14.93h14.96V30.35zM703.06 30.35v14.93h14.96V30.35z"/><path fill="#B9FCFF" d="M538.5 15.43v14.92h14.96V15.43zM553.46 15.43v14.92h14.96V15.43z"/><path fill="#A8E3FF" d="M568.42 15.43v14.92h14.96V15.43z"/><path fill="#D9FFFF" d="M583.38 15.43v14.92h14.96V15.43zM598.34 15.43v14.92h14.96V15.43z"/><path fill="#E2FFFF" d="M613.3 15.43v14.92h14.96V15.43z"/><path fill="#B9FCFF" d="M628.26 15.43v14.92h14.96V15.43z"/><path fill="#A7E3FF" d="M643.22 15.43v14.92h14.96V15.43z"/><path fill="#C9FFFF" d="M658.18 15.43v14.92h14.96V15.43z"/><path fill="#A8E4FF" d="M688.1 15.43v14.92h14.96V15.43z"/><path fill="#A8E8FF" d="M703.06 15.43v14.92h14.96V15.43z"/><path fill="#DCFFFF" d="M718.02 15.43v14.92h14.96V15.43z"/><path fill="#A9EAFF" d="M747.94 15.43v14.92h14.96V15.43z"/><path fill="#C9FFFF" d="M762.9 15.43v14.92h14.96V15.43z"/><path fill="#DCFFFF" d="M792.82 15.43v14.92h14.96V15.43z"/><path fill="#AFEBFF" d="M538.5.5v14.93h14.96V.5z"/><path fill="#DEFFFF" d="M553.46.5v14.93h14.96V.5z"/><path fill="#D6FFFF" d="M568.42.5v14.93h14.96V.5z"/><path fill="#A7E3FF" d="M583.38.5v14.93h14.96V.5z"/><path fill="#D9FFFF" d="M598.34.5v14.93h14.96V.5z"/><path fill="#A8E3FF" d="M613.3.5v14.93h14.96V.5z"/><path fill="#CAFFFF" d="M643.22.5v14.93h14.96V.5z"/><path fill="#A8E6FF" d="M658.18.5v14.93h14.96V.5zM673.14.5v14.93h14.96V.5z"/><path fill="#9EC6FF" d="M688.1.5v14.93h14.96V.5z"/><path fill="#A8E8FF" d="M718.02.5v14.93h14.96V.5z"/><path fill="#AEEEFF" d="M732.98.5v14.93h14.96V.5z"/><path fill="#9FCAFF" d="M747.94.5v14.93h14.96V.5z"/><path fill="#AEEEFF" d="M762.9.5v14.93h14.96V.5z"/><path fill="#C9FFFF" d="M777.86.5v14.93h14.96V.5z"/><path fill="#ADF2FF" d="M792.82.5v14.93h14.96V.5z"/></g><g style="mix-blend-mode:multiply"><path fill="#D6FFFF" d="M1122.38 45.28v14.93h-14.96V45.28z"/><path fill="#D9FFFF" d="M1152.3 45.28v14.93h-14.96V45.28z"/><path fill="#D6FFFF" d="M1242.06 45.28v14.93h-14.96V45.28zM1286.94 45.28v14.93h-14.96V45.28z"/><path fill="#9FCAFF" d="M1301.9 45.28v14.93h-14.96V45.28z"/><path fill="#D6FFFF" d="M1316.86 45.28v14.93h-14.96V45.28z"/><path fill="#ADEEFF" d="M1331.82 45.28v14.93h-14.96V45.28z"/><path fill="#A8E4FF" d="M1570.3 45.28v14.93h-14.96V45.28z"/><path fill="#9ABBFF" d="M1585.26 45.28v14.93h-14.96V45.28z"/><path fill="#98B3FF" d="M1615.18 45.28v14.93h-14.96V45.28z"/><path fill="#B9FCFF" d="M1092.46 30.35v14.93h-14.96V30.35z"/><path fill="#DCFFFF" d="M1107.42 30.35v14.93h-14.96V30.35z"/><path fill="#F1FFFF" d="M1122.38 30.35v14.93h-14.96V30.35z"/><path fill="#A9E7FF" d="M1137.34 30.35v14.93h-14.96V30.35z"/><path fill="#DCFFFF" d="M1152.3 30.35v14.93h-14.96V30.35z"/><path fill="#A6DAFF" d="M1167.26 30.35v14.93h-14.96V30.35z"/><path fill="#C9FFFF" d="M1182.22 30.35v14.93h-14.96V30.35z"/><path fill="#DCFFFF" d="M1197.18 30.35v14.93h-14.96V30.35z"/><path fill="#A7E3FF" d="M1212.14 30.35v14.93h-14.96V30.35z"/><path fill="#DCFFFF" d="M1242.06 30.35v14.93h-14.96V30.35z"/><path fill="#B1F7FF" d="M1257.02 30.35v14.93h-14.96V30.35z"/><path fill="#A9E7FF" d="M1271.98 30.35v14.93h-14.96V30.35z"/><path fill="#ACEDFF" d="M1286.94 30.35v14.93h-14.96V30.35z"/><path fill="#A0CDFF" d="M1301.9 30.35v14.93h-14.96V30.35z"/><path fill="#ADF2FF" d="M1316.86 30.35v14.93h-14.96V30.35z"/><path fill="#A3D8FF" d="M1331.82 30.35v14.93h-14.96V30.35z"/><path fill="#AFF2FF" d="M1510.46 30.35v14.93h-14.96V30.35z"/><path fill="#A8E0FF" d="M1525.42 30.35v14.93h-14.96V30.35z"/><path fill="#D6FFFF" d="M1540.38 30.35v14.93h-14.96V30.35z"/><path fill="#A4D7FF" d="M1555.34 30.35v14.93h-14.96V30.35zM1555.34 45.35v14.93h-14.96V45.35z"/><path fill="#B1FEFF" d="M1570.3 30.35v14.93h-14.96V30.35z"/><path fill="#98B9FF" d="M1585.26 30.35v14.93h-14.96V30.35z"/><path fill="#A8E4FF" d="M1600.22 30.35v14.93h-14.96V30.35z"/><path fill="#A4D9FF" d="M1615.18 30.35v14.93h-14.96V30.35z"/><path fill="#B9FCFF" d="M1092.46 15.43v14.92h-14.96V15.43z"/><path fill="#A6DFFF" d="M1107.42 15.43v14.92h-14.96V15.43z"/><path fill="#B9FCFF" d="M1122.38 15.43v14.92h-14.96V15.43z"/><path fill="#DCFFFF" d="M1137.34 15.43v14.92h-14.96V15.43z"/><path fill="#A6DFFF" d="M1152.3 15.43v14.92h-14.96V15.43z"/><path fill="#E2FFFF" d="M1167.26 15.43v14.92h-14.96V15.43z"/><path fill="#DCFFFF" d="M1182.22 15.43v14.92h-14.96V15.43z"/><path fill="#A7E3FF" d="M1197.18 15.43v14.92h-14.96V15.43z"/><path fill="#C9FFFF" d="M1212.14 15.43v14.92h-14.96V15.43z"/><path fill="#CFFFFF" d="M1227.1 15.43v14.92h-14.96V15.43z"/><path fill="#A8E4FF" d="M1242.06 15.43v14.92h-14.96V15.43z"/><path fill="#A8E8FF" d="M1257.02 15.43v14.92h-14.96V15.43z"/><path fill="#A0CBFF" d="M1271.98 15.43v14.92h-14.96V15.43z"/><path fill="#ADEEFF" d="M1286.94 15.43v14.92h-14.96V15.43z"/><path fill="#A9EAFF" d="M1301.9 15.43v14.92h-14.96V15.43z"/><path fill="#A0CDFF" d="M1316.86 15.43v14.92h-14.96V15.43z"/><path fill="#ABE9FF" d="M1510.46 15.43v14.92h-14.96V15.43z"/><path fill="#ABEAFF" d="M1525.42 15.43v14.92h-14.96V15.43z"/><path fill="#A9E7FF" d="M1540.38 15.43v14.92h-14.96V15.43z"/><path fill="#9CC1FF" d="M1555.34 15.43v14.92h-14.96V15.43z"/><path fill="#98B7FF" d="M1570.3 15.43v14.92h-14.96V15.43z"/><path fill="#A8E4FF" d="M1585.26 15.43v14.92h-14.96V15.43z"/><path fill="#99B8FF" d="M1600.22 15.43v14.92h-14.96V15.43z"/><path fill="#A6E1FF" d="M1615.18 15.43v14.92h-14.96V15.43z"/><path fill="#B9FCFF" d="M1092.46.5v14.93h-14.96V.5z"/><path fill="#DCFFFF" d="M1107.42.5v14.93h-14.96V.5z"/><path fill="#D6FFFF" d="M1122.38.5v14.93h-14.96V.5z"/><path fill="#E2FFFF" d="M1137.34.5v14.93h-14.96V.5z"/><path fill="#93ABFF" d="M1152.3.5v14.93h-14.96V.5z"/><path fill="#A8E3FF" d="M1167.26.5v14.93h-14.96V.5z"/><path fill="#A9E7FF" d="M1182.22.5v14.93h-14.96V.5z"/><path fill="#CAFFFF" d="M1197.18.5v14.93h-14.96V.5z"/><path fill="#A8E6FF" d="M1212.14.5v14.93h-14.96V.5z"/><path fill="#A8E6FF" d="M1227.1.5v14.93h-14.96V.5z"/><path fill="#9EC6FF" d="M1242.06.5v14.93h-14.96V.5z"/><path fill="#AFF0FF" d="M1257.02.5v14.93h-14.96V.5z"/><path fill="#A8E8FF" d="M1271.98.5v14.93h-14.96V.5z"/><path fill="#9FCCFF" d="M1286.94.5v14.93h-14.96V.5z"/><path fill="#9FCAFF" d="M1301.9.5v14.93h-14.96V.5z"/><path fill="#9DC4FF" d="M1316.86.5v14.93h-14.96V.5z"/><path fill="#D6FFFF" d="M1347.42 45.28v14.93h-14.96V45.28zM1392.3 45.28v14.93h-14.96V45.28z"/><path fill="#9FCAFF" d="M1407.26 45.28v14.93h-14.96V45.28z"/><path fill="#D6FFFF" d="M1422.22 45.28v14.93h-14.96V45.28z"/><path fill="#DCFFFF" d="M1347.42 30.35v14.93h-14.96V30.35z"/><path fill="#B1F7FF" d="M1362.38 30.35v14.93h-14.96V30.35z"/><path fill="#A9E7FF" d="M1377.34 30.35v14.93h-14.96V30.35z"/><path fill="#ACEDFF" d="M1392.3 30.35v14.93h-14.96V30.35z"/><path fill="#A0CDFF" d="M1407.26 30.35v14.93h-14.96V30.35z"/><path fill="#ADF2FF" d="M1422.22 30.35v14.93h-14.96V30.35z"/><path fill="#CFFFFF" d="M1332.46 15.43v14.92h-14.96V15.43z"/><path fill="#A8E4FF" d="M1347.42 15.43v14.92h-14.96V15.43z"/><path fill="#A8E8FF" d="M1362.38 15.43v14.92h-14.96V15.43z"/><path fill="#A0CBFF" d="M1377.34 15.43v14.92h-14.96V15.43z"/><path fill="#ADEEFF" d="M1392.3 15.43v14.92h-14.96V15.43z"/><path fill="#A9EAFF" d="M1407.26 15.43v14.92h-14.96V15.43z"/><path fill="#ADF2FF" d="M1422.22 15.43v14.92h-14.96V15.43z"/><path fill="#A8E6FF" d="M1332.46.5v14.93h-14.96V.5z"/><path fill="#9EC6FF" d="M1347.42.5v14.93h-14.96V.5z"/><path fill="#AFF0FF" d="M1362.38.5v14.93h-14.96V.5z"/><path fill="#A8E8FF" d="M1377.34.5v14.93h-14.96V.5z"/><path fill="#9FCCFF" d="M1392.3.5v14.93h-14.96V.5z"/><path fill="#9FCAFF" d="M1407.26.5v14.93h-14.96V.5z"/><path fill="#ADF2FF" d="M1422.22.5v14.93h-14.96V.5z"/><path fill="#98B9FF" d="M1331.82.5v14.93h-14.96V.5zM1331.82 15.5v14.93h-14.96V15.5z"/><path fill="#AFF2FF" d="M1510.46.5v14.93h-14.96V.5z"/><path fill="#94ACFF" d="M1525.42.5v14.93h-14.96V.5z"/><path fill="#A0CDFF" d="M1540.38.5v14.93h-14.96V.5z"/><path fill="#A0CFFF" d="M1555.34.5v14.93h-14.96V.5z"/><path fill="#A8E4FF" d="M1570.3.5v14.93h-14.96V.5z"/><path fill="#9ABBFF" d="M1585.26.5v14.93h-14.96V.5z"/><path fill="#A8E4FF" d="M1600.22.5v14.93h-14.96V.5z"/><path fill="#98B3FF" d="M1615.18.5v14.93h-14.96V.5z"/><path fill="#D6FFFF" d="M1466.38 45.28v14.93h-14.96V45.28z"/><path fill="#D9FFFF" d="M1496.3 45.28v14.93h-14.96V45.28z"/><path fill="#B9FCFF" d="M1436.46 30.35v14.93h-14.96V30.35z"/><path fill="#DCFFFF" d="M1451.42 30.35v14.93h-14.96V30.35z"/><path fill="#F1FFFF" d="M1466.38 30.35v14.93h-14.96V30.35z"/><path fill="#A9E7FF" d="M1481.34 30.35v14.93h-14.96V30.35z"/><path fill="#DCFFFF" d="M1496.3 30.35v14.93h-14.96V30.35z"/><path fill="#B9FCFF" d="M1436.46 15.43v14.92h-14.96V15.43z"/><path fill="#A6DFFF" d="M1451.42 15.43v14.92h-14.96V15.43z"/><path fill="#B9FCFF" d="M1466.38 15.43v14.92h-14.96V15.43z"/><path fill="#DCFFFF" d="M1481.34 15.43v14.92h-14.96V15.43z"/><path fill="#A6DFFF" d="M1496.3 15.43v14.92h-14.96V15.43z"/><path fill="#B9FCFF" d="M1436.46.5v14.93h-14.96V.5z"/><path fill="#DCFFFF" d="M1451.42.5v14.93h-14.96V.5z"/><path fill="#D6FFFF" d="M1466.38.5v14.93h-14.96V.5z"/><path fill="#E2FFFF" d="M1481.34.5v14.93h-14.96V.5z"/><path fill="#93ABFF" d="M1496.3.5v14.93h-14.96V.5z"/><path fill="#FFF" d="M1077.5 30.35v14.93h-14.96V30.35z"/><path fill="#DCFFFF" d="M1062.54 30.35v14.93h-14.96V30.35z"/><path fill="#F1FFFF" d="M1047.58 30.35v14.93h-14.96V30.35z"/><path fill="#DCFFFF" d="M1032.62 30.35v14.93h-14.96V30.35z"/><path fill="#B9FCFF" d="M1017.66 30.35v14.93h-14.96V30.35z"/><path fill="#EFFFFF" d="M972.78 30.35v14.93h-14.96V30.35z"/><path fill="#DCFFFF" d="M957.82 30.35v14.93h-14.96V30.35zM942.86 30.35v14.93H927.9V30.35zM912.94 30.35v14.93h-14.96V30.35z"/><path fill="#B9FCFF" d="M1077.5 15.43v14.92h-14.96V15.43zM1062.54 15.43v14.92h-14.96V15.43z"/><path fill="#A8E3FF" d="M1047.58 15.43v14.92h-14.96V15.43z"/><path fill="#D9FFFF" d="M1032.62 15.43v14.92h-14.96V15.43z"/><path fill="#D9FFFF" d="M1017.66 15.43v14.92h-14.96V15.43z"/><path fill="#E2FFFF" d="M1002.7 15.43v14.92h-14.96V15.43z"/><path fill="#B9FCFF" d="M987.74 15.43v14.92h-14.96V15.43z"/><path fill="#A7E3FF" d="M972.78 15.43v14.92h-14.96V15.43z"/><path fill="#C9FFFF" d="M957.82 15.43v14.92h-14.96V15.43z"/><path fill="#A8E4FF" d="M927.9 15.43v14.92h-14.96V15.43z"/><path fill="#A8E8FF" d="M912.94 15.43v14.92h-14.96V15.43z"/><path fill="#DCFFFF" d="M897.98 15.43v14.92h-14.96V15.43z"/><path fill="#A9EAFF" d="M868.06 15.43v14.92H853.1V15.43z"/><path fill="#C9FFFF" d="M853.1 15.43v14.92h-14.96V15.43z"/><path fill="#DCFFFF" d="M823.18 15.43v14.92h-14.96V15.43z"/><path fill="#AFEBFF" d="M1077.5.5v14.93h-14.96V.5z"/><path fill="#DEFFFF" d="M1062.54.5v14.93h-14.96V.5z"/><path fill="#D6FFFF" d="M1047.58.5v14.93h-14.96V.5z"/><path fill="#A7E3FF" d="M1032.62.5v14.93h-14.96V.5z"/><path fill="#D9FFFF" d="M1017.66.5v14.93h-14.96V.5z"/><path fill="#A8E3FF" d="M1002.7.5v14.93h-14.96V.5z"/><path fill="#CAFFFF" d="M972.78.5v14.93h-14.96V.5z"/><path fill="#A8E6FF" d="M957.82.5v14.93h-14.96V.5zM942.86.5v14.93H927.9V.5z"/><path fill="#9EC6FF" d="M927.9.5v14.93h-14.96V.5z"/><path fill="#A8E8FF" d="M897.98.5v14.93h-14.96V.5z"/><path fill="#AEEEFF" d="M883.02.5v14.93h-14.96V.5z"/><path fill="#9FCAFF" d="M868.06.5v14.93H853.1V.5z"/><path fill="#AEEEFF" d="M853.1.5v14.93h-14.96V.5z"/><path fill="#C9FFFF" d="M838.14.5v14.93h-14.96V.5z"/><path fill="#ADF2FF" d="M823.18.5v14.93h-14.96V.5z"/></g></g></svg>