<svg height="180" width="616" xmlns="http://www.w3.org/2000/svg" xmlns:xlink="http://www.w3.org/1999/xlink"><linearGradient id="a"><stop offset="0" stop-color="#b4fff9"/><stop offset="1" stop-color="#784cff"/></linearGradient><linearGradient id="b" x1="-132.32%" x2="374.65%" xlink:href="#a" y1="50%" y2="50%"/><linearGradient id="c" x1="-215.47%" x2="321.03%" xlink:href="#a" y1="50%" y2="50%"/><linearGradient id="d" x1="-138.64%" x2="177.83%" xlink:href="#a" y1="41.17%" y2="55.98%"/><linearGradient id="e" x1="-201.67%" x2="189.44%" xlink:href="#a" y1="50%" y2="50%"/><linearGradient id="f" x1="-19.83%" x2="407.93%" xlink:href="#a" y1="50%" y2="50%"/><linearGradient id="g" x1="-76.33%" x2="373.49%" xlink:href="#a" y1="50%" y2="50%"/><linearGradient id="h" x1="-97.61%" x2="342.85%" xlink:href="#a" y1="47.38%" y2="55.6%"/><linearGradient id="i" x1="-230.27%" x2="453.92%" xlink:href="#a" y1="50%" y2="50%"/><linearGradient id="j" x1="-99.55%" x2="162.43%" xlink:href="#a" y1="46.88%" y2="52.34%"/><linearGradient id="k" x1="-57.49%" x2="224.17%" xlink:href="#a" y1="45.06%" y2="58.01%"/><linearGradient id="l" x1="-149.73%" x2="174.04%" xlink:href="#a" y1="50%" y2="50%"/><linearGradient id="m" x1="-179.22%" x2="227.72%" xlink:href="#a" y1="50%" y2="50%"/><mask id="n" fill="#fff"><path d="m151.54.73a1516.24 1516.24 0 0 1 -43.5 35.79c-36-1.75-71.98-4.28-108-5.02 6.58-1.86 13.17-3.59 19.75-5.2" fill="#fff" fill-rule="evenodd"/></mask><mask id="o" fill="#fff"><path d="m197 104.97a686.08 686.08 0 0 1 -67.39 19.52 665.7 665.7 0 0 1 -129 17.32c19.2-19.9 37.47-40.72 55.6-61.69 4.69-1.57 9.36-3.2 14.01-4.93 44.5-16.52 85.92-40.9 122.48-71.1 1.45-1.2 2.87-2.41 4.3-3.62" fill="#fff" fill-rule="evenodd"/></mask><mask id="p" fill="#fff"><path d="m.51 41a1510.06 1510.06 0 0 0 53.53-40.48c28.93 1.4 57.87 2.29 86.81 1.32.26 0 .51-.02.76-.03a736.7 736.7 0 0 1 -27.52 27.16 557.91 557.91 0 0 1 -13.32 12.03" fill="#fff" fill-rule="evenodd"/></mask><mask id="q" fill="#fff"><path d="m.77 77c4.5-3.94 8.95-7.95 13.32-12.03a736.7 736.7 0 0 0 27.51-27.17 665.7 665.7 0 0 0 129-17.32 686.08 686.08 0 0 0 67.4-19.51v76.03" fill="#fff" fill-rule="evenodd"/></mask><mask id="r" fill="#fff"><path d="m.77 77c4.5-3.94 8.95-7.95 13.32-12.03a736.7 736.7 0 0 0 27.51-27.17 665.7 665.7 0 0 0 129-17.32 686.08 686.08 0 0 0 67.4-19.51v76.03" fill="#fff" fill-rule="evenodd"/></mask><mask id="s" fill="#fff"><path d="m.77 77c4.5-3.94 8.95-7.95 13.32-12.03a736.7 736.7 0 0 0 27.51-27.17 665.7 665.7 0 0 0 129-17.32 686.08 686.08 0 0 0 67.4-19.51v76.03" fill="#fff" fill-rule="evenodd"/></mask><mask id="t" fill="#fff"><path d="m.77 77c4.5-3.94 8.95-7.95 13.32-12.03a736.7 736.7 0 0 0 27.51-27.17 665.7 665.7 0 0 0 129-17.32 686.08 686.08 0 0 0 67.4-19.51v76.03" fill="#fff" fill-rule="evenodd"/></mask><g fill="none" fill-rule="evenodd"><path d="m239.46 76.27c43.93-8.31 88.36-14.96 131.75-25.57 6.58-1.61 13.17-3.34 19.75-5.2-36.02-.74-72-3.27-108-5.01a1517.62 1517.62 0 0 0 -43.5 35.78" fill="#fff" opacity=".5"/><path d="m151.54.73c-43.93 8.31-88.36 14.97-131.74 25.57a572.87 572.87 0 0 0 -19.76 5.2c36.02.74 72 3.27 108 5.02a1516.24 1516.24 0 0 0 43.5-35.79" fill="url(#b)" mask="url(#n)" opacity=".5" transform="matrix(-1 0 0 -1 391 77)"/><path d="m196.15 39.16c-.26 0-.51.02-.76.03-19.2 19.9-37.47 40.72-55.6 61.69 32.47-10.87 65.92-18.23 99.67-24.61a1515.9 1515.9 0 0 1 43.5-35.78c-28.93-1.4-57.87-2.3-86.81-1.33" fill="#fff" opacity=".5"/><path d="m92.85 61.84c.26 0 .51-.02.76-.03 19.2-19.9 37.47-40.72 55.6-61.69-32.47 10.88-65.92 18.23-99.67 24.61a1516.24 1516.24 0 0 1 -43.5 35.78c28.93 1.4 57.87 2.3 86.81 1.33" fill="url(#c)" opacity=".5" transform="matrix(-1 0 0 -1 289 101)"/><path d="m125.78 105.81c4.65-1.72 9.32-3.36 14.01-4.93 18.13-20.97 36.4-41.78 55.6-61.69a665.7 665.7 0 0 0 -129 17.32 686.08 686.08 0 0 0 -67.39 19.52v104.5c1.43-1.2 2.85-2.42 4.3-3.61 36.56-30.2 77.99-54.6 122.48-71.1" fill="#fff" opacity=".5"/><path d="m70.22 75.19a460.27 460.27 0 0 1 -14.01 4.93c-18.13 20.98-36.41 41.78-55.61 61.69a665.7 665.7 0 0 0 129-17.32 686.08 686.08 0 0 0 67.4-19.52v-104.5c-1.43 1.2-2.85 2.42-4.3 3.61-36.56 30.2-77.99 54.6-122.48 71.1" fill="url(#d)" mask="url(#o)" opacity=".5" transform="matrix(-1 0 0 -1 196 181)"/><path d="m70.22 75.19a460.27 460.27 0 0 1 -14.01 4.93c-18.13 20.98-36.41 41.78-55.61 61.69a665.7 665.7 0 0 0 129-17.32 686.08 686.08 0 0 0 67.4-19.52v-104.5c-1.43 1.2-2.85 2.42-4.3 3.61-36.56 30.2-77.99 54.6-122.48 71.1" fill="url(#e)" opacity=".5" transform="matrix(-1 0 0 -1 196 181)"/><path d="m210.82.3c-70.06-.35-142.19 8.16-203.66 41.8a219.64 219.64 0 0 0 -6.8 3.9h119.06c32.45-20.3 69.35-34.97 106.62-45.5a976.5 976.5 0 0 0 -15.22-.2" fill="url(#f)" opacity=".28" transform="matrix(-1 0 0 -1 616 46)"/><path d="m244.04 5.51c-36-1.74-71.98-4.27-108-5-37.27 10.51-74.16 25.19-106.62 45.49h161.09a1510.06 1510.06 0 0 0 53.53-40.48" fill="url(#g)" opacity=".5" transform="matrix(-1 0 0 -1 526 46)"/><path d="m195.39 39.2.76-.04c28.94-.97 57.88-.08 86.8 1.33a1513.66 1513.66 0 0 1 53.55-40.49h-100.27c-4.5 3.94-8.95 7.95-13.32 12.03a736.67 736.67 0 0 0 -27.52 27.16" fill="#fff" opacity=".5"/><path d="m141.61 1.8-.76.04c-28.94.97-57.88.08-86.81-1.32a1510.06 1510.06 0 0 1 -53.53 40.48h100.26c4.5-3.95 8.95-7.95 13.32-12.03a736.7 736.7 0 0 0 27.51-27.17" fill="url(#h)" mask="url(#p)" opacity=".5" transform="matrix(-1 0 0 -1 337 41)"/><path d="m149.61 1.8-.76.04c-28.94.97-57.88.08-86.81-1.32a1510.06 1510.06 0 0 1 -53.53 40.48h100.26c4.5-3.95 8.95-7.95 13.32-12.03a736.7 736.7 0 0 0 27.51-27.17" fill="url(#i)" opacity=".5" transform="matrix(-1 0 0 -1 344 41)"/><path d="m195.39 39.2a736.67 736.67 0 0 1 27.52-27.17c4.37-4.08 8.81-8.09 13.32-12.03h-237.23v76.03a686.45 686.45 0 0 1 67.39-19.52 665.7 665.7 0 0 1 129-17.32" fill="#fff" opacity=".5"/><path d="m41.61 37.8a736.7 736.7 0 0 1 -27.51 27.18 557.91 557.91 0 0 1 -13.33 12.02h237.23v-76.03a686.08 686.08 0 0 1 -67.39 19.52 665.7 665.7 0 0 1 -129 17.32" fill="url(#j)" mask="url(#q)" opacity=".5" transform="matrix(-1 0 0 -1 237 77)"/><path d="m41.61 37.8a736.7 736.7 0 0 1 -27.51 27.18 557.91 557.91 0 0 1 -13.33 12.02h237.23v-76.03a686.08 686.08 0 0 1 -67.39 19.52 665.7 665.7 0 0 1 -129 17.32" fill="url(#k)" mask="url(#r)" opacity=".5" transform="matrix(-1 0 0 -1 237 77)"/><path d="m41.61 37.8a736.7 736.7 0 0 1 -27.51 27.18 557.91 557.91 0 0 1 -13.33 12.02h237.23v-76.03a686.08 686.08 0 0 1 -67.39 19.52 665.7 665.7 0 0 1 -129 17.32" fill="url(#l)" mask="url(#s)" opacity=".5" transform="matrix(-1 0 0 -1 237 77)"/><path d="m41.61 37.8a736.7 736.7 0 0 1 -27.51 27.18 557.91 557.91 0 0 1 -13.33 12.02h237.23v-76.03a686.08 686.08 0 0 1 -67.39 19.52 665.7 665.7 0 0 1 -129 17.32" fill="url(#m)" mask="url(#t)" opacity=".5" transform="matrix(-1 0 0 -1 237 77)"/></g></svg>