<?xml version="1.0" encoding="UTF-8"?>
<svg width="1044px" height="164px" viewBox="0 0 1044 164" version="1.1" xmlns="http://www.w3.org/2000/svg" xmlns:xlink="http://www.w3.org/1999/xlink">
    <!-- Generator: Sketch 50.2 (55047) - http://www.bohemiancoding.com/sketch -->
    <title>ABS_300_201803</title>
    <desc>Created with Sketch.</desc>
    <defs></defs>
    <g id="ABS_300_201803" stroke="none" stroke-width="1" fill="none" fill-rule="evenodd">
        <g id="Group-5" transform="translate(434.000000, 0.000000)">
            <path d="M546.714,159.816 C541.302,158.644 527.264,147.028 520.192,139.52 C513.112,132.014 484.376,97.75 484.376,46.596 C484.376,27.36 487.916,11.87 494.104,1.078 C509.14,9.054 524.28,13.278 546.714,13.278 L546.714,26.36 C527.706,26.36 565.724,26.356 546.714,26.36 L546.714,13.278 C569.15,13.274 584.298,9.05 599.334,1.074 C605.512,11.868 609.062,27.358 609.062,46.596 C609.062,97.75 580.316,132.01 573.244,139.52 C566.174,147.028 552.128,158.644 546.714,159.816" id="Fill-1" fill="#FFFFFE"></path>
            <polyline id="Fill-3" fill="#FFFFFE" points="462.96 46.468 418.954 46.468 418.954 2.468 349.022 2.468 349.022 46.468 305.022 46.468 305.022 116.4 349.022 116.4 349.022 160.4 418.954 160.4 418.954 116.4 462.96 116.4 462.96 46.468"></polyline>
            <path d="M61.814,101.95 L26.661943,101.95 C26.662,99.56 26.662,92.022 26.662,92.022 C26.65,85.5 28.534,80.174 32.098,76.62 C35.224,73.498 39.526,71.788 44.21,71.802 C55.53,71.84 61.782,79.038 61.814,92.06 C61.814,92.06 61.814,99.568 61.814,101.95 Z M74.652,75.602 C67.142,68.96 56.67,65.45 44.354,65.45 C33.384,65.45 22.434,70.478 14.31,79.244 C5.63,88.61 0.832,101.444 0.798,115.38 C0.764,129.046 5.736,141.562 14.796,150.624 C23.434,159.274 34.94,164.02 47.19,163.998 C70.864,163.956 84.154,146.444 86.486,130.184 L86.606,129.34 L79.274,129.34 L79.192,129.99 C77.522,143.174 66.304,157.172 48.806,157.138 C34.834,157.112 26.802,147.556 26.768,130.916 C26.768,130.916 26.768,112.722 26.768,108.83 L88.038,108.83 L88.01,108.068 C87.55,93.956 83.056,83.03 74.652,75.602 Z" id="Fill-4" fill="#0067A5"></path>
        </g>
        <path d="M316.644,142.69 L309.766,142.69 L309.656,143.296 C308.838,147.64 306.146,154.926 297.264,154.902 C290.382,154.884 286.878,150.07 286.842,140.592 C286.842,140.592 286.842,81.802 286.842,74.526 L309.486,74.526 L309.482,73.79 L309.478,68.79 L309.478,68.052 L286.992,68.052 L286.992,39.444 L286.176,39.536 C280.87,40.11 270.102,40.938 264.504,40.928 L263.76,40.928 L263.76,68.04 L248.802,68.04 L248.802,74.55 L263.862,74.55 L263.862,132.054 C263.88,153.242 272.954,163.99 290.824,163.994 C311.338,163.994 315.656,148.352 316.49,143.556 L316.644,142.69" id="Fill-6" fill="#0067A5"></path>
        <path d="M60.374,42.872 L82.084,104.862 L40.05,104.862 L60.374,42.872 Z M235.118,154.946 L235.118,96.472 C235.126,87.41 232.194,79.686 226.64,74.13 C221.074,68.564 213.066,65.502 204.092,65.506 C191.816,65.514 181.97,70.456 174.726,80.078 L174.524,68.838 L174.51,68.116 L137.658,68.116 L137.658,74.516 L152.136,74.516 L152.136,154.954 L126.304,154.954 L73.296,2.694 L73.126,2.198 L66.644,2.198 L14.614,154.958 L0,154.958 L0,161.346 L43.334,161.346 L43.334,154.958 L23.372,154.958 L37.782,111.478 L84.154,111.478 L98.778,154.958 L78.598,154.958 L78.598,161.346 L189.204,161.346 L189.204,154.946 L174.766,154.946 L174.766,110.304 C174.806,83.67 189.014,74.006 198.55,74.01 C207.788,74.016 212.478,79.998 212.484,91.796 C212.484,91.796 212.484,147.854 212.484,154.946 L198.942,154.946 L198.942,161.346 L249.814,161.346 L249.814,154.946 L235.118,154.946 Z" id="Fill-7" fill="#0067A5"></path>
        <path d="M416.982,154.946 L416.982,95.536 C416.968,81.676 408.538,65.496 384.83,65.506 C366.466,65.516 356.936,74.434 352.844,79.034 L352.844,2.644 L315.96,2.644 L315.96,9.282 L329.766,9.282 L329.766,154.946 L314.848,154.946 L314.848,161.346 L367.096,161.346 L367.096,154.946 L352.844,154.946 L352.844,109.73 C352.848,94.098 358.19,85.48 362.67,81 C367.016,76.656 372.562,74.262 378.284,74.266 C390.954,74.274 393.65,84.678 393.682,93.414 C393.682,93.414 393.682,147.972 393.682,154.946 L379.428,154.946 L379.428,161.346 L431.678,161.346 L431.678,154.946 L416.982,154.946" id="Fill-8" fill="#0067A5"></path>
        <path d="M693.286,154.946 L679.114,154.946 L679.114,91.956 C679.086,75.63 667.904,65.496 649.942,65.506 C632.956,65.516 623.704,73.97 619.396,79.646 C614.66,70.41 605.52,65.498 592.816,65.506 C580.694,65.514 569.834,70.004 562.596,77.81 L562.398,68.834 L562.376,68.116 L524.862,68.116 L524.862,74.516 L540.228,74.516 L540.228,154.946 L525.082,154.946 L525.082,161.346 L576.136,161.346 L576.136,154.946 L563.082,154.946 L563.082,110.502 C563.516,97.582 564.114,89.262 568.722,82.88 C572.71,77.578 579.05,74.276 585.288,74.276 C592.972,74.276 595.678,80.074 595.964,80.734 C597.91,84.412 597.91,90.772 597.91,96.92 L597.91,154.946 L584.29,154.946 L584.29,161.346 L634.53,161.346 L634.53,154.946 L621.426,154.946 L621.426,110.502 C621.852,97.586 622.45,89.264 627.08,82.88 C631.054,77.578 637.4,74.276 643.624,74.276 C651.316,74.276 654.022,80.074 654.3,80.734 C656.252,84.412 656.252,90.772 656.252,96.92 L656.252,154.946 L642.706,154.946 L642.706,161.346 L694.026,161.346 L694.026,154.946 L693.286,154.946" id="Fill-9" fill="#0067A5"></path>
        <path d="M711.262,148.266 C713.172,148.266 715.834,148.584 715.834,146.012 C715.834,144.104 714.246,143.852 712.594,143.852 L708.846,143.852 L708.846,148.266 L711.262,148.266 Z M708.846,155.922 L707.102,155.922 L707.102,142.262 L712.978,142.262 C716.532,142.262 717.744,143.598 717.744,146.044 C717.744,148.68 715.898,149.666 713.518,149.854 L717.586,155.922 L715.612,155.922 L711.766,149.854 L708.846,149.854 L708.846,155.922 Z M721.59,149.158 C721.59,143.342 717.394,139.152 711.584,139.152 C705.736,139.152 701.51,143.342 701.51,149.158 C701.51,155.034 705.736,159.228 711.584,159.228 C717.394,159.228 721.59,155.034 721.59,149.158 Z M699.602,149.158 C699.602,142.612 704.974,137.246 711.584,137.246 C718.156,137.246 723.49,142.612 723.49,149.158 C723.49,155.762 718.156,161.134 711.584,161.134 C704.974,161.134 699.602,155.762 699.602,149.158 Z" id="Fill-10" fill="#0067A5"></path>
        <path d="M872.518,148.142 C874.428,148.142 877.09,148.46 877.09,145.886 C877.09,143.98 875.502,143.728 873.848,143.728 L870.102,143.728 L870.102,148.142 L872.518,148.142 Z M870.102,155.798 L868.358,155.798 L868.358,142.138 L874.234,142.138 C877.788,142.138 879,143.47 879,145.916 C879,148.556 877.154,149.538 874.776,149.732 L878.844,155.798 L876.87,155.798 L873.022,149.732 L870.102,149.732 L870.102,155.798 Z M882.844,149.032 C882.844,143.218 878.65,139.026 872.838,139.026 C866.992,139.026 862.768,143.218 862.768,149.032 C862.768,154.91 866.992,159.102 872.838,159.102 C878.65,159.102 882.844,154.91 882.844,149.032 Z M860.858,149.032 C860.858,142.488 866.23,137.118 872.838,137.118 C879.412,137.118 884.746,142.488 884.746,149.032 C884.746,155.638 879.412,161.008 872.838,161.008 C866.23,161.008 860.858,155.638 860.858,149.032 Z" id="Fill-11" fill="#0067A5"></path>
        <path d="M848.102,49.706 C840.32,42.32 829.8,37.78 818.22,37.78 C806.242,37.78 795.394,42.656 787.552,50.518 L782.996,46.294 L782.996,2.288 L853.004,2.288 L853.018,46.29 L848.102,49.706" id="Fill-12" fill="#0067A5"></path>
        <path d="M826.49,57.324 C826.49,53.832 831.068,53.286 828.866,45.58 C835.654,47.048 841.436,52.288 846.48,57.324 L826.49,57.324" id="Fill-13" fill="#0067A5"></path>
        <path d="M809.24,57.324 L789.248,57.324 C793.65,51.45 800.074,47.048 806.852,45.582 C804.652,53.286 809.24,53.836 809.24,57.324" id="Fill-14" fill="#0067A5"></path>
        <path d="M854.542,72.728 C857.12,87.036 852.89,97.306 846.294,105.564 C846.294,105.564 832.898,80.252 831.43,77.498 C829.972,74.748 831.43,74.566 833.076,74.384 C834.372,74.384 854.542,72.728 854.542,72.728" id="Fill-15" fill="#0067A5"></path>
        <path d="M781.172,72.728 C781.172,72.728 801.354,74.384 802.638,74.384 C804.282,74.566 805.758,74.748 804.282,77.498 C802.822,80.252 789.426,105.564 789.426,105.564 C782.824,97.31 778.606,87.036 781.172,72.728" id="Fill-16" fill="#0067A5"></path>
        <path d="M833.46,115.104 C829.246,117.304 823.918,118.402 817.862,118.406 C811.81,118.406 806.49,117.304 802.272,115.104 C802.272,115.104 816.582,92.538 817.862,92.538 C819.146,92.538 833.46,115.104 833.46,115.104" id="Fill-17" fill="#0067A5"></path>
        <path d="M842.306,117.264 C842.306,117.264 822.814,89.054 821.71,87.216 C820.612,85.388 819.694,84.288 817.862,84.288 C816.026,84.288 815.106,85.388 814.01,87.216 C813.034,88.838 797.332,111.638 793.672,116.94 C800.658,121.746 809.118,124.556 818.234,124.556 L782.996,160.492 L782.996,116.478 L791.078,115.004 C793.862,109.776 806,87.168 809.786,80.068 C814.01,72.18 809.418,68.878 803.184,68.512 C797.396,68.172 787.966,66.61 777.404,66.386 C775.738,70.986 774.834,75.994 774.834,81.166 C774.834,94.848 781.184,107.056 791.078,115.004 L782.996,116.478 L738.988,116.478 L738.98,46.294 L782.996,46.294 L787.552,50.518 C783.97,54.108 781.014,58.324 778.848,62.986 L807.956,63.006 C810.842,63.006 813.172,62.166 814.516,60.784 C816.26,59.01 816.382,56.358 814.01,53.466 C809.786,48.33 813.448,43.378 817.862,43.564 C822.264,43.748 825.926,48.33 821.71,53.466 C819.338,56.358 819.466,59.01 821.196,60.784 C822.55,62.166 824.872,63.006 827.762,63.006 L857.648,62.998 C855.326,57.978 852.072,53.47 848.102,49.706 L853.018,46.29 L897.016,46.29 L897.016,116.478 L853.018,116.478 L844.828,115.45 C855.04,107.508 861.62,95.108 861.62,81.166 C861.62,75.946 860.708,70.948 859.014,66.31 C848.16,66.478 838.454,68.166 832.534,68.512 C826.296,68.874 821.71,72.18 825.926,80.064 C830.156,87.954 844.278,114.346 844.828,115.45 L853.018,116.478 L853.018,160.492 L782.996,160.492 L818.234,124.556 C827.136,124.556 835.412,121.87 842.306,117.264" id="Fill-18" fill="#0067A5"></path>
        <g id="Group-22" transform="translate(918.000000, 0.000000)" fill="#0067A5">
            <path d="M105.602,148.142 C107.512,148.142 110.176,148.46 110.176,145.886 C110.176,143.98 108.588,143.728 106.934,143.728 L103.188,143.728 L103.188,148.142 L105.602,148.142 Z M103.188,155.798 L101.444,155.798 L101.444,142.138 L107.32,142.138 C110.874,142.138 112.086,143.47 112.086,145.916 C112.086,148.556 110.24,149.538 107.86,149.732 L111.928,155.798 L109.954,155.798 L106.108,149.732 L103.188,149.732 L103.188,155.798 Z M115.93,149.032 C115.93,143.218 111.736,139.026 105.924,139.026 C100.078,139.026 95.852,143.218 95.852,149.032 C95.852,154.91 100.078,159.102 105.924,159.102 C111.736,159.102 115.93,154.91 115.93,149.032 Z M93.944,149.032 C93.944,142.488 99.316,137.118 105.924,137.118 C112.498,137.118 117.832,142.488 117.832,149.032 C117.832,155.638 112.498,161.008 105.924,161.008 C99.316,161.008 93.944,155.638 93.944,149.032 Z" id="Fill-19"></path>
            <path d="M62.714,159.816 C57.302,158.644 43.264,147.028 36.192,139.52 C29.112,132.014 0.376,97.75 0.376,46.596 C0.376,27.36 3.916,11.87 10.104,1.078 C25.14,9.054 40.28,13.278 62.714,13.278 L62.714,26.36 C43.706,26.36 25.83,21.746 16.508,16.796 C13.09,21.962 11.55,36.278 11.55,46.134 C11.55,92.282 35.56,121.906 38.844,125.912 C43.264,131.306 59.73,146.124 62.714,146.83 C65.706,146.124 82.174,131.306 86.588,125.912 C89.878,121.902 113.878,92.278 113.878,46.13 C113.878,36.27 112.342,21.958 108.924,16.796 C99.606,21.742 81.724,26.356 62.714,26.36 L62.714,13.278 C85.15,13.274 100.298,9.05 115.334,1.074 C121.512,11.868 125.062,27.358 125.062,46.596 C125.062,97.75 96.316,132.01 89.244,139.52 C82.174,147.028 68.128,158.644 62.714,159.816" id="Fill-21"></path>
        </g>
        <path d="M974.362,44.208 C974.362,44.208 973.992,45.272 973.252,45.362 C972.538,45.444 972.07,45.134 971.586,44.828 C970.288,44.016 969.47,43.872 969.47,43.872 C969.47,43.872 972.092,42.968 974.362,44.208" id="Fill-23" fill="#0067A5"></path>
        <path d="M985.102,48.82 C986.57,48.106 990.26,44.778 991.484,43.956 C993.92,42.318 997.566,45.43 995.244,47.686 C989.132,53.634 986.212,56.69 984.688,58.314 C984.602,58.406 983.848,59.936 983.122,60.354 L983.336,61.522 C984.018,61.696 984.676,61.934 985.294,62.086 C1000.144,65.724 995.536,82.798 984.46,82.634 L982.78,84.052 L975.85,83.404 L973.892,79.008 L973.344,80.996 L974.874,84.554 C977.352,84.718 978.278,84.654 981.206,85.03 C981.726,85.094 982.638,85.304 984.312,85.664 C996.19,88.208 993.378,101.91 983.806,102.868 C983.828,101.49 983.862,100.012 983.998,98.52 L982.724,99.204 C982.702,100.856 982.808,100.814 982.78,102.418 C982.772,103.252 982.788,105.022 982.78,105.83 C981.912,105.706 980.714,105.14 979.832,104.798 C978.5,104.29 977.794,103.608 977.01,103.184 C976.998,102.936 976.97,101.92 976.954,101.664 L976.962,99.812 L975.83,100.03 C975.858,100.984 976,101.834 976.08,103.074 C974.376,103.952 975.66,104.138 976.442,104.404 C977.288,104.688 979.346,105.72 980.528,106.234 C981.47,106.636 983.408,107.37 984.148,107.696 C990.38,110.396 989.732,117.966 983.364,121.296 L982.418,121.918 C982.34,126.762 981.968,131.232 981.926,131.676 C981.926,131.676 979.86,132.624 978.192,131.508 C978.192,130.838 978.108,127.334 978.036,124.48 L976.998,124.198 C975.608,125.388 975.772,127.68 975.11,128.684 C974.96,128.896 974.704,129.08 974.362,128.91 C973.458,128.442 973.338,126.516 973.33,126.044 C973.3,123.604 974.918,120.63 976.898,119.856 L976.998,124.198 L978.036,124.48 C977.98,121.564 977.788,116.634 977.608,112.54 C978.338,112.822 978.35,112.742 979.198,112.992 C980.522,113.376 981.406,114.178 981.798,114.694 C982.638,115.548 982.452,119.938 982.418,121.918 L983.364,121.296 L983.356,115.964 C983.364,114.78 982.924,113.908 982.21,113.226 C981.642,112.692 981.184,112.294 979.96,111.664 C979.29,111.318 978.778,111.148 977.176,110.742 C966.058,107.942 968.792,97.508 975.616,97.462 C975.686,98.366 975.816,99.276 975.83,100.03 L976.962,99.812 L976.82,97.426 C976.762,96.7 976.698,94.446 976.726,93.634 C977.746,93.678 978.264,93.816 979.484,93.948 C981.698,94.202 981.712,93.872 982.832,94.178 C982.824,94.518 982.916,95.856 982.88,96.29 C982.832,97.164 982.738,98.334 982.724,99.204 L983.998,98.52 C984.062,97.604 984.062,97.312 984.32,96.654 C985.116,95.792 986.726,95.472 985.544,93.762 C984.882,92.808 982.46,93.032 980.252,92.788 C979.078,92.658 977.93,92.726 974.092,92 C965.232,90.304 965.88,78.97 971.612,76.744 L973.344,80.996 L973.892,79.008 L972.054,74.518 L974.86,69.99 L982.772,70.606 L982.78,84.052 L984.46,82.634 C983.4,78.18 984.006,74.06 984.006,74.06 C987.694,73.67 985.016,69.79 983.998,69.602 C982.566,69.33 981.414,69.338 978.962,69.1 C977.382,68.95 974.69,68.76 973.3,68.576 C949.634,65.514 953.11,44.14 964.626,42.228 C972.988,40.836 977.488,44.034 978.914,47.444 C978.914,47.444 976.512,48.574 974.562,48.346 C970.722,47.896 968.424,48.196 968.424,48.196 C969.704,49.374 973.948,50.048 975.678,51.546 C973.736,52.41 971.512,52.34 969.432,52.08 C967.668,51.856 966.014,51.454 964.25,50.792 C963.594,52.932 962.19,57.494 972.732,59.626 C974.178,59.918 975.986,60.436 977.902,60.58 C979.918,60.798 981.726,61.116 983.336,61.522 L983.122,60.354 L974.576,58.908 C974.268,57.134 974.164,54.988 974.234,53.014 C975.986,52.84 976.414,52.622 977.446,51.782 L977.068,50.622 C979.64,51.44 981.968,51.76 982.832,51.66 L981.726,50.456 C980.544,50.25 979.29,49.646 977.794,49.162 C979.746,48.866 980.416,48.316 980.416,48.316 C980.416,48.316 980.202,47.384 979.42,45.874 C978.08,43.332 975.046,41.836 975.046,41.836 C974.49,40.92 974.704,40.316 974.69,39.834 C974.604,36.826 976.314,37.48 979.46,38.514 L980.714,31.274 C963.608,31.274 945.76,28.76 937.37,24.31 C934.278,28.96 933.674,40.928 933.924,49.79 C935.262,95.546 956.23,117.992 959.192,121.594 C963.16,126.452 978.03,140.358 980.714,141.064 C983.408,140.358 998.27,126.452 1002.246,121.594 C1005.2,117.992 1026.176,95.546 1027.5,49.788 C1027.762,40.924 1027.144,28.956 1024.06,24.31 C1015.682,28.76 997.822,31.27 980.714,31.274 L979.46,38.514 C980.074,38.766 980.388,39.18 980.636,39.28 C982.66,40.112 984.576,41.348 984.51,41.942 C984.51,41.942 984.36,49.186 985.102,48.82" id="Fill-24" fill="#0067A5"></path>
    </g>
</svg>