<?xml version="1.0" encoding="UTF-8"?>
<!DOCTYPE svg PUBLIC "-//W3C//DTD SVG 1.1//EN" "http://www.w3.org/Graphics/SVG/1.1/DTD/svg11.dtd">
<svg version="1.1" xmlns="http://www.w3.org/2000/svg" xmlns:xlink="http://www.w3.org/1999/xlink" x="0" y="0" width="160" height="53" viewBox="0, 0, 160, 53">
  <g>
    <path d="M75.276,42.694 L75.276,47.831 L75.276,53 L65.838,53 L65.838,51.068 C65.838,42.124 65.853,33.178 65.833,24.231 C65.823,19.937 67.205,16.392 71.351,14.7 C75.841,12.868 80.248,13.259 84.125,16.379 C85.639,17.597 86.392,19.399 86.38,21.446 C86.362,24.349 86.399,27.255 86.37,30.157 C86.33,33.898 83.323,36.92 79.556,37.049 C75.885,37.175 72.506,34.256 72.308,30.6 C72.163,27.877 72.232,25.141 72.263,22.411 C72.284,20.665 73.491,20.115 75.276,19.773 L75.276,23.794 C75.277,25.827 75.231,27.862 75.295,29.894 C75.368,32.243 77.152,33.975 79.364,33.953 C81.588,33.931 83.322,32.205 83.38,29.841 C83.437,27.577 83.397,25.311 83.395,23.045 C83.395,19.583 82.059,17.863 78.718,17.023 C74.058,15.849 70.059,17.911 69.009,22.047 C68.896,22.49 68.826,22.957 68.826,23.414 C68.817,32.011 68.819,40.609 68.825,49.205 C68.825,49.434 68.87,49.664 68.913,50.054 L72.201,50.054 L72.201,38.161 C74.077,38.885 75.799,39.84 77.633,40.203 C83.709,41.404 89.572,36.58 89.801,30.314 C89.893,27.762 89.733,25.199 89.863,22.65 C90.189,16.203 85.64,11.606 79.718,10.643 C77.312,10.25 74.792,10.578 72.004,10.578 C72.654,10.089 73.109,9.613 73.662,9.347 C82.234,5.218 92.312,11.238 92.791,20.872 C92.972,24.512 92.993,28.206 92.606,31.825 C91.67,40.578 82.529,45.432 75.862,42.699 C75.765,42.659 75.639,42.694 75.276,42.694" fill="#00AECD"/>
    <path d="M7.99,14.877 C15.804,14.101 19.481,15.871 20.538,21.106 C18.341,19.007 15.838,17.873 13.085,17.744 C10.383,17.619 7.662,17.947 4.815,18.081 C4.815,15.69 4.796,13.026 4.842,10.363 C4.847,10.065 5.147,9.615 5.418,9.503 C10.848,7.257 18.478,7.45 23.297,12.054 C25.97,14.607 26.946,17.883 27.063,21.464 C27.149,24.076 27.122,26.694 27.063,29.305 C27.033,30.662 27.452,31.651 28.658,32.32 C29.004,32.515 29.438,32.961 29.445,33.3 C29.508,36.133 29.481,38.968 29.481,42.186 C27.596,41.659 25.882,41.398 24.372,40.69 C23.229,40.153 22.509,40.184 21.502,40.912 C14.633,45.878 5.143,43.486 1.261,35.862 C-2.366,28.745 2.215,21.02 10.098,21.075 C11.905,21.087 13.778,21.285 15.499,21.81 C19.245,22.951 21.373,27.174 20.542,31.333 C19.877,34.655 16.697,37.166 13.3,37.049 C9.397,36.915 6.239,33.887 6.512,30.473 C6.648,28.804 7.272,27.442 9.41,27.139 C9.449,27.903 9.511,28.62 9.519,29.336 C9.546,31.627 10.337,32.921 12.236,33.698 C13.8,34.337 15.168,33.89 16.341,32.795 C17.841,31.396 17.968,29.586 17.293,27.824 C16.924,26.864 16.169,25.888 15.327,25.309 C10.851,22.243 4.362,24.559 3.184,29.554 C2.439,32.715 4.492,36.679 7.985,38.821 C12.729,41.732 18.058,40.771 21.836,36.321 C22.02,36.106 22.204,35.888 22.422,35.633 C23.05,36.206 23.584,36.808 24.227,37.249 C24.815,37.653 25.519,37.884 26.34,38.268 C26.463,36.347 26.849,34.773 25.248,33.336 C24.487,32.654 24.162,31.183 24.102,30.044 C23.931,26.743 24.339,23.38 23.887,20.13 C23.064,14.222 17.995,10.711 11.558,11.131 C11.272,11.149 10.988,11.191 10.701,11.219 C7.718,11.504 7.647,11.597 7.99,14.877" fill="#00AECD"/>
    <path d="M153.631,41.164 C153.071,41.538 152.548,41.995 151.943,42.273 C143.236,46.276 133.57,40.341 133.04,30.47 C132.821,26.385 132.762,22.151 133.562,18.178 C134.937,11.344 141.356,7.313 148.364,8.164 C154.709,8.932 159.786,14.623 159.934,21.267 C159.997,24.104 160.11,26.985 159.731,29.779 C159.082,34.558 155.337,37.635 150.575,37.789 C147.042,37.902 143.585,37.588 141.214,34.567 C140.278,33.376 139.605,31.715 139.461,30.203 C139.187,27.324 139.343,24.402 139.391,21.498 C139.453,17.551 142.593,14.481 146.473,14.506 C150.354,14.529 153.46,17.631 153.501,21.557 C153.525,23.88 153.51,26.204 153.504,28.527 C153.498,30.712 153.089,31.186 150.525,31.784 C150.525,28.511 150.496,25.291 150.537,22.073 C150.561,20.261 149.836,18.945 148.287,18.08 C145.824,16.703 142.577,18.41 142.447,21.278 C142.313,24.234 142.305,27.208 142.479,30.16 C142.533,31.087 143.174,32.139 143.845,32.844 C146.39,35.521 153.194,35.693 155.536,32.039 C156.031,31.269 156.718,30.426 156.754,29.591 C156.92,25.789 157.532,21.924 156.273,18.205 C154.587,13.234 149.525,10.356 144.377,11.294 C139.669,12.151 135.964,16.742 135.953,21.768 C135.946,24.905 135.713,28.069 136.048,31.169 C136.652,36.779 141.949,41.095 148.106,41.238 C149.849,41.279 151.6,40.997 153.347,40.863 z" fill="#00AECD"/>
    <path d="M126.241,30.791 C126.113,36.847 121.056,42.464 115.211,43.319 C107.723,44.414 101.159,40.126 99.784,32.615 C99.117,28.974 99.147,25.039 99.701,21.368 C100.552,15.716 106.22,12.612 112.257,13.876 C114.719,14.39 116.822,15.413 118.685,17.245 C119.429,17.977 121.049,17.793 122.667,18.103 C121.09,14.356 118.672,12.391 115.461,11.223 C112.309,10.077 109.14,9.937 105.793,10.958 C106.852,8.539 112.328,7.419 116.535,8.534 C122.003,9.982 126.598,15.735 126.132,20.758 C123.299,20.758 120.444,20.784 117.593,20.725 C117.257,20.718 116.839,20.31 116.612,19.979 C113.69,15.703 106.427,15.594 103.576,19.838 C103.107,20.537 102.606,21.39 102.578,22.19 C102.477,25.376 102.263,28.607 102.634,31.754 C103.18,36.377 107.079,39.72 112.106,40.441 C115.632,40.947 120.401,38.205 122.14,34.659 C122.236,34.464 122.256,34.234 122.334,33.928 C120.544,33.702 119.069,33.594 117.624,35.14 C115.652,37.252 112.995,37.581 110.319,36.535 C107.479,35.423 105.956,33.193 105.808,30.14 C105.683,27.592 105.734,25.031 105.793,22.477 C105.835,20.688 107.008,20.02 108.752,19.834 C108.752,22.989 108.748,26.057 108.754,29.126 C108.759,31.509 109.897,33.25 111.817,33.841 C113.533,34.368 115.181,33.564 116.597,31.571 C116.83,31.245 117.24,30.832 117.574,30.825 C120.43,30.766 123.288,30.791 126.241,30.791" fill="#00AECD"/>
    <path d="M59.658,34.631 C60.065,37.595 59.965,37.741 56.932,37.774 C55.617,37.789 54.266,37.871 52.992,37.61 C48.449,36.677 45.333,34.26 45.509,28.28 C45.609,24.914 45.523,21.544 45.531,18.175 C45.532,17.553 45.583,16.929 45.615,16.185 L53.451,16.185 L53.451,12.717 L45.524,12.717 L45.524,3.664 C42.716,7.134 40.171,10.165 37.788,13.319 C37.315,13.943 37.451,15.041 37.265,16.156 L42.227,16.156 C42.227,20.467 42.431,24.588 42.184,28.683 C41.729,36.229 47.582,40.774 54.271,41.227 C56.06,41.347 57.879,41.001 60.101,40.839 C59.432,41.388 59.044,41.831 58.56,42.086 C50.083,46.533 39.501,40.249 39.241,30.585 C39.143,26.884 39.226,23.18 39.226,19.333 L34.416,19.333 C34.598,15.96 33.476,12.666 36.421,9.847 C38.734,7.633 40.76,5.027 42.533,2.34 C44.048,0.045 45.913,-0.297 48.478,0.196 L48.478,9.663 L56.415,9.663 L56.415,19.249 L48.568,19.249 C48.568,23.023 48.434,26.611 48.616,30.182 C48.731,32.419 51.046,34.34 53.711,34.594 C55.62,34.779 57.56,34.631 59.658,34.631" fill="#00AECD"/>
  </g>
</svg>