<svg xmlns="http://www.w3.org/2000/svg" viewBox="0 0 183.9 70" xml:space="preserve"><path fill="#1C4B98" d="M0 1.2h42.4v42.4H0z"/><path fill="#C30847" d="M26.3 22.1 42.4 1.2h-2.3L23.9 22.1z"/><path fill="none" d="M-37.9 0h266.7v70H-37.9z"/><path fill="#FFF" d="M32.4 31.5c.7 2.1 2.3 7.5 2.9 7.9h-4s0-.8-.2-1.4c-.2-.6-1.6-5.3-1.6-5.3h-6.4l-1 1.4s1.2 3.8 1.3 3.9c.1.3.7 1.3.7 1.3h-3.8s-.1-.6-.1-.8c0-.2-.4-1.3-.4-1.3s-.9 1-1.1 1.4c-.2.4-.3.7-.3.7h-3s-.1-.6-.1-.8c0-.2-.4-1.3-.4-1.3s-.8 1-1.1 1.5c-.2.4-.3.7-.3.7h-3l1.1-1.1c.5-.6 2.3-3 2.3-3l-.7-2.6H6.8s-3.6 4.7-3.7 4.9c-.1.1-1.2 1.6-1.2 1.8H0v-1.2l.1-.1c.1 0 2.7-3.4 5.2-6.6 2.2-2.8 4.3-5.6 4.5-5.9.4-.6 1.1-2 1.1-2H14s.1 1.3.2 1.6c.1.3 2.1 6.8 2.1 6.9l1.1-1.4-1.9-5.8s-.4-1.1-.6-1.3h3.8s0 .6.1 1c.2.5 1 3.4 1 3.4s2.6-3.3 2.8-3.5c.3-.4.3-1 .3-1h3.2s-.6.4-1.6 1.7c-.3.4-3.7 4.7-3.7 4.7s.3 1 .4 1.5c0 .1.1.2.1.2l.2-.2c.9-1.1 4.8-6.3 5-6.7.2-.4.5-.8.6-1.2h3.1s.1.9.2 1.2l2 6.8zm-4.7-4.9c-.5 1-3.1 4.2-3.1 4.2h4.2s-.8-2.5-1-3.1c-.1-.4 0-1-.1-1.1.1 0 .1-.1 0 0m-16.3 0c-.5 1-3.1 4.2-3.1 4.2h4.2s-.8-2.5-1-3.1c0-.4 0-1-.1-1.1.1 0 .1-.1 0 0m6.4 9.9 1.2-1.6c-.1-.1-.8-2.1-.8-2.1l-1.1 1.5.7 2.2z"/><path fill="#1C4B98" d="M82 62.8c.1.9 1.2 1.3 2.1 1.3.7 0 1.7-.3 1.7-1.1 0-.7-.7-.9-1.3-1l-1.1-.2c-1.1-.2-2-.7-2-1.9 0-1.4 1.3-2 2.6-2 1.2 0 2.4.5 2.7 1.7l-1 .2c-.3-.8-1-1.1-1.8-1.1-.6 0-1.5.2-1.5 1 0 .7.6.9 1.2 1l1 .2c.5.1 1 .2 1.4.5.5.4.8.9.8 1.6 0 1.6-1.5 2.1-2.9 2.1-1.3 0-2.7-.6-3-2l1.1-.3zM93.1 64.8v-4c0-.4 0-1-.1-1.4-.2-.5-.7-.8-1.2-.8s-1.1.3-1.4.7c-.5.6-.5 1.2-.5 1.9v3.5h-1.1v-9.3h1.1v3.7c.4-.9 1.1-1.4 2.1-1.4.7 0 1.4.3 1.8 1 .4.7.4 1.3.4 2.1v4h-1.1zM100.8 60.6v-.3c0-1.2-.5-1.7-1.7-1.7-.9 0-1.7.3-1.9 1.2l-1-.2c.2-1.4 1.7-1.9 3-1.9.7 0 1.6.1 2.1.7.6.6.6 1.5.6 2.3v2.7c0 .5 0 1 .1 1.4h-1.1l-.1-1.3c-.5 1-1.3 1.4-2.4 1.4-1.3 0-2.4-.7-2.4-2.1 0-.8.5-1.6 1.3-1.9.8-.4 1.8-.4 2.6-.4h.9zm0 .8h-.9c-1.1 0-2.8.1-2.8 1.6 0 .9.7 1.2 1.5 1.2 1.3 0 2.2-1.1 2.2-2.3v-.5zM105 58v1.6c.3-.9.9-1.8 2-1.8h.4v1h-.2c-.8 0-1.4.4-1.8 1.1-.3.5-.3.9-.3 1.5v3.5H104V58h1zM114.3 62.9c-.4 1.3-1.6 2-2.9 2-2.1 0-3.2-1.7-3.2-3.6 0-1.9 1.1-3.6 3.2-3.6s3.1 1.8 3 3.7h-5c0 .5 0 1 .3 1.6.3.6 1 1 1.8 1 .9 0 1.5-.5 1.8-1.3l1 .2zm-1-2.2c0-1.1-.6-2.1-1.8-2.1-1.2 0-1.9 1-1.9 2.1h3.7zM120.8 55.5h1.1v9.3h-1v-1.2c-.4.9-1.1 1.4-2.2 1.4-.9 0-1.6-.4-2.1-1.2-.5-.7-.7-1.6-.7-2.4 0-1.7.9-3.6 2.8-3.6.9 0 1.5.4 2 1.1v-3.4zm0 5.3c0-.5-.1-1-.4-1.4-.3-.5-.9-.8-1.5-.8s-1.1.4-1.4.9c-.3.5-.4 1.2-.4 1.8 0 1.1.3 2.8 1.8 2.8.6 0 1.2-.3 1.5-.8.3-.4.4-.9.4-1.4v-1.1zM129.1 62.8c.1.9 1.2 1.3 2.1 1.3.7 0 1.7-.3 1.7-1.1 0-.7-.7-.9-1.3-1l-1.1-.2c-1.1-.2-2-.7-2-1.9 0-1.4 1.3-2 2.6-2 1.2 0 2.4.5 2.7 1.7l-1 .2c-.3-.8-1-1.1-1.8-1.1-.6 0-1.5.2-1.5 1 0 .7.6.9 1.2 1l1 .2c.5.1 1 .2 1.4.5.5.4.8.9.8 1.6 0 1.6-1.5 2.1-2.9 2.1-1.3 0-2.7-.6-3-2l1.1-.3zM138.6 57.8c2 0 3 1.8 3 3.6 0 1.9-1.1 3.6-3.2 3.6s-3-1.8-3-3.6c0-2 1.1-3.6 3.2-3.6m-1.6 5.4c.3.5.9.9 1.5.9.7 0 1.3-.4 1.6-1 .3-.5.3-1.2.3-1.8 0-.6-.1-1.3-.4-1.9-.3-.5-.9-.8-1.5-.8-.7 0-1.3.4-1.6 1-.3.5-.3 1.2-.3 1.7 0 .7.1 1.4.4 1.9M143.6 55.5h1.1v9.3h-1.1zM152.4 64.8h-1v-1.4c-.3.9-1.2 1.5-2.1 1.5-.7 0-1.3-.2-1.8-.8-.5-.6-.5-1.4-.5-2.1v-4h1.1v4.2c0 .4 0 .9.2 1.3s.7.6 1.1.6c.6 0 1.1-.3 1.4-.7.4-.5.5-1.1.5-1.7V58h1.1v6.8zM158 64.9l-1 .1c-1.5 0-1.9-.9-1.9-2.2v-4h-1.2V58h1.2v-1.7l1.1-.1V58h1.5v.8h-1.5V63c0 .8.2 1.2 1.1 1.2l.7-.2v.9zM160.6 56.7h-1.2v-1.2h1.2v1.2zm0 8.1h-1.1V58h1.1v6.8zM165.7 57.8c2 0 3 1.8 3 3.6 0 1.9-1.1 3.6-3.2 3.6s-3-1.8-3-3.6c.1-2 1.2-3.6 3.2-3.6m-1.6 5.4c.3.5.9.9 1.5.9.7 0 1.3-.4 1.6-1 .3-.5.3-1.2.3-1.8 0-.6-.1-1.3-.4-1.9-.3-.5-.9-.8-1.5-.8-.7 0-1.3.4-1.6 1-.3.5-.3 1.2-.3 1.7 0 .7.1 1.4.4 1.9M171.6 59.2c.4-.9 1.2-1.4 2.2-1.4.8 0 1.5.4 1.9 1.1.4.6.3 1.5.3 2.2v3.8h-1v-4.3c0-.4 0-.9-.2-1.3s-.7-.6-1.2-.6c-.6 0-1.1.3-1.4.7-.4.5-.5 1.2-.5 1.9v3.6h-1.1V58h1v1.2zM178.9 62.8c.1.9 1.2 1.3 2.1 1.3.7 0 1.7-.3 1.7-1.1 0-.7-.7-.9-1.3-1l-1.1-.2c-1.1-.2-2-.7-2-1.9 0-1.4 1.3-2 2.6-2 1.2 0 2.4.5 2.7 1.7l-1 .2c-.3-.8-1-1.1-1.8-1.1-.6 0-1.5.2-1.5 1 0 .7.6.9 1.2 1l1 .2c.5.1 1 .2 1.4.5.5.4.8.9.8 1.6 0 1.6-1.5 2.1-2.9 2.1-1.3 0-2.7-.6-3-2l1.1-.3zM2.3 59.4c.2-1 .7-1.6 1.8-1.6h.4v2.4c-.2 0-.3-.1-.5-.1-.4 0-.9.1-1.1.5-.2.3-.2.8-.2 1.2v3H0v-6.9h2.3v1.5zM12.4 62.6C12 64.2 10.5 65 8.8 65c-1 0-2-.2-2.8-.9-.7-.7-1.1-1.6-1.1-2.6 0-.9.4-1.9 1-2.6.7-.7 1.8-1.1 2.7-1.1 2.3 0 3.7 1.5 3.7 3.8v.4H7.8c0 .7.2 1.3 1.1 1.3.6 0 .9-.2 1.1-.8l2.4.1zm-2.7-2c0-.7-.2-1.2-1-1.2-.7 0-1 .6-1 1.2h2zM17.5 64.9V64c-.4.8-1 1.1-1.8 1.1-2 0-2.7-1.9-2.7-3.6 0-1.8.7-3.6 2.8-3.6.7 0 1.2.3 1.7.7v-2.9H20V65h-2.5zm-.1-4.3c0-.3 0-.6-.2-.8-.1-.2-.4-.3-.6-.3-.5 0-.7.3-.8.7-.1.4-.1.9-.1 1.3 0 .6 0 1.7.9 1.7.3 0 .4-.1.6-.4.2-.3.2-.5.2-.9v-1.3zM28.4 62.6c-.4 1.6-1.9 2.4-3.6 2.4-1 0-2-.2-2.8-.9-.7-.7-1.1-1.6-1.1-2.6 0-.9.4-1.9 1-2.6.7-.7 1.8-1.1 2.7-1.1 2.3 0 3.7 1.5 3.7 3.8v.4h-4.6c0 .7.2 1.3 1.1 1.3.6 0 .9-.2 1.1-.8l2.5.1zm-2.7-2c0-.7-.2-1.2-1-1.2-.7 0-1 .6-1 1.2h2zM32.3 64.9h-2.7v-5h-1v-1.7h1v-.1c0-.7 0-1.3.5-1.9.5-.6 1.4-.8 2.2-.8.7 0 1.3.1 2 .2v1.7c-.6-.1-1-.1-1.4-.1-.5 0-.7.3-.6 1H34v1.7h-1.7v5zM37.4 57.3h-2.7v-1.8h2.7v1.8zm0 7.6h-2.7V58h2.7v6.9zM38.7 57.9h2.5v1c.3-.8 1.1-1.1 2-1.1.7 0 1.4.2 1.8.7.4.6.4 1.4.4 2.1v4.3h-2.7v-4.2c0-.4 0-1-.6-1-.7 0-.8.6-.8 1.2v4h-2.7v-7zM49.4 57.3h-2.7v-1.8h2.7v1.8zm0 7.6h-2.7V58h2.7v6.9zM50.7 57.9h2.5v1c.3-.8 1.1-1.1 2-1.1.7 0 1.4.2 1.8.7.4.6.4 1.4.4 2.1v4.3h-2.7v-4.2c0-.4 0-1-.6-1-.7 0-.8.6-.8 1.2v4h-2.7v-7zM59.7 61.6c-.7-.3-1.1-.8-1.1-1.6 0-1.8 2-2.2 3.4-2.2.4 0 .9 0 1.3.1.1-1 .6-1.6 1.7-1.6.3 0 .6 0 1 .1l-.1 1.9h-.7c-.2 0-.6 0-.8.3.5.4.8.9.8 1.6 0 1.7-1.8 2.1-3.2 2.1h-.6c-.4 0-.6.1-.6.3 0 .3.2.3.7.3l1.9.1c.6 0 1.2.1 1.7.5s.8 1.1.8 1.7c0 1-.7 1.6-1.5 1.9-.7.3-1.8.3-2.6.3-1.2 0-3.7-.1-3.7-1.7 0-.7.4-1.1 1-1.3-.4-.3-.6-.6-.6-1.1-.2-1 .5-1.5 1.2-1.7m1.1 4.1c.4.1.9.1 1.3.1s1.4.1 1.4-.5c0-.5-.5-.4-.8-.4-.6 0-1.2-.1-1.8-.1-.3 0-.7 0-.7.4 0 .3.3.5.6.5m1.9-5.7c0-.5-.3-.9-.8-.9s-.8.4-.8.9c0 .6.3.8.9.8.4 0 .7-.3.7-.8"/><path fill="#C30847" d="m70.2 67 8.9-11.5H77L68 67zM0 47h183.8v.9H0z"/><path fill="#1C4B98" d="M62.9 26.6c-1-.4-2.1-.7-3.3-.7-1.5 0-2.6.7-2.6 1.8 0 2.4 6.1 4.1 6.1 7.8 0 1.7-1.2 4.2-5.6 4.2-1.5 0-3-.3-4.4-.6l-.3-2.9c1.3.6 2.7 1 4.2 1 1.1 0 2.6-.4 2.6-1.8 0-2.5-6.1-4.2-6.1-8 0-2.8 2.7-4 5.4-4 1.2 0 2.5.2 3.7.4l.3 2.8zM83.2 31.2c0 5.6-3.8 8.5-9.1 8.5-4.8 0-8.7-2.5-8.7-7.6 0-5.6 3.9-8.7 9.3-8.7 4.8 0 8.5 2.7 8.5 7.8m-14.3.6c0 3.2 2.1 5.3 5.3 5.3 3.5 0 5.4-2.5 5.4-5.9 0-3.1-1.9-5.4-5.1-5.4-3.5.1-5.6 2.6-5.6 6M96.4 39.4h-11c.5-5.2.7-10.5.8-15.7h3.7c-.1 1.4-.6 10.2-.7 13.2H92c1.5 0 3 0 4.5-.1l-.1 2.6zM113.2 23.7c-.1 1-.5 6.9-.6 10.2 0 1.9-.6 5.8-7.6 5.8-5.1 0-7.1-2.3-7.1-4.8 0-2.2.4-6.1.5-11.2h3.6c-.2 2.4-.6 7.8-.6 9.7 0 2.5 1.1 3.8 3.7 3.8 2.9 0 3.7-1.7 3.9-4.3.2-3.2.4-6.2.5-9.2h3.7zM127.8 23.7l-.1 2.6c-1.5-.1-2.9-.1-4.9-.1-.2 4-.5 8.1-.5 13.2h-3.7c.3-3.9.5-8.7.7-13.2-3.4 0-3.8.1-4.9.1l.1-2.6h13.3zM128.7 39.4c.3-4.8.6-9.4.6-15.7h3.7c-.3 4.5-.5 8.9-.6 15.7h-3.7zM153.3 31.2c0 5.6-3.8 8.5-9.2 8.5-4.8 0-8.7-2.5-8.7-7.6 0-5.6 3.9-8.7 9.3-8.7 4.8 0 8.6 2.7 8.6 7.8m-14.4.6c0 3.2 2.1 5.3 5.3 5.3 3.5 0 5.4-2.5 5.4-5.9 0-3.1-1.9-5.4-5.1-5.4-3.5.1-5.6 2.6-5.6 6M159.1 27.7c-.2 3.2-.4 7.6-.4 11.7h-3.3c.5-5.2.7-10.5.8-15.7h4.3c2.3 4.1 4.9 7.9 7.2 11.9.2-3.7.4-8 .4-11.9h3.3c-.4 5.1-.7 10.5-.8 15.7h-4.2l-7.3-11.7zM183.7 26.6c-1-.4-2.1-.7-3.3-.7-1.5 0-2.6.7-2.6 1.8 0 2.4 6.1 4.1 6.1 7.8 0 1.7-1.2 4.2-5.6 4.2-1.5 0-3-.3-4.4-.6l-.3-2.9c1.3.6 2.7 1 4.2 1 1.1 0 2.6-.4 2.6-1.8 0-2.5-6.1-4.2-6.1-8 0-2.8 2.7-4 5.4-4 1.2 0 2.5.2 3.7.4l.3 2.8zM68.6 12.1c-.2 2.5-.3 5-.4 8.6-2 .4-4 .7-6.1.7-6.1 0-9.1-2.7-9.1-7.6 0-4.2 2.7-8.7 9.8-8.7 1.8 0 3.5.2 5.3.6l.1 2.8c-1.6-.5-3.3-.9-4.9-.9-3.9 0-6.7 2.2-6.7 6.3 0 3.4 2.1 5 5.4 5 1 0 2.1-.2 3.1-.4l.2-4.1h-2.9l.1-2.3h6.1zM83.6 21.1h-3.8c-1.1-3-2.6-5.8-4-8.7.5.1.9.1 1.4.1 1.8 0 3.5-.8 3.5-2.8 0-1.8-1.7-2.1-3.1-2.1-.8 0-1.7 0-2.5.1-.1 2.1-.4 10.9-.4 13.3h-3.6c.5-5.2.7-10.5.7-15.7H79c2.7 0 5.1 1 5.1 3.9 0 2.8-1.8 4.1-4.3 4.6l3.8 7.3zM103.6 12.9c0 5.6-3.8 8.5-9.1 8.5-4.8 0-8.7-2.5-8.7-7.6 0-5.6 3.9-8.7 9.3-8.7 4.8 0 8.5 2.7 8.5 7.8m-14.3.7c0 3.2 2.1 5.3 5.3 5.3 3.5 0 5.4-2.5 5.4-5.9 0-3.1-1.9-5.4-5.1-5.4-3.5 0-5.6 2.6-5.6 6M121 5.4c-.1 1-.5 6.9-.6 10.2 0 1.9-.6 5.8-7.6 5.8-5.1 0-7.1-2.3-7.1-4.8 0-2.2.4-6.1.5-11.2h3.6c-.2 2.4-.6 7.8-.6 9.7 0 2.5 1.1 3.8 3.7 3.8 2.9 0 3.7-1.7 3.9-4.3.2-3.2.4-6.2.5-9.2h3.7zM127.7 12.2c.4.1.9.1 1.3.1 2.2 0 3.3-1 3.3-2.7 0-1.5-.8-1.9-2.5-1.9-.8 0-1.7 0-2.5.1-.1 1.5-.4 9.4-.4 13.3h-3.4c.3-2.7.7-11.8.7-15.7h7.5c3.1 0 4.1 2.5 4.1 4.1 0 3.3-2.6 5.1-5.7 5.1-.6 0-1.1 0-1.7-.1l-.7-2.3z"/></svg>