<?xml version="1.0" encoding="utf-8"?>
<!-- Generator: Adobe Illustrator 16.0.4, SVG Export Plug-In . SVG Version: 6.00 Build 0)  -->
<!DOCTYPE svg PUBLIC "-//W3C//DTD SVG 1.1//EN" "http://www.w3.org/Graphics/SVG/1.1/DTD/svg11.dtd">
<svg version="1.1" id="Layer_1" xmlns="http://www.w3.org/2000/svg" xmlns:xlink="http://www.w3.org/1999/xlink" x="0px" y="0px"
	 width="44.39px" height="44.588px" viewBox="0 0 44.39 44.588" enable-background="new 0 0 44.39 44.588" xml:space="preserve">
<rect fill="#00ACCD" width="44.39" height="44.588"/>
<g>
	<defs>
		<rect id="SVGID_1_" width="44.39" height="44.588"/>
	</defs>
	<clipPath id="SVGID_2_">
		<use xlink:href="#SVGID_1_"  overflow="visible"/>
	</clipPath>
	<path clip-path="url(#SVGID_2_)" fill="#FFFFFF" d="M1.285,31.621c1.213-2.196,1.982-3.577,3.249-5.562
		c3.782-5.682,4.409-7.564,8.506-12.837c0.436-0.415,2.109-2.621,2.523-2.951c-2.403-0.202-5.153,0.755-5.979,1.067
		c-3.272,1.571-5.05,3.783-5.364,4.42c-0.43,0.728-0.638,1.772-0.31,2.408c0.207,0.43,0.727,1.044,1.885,1.044
		c-0.641,0.753-1.362,0.753-2.107,0.753c-1.247,0-1.888-0.753-2.212-1.468c-0.299-0.857-0.089-1.906,0.221-2.639
		c1.054-2.516,4.408-4.518,6.102-5.151c3.249-1.165,4.931-1.579,8.613-1.352c0.727-0.753,1.678-1.372,2.216-1.696
		c0.93-0.636,1.88-0.636,2.523-0.532c0.625,0.101,0.727,0.635,0.625,1.059c-0.106,0.313-0.332,0.517-0.625,0.842
		C21.032,8.6,20.612,7.981,19.77,8.287c-0.421,0.21-0.832,0.534-1.888,1.355c0.943,0.254,1.605,0.551,2.023,0.936
		c0.298,0.273,0.492,0.535,0.603,0.76c0.348,0.717,0.745,2.206-0.325,3.68c-0.52,0.63-1.784,2.512-5.572,3.148
		c0.952,0.637,2.63,1.576,1.903,4.419c-0.208,1.044-1.365,4.11-4.306,5.561c-0.934,0.434-2.314,0.639-3.679,0
		c-0.73-0.304-1.264-0.94-1.695-1.45l0.849-1.905c-0.088,0.327-0.418,0.84-0.316,1.151c0.432,0.754,1.8,1.03,2.745,1.076
		c0.659,0.031,1.251-0.154,1.772-0.529c1.938-1.389,3.819-5.406,2.727-6.746c-0.419-0.656-1.032-0.939-1.881-1.043
		c-0.727,0-1.441,0.094-2.108,0.635l1.262-2.212c-0.088,0.307,0.051,0.358,0.119,0.408c0.351,0.265,1.576,0.316,2.608,0
		c2.852-0.941,4.637-4.19,4.327-5.665c-0.101-0.352-0.418-1.059-1.886-1.469c-0.429,0.309-1.903,2.206-3.166,4.104
		c-1.781,2.622-3.666,5.549-5.255,8.82c-1.366,2.519-2.004,4.216-3.145,6.933L1.285,31.621z"/>
	<path clip-path="url(#SVGID_2_)" fill="none" stroke="#FFFFFF" stroke-width="0" stroke-miterlimit="3.864" d="M1.285,31.621
		c1.213-2.196,1.982-3.577,3.249-5.562c3.782-5.682,4.409-7.564,8.506-12.837c0.436-0.415,2.109-2.621,2.523-2.951
		c-2.403-0.202-5.153,0.755-5.979,1.067c-3.272,1.571-5.05,3.783-5.364,4.42c-0.43,0.728-0.638,1.772-0.31,2.408
		c0.207,0.43,0.727,1.044,1.885,1.044c-0.641,0.753-1.362,0.753-2.107,0.753c-1.247,0-1.888-0.753-2.212-1.468
		c-0.299-0.857-0.089-1.906,0.221-2.639c1.054-2.516,4.408-4.518,6.102-5.151c3.249-1.165,4.931-1.579,8.613-1.352
		c0.727-0.753,1.678-1.372,2.216-1.696c0.93-0.636,1.88-0.636,2.523-0.532c0.625,0.101,0.727,0.635,0.625,1.059
		c-0.106,0.313-0.332,0.517-0.625,0.842C21.032,8.6,20.612,7.981,19.77,8.287c-0.421,0.21-0.832,0.534-1.888,1.355
		c0.943,0.254,1.605,0.551,2.023,0.936c0.298,0.273,0.492,0.535,0.603,0.76c0.348,0.717,0.745,2.206-0.325,3.68
		c-0.52,0.63-1.784,2.512-5.572,3.148c0.952,0.637,2.63,1.576,1.903,4.419c-0.208,1.044-1.365,4.11-4.306,5.561
		c-0.934,0.434-2.314,0.639-3.679,0c-0.73-0.304-1.264-0.94-1.695-1.45l0.849-1.905c-0.088,0.327-0.418,0.84-0.316,1.151
		c0.432,0.754,1.8,1.03,2.745,1.076c0.659,0.031,1.251-0.154,1.772-0.529c1.938-1.389,3.819-5.406,2.727-6.746
		c-0.419-0.656-1.032-0.939-1.881-1.043c-0.727,0-1.441,0.094-2.108,0.635l1.262-2.212c-0.088,0.307,0.051,0.358,0.119,0.408
		c0.351,0.265,1.576,0.316,2.608,0c2.852-0.941,4.637-4.19,4.327-5.665c-0.101-0.352-0.418-1.059-1.886-1.469
		c-0.429,0.309-1.903,2.206-3.166,4.104c-1.781,2.622-3.666,5.549-5.255,8.82c-1.366,2.519-2.004,4.216-3.145,6.933L1.285,31.621z"
		/>
	<path clip-path="url(#SVGID_2_)" fill-rule="evenodd" clip-rule="evenodd" fill="#FFFFFF" d="M35.855,16.856
		c-0.118,1.366,1.148,3.005,4.192,2.782c1.37-0.099,2.854-0.58,4.342-0.994v1.27c-1.903,0.471-2.924,0.753-4.856,1.319
		c-3.029,0.903-4.202,1.25-7.265,2.292c-2.938,1.162-8.322,3.09-13.227,5.893c-4.552,2.602-6.972,4.359-11.034,7.668
		C4.718,39.762,2.944,41.392,0,44.442v-5.458c1.592-1.475,8.317-6.097,13.041-8.608c4.841-2.534,8.837-4.435,14.506-6.747
		c2.322-0.84,8.092-2.567,9.376-3.045c-0.87-0.206-1.284-0.228-1.899-0.722c-0.464-0.364-0.713-0.628-0.954-1.162
		c-0.936,0.939-1.37,1.264-1.988,1.778c-1.18,0.842-2.772,1.806-3.893,1.219c-0.48-0.248-0.62-0.616-0.849-1.113
		c-0.933,1.161-3.582,4.104-4.737,3.164c-0.208-0.118-0.399-0.756-0.399-1.162c-0.64,0.957-1.242,1.591-1.901,2.102
		c-1.002,0.791-2.142,0.55-2.524,0.21c-0.227-0.188-0.431-0.603-0.315-1.679c0.176-1.593,1.766-4.073,2.647-5.17
		c1.198-1.474,2.285-2.346,3.219-2.291c0.57,0.015,0.982,0.198,1.19,0.725l-0.646,1.313c0.048-0.309,0.021-0.519-0.116-0.571
		c-0.285-0.168-0.633-0.058-0.98,0.181c-0.279,0.197-0.583,0.45-0.833,0.72c-0.399,0.439-0.83,0.964-1.176,1.492
		c-0.717,1.096-1.105,2.265-0.674,2.762c0.254,0.332,0.882,0.146,1.471-0.362c0.279-0.238,0.456-0.402,0.796-0.9
		c0.734-1.085,1.382-2.529,1.513-3.322l0.668-1.38c0,0,0.278-0.455,0.482-0.868l1.697-0.223c-0.642,1.373-2.634,5.684-2.117,5.995
		c0.523,0.325,1.991-1.151,2.634-1.882c0.102-1.066,0.309-1.799,0.64-2.638c0.516-1.252,1.452-3.256,2.61-4.934
		c1.593-2.223,3.479-4.537,4.74-4.74c0.41-0.104,0.934,0,1.052,0.634c0,0.103,0.104,0.738-0.415,1.883
		c-0.433,0.959-1.28,2.432-1.898,3.376c-1.268,2-2.322,3.249-3.273,4.309c-0.31,0.311-0.761,0.806-1.466,1.475l0.324-1.68
		c1.577-1.266,2.82-3.149,4.201-5.479c0.316-0.617,1.04-2.001,0.626-2.29c-0.31-0.227-1.576,0.819-3.043,3.249
		c-0.744,1.146-1.887,3.782-1.784,4.52l-0.324,1.684c-0.053,0.801,0.171,1.449,1.482,1.196c0.935-0.156,1.559-0.565,3.257-2.472
		c0.311-1.674,0.618-2.638,1.262-3.987c0.637-1.576,1.466-2.958,1.987-3.796c1.017-1.545,1.729-2.144,2.523-2.827
		c0.538-0.478,2.092-1.27,2.747-0.738c0.295,0.223,0.211,0.96-0.03,1.697c-0.212,0.548-0.817,2.016-1.87,3.459
		c-0.83,1.146-1.87,2.447-2.838,3.455c-0.569,0.6-1.363,1.586-1.883,2.002l0.188-1.473c1.199-0.923,2.924-3.183,4.101-5.253
		c0.433-0.787,1.061-2.002,0.537-2.088c-0.747-0.324-2.522,2.29-3.251,3.563c-0.745,1.365-1.268,2.887-1.377,3.711L35.855,16.856z"
		/>
	<path clip-path="url(#SVGID_2_)" fill="none" stroke="#FFFFFF" stroke-width="0" stroke-miterlimit="3.864" d="M35.855,16.856
		c-0.118,1.366,1.148,3.005,4.192,2.782c1.37-0.099,2.854-0.58,4.342-0.994v1.27c-1.903,0.471-2.924,0.753-4.856,1.319
		c-3.029,0.903-4.202,1.25-7.265,2.292c-2.938,1.162-8.322,3.09-13.227,5.893c-4.552,2.602-6.972,4.359-11.034,7.668
		C4.718,39.762,2.944,41.392,0,44.442v-5.458c1.592-1.475,8.317-6.097,13.041-8.608c4.841-2.534,8.837-4.435,14.506-6.747
		c2.322-0.84,8.092-2.567,9.376-3.045c-0.87-0.206-1.284-0.228-1.899-0.722c-0.464-0.364-0.713-0.628-0.954-1.162
		c-0.936,0.939-1.37,1.264-1.988,1.778c-1.18,0.842-2.772,1.806-3.893,1.219c-0.48-0.248-0.62-0.616-0.849-1.113
		c-0.933,1.161-3.582,4.104-4.737,3.164c-0.208-0.118-0.399-0.756-0.399-1.162c-0.64,0.957-1.242,1.591-1.901,2.102
		c-1.002,0.791-2.142,0.55-2.524,0.21c-0.227-0.188-0.431-0.603-0.315-1.679c0.176-1.593,1.766-4.073,2.647-5.17
		c1.198-1.474,2.285-2.346,3.219-2.291c0.57,0.015,0.982,0.198,1.19,0.725l-0.646,1.313c0.048-0.309,0.021-0.519-0.116-0.571
		c-0.285-0.168-0.633-0.058-0.98,0.181c-0.279,0.197-0.583,0.45-0.833,0.72c-0.399,0.439-0.83,0.964-1.176,1.492
		c-0.717,1.096-1.105,2.265-0.674,2.762c0.254,0.332,0.882,0.146,1.471-0.362c0.279-0.238,0.456-0.402,0.796-0.9
		c0.734-1.085,1.382-2.529,1.513-3.322l0.668-1.38c0,0,0.278-0.455,0.482-0.868l1.697-0.223c-0.642,1.373-2.634,5.684-2.117,5.995
		c0.523,0.325,1.991-1.151,2.634-1.882c0.102-1.066,0.309-1.799,0.64-2.638c0.516-1.252,1.452-3.256,2.61-4.934
		c1.593-2.223,3.479-4.537,4.74-4.74c0.41-0.104,0.934,0,1.052,0.634c0,0.103,0.104,0.738-0.415,1.883
		c-0.433,0.959-1.28,2.432-1.898,3.376c-1.268,2-2.322,3.249-3.273,4.309c-0.31,0.311-0.761,0.806-1.466,1.475l0.324-1.68
		c1.577-1.266,2.82-3.149,4.201-5.479c0.316-0.617,1.04-2.001,0.626-2.29c-0.31-0.227-1.576,0.819-3.043,3.249
		c-0.744,1.146-1.887,3.782-1.784,4.52l-0.324,1.684c-0.053,0.801,0.171,1.449,1.482,1.196c0.935-0.156,1.559-0.565,3.257-2.472
		c0.311-1.674,0.618-2.638,1.262-3.987c0.637-1.576,1.466-2.958,1.987-3.796c1.017-1.545,1.729-2.144,2.523-2.827
		c0.538-0.478,2.092-1.27,2.747-0.738c0.295,0.223,0.211,0.96-0.03,1.697c-0.212,0.548-0.817,2.016-1.87,3.459
		c-0.83,1.146-1.87,2.447-2.838,3.455c-0.569,0.6-1.363,1.586-1.883,2.002l0.188-1.473c1.199-0.923,2.924-3.183,4.101-5.253
		c0.433-0.787,1.061-2.002,0.537-2.088c-0.747-0.324-2.522,2.29-3.251,3.563c-0.745,1.365-1.268,2.887-1.377,3.711L35.855,16.856z"
		/>
</g>
</svg>
