<?xml version="1.0" encoding="utf-8"?>
<!-- Generator: Adobe Illustrator 15.0.0, SVG Export Plug-In . SVG Version: 6.00 Build 0)  -->
<!DOCTYPE svg PUBLIC "-//W3C//DTD SVG 1.1//EN" "http://www.w3.org/Graphics/SVG/1.1/DTD/svg11.dtd">
<svg version="1.1" id="Layer_1" xmlns="http://www.w3.org/2000/svg" xmlns:xlink="http://www.w3.org/1999/xlink" x="0px" y="0px"
	 width="306px" height="234px" viewBox="0 0 306 234" enable-background="new 0 0 306 234" xml:space="preserve">
<g>
	<rect x="-45" y="-59" fill="none" width="395.196" height="352.415"/>
	<g>
		<g>
			<path fill="#4BAE44" d="M30.348,188.203v-8.057h5.754v8.057h4.732v4.668h-4.732v13.758c0,1.301,0.649,1.682,2.082,1.682
				c0.87,0,1.821-0.277,2.65-0.459v4.77C39.25,212.809,37.855,213,36.277,213c-4.261,0-5.929-2.152-5.929-5.621v-14.508h-3.349
				v-4.668H30.348z"/>
			<path fill="#4BAE44" d="M49.396,201.313c0.1,5.041,2.339,6.998,5.028,6.998c2.688,0,3.937-1.223,5.363-2.91l4.192,2.633
				C61.743,211.504,58.507,213,53.858,213c-6.271,0-10.205-4.92-10.205-12.635c0-7.73,3.934-12.639,10.463-12.639
				c6.328-0.043,9.863,5.348,9.863,11.186v2.4H49.396z M58.689,197.365c-0.091-3.367-1.857-5.326-4.645-5.326
				c-2.793,0-4.549,1.959-4.649,5.326H58.689z"/>
			<path fill="#4BAE44" d="M82.707,196.1c-0.937-2.076-1.948-3.701-4.757-3.701c-3.206,0-4.735,2.541-4.735,7.967
				c0,5.412,1.529,7.945,4.938,7.945c2.511,0,3.945-1.746,5.101-3.865l4.372,2.473c-2.327,4.34-5.252,6.117-9.676,6.082
				c-6.53,0-10.461-4.92-10.461-12.635c0-7.73,3.931-12.639,10.461-12.639c4.572,0,8.177,2.43,9.538,6.508L82.707,196.1z"/>
			<path fill="#4BAE44" d="M91.891,212.531v-33.787h5.751v12.059c1.77-1.479,4.126-3.076,6.949-3.076
				c4.838,0,7.167,3.184,7.167,8.141v16.664h-5.755V196.73c0-3.289-1.027-4.332-2.969-4.332c-2.496,0-4.407,1.453-5.392,2.57v17.563
				H91.891z"/>
			<path fill="#4BAE44" d="M117.689,212.531v-24.328h5.297v2.6c2.143-1.479,4.591-3.076,7.435-3.076
				c4.824,0,7.139,3.184,7.139,8.141v16.664h-5.745V196.73c0-3.289-1.031-4.332-2.985-4.332c-2.5,0-4.413,1.453-5.369,2.57v17.563
				H117.689z"/>
			<path fill="#4BAE44" d="M152.128,187.727c6.561,0,10.5,4.908,10.5,12.639c0,7.715-3.939,12.635-10.5,12.635
				c-6.551,0-10.478-4.92-10.478-12.635C141.65,192.635,145.578,187.727,152.128,187.727z M152.128,192.398
				c-3.201,0-4.726,2.541-4.726,7.967c0,5.412,1.524,7.945,4.726,7.945c3.22,0,4.737-2.533,4.737-7.945
				C156.865,194.939,155.349,192.398,152.128,192.398z"/>
			<path fill="#4BAE44" d="M167.328,212.531v-33.787h5.74v25.303v8.484H167.328z"/>
			<path fill="#4BAE44" d="M188.246,187.727c6.553,0,10.496,4.908,10.496,12.639c0,7.715-3.943,12.635-10.496,12.635
				c-6.551,0-10.482-4.92-10.482-12.635C177.764,192.635,181.695,187.727,188.246,187.727z M188.246,192.398
				c-3.199,0-4.73,2.541-4.73,7.967c0,5.412,1.531,7.945,4.73,7.945c3.217,0,4.748-2.533,4.748-7.945
				C192.994,194.939,191.463,192.398,188.246,192.398z"/>
			<path fill="#4BAE44" d="M222.498,191.654c-1.336,0-2.814,0-3.717,0.564c0.758,1.027,1.311,2.43,1.311,4.316
				c0,4.568-3.08,7.852-9.105,7.852c-2.494,0-4.49,0.09-4.49,1.488c0,3.93,15.875-1.398,15.875,8.334
				c0,3.451-3.494,7.205-11.193,7.205c-6.498,0-10.762-1.959-10.762-5.809c0-3.035,2.27-4.482,4.338-4.482v-0.105
				c-1.1-0.695-3.557-1.301-3.557-3.93c0-2.336,2.686-4.115,3.75-4.441c-1.986-1.627-3.561-3.486-3.561-6.447
				c0-4.264,3.23-8.473,9.518-8.473c2.033,0,4.455,0.855,5.926,2.156c1.131-1.496,2.926-2.256,5.668-2.156V191.654z
				 M205.691,214.869c0,1.848,1.592,2.701,6.418,2.701c3.705,0,4.979-1.861,4.979-2.701c0-1.131-1.729-2.814-7.309-2.814
				C206.639,212.055,205.691,213.828,205.691,214.869z M210.848,192.039c-2.453,0-4.182,1.779-4.182,4.018
				c0,2.246,1.729,4.035,4.182,4.035c2.184,0,3.936-1.789,3.936-4.035C214.783,193.818,213.031,192.039,210.848,192.039z"/>
			<path fill="#4BAE44" d="M226.637,183.709v-5.439h5.74v2.444v2.995H226.637z M232.377,205.38v7.151h-5.74v-24.328h5.74V205.38z"/>
			<path fill="#4BAE44" d="M242.83,201.313c0.086,5.041,2.32,6.998,5.014,6.998c2.697,0,3.934-1.223,5.398-2.91l4.168,2.633
				c-2.24,3.471-5.48,4.967-10.131,4.967c-6.264,0-10.207-4.92-10.207-12.635c0-7.73,3.943-12.639,10.486-12.639
				c6.328-0.043,9.852,5.348,9.852,11.186v2.4H242.83z M252.117,197.365c-0.115-3.367-1.865-5.326-4.65-5.326
				c-2.777,0-4.551,1.959-4.637,5.326H252.117z"/>
			<path fill="#4BAE44" d="M273.879,194.602c-1.15-1.254-2.701-2.563-4.508-2.563c-2.236,0-3.234,0.932-3.234,2.381
				c0,4.17,12.061,2.369,12.061,11.279c0,5.043-3.816,7.301-8.879,7.301c-3.84,0-6.996-1.742-9.135-4.92l3.857-2.904
				c1.346,1.873,3.145,3.504,5.623,3.504c2.045,0,3.428-1.119,3.428-2.766c0-4.143-12.068-2.641-12.068-11.127
				c0-4.529,3.807-7.061,7.977-7.061c3.211,0,6.4,1.209,8.508,3.703L273.879,194.602z"/>
		</g>
		<g>
			<path fill="#4BAE44" d="M263.893,154.316c-4.256,0-7.199-2.99-7.199-7.383s2.992-7.434,7.199-7.434
				c4.254,0,7.197,2.988,7.197,7.434C271.09,151.326,268.098,154.316,263.893,154.316z M263.893,140.387
				c-3.41,0-6.172,2.338-6.172,6.547c0,4.166,2.762,6.498,6.172,6.498c3.453,0,6.221-2.332,6.221-6.498
				C270.113,142.725,267.303,140.387,263.893,140.387z M266.043,150.861l-2.479-3.506h-0.797v3.363h-1.398v-8.137h2.477
				c1.727,0,2.898,0.846,2.898,2.389c0,1.17-0.652,1.918-1.684,2.242l2.34,3.32L266.043,150.861z M263.846,143.848h-1.078v2.432
				h1.035c0.932,0,1.492-0.42,1.492-1.213C265.295,144.27,264.779,143.848,263.846,143.848z"/>
			<g>
				<g>
					<g>
						<path fill="#4BAE44" d="M246.843,133.549V61.454c0-17.523-3.305-27.256-12.68-35.818c-8.91-8.135-23.445-12.635-43.117-12.635
							c-18.98,0-35.063,4.51-46.631,13.145c10.373,8.309,17.256,20.523,18.6,36.555c0-13.639,9.352-19.225,23.361-19.225
							c15.686,0,20.24,10.951,20.377,20.139l0.113,4.379c-43.377,2.131-84.238,10.196-83.449,49.868
							c0.553,27.805,25.719,39.16,42.994,39.141c20.09-0.023,31.332-5.379,42.365-19.082c0.17,5.789,0.904,11.918,1.906,16.352
							h38.883C247.39,147.455,246.843,140.635,246.843,133.549z M201.407,119.334c-4.637,7.086-11.994,11.453-20.184,11.453
							c-11.176,0-20.498-5.082-20.498-17.246c0-17.871,26.143-24.227,46.141-25.379v5.289
							C206.866,105.057,206.667,111.322,201.407,119.334z"/>
					</g>
				</g>
				<g>
					<path fill="#0084CB" d="M123.417,117.861c-0.061-3.039,0.125-5.895,0.535-8.574c-1.814,10.035-9.835,15.016-19.96,15.016
						c-20.203,0-25.854-15.191-25.854-41.219c0-25.646,6.082-39.542,25.752-39.542c12.216,0,21.054,6.609,21.054,19.156h38.07
						c-2.756-32.877-28.805-49.697-60.485-49.697c-43.643,0-69.277,30.814-69.277,73.364c0,40.902,24.816,70.637,66.818,70.637
						c12.236,0,26.103-2.969,37.267-10.145C129.476,140.529,123.679,131.045,123.417,117.861z"/>
				</g>
			</g>
		</g>
	</g>
</g>
</svg>
