<svg version="1.1" id="logo" xmlns="http://www.w3.org/2000/svg" xmlns:xlink="http://www.w3.org/1999/xlink" x="0px" y="0px" width="273.881px" height="152.653px" viewBox="0 0 273.881 152.653" enable-background="new 0 0 273.881 152.653" xml:space="preserve">
	<g>
		<g id="cloud">
			<path fill="#3A95D1" d="M139.658,107.838l-49.23,0.009v-0.009c-16.834,0-30.479-13.646-30.479-30.479     c0-11.249,6.156-20.946,15.221-26.23c-0.689-2.077-1.154-4.267-1.154-6.583c0-11.647,9.449-21.1,21.102-21.1     c2.227,0,4.328,0.441,6.344,1.079C108.162,10.072,122.688,0,139.658,0V107.838z"/>
			<rect x="143.26" y="0.098" fill="#3E9AD5" width="14.82" height="14.82"/>
			<rect x="161.785" y="0.098" fill="#47A7DD" width="14.818" height="14.82"/>
			<rect x="143.26" y="18.622" fill="#3E9AD5" width="14.82" height="14.82"/>
			<rect x="161.785" y="18.622" fill="#47A7DD" width="14.818" height="14.82"/>
			<rect x="180.309" y="18.622" fill="#57B3E5" width="14.82" height="14.82"/>
			<rect x="143.26" y="37.147" fill="#3E9AD5" width="14.82" height="14.819"/>
			<rect x="161.785" y="37.147" fill="#47A7DD" width="14.818" height="14.819"/>
			<rect x="180.309" y="37.147" fill="#57B3E5" width="14.82" height="14.819"/>
			<rect x="143.26" y="55.671" fill="#3E9AD5" width="14.82" height="14.819"/>
			<rect x="161.785" y="55.671" fill="#47A7DD" width="14.818" height="14.819"/>
			<rect x="180.309" y="55.671" fill="#57B3E5" width="14.82" height="14.819"/>
			<rect x="198.834" y="55.671" fill="#6BC3EE" width="14.818" height="14.819"/>
			<rect x="143.26" y="74.196" fill="#3E9AD5" width="14.82" height="14.819"/>
			<rect x="161.785" y="74.196" fill="#47A7DD" width="14.818" height="14.819"/>
			<rect x="180.309" y="74.196" fill="#57B3E5" width="14.82" height="14.819"/>
			<rect x="198.834" y="74.196" fill="#6BC3EE" width="14.818" height="14.819"/>
			<rect x="143.26" y="92.72" fill="#3E9AD5" width="14.82" height="14.82"/>
			<rect x="161.785" y="92.72" fill="#47A7DD" width="14.818" height="14.82"/>
			<rect x="180.309" y="92.72" fill="#57B3E5" width="14.82" height="14.82"/>
		</g>
		<g id="text-container">
			<path fill="#0D63A0" d="M12.928,152.653C5.742,152.653,0,147.805,0,140.206c0-7.117,5.809-12.447,12.928-12.447     c2.373,0,4.574,0.688,6.465,1.857l-1.547,2.544c-1.445-0.894-3.129-1.444-4.918-1.444c-5.434,0-9.422,3.988-9.422,9.49     c0,5.846,3.92,9.49,9.422,9.49c1.893,0,3.645-0.551,5.33-1.686l1.752,2.442C17.947,151.862,15.506,152.653,12.928,152.653z"/>
			<path fill="#0D63A0" d="M37.854,143.645c0,5.021-3.748,9.009-8.768,9.009s-8.768-3.988-8.768-9.009s3.748-9.009,8.768-9.009     S37.854,138.624,37.854,143.645z M29.086,137.524c-3.232,0-5.572,2.784-5.572,6.12c0,3.335,2.34,6.12,5.572,6.12     c3.23,0,5.57-2.785,5.57-6.12C34.656,140.309,32.316,137.524,29.086,137.524z"/>
			<path fill="#0D63A0" d="M43.594,135.049v2.819c1.271-2.029,3.301-3.232,5.604-3.232c2.408,0,3.99,0.824,4.986,2.166     c1.17,1.582,1.547,3.885,1.547,6.499v8.939h-3.129v-8.596c0-1.685-0.068-3.508-0.893-4.745c-0.551-0.825-1.48-1.375-2.992-1.375     c-1.994,0-3.885,1.375-5.123,3.3v11.416h-3.129v-17.191H43.594z"/>
			<path fill="#0D63A0" d="M62.879,137.798v7.771c0,0.447,0,0.826,0.035,1.341c0.104,1.823,0.688,2.889,2.406,2.889     c0.689,0,1.377-0.206,1.926-0.481l0.861,2.51c-0.861,0.447-2.064,0.758-3.199,0.758c-2.406,0-3.885-1.066-4.607-2.683     c-0.412-0.964-0.551-2.235-0.551-3.575v-8.529h-2.303v-2.749h2.303v-4.126h3.129v4.126h4.814v2.749H62.879z"/>
			<path fill="#0D63A0" d="M79.967,152.24v-1.821c-1.41,1.58-2.957,2.234-5.158,2.234c-3.162,0-6.086-1.547-6.086-5.227     c0-4.367,3.887-5.708,7.668-5.708c0.859,0,1.961,0.069,3.438,0.378v-0.618c0-2.614-1.236-4.126-4.057-4.126     c-1.994,0-4.092,0.756-5.467,1.512l-0.928-2.613c1.787-0.858,4.4-1.615,6.773-1.615c4.984,0,6.809,2.717,6.809,7.152v10.452     H79.967z M79.828,144.435c-1.271-0.274-2.232-0.344-3.094-0.344c-2.131,0-4.951,0.516-4.951,3.096     c0,2.096,1.582,2.854,3.404,2.854c1.754,0,3.266-0.895,4.641-2.063V144.435z"/>
			<path fill="#0D63A0" d="M86.807,131.679v-3.508h3.129v3.508H86.807z M86.807,152.24v-17.191h3.129v17.191H86.807z"/>
			<path fill="#0D63A0" d="M97.121,135.049v2.819c1.271-2.029,3.301-3.232,5.604-3.232c2.406,0,3.99,0.824,4.986,2.166     c1.168,1.582,1.547,3.885,1.547,6.499v8.939h-3.129v-8.596c0-1.685-0.068-3.508-0.893-4.745     c-0.551-0.825-1.479-1.375-2.992-1.375c-1.994,0-3.887,1.375-5.123,3.3v11.416H93.99v-17.191H97.121z"/>
			<path fill="#0D63A0" d="M114.791,144.435c0.207,2.958,2.236,5.536,5.537,5.536c2.268,0,4.092-0.825,5.123-2.784l2.27,1.443     c-1.721,2.751-4.059,4.023-7.531,4.023c-5.467,0-8.527-3.988-8.527-9.009c0-5.124,3.748-9.009,8.527-9.009     c4.539,0,7.84,3.404,7.84,8.012c0,0.584-0.07,1.341-0.139,1.787H114.791z M115.031,141.925h9.768     c-0.139-2.441-1.996-4.607-4.576-4.607C117.439,137.317,115.65,139.347,115.031,141.925z"/>
			<path fill="#0D63A0" d="M133.77,137.902c1.031-1.856,2.578-3.267,4.436-3.267c0.723,0,1.203,0.068,1.857,0.207l-0.586,3.334     c-0.516-0.24-0.963-0.344-1.615-0.344c-1.754,0-3.025,1.031-4.092,2.889v11.519h-3.131v-17.191h3.131V137.902z"/>
		</g>
		<g id="text-solutions">
			<path fill="#3A95D1" d="M151.561,130.714c-2.545,0-4.299,1.204-4.299,3.336c0,2.098,2.373,2.889,5.02,3.816     c3.404,1.204,7.291,2.785,7.291,7.29c0,5.398-4.779,7.496-8.459,7.496c-3.508,0-6.154-1.101-8.699-3.61l2.338-2.201     c2.27,2.235,3.988,2.854,6.396,2.854c2.475,0,4.916-1.203,4.916-4.16c0-2.647-2.578-3.576-5.363-4.539     c-3.268-1.135-6.773-2.75-6.773-6.602c0-4.539,3.334-6.636,7.254-6.636c2.889,0,5.295,0.825,7.461,2.476l-2.027,2.406     C155.48,131.574,153.451,130.714,151.561,130.714z"/>
			<path fill="#3A95D1" d="M179.066,143.644c0,5.02-3.75,9.009-8.77,9.009s-8.768-3.989-8.768-9.009     c0-5.021,3.748-9.009,8.768-9.009S179.066,138.622,179.066,143.644z M170.297,137.522c-3.232,0-5.57,2.785-5.57,6.121     c0,3.335,2.338,6.121,5.57,6.121s5.57-2.786,5.57-6.121C175.867,140.308,173.529,137.522,170.297,137.522z"/>
			<path fill="#3A95D1" d="M184.803,152.239h-3.127V126.45h3.127V152.239z"/>
			<path fill="#3A95D1" d="M200.791,149.421c-1.271,2.027-3.301,3.231-5.604,3.231c-2.408,0-3.988-0.825-4.986-2.167     c-1.17-1.581-1.547-3.885-1.547-6.498v-8.939h3.129v8.596c0,1.686,0.068,3.507,0.895,4.745c0.549,0.825,1.479,1.376,2.99,1.376     c1.996,0,3.887-1.376,5.123-3.303v-11.414h3.129v17.191h-3.129V149.421z"/>
			<path fill="#3A95D1" d="M211.275,137.798v7.771c0,0.448,0,0.826,0.035,1.341c0.102,1.823,0.688,2.889,2.406,2.889     c0.688,0,1.375-0.205,1.926-0.481l0.859,2.511c-0.859,0.447-2.063,0.756-3.197,0.756c-2.406,0-3.887-1.066-4.609-2.682     c-0.412-0.963-0.549-2.234-0.549-3.576v-8.527h-2.303v-2.75h2.303v-4.127h3.129v4.127h4.814v2.75H211.275z"/>
			<path fill="#3A95D1" d="M218.152,131.677v-3.507h3.127v3.507H218.152z M218.152,152.239v-17.191h3.127v17.191H218.152z"/>
			<path fill="#3A95D1" d="M241.428,143.644c0,5.02-3.748,9.009-8.768,9.009s-8.768-3.989-8.768-9.009     c0-5.021,3.748-9.009,8.768-9.009S241.428,138.622,241.428,143.644z M232.66,137.522c-3.232,0-5.57,2.785-5.57,6.121     c0,3.335,2.338,6.121,5.57,6.121s5.57-2.786,5.57-6.121C238.23,140.308,235.893,137.522,232.66,137.522z"/>
			<path fill="#3A95D1" d="M247.168,135.048v2.818c1.271-2.027,3.301-3.231,5.604-3.231c2.406,0,3.988,0.825,4.986,2.165     c1.17,1.583,1.547,3.887,1.547,6.5v8.939h-3.129v-8.596c0-1.686-0.068-3.508-0.893-4.745c-0.551-0.825-1.48-1.376-2.992-1.376     c-1.994,0-3.887,1.376-5.123,3.301v11.416h-3.129v-17.191H247.168z"/>
			<path fill="#3A95D1" d="M271.543,138.521c-0.791-0.688-2.234-1.272-3.404-1.272c-1.582,0-2.578,0.929-2.578,2.269     c0,1.307,1.65,1.961,3.301,2.614c2.234,0.859,5.02,2.132,5.02,5.122c0,3.852-2.992,5.399-6.223,5.399     c-2.34,0-4.574-0.929-5.916-2.683l2.203-1.753c1.133,1.204,2.371,1.822,3.746,1.822c1.686,0,3.096-0.86,3.096-2.647     c0-1.341-1.582-1.961-3.303-2.648c-2.268-0.893-4.916-1.891-4.916-4.984c0-3.475,2.682-5.124,5.535-5.124     c1.961,0,3.922,0.653,5.297,1.892L271.543,138.521z"/>
		</g>
	</g>
</svg>