<svg id="Livello_1" data-name="Livello 1" xmlns="http://www.w3.org/2000/svg" viewBox="0 0 375.2 127.2"><defs><linearGradient id="Sfumatura_senza_nome_240" x1="50.94" y1="5.24" x2="50.94" y2="100.89" gradientUnits="userSpaceOnUse"><stop offset=".16" stop-color="#0081be"/><stop offset=".27" stop-color="#2b8cc1"/><stop offset=".4" stop-color="#639bc5"/><stop offset=".59" stop-color="#88b0d1"/><stop offset=".64" stop-color="#8cb2d2"/><stop offset=".7" stop-color="#99b8d5"/><stop offset=".77" stop-color="#afc3db"/><stop offset=".83" stop-color="#cdd2e2"/><stop offset=".83" stop-color="#ced2e2"/><stop offset=".91" stop-color="#e2e4ec"/><stop offset="1" stop-color="#f6f6f6"/></linearGradient><linearGradient id="Sfumatura_senza_nome_216" x1="18.62" y1="77.66" x2="97.17" y2="77.66" gradientUnits="userSpaceOnUse"><stop offset="0" stop-color="#0078b3"/><stop offset=".36" stop-color="#468dc4"/><stop offset=".42" stop-color="#5695c9"/><stop offset=".58" stop-color="#7fa9d4"/><stop offset=".66" stop-color="#8fb1d9"/><stop offset=".69" stop-color="#99b7dc"/><stop offset=".82" stop-color="#bfcfe9"/><stop offset=".93" stop-color="#d6ddf0"/><stop offset="1" stop-color="#dee2f3"/></linearGradient><style>.cls-1{fill:#fff}</style></defs><path class="cls-1" d="M128.44 39.84H145a47 47 0 0111.42 1.35 26 26 0 019.44 4.35 21.18 21.18 0 016.39 7.81A26.15 26.15 0 01174.61 65a23.85 23.85 0 01-2.29 10.72 23.14 23.14 0 01-6.19 7.77 27.24 27.24 0 01-9 4.77 34.67 34.67 0 01-10.68 1.63h-18zm11 39.88h5.73a30.8 30.8 0 007.11-.78 15.22 15.22 0 005.72-2.58 12.37 12.37 0 003.78-4.74 16.73 16.73 0 001.38-7.17 14 14 0 00-1.38-6.4 12.91 12.91 0 00-3.71-4.49 16.25 16.25 0 00-5.48-2.65A24.31 24.31 0 00146 50h-6.51zM209.69 84a17 17 0 01-6.44 5 19.25 19.25 0 01-8.06 1.77 21.65 21.65 0 01-7.46-1.27 18 18 0 01-6.08-3.64 17.08 17.08 0 01-4.06-5.7 19.22 19.22 0 010-14.84 17 17 0 014.06-5.69 18 18 0 016.08-3.63 21.89 21.89 0 017.46-1.27 17.1 17.1 0 016.68 1.27 13.88 13.88 0 015.13 3.61 16.49 16.49 0 013.22 5.69 23 23 0 011.13 7.42V76h-24.6a8.38 8.38 0 002.76 4.85 7.78 7.78 0 005.23 1.8 8 8 0 004.42-1.17 11.75 11.75 0 003.14-3zm-9-15.13a6.18 6.18 0 00-1.77-4.59 6.28 6.28 0 00-4.74-1.91 8.1 8.1 0 00-3.11.56 8 8 0 00-2.3 1.45 6.6 6.6 0 00-2.08 4.49zm50.02 21.03H241v-4.52h-.14a11.93 11.93 0 01-1.66 1.87 12.7 12.7 0 01-2.46 1.75 14.37 14.37 0 01-3 1.27 11.89 11.89 0 01-3.42.5 17.72 17.72 0 01-6.93-1.31 15.44 15.44 0 01-5.39-3.69 16.33 16.33 0 01-3.43-5.63 20.42 20.42 0 01-1.2-7.14 21.66 21.66 0 011.09-6.89 19 19 0 013.11-5.83 15.38 15.38 0 014.92-4.07 14 14 0 016.57-1.52 18.07 18.07 0 016.19 1 9.84 9.84 0 014.7 3.5h.14V36.45h10.61zM241 72.72a8.86 8.86 0 00-2.23-6.29 9.32 9.32 0 00-12.51 0 8.91 8.91 0 00-2.26 6.29 8.91 8.91 0 002.21 6.28 9.32 9.32 0 0012.51 0 8.86 8.86 0 002.28-6.28zm35.77 12.87h-.14a10 10 0 01-4.71 4 16.44 16.44 0 01-10.81.53 11.63 11.63 0 01-3.93-2 9.66 9.66 0 01-2.68-3.32 10 10 0 01-1-4.6 10.58 10.58 0 011.09-5 9.88 9.88 0 013-3.39 15.09 15.09 0 014.28-2.09 32.15 32.15 0 015-1.09 44.85 44.85 0 015.16-.42c1.72 0 3.32-.08 4.78-.08a5.51 5.51 0 00-2-4.49A7.29 7.29 0 00270 61.9a10.37 10.37 0 00-4.77 1.1 13 13 0 00-3.86 3l-5.65-5.79a19.46 19.46 0 016.93-4.14 24.73 24.73 0 018.2-1.38 21.37 21.37 0 017.67 1.17 11.18 11.18 0 014.81 3.43 13.24 13.24 0 012.51 5.55 36.5 36.5 0 01.7 7.6V89.9h-9.75zm-2.62-10.75c-.8 0-1.8 0-3 .11a15.18 15.18 0 00-3.47.6 7.71 7.71 0 00-2.83 1.45 3.44 3.44 0 00-1.16 2.76 3 3 0 001.62 2.83 6.87 6.87 0 003.4.92 10.41 10.41 0 003-.43 8.75 8.75 0 002.58-1.2 5.56 5.56 0 002.48-4.81v-2.23zm16.4-38.39h10.61V89.9h-10.61zm47.2 53.45h-10.18v-4.66h-.14a11.81 11.81 0 01-1.45 2 9.46 9.46 0 01-2.15 1.76 12.58 12.58 0 01-2.9 1.27 12.16 12.16 0 01-3.54.5 14.75 14.75 0 01-6.54-1.24 9.36 9.36 0 01-3.85-3.45 13.47 13.47 0 01-1.84-5.16 43 43 0 01-.45-6.43V55.54h10.6v16.83c0 1 0 2 .11 3.07a9.86 9.86 0 00.63 2.94 5.18 5.18 0 001.63 2.19 5.09 5.09 0 003.15.85 6.5 6.5 0 003.32-.75 5 5 0 001.94-2 8.16 8.16 0 00.89-2.79 24.21 24.21 0 00.21-3.25V55.54h10.6zm24.89-24.25a7.5 7.5 0 00-6.15-2.9 5.72 5.72 0 00-2.62.64 2.24 2.24 0 00-1.27 2.19 2 2 0 001.31 1.87 16.9 16.9 0 003.32 1.06l4.32 1a16.67 16.67 0 014.31 1.66 9.79 9.79 0 013.32 3.08 9.21 9.21 0 011.31 5.2 9.69 9.69 0 01-1.49 5.47 11.17 11.17 0 01-3.71 3.46 16 16 0 01-5.09 1.84 30.64 30.64 0 01-5.59.53 26.77 26.77 0 01-7.28-1 13.49 13.49 0 01-6.22-3.64l6.43-7.14a10.55 10.55 0 003.29 2.79 8.81 8.81 0 004.21 1 9.92 9.92 0 003.32-.53 2 2 0 001.48-2 2.15 2.15 0 00-1.3-2 14.48 14.48 0 00-3.33-1.13l-4.31-1a17.51 17.51 0 01-4.31-1.59 8.46 8.46 0 01-4.63-8.2 10.57 10.57 0 011.23-5.24 10.84 10.84 0 013.26-3.6 14.09 14.09 0 014.63-2.09 21.57 21.57 0 015.3-.67 24.9 24.9 0 016.86 1 12.74 12.74 0 015.87 3.54z"/><path d="M86.49 74l-54 26.92V87.14l47.44-23.28A7.53 7.53 0 0080 50.38l-75.31-38 13.8-7.1L86.56 39.5a19.28 19.28 0 01-.07 34.5z" fill="url(#Sfumatura_senza_nome_240)"/><path class="cls-1" d="M80 50.39l-75.31-38v102.37L18.62 122V33.35l57.88 28.8a4.25 4.25 0 012.39 2.21l1-.51A7.52 7.52 0 0080 50.39z"/><path d="M97.15 57.12A19 19 0 0186.49 74l-54 26.92V40.26l-13.87-6.91V122l68-34.09a19.1 19.1 0 0010.55-17.12V57.07z" fill="url(#Sfumatura_senza_nome_216)"/></svg>