<?xml version="1.0" encoding="utf-8"?>
<!-- Generator: Adobe Illustrator 16.0.0, SVG Export Plug-In . SVG Version: 6.00 Build 0)  -->
<!DOCTYPE svg PUBLIC "-//W3C//DTD SVG 1.1//EN" "http://www.w3.org/Graphics/SVG/1.1/DTD/svg11.dtd">
<svg version="1.1" id="Layer_1" xmlns="http://www.w3.org/2000/svg" xmlns:xlink="http://www.w3.org/1999/xlink" x="0px" y="0px"
	 width="650px" height="580px" viewBox="0 0 650 580" enable-background="new 0 0 650 580" xml:space="preserve">
<rect y="14.632" display="none" fill-rule="evenodd" clip-rule="evenodd" fill="#E7E7E7" width="792" height="612"/>
<g>
	<path id="docker_4_" fill-rule="evenodd" clip-rule="evenodd" fill="#394D54" d="M441.469,463.322
		c10.738-9.207,21.479-18.42,32.186-27.664c3.658-3.156,7.672-6.432,11.303-9.75c-2.914-3.67-7.779-6.316-11.914-7.895
		c-8.344-3.18-16.574-2.111-24.227,2.307c-10.02,5.783-14.285,14.996-13.91,26.459c0.146,4.514,1.361,8.863,3.758,12.705
		C439.508,460.838,440.451,462.109,441.469,463.322 M453.895,472.049c5.266,1.838,11.27,1.576,16.672,0.635
		c2.762-1.174,9.828-4.256,12.428-3.805l0.406,0.068l0.373,0.184c1.586,0.77,3.102,1.857,3.91,3.471
		c1.895,3.787,0.984,7.592-2.734,9.74l-1.238,0.715c-13.725,7.922-28.322,6.824-42.002-0.574
		c-6.541-3.535-11.545-8.785-15.236-15.184l-0.863-1.496c-8.811-15.258-7.621-31.309,2.314-45.818
		c3.432-5.016,7.914-8.891,13.156-11.92l1.982-1.145c12.926-7.461,26.777-6.951,40.053-0.402c7.137,3.521,12.92,8.771,16.904,15.674
		l0.717,1.242c2.895,5.016-0.855,9.387-4.727,12.373c-4.492,3.467-9.027,7.637-13.334,11.354
		C473.076,455.447,463.49,463.754,453.895,472.049z M556.73,402.635h1.436c4.34,0,7.236,2.924,7.236,7.238
		c0,5.99-5.727,7.523-10.682,7.523c-6.498,0-12.701,3.934-17.18,8.346c-5.586,5.506-8.031,12.559-8.031,20.311v35.027
		c0,4.016-2.506,7.238-6.666,7.238h-1.141c-4.158,0-6.664-3.223-6.664-7.238v-37.037c0-14.223,6.924-25.832,18.465-33.975
		C540.398,405.203,548.291,402.635,556.73,402.635z M376.402,427.492c5.619-5.627,11.26-11.244,16.963-16.779
		c1.59-1.543,7.607-8.078,9.977-8.078h2.592l0.295,0.061c3.301,0.686,5.773,2.775,5.773,6.322v1.432c0,2.42-2.834,5.23-4.396,6.887
		c-3.324,3.523-6.824,6.932-10.227,10.383L379.9,445.463c7.525,7.543,15.045,15.094,22.51,22.695
		c2.064,2.102,4.131,4.207,6.164,6.34c0.719,0.756,1.779,1.697,2.383,2.746c0.646,0.98,1.045,2.088,1.045,3.27v1.496l-0.084,0.344
		c-0.812,3.301-2.908,5.965-6.566,5.965h-1.15c-2.395,0-5.098-2.709-6.738-4.256c-3.377-3.186-6.641-6.535-9.953-9.789
		l-11.107-10.904v17.428c0,4.014-2.514,7.24-6.664,7.24h-1.141c-4.154,0-6.664-3.227-6.664-7.24V382.59
		c0-4.016,2.512-7.227,6.664-7.227h1.141c4.15,0,6.664,3.211,6.664,7.227V427.492z M329.473,417.695
		c-2.184-1.023-6.273-1.363-8.635-1.453c-12.088-0.455-20.834,6.352-25.965,17.016c-1.771,3.678-2.58,7.572-2.58,11.643
		c0,12.393,6.506,21.068,17.568,26.357c4.041,1.932,9.258,2.299,13.674,2.299c3.885,0,9.373-2.381,12.82-4.018l0.598-0.283h2.674
		l0.295,0.061c3.291,0.684,5.775,2.77,5.775,6.311v1.432c0,8.809-16.1,10.826-22.242,11.254
		c-21.678,1.502-37.891-10.404-44.072-31.082c-1.074-3.59-1.557-7.156-1.557-10.898v-2.863c0-15.689,7.785-28.117,21.242-36.111
		c6.258-3.717,13.178-5.582,20.447-5.582h2.867c7.711,0,14.814,2.189,21.182,6.539l0.523,0.361l0.33,0.545
		c0.688,1.141,1.279,2.457,1.279,3.814v1.432c0,3.693-2.764,5.68-6.1,6.322l-0.275,0.049h-0.855
		C336.307,420.838,331.4,418.602,329.473,417.695z M197.543,445.193c0,10.998,5.398,19.088,14.688,24.775
		c4.361,2.672,9.164,3.881,14.262,3.881c10.867,0,18.898-5.51,24.49-14.682c2.666-4.373,3.871-9.176,3.871-14.268
		c0-10.227-4.926-18.039-13.346-23.701c-4.615-3.105-9.752-4.66-15.309-4.66c-12.121,0-20.844,6.123-26.078,17.002
		C198.35,437.219,197.543,441.125,197.543,445.193z M224.768,402.061h2.006c16.764,0,29.512,8.133,37.592,22.766
		c3.23,5.854,4.959,12.242,4.959,18.936v2.867c0,15.684-7.734,28.182-21.258,36.117c-6.262,3.672-13.178,5.572-20.434,5.572h-2.865
		c-15.688,0-28.154-7.756-36.115-21.25c-3.695-6.266-5.576-13.174-5.576-20.439v-2.867c0-15.691,7.783-28.123,21.242-36.123
		C210.576,403.92,217.496,402.061,224.768,402.061z M102.795,445.193c0,11.33,5.492,19.848,15.42,25.279
		c4.014,2.197,8.373,3.377,12.953,3.377c11.121,0,19.369-5.246,25.059-14.67c2.646-4.385,3.879-9.18,3.879-14.279
		c0-9.822-4.65-17.486-12.564-23.18c-4.799-3.451-10.201-5.182-16.092-5.182c-12.121,0-20.844,6.123-26.08,17.002
		C103.602,437.219,102.795,441.125,102.795,445.193z M160.105,412.861v-30.553c0-4.012,2.51-7.238,6.664-7.238h1.152
		c4.154,0,6.652,3.229,6.652,7.238v64.32c0,15.686-7.75,28.164-21.252,36.115c-6.262,3.684-13.18,5.574-20.438,5.574h-2.869
		c-15.688,0-28.152-7.756-36.115-21.25c-3.695-6.266-5.572-13.174-5.572-20.439v-2.867c0-15.689,7.754-28.162,21.246-36.127
		c6.266-3.699,13.174-5.574,20.441-5.574h2.869C143.502,402.061,152.51,406.176,160.105,412.861z"/>
	<path id="outline_7_" fill-rule="evenodd" clip-rule="evenodd" fill="#394D54" d="M363.387,173.391h42.695v43.646h21.588
		c9.969,0,20.223-1.776,29.664-4.976c4.639-1.572,9.846-3.762,14.422-6.515c-6.027-7.869-9.104-17.805-10.01-27.599
		c-1.23-13.321,1.457-30.66,10.473-41.086l4.488-5.191l5.348,4.299c13.465,10.818,24.789,25.935,26.785,43.166
		c16.213-4.769,35.248-3.641,49.539,4.607l5.863,3.383l-3.086,6.023c-12.086,23.588-37.354,30.895-62.057,29.602
		c-36.965,92.068-117.441,135.656-215.02,135.656c-50.412,0-96.664-18.846-123.002-63.572l-0.432-0.73l-3.838-7.807
		c-8.902-19.688-11.859-41.256-9.854-62.806l0.602-6.455h36.51v-43.646h42.693v-42.695h85.393V88h51.234V173.391z"/>
	<g id="body_colors_8_">
		<path fill="#00AADA" d="M501.713,189.537c2.863-22.248-13.787-39.725-24.113-48.021c-11.898,13.758-13.748,49.812,4.92,64.992
			c-10.418,9.254-32.371,17.643-54.85,17.643H154.043c-2.186,23.465,1.934,45.072,11.342,63.568l3.113,5.693
			c1.971,3.345,4.124,6.573,6.451,9.681c0.001,0,0.001,0,0.001,0c11.249,0.723,21.621,0.973,31.109,0.763c0.001,0,0.003,0,0.005,0
			c18.647-0.413,33.862-2.613,45.395-6.609c1.717-0.597,3.588,0.313,4.182,2.029c0.594,1.715-0.314,3.587-2.029,4.182
			c-1.533,0.531-3.133,1.028-4.783,1.5c-0.002,0.001-0.004,0.001-0.006,0.002c-9.08,2.592-18.816,4.337-31.379,5.112
			c0.744,0.012-0.777,0.111-0.781,0.112c-0.427,0.026-0.965,0.087-1.395,0.111c-4.943,0.277-10.28,0.335-15.736,0.335
			c-5.967,0-11.845-0.113-18.414-0.446l-0.168,0.111c22.799,25.625,58.447,40.994,103.131,40.994
			c94.57,0,174.785-41.922,210.305-136.039c25.201,2.586,49.42-3.84,60.438-25.346C537.273,179.777,514.707,183.006,501.713,189.537
			z"/>
		<path fill="#24B8EB" d="M501.713,189.537c2.863-22.248-13.787-39.725-24.113-48.021c-11.898,13.758-13.748,49.812,4.92,64.992
			c-10.418,9.254-32.371,17.643-54.85,17.643H170.246c-1.117,35.936,12.219,63.214,35.813,79.705c0.001,0,0.003,0,0.005,0
			c18.647-0.413,33.862-2.613,45.395-6.609c1.717-0.597,3.588,0.313,4.182,2.029c0.594,1.715-0.314,3.587-2.029,4.182
			c-1.533,0.531-3.133,1.028-4.783,1.5c-0.002,0.001-0.004,0.001-0.006,0.002c-9.08,2.592-19.653,4.561-32.216,5.336
			c-0.004,0-0.305-0.291-0.309-0.29c32.185,16.509,78.853,16.45,132.356-4.103c59.994-23.047,115.818-66.957,154.771-117.18
			C502.838,188.988,502.266,189.26,501.713,189.537z"/>
		<path fill="#008BB8" d="M154.555,252.66c1.701,12.568,5.377,24.338,10.83,35.059l3.113,5.693c1.971,3.345,4.124,6.573,6.452,9.681
			c11.251,0.723,21.624,0.973,31.114,0.763c18.647-0.413,33.862-2.613,45.395-6.609c1.717-0.597,3.588,0.313,4.182,2.029
			c0.594,1.715-0.314,3.587-2.029,4.182c-1.533,0.531-3.133,1.028-4.783,1.5c-0.002,0.001-0.004,0.001-0.006,0.002
			c-9.08,2.592-19.598,4.449-32.16,5.225c-0.431,0.026-1.184,0.031-1.618,0.056c-4.942,0.277-10.224,0.446-15.681,0.446
			c-5.966,0-12.067-0.113-18.637-0.446c22.799,25.625,58.67,41.05,103.354,41.05c80.961,0,151.398-30.73,192.281-98.629H154.555z"/>
		<path fill="#039BC6" d="M172.709,252.66c4.84,22.069,16.471,39.395,33.355,51.195c18.647-0.413,33.862-2.613,45.395-6.609
			c1.717-0.597,3.588,0.313,4.182,2.029c0.594,1.715-0.314,3.587-2.029,4.182c-1.533,0.531-3.133,1.028-4.783,1.5
			c-0.002,0.001-0.004,0.001-0.006,0.002c-9.08,2.592-19.82,4.449-32.383,5.225c32.182,16.507,78.715,16.27,132.215-4.281
			c32.365-12.436,63.516-30.947,91.463-53.242H172.709z"/>
	</g>
	<g display="none">
		<path display="inline" fill="#394D54" d="M199.434,310.508c5.455,0,10.652-0.142,15.594-0.419
			c0.432-0.024,0.844-0.058,1.271-0.084c0.004-0.001,0.007-0.001,0.011-0.001c12.562-0.775,23.434-2.453,32.514-5.045
			c0.002-0.001,0.004-0.001,0.006-0.002c1.65-0.472,3.25-0.969,4.783-1.5c1.715-0.595,2.623-2.467,2.029-4.182
			c-0.594-1.716-2.465-2.626-4.182-2.029c-11.532,3.996-26.747,6.196-45.395,6.609c-0.002,0-0.004,0-0.005,0
			c-9.488,0.21-19.86-0.04-31.109-0.763c0,0,0,0-0.001,0c-0.575-0.036-1.141-0.069-1.721-0.108
			c-1.807-0.115-3.379,1.245-3.504,3.057c-0.123,1.811,1.246,3.379,3.057,3.502c2.297,0.156,4.555,0.291,6.783,0.41
			c0.354,0.019,0.697,0.031,1.049,0.049l0,0C187.184,310.335,193.467,310.508,199.434,310.508z"/>
	</g>
	<g id="Containers_8_">
		<path fill-rule="evenodd" clip-rule="evenodd" fill="#00ACD3" d="M222.18,183.59h2.922v30.838h-2.922V183.59z M216.574,183.59
			h3.037v30.838h-3.037V183.59z M210.967,183.59h3.037v30.838h-3.037V183.59z M205.359,183.59h3.037v30.838h-3.037V183.59z
			 M199.754,183.59h3.037v30.838h-3.037V183.59z M194.264,183.59h2.92v30.838h-2.92V183.59z M191.182,180.506h37.002v37.004h-37.002
			V180.506z"/>
		<path fill-rule="evenodd" clip-rule="evenodd" fill="#00ACD3" d="M264.875,140.895h2.924v30.836h-2.924V140.895z M259.27,140.895
			h3.037v30.836h-3.037V140.895z M253.662,140.895h3.037v30.836h-3.037V140.895z M248.055,140.895h3.037v30.836h-3.037V140.895z
			 M242.451,140.895h3.035v30.836h-3.035V140.895z M236.961,140.895h2.918v30.836h-2.918V140.895z M233.875,137.811h37.006v37.003
			h-37.006V137.811z"/>
		<path fill-rule="evenodd" clip-rule="evenodd" fill="#20C2EF" d="M264.875,183.59h2.924v30.838h-2.924V183.59z M259.27,183.59
			h3.037v30.838h-3.037V183.59z M253.662,183.59h3.037v30.838h-3.037V183.59z M248.055,183.59h3.037v30.838h-3.037V183.59z
			 M242.451,183.59h3.035v30.838h-3.035V183.59z M236.961,183.59h2.918v30.838h-2.918V183.59z M233.875,180.506h37.006v37.004
			h-37.006V180.506z"/>
		<path fill-rule="evenodd" clip-rule="evenodd" fill="#00ACD3" d="M307.572,183.59h2.92v30.838h-2.92V183.59z M301.965,183.59
			h3.039v30.838h-3.039V183.59z M296.359,183.59h3.037v30.838h-3.037V183.59z M290.752,183.59h3.037v30.838h-3.037V183.59z
			 M285.145,183.59h3.037v30.838h-3.037V183.59z M279.656,183.59h2.918v30.838h-2.918V183.59z M276.572,180.506h37.004v37.004
			h-37.004V180.506z"/>
		<path fill-rule="evenodd" clip-rule="evenodd" fill="#20C2EF" d="M307.572,140.895h2.92v30.836h-2.92V140.895z M301.965,140.895
			h3.039v30.836h-3.039V140.895z M296.359,140.895h3.037v30.836h-3.037V140.895z M290.752,140.895h3.037v30.836h-3.037V140.895z
			 M285.145,140.895h3.037v30.836h-3.037V140.895z M279.656,140.895h2.918v30.836h-2.918V140.895z M276.572,137.811h37.004v37.003
			h-37.004V137.811z"/>
		<path fill-rule="evenodd" clip-rule="evenodd" fill="#20C2EF" d="M350.268,183.59h2.922v30.838h-2.922V183.59z M344.662,183.59
			h3.037v30.838h-3.037V183.59z M339.055,183.59h3.037v30.838h-3.037V183.59z M333.447,183.59h3.037v30.838h-3.037V183.59z
			 M327.842,183.59h3.037v30.838h-3.037V183.59z M322.352,183.59h2.92v30.838h-2.92V183.59z M319.268,180.506h37.004v37.004h-37.004
			V180.506z"/>
		<path fill-rule="evenodd" clip-rule="evenodd" fill="#00ACD3" d="M350.268,140.895h2.922v30.836h-2.922V140.895z M344.662,140.895
			h3.037v30.836h-3.037V140.895z M339.055,140.895h3.037v30.836h-3.037V140.895z M333.447,140.895h3.037v30.836h-3.037V140.895z
			 M327.842,140.895h3.037v30.836h-3.037V140.895z M322.352,140.895h2.92v30.836h-2.92V140.895z M319.268,137.811h37.004v37.003
			h-37.004V137.811z"/>
		<path fill-rule="evenodd" clip-rule="evenodd" fill="#20C2EF" d="M350.268,98.197h2.922v30.838h-2.922V98.197z M344.662,98.197
			h3.037v30.838h-3.037V98.197z M339.055,98.197h3.037v30.838h-3.037V98.197z M333.447,98.197h3.037v30.838h-3.037V98.197z
			 M327.842,98.197h3.037v30.838h-3.037V98.197z M322.352,98.197h2.92v30.838h-2.92V98.197z M319.268,95.115h37.004v37.004h-37.004
			V95.115z"/>
		<path fill-rule="evenodd" clip-rule="evenodd" fill="#00ACD3" d="M392.963,183.59h2.92v30.838h-2.92V183.59z M387.357,183.59
			h3.035v30.838h-3.035V183.59z M381.748,183.59h3.037v30.838h-3.037V183.59z M376.143,183.59h3.037v30.838h-3.037V183.59z
			 M370.535,183.59h3.037v30.838h-3.037V183.59z M365.045,183.59h2.922v30.838h-2.922V183.59z M361.963,180.506h37.004v37.004
			h-37.004V180.506z"/>
	</g>
	<path fill-rule="evenodd" clip-rule="evenodd" fill="#D4EDF1" d="M268.564,277.504c5.637,0,10.207,4.572,10.207,10.209
		s-4.57,10.207-10.207,10.207c-5.639,0-10.209-4.57-10.209-10.207S262.926,277.504,268.564,277.504"/>
	<path fill-rule="evenodd" clip-rule="evenodd" fill="#394D54" d="M268.564,280.4c0.934,0,1.824,0.176,2.646,0.494
		c-0.891,0.516-1.494,1.48-1.494,2.584c0,1.648,1.336,2.982,2.984,2.982c1.129,0,2.109-0.627,2.617-1.553
		c0.357,0.863,0.557,1.811,0.557,2.805c0,4.037-3.273,7.311-7.311,7.311s-7.312-3.273-7.312-7.311
		C261.252,283.674,264.527,280.4,268.564,280.4"/>
	<path fill-rule="evenodd" clip-rule="evenodd" fill="#394D54" d="M88,256.35h223.613h27.656h223.607
		c-10.34-2.623-32.715-6.166-29.025-19.717c-18.801,21.756-64.143,15.264-75.586,4.535c-12.742,18.482-86.926,11.457-92.1-2.941
		c-15.975,18.748-65.477,18.748-81.453,0c-5.176,14.398-79.357,21.424-92.102,2.941c-11.443,10.729-56.781,17.221-75.584-4.535
		C120.717,250.184,98.342,253.727,88,256.35"/>
	<path fill="#BFDBE0" d="M295.701,351.068c-25.281-11.997-39.158-28.306-46.879-46.109c-9.391,2.681-20.68,4.394-33.795,5.13
		c-4.941,0.277-10.139,0.419-15.594,0.419c-6.287,0-12.914-0.186-19.869-0.555c23.184,23.17,51.705,41.01,104.516,41.336
		C287.979,351.289,291.85,351.213,295.701,351.068z"/>
	<path fill="#D4EDF1" d="M258.213,321.387c-3.498-4.748-6.891-10.715-9.385-16.43c-9.393,2.682-20.684,4.396-33.801,5.132
		C224.037,314.98,236.924,319.512,258.213,321.387z"/>
</g>
</svg>
