<svg xmlns="http://www.w3.org/2000/svg" xmlns:xlink="http://www.w3.org/1999/xlink" width="120px" height="32px" viewBox="0 0 566.93 149.97"><defs><style>.cls-1{fill:url(#Neues_Verlaufsfeld_3);}.cls-2{fill:url(#Neues_Verlaufsfeld_3-2);}.cls-3{fill:url(#Neues_Verlaufsfeld_3-3);}</style><linearGradient id="Neues_Verlaufsfeld_3" x1="50.28" y1="7.34" x2="522.51" y2="7.34" gradientUnits="userSpaceOnUse"><stop offset="0" stop-color="#ff1d8b"/><stop offset="1" stop-color="#fa1a00"/></linearGradient><linearGradient id="Neues_Verlaufsfeld_3-2" x1="48.7" y1="74.34" x2="523.12" y2="74.34" xlink:href="#Neues_Verlaufsfeld_3"/><linearGradient id="Neues_Verlaufsfeld_3-3" x1="50.28" y1="95.22" x2="522.51" y2="95.22" xlink:href="#Neues_Verlaufsfeld_3"/></defs><title>easiER-Logo</title><g id="Ebene_2" data-name="Ebene 2"><g id="Ebene_1-2" data-name="Ebene 1"><path class="cls-1" d="M356.69,13.8A6.22,6.22,0,0,0,363,7.65V7A6.22,6.22,0,0,0,356.69.89,6,6,0,0,0,350.54,7v.6A6,6,0,0,0,356.69,13.8Z"/><path class="cls-2" d="M566.2,141.32,526.13,77.85A46.51,46.51,0,0,0,537.51,74c9.1-4.55,20-14.25,20-34.57s-10.85-30-20-34.57A48,48,0,0,0,518.06,0H396a4.81,4.81,0,1,0,0,9.61H518a38.62,38.62,0,0,1,15.44,4c9.54,4.89,14.37,13.58,14.37,25.84s-4.84,21-14.37,25.84a38.63,38.63,0,0,1-15.42,4H400.81a4.81,4.81,0,0,0,0,9.61H515.4L558,146.42a4.81,4.81,0,1,0,8.15-5.09Z"/><path class="cls-3" d="M488.82,138.74c-13.57-.42-102-.12-126.44,0a.77.77,0,0,1-.77-.77l-.07-78c0-6.67-1.77-10.82-4.82-13.85-5.3-5.28-13.74-5.24-27.71-5.18l-44.29-.07c-20.3,0-34.45,12.1-34.45,28.91v.41c0,18.66,18.87,23.79,35.89,28.71,14.56,4.1,27.68,8.61,27.68,20.92v.41c0,12.1-11.07,18.35-25.22,18.35H230.88c-1.2-.17-4.76-.79-4.76-7.39h0V82.3c0-12.92-3.69-22.56-10.67-29.53-7.59-7.59-18.86-11.47-33-11.48-12.44,0-27.64,3-37.14,9.52C136.19,56.88,127.8,67.64,115.53,91c-11.46,21.83-24.24,35.59-41.45,44.61h0a49.52,49.52,0,0,1-22.41,4.94c-20.51,0-39.17-15.17-41-41.22h82a4.93,4.93,0,0,0,4.92-4.93c-.09-29.84-18.73-53.92-48-53.92C21.33,40.47,0,64.67,0,95v.41C0,128,23.79,150,51.26,150a64.16,64.16,0,0,0,27.28-5.86h0c18.78-9.84,33.24-25.3,45.49-48.65,17.21-32.78,27.13-38.58,36.4-41.44h0a64.24,64.24,0,0,1,21.39-3.3c21.53,0,34.45,10.87,34.45,32v4.51a125.89,125.89,0,0,0-34.65-4.51c-27.07,0-45.73,12.3-45.73,34v.41c0,21.73,20.92,32.81,40.4,32.81,19.89,0,33.73-9.43,40.58-19.9,0,0,.06,5.84,1.16,8.92a13.36,13.36,0,0,0,12.35,9.2H288c20.1,0,36.09-10.54,36.09-29.2v-.41c0-18.45-17.63-24.61-34.45-29.32-15-4.31-29.12-8.61-29.12-20.3v-.41c0-10.45,9.74-18,24.06-18h44.46c10.7,0,18.42-.08,20.89,2.38,1.17,1.16,2,3.6,2,7.4-.1.42,0,81.86,0,81.86s0,1.13,0,1.37a4.66,4.66,0,0,0,4.63,4.78h0c.79,0,116.63-.47,132,0h.15a4.81,4.81,0,0,0,.14-9.61ZM49.21,49.7c24,0,36.09,19.48,37.52,40.6H10.66C12.51,67.12,28.5,49.7,49.21,49.7Zm167.27,58.65c0,19.07-18.25,32.19-39.58,32.19-16,0-30.35-8.82-30.35-24v-.41c0-14.56,12.3-24.4,34.45-24.4a138.65,138.65,0,0,1,35.47,4.72Z"/></g></g></svg>