<?xml version="1.0" encoding="UTF-8"?>
<!-- Generator: Adobe Illustrator 14.0.0, SVG Export Plug-In . SVG Version: 6.00 Build 43363)  -->
<!DOCTYPE svg PUBLIC "-//W3C//DTD SVG 1.1//EN" "http://www.w3.org/Graphics/SVG/1.1/DTD/svg11.dtd">
<svg version="1.1" id="Layer_1" xmlns="http://www.w3.org/2000/svg" xmlns:xlink="http://www.w3.org/1999/xlink" x="0px" y="0px" width="250px" height="96px" viewBox="0 0 250 96" enable-background="new 0 0 250 96" xml:space="preserve">
<g>
	<path fill="#FFFFFF" d="M35.86,89.841C29.216,86.289,5.302,72.915,5.302,51.382V5.031H35.86h30.557v46.351   C66.417,72.915,42.503,86.289,35.86,89.841"/>
	<path fill="none" stroke="#FFFFFF" stroke-width="0.7761" d="M35.86,89.841C29.216,86.289,5.302,72.915,5.302,51.382V5.031H35.86   h30.557v46.351C66.417,72.915,42.503,86.289,35.86,89.841z"/>
	<path fill="#231F20" d="M99.729,25.988h-1.125c-0.587-2.103-1.077-4.159-3.277-5.087c-2.105-0.93-4.892-0.881-7.242-0.881   c-3.914,0-3.766-0.341-3.866,2.739v10.959c6.703,0.292,7.681-2.398,7.976-5.921h1.123c-0.048,2.203-0.097,4.453-0.193,6.655   c0.096,2.005,0.146,4.06,0.193,6.065h-1.123c-0.686-5.135-3.277-5.234-7.976-5.234v6.164c0,1.518,0,5.136,0.492,6.458   c0.732,1.958,3.13,1.566,4.843,1.663v1.126c-2.497-0.05-5.04-0.148-7.533-0.195c-2.496,0.047-4.943,0.146-7.536,0.195v-1.126   c1.567,0,3.573,0,4.208-1.663c0.489-1.322,0.489-4.94,0.489-6.505V27.602c0-1.565,0-5.185-0.489-6.505   c-0.635-1.664-2.641-1.664-4.208-1.664v-1.125c2.985,0.05,5.872,0.146,8.758,0.196c5.234-0.049,10.467-0.146,15.702-0.196   L99.729,25.988"/>
	<path fill="#231F20" d="M112.786,38.512c-2.935,1.418-8.513,3.327-8.513,7.243c0,1.809,1.125,3.519,3.132,3.519   c1.908,0,4.011-1.467,5.381-2.788V38.512 M112.346,37.288c0.488-0.243,0.391-0.879,0.391-1.419c0-3.324-0.294-5.673-4.305-5.673   c-2.445,0-4.452,0.196-4.599,2.788c-0.097,1.075-0.734,2.152-1.956,2.152c-1.075,0-1.859-0.684-1.859-1.762   c0-3.619,6.508-4.304,9.002-4.304c5.429,0,7.924,1.419,7.924,7.045v8.073c0,1.222-0.194,4.841,1.714,4.841   c0.978,0,1.467-0.881,2.005-1.565l0.929,0.49c-0.782,1.614-2.593,3.277-4.402,3.277c-2.007,0-3.719-1.516-4.208-3.473   c-2.3,1.858-5.137,3.473-8.17,3.473c-2.592,0-5.088-1.563-5.088-4.305c0-4.11,4.648-5.871,7.78-7.288L112.346,37.288z"/>
	<path fill="#231F20" d="M124.042,20.362c0-1.468,1.175-2.642,2.642-2.642c1.467,0,2.594,1.173,2.594,2.642   c0,1.418-1.127,2.592-2.495,2.592C125.313,22.955,124.042,21.878,124.042,20.362 M129.326,29.07v15.704   c0.097,3.228-0.442,4.696,3.423,4.941v0.979c-1.662-0.05-3.472-0.148-5.233-0.195c-1.909,0.047-3.816,0.146-5.724,0.195v-0.979   c3.618-0.245,3.327-1.418,3.375-4.646v-6.998c0-0.929,0-4.697-0.196-5.43c-0.341-1.224-2.396-1.125-3.375-1.077v-0.977   L129.326,29.07z"/>
	<path fill="#231F20" d="M137.732,39.048c0-1.318,0.047-4.793-0.295-5.919c-0.439-1.761-1.661-1.565-3.228-1.565v-0.977   c2.3-0.148,4.454-1.028,6.603-1.518c0.442,1.419,0.64,3.18,0.589,4.94h0.099c1.272-2.984,3.718-4.94,7.092-4.94   c1.518,0,3.476,0.734,3.476,2.543c0,0.932-0.785,1.762-1.713,1.762c-2.053,0-1.614-2.545-3.523-2.545   c-1.467,0-3.081,1.222-3.815,2.447c-1.123,2.005-1.123,4.402-1.123,6.653v4.842c0,3.572-0.393,4.745,3.717,4.941v0.979   c-1.859-0.05-3.768-0.148-5.626-0.195c-1.908,0.047-3.769,0.146-5.676,0.195v-0.979c3.668-0.244,3.425-1.42,3.425-4.646V39.048"/>
	<path fill="#231F20" d="M153.141,31.907v-1.32h3.914v-2.643c0-6.31,2.301-10.224,9.102-10.224c1.809,0,5.966,0.539,5.966,3.081   c0,0.881-0.83,1.566-1.711,1.566c-0.979,0-1.418-0.636-1.713-1.37c-0.539-1.418-1.125-2.152-2.838-2.152   c-1.858,0-3.18,0.587-3.915,2.348c-0.731,1.762-0.731,4.11-0.731,6.017v3.377h6.018v1.32h-6.018v12.964   c0,1.224,0.195,2.398,0.44,3.033c0.732,2.005,3.131,1.711,4.89,1.81v0.979c-2.346-0.05-4.646-0.148-6.994-0.195   c-2.25,0.047-4.451,0.146-6.702,0.195v-0.979c4.306-0.244,4.207-1.567,4.207-5.38V31.907H153.141"/>
	<path fill="#231F20" d="M175.593,20.362c0-1.468,1.172-2.642,2.64-2.642c1.467,0,2.592,1.173,2.592,2.642   c0,1.418-1.125,2.592-2.493,2.592C176.864,22.955,175.593,21.878,175.593,20.362 M180.874,29.07v15.704   c0.1,3.228-0.438,4.696,3.425,4.941v0.979c-1.664-0.05-3.475-0.148-5.235-0.195c-1.906,0.047-3.814,0.146-5.724,0.195v-0.979   c3.62-0.245,3.328-1.418,3.376-4.646v-6.998c0-0.929,0-4.697-0.193-5.43c-0.346-1.224-2.399-1.125-3.379-1.077v-0.977   L180.874,29.07z"/>
	<path fill="#231F20" d="M198.821,36.164c0.782,0,2.397,0.245,2.397-0.979c0-3.033-1.663-4.989-4.746-4.989   c-3.67,0-5.135,2.788-5.723,5.968H198.821 M205.182,47.074c-2.299,2.836-5.04,4.156-8.709,4.156   c-6.066,0-11.055-4.254-11.055-10.516c0-6.117,4.647-11.645,11.006-11.645c4.795,0,9.345,2.69,9.345,7.975   c0,0.635-0.733,0.44-1.222,0.44h-14.043l-0.194,2.348c0,4.647,2.446,9.834,7.679,9.834c2.496,0,4.697-1.666,6.167-3.623   L205.182,47.074z"/>
	<path fill="#231F20" d="M214.969,44.773c0.1,3.228-0.438,4.697,3.425,4.941v0.979c-1.905-0.05-3.767-0.148-5.625-0.195   c-1.809,0.047-3.57,0.146-5.38,0.195v-0.979c3.668-0.244,3.423-1.42,3.423-4.646V26.283c0-1.224,0-4.209-0.489-5.236   c-0.586-1.224-2.054-1.127-3.18-1.272v-0.978l7.826-1.566V44.773"/>
	<path fill="#231F20" d="M236.832,35.625c0-3.082-2.985-4.991-5.821-4.991c-5.284,0-6.704,5.529-6.704,9.784   c0,4.404,1.42,9.491,6.704,9.491c4.402,0,5.821-3.472,5.821-7.339V35.625 M238.446,51.23c-0.537-1.124-0.831-2.396-0.978-3.716   c-2.106,2.544-4.306,3.716-7.633,3.716c-6.164,0-10.421-4.745-10.421-10.812c0-5.967,4.208-11.349,10.421-11.349   c2.689,0,5.236,0.978,6.996,3.033v-7.73c0-2.935-0.146-4.501-3.669-4.598v-0.979l7.826-1.564v24.705c0,1.369,0,3.816,0.491,5.087   c0.637,1.713,1.956,1.615,3.52,1.615v0.979L238.446,51.23z"/>
	<path fill="#231F20" d="M88.595,69.325c0,4.203-1.639,6.372-6.029,6.372c-4.136,0-6.145-1.452-6.145-5.634v-5.522   c0-0.739,0-2.451-0.231-3.073c-0.301-0.786-1.249-0.786-1.987-0.786v-0.53c1.086,0.022,2.195,0.069,3.28,0.092   c1.179-0.022,2.333-0.069,3.512-0.092v0.53c-0.739,0-1.709-0.025-1.985,0.786c-0.211,0.622-0.211,2.334-0.211,3.073v5.684   c0,2.956,1.157,4.643,4.321,4.643c3.188,0,4.782-1.664,4.782-4.759v-5.06c0-0.808,0-2.586-0.231-3.303   c-0.324-0.973-1.249-1.064-2.149-1.064v-0.53c0.9,0.022,1.78,0.069,2.681,0.092c0.855-0.022,1.71-0.069,2.586-0.092v0.53   c-0.738,0.022-1.546,0-1.87,0.834c-0.324,0.83-0.324,2.608-0.324,3.533V69.325"/>
	<path fill="#231F20" d="M98.019,62.068c-0.716-1.017-1.271-1.364-2.52-1.387v-0.53c0.739,0.022,1.455,0.069,2.196,0.092   c0.602-0.022,1.224-0.069,1.824-0.092l9.795,11.896v-6.42c0-0.994,0-2.611-0.207-3.559c-0.278-1.295-0.902-1.203-2.057-1.387v-0.53   c0.854,0.022,1.687,0.069,2.541,0.092c0.81-0.022,1.595-0.069,2.449-0.092v0.53c-0.854,0.092-1.455,0.022-1.756,1.018   c-0.229,0.738-0.276,3.119-0.276,4.042V75.7h-0.694c-0.507-0.625-1.017-1.272-1.524-1.92l-9.079-10.948v7.763   c0,0.855,0,2.586,0.347,3.372c0.392,0.9,1.154,0.855,2.012,0.947v0.534c-0.88-0.025-1.782-0.073-2.658-0.095   c-0.856,0.021-1.709,0.069-2.564,0.095v-0.534c0.9-0.092,1.756-0.139,1.987-1.134c0.184-0.83,0.184-2.286,0.184-3.186V62.068"/>
	<path fill="#231F20" d="M119.154,64.541c0-0.739,0-2.451-0.231-3.073c-0.299-0.786-1.248-0.786-1.987-0.786v-0.53   c1.109,0.022,2.219,0.069,3.328,0.092c1.177-0.022,2.333-0.069,3.487-0.092v0.53c-0.739,0-1.687,0-1.986,0.786   c-0.232,0.622-0.232,2.334-0.232,3.073v6.515c0,0.738,0,2.45,0.232,3.072c0.299,0.786,1.247,0.786,1.986,0.786v0.534   c-1.085-0.025-2.218-0.073-3.325-0.095c-1.157,0.021-2.334,0.069-3.49,0.095v-0.534c0.739,0,1.688,0,1.987-0.786   c0.231-0.622,0.231-2.334,0.231-3.072V64.541"/>
	<path fill="#231F20" d="M130.288,63.524c-0.601-1.479-0.877-2.77-2.795-2.843v-0.53c1.085,0.022,2.173,0.069,3.257,0.092   c1.133-0.022,2.265-0.069,3.396-0.092v0.53c-0.669,0-1.803,0-1.803,0.947c0,0.809,1.388,4.343,1.756,5.315l2.357,5.867l2.195-5.359   c0.414-1.134,1.732-4.62,1.732-5.64c0-1.156-0.924-1.131-1.803-1.131v-0.53c0.879,0.022,1.756,0.069,2.635,0.092   c0.807-0.022,1.615-0.069,2.424-0.092v0.53c-2.009-0.025-2.403,1.939-3.003,3.512l-4.689,11.668h-0.694L130.288,63.524"/>
	<path fill="#231F20" d="M149.418,64.633c0-0.736,0-2.448-0.233-3.073c-0.299-0.786-1.246-0.786-1.985-0.786v-0.622h11.48v3.489   h-0.532c-0.436-2.703-1.639-2.867-4.086-2.867h-1.664c-0.717,0-0.602-0.069-0.602,0.947v5.479c3.165,0.14,3.626-1.181,3.766-2.842   h0.533c-0.026,1.039-0.047,2.101-0.095,3.139c0.048,0.947,0.068,1.92,0.095,2.867h-0.533c-0.322-2.425-1.548-2.542-3.766-2.542   v3.79c0,0.691,0,1.777,0.417,2.333c0.6,0.809,2.031,0.853,2.957,0.831c2.403-0.048,3.973-0.348,4.273-3.098h0.531l-0.21,3.723   h-12.565v-0.533c0.739,0,1.687,0,1.985-0.783c0.233-0.626,0.233-2.334,0.233-3.073V64.633"/>
	<path fill="#231F20" d="M169.631,67.705c2.887,0,4.989-0.069,4.989-3.417c0-2.033-1.154-3.467-3.235-3.467   c-0.276,0-1.291-0.07-1.501,0.024c-0.3,0.14-0.253,0.575-0.253,0.831V67.705 M177.993,73.55c0.738,0.856,1.086,1.178,2.264,1.364   v0.53c-0.691-0.021-1.386-0.069-2.079-0.091c-0.578,0.021-1.154,0.069-1.732,0.091l-1.086-1.339l-3.835-4.759   c-0.762-0.878-0.67-1.017-1.894-1.017v2.726c0,0.738,0,2.45,0.207,3.072c0.277,0.809,1.224,0.786,1.964,0.786v0.53   c-1.063-0.021-2.148-0.069-3.259-0.091c-1.154,0.021-2.31,0.069-3.464,0.091v-0.53c0.74,0,1.708,0,1.963-0.786   c0.21-0.622,0.21-2.334,0.21-3.072v-6.515c0-0.739,0-2.451-0.21-3.073c-0.255-0.808-1.223-0.786-1.963-0.786v-0.53   c1.316,0.022,2.657,0.069,3.974,0.092c0.972-0.022,1.965-0.069,2.934-0.092c2.634,0,5.291,0.6,5.291,3.812   c0,2.495-1.896,3.768-4.181,3.976L177.993,73.55z"/>
	<path fill="#231F20" d="M184.322,70.777h0.531c0.462,2.337,1.71,4.301,4.367,4.301c1.801,0,3.303-1.017,3.303-2.889   c0-2.104-1.825-2.938-3.51-3.606c-2.104-0.809-4.346-1.917-4.346-4.551s2.058-4.159,4.574-4.159c1.271,0,2.452,0.439,3.489,1.182   l0.532-0.903h0.255l0.113,3.998h-0.53c-0.53-1.92-1.617-3.653-3.859-3.653c-1.476,0-2.701,0.95-2.701,2.45   c0,1.825,1.639,2.45,3.072,3.05c2.401,0.995,5.083,2.195,5.083,5.224c0,3.025-2.818,4.478-5.523,4.478   c-1.569,0-2.795-0.461-4.042-1.383l-0.554,0.969h-0.255V70.777"/>
	<path fill="#231F20" d="M201.738,64.541c0-0.739,0-2.451-0.23-3.073c-0.299-0.786-1.246-0.786-1.986-0.786v-0.53   c1.108,0.022,2.217,0.069,3.326,0.092c1.178-0.022,2.336-0.069,3.488-0.092v0.53c-0.737,0-1.685,0-1.986,0.786   c-0.23,0.622-0.23,2.334-0.23,3.073v6.515c0,0.738,0,2.45,0.23,3.072c0.302,0.786,1.249,0.786,1.986,0.786v0.534   c-1.087-0.025-2.217-0.073-3.328-0.095c-1.153,0.021-2.332,0.069-3.486,0.095v-0.534c0.74,0,1.688,0,1.986-0.786   c0.23-0.622,0.23-2.334,0.23-3.072V64.541"/>
	<path fill="#231F20" d="M225.533,63.755h-0.625c-0.139-2.265-1.017-2.864-3.188-2.864c-0.854,0-2.242-0.114-2.242,0.625v10.951   c0,1.712,0.325,2.355,2.564,2.447v0.53c-1.27-0.021-2.564-0.069-3.835-0.091c-1.224,0.021-2.426,0.069-3.673,0.091v-0.53   c2.242-0.092,2.565-0.735,2.565-2.447V61.516c0-0.694-1.017-0.625-1.942-0.625c-2.284,0-3.396,0.116-3.487,2.864h-0.53v-3.604   h14.185L225.533,63.755"/>
	<path fill="#231F20" d="M237.961,72.42c0,2.191,0.068,2.308,2.286,2.494v0.534c-1.152-0.025-2.308-0.073-3.465-0.095   c-1.177,0.021-2.356,0.069-3.534,0.095v-0.534c2.242-0.187,2.335-0.322,2.335-2.494v-2.864l-2.126-3.676   c-0.255-0.461-2.011-3.973-2.82-4.781c-0.395-0.442-0.783-0.325-1.339-0.417v-0.53c1.039,0.022,2.104,0.069,3.142,0.092   c1.087-0.022,2.171-0.069,3.256-0.092v0.53c-0.507,0-1.73-0.044-1.73,0.739c0,0.604,0.322,1.111,0.601,1.62l3.003,5.567   l1.479-2.359c0.486-0.805,2.286-3.764,2.286-4.595c0-0.881-1.037-0.899-1.663-0.973v-0.53c0.832,0.022,1.641,0.069,2.473,0.092   c0.762-0.022,1.5-0.069,2.265-0.092v0.53c-1.339,0.117-1.825,1.018-2.452,2.06l-3.995,6.603V72.42"/>
	<path fill="#FFFFFF" d="M36.073,91.028C29.321,87.429,5,73.856,5,52.004V4.971h31.073h31.079v47.033   C67.151,73.856,42.832,87.429,36.073,91.028"/>
	<path fill="none" stroke="#D81F3A" stroke-width="0.7243" d="M36.073,91.028C29.321,87.429,5,73.856,5,52.004V4.971h31.073h31.079   v47.033C67.151,73.856,42.832,87.429,36.073,91.028z"/>
	<path fill="none" stroke="#D81F3A" stroke-width="2.3347" d="M36.037,86.886C30.113,83.614,8.796,71.734,8.796,51.847V9.201h27.241   h27.242v42.646C63.279,71.734,41.958,83.614,36.037,86.886z"/>
	<path fill="none" stroke="#D81F3A" stroke-width="0.7373" d="M29.537,82.944h12.317 M24.156,78.764h23.068 M19.878,74.576h32.427    M15.726,70.396h39.925 M13.199,66.211h45.773 M11.467,62.027h49.236"/>
	<line fill="none" stroke="#D81F3A" stroke-width="2.3444" x1="9.052" y1="57.328" x2="63.053" y2="57.328"/>
	<path fill="#D81F3A" d="M45.083,67.708c0.224,0.228,0.395,0.442,0.395,0.442c0.128,0.129-0.234,2.071-0.234,2.071   c-0.303,1.733-0.807,3.079-0.807,3.079c-0.516,1.175-1.292,1.421-1.292,1.421c-0.676,0.351-0.939,1.099-0.939,1.099   c-0.241,0.357-0.131,1.105-0.131,1.105c0.109,0.527,0.707,0.509,0.707,0.509h1.667c0.412-0.013,0.593-0.351,0.593-0.351   c0-0.639,1.314-1.156,1.314-1.156c0.202-0.079,0.665-0.776,0.665-0.776l1.151-2.95c0.062-0.037,0.464-1.831,0.969-2.349   c0.504-0.519,0.747-1.771,0.747-1.771c0.122-1.055-0.807-1.633-0.807-1.633c-0.141-0.18-0.793-1.298-0.793-1.298   c-0.083-0.518,0.265-2.545,0.265-2.545c1.478,1.206,1.902-1.257,1.902-1.257c0.666-5.678-2.87-7.313-2.87-7.313   c-0.243-0.12-1.4,0.438-1.4,0.438c-6.106-2.52-12.932,0-12.932,0s1.249-4.595,1.153-5.745c0,0,1.143-0.946,0.905-2.427   c0,0-0.249-1.983-0.396-2.08c0,0-1.919,1.056-2.041,1.176c-0.003,0.001-0.003,0.003-0.006,0.006   c0.042-0.044,0.128-0.126,0.128-0.126s0.559-1.393,2.43-2.136c0,0,1.895-0.884,0.728-2.948l0.317-2.324   c0,0-0.875-2.013-0.657-2.518c0,0,0.171-1.677-0.875-0.189c0,0-0.242,1.293,0.365,2.42c0,0,0.534,1.558-0.341,2.206   c0,0-1.239,0.262-2.137-0.553c0,0-0.778-1.102-0.802-1.751c0,0-1.312-2.394-1.312-2.588c0,0,0-1.511-0.39-1.366   c0,0-0.607-0.023-0.46,1.606c0,0,0.096,1.007,0.727,1.678c0,0,0.705,1.27,0.681,1.629c0,0,0.196,0.696-0.46,0.791   c0,0-1.533-0.864-1.798-1.557c0,0-0.634-1.009-0.462-1.415c0,0-0.194-1.51-0.705,0.071c0,0-0.339,0.935,0.753,2.35   c0,0,1.117,1.294,3.232,1.678c0,0,3.62,0.575,3.643,1.102c0,0,0.099,0.336-1.091,0.6c0,0-1.313,0.864-1.385,0.958   c0,0-1.19-1.895-1.385-1.679c0,0-0.559-0.167,0.023,1.462c0,0,0.196,0.913,0.123,1.007c0,0-0.437,0.551-1.531,0.456   c0,0,0.169-1.774-0.243-2.062c0,0-0.097-1.702-0.484-1.797c0,0-0.633-0.334-0.513,1.125c0,0-1.043-0.862-1.748-0.766   c0,0-0.997-1.75-1.12-3.213c0,0-0.011-0.679,0.117-1.25c0.033-0.148,0.116-0.196,0.159-0.302c0.045-0.112,0.05-0.27,0.115-0.341   c0,0,0.062-0.809-0.728-0.232c0,0-0.864,0.956-0.36,2.83c0,0,0.26,0.995,0.463,1.475c0,0,0.342,0.897,0.242,1.074   c0,0-1.071,0-1.675-0.796c0,0-0.809-0.778-0.849-2.291c0,0-0.039-0.537-0.324-0.439c0,0-0.667,1.038,0.181,2.511   c0,0,0.234,0.346,0.602,0.881c0.193,0.281,0.498,0.573,0.909,0.78c0.413,0.207,0.938,0.281,1.573,0.371c0,0,2.511-0.239,2.45,2.349   c0,0-0.08,0.499-0.16,0.518c0,0-0.446,0.019-2.1,1.754c0,0-0.988,1.115-2.079,1.653c0,0-1.111,0.598-1.151,1.553   c0,0,0.383,1.475,1.273,1.895c0,0,0.947,0.338,1.694,0c0,0,0.585-0.439,0.828-0.439l0.445-0.041c0,0-2.182,2.59-2.222,2.69   c-0.04,0.098-2.403,2.567-2.665,4.68c0,0-0.282,2.252-0.062,2.969c0,0-0.626,0.3-1.875,1.354c-1.253,1.055-0.608,2.229-0.728,1.974   l1.535,3.862c0,0,0.726,1.872,0.849,1.951c0,0,1.692,1.582,1.793,1.725c0,0,0.563,0.587,1.396,0.448c0,0,1.231-0.878,1.272-1.497   c0,0,0.183-0.755-0.908-1.434c0,0-0.606-0.438-1.111-0.438l-0.827-3.366l-0.082-0.913c0,0,1.413-0.359,1.757-0.4   c0,0,0.747-0.117,0.928-0.338l0.828,3.268l0.889,2.946c0,0,0.625,3.246,0.564,3.386c0,0-0.16,0.701-0.504,1.275   c0,0-0.162,2.153,0.646,2.211l2.141-0.058c0,0,0.301-0.06,0.364-0.521c0,0-0.023-0.714,0.441-1.73c0,0,0.425-0.143-0.301-3.107   c0,0-0.849-3.578-0.425-5.312l0.031-2.567c0,0,1.91,0.688,4.059,0.209l3.573-0.749c0,0,1.03,3.107,1.272,3.319   c0,0,1.121,0.865-0.243,2.719c0,0-1.182,2.09-1.423,2.839c0,0-0.244,1.225-1.455,2.002c0,0-0.637,0.505-0.604,1.431   c0,0-0.092,1.076,0.786,1.076c0,0,1.667-0.06,2.031-0.268c0,0-0.093-0.598,0.634-0.895c0,0,0.79-0.448,1.183-1.316   c0,0-0.212-0.806,0.999-2.33l1.603-2.391c0,0,1.342-1.346,1.229-1.778l-0.015-0.269L45.083,67.708"/>
	<path fill="none" stroke="#D81F3A" stroke-width="0.0792" d="M45.083,67.708c0.224,0.228,0.395,0.442,0.395,0.442   c0.128,0.129-0.234,2.071-0.234,2.071c-0.303,1.733-0.807,3.079-0.807,3.079c-0.516,1.175-1.292,1.421-1.292,1.421   c-0.676,0.351-0.939,1.099-0.939,1.099c-0.241,0.357-0.131,1.105-0.131,1.105c0.109,0.527,0.707,0.509,0.707,0.509h1.667   c0.412-0.013,0.593-0.351,0.593-0.351c0-0.639,1.314-1.156,1.314-1.156c0.202-0.079,0.665-0.776,0.665-0.776l1.151-2.95   c0.062-0.037,0.464-1.831,0.969-2.349c0.504-0.519,0.747-1.771,0.747-1.771c0.122-1.055-0.807-1.633-0.807-1.633   c-0.141-0.18-0.793-1.298-0.793-1.298c-0.083-0.518,0.265-2.545,0.265-2.545c1.478,1.206,1.902-1.257,1.902-1.257   c0.666-5.678-2.87-7.313-2.87-7.313c-0.243-0.12-1.4,0.438-1.4,0.438c-6.106-2.52-12.932,0-12.932,0s1.249-4.595,1.153-5.745   c0,0,1.143-0.946,0.905-2.427c0,0-0.249-1.983-0.396-2.08c0,0-1.919,1.056-2.041,1.176c-0.003,0.001-0.003,0.003-0.006,0.006   c0.042-0.044,0.128-0.126,0.128-0.126s0.559-1.393,2.43-2.136c0,0,1.895-0.884,0.728-2.948l0.317-2.324   c0,0-0.875-2.013-0.657-2.518c0,0,0.171-1.677-0.875-0.189c0,0-0.242,1.293,0.365,2.42c0,0,0.534,1.558-0.341,2.206   c0,0-1.239,0.262-2.137-0.553c0,0-0.778-1.102-0.802-1.751c0,0-1.312-2.394-1.312-2.588c0,0,0-1.511-0.39-1.366   c0,0-0.607-0.023-0.46,1.606c0,0,0.096,1.007,0.727,1.678c0,0,0.705,1.27,0.681,1.629c0,0,0.196,0.696-0.46,0.791   c0,0-1.533-0.864-1.798-1.557c0,0-0.634-1.009-0.462-1.415c0,0-0.194-1.51-0.705,0.071c0,0-0.339,0.935,0.753,2.35   c0,0,1.117,1.294,3.232,1.678c0,0,3.62,0.575,3.643,1.102c0,0,0.099,0.336-1.091,0.6c0,0-1.313,0.864-1.385,0.958   c0,0-1.19-1.895-1.385-1.679c0,0-0.559-0.167,0.023,1.462c0,0,0.196,0.913,0.123,1.007c0,0-0.437,0.551-1.531,0.456   c0,0,0.169-1.774-0.243-2.062c0,0-0.097-1.702-0.484-1.797c0,0-0.633-0.334-0.513,1.125c0,0-1.043-0.862-1.748-0.766   c0,0-0.997-1.75-1.12-3.213c0,0-0.011-0.679,0.117-1.25c0.033-0.148,0.116-0.196,0.159-0.302c0.045-0.112,0.05-0.27,0.115-0.341   c0,0,0.062-0.809-0.728-0.232c0,0-0.864,0.956-0.36,2.83c0,0,0.26,0.995,0.463,1.475c0,0,0.342,0.897,0.242,1.074   c0,0-1.071,0-1.675-0.796c0,0-0.809-0.778-0.849-2.291c0,0-0.039-0.537-0.324-0.439c0,0-0.667,1.038,0.181,2.511   c0,0,0.234,0.346,0.602,0.881c0.193,0.281,0.498,0.573,0.909,0.78c0.413,0.207,0.938,0.281,1.573,0.371c0,0,2.511-0.239,2.45,2.349   c0,0-0.08,0.499-0.16,0.518c0,0-0.446,0.019-2.1,1.754c0,0-0.988,1.115-2.079,1.653c0,0-1.111,0.598-1.151,1.553   c0,0,0.383,1.475,1.273,1.895c0,0,0.947,0.338,1.694,0c0,0,0.585-0.439,0.828-0.439l0.445-0.041c0,0-2.182,2.59-2.222,2.69   c-0.04,0.098-2.403,2.567-2.665,4.68c0,0-0.282,2.252-0.062,2.969c0,0-0.626,0.3-1.875,1.354c-1.253,1.055-0.608,2.229-0.728,1.974   l1.535,3.862c0,0,0.726,1.872,0.849,1.951c0,0,1.692,1.582,1.793,1.725c0,0,0.563,0.587,1.396,0.448c0,0,1.231-0.878,1.272-1.497   c0,0,0.183-0.755-0.908-1.434c0,0-0.606-0.438-1.111-0.438l-0.827-3.366l-0.082-0.913c0,0,1.413-0.359,1.757-0.4   c0,0,0.747-0.117,0.928-0.338l0.828,3.268l0.889,2.946c0,0,0.625,3.246,0.564,3.386c0,0-0.16,0.701-0.504,1.275   c0,0-0.162,2.153,0.646,2.211l2.141-0.058c0,0,0.301-0.06,0.364-0.521c0,0-0.023-0.714,0.441-1.73c0,0,0.425-0.143-0.301-3.107   c0,0-0.849-3.578-0.425-5.312l0.031-2.567c0,0,1.91,0.688,4.059,0.209l3.573-0.749c0,0,1.03,3.107,1.272,3.319   c0,0,1.121,0.865-0.243,2.719c0,0-1.182,2.09-1.423,2.839c0,0-0.244,1.225-1.455,2.002c0,0-0.637,0.505-0.604,1.431   c0,0-0.092,1.076,0.786,1.076c0,0,1.667-0.06,2.031-0.268c0,0-0.093-0.598,0.634-0.895c0,0,0.79-0.448,1.183-1.316   c0,0-0.212-0.806,0.999-2.33l1.603-2.391c0,0,1.342-1.346,1.229-1.778l-0.015-0.269L45.083,67.708z"/>
	<path fill="#FFFFFF" d="M41.038,61.974c0,0,0.646-0.139,1.473,1.213c0,0,1.051,1.755,1.151,1.815c0,0,0.585,0.581,1.269,1.108   c0.686,0.527,1.466,1.001,1.576,1.26c0,0,0.437,0.43-0.121,3.13c0,0-0.705,2.747-0.788,2.848c0,0-0.221,0.815-0.866,1.481   c0,0-0.415,0.42-0.717,0.638c0,0-0.656,0.271-0.646,0.748h0.897c0,0,0.839-1.275,1.586-1.304h0.068l0.991-2.289   c0,0,0.83-2.482,0.87-2.501c0,0,0.797-1.476,0.876-1.563c0,0,0.456-0.771-0.039-1.216c0,0-1.03-1.267-1.101-1.393   c0,0-0.485-0.6-0.452-1.484c0,0,0.352-3.17,0.765-3.549c0,0,0.32-0.24,0.471-0.184l1.012,0.96c0,0,0.435-2.438-0.363-4.49   c0,0-0.174-1.045-1.467-2.002l-1.075,0.726c0,0-0.456-0.855-2.978-1.231c0,0-3.046-0.625-5.591-0.075l-2.953,0.54l-2.7,0.666   c0,0-0.457-0.028-0.569-0.556c0,0,0.875-1.964,0.939-2.201c0,0,0.698-2.305,0.682-3.12c0,0,0.075-1.726-0.107-1.935   c0,0,0.962-0.141,1.083-0.218c0,0,0.643-0.829,0.173-2.437c0,0-1.892,1.219-1.976,1.345c0,0-0.249-0.949-1.453-1.209   c0,0-1.19-0.262-2.204,0.523c0,0-1.559,1.642-1.596,1.667c-0.039,0.021-1.075,0.805-1.075,0.805s-1.379,0.86-1.34,1.069   c0,0,0.204,1.074,0.909,1.018c0,0,1.612-0.54,1.695-0.547c0,0,2.885,0.028,3.254-0.256c0,0-2.952,2.975-3.02,3.048   c-0.066,0.075-2.322,2.593-2.461,3.057l2.348-0.913c0,0-2.755,2.139-2.923,2.523c0,0-0.619,0.78-0.574,1.301l2.045-1.104   c0,0-2.121,1.585-2,2.763c0,0,0.181,1.585,0.5,2.106l-0.433-0.379c0,0-2.285,1.203-2.415,1.455c0,0-0.402,0.357-0.227,0.913   c0,0,0.486,1.889,0.577,2.037c0,0,0.93,2.226,0.938,2.279c0,0,0.393,1.156,0.543,1.282c0.152,0.13,0.206,0.427,1.084,0.916   l0.744,0.556c0,0,0.551,0.031,0.839-0.657c0,0-0.362-0.536-0.683-0.745c0,0-0.588,0.187-1.211-0.827c0,0-0.378-1.017-0.497-1.459   l-0.494-1.889c0,0-0.265-1.455-0.037-1.698c0,0,0.031-0.506,2.414-0.85c0,0,0.644-0.06,1.234-0.65c0,0,0.6-0.468,0.689-0.401   c0,0,0.546,1.857,0.568,1.977c0,0,0.757,3.228,0.848,3.316c0,0,0.609,2.251,0.63,2.409c0,0,0.574,2.539,0.574,2.747   c0,0,0.099,1.188,0.068,1.276c0,0-0.119,0.539-0.181,0.618l-0.432,0.714l-0.092,0.23l0.024,0.199l0.086,0.174l0.136,0.088   l0.891-0.019c0,0,0.265-1.042,0.537-1.602c0,0,0.06-0.382-0.296-1.844l-0.241-1.746c0,0-0.243-1.968-0.234-2.596l-0.053-3.3   c0,0,0.014-2.608,0.061-2.608c0,0,0.089-0.297,0.189-0.246c0,0,0.886,0.694,1.037,0.726c0,0,1.172,0.717,4.073,0.082l2.839-0.612   C38.614,62.422,41.007,61.941,41.038,61.974"/>
	<path fill="none" stroke="#FFFFFF" stroke-width="0.1584" stroke-linecap="round" stroke-linejoin="round" d="M41.038,61.974   c0,0,0.646-0.139,1.473,1.213c0,0,1.051,1.755,1.151,1.815c0,0,0.585,0.581,1.269,1.108c0.686,0.527,1.466,1.001,1.576,1.26   c0,0,0.437,0.43-0.121,3.13c0,0-0.705,2.747-0.788,2.848c0,0-0.221,0.815-0.866,1.481c0,0-0.415,0.42-0.717,0.638   c0,0-0.656,0.271-0.646,0.748h0.897c0,0,0.839-1.275,1.586-1.304h0.068l0.991-2.289c0,0,0.83-2.482,0.87-2.501   c0,0,0.797-1.476,0.876-1.563c0,0,0.456-0.771-0.039-1.216c0,0-1.03-1.267-1.101-1.393c0,0-0.485-0.6-0.452-1.484   c0,0,0.352-3.17,0.765-3.549c0,0,0.32-0.24,0.471-0.184l1.012,0.96c0,0,0.435-2.438-0.363-4.49c0,0-0.174-1.045-1.467-2.002   l-1.075,0.726c0,0-0.456-0.855-2.978-1.231c0,0-3.046-0.625-5.591-0.075l-2.953,0.54l-2.7,0.666c0,0-0.457-0.028-0.569-0.556   c0,0,0.875-1.964,0.939-2.201c0,0,0.698-2.305,0.682-3.12c0,0,0.075-1.726-0.107-1.935c0,0,0.962-0.141,1.083-0.218   c0,0,0.643-0.829,0.173-2.437c0,0-1.892,1.219-1.976,1.345c0,0-0.249-0.949-1.453-1.209c0,0-1.19-0.262-2.204,0.523   c0,0-1.559,1.642-1.596,1.667c-0.039,0.021-1.075,0.805-1.075,0.805s-1.379,0.86-1.34,1.069c0,0,0.204,1.074,0.909,1.018   c0,0,1.612-0.54,1.695-0.547c0,0,2.885,0.028,3.254-0.256c0,0-2.952,2.975-3.02,3.048c-0.066,0.075-2.322,2.593-2.461,3.057   l2.348-0.913c0,0-2.755,2.139-2.923,2.523c0,0-0.619,0.78-0.574,1.301l2.045-1.104c0,0-2.121,1.585-2,2.763   c0,0,0.181,1.585,0.5,2.106l-0.433-0.379c0,0-2.285,1.203-2.415,1.455c0,0-0.402,0.357-0.227,0.913c0,0,0.486,1.889,0.577,2.037   c0,0,0.93,2.226,0.938,2.279c0,0,0.393,1.156,0.543,1.282c0.152,0.13,0.206,0.427,1.084,0.916l0.744,0.556   c0,0,0.551,0.031,0.839-0.657c0,0-0.362-0.536-0.683-0.745c0,0-0.588,0.187-1.211-0.827c0,0-0.378-1.017-0.497-1.459l-0.494-1.889   c0,0-0.265-1.455-0.037-1.698c0,0,0.031-0.506,2.414-0.85c0,0,0.644-0.06,1.234-0.65c0,0,0.6-0.468,0.689-0.401   c0,0,0.546,1.857,0.568,1.977c0,0,0.757,3.228,0.848,3.316c0,0,0.609,2.251,0.63,2.409c0,0,0.574,2.539,0.574,2.747   c0,0,0.099,1.188,0.068,1.276c0,0-0.119,0.539-0.181,0.618l-0.432,0.714l-0.092,0.23l0.024,0.199l0.086,0.174l0.136,0.088   l0.891-0.019c0,0,0.265-1.042,0.537-1.602c0,0,0.06-0.382-0.296-1.844l-0.241-1.746c0,0-0.243-1.968-0.234-2.596l-0.053-3.3   c0,0,0.014-2.608,0.061-2.608c0,0,0.089-0.297,0.189-0.246c0,0,0.886,0.694,1.037,0.726c0,0,1.172,0.717,4.073,0.082l2.839-0.612   C38.614,62.422,41.007,61.941,41.038,61.974z"/>
	<path fill="#D81F3A" d="M30.477,46.49c0,0-2.225,0.802-2.291,0.908l1.251,0.314l0.068-0.553L30.477,46.49"/>
	<path fill="#FFFFFF" d="M40.222,63.297l0.684-0.13c0,0,0.92,1.165,0.998,1.449c0,0,0.893,1.428,1.156,1.532l0.493,0.328   l0.307,0.259c0,0,0.104,0.225,0.093,0.53c-0.008,0.291,0.032,0.544,0,0.594c0,0-0.227,0.578-0.701,0.935   c0,0-0.721,0.771-1.14,1.532c-0.42,0.755-0.906,1.396-1.049,1.657c0,0-0.604,0.906-0.604,0.982c0,0-0.133,0.307-0.153,0.65   c-0.023,0.322-0.147,0.638-0.164,0.727c0,0-0.225,0.413-0.537,0.502c0,0-0.671,0.192-0.935,0.878l-0.889,0.054   c0,0-0.055-0.233,0.081-0.351c0,0,0.872-0.714,1.282-1.346c0,0,0.134-0.183,0.32-0.536c0.182-0.354,0.376-0.881,0.627-1.551   l1.317-2.416c0,0,0.741-1.563,0.413-2.305l-1.018-2.232L40.222,63.297"/>
	<path fill="none" stroke="#FFFFFF" stroke-width="0.1584" d="M40.222,63.297l0.684-0.13c0,0,0.92,1.165,0.998,1.449   c0,0,0.893,1.428,1.156,1.532l0.493,0.328l0.307,0.259c0,0,0.104,0.225,0.093,0.53c-0.008,0.291,0.032,0.544,0,0.594   c0,0-0.227,0.578-0.701,0.935c0,0-0.721,0.771-1.14,1.532c-0.42,0.755-0.906,1.396-1.049,1.657c0,0-0.604,0.906-0.604,0.982   c0,0-0.133,0.307-0.153,0.65c-0.023,0.322-0.147,0.638-0.164,0.727c0,0-0.225,0.413-0.537,0.502c0,0-0.671,0.192-0.935,0.878   l-0.889,0.054c0,0-0.055-0.233,0.081-0.351c0,0,0.872-0.714,1.282-1.346c0,0,0.134-0.183,0.32-0.536   c0.182-0.354,0.376-0.881,0.627-1.551l1.317-2.416c0,0,0.741-1.563,0.413-2.305l-1.018-2.232L40.222,63.297z"/>
	<path fill="#D81F3A" d="M46.895,28.983c8.984-2.146,10.958-8.223,10.958-8.223c-6.703,5.003-19.059-2.473-19.059-2.473   c-8.897-5.337-11.828-4.542-11.828-4.542c-5.887-0.172-8.743,5.119-8.743,5.119l-0.058-2.302h-0.142   c0.805-0.308,1.364-1.001,1.364-1.809c0-1.096-1.03-1.985-2.3-1.985c-1.271,0-2.305,0.889-2.305,1.985   c0,0.808,0.564,1.501,1.368,1.809h-0.084l0.026,39.965l2.408,0.038l-0.044-20.74c1.748-4.196,6.353-5.52,6.353-5.52   c4.605-1.149,9.848,1.784,9.848,1.784c3.671,2.011,9.151,4.369,9.151,4.369c10.199,4.082,14.627-0.401,14.627-0.401   C53.425,36.516,46.895,28.983,46.895,28.983"/>
	<path fill="#FFFFFF" d="M32.327,21.163l-0.583-5.232c-8.747-3.571-12.406,3.117-12.406,3.117l0.756,4.413   C23.851,16.8,32.327,21.163,32.327,21.163"/>
	<path fill="#FFFFFF" d="M20.521,26.364c0.171,2.22-0.462,5.37-0.462,5.37c5.863-6.273,13.187-1.527,13.187-1.527l-0.511-5.191   C24.401,20.416,20.521,26.364,20.521,26.364"/>
	<path fill="#FFFFFF" d="M48.586,27.2c3.09-0.576,6.587-3.968,6.587-3.968c-6.812,2.448-18.534-4.943-18.534-4.943l0.584,5.518   C45.032,27.662,48.586,27.2,48.586,27.2"/>
	<path fill="#FFFFFF" d="M37.571,27.373l0.456,4.97c12.241,6.439,16.97,4.231,16.97,4.231c-2.474-0.554-6.589-4.724-6.589-4.724   L37.571,27.373"/>
	<path fill="#FFFFFF" d="M18.375,33.219c0,0,1.889-2.684-0.094-13.092L18.375,33.219z"/>
	<path fill="none" stroke="#FFFFFF" stroke-width="0.1196" d="M18.375,33.219c0,0,1.889-2.684-0.094-13.092L18.375,33.219z"/>
</g>
</svg>