<?xml version="1.0" encoding="windows-1252"?>
<!-- Generator: Adobe Illustrator 19.1.0, SVG Export Plug-In . SVG Version: 6.00 Build 0)  -->
<svg version="1.1" id="Layer_1" xmlns="http://www.w3.org/2000/svg" xmlns:xlink="http://www.w3.org/1999/xlink" x="0px" y="0px" viewBox="0 0 408.63 261.341" style="enable-background:new 0 0 408.63 261.341;" xml:space="preserve">
<g>
	<g>
		<path style="fill:#6D6E71;" d="M153.97,174.746h-10.435l-1.712,3.655h-4.078l8.953-19.371h4.107l8.956,19.371h-4.107    L153.97,174.746z M148.753,163.098l-3.707,8.246h7.416L148.753,163.098z"/>
		<path style="fill:#6D6E71;" d="M181.02,175.965c-2.053,1.965-4.704,2.879-7.585,2.879c-7.413,0-10.55-4.954-10.579-9.99    c-0.027-5.063,3.365-10.211,10.579-10.211c2.709,0,5.276,0.997,7.33,2.963l-2.51,2.351c-1.312-1.246-3.08-1.825-4.82-1.825    c-4.819,0-6.9,3.485-6.873,6.723c0.029,3.211,1.941,6.558,6.873,6.558c1.739,0,3.709-0.693,5.021-1.965L181.02,175.965z"/>
		<path style="fill:#6D6E71;" d="M191.154,162.352h-6.328v-3.321c5.758,0,10.636,0,16.423,0v3.321h-6.33v16.05h-3.765V162.352z"/>
		<path style="fill:#6D6E71;" d="M224.792,159.058v11.095c0,5.728-3.621,8.661-8.641,8.661c-4.79,0-8.867-2.82-8.867-8.661v-11.095    h3.736v11.095c0,3.488,2.053,5.34,5.161,5.34c3.107,0,4.876-2.019,4.876-5.34v-11.095H224.792z"/>
		<path style="fill:#6D6E71;" d="M249.328,178.401h-4.475l-5.819-6.475h-3.621v6.475h-3.766v-19.4c3.166,0,6.333,0.029,9.496,0.029    c4.706,0.027,7.187,3.07,7.187,6.419c0,2.655-1.255,5.342-5.048,6.089l6.045,6.612V178.401z M235.413,162.433v6.197h5.731    c2.397,0,3.424-1.548,3.424-3.098s-1.056-3.1-3.424-3.1H235.413z"/>
		<path style="fill:#6D6E71;" d="M254.047,178.401v-19.371h3.736v19.371H254.047z"/>
		<path style="fill:#6D6E71;" d="M277.367,163.707c-0.685-1.108-2.567-2.162-4.733-2.162c-2.795,0-4.134,1.135-4.134,2.574    c0,1.69,2.051,2.159,4.448,2.437c4.164,0.496,8.04,1.548,8.04,6.171c0,4.318-3.935,6.17-8.384,6.17    c-4.078,0-7.214-1.218-8.698-4.76l3.139-1.577c0.882,2.132,3.193,3.073,5.618,3.073c2.366,0,4.591-0.803,4.591-2.906    c0-1.828-1.967-2.574-4.62-2.85c-4.078-0.472-7.843-1.523-7.843-5.866c0-3.987,4.051-5.62,7.73-5.647    c3.107,0,6.33,0.857,7.841,3.847L277.367,163.707z"/>
		<path style="fill:#6D6E71;" d="M310.801,163.762c-1.341-1.245-3.338-1.936-5.077-1.936c-4.277,0-6.873,3.154-6.873,7.138    c0,3.183,1.911,6.475,6.873,6.475c1.57,0,2.938-0.332,4.507-1.55v-3.432h-5.107v-3.264h8.556v8.162    c-1.968,2.186-4.449,3.488-7.956,3.488c-7.499,0-10.55-4.787-10.55-9.879c0-5.453,3.508-10.489,10.55-10.489    c2.682,0,5.362,0.997,7.416,2.963L310.801,163.762z"/>
		<path style="fill:#6D6E71;" d="M337.332,178.401h-4.475l-5.819-6.475h-3.621v6.475h-3.766v-19.4c3.166,0,6.333,0.029,9.496,0.029    c4.706,0.027,7.187,3.07,7.187,6.419c0,2.655-1.255,5.342-5.048,6.089l6.045,6.612V178.401z M323.416,162.433v6.197h5.731    c2.397,0,3.424-1.548,3.424-3.098s-1.056-3.1-3.424-3.1H323.416z"/>
		<path style="fill:#6D6E71;" d="M361.642,168.827c-0.056,5.006-3.223,10.017-10.238,10.017c-7.015,0-10.265-4.898-10.265-9.99    s3.365-10.211,10.265-10.211C358.277,158.642,361.699,163.762,361.642,168.827z M344.846,168.91    c0.086,3.181,1.855,6.583,6.558,6.583c4.706,0,6.475-3.429,6.531-6.612c0.057-3.265-1.825-6.917-6.531-6.917    C346.7,161.964,344.76,165.643,344.846,168.91z"/>
		<path style="fill:#6D6E71;" d="M385.066,159.058v11.095c0,5.728-3.62,8.661-8.641,8.661c-4.79,0-8.867-2.82-8.867-8.661v-11.095    h3.736v11.095c0,3.488,2.054,5.34,5.161,5.34c3.107,0,4.876-2.019,4.876-5.34v-11.095H385.066z"/>
		<path style="fill:#6D6E71;" d="M401.305,172.7h-5.647v5.701h-3.763v-19.371c3.137,0,6.273-0.029,9.41-0.029    C411.056,159.001,411.086,172.7,401.305,172.7z M395.658,169.352h5.647c4.819,0,4.79-6.863,0-6.863h-5.647V169.352z"/>
	</g>
	<g>
		<path style="fill:#00548B;" d="M43.427,72.089c-0.916,6.298-10.793,10.081-22.06,8.443C10.099,78.893,1.708,72.458,2.622,66.159    c0.919-6.301,10.793-10.081,22.063-8.442C35.95,59.355,44.343,65.791,43.427,72.089z"/>
		<path style="opacity:0.9;fill:#00548B;" d="M60.037,27.732c-1.511,3.662-9.064,4.023-16.87,0.806s-12.911-8.794-11.4-12.459    c1.513-3.66,9.061-4.023,16.87-0.806C56.438,18.491,61.547,24.07,60.037,27.732z"/>
		<path style="opacity:0.65;fill:#00548B;" d="M91.053,12.13c-1.312,2.324-6.6,1.82-11.81-1.13    c-5.205-2.948-8.359-7.217-7.042-9.541c1.314-2.324,6.595-1.818,11.805,1.13C89.211,5.537,92.372,9.811,91.053,12.13z"/>
		<path style="opacity:0.4;fill:#00548B;" d="M122.084,14.267c-0.982,1.336-4.618,0.327-8.116-2.26    c-3.493-2.584-5.522-5.763-4.534-7.096c0.988-1.334,4.618-0.322,8.113,2.262C121.04,9.757,123.079,12.935,122.084,14.267z"/>
		<path style="opacity:0.3;fill:#00548B;" d="M150.175,24.893c-0.766,0.879-3.584-0.337-6.291-2.712    c-2.707-2.373-4.277-5.006-3.505-5.881c0.766-0.874,3.579,0.339,6.288,2.712C149.369,21.385,150.949,24.018,150.175,24.893z"/>
		<path style="opacity:0.1;fill:#00548B;" d="M173.69,39.874c-0.82,0.828-3.139-0.14-5.173-2.164    c-2.036-2.019-3.021-4.328-2.199-5.156c0.82-0.825,3.132,0.145,5.171,2.164C173.52,36.74,174.515,39.051,173.69,39.874z"/>
		<path style="fill:#00548B;" d="M63.466,141.574c3.395,8.804-3.513,19.675-15.438,24.279c-11.923,4.603-24.345,1.199-27.742-7.6    c-3.395-8.809,3.51-19.675,15.433-24.283C47.645,129.366,60.066,132.771,63.466,141.574z"/>
		<path style="opacity:0.9;fill:#00548B;" d="M119.235,201.06c8.199,3.338,10.977,15.571,6.2,27.337    c-4.778,11.761-15.298,18.599-23.495,15.269c-8.204-3.336-10.985-15.568-6.21-27.337    C100.508,204.565,111.033,197.729,119.235,201.06z"/>
		<path style="opacity:0.8;fill:#00548B;" d="M183.296,223.847c5.952-0.243,11.132,7.944,11.562,18.3    c0.432,10.346-4.046,18.938-9.995,19.189c-5.959,0.241-11.139-7.944-11.572-18.295C172.859,232.69,177.34,224.095,183.296,223.847    z"/>
		<path style="opacity:0.7;fill:#00548B;" d="M222.701,206.972c3.323-0.924,7.728,4.446,9.833,12.004    c2.103,7.553,1.105,14.426-2.215,15.355c-3.333,0.921-7.738-4.446-9.843-12.004C218.373,214.773,219.368,207.896,222.701,206.972z    "/>
	</g>
	<g>
		<path d="M152.295,54.35c0,1.766-0.631,3.217-1.892,4.353c-1.262,1.135-2.65,1.703-4.164,1.703c-1.514,0-2.902-0.568-4.164-1.703    c-1.262-1.136-1.892-2.587-1.892-4.353s0.631-3.217,1.892-4.353c1.262-1.136,2.65-1.703,4.164-1.703    c1.514,0,2.902,0.568,4.164,1.703C151.664,51.133,152.295,52.584,152.295,54.35z M150.403,136.109h-8.327V77.061h8.327V136.109z"/>
		<path d="M210.963,90.94c-1.431-2.186-3.428-4.037-5.993-5.551c-2.567-1.514-5.488-2.271-8.769-2.271    c-3.45-0.083-6.541,0.463-9.274,1.64c-2.734,1.179-5.069,2.819-7.003,4.921c-1.936,2.104-3.407,4.605-4.416,7.507    c-1.009,2.902-1.514,6.036-1.514,9.4c0,3.365,0.505,6.498,1.514,9.4c1.009,2.902,2.48,5.406,4.416,7.507    c1.934,2.104,4.268,3.744,7.003,4.921c2.732,1.179,5.823,1.725,9.274,1.64c3.28,0,6.202-0.757,8.769-2.271    c2.565-1.514,4.562-3.363,5.993-5.552l6.813,5.173c-2.945,3.45-6.267,5.993-9.967,7.633c-3.702,1.64-7.57,2.502-11.608,2.586    c-4.794,0.083-9.128-0.652-12.996-2.207c-3.87-1.556-7.172-3.722-9.904-6.498c-2.734-2.776-4.816-6.076-6.245-9.904    c-1.431-3.826-2.145-7.969-2.145-12.428c0-4.457,0.714-8.599,2.145-12.428c1.429-3.827,3.511-7.129,6.245-9.904    c2.732-2.776,6.035-4.94,9.904-6.498c3.868-1.555,8.201-2.291,12.996-2.208c4.037,0.085,7.905,0.946,11.608,2.586    c3.7,1.64,7.022,4.185,9.967,7.633L210.963,90.94z"/>
		<path d="M232.033,108.856c0.253,2.945,0.966,5.721,2.145,8.327c1.177,2.608,2.732,4.858,4.668,6.75    c1.934,1.892,4.164,3.387,6.687,4.479c2.523,1.094,5.256,1.64,8.201,1.64c4.458,0,8.306-1.029,11.545-3.091    c3.237-2.06,5.697-4.436,7.381-7.129l6.435,5.299c-3.533,4.459-7.424,7.655-11.671,9.589c-4.248,1.934-8.812,2.902-13.69,2.902    c-4.375,0-8.434-0.779-12.175-2.334c-3.744-1.555-6.961-3.722-9.652-6.498c-2.693-2.776-4.816-6.056-6.371-9.841    c-1.558-3.785-2.334-7.905-2.334-12.365c0-4.457,0.757-8.58,2.271-12.365c1.514-3.785,3.616-7.065,6.309-9.841    c2.691-2.776,5.845-4.94,9.463-6.498c3.616-1.555,7.527-2.334,11.734-2.334c4.458,0,8.453,0.8,11.986,2.397    c3.533,1.599,6.498,3.722,8.895,6.371c2.397,2.65,4.227,5.763,5.488,9.337c1.262,3.576,1.893,7.381,1.893,11.418v3.785H232.033z     M272.155,102.043c0-5.634-1.684-10.198-5.047-13.689c-3.365-3.489-8.075-5.236-14.131-5.236c-2.693,0-5.299,0.527-7.823,1.577    c-2.523,1.053-4.731,2.46-6.624,4.227c-1.893,1.766-3.406,3.785-4.542,6.056c-1.135,2.271-1.703,4.627-1.703,7.065H272.155z"/>
	</g>
</g>
</svg>