<?xml version="1.0" encoding="utf-8"?>
<!-- Generator: Adobe Illustrator 16.0.0, SVG Export Plug-In . SVG Version: 6.00 Build 0)  -->
<!DOCTYPE svg PUBLIC "-//W3C//DTD SVG 1.1//EN" "http://www.w3.org/Graphics/SVG/1.1/DTD/svg11.dtd">
<svg version="1.1" id="Layer_1" xmlns="http://www.w3.org/2000/svg" xmlns:xlink="http://www.w3.org/1999/xlink" x="0px" y="0px"
	 width="367.2px" height="135.571px" viewBox="75.933 154.938 367.2 135.571" enable-background="new 75.933 154.938 367.2 135.571"
	 xml:space="preserve">
<g>
	<path fill="#2E2E2E" d="M151.337,220.08c-8.118-1.024-14.847,4.478-20.031,11.645c-0.331,0.461-0.89,0.642-1.418,0.461
		c-0.53-0.183-0.871-0.667-0.871-1.24v-4.997c0-2.877-2.286-5.226-5.088-5.226h-12.504c-2.798,0-5.084,2.347-5.086,5.22
		l-0.023,56.624c0,2.875,2.285,5.225,5.086,5.225h12.527c2.802,0,5.088-2.345,5.088-5.225v-13.542
		c0-10.152,12.336-24.588,22.321-25.321V220.08H151.337z"/>
	<path fill="#2E2E2E" d="M100.092,282.569v-76.557c0-2.878-2.285-5.225-5.086-5.225H81.021c-2.802,0-5.088,2.347-5.088,5.225v76.557
		c0,2.879,2.285,5.225,5.088,5.225h13.984C97.807,287.794,100.092,285.448,100.092,282.569z"/>
	<path fill="#2E2E2E" d="M188.29,219.682c19.309,0,34.962,15.856,34.962,35.416c0,19.554-15.653,35.412-34.962,35.412
		c-19.31,0-34.964-15.858-34.964-35.412C153.326,235.541,168.98,219.682,188.29,219.682L188.29,219.682z M188.289,240.33
		c-8.049,0-14.577,6.613-14.577,14.768c0,8.153,6.528,14.764,14.577,14.764c8.051,0,14.577-6.61,14.577-14.764
		C202.866,246.94,196.34,240.33,188.289,240.33z"/>
	<path fill="#2E2E2E" d="M384.765,219.682c19.308,0,34.964,15.856,34.964,35.416c0,19.554-15.656,35.412-34.964,35.412
		c-19.31,0-34.965-15.858-34.965-35.412C349.8,235.541,365.455,219.682,384.765,219.682L384.765,219.682z M384.765,240.33
		c-8.053,0-14.577,6.613-14.577,14.768c0,8.153,6.522,14.764,14.577,14.764c8.05,0,14.575-6.61,14.575-14.764
		C399.34,246.94,392.814,240.33,384.765,240.33z"/>
	<path fill="#2E2E2E" d="M292.076,282.569v-36.66c0-23.433-24.327-31.04-39.2-16.396l-2.642-4.508
		c-0.944-1.614-2.521-2.531-4.359-2.531h-13.161c-2.801,0-5.086,2.347-5.086,5.225v54.868c0,2.88,2.285,5.225,5.088,5.222
		l15.07,0.003c2.802,0,5.09-2.345,5.09-5.225v-16.826v-7.856v-8.843c0-3.958,3.119-7.167,6.975-7.167
		c3.856,0,6.984,3.209,6.984,7.167v8.843v7.856v16.826c0,2.88,2.281,5.225,5.081,5.225h15.075
		C289.789,287.794,292.076,285.448,292.076,282.569z"/>
	<path fill="#A0261F" d="M262.734,203.895c-0.416,0.62-1.399,2.411-2.612,4.794h11.17c0.5,0,0.98,0.077,1.432,0.225
		c4.354-5.983,9.624-9.948,15.296-11.896c6.198-2.129,13.01-1.873,19.758,0.757l-0.002,0.013c2.739,1.068,5.794-0.26,6.972-2.976
		c5.89-11.359,13.084-19.065,20.741-23.585c5.737-3.389,11.759-5.005,17.675-5.039c5.927-0.033,11.796,1.516,17.22,4.454
		c7.306,3.951,13.787,10.399,18.529,18.873l4.75-2.802l-4.765,2.814c1.186,2.118,3.501,3.146,5.716,2.747
		c11.216-1.107,20.245,2.303,26.591,8.313c4.546,4.305,7.782,9.979,9.506,16.31c1.761,6.438,1.957,13.542,0.402,20.585
		c-1.181,5.34-3.376,10.646-6.666,15.615c0.328,2.115,0.506,4.281,0.506,6.49c0,4.062-0.588,7.981-1.676,11.684
		c10.037-9.008,16.05-20.079,18.528-31.32c1.969-8.896,1.711-17.903-0.526-26.097c-2.266-8.309-6.566-15.805-12.643-21.561
		c-7.938-7.518-18.813-12.022-32.048-11.449c-5.621-8.89-12.928-15.757-21.093-20.175c-6.985-3.78-14.611-5.777-22.376-5.73
		c-7.773,0.042-15.64,2.139-23.087,6.537c-3.386,2-6.686,4.475-9.842,7.451l-61.07,4.363l55.271,1.886
		c-2.562,3.13-4.991,6.649-7.259,10.565c-7.664-2.077-15.373-1.878-22.588,0.602c-6.393,2.193-11.81,5.579-16.915,11.317
		l-43.689,2.915l39.807,1.87C263.403,202.914,263.063,203.4,262.734,203.895z"/>
	<path fill="#2E2E2E" d="M341.315,223.709H328.58c-2.541,0-4.613,2.435-4.613,5.419v53.246c0,2.986,2.072,5.42,4.613,5.42h12.735
		c2.537,0,4.612-2.434,4.612-5.42v-53.246C345.928,226.144,343.853,223.709,341.315,223.709z"/>
	<path fill="#2E2E2E" d="M315.233,264.198h-14.636c-2.521,0-4.617,2.458-4.617,5.42v12.756c0,2.962,2.073,5.42,4.617,5.42h14.636
		c2.543,0,4.613-2.434,4.613-5.42v-12.756C319.847,266.634,317.754,264.198,315.233,264.198z"/>
	<path fill="#2E2E2E" d="M341.311,203.093h-12.73c-2.529,0-4.615,2.449-4.615,5.418v4.471c0,2.966,2.071,5.42,4.615,5.42h12.73
		c2.542,0,4.614-2.434,4.614-5.42v-4.471C345.925,205.526,343.837,203.093,341.311,203.093z"/>
</g>
</svg>
