<svg id="Layer_1" data-name="Layer 1" xmlns="http://www.w3.org/2000/svg" viewBox="0 0 404.09 92.12"><defs><style>.cls-1{fill:#1c4798;}.cls-2{fill:#fff;}</style></defs><title>OmniSci_Secondary_HorizontalBox</title><rect class="cls-1" width="404.09" height="92.12"/><path class="cls-2" d="M207.31,303.8V287.59a15.31,15.31,0,0,0-.18-2.38,5.64,5.64,0,0,0-.64-2,3.8,3.8,0,0,0-1.26-1.32,3.92,3.92,0,0,0-2.09-.5A4.19,4.19,0,0,0,201,282a4.68,4.68,0,0,0-1.53,1.41,6.26,6.26,0,0,0-.91,2,9.27,9.27,0,0,0-.29,2.37v16h-9.63V286.88a7.05,7.05,0,0,0-1-4,3.57,3.57,0,0,0-3.17-1.47,4.1,4.1,0,0,0-3.56,1.82,7.67,7.67,0,0,0-1.26,4.47V303.8H170V274.32h9.34v4.05h.12a9.65,9.65,0,0,1,1.32-1.82,8.23,8.23,0,0,1,1.91-1.56,10.84,10.84,0,0,1,2.49-1.09,10.73,10.73,0,0,1,3-.41,10.47,10.47,0,0,1,5.37,1.3,8.87,8.87,0,0,1,3.44,3.7,11.18,11.18,0,0,1,3.75-3.65,10.83,10.83,0,0,1,5.58-1.35,10.56,10.56,0,0,1,5,1.09,9.34,9.34,0,0,1,3.26,2.82,11.67,11.67,0,0,1,1.79,3.88,16.16,16.16,0,0,1,.56,4.19V303.8Z" transform="translate(-87.8 -242.96)"/><path class="cls-2" d="M261,303.8V287.59a12.7,12.7,0,0,0-.2-2.35,6.45,6.45,0,0,0-.68-2,3.43,3.43,0,0,0-1.32-1.35,4.21,4.21,0,0,0-2.14-.5,4.89,4.89,0,0,0-2.26.5,4.5,4.5,0,0,0-1.62,1.38,6.36,6.36,0,0,0-1,2,8.88,8.88,0,0,0-.32,2.38v16.1h-9.69V274.32h9.34v4.05h.12a9.45,9.45,0,0,1,1.38-1.85,8.09,8.09,0,0,1,2-1.56,13,13,0,0,1,2.5-1.06,10,10,0,0,1,2.88-.41,10.88,10.88,0,0,1,5,1.06,9.75,9.75,0,0,1,3.32,2.73,11,11,0,0,1,1.82,3.85,17.51,17.51,0,0,1,.55,4.34V303.8Z" transform="translate(-87.8 -242.96)"/><path class="cls-2" d="M295.75,303.8V274.32h9.63V303.8Z" transform="translate(-87.8 -242.96)"/><path class="cls-2" d="M133.82,273.46a15.6,15.6,0,1,0,15.6,15.6A15.6,15.6,0,0,0,133.82,273.46Zm-.06,23.12a7.52,7.52,0,0,1,0-15,7.53,7.53,0,0,1,0,15Z" transform="translate(-87.8 -242.96)"/><path class="cls-2" d="M378.37,283.05a10.75,10.75,0,0,0-2.76-1.88,7.61,7.61,0,0,0-3.35-.76,5.74,5.74,0,0,0-2.49.53,1.94,1.94,0,0,0,.11,3.59A28.12,28.12,0,0,0,374,285.7a22.41,22.41,0,0,1,3.32,1,12.12,12.12,0,0,1,3,1.71,8.23,8.23,0,0,1,2.17,2.59,7.6,7.6,0,0,1,.82,3.65,8.76,8.76,0,0,1-4,7.77,12.46,12.46,0,0,1-4,1.71,19.5,19.5,0,0,1-4.47.53,21.87,21.87,0,0,1-7-1.15,14.71,14.71,0,0,1-5.73-3.38l5.4-5.71a10.87,10.87,0,0,0,3.17,2.35,8.81,8.81,0,0,0,4,.94,5.17,5.17,0,0,0,2.32-.56,2,2,0,0,0,1.14-2,2.11,2.11,0,0,0-1.41-2,25.23,25.23,0,0,0-4.4-1.35,22.42,22.42,0,0,1-3.06-.95,10,10,0,0,1-2.73-1.58,8,8,0,0,1-2-2.48,7.57,7.57,0,0,1-.77-3.53,8.58,8.58,0,0,1,1.12-4.5,9.28,9.28,0,0,1,2.88-3,12.51,12.51,0,0,1,3.9-1.74,17,17,0,0,1,4.26-.56,20.41,20.41,0,0,1,6.43,1,13.92,13.92,0,0,1,5.31,3.09Z" transform="translate(-87.8 -242.96)"/><path class="cls-2" d="M424.29,294.3a6.87,6.87,0,0,1-5.18,2.28,7.52,7.52,0,0,1,0-15,6.84,6.84,0,0,1,5.18,2.28l5.41-6.27a15.61,15.61,0,1,0,0,23l-5.41-6.26Z" transform="translate(-87.8 -242.96)"/><path class="cls-2" d="M461.44,274.33v29.49h-9.63V274.33Z" transform="translate(-87.8 -242.96)"/><circle class="cls-2" cx="244.44" cy="46.02" r="5.67"/><rect class="cls-1" width="404.09" height="92.12"/><path class="cls-2" d="M207.31,303.8V287.59a15.31,15.31,0,0,0-.18-2.38,5.64,5.64,0,0,0-.64-2,3.8,3.8,0,0,0-1.26-1.32,3.92,3.92,0,0,0-2.09-.5A4.19,4.19,0,0,0,201,282a4.68,4.68,0,0,0-1.53,1.41,6.26,6.26,0,0,0-.91,2,9.27,9.27,0,0,0-.29,2.37v16h-9.63V286.88a7.05,7.05,0,0,0-1-4,3.57,3.57,0,0,0-3.17-1.47,4.1,4.1,0,0,0-3.56,1.82,7.67,7.67,0,0,0-1.26,4.47V303.8H170V274.32h9.34v4.05h.12a9.65,9.65,0,0,1,1.32-1.82,8.23,8.23,0,0,1,1.91-1.56,10.84,10.84,0,0,1,2.49-1.09,10.73,10.73,0,0,1,3-.41,10.47,10.47,0,0,1,5.37,1.3,8.87,8.87,0,0,1,3.44,3.7,11.18,11.18,0,0,1,3.75-3.65,10.83,10.83,0,0,1,5.58-1.35,10.56,10.56,0,0,1,5,1.09,9.34,9.34,0,0,1,3.26,2.82,11.67,11.67,0,0,1,1.79,3.88,16.16,16.16,0,0,1,.56,4.19V303.8Z" transform="translate(-87.8 -242.96)"/><path class="cls-2" d="M261,303.8V287.59a12.7,12.7,0,0,0-.2-2.35,6.45,6.45,0,0,0-.68-2,3.43,3.43,0,0,0-1.32-1.35,4.21,4.21,0,0,0-2.14-.5,4.89,4.89,0,0,0-2.26.5,4.5,4.5,0,0,0-1.62,1.38,6.36,6.36,0,0,0-1,2,8.88,8.88,0,0,0-.32,2.38v16.1h-9.69V274.32h9.34v4.05h.12a9.45,9.45,0,0,1,1.38-1.85,8.09,8.09,0,0,1,2-1.56,13,13,0,0,1,2.5-1.06,10,10,0,0,1,2.88-.41,10.88,10.88,0,0,1,5,1.06,9.75,9.75,0,0,1,3.32,2.73,11,11,0,0,1,1.82,3.85,17.51,17.51,0,0,1,.55,4.34V303.8Z" transform="translate(-87.8 -242.96)"/><path class="cls-2" d="M295.75,303.8V274.32h9.63V303.8Z" transform="translate(-87.8 -242.96)"/><path class="cls-2" d="M133.82,273.46a15.6,15.6,0,1,0,15.6,15.6A15.6,15.6,0,0,0,133.82,273.46Zm-.06,23.12a7.52,7.52,0,0,1,0-15,7.53,7.53,0,0,1,0,15Z" transform="translate(-87.8 -242.96)"/><path class="cls-2" d="M378.37,283.05a10.75,10.75,0,0,0-2.76-1.88,7.61,7.61,0,0,0-3.35-.76,5.74,5.74,0,0,0-2.49.53,1.94,1.94,0,0,0,.11,3.59A28.12,28.12,0,0,0,374,285.7a22.41,22.41,0,0,1,3.32,1,12.12,12.12,0,0,1,3,1.71,8.23,8.23,0,0,1,2.17,2.59,7.6,7.6,0,0,1,.82,3.65,8.76,8.76,0,0,1-4,7.77,12.46,12.46,0,0,1-4,1.71,19.5,19.5,0,0,1-4.47.53,21.87,21.87,0,0,1-7-1.15,14.71,14.71,0,0,1-5.73-3.38l5.4-5.71a10.87,10.87,0,0,0,3.17,2.35,8.81,8.81,0,0,0,4,.94,5.17,5.17,0,0,0,2.32-.56,2,2,0,0,0,1.14-2,2.11,2.11,0,0,0-1.41-2,25.23,25.23,0,0,0-4.4-1.35,22.42,22.42,0,0,1-3.06-.95,10,10,0,0,1-2.73-1.58,8,8,0,0,1-2-2.48,7.57,7.57,0,0,1-.77-3.53,8.58,8.58,0,0,1,1.12-4.5,9.28,9.28,0,0,1,2.88-3,12.51,12.51,0,0,1,3.9-1.74,17,17,0,0,1,4.26-.56,20.41,20.41,0,0,1,6.43,1,13.92,13.92,0,0,1,5.31,3.09Z" transform="translate(-87.8 -242.96)"/><path class="cls-2" d="M424.29,294.3a6.87,6.87,0,0,1-5.18,2.28,7.52,7.52,0,0,1,0-15,6.84,6.84,0,0,1,5.18,2.28l5.41-6.27a15.61,15.61,0,1,0,0,23l-5.41-6.26Z" transform="translate(-87.8 -242.96)"/><path class="cls-2" d="M461.44,274.33v29.49h-9.63V274.33Z" transform="translate(-87.8 -242.96)"/><circle class="cls-2" cx="244.44" cy="46.02" r="5.67"/></svg>