<svg xmlns="http://www.w3.org/2000/svg" width="810" height="153.976" viewBox="0 0 810 153.976">
  <g id="Grupo_2581" data-name="Grupo 2581" transform="translate(-81.288 -276.142)">
    <path id="Trazado_15348" data-name="Trazado 15348" d="M273.021,277.25v136.3q0,11.81-12.189,11.806h-21.44q-5.2,0-8.125-2.255a22.273,22.273,0,0,1-5.643-7.4l-40.853-78.99q-7.673-15.665-9.479-22.965h-2.482a162.94,162.94,0,0,1,1.579,23.61v88.005H141.665v-136.3q0-11.8,12.414-11.806h20.989q5.186,0,8.125,2.252a22.388,22.388,0,0,1,5.643,7.407l39.5,76.629q5.639,10.737,11.285,23.824h2.257q-1.355-16.742-1.356-24.9V277.25Z" transform="translate(90.55 1.827)" fill="#00adb5"/>
    <path id="Trazado_15349" data-name="Trazado 15349" d="M324.221,341.733v85.59H298.943l-3.16-14.837q-18.061,17.633-44.914,17.631-26.183,0-37.917-18.278T201.215,352.7q0-43.436,15.461-60t54.281-16.561q28.21,0,47.847,5.162L316.1,305.39q-25.512-1.071-44.013-1.076-10.383,0-16.361,1.613a20.62,20.62,0,0,0-10.5,6.99q-4.514,5.376-6.093,14.946t-1.581,25.913q0,27.738,5.417,38.062t20.086,10.324q13.542,0,27.986-7.527v-52.9Z" transform="translate(180.066 0)" fill="#00adb5"/>
    <path id="Trazado_15350" data-name="Trazado 15350" d="M380.9,426.622H344.566L332.83,381.3q-2.261-7.087-5.982-9.772t-10.721-2.685l-24.15-.214v57.992H258.124V278.417q20.989-1.933,59.357-1.934,31.369,0,44.463,9.452t13.09,34.368q0,16.325-6.885,25.557t-22.9,11.171V358.1q17.822,3.865,22.118,22.337ZM291.978,343.5h24.828q13.539,0,18.507-4.4t4.965-16.647q0-12.241-4.853-16.539t-18.618-4.293l-24.828.212Z" transform="translate(265.521 0.563)" fill="#00adb5"/>
    <path id="Trazado_15351" data-name="Trazado 15351" d="M417.342,400.258l1.579,24.052q-21.22,2.148-72.222,2.148-15.577,0-24.828-8.053t-9.479-21.8V306.843q.222-13.736,9.479-21.8t24.828-8.053q51,0,72.222,2.15l-1.579,24.266h-59.81q-5.647,0-8.125,2.576t-2.482,8.376v22.547h62.067v23.621H346.925v28.563q0,6.011,2.482,8.588t8.125,2.578Z" transform="translate(347.751 1.405)" fill="#00adb5"/>
    <path id="Trazado_15352" data-name="Trazado 15352" d="M423.321,371.2,391.95,360.657q-17.381-6.02-24.825-16.342t-7.45-27.1q0-24.516,12.525-32.8t44.122-8.279q29.795,0,51.235,5.808L465.3,304.314q-19.634-.643-48.75-.643-13.539,0-18.054,2.256t-4.517,11.291q0,7.311,3.386,10.536t12.867,6.237l29.565,9.677q18.057,6.025,25.5,16.45t7.447,27.206q0,24.948-12.637,33.867t-45.139,8.925a263.969,263.969,0,0,1-53.489-5.591l2.029-23.654q48.074,1.079,51.46,1.073,13.765,0,18.393-2.794t4.628-11.611q0-7.527-3.16-10.645T423.321,371.2Z" transform="translate(418.542 0)" fill="#00adb5"/>
    <g id="Grupo_1447" data-name="Grupo 1447" transform="translate(81.288 276.142)">
      <path id="Trazado_15353" data-name="Trazado 15353" d="M133.005,277.279v42.7q0,13.122-3.6,18.05c-2.384,3.285-6.649,4.912-12.8,4.912-6.12,0-10.358-1.627-12.742-4.912s-3.576-9.3-3.576-18.05V277.247a111.724,111.724,0,0,1,16.239-1.1A109.983,109.983,0,0,1,133.005,277.279Z" transform="translate(-49.954 -276.142)" fill="#00adb5"/>
      <g id="Grupo_1446" data-name="Grupo 1446" transform="translate(0 3.926)">
        <path id="Trazado_15354" data-name="Trazado 15354" d="M200,290.32q-7.693-8.615-21.668-12.7v74.659h-.011q-.163,28.181-6.422,38.449-6.43,10.524-24.036,10.525t-24.039-10.525q-6.263-10.249-6.422-38.449H117.4V277.632q-13.908,4.1-21.554,12.688-14.552,16.431-14.557,60.463t14.557,60.46q14.56,16.431,52.024,16.43T200,411.243q14.671-16.431,14.671-60.46T200,290.32Z" transform="translate(-81.288 -277.624)" fill="#00adb5"/>
      </g>
    </g>
  </g>
</svg>
