<svg xmlns="http://www.w3.org/2000/svg" viewBox="0 0 188.1 94.05"><defs><style>.cls-1{fill:#d05857;}.cls-2{fill:#fff;}</style></defs><title>logo</title><g id="Layer_2" data-name="Layer 2"><g id="home"><rect class="cls-1" width="188.1" height="94.05"/><path class="cls-2" d="M16.4,53h.2c2.5,0,5,0,7.5,0a7.86,7.86,0,0,1,4,1,6.64,6.64,0,0,1,3,3.91A10.36,10.36,0,0,1,31,64.07a7.16,7.16,0,0,1-2.73,3.84A6.46,6.46,0,0,1,25,69.09c-1.16.09-2.34.06-3.51.08h-.59V76H16.6a1.38,1.38,0,0,1-.2,0Zm4.53,3.89v8.51h.13c.83,0,1.66,0,2.49,0a3.47,3.47,0,0,0,.64-.06,3.35,3.35,0,0,0,2.71-2.44,6.72,6.72,0,0,0,.22-2.68,4,4,0,0,0-.52-1.75,3.28,3.28,0,0,0-2.82-1.57c-.92,0-1.84,0-2.76,0Z"/><path class="cls-2" d="M47.71,75.89V80H35.28V57h4.37V53h7.69v4H39.67V64.2h7.1v3.73h-7.1v8Z"/><path class="cls-2" d="M56,61V76H51.88V53h5a.21.21,0,0,1,.23.16L64.62,72a.6.6,0,0,0,.09.13l0,0V57.1h4V80h-.16c-1.57,0-3.14,0-4.7,0a.2.2,0,0,1-.23-.15c-1.94-4.84-6.94-17.28-7.5-18.67L56,60.93Z"/><path class="cls-2" d="M78.88,80.67l-.89-.1a9.42,9.42,0,0,1-5.65-2.84l-.14-.16,2.46-3.33c.28.27.54.55.83.79a5.89,5.89,0,0,0,3.84,1.47,3.18,3.18,0,0,0,3.23-2.64,4.61,4.61,0,0,0-.18-2.7,3.57,3.57,0,0,0-1.1-1.42,13.88,13.88,0,0,0-2.54-1.63,15.7,15.7,0,0,1-2.62-1.55,7,7,0,0,1-2.83-5.06,9.53,9.53,0,0,1,.34-4,7.08,7.08,0,0,1,5.63-5c.32-.07.64-.09.95-.14a.24.24,0,0,0,.09,0h1.3l.8.1a7.8,7.8,0,0,1,4.31,1.93c.2.19.41.36.62.55l-2.5,3.27c-.17-.14-.35-.27-.51-.42A4.49,4.49,0,0,0,80,56.58a2.85,2.85,0,0,0-2,1.63A4.48,4.48,0,0,0,78,61.9a3,3,0,0,0,.86,1.1,12.16,12.16,0,0,0,2.35,1.53,19.09,19.09,0,0,1,2.89,1.71,7.6,7.6,0,0,1,2.81,4,8.74,8.74,0,0,1,.25,3A8.4,8.4,0,0,1,86,77.06a7,7,0,0,1-5.08,3.47c-.31.06-.62.08-.93.11l-.09,0Z"/><path class="cls-2" d="M98.15,57.18q-2,9.39-4,18.79H89.61Q92,66.52,94.3,57.09h3.86c-.29-1.36-.58-2.7-.87-4.07H101c.14,0,.19,0,.22.18.9,3.69,6.21,25.41,6.5,26.61,0,0,0,.1,0,.17h-4.68q-2.44-11.4-4.87-22.79Z"/><path class="cls-2" d="M123.44,72.15v-15h3.94V80h-.18c-1.56,0-3.12,0-4.69,0a.21.21,0,0,1-.23-.17c-2.2-5.48-7.22-18-7.52-18.72l-.08-.16h-.05V76h-4.08V53h5.06a.2.2,0,0,1,.22.15L123.27,72c0,.07.07.13.1.2Z"/><path class="cls-2" d="M136.64,76h-4.59V53h.18c2.31,0,4.62,0,6.93,0a9.77,9.77,0,0,1,5.23,1.43,9.1,9.1,0,0,1,3.23,3.62,14.72,14.72,0,0,1,1.44,4.44,26.35,26.35,0,0,1,.29,5,18.78,18.78,0,0,1-1.09,6A10.66,10.66,0,0,1,146,77.3a8.6,8.6,0,0,1-4.47,2.4,12.37,12.37,0,0,1-2.72.28h-2.12Zm0,0h2.44a5.51,5.51,0,0,0,.57-.06,5,5,0,0,0,3.43-2.27,10.19,10.19,0,0,0,1.54-4.54,20.65,20.65,0,0,0,.15-3.15,17.44,17.44,0,0,0-.41-3.52,8.94,8.94,0,0,0-1.44-3.3A4.87,4.87,0,0,0,139.2,57c-.84,0-1.67,0-2.51,0l0,0Z"/><g id="Jc8qTs"><path class="cls-2" d="M162.55,80.67l-.75-.09a7.86,7.86,0,0,1-4.43-2.13A11.31,11.31,0,0,1,154.55,74a18.7,18.7,0,0,1-1-4.48,27.49,27.49,0,0,1-.06-5.59A17.73,17.73,0,0,1,155,57.83c.11-.23.23-.44.33-.67a.25.25,0,0,1,.26-.15c1.88,0,3.76,0,5.64,0h.23a4.84,4.84,0,0,0-1.08.88,7.44,7.44,0,0,0-1.57,2.93,18.34,18.34,0,0,0-.71,5.26c0,1,0,1.93.12,2.9a14.29,14.29,0,0,0,.66,3.36,7.54,7.54,0,0,0,1.58,2.83,3.5,3.5,0,0,0,4.88.32,6,6,0,0,0,1.61-2.32,14.92,14.92,0,0,0,1-4.75,24.08,24.08,0,0,0,0-4.16,16.25,16.25,0,0,0-.74-3.72,7.1,7.1,0,0,0-1.67-2.85,3.33,3.33,0,0,0-3-1,8.76,8.76,0,0,0-1.11.32s0-.08,0-.13V52.59s0-.08,0-.14l.82-.09.17,0h1.27l.14,0c.3,0,.6.06.9.12a8.09,8.09,0,0,1,4.78,2.84,12.36,12.36,0,0,1,2.25,4.16,21.6,21.6,0,0,1,1,6.68,25.54,25.54,0,0,1-.14,3.15,18.62,18.62,0,0,1-1.14,4.89,11,11,0,0,1-2.92,4.39,7.87,7.87,0,0,1-4.27,2l-.75.09Z"/></g></g></g></svg>