<svg version="1.1" id="Vrstva_1" xmlns="http://www.w3.org/2000/svg" xmlns:xlink="http://www.w3.org/1999/xlink" x="0px" y="0px" width="160" height="NaN" viewBox="0 0 350 65" enable-background="new 0 0 350 65" xml:space="preserve" class="svg-inline replaced-svg">
<g>
	<defs>
		<rect id="SVGID_1_" y="-0.134" width="350" height="65.134"></rect>
	</defs>
	<clipPath id="SVGID_2_">
		<use xlink:href="#SVGID_1_" overflow="visible"></use>
	</clipPath>
	<path clip-path="url(#SVGID_2_)" d="M81.946,33.323h6.972c4.681,0,7.341-1.881,7.341-5.642   c0-3.662-2.66-5.495-7.341-5.495h-6.972V33.323z M89.343,16.034c9.47,0,14.895,4.134,14.895,11.414   c0,7.657-5.425,12.076-14.895,12.076h-7.397v9.394h-8.404V16.034H89.343z" fill="#00224D"></path>
	<path clip-path="url(#SVGID_2_)" d="M124.649,33.322c4.628,0,7.288-1.881,7.288-5.641   c0-3.662-2.66-5.494-7.288-5.494h-7.767v11.135H124.649z M125.449,39.523h-0.799h-7.767v9.393h-8.405V16.034h16.172   c9.736,0,15.27,4.134,15.27,11.414c0,5.076-2.448,8.739-6.97,10.618l7.925,10.851h-9.52L125.449,39.523z" fill="#00224D"></path>
</g>
<rect x="145.837" y="16.034" width="8.408" height="32.883" fill="#00224D"></rect>
<polygon points="187.568,48.916 169.533,27.825 169.533,48.916 161.498,48.916 161.498,16.034 169.158,16.034  187.248,37.173 187.248,16.034 195.225,16.034 195.225,48.916 " fill="#00224D"></polygon>
<g>
	<defs>
		<rect id="SVGID_3_" y="-0.134" width="350" height="65.134"></rect>
	</defs>
	<clipPath id="SVGID_4_">
		<use xlink:href="#SVGID_3_" overflow="visible"></use>
	</clipPath>
	<path clip-path="url(#SVGID_4_)" d="M234.629,21.248l-4.892,5.262c-2.555-2.585-6.227-4.275-9.686-4.275   c-6.384,0-11.333,4.369-11.333,10.099c0,5.732,4.949,10.148,11.333,10.148c3.353,0,7.025-1.503,9.686-3.852l4.944,4.743   c-3.937,3.572-9.628,5.872-15.056,5.872c-11.119,0-19.523-7.278-19.523-16.817c0-9.491,8.563-16.63,19.845-16.63   C225.322,15.797,230.956,17.912,234.629,21.248" fill="#00224D"></path>
</g>
<rect x="238.574" y="16.034" width="8.403" height="32.883" fill="#00224D"></rect>
<g>
	<defs>
		<rect id="SVGID_5_" y="-0.134" width="350" height="65.134"></rect>
	</defs>
	<clipPath id="SVGID_6_">
		<use xlink:href="#SVGID_5_" overflow="visible"></use>
	</clipPath>
	<path clip-path="url(#SVGID_6_)" d="M262.639,33.323h6.971c4.682,0,7.343-1.881,7.343-5.642   c0-3.662-2.661-5.495-7.343-5.495h-6.971V33.323z M270.035,16.034c9.469,0,14.895,4.134,14.895,11.414   c0,7.657-5.426,12.076-14.895,12.076h-7.396v9.394h-8.403V16.034H270.035z" fill="#00224D"></path>
</g>
<path d="M302.357,23.785l-5.906,12.776h11.761L302.357,23.785z M293.685,42.529l-2.926,6.387h-8.672l16.174-32.882  h8.672l15.907,32.882h-8.99l-2.927-6.387H293.685z" fill="#00224D"></path>
<polygon points="325.633,16.034 325.633,48.916 350,48.916 350,42.434 334.042,42.434 334.042,16.034 " fill="#00224D"></polygon>
<path fill="#cb0036" d="M7.134,35.182V6.753h42.039v29.402H28.199v19.056l-0.094,0.091L7.134,35.182z M0-0.134v38.181L28.094,65  l28.212-26.945V-0.134H0z"></path>
</svg>
