<svg xmlns="http://www.w3.org/2000/svg" width="166.1" height="65" viewBox="0 0 166.1 65"><g><g fill="#123F2D"><path d="M67.7 34.9v6.8h-2.2V26h4.9c1.5 0 2.6.4 3.4 1.1.8.8 1.2 1.9 1.2 3.3 0 .8-.2 1.5-.6 2.1-.4.6-.9 1.1-1.6 1.4.8.3 1.3.7 1.7 1.4.3.6.5 1.4.5 2.4v1.4c0 .5 0 .9.1 1.3s.3.7.5 1v.2h-2.2c-.2-.2-.4-.6-.5-1.1-.1-.5-.1-1-.1-1.5v-1.3c0-.9-.2-1.6-.6-2.1-.4-.5-.9-.8-1.6-.8h-2.9zm0-1.6h2.6c.9 0 1.5-.2 2-.7.4-.5.6-1.2.6-2 0-.9-.2-1.6-.6-2.1-.4-.5-1-.7-1.9-.7h-2.7v5.5zM80.1 27h-2.2v-2.1h2.2V27zm0 14.7h-2.2V30.1h2.2v11.6zM88.1 38.8c0-.5-.1-.8-.4-1.1-.3-.3-.9-.7-1.7-1-1.2-.5-2.1-1-2.7-1.5-.6-.5-.9-1.2-.9-2 0-.9.4-1.7 1.1-2.3.7-.6 1.6-.9 2.8-.9 1.2 0 2.2.3 2.9 1 .7.7 1.1 1.5 1 2.5v.1h-2.1c0-.6-.2-1-.5-1.4-.3-.4-.7-.6-1.3-.6-.5 0-1 .2-1.3.5-.3.3-.5.7-.5 1.1 0 .4.1.8.4 1.1.3.3.8.6 1.7 1 1.2.4 2.1.9 2.7 1.5.6.6.9 1.3.9 2.1 0 1-.4 1.7-1.1 2.3-.7.6-1.7.9-2.9.9-1.3 0-2.3-.4-3-1.1-.7-.7-1.1-1.6-1.1-2.6v-.1h2c0 .8.2 1.3.6 1.6.4.3.9.5 1.4.5.6 0 1-.1 1.3-.4.6-.4.7-.8.7-1.2zM94.6 27h-2.2v-2.1h2.2V27zm0 14.7h-2.2V30.1h2.2v11.6zM99.3 30.1l.1 1.7c.3-.6.7-1.1 1.2-1.4.5-.3 1.1-.5 1.7-.5 1 0 1.8.4 2.4 1.1.6.8.9 1.9.9 3.5v7.2h-2.2v-7.2c0-1.1-.2-1.8-.5-2.3-.3-.4-.8-.7-1.4-.7-.4 0-.8.1-1.2.4-.3.3-.6.7-.8 1.1v8.6h-2.2V30.1h2zM107.6 35.4c0-1.7.3-3 1-4s1.6-1.5 2.9-1.5c.6 0 1.1.1 1.5.4s.8.7 1.1 1.2l.2-1.4h1.9v11.6c0 1.5-.4 2.7-1.2 3.5-.8.8-1.9 1.3-3.3 1.3-.5 0-1-.1-1.6-.2-.6-.2-1.1-.4-1.5-.6l.5-1.6c.4.2.8.4 1.2.5s.9.2 1.4.2c.8 0 1.4-.3 1.8-.8.4-.5.6-1.3.6-2.2v-1.1c-.3.4-.7.8-1.1 1-.4.2-.9.3-1.5.3-1.2 0-2.2-.5-2.8-1.4s-1-2.2-1-3.7v-1.5zm2.2 1.4c0 1 .2 1.9.5 2.5.4.6.9.9 1.7.9.5 0 .9-.1 1.2-.4s.6-.6.8-1V33c-.2-.5-.5-.8-.8-1.1-.3-.3-.7-.4-1.2-.4-.8 0-1.3.4-1.7 1.1-.4.7-.6 1.6-.6 2.8v1.4zM126.1 37.7c0-.7-.2-1.3-.6-1.8-.4-.5-1.1-.9-2.2-1.2-1.5-.5-2.6-1-3.4-1.8-.8-.7-1.2-1.7-1.2-2.9s.4-2.2 1.3-3c.9-.8 2-1.2 3.4-1.2s2.6.5 3.5 1.4c.9.9 1.3 2 1.3 3.3v.1h-2.1c0-.9-.2-1.7-.7-2.2-.5-.6-1.1-.9-2-.9-.8 0-1.4.2-1.9.7-.4.5-.7 1.1-.7 1.8s.2 1.2.7 1.7c.5.5 1.3.9 2.3 1.2 1.4.4 2.5 1.1 3.3 1.8.7.8 1.1 1.8 1.1 3 0 1.3-.4 2.3-1.3 3.1s-2 1.1-3.5 1.1c-1.4 0-2.6-.4-3.7-1.2-1-.8-1.5-2-1.5-3.5v-.1h2.1c0 1.1.3 1.9.8 2.4.6.5 1.3.8 2.2.8.8 0 1.5-.2 1.9-.7.7-.5.9-1.1.9-1.9zM133.2 27.2v2.9h1.8v1.6h-1.8v6.9c0 .6.1 1 .3 1.3.2.3.4.4.7.4.2 0 .3 0 .5 0s.3-.1.5-.1l.2 1.5c-.2.1-.5.2-.8.2s-.6.1-.9.1c-.8 0-1.5-.3-1.9-.8-.5-.5-.7-1.4-.7-2.6v-6.9h-1.5v-1.6h1.5v-2.9h2.1zM143.1 41.7c-.1-.3-.1-.5-.2-.8 0-.3-.1-.5-.1-.8-.3.5-.7.9-1.2 1.3-.5.3-1 .5-1.6.5-1 0-1.8-.3-2.3-.9-.6-.6-.8-1.4-.8-2.5s.4-2 1.1-2.6c.8-.6 1.8-1 3.2-1h1.6v-1.2c0-.7-.2-1.3-.5-1.7-.3-.4-.8-.6-1.3-.6s-.9.2-1.3.5c-.3.4-.5.8-.5 1.3h-2.1v-.1c0-.9.3-1.7 1.1-2.4s1.7-1.1 2.9-1.1c1.1 0 2.1.3 2.8 1 .7.7 1.1 1.6 1.1 2.9v5.4c0 .5 0 .9.1 1.3s.1.8.3 1.2h-2.3zm-2.7-1.4c.5 0 1-.2 1.4-.5s.7-.7.9-1.1v-2.4H141c-.7 0-1.2.2-1.6.6s-.6 1-.6 1.6c0 .5.1 1 .4 1.3.4.3.8.5 1.2.5zM151.5 40.3c.5 0 1-.2 1.4-.6s.6-1 .6-1.7h2v.1c0 1.1-.3 2-1.1 2.8-.8.8-1.7 1.1-2.8 1.1-1.4 0-2.6-.5-3.3-1.5-.8-1-1.2-2.2-1.2-3.8v-1.6c0-1.5.4-2.8 1.2-3.8.8-1 1.9-1.5 3.3-1.5 1.2 0 2.1.4 2.9 1.2.7.8 1.1 1.8 1.1 3v.1h-2c0-.8-.2-1.4-.5-1.9-.4-.5-.8-.7-1.4-.7-.8 0-1.4.3-1.8 1-.3.7-.5 1.5-.5 2.6v1.6c0 1 .2 1.9.5 2.6.1.6.7 1 1.6 1zM160.4 36.3h-.9v5.3h-2.2V24.9h2.2v9.8h.9l2.6-4.6h2.5l-3.4 5.2 3.9 6.4h-2.5l-3.1-5.4z"/></g><path fill="#123F2D" d="M57.2 54.3L28.6 65 0 54.3V33l28.6-10.7L57.2 33v21.3zm-10-17.1l-18.6-6.5L10 37.2v13l18.6 6.5 18.6-6.5v-13z"/><path fill="#A2B537" d="M57.2 43.9L28.6 54.5 0 43.9V22.6l28.6-10.7 28.6 10.7v21.3zm-10-17.2l-18.6-6.5L10 26.7v13l18.6 6.5 18.6-6.5v-13z"/><path fill="#B3CC57" d="M57.2 32L28.6 42.7 0 32V10.7L28.6 0l28.6 10.7V32zm-10-17.2L28.6 8.3 10 14.8v13l18.6 6.5 18.6-6.5v-13z"/></g></svg>