<?xml version="1.0" encoding="UTF-8"?> <svg xmlns="http://www.w3.org/2000/svg" xmlns:xlink="http://www.w3.org/1999/xlink" xmlns:xodm="http://www.corel.com/coreldraw/odm/2003" xml:space="preserve" width="3.85076in" height="0.894665in" version="1.1" style="shape-rendering:geometricPrecision; text-rendering:geometricPrecision; image-rendering:optimizeQuality; fill-rule:evenodd; clip-rule:evenodd" viewBox="0 0 1756.54 408.11"> <defs> <style type="text/css"> .fil1 {fill:#BD3500;fill-rule:nonzero} .fil0 {fill:white;fill-rule:nonzero} </style> </defs> <g id="Layer_x0020_1"> <metadata id="CorelCorpID_0Corel-Layer"></metadata> <path class="fil0" d="M640.38 0l-100.43 101.63 -385.1 0c-13.94,0 -25.23,11.3 -25.23,25.24 0,13.95 11.29,25.23 25.23,25.23l255.99 0c70.7,-0.01 128.02,57.27 128.05,127.96 0.03,70.68 -57.25,128.01 -127.95,128.04 -0.03,0 -0.08,0 -0.11,0l-410.85 0 101.14 -101.67 309.72 0c14.04,-0.18 25.37,-11.53 25.54,-25.56 0,-14.11 -11.44,-25.54 -25.54,-25.54l-255.99 0c-70.71,0 -128.03,-57.34 -128.03,-128.05 0,-66.03 49.98,-120.37 114.17,-127.29l499.39 0z"></path> <path class="fil1" d="M1521.87 175.69l171.2 -175.69 -140.24 0 -125.76 124.33 -125.91 -124.33 -140.82 0 171.08 175.66c12.59,12.97 33.32,13.27 46.29,0.69 0.36,-0.34 0.71,-0.71 1.05,-1.05l0.65 -0.69c24.57,-26.13 65.67,-27.4 91.78,-2.82 0.98,0.9 1.91,1.85 2.82,2.82l0.48 0.49c12.29,13.28 33.03,14.08 46.31,1.77 0.4,-0.38 0.81,-0.77 1.2,-1.15l-0.12 -0.03z"></path> <path class="fil0" d="M1619.54 329.21l-97.32 -103.11c-12.98,-13.63 -34.54,-14.14 -48.17,-1.17 -0.27,0.27 -0.54,0.53 -0.81,0.81 -25.04,25.69 -66.17,26.23 -91.86,1.2 -0.41,-0.4 -0.81,-0.81 -1.22,-1.2l0 -0.17c-13.18,-13.43 -34.75,-13.63 -48.18,-0.45 -0.29,0.29 -0.57,0.57 -0.86,0.87l-126.1 133.84 0 -207.74c-0.03,-79.31 -60.45,-144.5 -137.77,-152.11l-377.15 0 -98.62 98.63 0 309.48 101.67 0 0 -306.47 154.33 0 0 306.47 101.68 0 0 -306.47 102.4 0c28.04,-0.21 50.91,22.35 51.11,50.37 0,0.04 0.01,0.07 0.01,0.1l0 256 197.16 0 126.52 -134.58 126.52 134.58 140.91 0 -74.25 -78.89z"></path> <path class="fil0" d="M1706.51 24.91c0,13.82 11.19,24.69 25.01,24.69 13.82,0 25.01,-10.86 25.01,-24.69 0,-13.82 -11.19,-24.91 -25.01,-24.91 -13.82,0 -25.01,11.08 -25.01,24.91zm3.95 0c0,-11.63 9.44,-21.06 21.06,-21.06 11.63,0 21.07,9.43 21.07,21.06 0,11.52 -9.44,21.07 -21.07,21.07 -11.63,0 -21.06,-9.55 -21.06,-21.07zm11.3 13.93l5.05 0 0 -11.74 3.62 0 6.58 11.74 6.14 0 -7.57 -12.29c3.95,-0.88 6.47,-3.51 6.47,-7.57 0,-6.03 -5.16,-8.23 -10.42,-8.23l-9.87 0 0 28.09zm5.05 -15.8l0 -8.01 4.61 0c2.63,0 5.6,0.77 5.6,3.84 0,3.4 -3.29,4.17 -6.14,4.17l-4.06 0z"></path> </g> </svg> 