<svg xmlns="http://www.w3.org/2000/svg" width="212" height="44" viewBox="0 0 53.446 11.066"><defs><clipPath id="a"><path d="M45.355 788.926h38.213v7.609H45.355z" /></clipPath></defs><g clip-path="url(#a)" transform="matrix(1.3848 0 0 -1.3848 -62.543 1103.3)" stroke-width=".255"><path d="M47.257 791.534c.04-.859.573-1.136 1.38-1.136.574 0 1.168.205 1.168.747 0 .644-1.045.767-2.098 1.064-1.043.296-2.137.768-2.137 2.107 0 1.596 1.605 2.22 2.976 2.22 1.452 0 2.915-.706 2.925-2.353h-1.902c.03.665-.593.88-1.177.88-.41 0-.92-.144-.92-.624 0-.563 1.053-.665 2.117-.962 1.054-.296 2.117-.787 2.117-2.107 0-1.85-1.575-2.445-3.181-2.445-1.677 0-3.16.737-3.171 2.61zM55.136 793.263h-1.074v-2.414c0-.42.245-.511.624-.511.143 0 .296.02.45.02v-1.278c-.318-.011-.634-.051-.951-.051-1.483 0-1.862.429-1.862 1.872v5.093h1.739v-1.606h1.074zM58.068 790c.828 0 1.105.47 1.064 1.565-.246-.154-.696-.185-1.074-.286-.39-.092-.716-.256-.716-.676 0-.43.337-.603.726-.603m-2.25 2.75c.03.697.358 1.147.828 1.424.471.265 1.085.367 1.687.367 1.26 0 2.476-.276 2.476-1.78v-2.321c0-.451 0-.94.204-1.36h-1.749a2.064 2.064 0 0 0-.102.5c-.45-.47-1.114-.654-1.749-.654-1.012 0-1.81.51-1.81 1.606 0 1.729 1.882 1.596 3.09 1.84.295.063.46.165.46.492 0 .399-.48.552-.84.552-.48 0-.787-.214-.869-.665zM64.451 793.263h-1.074v-2.414c0-.42.245-.511.624-.511.143 0 .296.02.45.02v-1.278c-.317-.011-.634-.051-.952-.051-1.483 0-1.861.429-1.861 1.872v5.093h1.739v-1.606h1.074z" fill="#636466" /><path d="M65.34 794.393h1.686v-.726h.02c.318.542 1.034.88 1.667.88 1.77 0 1.913-1.29 1.913-2.056v-3.406h-1.738v2.568c0 .725.082 1.462-.869 1.462-.655 0-.94-.553-.94-1.136v-2.894h-1.74zM75.087 792.286c-.03.594-.45 1.085-1.034 1.085-.613 0-1.022-.44-1.125-1.085zm-2.159-.972c.032-.725.451-1.206 1.187-1.206.42 0 .83.194.993.583h1.626c-.317-1.228-1.452-1.76-2.639-1.76-1.729 0-2.905 1.044-2.905 2.824 0 1.626 1.3 2.792 2.863 2.792 1.903 0 2.855-1.432 2.773-3.233zM80.2 793.268h-1.073v-2.414c0-.42.246-.511.624-.511.142 0 .296.02.45.02v-1.278c-.317-.011-.635-.052-.951-.052-1.483 0-1.862.43-1.862 1.873v5.093h1.739v-1.606H80.2zM83.568 793.268h-1.074v-2.414c0-.42.245-.511.624-.511.143 0 .297.02.45.02v-1.278c-.317-.011-.634-.052-.952-.052-1.483 0-1.861.43-1.861 1.873v5.093h1.739v-1.606h1.074z" fill="#ed1c24" /></g></svg>