<?xml version="1.0" encoding="utf-8"?>
<!-- Generator: Adobe Illustrator 16.0.0, SVG Export Plug-In . SVG Version: 6.00 Build 0)  -->
<!DOCTYPE svg PUBLIC "-//W3C//DTD SVG 1.1//EN" "http://www.w3.org/Graphics/SVG/1.1/DTD/svg11.dtd">
<svg version="1.1" id="Layer_1" xmlns="http://www.w3.org/2000/svg" xmlns:xlink="http://www.w3.org/1999/xlink" x="0px" y="0px"
	 width="67.636px" height="77.4px" viewBox="0 0 67.636 77.4" enable-background="new 0 0 67.636 77.4" xml:space="preserve">
<g>
	<path fill="#F58220" d="M45.289,34.064l-3.173,17.578c-0.488,3.17-2.566,4.026-4.395,4.026H23.93l5.738-32.227
		c-5.859-2.685-11.716-4.387-16.484-4.387c-4.519,0-8.186,1.213-10.62,4.145C0.85,25.271,0,27.834,0,30.885
		c0,9.162,7.203,21.863,19.528,32.23C30.51,72.279,42.599,77.4,51.396,77.4c4.392,0,7.932-1.344,10.26-4.025
		c1.83-2.078,2.556-4.76,2.556-7.813C64.211,56.646,57.013,44.195,45.289,34.064"/>
	<path fill="#0058A9" d="M20.392,0c-2.199,0-4.031,1.467-4.522,3.784l-1.95,10.622h17.427l-7.48,41.264H37.73
		c1.849,0,3.933-0.856,4.55-4.03l6.334-37.232h12.545c2.209,0,4.031-1.467,4.516-3.781L67.636,0H20.392z"/>
</g>
</svg>
