<?xml version="1.0" encoding="UTF-8"?>
<svg width="100px" height="26px" viewBox="0 0 100 26" version="1.1" xmlns="http://www.w3.org/2000/svg" xmlns:xlink="http://www.w3.org/1999/xlink">
    <title>Group 11</title>
    <g id="Page-1" stroke="none" stroke-width="1" fill="none" fill-rule="evenodd">
        <g id="Page-Sample" transform="translate(-1779.000000, -686.000000)">
            <g id="Group-4" transform="translate(1755.000000, 641.000000)">
                <g id="Group-3" transform="translate(24.000000, 37.000000)">
                    <g id="Group-11" transform="translate(0.000000, 8.000000)">
                        <path d="M88.2643819,3.11218271 L78.6422687,26 L83.0326332,26 L85.3278426,20.4425309 L92.9797446,20.4425309 L95.3016761,26 L99.7931511,26 L90.1717602,3.11218271 L88.2643819,3.11218271 Z M89.1758212,11.1288048 L91.4833084,16.752718 L86.8510008,16.752718 L89.1758212,11.1288048 Z M67.1142216,3.11218271 L57.4921084,26 L61.8839173,26 L64.1784046,20.4425309 L71.8295843,20.4425309 L74.1515158,26 L78.6422687,26 L69.0223221,3.11218271 L67.1142216,3.11218271 Z M68.025661,11.1288048 L70.3331481,16.752718 L65.7001183,16.752718 L68.025661,11.1288048 Z M51.7172516,3.41479214 L51.7172516,14.7066739 L51.7172516,26 L56.0816162,26 L56.0816162,14.7066739 L56.0816162,3.41479214 L51.7172516,3.41479214 Z M31.6894184,3.41479214 L31.6894184,7.30754829 L38.5931023,7.30754829 L38.5931023,26 L42.9567447,26 L42.9567447,7.30754829 L49.8611508,7.30754829 L49.8611508,3.41479214 L31.6894184,3.41479214 Z" id="TIAA" fill="#093B60"></path>
                        <g id="Arrow" transform="translate(7.944400, 0.000000)" fill="#2EADE2">
                            <path d="M5.55458025,0 C2.53787479,0 0.0909994944,2.44037533 0.0772773485,5.45419192 L0.0772773485,5.45419192 L0.0772773485,7.30884828 L11.4709918,7.30884828 L11.4709918,18.6982295 L13.2996483,18.6982295 C16.3250204,18.6982295 18.776229,16.2462986 18.776229,13.2230932 L18.776229,13.2230932 L18.776229,0 L5.55458025,0 Z" id="Fill-2"></path>
                        </g>
                        <g id="Bottom-window" transform="translate(0.000000, 18.777673)" fill="#093B60">
                            <path d="M20.5218304,1.38738118 L5.8340787,1.38738118 L0,7.2221821 L15.1600824,7.2221821 C16.6355742,7.2221821 18.021511,6.63646313 19.0658385,5.57408014 L19.0658385,5.57408014 L23.9754779,0.664440753 L23.8476453,0.537330348 C22.860373,1.07899401 21.7264904,1.38738118 20.5218304,1.38738118" id="Fill-5"></path>
                        </g>
                        <g id="Left-window" transform="translate(0.000000, 1.444436)" fill="#093B60">
                            <path d="M1.64737974,5.4888584 C0.58499675,6.53318593 0,7.92056711 0,9.39461447 L0,9.39461447 L0,24.5554191 L5.8340787,18.7206182 L5.8340787,4.03286648 C5.8340787,2.82820651 6.14246588,1.69504614 6.68485175,0.706329409 L6.68485175,0.706329409 L6.55701913,0.579941223 L1.64737974,5.4888584 Z" id="Fill-8"></path>
                        </g>
                    </g>
                </g>
            </g>
        </g>
    </g>
</svg>