<?xml version="1.0" encoding="utf-8"?>
<!-- Generator: Adobe Illustrator 21.0.0, SVG Export Plug-In . SVG Version: 6.00 Build 0)  -->
<svg version="1.1" id="logos" xmlns="http://www.w3.org/2000/svg" xmlns:xlink="http://www.w3.org/1999/xlink" x="0px" y="0px"
	 viewBox="0 0 408.6 239.9" style="enable-background:new 0 0 408.6 239.9;" xml:space="preserve" preserveAspectRatio="xMinYMid meet">
<style type="text/css">
	.st0{fill:#9C1C26;}
</style>
<g>
	<polygon class="st0" points="161.8,49.9 105.4,49.9 105,239.9 56.1,239.9 56.1,50.3 0,49.9 0,0.7 161.8,0.7 	"/>
	<polygon class="st0" points="302.4,42 331,1.1 383.6,1.1 331,86.8 385.5,172 332,172 302.2,128.9 228,239.5 175,239.5 274.4,87 
		219.6,1.1 273.9,1.1 	"/>
	<path class="st0" d="M214.8,147.7c-3.8,34.2-26.4,65.6-57.2,80.7c-14.1,6.7-29.6,11.1-46.8,10.9v-47.6
		c25.8-0.8,46.7-17.4,54.5-39.8c1.3-2.1,1.5-5.5,2.1-8L167.8,0H215L214.8,147.7z"/>
	<path class="st0" d="M408.6,15.7c0-7.3-6-13.3-13.3-13.3c-7.4,0-13.4,6-13.3,13.3c0,7.4,6,13.3,13.3,13.3
		C402.6,29,408.6,23.1,408.6,15.7 M407.1,15.7c0,6.5-5.3,11.8-11.8,11.8s-11.8-5.3-11.8-11.8s5.3-11.8,11.7-11.8
		C401.8,3.9,407.1,9.2,407.1,15.7 M390.3,22.7h1.9v-6.3h4.8c3.1,0,2.2,2.7,2.5,4.4l0.3,1.9h2.2c-0.8-1.3-0.5-1.6-0.7-3.5
		c-0.2-2.5-0.3-2.8-1.8-3.7c1.4-1.1,2-1.8,1.9-3.7C401.2,8.5,399,8,396.7,8h-6.4V22.7z M396.9,9.7c1.2,0,3,0.3,2.7,2.8
		c-0.2,1.9-1.4,2.2-2.7,2.2h-4.7V9.6L396.9,9.7L396.9,9.7z"/>
</g>
</svg>
