<svg xmlns="http://www.w3.org/2000/svg" xmlns:xlink="http://www.w3.org/1999/xlink" viewBox="0 0 234.88 23" width="234.88" height="23">
  <defs>
    <linearGradient id="a" x1="16.31" y1="0.07" x2="16.31" y2="23" gradientUnits="userSpaceOnUse">
      <stop offset="0" stop-color="#ef4e23"/>
      <stop offset="1" stop-color="#ec008c"/>
    </linearGradient>
    <linearGradient id="b" x1="20.85" y1="22.93" x2="20.85" y2="2.99" gradientUnits="userSpaceOnUse">
      <stop offset="0" stop-color="#027e97"/>
      <stop offset="1" stop-color="#4bb666"/>
    </linearGradient>
  </defs>
  <title>treasure-data-logo-oneline-dk</title>
  <path d="M57.77,6.58H54.07V16.77H52V6.58H48.37V4.92h9.4Z" transform="translate(0)" style="fill:#201f25"/>
  <path d="M68.68,12.22H66.38v4.56H64.32V4.92h4.17a4.85,4.85,0,0,1,3.17.92,3.26,3.26,0,0,1,1.11,2.66,3.33,3.33,0,0,1-.57,2,3.65,3.65,0,0,1-1.6,1.23l2.66,4.94v.11H71.05Zm-2.29-1.66H68.5A2.35,2.35,0,0,0,70.13,10a1.83,1.83,0,0,0,.59-1.44,2,2,0,0,0-.54-1.47,2.3,2.3,0,0,0-1.62-.54H66.38Z" transform="translate(0)" style="fill:#201f25"/>
  <path d="M86.65,11.48H81.79v3.63h5.69v1.66H79.73V4.92h7.69V6.58H81.79V9.86h4.87Z" transform="translate(0)" style="fill:#201f25"/>
  <path d="M100.79,14H96.19l-1,2.76H93.09L97.57,4.92h1.85l4.48,11.85h-2.15Zm-4-1.66h3.43L98.49,7.44Z" transform="translate(0)" style="fill:#201f25"/>
  <path d="M116.44,13.72a1.43,1.43,0,0,0-.55-1.21,6.6,6.6,0,0,0-2-.85,9.56,9.56,0,0,1-2.28-1A3,3,0,0,1,110,8a2.89,2.89,0,0,1,1.17-2.36,4.73,4.73,0,0,1,3-.93,5.12,5.12,0,0,1,2.21.46,3.62,3.62,0,0,1,1.52,1.3,3.33,3.33,0,0,1,.55,1.87h-2.05a1.83,1.83,0,0,0-.58-1.44,2.41,2.41,0,0,0-1.66-.52,2.52,2.52,0,0,0-1.57.43,1.43,1.43,0,0,0-.56,1.2,1.29,1.29,0,0,0,.6,1.08,6.94,6.94,0,0,0,2,.84,9.11,9.11,0,0,1,2.22.93,3.54,3.54,0,0,1,1.23,1.2,3.14,3.14,0,0,1,.39,1.59,2.82,2.82,0,0,1-1.13,2.36,4.93,4.93,0,0,1-3.08.88,5.79,5.79,0,0,1-2.36-.48,4,4,0,0,1-1.68-1.31,3.28,3.28,0,0,1-.6-2h2.06a1.92,1.92,0,0,0,.67,1.56,2.92,2.92,0,0,0,1.91.55,2.54,2.54,0,0,0,1.62-.44A1.41,1.41,0,0,0,116.44,13.72Z" transform="translate(0)" style="fill:#201f25"/>
  <path d="M134,4.92v7.92a3.85,3.85,0,0,1-1.21,3,5.3,5.3,0,0,1-6.45,0,3.87,3.87,0,0,1-1.2-3V4.92h2.05v7.91a2.51,2.51,0,0,0,.6,1.81,2.35,2.35,0,0,0,1.77.63q2.38,0,2.38-2.5V4.92Z" transform="translate(0)" style="fill:#201f25"/>
  <path d="M145.53,12.22h-2.29v4.56h-2.06V4.92h4.17a4.85,4.85,0,0,1,3.17.92,3.26,3.26,0,0,1,1.11,2.66,3.33,3.33,0,0,1-.57,2,3.65,3.65,0,0,1-1.6,1.23l2.66,4.94v.11H147.9Zm-2.29-1.66h2.12A2.35,2.35,0,0,0,147,10a1.83,1.83,0,0,0,.59-1.44A2,2,0,0,0,147,7.12a2.3,2.3,0,0,0-1.62-.54h-2.17Z" transform="translate(0)" style="fill:#201f25"/>
  <path d="M163.5,11.48h-4.87v3.63h5.69v1.66h-7.75V4.92h7.69V6.58h-5.63V9.86h4.87Z" transform="translate(0)" style="fill:#201f25"/>
  <path d="M180.15,16.77V4.92h3.5a5.49,5.49,0,0,1,2.79.7,4.78,4.78,0,0,1,1.88,2,6.3,6.3,0,0,1,.67,2.95v.59a6.29,6.29,0,0,1-.67,3,4.72,4.72,0,0,1-1.91,2,5.74,5.74,0,0,1-2.84.69Zm2.06-10.19v8.53h1.34a3.09,3.09,0,0,0,2.49-1,4.4,4.4,0,0,0,.88-2.9v-.66a4.52,4.52,0,0,0-.84-2.94,3,3,0,0,0-2.43-1Z" transform="translate(0)" style="fill:#201f25"/>
  <path d="M202.5,14h-4.59l-1,2.76h-2.14l4.48-11.85h1.85l4.48,11.85h-2.15Zm-4-1.66h3.43l-1.72-4.92Z" transform="translate(0)" style="fill:#201f25"/>
  <path d="M219.55,6.58h-3.7V16.77h-2V6.58h-3.66V4.92h9.4Z" transform="translate(0)" style="fill:#201f25"/>
  <path d="M231.76,14h-4.59l-1,2.76h-2.14l4.48-11.85h1.85l4.48,11.85h-2.15Zm-4-1.66h3.43l-1.72-4.92Z" transform="translate(0)" style="fill:#201f25"/>
  <path d="M28,.24a.55.55,0,0,0-.4-.17H5a.55.55,0,0,0-.4.17L.15,4.9a.55.55,0,0,0,0,.75L15.91,22.82a.55.55,0,0,0,.81,0L32.47,5.65a.55.55,0,0,0,0-.75Z" transform="translate(0)" style="fill:url(#a)"/>
  <path d="M32.61,5.15a.55.55,0,0,0-.15-.32L28,.17A.55.55,0,0,0,27.83,0l-7,10.82Z" transform="translate(0)" style="fill:#fff;opacity:0.4"/>
  <polygon points="20.85 10.91 20.85 10.91 20.85 10.91 20.85 10.91" style="fill:url(#b)"/>
  <path d="M32.61,5.15,20.84,10.87,16.31,22.93a.55.55,0,0,0,.41-.18L32.47,5.58A.55.55,0,0,0,32.61,5.15Z" transform="translate(0)" style="fill:#fff;opacity:0.6900000000000001"/>
  <path d="M4.87.07a.55.55,0,0,0-.22.14L.22,4.86h0l-.14.3A.57.57,0,0,1,.11,5a.55.55,0,0,0,0,.24l20.78,5.62Z" transform="translate(0)" style="fill:#fff;opacity:0.1"/>
  <path d="M27.83,0a.55.55,0,0,0-.23,0H5a.48.48,0,0,0-.16,0l16,10.84Z" transform="translate(0)" style="fill:#fff;opacity:0.25"/>
</svg>
