<?xml version="1.0" encoding="utf-8"?>
<!-- Generator: Adobe Illustrator 15.1.0, SVG Export Plug-In . SVG Version: 6.00 Build 0)  -->
<!DOCTYPE svg PUBLIC "-//W3C//DTD SVG 1.1//EN" "http://www.w3.org/Graphics/SVG/1.1/DTD/svg11.dtd">
<svg version="1.1" id="Layer_1" xmlns="http://www.w3.org/2000/svg" xmlns:xlink="http://www.w3.org/1999/xlink" x="0px" y="0px"
	 width="180px" height="34px" enable-background="new 0 0 180 34" xml:space="preserve">
<g>
	<path fill="#3F4243" d="M1.063,24.137c0-0.908-0.05-1.143-0.602-1.189l-0.394-0.039c-0.099-0.074-0.086-0.259,0.013-0.307
		c0.662-0.062,1.499-0.099,2.641-0.099c0.775,0,1.511,0.062,2.065,0.345c0.527,0.258,0.934,0.748,0.934,1.535
		c0,0.885-0.516,1.338-1.255,1.684c0,0.123,0.099,0.16,0.233,0.185c0.664,0.122,1.648,0.737,1.648,2.052
		c0,1.424-1.058,2.384-3.27,2.384c-0.356,0-0.957-0.038-1.475-0.038c-0.54,0-0.958,0.025-1.412,0.038
		c-0.074-0.038-0.1-0.233-0.025-0.308l0.221-0.037c0.652-0.11,0.677-0.246,0.677-1.537V24.137z M2.071,25.771
		c0,0.344,0.013,0.368,0.638,0.344c1.254-0.049,1.93-0.417,1.93-1.572c0-1.205-0.896-1.658-1.83-1.658
		c-0.271,0-0.456,0.023-0.566,0.072c-0.121,0.037-0.171,0.1-0.171,0.32V25.771z M2.071,28.621c0,0.443,0.024,1.07,0.258,1.34
		c0.233,0.282,0.602,0.344,0.971,0.344c1.094,0,1.929-0.492,1.929-1.721c0-0.97-0.49-2.101-2.444-2.101
		c-0.663,0-0.713,0.073-0.713,0.32V28.621z"/>
	<path fill="#3F4243" d="M8.134,28.844c0,0.848,0.209,1.412,1.143,1.412c0.332,0,0.725-0.135,0.995-0.367
		c0.16-0.148,0.246-0.334,0.246-0.713V27.16c0-0.8-0.086-0.823-0.454-0.971l-0.161-0.062c-0.085-0.048-0.085-0.222,0.013-0.271
		c0.492-0.012,1.167-0.098,1.438-0.223c0.062,0.014,0.098,0.038,0.11,0.086c-0.024,0.235-0.038,0.616-0.038,1.07v2.064
		c0,0.972,0.038,1.34,0.383,1.34c0.146,0,0.307-0.025,0.479-0.062c0.074,0.062,0.086,0.309-0.012,0.356
		c-0.479,0.099-1.192,0.222-1.611,0.456c-0.061,0-0.122-0.037-0.146-0.088v-0.502c0-0.112-0.037-0.172-0.11-0.172
		c-0.369,0.232-0.971,0.639-1.696,0.639c-1.081,0-1.487-0.541-1.487-1.536v-2.054c0-0.773,0-0.885-0.368-1.043l-0.147-0.062
		c-0.074-0.062-0.062-0.233,0.023-0.271c0.566-0.012,1.045-0.124,1.316-0.223c0.073,0.014,0.11,0.038,0.122,0.086
		c-0.024,0.209-0.036,0.469-0.036,1.07V28.844z"/>
	<path fill="#3F4243" d="M15.744,25.857c0.11,0.271,0.197,0.664,0.197,0.994c-0.051,0.088-0.234,0.111-0.296,0.038
		c-0.209-0.541-0.577-0.897-1.081-0.897c-0.479,0-0.787,0.307-0.787,0.75c0,0.503,0.517,0.773,0.947,1.02
		c0.65,0.369,1.252,0.787,1.252,1.658c0,0.936-0.859,1.402-1.769,1.402c-0.577,0-1.007-0.123-1.314-0.369
		c-0.099-0.234-0.173-0.836-0.147-1.242c0.061-0.074,0.221-0.084,0.283-0.011c0.209,0.675,0.602,1.266,1.301,1.266
		c0.443,0,0.824-0.259,0.824-0.786c0-0.565-0.491-0.874-0.946-1.131c-0.712-0.405-1.217-0.836-1.217-1.514
		c0-0.896,0.737-1.4,1.672-1.4C15.179,25.635,15.632,25.76,15.744,25.857"/>
	<path fill="#3F4243" d="M17.316,27.123c0-0.479,0-0.541-0.332-0.763l-0.109-0.073c-0.049-0.049-0.049-0.184,0.012-0.221
		c0.283-0.098,0.983-0.418,1.266-0.602c0.061,0,0.109,0.022,0.123,0.072c-0.025,0.432-0.05,1.02-0.05,1.524v2.214
		c0,0.883,0.024,1.006,0.468,1.066l0.258,0.037c0.086,0.061,0.062,0.27-0.025,0.308c-0.369-0.024-0.725-0.038-1.154-0.038
		c-0.443,0-0.811,0.014-1.154,0.038c-0.087-0.038-0.111-0.247-0.025-0.308l0.258-0.037c0.455-0.061,0.467-0.184,0.467-1.066V27.123z
		 M18.335,23.621c0,0.442-0.307,0.639-0.65,0.639c-0.381,0-0.627-0.283-0.627-0.612c0-0.407,0.295-0.666,0.663-0.666
		S18.335,23.277,18.335,23.621"/>
	<path fill="#3F4243" d="M20.279,27.123c0-0.48,0-0.541-0.333-0.763l-0.11-0.073c-0.048-0.049-0.048-0.184,0.012-0.221
		c0.283-0.098,0.984-0.418,1.229-0.602c0.049,0,0.113,0.023,0.136,0.086c-0.022,0.282-0.022,0.469-0.022,0.576
		c0,0.074,0.049,0.137,0.135,0.137c0.514-0.319,1.092-0.627,1.721-0.627c1.018,0,1.436,0.7,1.436,1.523v2.115
		c0,0.883,0.025,1.006,0.467,1.066l0.271,0.037c0.087,0.061,0.062,0.27-0.023,0.308c-0.369-0.026-0.726-0.038-1.157-0.038
		c-0.441,0-0.81,0.012-1.142,0.038c-0.085-0.038-0.11-0.247-0.024-0.308l0.233-0.037c0.454-0.074,0.466-0.184,0.466-1.066v-1.834
		c0-0.701-0.318-1.215-1.154-1.215c-0.465,0-0.872,0.195-1.044,0.428c-0.16,0.211-0.183,0.381-0.183,0.738v1.883
		c0,0.883,0.022,0.992,0.465,1.066l0.222,0.037c0.087,0.061,0.062,0.27-0.024,0.308c-0.332-0.026-0.688-0.038-1.119-0.038
		c-0.441,0-0.811,0.012-1.154,0.038c-0.086-0.038-0.111-0.247-0.024-0.308l0.258-0.037c0.455-0.061,0.468-0.184,0.468-1.066V27.123z
		"/>
	<path fill="#3F4243" d="M26.644,27.504c-0.318,0-0.331,0.025-0.331,0.331c0,1.243,0.726,2.298,2.04,2.298
		c0.405,0,0.748-0.122,1.129-0.602c0.125-0.037,0.211,0.036,0.223,0.148c-0.406,0.834-1.289,1.143-1.929,1.143
		c-0.8,0-1.426-0.345-1.783-0.812c-0.368-0.479-0.516-1.057-0.516-1.599c0-1.511,0.995-2.777,2.472-2.777
		c1.056,0,1.744,0.726,1.744,1.463c0,0.174-0.025,0.271-0.051,0.318c-0.035,0.076-0.208,0.088-0.723,0.088H26.644z M27.407,27.135
		c0.909,0,1.179-0.049,1.278-0.121c0.036-0.025,0.073-0.074,0.073-0.235c0-0.344-0.233-0.772-0.946-0.772
		c-0.725,0-1.352,0.663-1.364,1.067c0,0.024,0,0.062,0.087,0.062H27.407z"/>
	<path fill="#3F4243" d="M33.199,25.857c0.111,0.271,0.197,0.664,0.197,0.994c-0.048,0.088-0.234,0.111-0.295,0.038
		c-0.209-0.541-0.578-0.897-1.082-0.897c-0.479,0-0.785,0.307-0.785,0.75c0,0.503,0.516,0.773,0.945,1.02
		c0.652,0.369,1.254,0.787,1.254,1.658c0,0.936-0.859,1.402-1.77,1.402c-0.578,0-1.007-0.123-1.314-0.369
		c-0.098-0.234-0.172-0.836-0.147-1.242c0.062-0.074,0.222-0.084,0.282-0.011c0.209,0.675,0.602,1.266,1.303,1.266
		c0.441,0,0.822-0.259,0.822-0.786c0-0.565-0.49-0.874-0.945-1.131c-0.713-0.405-1.217-0.836-1.217-1.514
		c0-0.896,0.738-1.4,1.672-1.4C32.634,25.635,33.089,25.76,33.199,25.857"/>
	<path fill="#3F4243" d="M36.923,25.857c0.11,0.271,0.196,0.664,0.196,0.994c-0.05,0.088-0.233,0.111-0.296,0.038
		c-0.209-0.541-0.576-0.897-1.08-0.897c-0.479,0-0.787,0.307-0.787,0.75c0,0.503,0.518,0.773,0.946,1.02
		c0.651,0.369,1.253,0.787,1.253,1.658c0,0.936-0.859,1.402-1.77,1.402c-0.576,0-1.007-0.123-1.313-0.369
		c-0.099-0.234-0.173-0.836-0.149-1.242c0.062-0.074,0.223-0.084,0.283-0.011c0.21,0.675,0.604,1.266,1.303,1.266
		c0.443,0,0.823-0.259,0.823-0.786c0-0.565-0.491-0.874-0.946-1.131c-0.711-0.405-1.217-0.836-1.217-1.514
		c0-0.896,0.738-1.4,1.672-1.4C36.357,25.635,36.812,25.76,36.923,25.857"/>
	<path fill="#3F4243" d="M43.042,28.106c0.184-0.063,0.209-0.173,0.209-0.358l0.012-0.564c0.012-0.455-0.137-1.066-0.897-1.066
		c-0.344,0-0.761,0.17-0.786,0.552c-0.012,0.195-0.025,0.345-0.123,0.417c-0.186,0.146-0.516,0.233-0.699,0.233
		c-0.111,0-0.174-0.062-0.174-0.172c0-0.64,1.389-1.513,2.287-1.513c0.883,0,1.314,0.518,1.277,1.438l-0.074,2.139
		c-0.025,0.564,0.086,1.069,0.564,1.069c0.123,0,0.234-0.038,0.309-0.074c0.061-0.037,0.123-0.086,0.158-0.086
		c0.051,0,0.086,0.072,0.086,0.16c0,0.061-0.43,0.539-1.031,0.539c-0.295,0-0.589-0.109-0.799-0.381
		c-0.049-0.072-0.123-0.172-0.197-0.172c-0.085,0-0.232,0.111-0.479,0.246c-0.27,0.148-0.541,0.307-0.885,0.307
		c-0.355,0-0.65-0.098-0.859-0.282c-0.234-0.208-0.381-0.516-0.381-0.859c0-0.479,0.233-0.763,1.02-1.044L43.042,28.106z
		 M42.281,30.268c0.244,0,0.625-0.184,0.748-0.305c0.148-0.15,0.148-0.321,0.16-0.579l0.025-0.727c0-0.133-0.051-0.157-0.123-0.157
		c-0.074,0-0.282,0.049-0.504,0.121c-0.725,0.247-1.082,0.431-1.082,0.91C41.505,29.738,41.654,30.268,42.281,30.268"/>
	<path fill="#3F4243" d="M46.263,27.123c0-0.48,0-0.541-0.332-0.763l-0.111-0.073c-0.049-0.049-0.049-0.184,0.014-0.221
		c0.281-0.098,0.981-0.418,1.228-0.602c0.05,0,0.111,0.023,0.136,0.086c-0.024,0.282-0.024,0.469-0.024,0.576
		c0,0.074,0.048,0.137,0.135,0.137c0.517-0.319,1.094-0.627,1.72-0.627c1.02,0,1.438,0.7,1.438,1.523v2.115
		c0,0.883,0.025,1.006,0.467,1.066l0.271,0.037c0.086,0.061,0.061,0.27-0.025,0.308c-0.369-0.026-0.725-0.038-1.154-0.038
		c-0.443,0-0.812,0.012-1.143,0.038c-0.087-0.038-0.111-0.247-0.025-0.308l0.234-0.037c0.453-0.074,0.467-0.184,0.467-1.066v-1.834
		c0-0.701-0.32-1.215-1.155-1.215c-0.468,0-0.872,0.195-1.044,0.428c-0.16,0.211-0.185,0.381-0.185,0.738v1.883
		c0,0.883,0.024,0.992,0.466,1.066l0.223,0.037c0.085,0.061,0.061,0.27-0.025,0.308c-0.332-0.026-0.688-0.038-1.117-0.038
		c-0.443,0-0.812,0.012-1.156,0.038c-0.086-0.038-0.109-0.247-0.024-0.308l0.259-0.037c0.453-0.061,0.467-0.184,0.467-1.066V27.123z
		"/>
	<path fill="#3F4243" d="M56.289,28.855c0,0.972,0.012,1.426,0.354,1.426c0.136,0,0.345-0.062,0.528-0.123
		c0.087,0.023,0.099,0.33-0.013,0.393c-0.516,0.074-1.276,0.258-1.621,0.393c-0.074,0-0.135-0.035-0.135-0.098v-0.209
		c0-0.183,0-0.332-0.024-0.381h-0.05c-0.541,0.369-0.958,0.564-1.548,0.564c-1.363,0-2.273-1.067-2.273-2.357
		c0-1.721,1.303-2.826,2.975-2.826c0.417,0,0.688,0.061,0.821,0.109c0.062,0,0.075-0.072,0.075-0.172V23.72
		c0-0.726-0.014-0.798-0.383-1.021l-0.121-0.072c-0.062-0.037-0.062-0.209,0-0.247c0.307-0.099,0.885-0.282,1.327-0.516
		c0.049,0,0.099,0.024,0.122,0.073c-0.013,0.368-0.035,0.984-0.035,1.522V28.855z M55.378,27.014c0-0.248-0.05-0.357-0.135-0.48
		c-0.185-0.258-0.553-0.514-1.031-0.514c-1.12,0-1.696,0.969-1.696,2.037c0,1.119,0.626,2.175,1.83,2.175
		c0.331,0,0.749-0.147,0.946-0.345c0.072-0.074,0.086-0.257,0.086-0.454V27.014z"/>
	<path fill="#3F4243" d="M62.149,26.324c-0.21,0-0.222,0.037-0.222,0.295v2.297c0,0.714,0.086,1.365,0.898,1.365
		c0.121,0,0.231-0.025,0.33-0.062c0.11-0.038,0.271-0.173,0.307-0.173c0.099,0,0.148,0.135,0.125,0.209
		c-0.223,0.258-0.666,0.564-1.292,0.564c-1.058,0-1.277-0.589-1.277-1.326v-2.813c0-0.333-0.013-0.356-0.257-0.356h-0.345
		c-0.075-0.049-0.087-0.184-0.038-0.258c0.356-0.11,0.664-0.271,0.788-0.381c0.157-0.146,0.392-0.479,0.516-0.725
		c0.062-0.024,0.209-0.024,0.257,0.06v0.554c0,0.222,0.013,0.234,0.222,0.234h1.363c0.147,0.109,0.124,0.441,0.013,0.516H62.149z"/>
	<path fill="#3F4243" d="M65.074,27.504c-0.32,0-0.334,0.025-0.334,0.331c0,1.243,0.726,2.298,2.041,2.298
		c0.406,0,0.749-0.122,1.131-0.602c0.123-0.037,0.209,0.036,0.221,0.148c-0.404,0.834-1.291,1.143-1.93,1.143
		c-0.799,0-1.425-0.345-1.781-0.812c-0.367-0.479-0.517-1.057-0.517-1.599c0-1.511,0.997-2.777,2.472-2.777
		c1.056,0,1.744,0.726,1.744,1.463c0,0.174-0.025,0.271-0.05,0.318c-0.036,0.076-0.208,0.088-0.726,0.088H65.074z M65.834,27.135
		c0.911,0,1.179-0.049,1.277-0.121c0.038-0.025,0.075-0.074,0.075-0.235c0-0.344-0.234-0.772-0.947-0.772
		c-0.725,0-1.35,0.663-1.364,1.067c0,0.024,0,0.062,0.087,0.062H65.834z"/>
	<path fill="#3F4243" d="M72.618,25.846c0.098,0.086,0.183,0.281,0.183,0.49c0,0.223-0.121,0.455-0.27,0.455
		c-0.062,0-0.123-0.023-0.171-0.086c-0.272-0.332-0.726-0.651-1.229-0.651c-0.861,0-1.697,0.677-1.697,1.977
		c0,0.96,0.663,2.103,1.979,2.103c0.713,0,1.081-0.32,1.366-0.738c0.096-0.023,0.206,0.062,0.22,0.173
		c-0.418,0.909-1.34,1.253-2.053,1.253c-0.649,0-1.252-0.208-1.683-0.625c-0.43-0.419-0.713-1.02-0.713-1.818
		c0-1.328,0.934-2.74,2.973-2.74C71.808,25.637,72.287,25.697,72.618,25.846"/>
	<path fill="#3F4243" d="M73.871,23.72c0-0.726-0.013-0.798-0.381-1.019l-0.123-0.076c-0.061-0.035-0.061-0.208,0-0.245
		c0.307-0.099,0.885-0.282,1.328-0.517c0.048,0,0.098,0.025,0.122,0.074c-0.012,0.368-0.036,0.984-0.036,1.523v2.582
		c0,0.109,0.012,0.207,0.049,0.231c0.442-0.345,1.031-0.64,1.659-0.64c1.166,0,1.585,0.726,1.585,1.587v2.052
		c0,0.885,0.024,1.018,0.465,1.068l0.334,0.037c0.084,0.062,0.061,0.27-0.025,0.309c-0.442-0.025-0.8-0.039-1.229-0.039
		c-0.443,0-0.812,0.014-1.144,0.039c-0.087-0.039-0.11-0.246-0.024-0.309l0.246-0.037c0.455-0.074,0.467-0.184,0.467-1.068v-1.758
		c0-0.787-0.381-1.314-1.167-1.314c-0.418,0-0.737,0.147-0.96,0.333c-0.22,0.183-0.256,0.244-0.256,0.675v2.064
		c0,0.885,0.024,1.008,0.466,1.068l0.257,0.037c0.087,0.049,0.062,0.27-0.023,0.309c-0.367-0.025-0.724-0.039-1.154-0.039
		c-0.441,0-0.812,0.014-1.205,0.039c-0.085-0.039-0.11-0.246-0.024-0.309l0.308-0.037c0.454-0.051,0.467-0.184,0.467-1.068V23.72z"
		/>
	<path fill="#3F4243" d="M80.126,27.123c0-0.48,0-0.541-0.332-0.763l-0.111-0.073c-0.049-0.049-0.049-0.184,0.012-0.221
		c0.284-0.098,0.984-0.418,1.229-0.602c0.052,0,0.112,0.023,0.137,0.086c-0.024,0.282-0.024,0.469-0.024,0.576
		c0,0.074,0.048,0.137,0.134,0.137c0.516-0.319,1.095-0.627,1.721-0.627c1.021,0,1.438,0.7,1.438,1.523v2.115
		c0,0.883,0.023,1.006,0.467,1.066l0.271,0.037c0.085,0.061,0.061,0.27-0.024,0.308c-0.37-0.026-0.726-0.038-1.155-0.038
		c-0.443,0-0.812,0.012-1.143,0.038c-0.088-0.038-0.111-0.247-0.025-0.308l0.232-0.037c0.456-0.074,0.467-0.184,0.467-1.066v-1.834
		c0-0.701-0.318-1.215-1.153-1.215c-0.468,0-0.874,0.195-1.044,0.428c-0.16,0.211-0.185,0.381-0.185,0.738v1.883
		c0,0.883,0.024,0.992,0.466,1.066l0.223,0.037c0.085,0.061,0.061,0.27-0.025,0.308c-0.332-0.026-0.688-0.038-1.12-0.038
		c-0.441,0-0.811,0.012-1.154,0.038c-0.086-0.038-0.11-0.247-0.025-0.308l0.26-0.037c0.453-0.061,0.467-0.184,0.467-1.066V27.123z"
		/>
	<path fill="#3F4243" d="M90.568,28.18c0,1.535-1.057,2.641-2.594,2.641c-1.412,0-2.52-0.993-2.52-2.53
		c0-1.548,1.168-2.653,2.619-2.653C89.45,25.637,90.568,26.669,90.568,28.18 M87.926,26.004c-0.811,0-1.413,0.776-1.413,2.127
		c0,1.117,0.503,2.323,1.586,2.323c1.081,0,1.413-1.132,1.413-2.079C89.512,27.332,89.094,26.004,87.926,26.004"/>
	<path fill="#3F4243" d="M92.577,29.273c0,0.885,0.023,1.008,0.469,1.068l0.293,0.037c0.086,0.062,0.062,0.27-0.025,0.309
		c-0.404-0.025-0.76-0.039-1.189-0.039c-0.443,0-0.812,0.014-1.181,0.039c-0.086-0.039-0.109-0.246-0.023-0.309l0.28-0.037
		c0.455-0.061,0.467-0.184,0.467-1.068V23.72c0-0.726-0.012-0.798-0.381-1.019l-0.121-0.076c-0.062-0.035-0.062-0.208,0-0.245
		c0.307-0.099,0.883-0.282,1.326-0.516c0.049,0,0.1,0.024,0.123,0.073c-0.014,0.369-0.037,0.984-0.037,1.523V29.273z"/>
	<path fill="#3F4243" d="M98.884,28.18c0,1.535-1.059,2.641-2.594,2.641c-1.412,0-2.52-0.993-2.52-2.53
		c0-1.548,1.166-2.653,2.617-2.653C97.763,25.637,98.884,26.669,98.884,28.18 M96.239,26.004c-0.811,0-1.414,0.776-1.414,2.127
		c0,1.117,0.506,2.323,1.586,2.323c1.082,0,1.414-1.132,1.414-2.079C97.825,27.332,97.407,26.004,96.239,26.004"/>
	<path fill="#3F4243" d="M104.524,26.078c0.133,0.062,0.109,0.48-0.074,0.504h-0.883c0.023,0.209,0.023,0.419,0.023,0.627
		c0,0.848-0.504,1.953-2.08,1.953c-0.221,0-0.393-0.025-0.541-0.036c-0.148,0.085-0.539,0.319-0.539,0.675
		c0,0.283,0.281,0.517,0.859,0.517c0.416,0,0.922-0.036,1.471-0.036c0.693,0,1.727,0.122,1.727,1.352c0,1.338-1.463,2.32-3.074,2.32
		c-1.512,0-2.039-0.809-2.039-1.424c0-0.197,0.049-0.357,0.133-0.455c0.211-0.221,0.553-0.541,0.838-0.823
		c0.107-0.11,0.209-0.222,0.098-0.294c-0.48-0.123-0.898-0.541-0.898-0.971c0-0.062,0.049-0.111,0.184-0.21
		c0.211-0.135,0.443-0.343,0.652-0.565c0.062-0.074,0.123-0.171,0.123-0.234c-0.418-0.22-0.922-0.698-0.922-1.484
		c0-1.058,0.91-1.855,2.004-1.855c0.467,0,0.898,0.123,1.191,0.246c0.396,0.171,0.482,0.195,0.752,0.195H104.524z M101.94,31.043
		c-0.393,0-0.885,0.022-1.057,0.135c-0.295,0.185-0.59,0.564-0.59,1.031c0,0.664,0.527,1.217,1.646,1.217
		c1.109,0,1.834-0.615,1.834-1.314c0-0.749-0.516-1.068-1.416-1.068H101.94z M102.712,27.529c0-0.837-0.354-1.537-1.104-1.537
		c-0.588,0-1.031,0.541-1.031,1.377c0,0.871,0.529,1.437,1.117,1.437C102.358,28.806,102.712,28.278,102.712,27.529"/>
	<path fill="#3F4243" d="M105.056,33.18c0-0.331,0.223-0.49,0.49-0.49h0.234c0.197,0,0.32-0.088,0.406-0.223
		c0.357-0.553,0.602-1.068,0.713-1.363c0.037-0.098,0.123-0.355,0.123-0.529c0-0.244-0.049-0.393-0.209-0.846l-0.959-2.631
		c-0.209-0.576-0.295-0.871-0.725-0.957l-0.307-0.062c-0.074-0.059-0.062-0.27,0.035-0.307c0.395,0.024,0.764,0.037,1.168,0.037
		c0.332,0,0.674-0.013,1.068-0.037c0.1,0.037,0.111,0.248,0.025,0.307l-0.307,0.062c-0.172,0.036-0.27,0.072-0.27,0.158
		c0,0.148,0.279,0.946,0.355,1.156l0.393,1.129c0.074,0.197,0.309,0.849,0.357,0.873c0.037-0.024,0.232-0.405,0.455-0.908
		l0.416-0.971c0.27-0.639,0.432-1.095,0.432-1.229c0-0.085-0.074-0.172-0.295-0.208l-0.381-0.062
		c-0.086-0.059-0.074-0.27,0.021-0.307c0.396,0.024,0.764,0.037,1.082,0.037c0.309,0,0.59-0.013,0.936-0.037
		c0.098,0.049,0.111,0.232,0.023,0.307l-0.209,0.037c-0.406,0.074-0.625,0.43-1.043,1.303l-0.689,1.411
		c-0.406,0.825-1.412,2.963-2.016,4.304c-0.207,0.465-0.504,0.576-0.785,0.576C105.241,33.709,105.056,33.486,105.056,33.18"/>
	<path fill="#3F4243" d="M113.599,27.001c-0.283-0.69-0.432-0.812-0.738-0.886l-0.195-0.049c-0.062-0.062-0.074-0.246,0.037-0.295
		c0.379,0.024,0.725,0.037,1.092,0.037c0.383,0,0.738-0.013,1.07-0.037c0.098,0.049,0.109,0.232,0.023,0.295l-0.283,0.049
		c-0.17,0.024-0.27,0.098-0.27,0.172c0,0.073,0.062,0.308,0.197,0.639l0.762,1.879c0.111,0.283,0.221,0.504,0.221,0.531
		c0.037-0.027,0.135-0.234,0.283-0.592l0.602-1.487c0.16-0.392,0.174-0.552,0.109-0.712c-0.109-0.271-0.295-0.368-0.564-0.43
		l-0.197-0.049c-0.086-0.074-0.061-0.258,0.037-0.295c0.309,0.024,0.701,0.037,1.021,0.037c0.379,0,0.75-0.013,1.166-0.037
		c0.109,0.037,0.109,0.232,0.037,0.295l-0.258,0.049c-0.49,0.098-0.465,0.135-0.32,0.564c0.137,0.406,0.799,1.967,0.934,2.297
		c0.074,0.186,0.125,0.321,0.162,0.346c0.023-0.024,0.086-0.146,0.17-0.346c0.16-0.355,0.652-1.657,0.838-2.173
		c0.096-0.283,0.123-0.443,0.123-0.529c0-0.073-0.074-0.135-0.225-0.159l-0.307-0.049c-0.098-0.062-0.072-0.258,0.012-0.295
		c0.357,0.024,0.664,0.037,0.971,0.037c0.236,0,0.529-0.013,0.799-0.037c0.1,0.049,0.111,0.232,0.037,0.295l-0.244,0.049
		c-0.297,0.062-0.406,0.232-0.664,0.773c-0.332,0.688-0.92,2.163-1.154,2.79c-0.174,0.442-0.32,0.799-0.42,1.117
		c-0.049,0.036-0.098,0.051-0.158,0.051c-0.049,0-0.098-0.015-0.135-0.051c-0.074-0.22-0.295-0.859-0.504-1.351l-0.59-1.414
		c-0.086-0.221-0.27-0.626-0.283-0.626c-0.012,0-0.182,0.382-0.27,0.603l-0.639,1.535c-0.223,0.529-0.395,0.971-0.49,1.253
		c-0.037,0.036-0.088,0.051-0.15,0.051c-0.047,0-0.107-0.015-0.146-0.051c-0.072-0.258-0.27-0.761-0.369-1.021L113.599,27.001z"/>
	<path fill="#3F4243" d="M126.04,28.18c0,1.535-1.057,2.641-2.594,2.641c-1.412,0-2.518-0.993-2.518-2.53
		c0-1.548,1.166-2.653,2.615-2.653C124.921,25.637,126.04,26.669,126.04,28.18 M123.397,26.004c-0.812,0-1.412,0.776-1.412,2.127
		c0,1.117,0.502,2.323,1.584,2.323s1.414-1.132,1.414-2.079C124.983,27.332,124.565,26.004,123.397,26.004"/>
	<path fill="#3F4243" d="M127.12,27.123c0-0.48,0-0.541-0.33-0.763l-0.111-0.073c-0.049-0.049-0.049-0.184,0.012-0.221
		c0.283-0.098,0.936-0.418,1.24-0.602c0.062,0.012,0.1,0.034,0.1,0.086v0.713c0,0.061,0.012,0.097,0.035,0.109
		c0.432-0.354,0.898-0.736,1.354-0.736c0.307,0,0.553,0.196,0.553,0.49c0,0.406-0.332,0.565-0.529,0.565
		c-0.123,0-0.184-0.038-0.27-0.085c-0.186-0.124-0.369-0.197-0.541-0.197c-0.195,0-0.346,0.111-0.441,0.244
		c-0.125,0.174-0.16,0.529-0.16,0.947v1.674c0,0.883,0.025,1.029,0.492,1.066l0.441,0.037c0.086,0.061,0.062,0.27-0.023,0.308
		c-0.58-0.026-0.934-0.038-1.365-0.038c-0.441,0-0.811,0.012-1.131,0.038c-0.086-0.038-0.109-0.247-0.023-0.308l0.232-0.037
		c0.453-0.074,0.467-0.184,0.467-1.066V27.123z"/>
	<path fill="#3F4243" d="M131.065,23.72c0-0.726-0.014-0.798-0.381-1.019l-0.125-0.076c-0.061-0.035-0.061-0.208,0-0.245
		c0.311-0.099,0.887-0.282,1.33-0.517c0.047,0,0.098,0.025,0.121,0.074c-0.012,0.368-0.035,0.984-0.035,1.523v4.213
		c0,0.16,0.012,0.186,0.219,0.186c0.271,0,0.506-0.135,0.836-0.479l0.504-0.541c0.344-0.369,0.43-0.503,0.43-0.565
		c0-0.062-0.061-0.098-0.27-0.122l-0.293-0.037c-0.111-0.037-0.111-0.27,0-0.307h0.281c0.539,0,1.266-0.025,1.951-0.1
		c0.088,0.037,0.1,0.247,0.025,0.309l-0.393,0.072c-0.246,0.05-0.453,0.174-0.773,0.431c-0.479,0.381-0.898,0.823-1.117,1.034
		c-0.148,0.133-0.16,0.195-0.086,0.293c0.207,0.283,0.404,0.517,0.822,0.982c0.48,0.542,0.908,1.02,1.154,1.252
		c0.174,0.161,0.42,0.234,0.641,0.273l0.172,0.023c0.084,0.062,0.072,0.27-0.025,0.309c-0.355-0.025-0.773-0.039-1.168-0.039
		c-0.49,0-0.922,0.014-1.277,0.039c-0.098-0.051-0.111-0.26-0.023-0.309l0.221-0.037c0.184-0.025,0.307-0.051,0.307-0.122
		c0-0.075-0.049-0.159-0.209-0.345l-1.314-1.523c-0.111-0.123-0.244-0.173-0.381-0.173c-0.221,0-0.232,0.038-0.232,0.417v0.678
		c0,0.885,0.023,1.008,0.465,1.068l0.297,0.037c0.086,0.062,0.059,0.27-0.025,0.309c-0.406-0.025-0.764-0.039-1.193-0.039
		c-0.439,0-0.811,0.014-1.18,0.039c-0.084-0.039-0.109-0.246-0.012-0.309l0.271-0.037c0.453-0.061,0.467-0.184,0.467-1.068V23.72z"
		/>
	<path fill="#3F4243" d="M137.239,27.123c0-0.479,0-0.541-0.332-0.763l-0.111-0.073c-0.049-0.049-0.049-0.184,0.012-0.221
		c0.283-0.098,0.984-0.418,1.266-0.602c0.062,0,0.111,0.022,0.123,0.072c-0.025,0.432-0.049,1.02-0.049,1.524v2.214
		c0,0.883,0.023,1.006,0.467,1.066l0.258,0.037c0.086,0.061,0.061,0.27-0.023,0.308c-0.369-0.024-0.727-0.038-1.156-0.038
		c-0.441,0-0.811,0.014-1.154,0.038c-0.086-0.038-0.111-0.247-0.025-0.308l0.26-0.037c0.453-0.061,0.467-0.184,0.467-1.066V27.123z
		 M138.259,23.621c0,0.442-0.309,0.639-0.652,0.639c-0.381,0-0.627-0.283-0.627-0.612c0-0.407,0.295-0.666,0.664-0.666
		S138.259,23.277,138.259,23.621"/>
	<path fill="#3F4243" d="M140.231,27.123c0-0.48,0-0.541-0.332-0.763l-0.111-0.073c-0.049-0.049-0.049-0.184,0.014-0.221
		c0.283-0.098,0.982-0.418,1.229-0.602c0.049,0,0.109,0.023,0.135,0.086c-0.025,0.282-0.025,0.469-0.025,0.576
		c0,0.074,0.051,0.137,0.137,0.137c0.516-0.319,1.092-0.627,1.719-0.627c1.02,0,1.438,0.7,1.438,1.523v2.115
		c0,0.883,0.025,1.006,0.467,1.066l0.27,0.037c0.088,0.061,0.062,0.27-0.025,0.308c-0.367-0.026-0.723-0.038-1.152-0.038
		c-0.441,0-0.812,0.012-1.143,0.038c-0.086-0.038-0.111-0.247-0.025-0.308l0.234-0.037c0.455-0.074,0.467-0.184,0.467-1.066v-1.834
		c0-0.701-0.32-1.215-1.156-1.215c-0.465,0-0.871,0.195-1.043,0.428c-0.16,0.211-0.186,0.381-0.186,0.738v1.883
		c0,0.883,0.025,0.992,0.469,1.066l0.221,0.037c0.086,0.061,0.061,0.27-0.025,0.308c-0.332-0.026-0.688-0.038-1.117-0.038
		c-0.443,0-0.812,0.012-1.156,0.038c-0.086-0.038-0.109-0.247-0.023-0.308l0.258-0.037c0.455-0.061,0.467-0.184,0.467-1.066V27.123z
		"/>
	<path fill="#3F4243" d="M150.655,26.078c0.137,0.062,0.111,0.48-0.074,0.504h-0.885c0.025,0.209,0.025,0.419,0.025,0.627
		c0,0.848-0.504,1.953-2.062,1.953c-0.223,0-0.395-0.025-0.543-0.036c-0.146,0.085-0.539,0.319-0.539,0.675
		c0,0.283,0.283,0.517,0.859,0.517c0.42,0,0.922-0.036,1.463-0.036c0.688,0,1.721,0.122,1.721,1.352c0,1.338-1.463,2.32-3.059,2.32
		c-1.512,0-2.041-0.809-2.041-1.424c0-0.197,0.049-0.357,0.135-0.455c0.209-0.221,0.553-0.541,0.834-0.823
		c0.113-0.11,0.211-0.222,0.1-0.294c-0.479-0.123-0.896-0.541-0.896-0.971c0-0.062,0.051-0.111,0.184-0.21
		c0.209-0.135,0.443-0.343,0.652-0.565c0.061-0.074,0.123-0.171,0.123-0.234c-0.418-0.22-0.922-0.698-0.922-1.484
		c0-1.058,0.91-1.855,2.002-1.855c0.467,0,0.896,0.123,1.18,0.246c0.395,0.171,0.479,0.195,0.75,0.195H150.655z M148.089,31.043
		c-0.395,0-0.887,0.022-1.059,0.135c-0.295,0.185-0.588,0.564-0.588,1.031c0,0.664,0.527,1.217,1.646,1.217
		c1.092,0,1.818-0.615,1.818-1.314c0-0.749-0.518-1.068-1.402-1.068H148.089z M148.849,27.529c0-0.837-0.344-1.537-1.094-1.537
		c-0.588,0-1.031,0.541-1.031,1.377c0,0.871,0.527,1.437,1.119,1.437C148.505,28.806,148.849,28.278,148.849,27.529"/>
	<path fill="#3F4243" d="M155.937,28.106c0.184-0.063,0.209-0.173,0.209-0.358l0.012-0.564c0.014-0.455-0.135-1.066-0.896-1.066
		c-0.344,0-0.762,0.17-0.787,0.552c-0.014,0.195-0.023,0.345-0.121,0.417c-0.186,0.146-0.518,0.233-0.701,0.233
		c-0.111,0-0.174-0.062-0.174-0.172c0-0.64,1.391-1.513,2.287-1.513c0.885,0,1.314,0.518,1.277,1.438l-0.074,2.139
		c-0.023,0.564,0.088,1.069,0.566,1.069c0.123,0,0.232-0.038,0.307-0.074c0.062-0.037,0.123-0.086,0.16-0.086
		c0.049,0,0.086,0.072,0.086,0.16c0,0.061-0.43,0.539-1.031,0.539c-0.295,0-0.59-0.109-0.799-0.381
		c-0.051-0.072-0.123-0.172-0.197-0.172c-0.086,0-0.234,0.111-0.479,0.246c-0.271,0.148-0.543,0.307-0.885,0.307
		c-0.357,0-0.652-0.098-0.861-0.282c-0.232-0.208-0.381-0.516-0.381-0.859c0-0.479,0.234-0.763,1.02-1.044L155.937,28.106z
		 M155.175,30.268c0.246,0,0.627-0.184,0.752-0.305c0.146-0.15,0.146-0.321,0.158-0.579l0.023-0.727
		c0-0.133-0.049-0.157-0.123-0.157c-0.072,0-0.281,0.049-0.504,0.121c-0.725,0.247-1.082,0.431-1.082,0.91
		C154.399,29.738,154.548,30.268,155.175,30.268"/>
	<path fill="#3F4243" d="M161.437,25.857c0.109,0.271,0.197,0.664,0.197,0.994c-0.051,0.088-0.234,0.111-0.297,0.038
		c-0.205-0.541-0.576-0.897-1.08-0.897c-0.479,0-0.787,0.307-0.787,0.75c0,0.503,0.518,0.773,0.947,1.02
		c0.652,0.369,1.255,0.787,1.255,1.658c0,0.936-0.862,1.402-1.771,1.402c-0.578,0-1.01-0.123-1.316-0.369
		c-0.098-0.234-0.172-0.836-0.146-1.242c0.061-0.074,0.221-0.084,0.283-0.011c0.209,0.675,0.602,1.266,1.301,1.266
		c0.443,0,0.824-0.259,0.824-0.786c0-0.565-0.492-0.874-0.945-1.131c-0.713-0.405-1.218-0.836-1.218-1.514
		c0-0.896,0.737-1.4,1.671-1.4C160.87,25.635,161.325,25.76,161.437,25.857"/>
	<path fill="#3F4243" d="M169.657,28.18c0,1.535-1.057,2.641-2.592,2.641c-1.412,0-2.52-0.993-2.52-2.53
		c0-1.548,1.168-2.653,2.617-2.653C168.538,25.637,169.657,26.669,169.657,28.18 M167.017,26.004c-0.811,0-1.414,0.776-1.414,2.127
		c0,1.117,0.504,2.323,1.586,2.323s1.412-1.132,1.412-2.079C168.601,27.332,168.185,26.004,167.017,26.004"/>
	<path fill="#3F4243" d="M170.612,27.123c0-0.48,0-0.541-0.332-0.763l-0.109-0.073c-0.049-0.049-0.049-0.184,0.012-0.221
		c0.283-0.098,0.982-0.418,1.229-0.602c0.049,0,0.111,0.023,0.137,0.086c-0.025,0.282-0.025,0.469-0.025,0.576
		c0,0.074,0.049,0.137,0.135,0.137c0.516-0.319,1.094-0.627,1.719-0.627c1.02,0,1.439,0.7,1.439,1.523v2.115
		c0,0.883,0.023,1.006,0.467,1.066l0.27,0.037c0.086,0.061,0.061,0.27-0.025,0.308c-0.367-0.026-0.725-0.038-1.154-0.038
		c-0.441,0-0.811,0.012-1.143,0.038c-0.088-0.038-0.111-0.247-0.023-0.308l0.232-0.037c0.455-0.074,0.465-0.184,0.465-1.066v-1.834
		c0-0.701-0.316-1.215-1.152-1.215c-0.467,0-0.873,0.195-1.047,0.428c-0.156,0.211-0.182,0.381-0.182,0.738v1.883
		c0,0.883,0.025,0.992,0.465,1.066l0.223,0.037c0.084,0.061,0.062,0.27-0.025,0.308c-0.33-0.026-0.688-0.038-1.117-0.038
		c-0.441,0-0.812,0.012-1.156,0.038c-0.084-0.038-0.109-0.247-0.023-0.308l0.258-0.037c0.455-0.061,0.467-0.184,0.467-1.066V27.123z
		"/>
	<path fill="#3F4243" d="M176.823,27.504c-0.318,0-0.332,0.025-0.332,0.331c0,1.243,0.727,2.298,2.041,2.298
		c0.406,0,0.75-0.122,1.131-0.602c0.123-0.037,0.209,0.036,0.221,0.148c-0.404,0.834-1.291,1.143-1.928,1.143
		c-0.801,0-1.426-0.345-1.783-0.812c-0.367-0.479-0.516-1.057-0.516-1.599c0-1.511,0.996-2.777,2.471-2.777
		c1.057,0,1.744,0.726,1.744,1.463c0,0.174-0.025,0.271-0.049,0.318c-0.037,0.076-0.209,0.088-0.727,0.088H176.823z M177.585,27.135
		c0.91,0,1.18-0.049,1.279-0.121c0.037-0.025,0.074-0.074,0.074-0.235c0-0.344-0.234-0.772-0.947-0.772
		c-0.725,0-1.35,0.663-1.363,1.067c0,0.024,0,0.062,0.086,0.062H177.585z"/>
	<rect x="96.509" y="0.866" fill="#3F4243" width="3.656" height="14.223"/>
	<rect x="157.294" y="0.866" fill="#3F4243" width="3.656" height="14.223"/>
	<polygon fill="#3F4243" points="44.508,12.131 44.508,0.866 40.845,0.866 40.845,15.089 53.451,15.089 53.451,12.131 	"/>
	<path fill="#3F4243" d="M130.394,0.039l-9.244,15.049h4.34l1.045-1.861h7.617l1.066,1.861h4.41L130.394,0.039z M128.093,10.386
		l2.254-3.972l2.227,3.972H128.093"/>
	<path fill="#3F4243" d="M179.981,3.125c-0.445-0.332-3.078-2.512-7.787-2.517c-4.707-0.003-7.666,2.192-7.701,4.581
		c-0.047,2.928,3.219,3.84,5.887,4.117c0.98,0.1,2.1,0.198,3.281,0.318c1.621,0.162,2.58,0.358,2.58,1.344
		c0,1.041-1.932,1.451-4.162,1.451c-2.902,0-4.782-0.931-6.158-1.933l-1.943,2.409c1.441,1.029,3.754,2.471,8.217,2.467
		c5.746-0.008,7.805-2.614,7.805-4.718c0-2.446-1.756-3.832-5.887-4.233l-2.539-0.264c-2.215-0.198-3.354-0.529-3.354-1.264
		c0.006-0.684,1.201-1.293,3.975-1.291c3.506,0.003,5.122,1.18,5.967,1.767L179.981,3.125"/>
	<polygon fill="#3F4243" points="145.569,12.131 145.569,0.866 141.907,0.866 141.907,15.089 154.511,15.089 154.511,12.131 	"/>
	<path fill="#3F4243" d="M63.886,0.613c-5.18,0-9.225,3.159-9.229,7.364c0.004,4.205,4.049,7.38,9.229,7.38
		c5.181,0,9.224-3.175,9.229-7.38C73.11,3.772,69.067,0.613,63.886,0.613 M63.886,12.41c-3.15,0.007-5.486-1.945-5.486-4.433
		s2.336-4.423,5.486-4.416c3.149-0.007,5.486,1.929,5.486,4.416S67.036,12.417,63.886,12.41"/>
	<path fill="#3F4243" d="M92.673,6.893h-7.765v2.849h4.345v1.618c-0.872,0.535-2.554,1.037-4.345,1.043
		c-3.151,0.008-5.489-1.924-5.489-4.408c0-2.486,2.337-4.424,5.489-4.418c2.114,0,3.869,0.524,5.809,2.102l1.853-2.276
		c-1.798-1.608-4.356-2.788-7.661-2.788c-5.182,0-9.227,3.176-9.229,7.381c0.002,4.203,4.047,7.369,9.229,7.369
		c3.16,0.006,6.018-1.23,7.765-2.682V6.893"/>
	<path fill="#3F4243" d="M112.69,12.398c-3.148,0.008-5.484-1.928-5.484-4.416c0-2.484,2.336-4.424,5.484-4.415
		c2.115,0,3.873,0.524,5.812,2.101l1.852-2.277c-1.799-1.607-4.361-2.789-7.664-2.789c-5.178,0-9.223,3.178-9.223,7.381
		c0,4.205,4.045,7.389,9.223,7.389c3.303,0,5.865-1.182,7.664-2.788l-1.852-2.279C116.563,11.883,114.806,12.398,112.69,12.398"/>
	<path fill="#3F4243" d="M173.472,9.613c-0.961-0.092-2.104-0.212-2.85-0.293"/>
	<path fill="#E41E26" d="M33.711,8.665c0.378-0.517,0.743-1.272,0.751-2.315c0.018-2.576-2.215-5.618-8.252-5.658
		c-2.716-0.018-6.094,1.012-8.316,2.017c-3.366,1.521-6.443,3.399-10.492,3.399c-4.474,0-5.624-1.562-5.621-2.769
		c0.004-1.729,1.99-2.542,3.494-2.542c0.916,0,2.035,0.219,3.312,1.014C10.133,2.765,11.142,3.5,12.172,3.5
		c0.938,0,1.48-0.311,1.761-1.31C13.133,1.63,10.166,0,6.357,0C1.044,0,0.145,3.093,0.145,4.824c0,0.775,0.228,1.629,0.755,2.418
		C0.521,7.758,0.157,8.514,0.15,9.561c-0.021,2.574,2.213,5.616,8.25,5.656c2.715,0.017,6.093-1.014,8.313-2.018
		c3.37-1.521,6.446-3.398,10.493-3.398c4.478,0,5.625,1.561,5.619,2.77c-0.002,1.726-1.986,2.54-3.491,2.54
		c-0.917,0-2.032-0.222-3.315-1.013c-1.545-0.956-2.552-1.693-3.581-1.693c-0.94,0-1.482,0.312-1.764,1.314
		c0.801,0.559,3.77,2.188,7.577,2.188c5.313,0,6.214-3.094,6.214-4.824C34.465,10.306,34.24,9.453,33.711,8.665 M26.996,5.886
		c-4.303-0.05-7.328,1.879-11.038,3.388c-2.796,1.142-5.118,2.108-8.021,2.084c-4.66-0.035-6.66-1.716-6.66-3.317
		c0-0.105,0.006-0.2,0.016-0.29c1.106,1.252,3.096,2.232,6.322,2.271c4.304,0.047,7.33-1.879,11.036-3.391
		c2.798-1.139,5.122-2.105,8.022-2.083c4.66,0.036,6.66,1.72,6.66,3.318c0,0.104-0.006,0.198-0.017,0.288
		C32.211,6.904,30.222,5.924,26.996,5.886"/>
</g>
</svg>
