<?xml version="1.0" encoding="utf-8"?>
<!-- Generator: Adobe Illustrator 16.0.0, SVG Export Plug-In . SVG Version: 6.00 Build 0)  -->
<!DOCTYPE svg PUBLIC "-//W3C//DTD SVG 1.1//EN" "http://www.w3.org/Graphics/SVG/1.1/DTD/svg11.dtd">
<svg version="1.1" id="Layer_1" xmlns="http://www.w3.org/2000/svg" xmlns:xlink="http://www.w3.org/1999/xlink" x="0px" y="0px"
	 width="650px" height="600px" viewBox="0 0 650 600" enable-background="new 0 0 650 600" xml:space="preserve">
<g>
	<circle fill="#0E304F" cx="311.788" cy="399.362" r="0.512"/>
	<circle fill="#0E304F" cx="297.593" cy="394.939" r="1.024"/>
	<circle fill="#0E304F" cx="283.941" cy="389.057" r="1.535"/>
	<circle fill="#0E304F" cx="270.981" cy="381.769" r="2.048"/>
	<circle fill="#0E304F" cx="258.866" cy="373.163" r="2.561"/>
	<circle fill="#0E304F" cx="247.726" cy="363.322" r="3.072"/>
	<circle fill="#0E304F" cx="237.674" cy="352.364" r="3.585"/>
	<circle fill="#0E304F" cx="228.854" cy="340.395" r="4.096"/>
	<circle fill="#0E304F" cx="221.619" cy="327.404" r="4.609"/>
	<circle fill="#0E304F" cx="216.157" cy="313.577" r="5.121"/>
	<circle fill="#0E304F" cx="212.563" cy="299.153" r="5.633"/>
	<circle fill="#0E304F" cx="210.895" cy="284.384" r="6.145"/>
	<circle fill="#0E304F" cx="211.169" cy="269.523" r="6.658"/>
	<circle fill="#0E304F" cx="213.375" cy="254.828" r="7.169"/>
	<circle fill="#0E304F" cx="421.361" cy="365.071" r="0.453"/>
	<path fill="#0E304F" d="M408.196,371.073c-0.498,0-0.903,0.406-0.903,0.905c0,0.502,0.405,0.906,0.903,0.906
		c0.502,0,0.907-0.404,0.907-0.906C409.104,371.479,408.698,371.073,408.196,371.073z"/>
	<path fill="#0E304F" d="M394.381,376.117c-0.746,0-1.355,0.606-1.355,1.356c0,0.749,0.609,1.357,1.355,1.357
		c0.752,0,1.359-0.608,1.359-1.357C395.74,376.724,395.133,376.117,394.381,376.117z"/>
	<circle fill="#0E304F" cx="380.067" cy="381.487" r="1.81"/>
	<path fill="#0E304F" d="M365.416,381.702c-1.252,0-2.262,1.013-2.262,2.264c0,1.248,1.01,2.261,2.262,2.261
		c1.249,0,2.26-1.013,2.26-2.261C367.676,382.715,366.665,381.702,365.416,381.702z"/>
	<circle fill="#0E304F" cx="350.58" cy="384.885" r="2.715"/>
	<circle fill="#0E304F" cx="335.723" cy="384.245" r="3.167"/>
	<circle fill="#0E304F" cx="321.022" cy="382.019" r="3.619"/>
	<circle fill="#0E304F" cx="306.722" cy="377.945" r="4.072"/>
	<circle fill="#0E304F" cx="293.082" cy="372.032" r="4.525"/>
	<circle fill="#0E304F" cx="280.342" cy="364.372" r="4.977"/>
	<circle fill="#0E304F" cx="268.718" cy="355.108" r="5.429"/>
	<circle fill="#0E304F" cx="258.405" cy="344.407" r="5.881"/>
	<circle fill="#0E304F" cx="249.573" cy="332.455" r="6.334"/>
	<circle fill="#0E304F" cx="242.369" cy="319.453" r="6.786"/>
	<circle fill="#0E304F" cx="474.598" cy="263.339" r="0.405"/>
	<circle fill="#0E304F" cx="470.172" cy="277.533" r="0.811"/>
	<path fill="#0E304F" d="M464.287,289.972c-0.669,0-1.214,0.542-1.214,1.214c0,0.671,0.545,1.215,1.214,1.215
		c0.676,0,1.217-0.544,1.217-1.215C465.504,290.514,464.963,289.972,464.287,289.972z"/>
	<path fill="#0E304F" d="M457.004,302.525c-0.896,0-1.623,0.724-1.623,1.62c0,0.895,0.727,1.62,1.623,1.62
		c0.893,0,1.619-0.726,1.619-1.62C458.623,303.249,457.896,302.525,457.004,302.525z"/>
	<circle fill="#0E304F" cx="448.396" cy="316.261" r="2.026"/>
	<circle fill="#0E304F" cx="438.557" cy="327.401" r="2.431"/>
	<circle fill="#0E304F" cx="427.598" cy="337.454" r="2.836"/>
	<circle fill="#0E304F" cx="415.629" cy="346.273" r="3.242"/>
	<path fill="#0E304F" d="M402.64,349.861c-2.019,0-3.65,1.631-3.65,3.645c0,2.015,1.632,3.646,3.65,3.646
		c2.01,0,3.644-1.632,3.644-3.646C406.283,351.492,404.649,349.861,402.64,349.861z"/>
	<path fill="#0E304F" d="M388.81,354.917c-2.234,0-4.052,1.814-4.052,4.052c0,2.238,1.817,4.053,4.052,4.053
		c2.237,0,4.052-1.814,4.052-4.053C392.861,356.731,391.047,354.917,388.81,354.917z"/>
	<circle fill="#0E304F" cx="374.386" cy="362.563" r="4.457"/>
	<circle fill="#0E304F" cx="359.617" cy="364.232" r="4.862"/>
	<circle fill="#0E304F" cx="344.758" cy="363.958" r="5.268"/>
	<path fill="#0E304F" d="M335.732,361.752c0-3.134-2.54-5.674-5.675-5.674c-3.13,0-5.67,2.54-5.67,5.674
		c0,3.133,2.54,5.673,5.67,5.673C333.192,367.425,335.732,364.885,335.732,361.752z"/>
	<circle fill="#0E304F" cx="315.773" cy="357.65" r="6.078"/>
	<circle fill="#0E304F" cx="302.144" cy="351.72" r="6.483"/>
	<path fill="#0E304F" d="M440.299,154.174c0.225,0,0.41-0.182,0.41-0.406s-0.186-0.406-0.41-0.406c-0.224,0-0.4,0.182-0.4,0.406
		S440.075,154.174,440.299,154.174z"/>
	<path fill="#0E304F" d="M447.213,167.743c0.444,0,0.808-0.362,0.808-0.811s-0.363-0.812-0.808-0.812
		c-0.449,0-0.812,0.363-0.812,0.812S446.764,167.743,447.213,167.743z"/>
	<path fill="#0E304F" d="M452.702,181.961c0.673,0,1.218-0.545,1.218-1.215c0-0.671-0.545-1.216-1.218-1.216
		c-0.669,0-1.213,0.545-1.213,1.216C451.489,181.416,452.033,181.961,452.702,181.961z"/>
	<path fill="#0E304F" d="M456.716,196.684c0.896,0,1.618-0.727,1.618-1.623c0-0.895-0.722-1.62-1.618-1.62s-1.622,0.726-1.622,1.62
		C455.094,195.957,455.819,196.684,456.716,196.684z"/>
	<circle fill="#0E304F" cx="459.194" cy="209.714" r="2.026"/>
	<circle fill="#0E304F" cx="460.117" cy="224.549" r="2.431"/>
	<path fill="#0E304F" d="M459.473,236.568c-1.565,0-2.832,1.271-2.832,2.838c0,1.565,1.267,2.836,2.832,2.836
		c1.569,0,2.84-1.271,2.84-2.836C462.312,237.839,461.042,236.568,459.473,236.568z"/>
	<path fill="#0E304F" d="M457.249,250.864c-1.793,0-3.241,1.452-3.241,3.243c0,1.789,1.448,3.239,3.241,3.239
		c1.79,0,3.241-1.45,3.241-3.239C460.49,252.316,459.039,250.864,457.249,250.864z"/>
	<circle fill="#0E304F" cx="453.175" cy="268.406" r="3.647"/>
	<circle fill="#0E304F" cx="447.262" cy="282.047" r="4.052"/>
	<circle fill="#0E304F" cx="439.602" cy="294.787" r="4.457"/>
	<path fill="#0E304F" d="M430.338,301.549c-2.684,0-4.864,2.175-4.864,4.861c0,2.685,2.181,4.862,4.864,4.862
		c2.686,0,4.863-2.178,4.863-4.862C435.201,303.724,433.023,301.549,430.338,301.549z"/>
	<circle fill="#0E304F" cx="419.635" cy="316.723" r="5.268"/>
	<circle fill="#0E304F" cx="407.685" cy="325.555" r="5.673"/>
	<circle fill="#0E304F" cx="394.684" cy="332.759" r="6.078"/>
	<path fill="#0E304F" d="M380.851,331.721c-3.579,0-6.482,2.902-6.482,6.481c0,3.582,2.903,6.484,6.482,6.484
		c3.583,0,6.485-2.902,6.485-6.484C387.336,334.623,384.434,331.721,380.851,331.721z"/>
	<path fill="#0E304F" d="M338.572,100.937c0.221,0,0.406-0.181,0.406-0.406c0-0.224-0.186-0.404-0.406-0.404
		c-0.225,0-0.406,0.181-0.406,0.404C338.166,100.756,338.348,100.937,338.572,100.937z"/>
	<circle fill="#0E304F" cx="352.764" cy="104.954" r="0.811"/>
	<path fill="#0E304F" d="M366.42,112.056c0.669,0,1.213-0.547,1.213-1.218c0-0.672-0.544-1.217-1.213-1.217
		c-0.673,0-1.217,0.545-1.217,1.217C365.203,111.509,365.747,112.056,366.42,112.056z"/>
	<path fill="#0E304F" d="M379.378,119.745c0.893,0,1.618-0.726,1.618-1.62c0-0.896-0.726-1.622-1.618-1.622
		c-0.896,0-1.622,0.726-1.622,1.622C377.756,119.02,378.481,119.745,379.378,119.745z"/>
	<path fill="#0E304F" d="M391.492,128.759c1.117,0,2.024-0.906,2.024-2.027c0-1.117-0.907-2.024-2.024-2.024
		c-1.121,0-2.027,0.907-2.027,2.024C389.465,127.853,390.371,128.759,391.492,128.759z"/>
	<circle fill="#0E304F" cx="402.633" cy="136.572" r="2.431"/>
	<path fill="#0E304F" d="M412.688,150.366c1.564,0,2.831-1.271,2.831-2.835c0-1.567-1.267-2.838-2.831-2.838
		c-1.569,0-2.84,1.271-2.84,2.838C409.848,149.096,411.118,150.366,412.688,150.366z"/>
	<path fill="#0E304F" d="M421.507,162.74c1.789,0,3.237-1.451,3.237-3.24c0-1.792-1.448-3.241-3.237-3.241
		c-1.793,0-3.241,1.449-3.241,3.241C418.266,161.289,419.714,162.74,421.507,162.74z"/>
	<circle fill="#0E304F" cx="428.74" cy="172.49" r="3.647"/>
	<path fill="#0E304F" d="M430.152,186.315c0,2.238,1.811,4.052,4.053,4.052c2.234,0,4.053-1.813,4.053-4.052
		s-1.818-4.053-4.053-4.053C431.963,182.263,430.152,184.077,430.152,186.315z"/>
	<path fill="#0E304F" d="M433.337,200.738c0,2.463,1.995,4.459,4.461,4.459c2.459,0,4.454-1.996,4.454-4.459
		c0-2.461-1.995-4.456-4.454-4.456C435.332,196.282,433.337,198.277,433.337,200.738z"/>
	<path fill="#0E304F" d="M434.6,215.512c0,2.685,2.182,4.861,4.863,4.861c2.687,0,4.863-2.177,4.863-4.861
		c0-2.687-2.177-4.864-4.863-4.864C436.781,210.647,434.6,212.825,434.6,215.512z"/>
	<circle fill="#0E304F" cx="439.189" cy="230.371" r="5.27"/>
	<circle fill="#0E304F" cx="436.981" cy="245.067" r="5.673"/>
	<circle fill="#0E304F" cx="432.883" cy="259.354" r="6.079"/>
	<circle fill="#0E304F" cx="426.953" cy="272.982" r="6.483"/>
	<circle fill="#0E304F" cx="228.995" cy="134.825" r="0.405"/>
	<circle fill="#0E304F" cx="242.159" cy="127.916" r="0.81"/>
	<circle fill="#0E304F" cx="255.973" cy="122.422" r="1.216"/>
	<circle fill="#0E304F" cx="270.288" cy="118.41" r="1.621"/>
	<circle fill="#0E304F" cx="284.941" cy="115.931" r="2.026"/>
	<circle fill="#0E304F" cx="299.777" cy="115.01" r="2.432"/>
	<circle fill="#0E304F" cx="314.634" cy="115.651" r="2.836"/>
	<circle fill="#0E304F" cx="329.332" cy="117.876" r="3.242"/>
	<circle fill="#0E304F" cx="343.635" cy="121.95" r="3.647"/>
	<path fill="#0E304F" d="M357.276,131.915c2.233,0,4.049-1.814,4.049-4.053c0-2.237-1.815-4.053-4.049-4.053
		c-2.239,0-4.053,1.815-4.053,4.053C353.224,130.101,355.037,131.915,357.276,131.915z"/>
	<path fill="#0E304F" d="M365.559,135.522c0,2.461,1.996,4.455,4.454,4.455c2.463,0,4.458-1.994,4.458-4.455
		c0-2.462-1.995-4.458-4.458-4.458C367.555,131.064,365.559,133.061,365.559,135.522z"/>
	<path fill="#0E304F" d="M381.641,149.649c2.683,0,4.859-2.177,4.859-4.862s-2.177-4.863-4.859-4.863
		c-2.689,0-4.863,2.178-4.863,4.863S378.951,149.649,381.641,149.649z"/>
	<path fill="#0E304F" d="M391.951,160.756c2.91,0,5.27-2.357,5.27-5.267s-2.359-5.269-5.27-5.269c-2.907,0-5.266,2.359-5.266,5.269
		S389.044,160.756,391.951,160.756z"/>
	<circle fill="#0E304F" cx="400.785" cy="167.438" r="5.673"/>
	<circle fill="#0E304F" cx="407.987" cy="180.441" r="6.077"/>
	<path fill="#0E304F" d="M406.947,194.272c0,3.581,2.904,6.484,6.482,6.484c3.58,0,6.486-2.903,6.486-6.484
		s-2.906-6.482-6.486-6.482C409.852,187.79,406.947,190.691,406.947,194.272z"/>
	<circle fill="#0E304F" cx="417.01" cy="208.691" r="6.889"/>
	<circle fill="#0E304F" cx="175.765" cy="236.557" r="0.764"/>
	<circle fill="#0E304F" cx="180.187" cy="222.366" r="1.528"/>
	<circle fill="#0E304F" cx="186.069" cy="208.713" r="2.293"/>
	<circle fill="#0E304F" cx="193.354" cy="195.754" r="3.056"/>
	<circle fill="#0E304F" cx="201.964" cy="183.636" r="3.822"/>
	<circle fill="#0E304F" cx="211.805" cy="172.495" r="4.584"/>
	<circle fill="#0E304F" cx="222.76" cy="162.444" r="5.351"/>
	<circle fill="#0E304F" cx="234.715" cy="153.611" r="6.112"/>
	<circle fill="#0E304F" cx="247.646" cy="146.28" r="6.876"/>
	<path fill="#0E304F" d="M261.416,148.326c3.828,0,6.969-2.823,7.524-6.497c1.519,2.165,4.029,3.583,6.875,3.583
		c3.245,0,6.056-1.845,7.455-4.538c1.672,2.216,4.322,3.657,7.313,3.657c2.683,0,5.088-1.16,6.765-2.996
		c1.798,2.533,4.749,4.191,8.093,4.191c2.104,0,4.05-0.658,5.657-1.775c0.372,0.591,0.797,1.141,1.274,1.644
		c-2.516,0.264-4.777,1.363-6.519,3.007c-1.892-1.722-4.398-2.78-7.157-2.78c-3.532,0-6.653,1.728-8.59,4.374
		c-1.705-1.332-3.846-2.135-6.18-2.135c-4.031,0-7.5,2.381-9.102,5.807c-1.515-1.032-3.346-1.637-5.316-1.637
		c-4.497,0-8.252,3.139-9.217,7.34c-1.345-0.821-2.923-1.306-4.616-1.306c-4.9,0-8.873,3.973-8.873,8.873
		c0,0.012,0.002,0.022,0.002,0.034c-1.217-0.702-2.625-1.112-4.131-1.112c-4.573,0-8.28,3.708-8.28,8.282
		c0,0.797,0.119,1.563,0.329,2.293c-1.168-0.716-2.529-1.15-3.999-1.15c-4.247,0-7.689,3.441-7.689,7.689
		c0,4.246,3.442,7.688,7.689,7.688c4.247,0,7.688-3.442,7.688-7.688c0-0.662-0.108-1.291-0.265-1.903
		c1.301,0.853,2.855,1.352,4.527,1.352c4.476,0,8.112-3.555,8.267-7.99c1.372,0.867,2.992,1.378,4.735,1.378
		c0.164,0,0.323-0.016,0.485-0.024c-1.854,1.704-3.078,4.077-3.282,6.741c-0.587-0.109-1.189-0.174-1.808-0.174
		c-5.375,0-9.731,4.357-9.731,9.729c0,0.388,0.028,0.767,0.073,1.142c-0.351-0.041-0.704-0.067-1.064-0.067
		c-5.09,0-9.217,4.127-9.217,9.219c0,1.025,0.174,2.01,0.484,2.932c-0.181-0.013-0.359-0.028-0.543-0.028
		c-4.808,0-8.706,3.897-8.706,8.706c0,1.668,0.478,3.22,1.291,4.545c-0.083-0.002-0.165-0.013-0.25-0.013
		c-4.526,0-8.194,3.669-8.194,8.194c0,2.362,1.007,4.486,2.607,5.982c-0.117-0.005-0.227-0.036-0.345-0.036
		c-4.242,0-7.682,3.438-7.682,7.682s3.44,7.682,7.682,7.682c4.243,0,7.682-3.438,7.682-7.682c0-2.138-0.877-4.07-2.288-5.461
		c0.179,0.011,0.357,0.026,0.539,0.026c2.377,0,4.512-1.02,6.008-2.636c-0.003,0.096-0.014,0.188-0.014,0.284
		c0,2.106,0.693,4.047,1.854,5.623c-3.497,1.251-6.004,4.585-6.004,8.513c0,2.754,1.236,5.216,3.177,6.875
		c-2.96,1.359-5.021,4.343-5.021,7.812c0,3.302,1.866,6.166,4.6,7.607c-2.64,1.347-4.452,4.084-4.452,7.252
		c0,3.872,2.708,7.107,6.331,7.935c-2.499,1.269-4.23,3.837-4.23,6.833c0,4.248,3.444,7.692,7.691,7.692
		c0.479,0,0.945-0.058,1.402-0.141c-2.927,0.927-5.062,3.634-5.062,6.868c0,3.997,3.242,7.239,7.239,7.239
		c3.998,0,7.238-3.242,7.238-7.239s-3.241-7.24-7.238-7.24c-0.448,0-0.884,0.055-1.311,0.133c3.133-0.973,5.424-3.858,5.424-7.312
		c0-0.188-0.042-0.366-0.056-0.55c1.194,1.297,2.763,2.24,4.539,2.65c-1.257,1.482-2.019,3.399-2.019,5.496
		c0,4.699,3.81,8.508,8.509,8.508c0.062,0,0.124-0.007,0.185-0.009c-0.968,1.336-1.546,2.973-1.546,4.748
		c0,4.476,3.628,8.104,8.104,8.104c0.818,0,1.606-0.123,2.351-0.349c-0.81,1.218-1.287,2.681-1.287,4.255
		c0,4.251,3.446,7.697,7.699,7.697c1.818,0,3.468-0.656,4.785-1.711c-1.099,1.276-1.788,2.919-1.788,4.735
		c0,4.027,3.265,7.293,7.293,7.293c4.029,0,7.294-3.266,7.294-7.293c0-1.953-0.777-3.717-2.027-5.025
		c0.984-0.016,1.928-0.186,2.815-0.484c0,0.034-0.005,0.067-0.005,0.104c0,3.459,1.976,6.452,4.856,7.929
		c-0.429-0.084-0.871-0.134-1.325-0.134c-3.804,0-6.888,3.086-6.888,6.889c0,3.805,3.083,6.888,6.888,6.888s6.889-3.083,6.889-6.888
		c0-2.623-1.483-4.875-3.64-6.038c0.685,0.167,1.396,0.267,2.134,0.267c1.73,0,3.341-0.502,4.709-1.354
		c0.356,4.372,4.01,7.809,8.474,7.809c2.416,0,4.592-1.012,6.14-2.629c0.616,3.865,3.956,6.823,7.995,6.823
		c3.09,0,5.775-1.73,7.143-4.276c0.708,3.52,3.818,6.17,7.544,6.17c3.974,0,7.207-3.026,7.617-6.892
		c0.262,3.789,3.387,6.79,7.243,6.79c4.027,0,7.29-3.266,7.29-7.294c0-3.969-3.174-7.184-7.119-7.275
		c0.666-0.687,1.221-1.475,1.65-2.34c1.619,1.658,3.875,2.688,6.372,2.688c0.943,0,1.854-0.149,2.708-0.422
		c-1.825,1.24-3.024,3.33-3.024,5.7c0,3.805,3.085,6.888,6.893,6.888c3.8,0,6.884-3.083,6.884-6.888
		c0-3.804-3.084-6.889-6.884-6.889c-0.694,0-1.35,0.134-1.979,0.324c2.028-1.226,3.529-3.234,4.08-5.611
		c1.48,1.259,3.398,2.02,5.494,2.02c4.7,0,8.51-3.811,8.51-8.51c0-0.063-0.007-0.123-0.01-0.186
		c1.337,0.968,2.971,1.546,4.746,1.546c4.476,0,8.104-3.628,8.104-8.104c0-0.818-0.121-1.606-0.348-2.352
		c1.22,0.812,2.682,1.288,4.255,1.288c4.251,0,7.699-3.447,7.699-7.699c0-1.82-0.662-3.471-1.716-4.787
		c1.273,1.1,2.922,1.789,4.74,1.789c4.027,0,7.293-3.266,7.293-7.293c0-4.03-3.266-7.294-7.293-7.294
		c-1.953,0-3.719,0.779-5.027,2.027c-0.019-0.983-0.186-1.928-0.484-2.815c0.035,0,0.067,0.003,0.1,0.003
		c3.462,0,6.457-1.976,7.931-4.857c-0.082,0.431-0.132,0.873-0.132,1.327c0,3.805,3.085,6.89,6.889,6.89
		c3.803,0,6.887-3.085,6.887-6.89c0-3.804-3.084-6.888-6.887-6.888c-2.623,0-4.875,1.482-6.042,3.643
		c0.167-0.687,0.271-1.398,0.271-2.139c0-1.73-0.502-3.342-1.355-4.709c4.369-0.357,7.806-4.011,7.806-8.475
		c0-2.415-1.011-4.593-2.629-6.141c3.867-0.616,6.824-3.955,6.824-7.995c0-3.09-1.729-5.775-4.276-7.142
		c3.518-0.71,6.169-3.818,6.169-7.545c0-3.975-3.021-7.206-6.888-7.616c3.789-0.265,6.784-3.389,6.784-7.242
		c0-4.028-3.266-7.295-7.294-7.295c-4.023,0-7.289,3.267-7.289,7.295c0,3.75,2.839,6.803,6.479,7.21
		c-4.01,0.268-7.19,3.569-7.19,7.648c0,2.903,1.626,5.401,3.999,6.712c-3.804,0.667-6.699,3.979-6.699,7.975
		c0,2.229,0.903,4.249,2.359,5.713c-4.156,0.562-7.362,4.112-7.362,8.423c0,1.569,0.431,3.033,1.171,4.294
		c-4.697,0.252-8.436,4.13-8.436,8.89c0,0.896,0.135,1.762,0.384,2.58c-0.135-0.006-0.267-0.021-0.398-0.021
		c-5.148,0-9.318,4.173-9.318,9.321c0,0.223,0.018,0.441,0.032,0.66c-0.48-0.072-0.965-0.122-1.466-0.122
		c-4.896,0-8.938,3.623-9.609,8.334c-0.847-0.228-1.733-0.361-2.651-0.361c-4.062,0-7.557,2.398-9.172,5.85
		c-1.975-1.589-4.582-2.336-7.258-1.822c-2.961,0.565-5.312,2.544-6.455,5.103c-1.906-2.067-4.764-3.197-7.766-2.797
		c-2.932,0.402-5.338,2.188-6.65,4.611c-1.619-2.023-4.102-3.316-6.898-3.346c-2.573-0.031-4.907,1.056-6.559,2.781
		c-1.026-2.277-3.004-4.122-5.591-4.879c-2.722-0.817-5.547-0.27-7.705,1.265c-0.58-2.559-2.275-4.864-4.848-6.084
		c-2.469-1.188-5.221-1.145-7.541-0.088c-0.074-2.543-1.219-5.013-3.361-6.724c-2.052-1.621-4.595-2.199-6.99-1.813
		c0.58-2.469,0.104-5.177-1.547-7.377c-1.724-2.306-4.357-3.54-7.034-3.57c1.041-2.393,1.026-5.219-0.282-7.703
		c-1.19-2.275-3.228-3.809-5.503-4.447c1.442-1.873,2.142-4.327,1.74-6.855c-0.446-2.767-2.111-5.028-4.358-6.321
		c2.157-1.65,3.54-4.268,3.51-7.197c-0.029-2.647-1.22-5.013-3.063-6.617c2.246-1.132,4.015-3.199,4.685-5.832
		c0.655-2.617,0.074-5.249-1.368-7.301c2.335-0.535,4.447-1.994,5.741-4.209c1.368-2.366,1.547-5.102,0.698-7.497
		c2.603,0.136,5.235-0.86,7.109-2.959c1.859-2.052,2.558-4.743,2.186-7.287c2.396,0.594,5.027,0.178,7.214-1.338
		c2.26-1.562,3.57-3.986,3.807-6.528c2.275,1.188,5.057,1.398,7.614,0.325c2.38-1.01,4.105-2.93,4.923-5.175
		c1.799,1.637,4.268,2.527,6.885,2.259h-0.015c2.856-0.28,5.25-1.871,6.663-4.117c1.486,2.111,3.868,3.569,6.646,3.776
		c2.665,0.195,5.134-0.786,6.902-2.526c0.935,2.348,2.871,4.296,5.472,5.159c2.693,0.893,5.504,0.431,7.703-1.024
		c0.477,2.542,2.043,4.861,4.493,6.201h-0.014c2.028,1.113,4.306,1.346,6.39,0.847c0.238,0.331,0.491,0.651,0.758,0.956
		c0.129,1.919,0.864,3.801,2.234,5.334c0.059,0.065,0.127,0.114,0.186,0.178c4.549,4.757,15.125,16.327,13.143,31.801
		c-0.495,3.86,1.669,5.808,4.432,2.832c16.784-18.094,14.156-40.312,13.785-42.894c-0.1-1.694-0.47-3.316-1.096-4.811
		c0.195-0.939,0.295-1.911,0.295-2.905c0-4.671-2.23-8.812-5.683-11.447c0.161-0.84,0.253-1.702,0.253-2.589
		c0-5.783-3.561-10.726-8.606-12.771c-0.121-6.465-4.898-11.777-11.122-12.737c-1.067-5.832-6.166-10.254-12.303-10.254
		c-0.229,0-0.449,0.021-0.673,0.031c-1.548-4.76-6.017-8.204-11.296-8.204c-1.029,0-2.018,0.143-2.971,0.388
		c-1.775-3.88-5.683-6.58-10.226-6.58c-1.775,0-3.444,0.422-4.938,1.15c-1.845-3.138-5.248-5.247-9.151-5.247
		c-2.498,0-4.79,0.866-6.603,2.309c-1.804-2.493-4.73-4.123-8.042-4.123c-3.134,0-5.923,1.455-7.743,3.722
		c-1.679-2.067-4.241-3.391-7.114-3.391c-3.715,0-6.908,2.216-8.346,5.395c-1.541-1.826-3.845-2.99-6.422-2.99
		c-4.324,0-7.882,3.267-8.346,7.467c-1.396-1.829-3.576-3.026-6.054-3.026c-4.219,0-7.638,3.419-7.638,7.638
		S257.197,148.326,261.416,148.326z"/>
	<circle fill="#0E304F" cx="210.061" cy="346.131" r="0.591"/>
	<circle fill="#0E304F" cx="203.151" cy="332.967" r="1.182"/>
	<circle fill="#0E304F" cx="197.656" cy="319.152" r="1.775"/>
	<circle fill="#0E304F" cx="193.644" cy="304.838" r="2.366"/>
	<circle fill="#0E304F" cx="191.166" cy="290.185" r="2.957"/>
	<circle fill="#0E304F" cx="190.245" cy="275.348" r="3.549"/>
	<circle fill="#0E304F" cx="190.885" cy="260.492" r="4.14"/>
	<circle fill="#0E304F" cx="193.112" cy="245.791" r="4.732"/>
	<circle fill="#0E304F" cx="197.183" cy="231.49" r="5.323"/>
	<circle fill="#0E304F" cx="203.097" cy="217.851" r="5.915"/>
	<circle fill="#0E304F" cx="210.755" cy="205.11" r="6.505"/>
	<circle fill="#0E304F" cx="220.021" cy="193.487" r="7.098"/>
</g>
<g>
	<path fill="#454973" d="M126.731,481.386c-0.241,0-0.492,0.031-0.746,0.092c-0.806,0.188-1.491,0.589-2.032,1.192
		c-1.961,2.128-4.338,3.823-7.061,5.031c-2.733,1.209-5.712,1.821-8.854,1.821c-2.97,0-5.815-0.585-8.458-1.738
		c-2.649-1.153-4.972-2.734-6.905-4.701c-1.934-1.956-3.487-4.291-4.617-6.941c-1.125-2.635-1.695-5.485-1.695-8.47
		c0-2.985,0.57-5.833,1.695-8.466c1.125-2.648,2.679-5.002,4.619-6.998c1.942-1.994,4.264-3.589,6.903-4.741
		c2.639-1.147,5.485-1.73,8.458-1.73c3.085,0,6.011,0.709,8.696,2.107c2.729,1.425,5.146,3.035,7.181,4.786
		c0.646,0.651,1.465,0.995,2.409,0.995c0.08,0,0.16-0.003,0.241-0.008c1.062-0.073,1.875-0.527,2.42-1.351
		c0.491-0.775,0.596-1.588,0.319-2.422c-0.251-0.758-0.64-1.408-1.156-1.928c-2.583-2.633-5.623-4.737-9.032-6.253
		c-3.427-1.526-7.155-2.3-11.079-2.3c-3.863,0-7.543,0.758-10.939,2.253c-3.398,1.495-6.394,3.541-8.903,6.082
		c-2.521,2.552-4.537,5.576-5.992,8.989C80.742,460.112,80,463.808,80,467.672c0,3.861,0.742,7.556,2.204,10.979
		c1.457,3.419,3.473,6.444,5.992,8.989c2.514,2.546,5.511,4.578,8.907,6.041c3.4,1.465,7.08,2.209,10.935,2.209
		c4.045,0,7.873-0.787,11.377-2.342c3.503-1.544,6.59-3.753,9.176-6.566c0.606-0.677,0.911-1.533,0.911-2.552
		c0-1.044-0.381-1.888-1.134-2.507C127.848,481.56,127.308,481.386,126.731,481.386z"/>
	<path fill="#454973" d="M187.654,447.869c-2.538-2.533-5.549-4.562-8.951-6.033c-3.391-1.467-7.07-2.21-10.936-2.21
		c-3.862,0-7.544,0.743-10.943,2.21c-3.401,1.47-6.395,3.501-8.9,6.035c-2.513,2.538-4.531,5.549-5.998,8.949
		c-1.463,3.395-2.205,7.074-2.205,10.936c0,3.865,0.742,7.545,2.205,10.936c1.461,3.396,3.48,6.394,6,8.908
		c2.511,2.517,5.504,4.534,8.897,5.997c3.399,1.463,7.081,2.204,10.943,2.204c3.865,0,7.544-0.741,10.936-2.204
		c3.393-1.464,6.404-3.48,8.949-5.995c2.542-2.514,4.574-5.511,6.041-8.91c1.463-3.39,2.205-7.068,2.205-10.936
		c0-3.863-0.742-7.543-2.205-10.936C192.22,453.416,190.188,450.405,187.654,447.869z M167.767,489.431
		c-2.979,0-5.827-0.567-8.466-1.687c-2.646-1.128-4.968-2.683-6.899-4.621c-1.936-1.928-3.489-4.248-4.619-6.897
		c-1.122-2.638-1.69-5.489-1.69-8.47c0-2.983,0.568-5.83,1.69-8.462c1.125-2.646,2.68-4.985,4.62-6.952
		c1.932-1.962,4.252-3.528,6.898-4.654c2.642-1.125,5.491-1.695,8.466-1.695c2.972,0,5.821,0.57,8.466,1.695
		c2.64,1.124,4.977,2.691,6.947,4.656c1.965,1.97,3.533,4.308,4.659,6.95c1.123,2.641,1.691,5.488,1.691,8.462
		c0,2.973-0.569,5.822-1.692,8.471c-1.131,2.645-2.697,4.964-4.656,6.893c-1.97,1.944-4.308,3.499-6.949,4.625
		C173.591,488.863,170.743,489.431,167.767,489.431z"/>
	<path fill="#454973" d="M244.075,445.443c-1.861-1.86-4.07-3.351-6.564-4.429c-2.51-1.095-5.215-1.65-8.038-1.65
		s-5.528,0.556-8.04,1.651c-2.498,1.08-4.705,2.571-6.562,4.428c-1.848,1.85-3.328,4.059-4.397,6.567
		c-1.061,2.517-1.598,5.222-1.598,8.04v32.742c0,0.882,0.312,1.64,0.929,2.256c0.604,0.612,1.364,0.926,2.256,0.926
		c0.89,0,1.651-0.312,2.262-0.927c0.613-0.618,0.924-1.376,0.924-2.255v-32.742c0-1.966,0.369-3.772,1.129-5.524
		c0.75-1.72,1.778-3.257,3.058-4.566c1.28-1.305,2.803-2.347,4.524-3.096c1.719-0.749,3.575-1.128,5.516-1.128
		c1.94,0,3.796,0.379,5.515,1.127c1.726,0.752,3.264,1.795,4.571,3.101c1.311,1.315,2.353,2.851,3.099,4.562
		c0.76,1.743,1.129,3.55,1.129,5.524v32.742c0,0.884,0.312,1.643,0.926,2.256c0.613,0.613,1.374,0.926,2.26,0.926
		s1.646-0.312,2.26-0.926c0.612-0.621,0.922-1.379,0.922-2.256v-32.742c0-2.825-0.553-5.532-1.642-8.043
		C247.416,449.5,245.924,447.293,244.075,445.443z"/>
	<path fill="#454973" d="M297.478,466.942c-1.749-1.46-3.845-2.695-6.233-3.674c-2.36-0.961-4.927-1.6-7.629-1.896
		c-1.309-0.175-2.709-0.489-4.152-0.936c-1.441-0.439-2.825-1.011-4.114-1.699c-1.225-0.647-2.272-1.44-3.113-2.359
		c-0.787-0.868-1.17-1.794-1.17-2.83c0-1.059,0.313-2.043,0.956-3.008c0.652-0.976,1.537-1.835,2.63-2.554
		c1.106-0.713,2.445-1.289,3.976-1.709c1.532-0.417,3.192-0.627,4.934-0.627c1.677,0,3.292,0.21,4.799,0.627
		c1.515,0.425,2.858,1.002,3.988,1.714c1.141,0.73,2.019,1.525,2.68,2.429c0.636,0.882,0.973,1.774,1.029,2.728
		c0.065,1.046,0.385,1.891,0.95,2.513c0.589,0.653,1.339,0.984,2.23,0.984c0.892,0,1.653-0.312,2.261-0.927
		c0.61-0.609,0.92-1.368,0.92-2.253c0-1.991-0.503-3.868-1.495-5.579c-0.984-1.692-2.354-3.199-4.071-4.478
		c-1.722-1.274-3.738-2.291-5.992-3.022c-2.262-0.734-4.718-1.106-7.3-1.106s-5.038,0.372-7.299,1.106
		c-2.263,0.731-4.279,1.748-5.993,3.022c-1.724,1.277-3.095,2.784-4.075,4.479c-0.992,1.717-1.495,3.594-1.495,5.578
		c0,1.99,0.536,3.845,1.594,5.509c1.045,1.642,2.446,3.086,4.164,4.293c1.705,1.209,3.714,2.209,5.972,2.974
		c2.261,0.755,4.648,1.228,7.097,1.406c1.715,0.281,3.412,0.755,4.998,1.399c1.593,0.641,3.023,1.458,4.253,2.432
		c1.234,0.992,2.219,2.087,3.007,3.343c0.755,1.221,1.198,2.559,1.314,3.975c0.101,1.521-0.203,2.961-0.903,4.276
		c-0.71,1.348-1.728,2.529-3.024,3.518c-1.302,1-2.839,1.806-4.571,2.396c-1.733,0.583-3.604,0.88-5.557,0.88
		c-1.951,0-3.807-0.296-5.514-0.88c-1.702-0.589-3.198-1.394-4.444-2.389c-1.238-0.994-2.228-2.179-2.94-3.523
		c-0.71-1.335-1.07-2.787-1.07-4.318c0-0.82-0.296-1.534-0.881-2.124c-0.586-0.588-1.301-0.885-2.127-0.885
		c-0.831,0-1.548,0.297-2.134,0.883c-0.583,0.593-0.878,1.307-0.878,2.126c0,2.382,0.528,4.643,1.568,6.721
		c1.045,2.084,2.499,3.929,4.321,5.485c1.832,1.564,3.982,2.803,6.394,3.683c2.407,0.883,5.029,1.331,7.792,1.331
		c2.754,0,5.38-0.461,7.804-1.371c2.417-0.917,4.562-2.157,6.378-3.686c1.842-1.545,3.297-3.393,4.322-5.488
		c1.044-2.105,1.574-4.378,1.574-6.755c0-2.303-0.514-4.493-1.527-6.507C300.676,470.192,299.263,468.434,297.478,466.942z"/>
	<path fill="#454973" d="M350.897,445.736c0.89,0,1.65-0.313,2.264-0.931c0.613-0.613,0.924-1.372,0.924-2.256
		c0-0.887-0.311-1.647-0.925-2.26c-0.613-0.614-1.374-0.926-2.263-0.926h-30.664c-0.883,0-1.642,0.312-2.257,0.926
		c-0.605,0.604-0.925,1.386-0.925,2.26v50.243c0,0.88,0.311,1.638,0.924,2.255c0.61,0.614,1.37,0.927,2.258,0.927h30.664
		c0.893,0,1.654-0.312,2.265-0.928c0.612-0.616,0.923-1.374,0.923-2.254c0-0.885-0.311-1.646-0.924-2.264
		c-0.612-0.612-1.373-0.922-2.264-0.922h-27.475v-18.926h19.595c0.882,0,1.64-0.311,2.256-0.921c0.616-0.617,0.93-1.38,0.93-2.266
		c0-0.882-0.313-1.641-0.929-2.256c-0.61-0.616-1.371-0.93-2.257-0.93h-19.595v-18.573H350.897z"/>
	<path fill="#454973" d="M400.146,445.443c-1.861-1.86-4.07-3.351-6.564-4.429c-2.51-1.095-5.214-1.65-8.035-1.65
		c-2.828,0-5.531,0.556-8.036,1.651c-2.499,1.077-4.71,2.568-6.565,4.428c-1.853,1.854-3.333,4.063-4.4,6.567
		c-1.059,2.511-1.594,5.216-1.594,8.04v32.742c0,0.883,0.312,1.642,0.926,2.256c0.612,0.613,1.372,0.926,2.256,0.926
		c0.891,0,1.651-0.312,2.262-0.928c0.613-0.617,0.924-1.376,0.924-2.254v-32.742c0-1.972,0.367-3.779,1.125-5.524
		c0.753-1.719,1.785-3.257,3.068-4.566c1.273-1.306,2.793-2.348,4.517-3.096c1.719-0.749,3.576-1.128,5.519-1.128
		c1.941,0,3.798,0.379,5.516,1.127c1.721,0.751,3.26,1.795,4.571,3.102c1.307,1.311,2.349,2.846,3.096,4.562
		c0.756,1.736,1.125,3.543,1.125,5.524v32.742c0,0.884,0.314,1.643,0.936,2.258c0.606,0.611,1.367,0.924,2.254,0.924
		c0.889,0,1.647-0.312,2.258-0.928c0.613-0.616,0.924-1.374,0.924-2.254v-32.742c0-2.835-0.553-5.542-1.643-8.043
		C403.487,449.503,401.995,447.295,400.146,445.443z"/>
	<path fill="#454973" d="M453.555,466.942c-1.766-1.468-3.865-2.704-6.241-3.674c-2.354-0.961-4.919-1.599-7.625-1.896
		c-1.31-0.176-2.711-0.49-4.151-0.936c-1.438-0.438-2.821-1.009-4.114-1.699c-1.235-0.652-2.281-1.445-3.108-2.357
		c-0.788-0.862-1.17-1.788-1.17-2.832c0-1.071,0.312-2.055,0.953-3.006c0.648-0.977,1.531-1.835,2.625-2.556
		c1.108-0.712,2.447-1.289,3.976-1.709c1.535-0.417,3.196-0.627,4.936-0.627c1.682,0,3.298,0.21,4.803,0.627
		c1.506,0.422,2.846,0.999,3.981,1.714c1.148,0.736,2.026,1.53,2.679,2.428c0.645,0.89,0.981,1.781,1.029,2.725
		c0.07,1.048,0.392,1.892,0.953,2.516c0.586,0.653,1.339,0.985,2.236,0.985c0.885,0,1.644-0.311,2.256-0.925
		c0.615-0.618,0.926-1.376,0.926-2.255c0-1.976-0.501-3.852-1.49-5.577c-0.993-1.704-2.367-3.21-4.086-4.48
		c-1.712-1.272-3.727-2.289-5.986-3.021c-2.262-0.734-4.719-1.106-7.301-1.106c-2.581,0-5.037,0.372-7.299,1.106
		c-2.263,0.732-4.276,1.75-5.988,3.022c-1.712,1.263-3.086,2.77-4.082,4.477c-0.991,1.729-1.492,3.604-1.492,5.58
		c0,1.996,0.536,3.851,1.594,5.509c1.047,1.646,2.446,3.09,4.16,4.293c1.701,1.207,3.713,2.207,5.976,2.974
		c2.254,0.754,4.641,1.227,7.097,1.406c1.715,0.281,3.411,0.755,4.998,1.399c1.592,0.637,3.023,1.454,4.257,2.432
		c1.221,0.98,2.232,2.106,3.004,3.342c0.761,1.223,1.201,2.56,1.31,3.973c0.108,1.52-0.191,2.96-0.894,4.28
		c-0.718,1.346-1.736,2.529-3.026,3.518c-1.296,0.995-2.836,1.802-4.576,2.395c-1.734,0.583-3.606,0.88-5.559,0.88
		s-3.807-0.296-5.51-0.879c-1.699-0.587-3.195-1.392-4.444-2.39c-1.236-0.993-2.228-2.179-2.944-3.524
		c-0.707-1.334-1.066-2.787-1.066-4.317c0-0.818-0.295-1.531-0.875-2.123c-0.589-0.589-1.308-0.886-2.138-0.886
		s-1.546,0.297-2.128,0.885c-0.586,0.592-0.885,1.306-0.885,2.124c0,2.373,0.528,4.634,1.569,6.721
		c1.043,2.082,2.499,3.929,4.329,5.486c1.831,1.564,3.98,2.803,6.389,3.682c2.411,0.883,5.031,1.331,7.788,1.331
		c2.755,0,5.381-0.461,7.805-1.371c2.415-0.915,4.561-2.155,6.378-3.686c1.848-1.549,3.304-3.396,4.325-5.488
		c1.042-2.109,1.571-4.382,1.571-6.755c0-2.314-0.513-4.505-1.523-6.508C456.74,470.182,455.328,468.424,453.555,466.942z"/>
	<path fill="#454973" d="M520.585,440.083c-0.61-0.483-1.298-0.727-2.047-0.727c-0.086,0-0.172,0.003-0.26,0.009
		c-0.855,0.074-1.568,0.456-2.122,1.135l-21.524,27.139L473.54,440.51c-0.563-0.688-1.277-1.069-2.129-1.144
		c-0.095-0.007-0.182-0.01-0.267-0.01c-0.745,0-1.431,0.243-2.038,0.723c-0.689,0.554-1.069,1.271-1.134,2.134
		c-0.072,0.851,0.166,1.625,0.709,2.294l22.761,29.398v18.888c0,0.876,0.31,1.634,0.919,2.253c0.616,0.616,1.378,0.929,2.268,0.929
		c0.884,0,1.643-0.312,2.256-0.926c0.617-0.617,0.93-1.375,0.93-2.256v-18.885l23.187-29.406c0.544-0.675,0.784-1.449,0.712-2.295
		C521.648,441.353,521.27,440.636,520.585,440.083z"/>
	<path fill="#454973" d="M568.473,472.167c-1.01-1.984-2.42-3.742-4.193-5.225c-1.765-1.468-3.864-2.703-6.24-3.674
		c-2.345-0.96-4.911-1.598-7.626-1.896c-1.304-0.175-2.704-0.489-4.151-0.936c-1.45-0.44-2.834-1.012-4.117-1.698
		c-1.229-0.651-2.276-1.444-3.114-2.36c-0.78-0.859-1.159-1.785-1.159-2.83c0-1.072,0.312-2.056,0.951-3.006
		c0.638-0.971,1.521-1.828,2.631-2.556c1.105-0.715,2.443-1.29,3.972-1.709c1.529-0.417,3.189-0.627,4.934-0.627
		c1.681,0,3.296,0.21,4.804,0.627c1.507,0.423,2.846,1,3.979,1.714c1.137,0.726,2.014,1.521,2.681,2.429
		c0.641,0.878,0.976,1.77,1.025,2.724c0.077,1.054,0.398,1.896,0.957,2.516c0.584,0.653,1.336,0.985,2.235,0.985
		c0.883,0,1.643-0.311,2.257-0.925c0.616-0.626,0.928-1.384,0.928-2.255c0-1.976-0.505-3.853-1.502-5.578
		c-0.979-1.692-2.352-3.199-4.08-4.479c-1.7-1.271-3.714-2.288-5.984-3.022c-2.256-0.734-4.712-1.106-7.3-1.106
		c-2.584,0-5.041,0.372-7.307,1.106c-2.268,0.736-4.278,1.754-5.978,3.023c-1.718,1.266-3.093,2.772-4.086,4.476
		c-0.988,1.724-1.488,3.6-1.488,5.58c0,2.001,0.535,3.855,1.591,5.509c1.033,1.629,2.431,3.073,4.153,4.292
		c1.701,1.206,3.713,2.206,5.979,2.975c2.258,0.754,4.646,1.228,7.1,1.406c1.711,0.281,3.41,0.754,5.008,1.4
		c1.589,0.639,3.017,1.456,4.243,2.431c1.235,0.988,2.221,2.083,3.012,3.343c0.758,1.223,1.197,2.561,1.308,3.973
		c0.107,1.519-0.194,2.96-0.896,4.278c-0.718,1.347-1.735,2.53-3.025,3.518c-1.303,0.999-2.844,1.806-4.577,2.396
		c-1.734,0.583-3.604,0.88-5.558,0.88c-1.952,0-3.806-0.296-5.51-0.879c-1.701-0.587-3.195-1.392-4.439-2.389
		c-1.254-1.006-2.246-2.191-2.949-3.523c-0.704-1.339-1.062-2.792-1.062-4.319c0-0.814-0.299-1.529-0.891-2.125
		c-0.575-0.586-1.291-0.884-2.126-0.884s-1.551,0.298-2.13,0.886c-0.583,0.589-0.879,1.303-0.879,2.123
		c0,2.396,0.526,4.657,1.565,6.722c1.045,2.087,2.502,3.933,4.328,5.485c1.833,1.565,3.983,2.804,6.392,3.682
		c2.408,0.883,5.028,1.331,7.785,1.331c2.754,0,5.381-0.461,7.805-1.371c2.417-0.917,4.562-2.157,6.379-3.686
		c1.847-1.549,3.302-3.396,4.325-5.488c1.042-2.106,1.57-4.38,1.57-6.755C570,476.356,569.486,474.166,568.473,472.167z"/>
</g>
</svg>
