<?xml version="1.0" encoding="UTF-8" standalone="no"?>
<!-- Created with Inkscape (http://www.inkscape.org/) -->

<svg
   xmlns:dc="http://purl.org/dc/elements/1.1/"
   xmlns:cc="http://creativecommons.org/ns#"
   xmlns:rdf="http://www.w3.org/1999/02/22-rdf-syntax-ns#"
   xmlns:svg="http://www.w3.org/2000/svg"
   xmlns="http://www.w3.org/2000/svg"
   xmlns:sodipodi="http://sodipodi.sourceforge.net/DTD/sodipodi-0.dtd"
   xmlns:inkscape="http://www.inkscape.org/namespaces/inkscape"
   width="400"
   height="114.38815"
   id="svg2"
   version="1.1"
   inkscape:version="0.48.2 r9819"
   sodipodi:docname="Accenture.svg">
  <title
     id="title4080">Logo of Accenture</title>
  <defs
     id="defs4">
    <clipPath
       id="clipPath3441"
       clipPathUnits="userSpaceOnUse">
      <path
         id="path3443"
         d="m 45.714,396.446 181.869,0 0,94.712 -181.869,0 0,-94.712 z"
         inkscape:connector-curvature="0" />
    </clipPath>
    <radialGradient
       id="radialGradient3429"
       spreadMethod="pad"
       gradientTransform="matrix(17.877152,0,0,-17.877152,162.81561,398.11033)"
       gradientUnits="userSpaceOnUse"
       r="1"
       cy="0"
       cx="0"
       fy="0"
       fx="0">
      <stop
         id="stop3431"
         offset="0"
         style="stop-opacity:1;stop-color:#3483aa" />
      <stop
         id="stop3433"
         offset="1"
         style="stop-opacity:1;stop-color:#00546e" />
    </radialGradient>
    <radialGradient
       id="radialGradient3409"
       spreadMethod="pad"
       gradientTransform="matrix(17.877152,0,0,-17.877152,162.81561,398.11033)"
       gradientUnits="userSpaceOnUse"
       r="1"
       cy="0"
       cx="0"
       fy="0"
       fx="0">
      <stop
         id="stop3411"
         offset="0"
         style="stop-opacity:1;stop-color:#3483aa" />
      <stop
         id="stop3413"
         offset="1"
         style="stop-opacity:1;stop-color:#00546e" />
    </radialGradient>
    <radialGradient
       id="radialGradient3389"
       spreadMethod="pad"
       gradientTransform="matrix(17.877152,0,0,-17.877152,162.81561,398.11033)"
       gradientUnits="userSpaceOnUse"
       r="1"
       cy="0"
       cx="0"
       fy="0"
       fx="0">
      <stop
         id="stop3391"
         offset="0"
         style="stop-opacity:1;stop-color:#3483aa" />
      <stop
         id="stop3393"
         offset="1"
         style="stop-opacity:1;stop-color:#00546e" />
    </radialGradient>
    <radialGradient
       id="radialGradient3369"
       spreadMethod="pad"
       gradientTransform="matrix(17.877152,0,0,-17.877152,162.81561,398.11033)"
       gradientUnits="userSpaceOnUse"
       r="1"
       cy="0"
       cx="0"
       fy="0"
       fx="0">
      <stop
         id="stop3371"
         offset="0"
         style="stop-opacity:1;stop-color:#3483aa" />
      <stop
         id="stop3373"
         offset="1"
         style="stop-opacity:1;stop-color:#00546e" />
    </radialGradient>
    <radialGradient
       id="radialGradient3349"
       spreadMethod="pad"
       gradientTransform="matrix(17.877045,0,0,-17.877045,162.81561,398.11033)"
       gradientUnits="userSpaceOnUse"
       r="1"
       cy="0"
       cx="0"
       fy="0"
       fx="0">
      <stop
         id="stop3351"
         offset="0"
         style="stop-opacity:1;stop-color:#3483aa" />
      <stop
         id="stop3353"
         offset="1"
         style="stop-opacity:1;stop-color:#00546e" />
    </radialGradient>
    <radialGradient
       id="radialGradient3329"
       spreadMethod="pad"
       gradientTransform="matrix(17.877152,0,0,-17.877152,162.81561,398.11033)"
       gradientUnits="userSpaceOnUse"
       r="1"
       cy="0"
       cx="0"
       fy="0"
       fx="0">
      <stop
         id="stop3331"
         offset="0"
         style="stop-opacity:1;stop-color:#3483aa" />
      <stop
         id="stop3333"
         offset="1"
         style="stop-opacity:1;stop-color:#00546e" />
    </radialGradient>
    <radialGradient
       id="radialGradient3309"
       spreadMethod="pad"
       gradientTransform="matrix(17.877152,0,0,-17.877152,162.81561,398.11033)"
       gradientUnits="userSpaceOnUse"
       r="1"
       cy="0"
       cx="0"
       fy="0"
       fx="0">
      <stop
         id="stop3311"
         offset="0"
         style="stop-opacity:1;stop-color:#3483aa" />
      <stop
         id="stop3313"
         offset="1"
         style="stop-opacity:1;stop-color:#00546e" />
    </radialGradient>
    <radialGradient
       id="radialGradient3289"
       spreadMethod="pad"
       gradientTransform="matrix(17.877152,0,0,-17.877152,162.81561,398.11033)"
       gradientUnits="userSpaceOnUse"
       r="1"
       cy="0"
       cx="0"
       fy="0"
       fx="0">
      <stop
         id="stop3291"
         offset="0"
         style="stop-opacity:1;stop-color:#3483aa" />
      <stop
         id="stop3293"
         offset="1"
         style="stop-opacity:1;stop-color:#00546e" />
    </radialGradient>
    <radialGradient
       id="radialGradient3269"
       spreadMethod="pad"
       gradientTransform="matrix(17.877045,0,0,-17.877045,162.81561,398.11033)"
       gradientUnits="userSpaceOnUse"
       r="1"
       cy="0"
       cx="0"
       fy="0"
       fx="0">
      <stop
         id="stop3271"
         offset="0"
         style="stop-opacity:1;stop-color:#3483aa" />
      <stop
         id="stop3273"
         offset="1"
         style="stop-opacity:1;stop-color:#00546e" />
    </radialGradient>
    <radialGradient
       id="radialGradient3249"
       spreadMethod="pad"
       gradientTransform="matrix(17.877152,0,0,-17.877152,162.81561,398.11033)"
       gradientUnits="userSpaceOnUse"
       r="1"
       cy="0"
       cx="0"
       fy="0"
       fx="0">
      <stop
         id="stop3251"
         offset="0"
         style="stop-opacity:1;stop-color:#3483aa" />
      <stop
         id="stop3253"
         offset="1"
         style="stop-opacity:1;stop-color:#00546e" />
    </radialGradient>
    <radialGradient
       id="radialGradient3229"
       spreadMethod="pad"
       gradientTransform="matrix(17.877152,0,0,-17.877152,162.81561,398.11033)"
       gradientUnits="userSpaceOnUse"
       r="1"
       cy="0"
       cx="0"
       fy="0"
       fx="0">
      <stop
         id="stop3231"
         offset="0"
         style="stop-opacity:1;stop-color:#3483aa" />
      <stop
         id="stop3233"
         offset="1"
         style="stop-opacity:1;stop-color:#00546e" />
    </radialGradient>
    <radialGradient
       id="radialGradient3209"
       spreadMethod="pad"
       gradientTransform="matrix(17.877152,0,0,-17.877152,162.81561,398.11033)"
       gradientUnits="userSpaceOnUse"
       r="1"
       cy="0"
       cx="0"
       fy="0"
       fx="0">
      <stop
         id="stop3211"
         offset="0"
         style="stop-opacity:1;stop-color:#3483aa" />
      <stop
         id="stop3213"
         offset="1"
         style="stop-opacity:1;stop-color:#00546e" />
    </radialGradient>
    <radialGradient
       id="radialGradient3189"
       spreadMethod="pad"
       gradientTransform="matrix(17.877045,0,0,-17.877045,162.81561,398.11033)"
       gradientUnits="userSpaceOnUse"
       r="1"
       cy="0"
       cx="0"
       fy="0"
       fx="0">
      <stop
         id="stop3191"
         offset="0"
         style="stop-opacity:1;stop-color:#3483aa" />
      <stop
         id="stop3193"
         offset="1"
         style="stop-opacity:1;stop-color:#00546e" />
    </radialGradient>
    <radialGradient
       id="radialGradient3169"
       spreadMethod="pad"
       gradientTransform="matrix(17.877152,0,0,-17.877152,162.81561,398.11033)"
       gradientUnits="userSpaceOnUse"
       r="1"
       cy="0"
       cx="0"
       fy="0"
       fx="0">
      <stop
         id="stop3171"
         offset="0"
         style="stop-opacity:1;stop-color:#3483aa" />
      <stop
         id="stop3173"
         offset="1"
         style="stop-opacity:1;stop-color:#00546e" />
    </radialGradient>
    <clipPath
       id="clipPath3021"
       clipPathUnits="userSpaceOnUse">
      <path
         id="path3023"
         d="m 272.008,365.081 293.566,0 0,47.933 -293.566,0 0,-47.933 z"
         inkscape:connector-curvature="0" />
    </clipPath>
    <clipPath
       id="clipPath2999"
       clipPathUnits="userSpaceOnUse">
      <path
         id="path3001"
         d="m 0,425.89 595.275,0 0,416 -595.275,0 0,-416 z"
         inkscape:connector-curvature="0" />
    </clipPath>
  </defs>
  <sodipodi:namedview
     id="base"
     pagecolor="#ffffff"
     bordercolor="#666666"
     borderopacity="1.0"
     inkscape:pageopacity="0.0"
     inkscape:pageshadow="2"
     inkscape:zoom="2.7699269"
     inkscape:cx="200"
     inkscape:cy="10.233768"
     inkscape:document-units="px"
     inkscape:current-layer="g3439"
     showgrid="false"
     inkscape:window-width="1440"
     inkscape:window-height="797"
     inkscape:window-x="0"
     inkscape:window-y="0"
     inkscape:window-maximized="1"
     fit-margin-top="0"
     fit-margin-left="0"
     fit-margin-right="0"
     fit-margin-bottom="0" />
  <metadata
     id="metadata7">
    <rdf:RDF>
      <cc:Work
         rdf:about="">
        <dc:format>image/svg+xml</dc:format>
        <dc:type
           rdf:resource="http://purl.org/dc/dcmitype/StillImage" />
        <dc:title>Logo of Accenture</dc:title>
        <dc:date>March 24, 2011</dc:date>
        <dc:creator>
          <cc:Agent>
            <dc:title>Accenture</dc:title>
          </cc:Agent>
        </dc:creator>
        <dc:source>https://microsite.accenture.com/sustainability/Documents/Accenture_UNGC_Study_2010.pdf</dc:source>
        <dc:description>Logo of Accenture</dc:description>
        <dc:language>English</dc:language>
        <dc:subject>
          <rdf:Bag>
            <rdf:li>Accenture</rdf:li>
          </rdf:Bag>
        </dc:subject>
        <dc:contributor>
          <cc:Agent>
            <dc:title>Philtro</dc:title>
          </cc:Agent>
        </dc:contributor>
      </cc:Work>
    </rdf:RDF>
  </metadata>
  <g
     inkscape:label="Layer 1"
     inkscape:groupmode="layer"
     id="layer1"
     transform="translate(-3.8882e-6,-843.73307)">
    <g
       id="g3437"
       transform="matrix(2.1993913,0,0,-2.1993913,-100.54297,1923.9817)"
       style="fill:#000000">
      <g
         id="g3439"
         clip-path="url(#clipPath3441)"
         style="fill:#000000">
        <g
           id="g3445"
           transform="translate(64.2223,439.705)"
           style="fill:#000000">
          <path
             inkscape:connector-curvature="0"
             d="m 0,0 0,16.857 c 0,5.468 -3.588,7.356 -8.61,7.356 -4.918,0 -9.012,-2.087 -9.012,-7.505 l 5.387,0 c 0,2.34 1.241,3.631 3.625,3.631 2.735,0 3.333,-1.99 3.333,-4.327 l 0,-2.343 c -5.373,-0.15 -13.232,-0.898 -13.232,-8.011 0,-4.026 3.188,-6.214 6.961,-6.214 2.592,0 4.975,0.848 6.177,3.285 l 0.094,0 L -5.277,0 0,0 m -5.277,10.436 c 0,-3.04 -1.245,-7.109 -4.924,-7.109 -1.846,0 -2.937,0.947 -2.937,2.836 0,3.559 5.226,4.273 7.861,4.273"
             style="fill:#000000;fill-opacity:1;fill-rule:nonzero;stroke:none"
             id="path3447" />
        </g>
        <g
           id="g3449"
           transform="translate(80.5923,455.2607)"
           style="fill:#000000">
          <path
             inkscape:connector-curvature="0"
             d="m 0,0 c 0,2.439 -0.696,4.783 -3.58,4.783 -3.486,0 -4.528,-3.631 -4.528,-6.476 0,-5.969 3.473,-10.536 9.757,-10.536 1.334,0 2.673,0.149 3.972,0.614 l 0,-3.399 c -2.244,-0.705 -4.575,-1.097 -6.917,-1.097 -8.453,0 -12.682,5.181 -12.682,13.429 0,6.875 3.74,11.339 10.848,11.339 C 2.641,8.657 5.868,5.831 5.868,0 L 0,0"
             style="fill:#000000;fill-opacity:1;fill-rule:nonzero;stroke:none"
             id="path3451" />
        </g>
        <g
           id="g3453"
           transform="translate(101.7985,455.2607)"
           style="fill:#000000">
          <path
             inkscape:connector-curvature="0"
             d="m 0,0 c 0,2.439 -0.698,4.783 -3.577,4.783 -3.479,0 -4.534,-3.631 -4.534,-6.476 0,-5.969 3.496,-10.536 9.757,-10.536 1.339,0 2.683,0.149 3.973,0.614 l 0,-3.399 c -2.23,-0.705 -4.572,-1.097 -6.911,-1.097 -8.457,0 -12.679,5.181 -12.679,13.429 0,6.875 3.735,11.339 10.838,11.339 C 2.643,8.657 5.875,5.831 5.875,0 L 0,0"
             style="fill:#000000;fill-opacity:1;fill-rule:nonzero;stroke:none"
             id="path3455" />
        </g>
        <g
           id="g3457"
           transform="translate(128.6627,452.9696)"
           style="fill:#000000">
          <path
             inkscape:connector-curvature="0"
             d="m 0,0 0,1.356 c 0,5.773 -2.979,9.592 -9.003,9.592 -7.061,0 -10.15,-4.423 -10.15,-11.14 0,-7.807 3.53,-13.628 11.934,-13.628 2.241,0 4.482,0.253 6.614,0.95 l 0,3.811 c -1.385,-0.481 -3.033,-0.879 -4.516,-0.879 -5.377,0 -8.908,4.908 -8.908,9.938 L 0,0 m -5.223,3.343 -8.653,0 c 0.245,2.391 2.094,4.091 4.469,4.091 2.544,0 4.184,-1.554 4.184,-4.091"
             style="fill:#000000;fill-opacity:1;fill-rule:nonzero;stroke:none"
             id="path3459" />
        </g>
        <g
           id="g3461"
           transform="translate(145.026,439.705)"
           style="fill:#000000">
          <path
             inkscape:connector-curvature="0"
             d="m 0,0 0,13.519 c 0,1.143 0.098,4.183 -0.843,5.079 -0.405,0.401 -1.042,0.45 -1.595,0.45 -3.979,0 -5.573,-5.623 -5.573,-8.818 l 0,-10.23 -5.52,0 0,23.672 5.52,0 0,-4.426 0.101,0 c 1.247,3.031 3.625,4.967 7.015,4.967 4.528,0 6.42,-3.73 6.42,-7.807 L 5.525,0 0,0"
             style="fill:#000000;fill-opacity:1;fill-rule:nonzero;stroke:none"
             id="path3463" />
        </g>
        <g
           id="g3465"
           transform="translate(162.0395,459.5468)"
           style="fill:#000000">
          <path
             inkscape:connector-curvature="0"
             d="m 0,0 0,-11.195 c 0,-2.794 0.29,-5.32 3.737,-5.32 0.837,0 1.691,0.188 2.536,0.398 l 0,-3.888 c -1.501,-0.243 -3.033,-0.392 -4.531,-0.392 -4.839,0 -7.251,1.597 -7.251,6.513 l 0,13.884 -4.632,0 0,3.83 4.632,0 0,5.61 L 0,11.686 0,3.83 7.016,3.83 7.016,0 0,0"
             style="fill:#000000;fill-opacity:1;fill-rule:nonzero;stroke:none"
             id="path3467" />
        </g>
        <g
           id="g3469"
           transform="translate(185.0365,439.705)"
           style="fill:#000000">
          <path
             inkscape:connector-curvature="0"
             d="m 0,0 0,4.416 -0.095,0 c -1.259,-2.977 -3.683,-4.972 -7.018,-4.972 -4.526,0 -6.422,3.727 -6.422,7.802 l 0,16.426 5.525,0 0,-13.541 c 0,-1.146 -0.096,-4.173 0.84,-5.067 0.407,-0.401 1.046,-0.438 1.601,-0.438 3.971,0 5.569,5.604 5.569,8.799 l 0,10.247 5.531,0 L 5.531,0 0,0"
             style="fill:#000000;fill-opacity:1;fill-rule:nonzero;stroke:none"
             id="path3471" />
        </g>
        <g
           id="g3473"
           transform="translate(199.5594,450.0829)"
           style="fill:#000000">
          <path
             inkscape:connector-curvature="0"
             d="m 0,0 0,-10.378 -5.517,0 0,23.672 5.517,0 0,-4.372 0.097,0 c 1.849,3.267 3.686,4.913 7.667,4.913 l 0,-5.765 C 2.096,8.07 0,5.584 0,0"
             style="fill:#000000;fill-opacity:1;fill-rule:nonzero;stroke:none"
             id="path3475" />
        </g>
        <g
           id="g3477"
           transform="translate(227.5825,452.9696)"
           style="fill:#000000">
          <path
             inkscape:connector-curvature="0"
             d="m 0,0 0,1.356 c 0,5.773 -2.979,9.592 -9.002,9.592 -7.061,0 -10.155,-4.423 -10.155,-11.14 0,-7.807 3.537,-13.628 11.934,-13.628 2.251,0 4.485,0.253 6.624,0.95 l 0,3.811 c -1.385,-0.481 -3.033,-0.879 -4.519,-0.879 -5.376,0 -8.913,4.908 -8.913,9.938 L 0,0 m -5.224,3.343 -8.652,0 c 0.252,2.391 2.087,4.091 4.474,4.091 2.54,0 4.178,-1.554 4.178,-4.091"
             style="fill:#000000;fill-opacity:1;fill-rule:nonzero;stroke:none"
             id="path3479" />
        </g>
        <g
           id="g3481"
           transform="translate(151.8864,491.1591)"
           style="fill:#000000">
          <path
             inkscape:connector-curvature="0"
             d="m 0,0 0,-3.901 c 0,0 11.032,-4.264 12.62,-4.875 C 11.032,-9.386 0,-13.641 0,-13.641 l 0,-3.886 17.173,6.967 0,3.581 L 0,0"
             style="fill:#000000;fill-opacity:1;fill-rule:nonzero;stroke:none"
             id="path3483" />
        </g>
      </g>
    </g>
  </g>
</svg>
