<?xml version="1.0" encoding="UTF-8"?>
<!-- Generator: Adobe Illustrator 14.0.0, SVG Export Plug-In . SVG Version: 6.00 Build 43363)  -->
<!DOCTYPE svg PUBLIC "-//W3C//DTD SVG 1.1//EN" "http://www.w3.org/Graphics/SVG/1.1/DTD/svg11.dtd">
<svg version="1.1" id="Layer_1" xmlns="http://www.w3.org/2000/svg" xmlns:xlink="http://www.w3.org/1999/xlink" x="0px" y="0px" width="273px" height="52.42px" viewBox="0 0 273 52.42" enable-background="new 0 0 273 52.42" xml:space="preserve">
<g>
	<g>
		<g>
			<g>
				<path fill="#273A7F" d="M180.33,44.31c0.21,1.31,1.74,1.8,2.9,1.8c1.02,0,2.33-0.36,2.33-1.59c0-1.02-1.04-1.31-1.87-1.46      l-1.57-0.28c-1.48-0.29-2.82-0.97-2.82-2.67c0-1.99,1.84-2.82,3.6-2.82c1.73,0,3.34,0.64,3.81,2.43l-1.37,0.28      c-0.38-1.06-1.36-1.52-2.46-1.52c-0.87,0-2.05,0.34-2.05,1.4c0,1.04,0.87,1.27,1.72,1.4l1.4,0.25c0.7,0.13,1.42,0.27,2.01,0.66      c0.76,0.51,1.16,1.31,1.16,2.18c0,2.18-2.12,2.97-4,2.97s-3.73-0.78-4.23-2.75L180.33,44.31z"/>
				<path fill="#273A7F" d="M194.32,47.23l-1.42,0.11c-2.1,0-2.73-1.23-2.73-3.14v-5.57h-1.7v-1.18h1.7v-2.39l1.48-0.15v2.54h2.14      v1.18h-2.14v5.82c0,1.12,0.32,1.71,1.54,1.71l1.14-0.09V47.23L194.32,47.23z"/>
				<path fill="#273A7F" d="M202.39,41.19v-0.41c0-1.69-0.74-2.33-2.44-2.33c-1.21,0-2.37,0.38-2.63,1.71l-1.38-0.23      c0.27-2.01,2.39-2.63,4.15-2.63c1.04,0,2.23,0.11,2.95,0.95c0.8,0.85,0.8,2.06,0.8,3.16v3.73c0,0.7,0.02,1.4,0.21,2.03h-1.48      l-0.17-1.8c-0.68,1.38-1.84,1.99-3.37,1.99c-1.8,0-3.35-1-3.35-2.92c0-1.16,0.72-2.2,1.78-2.67c1.08-0.51,2.5-0.57,3.69-0.57      L202.39,41.19L202.39,41.19z M202.39,42.3h-1.23c-1.52,0-3.9,0.21-3.9,2.2c0,1.19,1.02,1.69,2.08,1.69      c1.82,0,3.05-1.55,3.05-3.26L202.39,42.3L202.39,42.3z"/>
				<path fill="#273A7F" d="M208.37,39.31h0.04c0.55-1.19,1.63-2.03,2.99-2.03c1.16,0,2.12,0.49,2.73,1.5      c0.49,0.81,0.45,2.1,0.45,3.05v5.32h-1.48v-5.95c0-0.57,0.02-1.29-0.27-1.78c-0.32-0.55-1.02-0.87-1.65-0.87      c-0.78,0-1.48,0.36-1.99,0.96c-0.62,0.76-0.76,1.63-0.76,2.6v5.04h-1.48v-9.63h1.4L208.37,39.31L208.37,39.31z"/>
				<path fill="#273A7F" d="M223.85,34.16h1.48c0,4.34,0,8.66,0,13h-1.34v-1.71h-0.04c-0.61,1.21-1.59,1.89-3.01,1.89      c-1.27,0-2.24-0.6-2.94-1.63c-0.67-0.99-0.91-2.2-0.91-3.37c0-2.41,1.19-5.06,3.98-5.06c1.23,0,2.1,0.59,2.79,1.55V34.16      L223.85,34.16z M223.85,41.45c0-0.66-0.1-1.35-0.49-1.91c-0.47-0.68-1.32-1.08-2.16-1.08c-0.84,0-1.55,0.51-1.95,1.21      c-0.43,0.76-0.57,1.63-0.57,2.5c0,1.57,0.42,3.94,2.48,3.94c0.85,0,1.63-0.47,2.12-1.15c0.46-0.62,0.57-1.25,0.57-1.97V41.45z"/>
				<path fill="#273A7F" d="M234.52,41.19v-0.41c0-1.69-0.74-2.33-2.44-2.33c-1.21,0-2.37,0.38-2.64,1.71l-1.38-0.23      c0.27-2.01,2.39-2.63,4.15-2.63c1.04,0,2.24,0.11,2.96,0.95c0.79,0.85,0.79,2.06,0.79,3.16v3.73c0,0.7,0.02,1.4,0.21,2.03h-1.48      l-0.17-1.8c-0.68,1.38-1.84,1.99-3.37,1.99c-1.8,0-3.35-1-3.35-2.92c0-1.16,0.72-2.2,1.78-2.67c1.08-0.51,2.5-0.57,3.7-0.57      L234.52,41.19L234.52,41.19z M234.52,42.3h-1.23c-1.51,0-3.9,0.21-3.9,2.2c0,1.19,1.02,1.69,2.08,1.69      c1.82,0,3.05-1.55,3.05-3.26L234.52,42.3L234.52,42.3z"/>
				<path fill="#273A7F" d="M240.48,37.53v2.26h0.04c0.46-1.31,1.27-2.52,2.82-2.52l0.55,0.04v1.42h-0.3      c-1.14,0-1.93,0.55-2.48,1.52c-0.4,0.7-0.47,1.31-0.47,2.06v4.85h-1.48v-9.63H240.48z"/>
				<path fill="#273A7F" d="M251.81,34.16h1.48c0,4.34,0,8.66,0,13h-1.35v-1.71h-0.04c-0.61,1.21-1.59,1.89-3.02,1.89      c-1.27,0-2.23-0.6-2.94-1.63c-0.66-0.99-0.91-2.2-0.91-3.37c0-2.41,1.19-5.06,3.98-5.06c1.23,0,2.1,0.59,2.79,1.55V34.16      L251.81,34.16z M251.81,41.45c0-0.66-0.09-1.35-0.49-1.91c-0.47-0.68-1.32-1.08-2.16-1.08c-0.83,0-1.55,0.51-1.95,1.21      c-0.44,0.76-0.57,1.63-0.57,2.5c0,1.57,0.42,3.94,2.48,3.94c0.85,0,1.63-0.47,2.12-1.15c0.45-0.62,0.57-1.25,0.57-1.97V41.45z"/>
				<path fill="#273A7F" d="M257.29,44.31c0.21,1.31,1.74,1.8,2.9,1.8c1.02,0,2.33-0.36,2.33-1.59c0-1.02-1.04-1.31-1.88-1.46      l-1.57-0.28c-1.48-0.29-2.82-0.97-2.82-2.67c0-1.99,1.84-2.82,3.6-2.82c1.73,0,3.34,0.64,3.81,2.43l-1.36,0.28      c-0.38-1.06-1.37-1.52-2.46-1.52c-0.87,0-2.05,0.34-2.05,1.4c0,1.04,0.87,1.27,1.72,1.4l1.4,0.25c0.7,0.13,1.42,0.27,2.01,0.66      c0.76,0.51,1.16,1.31,1.16,2.18c0,2.18-2.12,2.97-4,2.97c-1.88,0-3.73-0.78-4.23-2.75L257.29,44.31z"/>
			</g>
			<g>
				<path fill="#273A7F" d="M68.77,39.51c0.32-1.35,1.02-2.29,2.52-2.18l0.51,0.04v3.39c-0.23-0.06-0.47-0.1-0.72-0.1      c-0.61,0-1.23,0.11-1.54,0.66c-0.26,0.47-0.26,1.1-0.26,1.67v4.21h-3.75v-9.68h3.2v1.99L68.77,39.51L68.77,39.51z"/>
				<path fill="#273A7F" d="M82.88,43.96c-0.59,2.35-2.67,3.43-4.96,3.43c-1.42,0-2.8-0.3-3.9-1.27c-1.04-0.93-1.59-2.26-1.57-3.64      c-0.02-1.31,0.49-2.73,1.4-3.66c0.98-1.02,2.46-1.5,3.85-1.5c3.22,0,5.19,2.09,5.19,5.27v0.51h-6.5c0,1.04,0.34,1.8,1.48,1.8      c0.85,0,1.32-0.34,1.48-1.17L82.88,43.96z M79.1,41.22c0-0.95-0.3-1.67-1.37-1.67c-0.98,0-1.35,0.78-1.35,1.67H79.1z"/>
				<path fill="#273A7F" d="M90.03,47.2v-1.29h-0.04c-0.55,1.06-1.36,1.48-2.58,1.48c-2.79,0-3.75-2.6-3.75-4.98      c0-2.48,0.95-5.08,3.87-5.08c0.93,0,1.73,0.4,2.31,0.99v-4.11h3.75v13L90.03,47.2L90.03,47.2z M89.84,41.2      c0-0.38,0.02-0.83-0.23-1.14c-0.17-0.25-0.51-0.38-0.81-0.38c-0.66,0-0.95,0.44-1.06,1.02c-0.11,0.53-0.19,1.27-0.19,1.8      c0,0.85,0.06,2.37,1.23,2.37c0.38,0,0.63-0.17,0.83-0.49c0.27-0.42,0.23-0.76,0.23-1.23V41.2z"/>
				<path fill="#273A7F" d="M105.25,43.96c-0.59,2.35-2.67,3.43-4.96,3.43c-1.42,0-2.8-0.3-3.9-1.27c-1.04-0.93-1.59-2.26-1.57-3.64      c-0.02-1.31,0.49-2.73,1.4-3.66c0.99-1.02,2.46-1.5,3.85-1.5c3.22,0,5.19,2.09,5.19,5.27v0.51h-6.5c0,1.04,0.34,1.8,1.48,1.8      c0.85,0,1.33-0.34,1.48-1.17L105.25,43.96z M101.46,41.22c0-0.95-0.3-1.67-1.36-1.67c-0.98,0-1.34,0.78-1.34,1.67H101.46z"/>
				<path fill="#273A7F" d="M110.79,47.2h-3.75v-6.97h-1.37v-2.39h1.37v-0.13c0-0.94,0.06-1.84,0.7-2.63      c0.74-0.91,1.92-1.06,3.03-1.06c0.93,0,1.86,0.13,2.78,0.25v2.37c-0.85-0.11-1.46-0.15-1.93-0.15c-0.68,0-0.97,0.46-0.87,1.36      h2.39v2.39h-2.35V47.2z"/>
				<path fill="#273A7F" d="M117.93,36.59h-3.75v-2.58h3.75V36.59z M117.93,47.2h-3.75v-9.68h3.75V47.2z"/>
				<path fill="#273A7F" d="M119.75,37.52h3.54v1.36h0.04c0.45-1.1,1.57-1.55,2.75-1.55c0.91,0,1.95,0.27,2.52,1.01      c0.61,0.79,0.61,1.9,0.61,2.9v5.97h-3.75v-5.87c0-0.59,0-1.4-0.81-1.4c-1.04,0-1.14,0.89-1.14,1.69v5.59h-3.75V37.52z"/>
				<path fill="#273A7F" d="M134.61,36.59h-3.75v-2.58h3.75V36.59z M134.61,47.2h-3.75v-9.68h3.75V47.2z"/>
				<path fill="#273A7F" d="M136.44,37.52h3.54v1.36h0.04c0.46-1.1,1.57-1.55,2.75-1.55c0.91,0,1.95,0.27,2.52,1.01      c0.6,0.79,0.6,1.9,0.6,2.9v5.97h-3.75v-5.87c0-0.59,0-1.4-0.81-1.4c-1.04,0-1.14,0.89-1.14,1.69v5.59h-3.75V37.52L136.44,37.52z      "/>
				<path fill="#273A7F" d="M149.04,42.6c-1-0.42-1.57-1.12-1.57-2.24c0-2.5,2.77-3.03,4.74-3.03c0.61,0,1.21,0.04,1.8,0.19      c0.21-1.4,0.91-2.27,2.41-2.27c0.45,0,0.83,0.02,1.35,0.08l-0.1,2.6c-0.42-0.06-0.62-0.04-0.93-0.04      c-0.34,0-0.87,0.02-1.06,0.36c0.67,0.53,1.08,1.33,1.08,2.18c0,2.43-2.48,2.96-4.43,2.96c-0.32,0-0.55-0.04-0.87-0.04      c-0.59,0-0.91,0.13-0.91,0.48c0,0.38,0.32,0.42,1.04,0.46l2.65,0.11c0.83,0.04,1.73,0.15,2.41,0.66      c0.74,0.55,1.12,1.5,1.12,2.41c0,1.38-0.93,2.25-2.16,2.67c-1.04,0.36-2.54,0.42-3.67,0.42c-1.61,0-5.25-0.11-5.25-2.39      c0-0.93,0.55-1.57,1.4-1.87c-0.53-0.4-0.89-0.85-0.89-1.53C147.18,43.62,148.09,42.96,149.04,42.6z M150.57,48.4      c0.61,0.15,1.25,0.17,1.88,0.17c0.57,0,1.97,0.1,1.97-0.76c0-0.64-0.64-0.61-1.12-0.62c-0.85-0.04-1.69-0.12-2.54-0.12      c-0.44,0-0.95,0.04-0.95,0.61C149.81,48.13,150.18,48.3,150.57,48.4z M153.3,40.42c0-0.74-0.38-1.21-1.16-1.21      c-0.72,0-1.12,0.49-1.12,1.19c0,0.78,0.42,1.18,1.19,1.18C152.92,41.58,153.3,41.08,153.3,40.42z"/>
			</g>
			<g>
				<polygon fill="#EE282C" points="163.77,50.26 176.24,34.07 173.26,34.08 160.76,50.26     "/>
			</g>
		</g>
		<path fill="#273A7F" d="M269.23,33.11c2.05,0,3.77,1.66,3.77,3.79c0,2.07-1.69,3.77-3.77,3.77c-2.08,0-3.77-1.7-3.77-3.77    C265.46,34.78,267.16,33.11,269.23,33.11z M269.23,39.99c1.7,0,3.1-1.39,3.1-3.09c0-1.74-1.39-3.11-3.1-3.11    c-1.68,0-3.09,1.37-3.09,3.11C266.14,38.6,267.53,39.99,269.23,39.99z M268.5,38.91h-0.86v-4.04h1.88c0.24,0,1.54,0,1.54,1.21    c0,0.77-0.55,0.99-0.75,1.08l0.75,1.76h-0.91l-0.66-1.61h-0.99L268.5,38.91L268.5,38.91z M268.5,36.62h0.9    c0.29,0,0.77-0.07,0.77-0.57c0-0.24-0.17-0.53-0.7-0.53h-0.97V36.62z"/>
	</g>
	<g>
		<g>
			<rect fill="#273A7F" width="52.42" height="52.42"/>
		</g>
		<g>
			<polygon fill="#EE282C" points="32.48,25.89 52.42,0 49.48,0 29.47,25.89    "/>
		</g>
		<g>
			<path fill="#FFFFFF" d="M40.06,37.44c0.91,2.56,2.8,9.21,3.54,9.74h-4.94c0,0-0.02-0.98-0.23-1.74c-0.21-0.76-2-6.51-2-6.51     h-7.85l-1.23,1.75c0,0,1.48,4.64,1.58,4.87c0.16,0.41,0.87,1.64,0.87,1.64h-4.74c0,0-0.12-0.71-0.17-1     c-0.04-0.24-0.45-1.54-0.45-1.54s-1.07,1.18-1.37,1.72c-0.29,0.54-0.43,0.83-0.43,0.83h-3.71c0,0-0.12-0.71-0.17-1     c-0.04-0.24-0.49-1.65-0.49-1.65s-1.04,1.26-1.33,1.8c-0.29,0.55-0.42,0.85-0.42,0.85h-3.67c0,0,1.04-0.99,1.4-1.41     c0.61-0.72,2.88-3.69,2.88-3.69l-0.91-3.16H8.43c0,0-4.44,5.84-4.62,6.02c-0.18,0.18-1.47,2.04-1.5,2.24H0v-1.47     c0.04-0.04,0.08-0.08,0.09-0.09c0.07-0.05,3.37-4.15,6.4-8.18c2.72-3.52,5.28-6.94,5.5-7.27c0.54-0.79,1.33-2.49,1.33-2.49h4.03     c0,0,0.12,1.57,0.24,1.95c0.1,0.33,2.56,8.39,2.62,8.48l1.36-1.74l-2.32-7.14c0,0-0.54-1.34-0.72-1.54h4.71     c0,0-0.04,0.69,0.15,1.28c0.19,0.59,1.2,4.23,1.2,4.23s3.21-4.02,3.4-4.31c0.35-0.48,0.4-1.2,0.4-1.2h3.92     c0,0-0.72,0.53-1.98,2.12c-0.42,0.54-4.56,5.8-4.56,5.8s0.36,1.23,0.54,1.85c0.05,0.18,0.08,0.29,0.08,0.31     c0,0,0.09-0.11,0.25-0.31c1.07-1.35,5.93-7.72,6.22-8.27c0.24-0.44,0.59-0.94,0.79-1.49h3.83c0,0,0.09,1.14,0.21,1.46     L40.06,37.44z M34.23,31.41c-0.56,1.21-3.87,5.23-3.87,5.23h5.23c0,0-1.02-3.12-1.19-3.83c-0.14-0.56-0.1-1.28-0.1-1.37     C34.31,31.38,34.29,31.28,34.23,31.41z M14.12,31.41c-0.56,1.21-3.87,5.23-3.87,5.23h5.23c0,0-1.01-3.12-1.19-3.83     c-0.14-0.56-0.1-1.28-0.1-1.37C14.19,31.38,14.18,31.28,14.12,31.41z M22,43.61l1.44-1.98c-0.13-0.14-0.94-2.6-0.94-2.6     l-1.39,1.81L22,43.61z"/>
		</g>
	</g>
</g>
</svg>