<?xml version="1.0" encoding="UTF-8" standalone="no"?>
<!DOCTYPE svg PUBLIC "-//W3C//DTD SVG 20010904//EN"
              "http://www.w3.org/TR/2001/REC-SVG-20010904/DTD/svg10.dtd">

<svg xmlns="http://www.w3.org/2000/svg"
     width="4.58333in" height="1.04167in"
     viewBox="0 0 330 75">
  <path id="Path"
        fill="black" stroke="black" stroke-width="1"
        d="M 4.00,58.00
           C 4.00,58.00 26.00,58.00 26.00,58.00
             26.00,58.00 26.00,54.00 26.00,54.00
             26.00,54.00 8.00,54.00 8.00,54.00
             8.00,54.00 8.00,42.00 8.00,42.00
             8.00,42.00 24.00,42.00 24.00,42.00
             24.00,42.00 24.00,38.00 24.00,38.00
             24.00,38.00 8.00,38.00 8.00,38.00
             8.00,38.00 8.00,28.00 8.00,28.00
             8.00,28.00 25.00,28.00 25.00,28.00
             25.00,28.00 25.00,24.00 25.00,24.00
             25.00,24.00 4.00,24.00 4.00,24.00
             4.00,24.00 4.00,58.00 4.00,58.00 Z
           M 37.00,58.00
           C 37.00,58.00 43.00,58.00 43.00,58.00
             43.00,58.00 51.94,43.00 51.94,43.00
             51.94,43.00 61.00,58.00 61.00,58.00
             61.00,58.00 67.00,58.00 67.00,58.00
             67.00,58.00 55.00,39.94 55.00,39.94
             55.00,39.94 66.00,24.00 66.00,24.00
             66.00,24.00 60.00,24.00 60.00,24.00
             60.00,24.00 52.06,37.00 52.06,37.00
             52.06,37.00 44.00,24.00 44.00,24.00
             44.00,24.00 38.00,24.00 38.00,24.00
             38.00,24.00 49.00,39.98 49.00,39.98
             49.00,39.98 37.00,58.00 37.00,58.00 Z
           M 88.00,58.00
           C 88.00,58.00 92.00,58.00 92.00,58.00
             92.00,58.00 105.00,24.00 105.00,24.00
             105.00,24.00 101.00,24.00 101.00,24.00
             101.00,24.00 90.14,51.66 90.14,51.66
             90.14,51.66 90.05,51.66 90.05,51.66
             90.05,51.66 80.00,24.00 80.00,24.00
             80.00,24.00 75.00,24.00 75.00,24.00
             75.00,24.00 88.00,58.00 88.00,58.00 Z
           M 117.00,58.00
           C 117.00,58.00 139.00,58.00 139.00,58.00
             139.00,58.00 139.00,54.00 139.00,54.00
             139.00,54.00 121.00,54.00 121.00,54.00
             121.00,54.00 121.00,42.00 121.00,42.00
             121.00,42.00 137.00,42.00 137.00,42.00
             137.00,42.00 137.00,38.00 137.00,38.00
             137.00,38.00 121.00,38.00 121.00,38.00
             121.00,38.00 121.00,28.00 121.00,28.00
             121.00,28.00 138.00,28.00 138.00,28.00
             138.00,28.00 138.00,24.00 138.00,24.00
             138.00,24.00 117.00,24.00 117.00,24.00
             117.00,24.00 117.00,58.00 117.00,58.00 Z
           M 154.00,58.00
           C 154.00,58.00 158.00,58.00 158.00,58.00
             158.00,58.00 158.00,43.00 158.00,43.00
             158.00,43.00 163.55,43.00 163.55,43.00
             163.55,43.00 172.00,58.00 172.00,58.00
             172.00,58.00 177.64,58.00 177.64,58.00
             177.64,58.00 167.55,42.48 167.55,42.48
             168.84,42.36 170.01,42.02 171.06,41.45
             172.11,40.89 173.00,40.20 173.73,39.39
             174.46,38.57 175.02,37.66 175.41,36.66
             175.80,35.65 176.00,34.59 176.00,33.50
             176.00,32.45 175.84,31.36 175.53,30.22
             175.23,29.09 174.68,28.06 173.89,27.16
             173.11,26.24 172.04,25.48 170.69,24.89
             169.33,24.30 167.61,24.00 165.52,24.00
             165.52,24.00 154.00,24.00 154.00,24.00
             154.00,24.00 154.00,58.00 154.00,58.00 Z
           M 158.00,28.00
           C 158.00,28.00 164.34,28.00 164.34,28.00
             165.28,28.00 166.21,28.07 167.14,28.22
             168.07,28.37 168.89,28.63 169.61,29.02
             170.33,29.40 170.91,29.96 171.34,30.69
             171.78,31.41 172.00,32.34 172.00,33.50
             172.00,34.66 171.78,35.60 171.34,36.33
             170.91,37.05 170.33,37.60 169.61,37.98
             168.89,38.37 168.07,38.64 167.14,38.78
             166.21,38.93 165.28,39.00 164.34,39.00
             164.34,39.00 158.00,39.00 158.00,39.00
             158.00,39.00 158.00,28.00 158.00,28.00 Z
           M 189.00,53.28
           C 190.11,54.89 191.62,56.07 193.52,56.84
             195.41,57.62 197.41,58.00 199.53,58.00
             201.11,58.00 202.60,57.78 204.00,57.33
             205.41,56.88 206.62,56.24 207.64,55.41
             208.67,54.56 209.49,53.53 210.09,52.30
             210.70,51.07 211.00,49.69 211.00,48.16
             211.00,46.24 210.58,44.74 209.73,43.66
             208.89,42.56 207.84,41.70 206.59,41.05
             205.34,40.40 203.98,39.90 202.50,39.55
             201.02,39.18 199.66,38.77 198.41,38.30
             197.16,37.82 196.11,37.20 195.27,36.44
             194.42,35.67 194.00,34.57 194.00,33.14
             194.00,32.63 194.10,32.08 194.31,31.48
             194.53,30.88 194.91,30.32 195.44,29.80
             195.97,29.27 196.67,28.84 197.55,28.50
             198.43,28.17 199.54,28.00 200.86,28.00
             202.25,28.00 203.50,28.28 204.59,28.83
             205.69,29.37 206.53,30.09 207.12,31.00
             207.12,31.00 211.00,27.73 211.00,27.73
             209.74,26.23 208.27,25.23 206.59,24.73
             204.93,24.25 203.18,24.00 201.34,24.00
             199.33,24.00 197.61,24.29 196.17,24.88
             194.73,25.46 193.55,26.19 192.64,27.06
             191.73,27.93 191.07,28.89 190.64,29.94
             190.21,30.98 190.00,31.96 190.00,32.89
             190.00,34.96 190.42,36.61 191.27,37.81
             192.11,39.02 193.16,39.98 194.41,40.70
             195.66,41.42 197.02,41.98 198.50,42.39
             199.98,42.80 201.34,43.23 202.59,43.69
             203.84,44.15 204.89,44.72 205.73,45.41
             206.58,46.09 207.00,47.07 207.00,48.38
             207.00,49.30 206.79,50.12 206.36,50.81
             205.94,51.51 205.40,52.10 204.73,52.58
             204.07,53.05 203.33,53.40 202.52,53.64
             201.71,53.88 200.92,54.00 200.14,54.00
             198.74,54.00 197.39,53.68 196.08,53.03
             194.77,52.38 193.69,51.37 192.84,50.00
             192.84,50.00 189.00,53.28 189.00,53.28 Z
           M 225.00,58.00
           C 225.00,58.00 229.00,58.00 229.00,58.00
             229.00,58.00 229.00,24.00 229.00,24.00
             229.00,24.00 225.00,24.00 225.00,24.00
             225.00,24.00 225.00,58.00 225.00,58.00 Z
           M 267.86,56.70
           C 269.95,55.83 271.74,54.63 273.23,53.11
             274.72,51.59 275.89,49.79 276.73,47.72
             277.58,45.65 278.00,43.41 278.00,41.00
             278.00,38.59 277.58,36.36 276.73,34.28
             275.89,32.21 274.72,30.41 273.23,28.89
             271.74,27.37 269.95,26.18 267.86,25.31
             265.77,24.44 263.49,24.00 261.00,24.00
             258.51,24.00 256.22,24.44 254.12,25.31
             252.04,26.18 250.25,27.37 248.77,28.89
             247.27,30.41 246.11,32.21 245.27,34.28
             244.42,36.36 244.00,38.59 244.00,41.00
             244.00,43.41 244.42,45.65 245.27,47.72
             246.11,49.79 247.27,51.59 248.77,53.11
             250.25,54.63 252.04,55.83 254.12,56.70
             256.22,57.57 258.51,58.00 261.00,58.00
             263.49,58.00 265.77,57.57 267.86,56.70 Z
           M 255.64,52.97
           C 254.05,52.27 252.69,51.34 251.55,50.17
             250.41,49.01 249.54,47.63 248.92,46.05
             248.30,44.46 248.00,42.78 248.00,41.00
             248.00,39.22 248.30,37.54 248.92,35.95
             249.54,34.37 250.41,33.00 251.55,31.83
             252.69,30.66 254.05,29.73 255.64,29.05
             257.23,28.35 259.02,28.00 261.00,28.00
             262.98,28.00 264.76,28.35 266.34,29.05
             267.94,29.73 269.30,30.66 270.44,31.83
             271.58,33.00 272.46,34.37 273.08,35.95
             273.69,37.54 274.00,39.22 274.00,41.00
             274.00,42.78 273.69,44.46 273.08,46.05
             272.46,47.63 271.58,49.01 270.44,50.17
             269.30,51.34 267.94,52.27 266.34,52.97
             264.76,53.66 262.98,54.00 261.00,54.00
             259.02,54.00 257.23,53.66 255.64,52.97 Z
           M 293.00,58.00
           C 293.00,58.00 297.00,58.00 297.00,58.00
             297.00,58.00 297.00,30.05 297.00,30.05
             297.00,30.05 297.09,30.05 297.09,30.05
             297.09,30.05 316.00,58.00 316.00,58.00
             316.00,58.00 321.00,58.00 321.00,58.00
             321.00,58.00 321.00,24.00 321.00,24.00
             321.00,24.00 317.00,24.00 317.00,24.00
             317.00,24.00 317.00,51.95 317.00,51.95
             317.00,51.95 316.91,51.95 316.91,51.95
             316.91,51.95 298.00,24.00 298.00,24.00
             298.00,24.00 293.00,24.00 293.00,24.00
             293.00,24.00 293.00,58.00 293.00,58.00 Z" />
</svg>
