<?xml version="1.0" encoding="UTF-8" standalone="no"?>
<svg
   xmlns:dc="http://purl.org/dc/elements/1.1/"
   xmlns:cc="http://creativecommons.org/ns#"
   xmlns:rdf="http://www.w3.org/1999/02/22-rdf-syntax-ns#"
   xmlns:svg="http://www.w3.org/2000/svg"
   xmlns="http://www.w3.org/2000/svg"
   xmlns:sodipodi="http://sodipodi.sourceforge.net/DTD/sodipodi-0.dtd"
   xmlns:inkscape="http://www.inkscape.org/namespaces/inkscape"
   version="1.1"
   id="Layer_1"
   x="0px"
   y="0px"
   viewBox="0 0 435.84236 206.15801"
   enable-background="new 0 0 595.275 311.111"
   xml:space="preserve"
   inkscape:version="0.91+devel r13964"
   sodipodi:docname="owncloud.svg"
   width="435.84238"
   height="206.158"
   inkscape:export-filename="/home/emily/Devel/OpenShift/commons.openshift.org/img/commons-logos/owncloud.png"
   inkscape:export-xdpi="90"
   inkscape:export-ydpi="90"><metadata
     id="metadata36"><rdf:RDF><cc:Work
         rdf:about=""><dc:format>image/svg+xml</dc:format><dc:type
           rdf:resource="http://purl.org/dc/dcmitype/StillImage" /><dc:title></dc:title></cc:Work></rdf:RDF></metadata><defs
     id="defs34" /><sodipodi:namedview
     pagecolor="#ffffff"
     bordercolor="#666666"
     borderopacity="1"
     objecttolerance="10"
     gridtolerance="10"
     guidetolerance="10"
     inkscape:pageopacity="0"
     inkscape:pageshadow="2"
     inkscape:window-width="640"
     inkscape:window-height="480"
     id="namedview32"
     showgrid="false"
     fit-margin-top="0"
     fit-margin-left="0"
     fit-margin-right="0"
     fit-margin-bottom="0"
     inkscape:zoom="1.1057147"
     inkscape:cx="213.81741"
     inkscape:cy="94.866504"
     inkscape:current-layer="Layer_1" /><g
     id="g3"
     transform="translate(-72.063,-44.264)"><g
       id="g5"><path
         d="m 97.312,199.922 c -13.922,0 -25.249,11.327 -25.249,25.249 0,13.922 11.327,25.249 25.249,25.249 13.922,0 25.249,-11.327 25.249,-25.249 0,-13.922 -11.327,-25.249 -25.249,-25.249 z m 0,43.998 c -10.338,0 -18.749,-8.411 -18.749,-18.749 0,-10.338 8.411,-18.749 18.749,-18.749 10.338,0 18.749,8.411 18.749,18.749 0,10.338 -8.411,18.749 -18.749,18.749 z"
         id="path7"
         inkscape:connector-curvature="0"
         style="fill:#e76e34" /><path
         d="m 189.811,201.716 -1.25,0 0,1.25 0,30.074 c 0,5.995 -4.878,10.873 -10.875,10.873 -5.996,0 -10.875,-4.878 -10.875,-10.873 l 0,-30.074 0,-1.25 -1.25,0 -4,0 -1.25,0 0,1.25 0,30.074 c 0,5.995 -4.878,10.873 -10.875,10.873 -5.996,0 -10.873,-4.878 -10.873,-10.873 l 0,-30.074 0,-1.25 -1.25,0 -4,0 -1.25,0 0,1.25 0,30.074 c 0,9.579 7.793,17.373 17.373,17.373 5.821,0 10.97,-2.888 14.125,-7.294 3.155,4.406 8.304,7.294 14.125,7.294 9.581,0 17.375,-7.794 17.375,-17.373 l 0,-30.074 0,-1.25 -1.25,0 -4,0 z"
         id="path9"
         inkscape:connector-curvature="0"
         style="fill:#e76e34" /><path
         d="m 230.317,199.718 c -13.923,0 -25.25,11.327 -25.25,25.25 l 0,22.201 0,1.25 1.25,0 4,0 1.25,0 0,-1.25 0,-22.201 c 0,-10.339 8.411,-18.75 18.75,-18.75 10.34,0 18.752,8.411 18.752,18.75 l 0,22.201 0,1.25 1.25,0 4,0 1.25,0 0,-1.25 0,-22.201 c 0,-13.923 -11.328,-25.25 -25.252,-25.25 z"
         id="path11"
         inkscape:connector-curvature="0"
         style="fill:#e76e34" /></g><g
       id="g13"><path
         d="m 364.825,199.92 c -13.924,0 -25.251,11.327 -25.251,25.251 0,13.924 11.327,25.251 25.251,25.251 13.924,0 25.251,-11.327 25.251,-25.251 0,-13.924 -11.327,-25.251 -25.251,-25.251 z m 0,44.002 c -10.339,0 -18.751,-8.412 -18.751,-18.751 0,-10.339 8.412,-18.751 18.751,-18.751 10.339,0 18.751,8.412 18.751,18.751 0,10.339 -8.412,18.751 -18.751,18.751 z"
         id="path15"
         inkscape:connector-curvature="0"
         style="fill:#567b8f" /><path
         d="m 443.324,201.716 -1.25,0 0,1.25 0,22.205 c 0,10.338 -8.412,18.748 -18.752,18.748 -10.339,0 -18.75,-8.41 -18.75,-18.748 l 0,-22.205 0,-1.25 -1.25,0 -4,0 -1.25,0 0,1.25 0,22.205 c 0,13.922 11.327,25.248 25.25,25.248 13.924,0 25.252,-11.326 25.252,-25.248 l 0,-22.205 0,-1.25 -1.25,0 -4,0 z"
         id="path17"
         inkscape:connector-curvature="0"
         style="fill:#567b8f" /><path
         d="m 507.846,203.241 0,-0.107 0,-40.172 0,-1.25 -1.25,0 -4,0 -1.25,0 0,1.25 0,36.926 -18.959,0.021 c -13.922,0 -25.249,11.327 -25.249,25.25 0,13.922 11.327,25.248 25.25,25.248 l 7.849,0 c 7.832,0 17.433,-7.726 17.608,-17.319 0.124,-6.862 0.022,-26.067 10e-4,-29.847 z m -6.501,29.729 c -0.103,5.633 -6.345,10.937 -11.108,10.937 l -7.849,0 c -10.339,0 -18.75,-8.41 -18.75,-18.748 0,-10.339 8.412,-18.75 18.752,-18.75 l 18.973,-0.022 c 0.03,6.047 0.088,20.782 -0.018,26.583 z"
         id="path19"
         inkscape:connector-curvature="0"
         style="fill:#567b8f" /><path
         d="m 322.828,233.04 0,-49.742 c -2.264,-1.143 -4.435,-2.439 -6.5,-3.881 l 0,53.623 c 0,9.579 7.794,17.373 17.373,17.373 l 1.25,0 0,-1.25 0,-4 0,-1.25 -1.25,0 c -5.995,0 -10.873,-4.878 -10.873,-10.873 z"
         id="path21"
         inkscape:connector-curvature="0"
         style="fill:#567b8f" /><path
         d="m 271.229,212.005 c 0,-9.693 4.35,-18.386 11.193,-24.244 -2.155,-0.829 -4.155,-1.969 -5.948,-3.365 -7.234,6.99 -11.745,16.779 -11.745,27.609 0,21.182 17.233,38.414 38.416,38.414 l 1.25,0 0,-1.25 0,-4 0,-1.25 -1.25,0 c -17.598,0 -31.916,-14.317 -31.916,-31.914 z"
         id="path23"
         inkscape:connector-curvature="0"
         style="fill:#567b8f" /></g></g><linearGradient
     id="SVGID_1_"
     gradientUnits="userSpaceOnUse"
     x1="346.85159"
     y1="44.262901"
     x2="346.85159"
     y2="185.823"
     gradientTransform="translate(-72.063,-44.264)"><stop
       offset="0"
       style="stop-color:#BFD5E0"
       id="stop26" /><stop
       offset="1"
       style="stop-color:#90ACBB"
       id="stop28" /></linearGradient><path
     d="m 200.506,43.685 c -1.522,-2.671 -2.403,-5.752 -2.403,-9.039 0,-10.108 8.224,-18.332 18.332,-18.332 3.739,0 7.218,1.131 10.12,3.061 -2.155,4.854 -3.362,10.22 -3.362,15.864 0,1.04 0.053,2.066 0.133,3.086 -0.715,-0.036 -1.436,-0.055 -2.16,-0.055 -7.501,0 -14.546,1.974 -20.66,5.415 z m -4.041,71.106 c -10.626,-7.684 -17.56,-20.174 -17.56,-34.26 0,-3.6 0.455,-7.096 1.306,-10.433 -0.352,-0.011 -0.704,-0.027 -1.059,-0.027 -19.433,0 -35.242,15.81 -35.242,35.243 0,19.432 15.809,35.242 35.242,35.242 7.406,0 14.282,-2.303 19.961,-6.221 -2.343,-3.633 -3.709,-7.953 -3.709,-12.588 0,-2.422 0.372,-4.758 1.061,-6.956 z m 1.58,-3.8 c 3.165,-6.053 8.908,-10.551 15.766,-12.021 0.648,-0.141 1.308,-0.248 1.975,-0.332 0.659,-0.084 1.325,-0.141 1.999,-0.166 0.305,-0.012 0.61,-0.023 0.918,-0.023 1.081,0 2.144,0.08 3.186,0.223 -0.326,-2.377 -0.508,-4.801 -0.508,-7.266 0,-11.844 3.885,-22.794 10.442,-31.655 -1.485,-1.85 -2.81,-3.833 -3.945,-5.936 -0.318,-0.591 -0.621,-1.191 -0.91,-1.801 -0.289,-0.607 -0.561,-1.225 -0.818,-1.85 -1.023,-2.479 -1.795,-5.086 -2.294,-7.789 -0.89,-0.062 -1.784,-0.105 -2.689,-0.105 -6.622,0 -12.856,1.692 -18.294,4.665 -0.601,0.329 -1.189,0.676 -1.771,1.035 -0.573,0.355 -1.135,0.727 -1.688,1.109 -6.204,4.305 -11.075,10.393 -13.872,17.52 -0.246,0.627 -0.477,1.262 -0.69,1.904 -0.212,0.641 -0.409,1.287 -0.588,1.941 -0.88,3.216 -1.359,6.596 -1.359,10.086 0,12.418 5.948,23.467 15.14,30.461 z M 321.522,65.865 c 5.098,-2.678 10.803,-4.343 16.853,-4.73 -1.564,-17.998 -16.703,-32.169 -35.1,-32.169 -0.704,0 -1.401,0.026 -2.095,0.067 0.322,2.022 0.495,4.094 0.495,6.206 0,3.276 -0.409,6.458 -1.17,9.503 8.844,4.908 16.157,12.25 21.017,21.123 z m -93.888,-25.07 c 0.113,0.71 0.253,1.411 0.407,2.106 0.356,1.599 0.816,3.157 1.382,4.667 0.251,0.67 0.525,1.326 0.815,1.977 0.284,0.637 0.587,1.265 0.908,1.882 0.938,1.806 2.023,3.521 3.247,5.127 2.46,-2.842 5.207,-5.428 8.208,-7.698 0.566,-0.428 1.144,-0.84 1.727,-1.245 0.58,-0.404 1.17,-0.794 1.767,-1.175 8.093,-5.169 17.661,-8.215 27.925,-8.347 0.232,-0.003 0.462,-0.018 0.694,-0.018 0.667,0 1.328,0.026 1.99,0.05 0.912,0.034 1.819,0.091 2.72,0.17 6.16,0.542 12.02,2.136 17.404,4.601 0.549,-2.466 0.847,-5.024 0.847,-7.652 0,-1.954 -0.167,-3.87 -0.475,-5.739 -0.109,-0.661 -0.238,-1.316 -0.384,-1.965 -0.146,-0.654 -0.311,-1.301 -0.494,-1.939 C 292.116,10.84 278.521,0 262.433,0 249.16,0 237.58,7.379 231.572,18.248 c -0.335,0.605 -0.654,1.221 -0.954,1.848 -0.31,0.651 -0.597,1.316 -0.868,1.989 -1.644,4.068 -2.558,8.506 -2.558,13.155 0,1.178 0.061,2.342 0.174,3.49 0.07,0.694 0.16,1.382 0.268,2.065 z m 158.734,59.598 c -1.056,0 -2.084,0.109 -3.094,0.271 0.055,0.873 0.091,1.75 0.091,2.635 0,11.225 -4.407,21.432 -11.571,29.008 3.542,4.086 8.755,6.686 14.574,6.686 10.642,0 19.3,-8.658 19.3,-19.299 -0.001,-10.643 -8.659,-19.301 -19.3,-19.301 z m -7.042,1.35 c -0.028,-0.699 -0.073,-1.393 -0.139,-2.082 -0.064,-0.688 -0.146,-1.369 -0.247,-2.047 -2.687,-17.962 -17.906,-31.874 -36.444,-32.541 -0.463,-0.017 -0.925,-0.035 -1.392,-0.035 -0.204,0 -0.405,0.012 -0.608,0.016 -0.672,0.01 -1.339,0.039 -2.002,0.084 -5.455,0.369 -10.6,1.885 -15.194,4.311 2.766,6.096 4.42,12.797 4.695,19.848 0.027,0.701 0.054,1.402 0.054,2.11 0,0.207 -0.014,0.41 -0.016,0.615 -0.011,0.9 -0.042,1.793 -0.097,2.682 -0.814,13.27 -6.496,25.238 -15.286,34.143 7.009,7.799 17.167,12.715 28.454,12.715 9.745,0 18.646,-3.668 25.409,-9.688 0.512,-0.457 1.015,-0.924 1.502,-1.406 0.491,-0.486 0.971,-0.984 1.436,-1.498 6.157,-6.793 9.914,-15.801 9.914,-25.668 0,-0.524 -0.019,-1.042 -0.039,-1.559 z M 229.66,119.887 c -0.38,-0.598 -0.747,-1.203 -1.103,-1.816 -2.711,-4.674 -4.733,-9.791 -5.926,-15.219 -1.269,-0.264 -2.583,-0.404 -3.928,-0.404 -0.143,0 -0.281,0.018 -0.423,0.021 -0.674,0.014 -1.338,0.064 -1.994,0.146 -0.671,0.084 -1.33,0.205 -1.978,0.355 -5.686,1.332 -10.399,5.178 -12.918,10.303 -0.297,0.605 -0.562,1.227 -0.796,1.865 -0.232,0.635 -0.431,1.283 -0.597,1.945 -0.373,1.496 -0.593,3.053 -0.593,4.662 0,3.709 1.07,7.166 2.892,10.109 0.356,0.578 0.74,1.135 1.153,1.668 0.405,0.523 0.833,1.027 1.289,1.506 3.518,3.697 8.471,6.016 13.965,6.016 8.175,0 15.163,-5.119 17.97,-12.314 -2.142,-2.182 -4.097,-4.545 -5.841,-7.066 -0.403,-0.583 -0.792,-1.177 -1.172,-1.777 z m 94.226,-24.662 c 0.065,-0.846 0.108,-1.695 0.13,-2.551 0.011,-0.422 0.032,-0.844 0.032,-1.27 0,-7.079 -1.51,-13.807 -4.206,-19.898 -0.275,-0.621 -0.558,-1.237 -0.857,-1.845 -0.294,-0.596 -0.593,-1.189 -0.91,-1.771 -4.36,-8.008 -10.882,-14.67 -18.767,-19.225 -0.584,-0.338 -1.174,-0.664 -1.772,-0.978 -0.598,-0.313 -1.199,-0.618 -1.812,-0.907 -6.053,-2.861 -12.777,-4.519 -19.867,-4.682 -0.381,-0.008 -0.76,-0.028 -1.143,-0.028 -0.474,0 -0.941,0.022 -1.412,0.036 -0.85,0.023 -1.692,0.068 -2.53,0.136 -7.775,0.618 -15.049,3.036 -21.397,6.853 -0.591,0.355 -1.172,0.727 -1.747,1.106 -0.58,0.382 -1.149,0.779 -1.712,1.185 -3.29,2.375 -6.276,5.141 -8.891,8.234 -0.436,0.518 -0.861,1.047 -1.277,1.582 -0.411,0.529 -0.811,1.066 -1.2,1.611 -5.762,8.072 -9.167,17.938 -9.167,28.59 0,2.811 0.249,5.564 0.704,8.248 0.13,0.771 0.277,1.539 0.443,2.299 0.182,0.828 0.385,1.648 0.607,2.463 1.232,4.498 3.076,8.744 5.454,12.635 0.359,0.59 0.733,1.17 1.117,1.742 0.386,0.574 0.787,1.139 1.196,1.697 0.922,1.258 1.902,2.471 2.936,3.635 0.565,0.635 1.142,1.256 1.737,1.861 0.546,0.555 1.105,1.096 1.677,1.625 8.801,8.137 20.558,13.123 33.461,13.123 12.431,0 23.794,-4.631 32.479,-12.246 0.501,-0.438 0.991,-0.887 1.474,-1.346 0.494,-0.469 0.978,-0.947 1.453,-1.436 7.221,-7.451 12.113,-17.16 13.507,-27.957 0.108,-0.833 0.195,-1.673 0.26,-2.521 z"
     id="path30"
     inkscape:connector-curvature="0"
     style="fill:url(#SVGID_1_)" /></svg>