<?xml version="1.0" encoding="utf-8"?>
<!-- Generator: Adobe Illustrator 16.0.0, SVG Export Plug-In . SVG Version: 6.00 Build 0)  -->
<!DOCTYPE svg PUBLIC "-//W3C//DTD SVG 1.1//EN" "http://www.w3.org/Graphics/SVG/1.1/DTD/svg11.dtd">
<svg version="1.1" id="Layer_1" xmlns="http://www.w3.org/2000/svg" xmlns:xlink="http://www.w3.org/1999/xlink" x="0px" y="0px"
	 width="693.881px" height="201.209px" viewBox="45.967 278.748 693.881 201.209"
	 enable-background="new 45.967 278.748 693.881 201.209" xml:space="preserve">
<path fill="#302A6E" d="M113.852,347.386L47.45,462.262c-0.52,0.896-0.942,1.85-1.248,2.825l-0.235,0.755l0.332,0.725l5.237,11.374
	l0.34,0.739l0.761,0.307c0.758,0.304,1.499,0.487,2.122,0.625l1.466,0.325l0.757-1.29l4.242-7.224l2.738-4.838l66.963-115.984
	l1.778-3.215H113.852L113.852,347.386z"/>
<polygon fill="#7D65AC" points="154.978,325.963 151.945,346.702 151.945,353.622 212.106,457.822 231.108,457.822 "/>
<path fill="#F1A92F" d="M235.125,465.882c-0.072-0.289-0.165-0.562-0.261-0.839l-0.068-0.197l-0.474-1.397h-1.475L218.95,463.5
	H72.15c-2.536,4.256-6.893,11.6-9.77,16.457h161.088h0.004c1.885-0.004,3.683-0.373,5.35-1.108l0.695-0.301l0.333-0.684
	l5.126-10.604l0.315-0.663L235.125,465.882z"/>
<path fill="#2E3192" d="M113.99,348.197"/>
<polygon fill="#7D65AC" points="169.405,369.974 165.95,366.772 152.583,354.382 151.923,353.771 151.923,352.87 151.923,290.876 
	151.923,288.819 153.98,288.819 167.348,288.819 169.405,288.819 169.405,290.876 169.405,365.261 "/>
<path fill="#2E3192" d="M114.55,350.966"/>
<polygon fill="#7D65AC" points="132.382,313.616 132.382,293.258 121.997,293.258 121.997,301.815 "/>
<polygon fill="#7D65AC" points="107.667,285.601 121.972,301.857 168.341,301.857 168.916,300.739 177.7,285.601 "/>
<path fill="#F1A92F" d="M133.257,440.329c0,0-7.408,5.492-12.58,3.978c0,0,25.562,25.646,52.246,1.014
	c0,0,8.937-10.347,8.516-17.871l-3.5-0.952c0,0-4.879,24.234-30.485,21.233C147.455,447.729,140.973,446.287,133.257,440.329z"/>
<path fill="#302A6E" d="M125.571,406.167c0,0-0.837-9.186,3.155-12.81c0,0-35.211,8.453-28.085,44.066
	c0,0,4.176,13.021,10.816,16.582l2.641-2.487c0,0-18.145-16.79-2.247-37.088C111.85,414.431,116.457,409.649,125.571,406.167z"/>
<path fill="#7D65AC" d="M159.396,416.134c0,0,8.499,3.592,9.824,8.819c0,0,9.12-35.048-25.646-45.53c0,0-13.457-2.446-19.724,1.74
	l0.957,3.5c0,0,23.352-8.099,33.77,15.479C158.578,400.144,160.623,406.455,159.396,416.134z"/>
<path fill="#7D65AC" d="M146.699,403.386c-3.031,3.388-8.229,3.676-11.616,0.65c-3.387-3.028-3.683-8.236-0.653-11.619
	c3.031-3.383,8.231-3.672,11.618-0.65C149.438,394.796,149.723,399.995,146.699,403.386z"/>
<path fill="#302A6E" d="M125.104,436.918c-3.027,3.391-8.226,3.685-11.61,0.654c-3.389-3.033-3.679-8.229-0.649-11.615
	c3.024-3.387,8.226-3.684,11.616-0.65C127.843,428.332,128.131,433.535,125.104,436.918z"/>
<path fill="#F1A92F" d="M164.086,438.513c-3.025,3.384-8.222,3.682-11.607,0.655c-3.391-3.032-3.683-8.232-0.655-11.619
	c3.03-3.388,8.229-3.681,11.619-0.65C166.83,429.928,167.112,435.131,164.086,438.513z"/>
<g>
	<path fill="#302A6E" d="M325.812,368.207c0,20.089-8.929,31.993-29.946,31.993c-7.998,0-17.112-1.116-24.181-2.604v37.388
		l-22.692,3.161v-130.39h18.042l2.232,7.626c7.998-5.766,17.298-9.486,28.645-9.486c18.229,0,27.9,10.788,27.9,31.435V368.207z
		 M271.685,378.438c5.952,1.302,13.578,2.418,20.089,2.418c8.184,0,11.346-3.906,11.346-12.091v-31.992
		c0-7.44-2.79-11.532-11.16-11.532c-7.44,0-15.438,3.72-20.274,8.184L271.685,378.438L271.685,378.438z"/>
	<path fill="#302A6E" d="M358.73,307.755v63.242c0,4.836,2.046,7.254,7.254,7.254c5.58,0,15.438-3.348,23.622-7.626v-62.87H412.3
		v90.584h-17.299l-2.232-7.626c-11.346,5.58-25.668,9.486-36.271,9.486c-15.066,0-20.461-10.603-20.461-26.785v-65.66
		L358.73,307.755L358.73,307.755z"/>
</g>
<g>
	<path fill="#7D65AC" d="M579.503,476.205v-65.853l11.711-1.632v67.483L579.503,476.205L579.503,476.205z"/>
	<path fill="#7D65AC" d="M633.548,476.205h-9.6l-0.863-3.168c-4.224,2.784-9.216,4.128-13.919,4.128
		c-8.544,0-12.191-5.855-12.191-13.919c0-9.503,4.129-13.151,13.632-13.151h11.23v-4.896c0-5.185-1.439-7.008-8.928-7.008
		c-4.224,0-8.831,0.575-12.959,1.439l-1.439-8.928c4.415-1.344,10.848-2.208,16.03-2.208c14.688,0,19.007,5.184,19.007,16.896
		V476.205L633.548,476.205z M621.837,458.542h-8.64c-3.84,0-4.896,1.057-4.896,4.608c0,3.264,1.057,4.702,4.703,4.702
		c3.456,0,6.624-1.15,8.832-2.398L621.837,458.542L621.837,458.542z"/>
	<path fill="#7D65AC" d="M679.915,458.254c0,11.328-3.455,18.911-21.502,18.911c-4.704,0-12.287-0.48-18.144-1.632v-65.18
		l11.711-1.633v22.56c3.456-1.439,8.735-2.784,13.823-2.784c10.079,0,14.11,6.144,14.11,16.031L679.915,458.254L679.915,458.254z
		 M651.981,466.798c2.111,0.288,4.512,0.384,7.008,0.384c7.679,0,9.215-3.07,9.215-8.543V444.24c0-3.743-1.632-5.76-5.951-5.76
		c-3.264,0-7.392,1.344-10.271,2.688L651.981,466.798L651.981,466.798z"/>
	<path fill="#7D65AC" d="M699.692,477.165c-4.992,0-11.809-1.152-16.127-2.688l1.632-8.928c3.936,1.152,9.119,2.017,13.919,2.017
		c5.184,0,5.951-1.151,5.951-4.703c0-2.88-0.576-4.32-8.159-6.145c-11.423-2.784-12.768-5.664-12.768-14.688
		c0-9.407,4.127-13.535,17.472-13.535c4.318,0,9.981,0.576,14.015,1.633l-1.152,9.312c-3.552-0.673-9.215-1.345-12.861-1.345
		c-5.088,0-5.952,1.152-5.952,4.032c0,3.743,0.288,4.031,6.624,5.663c13.055,3.456,14.303,5.184,14.303,14.783
		C716.587,471.598,713.803,477.165,699.692,477.165z"/>
</g>
<path fill="#302A6E" d="M501.961,364.867c0,20.088-8.929,31.993-29.947,31.993c-7.998,0-17.111-1.116-24.181-2.604v37.387
	l-22.692,3.162V304.416h18.043l2.231,7.626c7.998-5.766,17.298-9.486,28.645-9.486c18.229,0,27.901,10.788,27.901,31.435V364.867z
	 M447.833,375.098c5.952,1.302,13.578,2.418,20.089,2.418c8.185,0,11.346-3.906,11.346-12.09v-31.993
	c0-7.44-2.79-11.532-11.159-11.532c-7.439,0-15.438,3.72-20.274,8.184L447.833,375.098L447.833,375.098z"/>
<path fill="#302A6E" d="M589.938,364.867c0,20.088-8.93,31.993-29.946,31.993c-7.998,0-17.113-1.116-24.183-2.604v37.387
	l-22.69,3.162V304.416h18.042l2.23,7.626c7.998-5.766,17.3-9.486,28.646-9.486c18.229,0,27.901,10.788,27.901,31.435V364.867
	L589.938,364.867z M535.809,375.098c5.953,1.302,13.578,2.418,20.09,2.418c8.185,0,11.347-3.906,11.347-12.09v-31.993
	c0-7.44-2.791-11.532-11.16-11.532c-7.44,0-15.438,3.72-20.275,8.184L535.809,375.098L535.809,375.098z"/>
<path fill="#302A6E" d="M641.084,378.26c8.742,0,17.855-1.302,27.715-4.278l3.533,17.112c-10.23,3.906-22.506,5.767-33.295,5.767
	c-28.458,0-38.316-13.207-38.316-34.969v-23.995c0-19.158,8.558-35.341,37.572-35.341c29.019,0,35.527,16.926,35.527,36.457v19.344
	h-50.407v4.65C623.413,373.981,627.319,378.26,641.084,378.26z M623.413,340.128h28.831v-4.464c0-8.556-2.604-14.508-13.766-14.508
	c-11.159,0-15.065,5.952-15.065,14.508V340.128z"/>
<path fill="#302A6E" d="M738.732,393.326c-4.836,2.046-14.138,3.534-19.902,3.534c-16.555,0-24.925-7.812-24.925-23.995v-50.407
	h-13.579v-18.042h13.579V281.91l22.691-3.162v25.668h23.251l-1.487,18.042h-21.764v47.431c0,4.836,2.232,7.999,8.186,7.999
	c3.348,0,7.438-0.744,11.346-1.86L738.732,393.326z"/>
<g>
	<path fill="#302A6E" d="M729.903,408.722c6.133,0,9.944,4.477,9.944,9.999c0,5.525-3.812,10.001-9.944,10.001
		c-6.132,0-10-4.476-10-10.001C719.903,413.197,723.771,408.722,729.903,408.722z M729.903,426.512c5.027,0,7.624-3.536,7.624-7.791
		c0-4.253-2.597-7.789-7.624-7.789c-5.083,0-7.681,3.536-7.681,7.789C722.224,422.976,724.82,426.512,729.903,426.512z
		 M730.235,420.047h-1.88v3.039h-1.547v-9.172h3.592c2.045,0,2.873,0.884,2.873,2.433v1.271c0,0.883-0.275,1.603-1.325,2.153
		l2.431,3.314H732.5L730.235,420.047z M730.346,415.351h-1.989v3.261h1.989c0.994,0,1.326-0.388,1.326-1.051v-1.104
		C731.672,415.571,731.285,415.351,730.346,415.351z"/>
</g>
</svg>
