<svg width="119" height="19" viewBox="0 0 119 19" fill="none" xmlns="http://www.w3.org/2000/svg" xmlns:xlink="http://www.w3.org/1999/xlink">
<path d="M118.327 16.9872H118.696L118.56 16.6447L112.589 1.65261L112.526 1.49512H112.356H109.082H108.832V1.69713L102.776 16.6433L102.637 16.9872H103.008H106.182H106.354L106.415 16.8258L107.771 13.2474H113.334L114.697 16.8262L114.758 16.9872H114.93H118.327ZM108.887 10.2501L110.557 5.89986L112.223 10.2501H108.887Z" fill="#FEFEFE" stroke="#10172E" stroke-width="0.5"/>
<path d="M99.7273 1.80908V1.55908H99.4773H86.4434H86.1934V1.80908V4.4016V4.6516H86.4434H91.0797V16.7382V16.9882H91.3297H94.5909H94.8409V16.7382V4.6516H99.4773H99.7273V4.4016V1.80908Z" fill="#FEFEFE" stroke="#10172E" stroke-width="0.5"/>
<path d="M82.2119 14.1425V13.8925H81.9619H75.9595V1.80957V1.55957H75.7095H72.4526H72.2026V1.80957V16.7373V16.9873H72.4526H81.9619H82.2119V16.7373V14.1425Z" fill="#FEFEFE" stroke="#10172E" stroke-width="0.5"/>
<path d="M63.4822 13.8934H56.5348V10.5159H62.4517H62.7017V10.2659V7.67416V7.42416H62.4517H56.5348V4.65148H63.2558H63.5058V4.40148V1.80896V1.55896H63.2558H53.0386H52.7886V1.80896V16.7374V16.9874H53.0386H63.4822H63.7322V16.7374V14.1434V13.8934H63.4822Z" fill="#FEFEFE" stroke="#10172E" stroke-width="0.5"/>
<path d="M31.4683 16.7372V16.9872H31.7183H36.8496C39.5274 16.9872 41.6973 16.2744 43.201 14.9389C44.7084 13.6001 45.5171 11.6612 45.5171 9.2723C45.5171 6.88343 44.7084 4.94483 43.2009 3.60637C41.6973 2.2713 39.5274 1.55884 36.8496 1.55884H31.7183H31.4683V1.80884V16.7372ZM35.2114 4.65137H36.8459C38.5179 4.65137 39.7291 5.07498 40.5226 5.84081C41.3145 6.60521 41.7294 7.74858 41.7294 9.27232C41.7294 10.7949 41.3145 11.9383 40.5225 12.703C39.7291 13.4691 38.5178 13.8932 36.8459 13.8932H35.2114V4.65137Z" fill="#FEFEFE" stroke="#10172E" stroke-width="0.5"/>
<path d="M11.5451 13.5689L11.457 13.4883L11.4083 13.5095L11.1587 13.401V13.6179L-0.099625 18.5095L0 18.9888H11.4087H17.3598H22.8166L22.9162 18.5095L11.5451 13.5689Z" fill="#FEFEFE" stroke="#10172E" stroke-width="0.5"/>
<path d="M0.947267 16.9621L11.3814 11.7727L21.8672 16.9624L22.6644 17.3569L22.1895 16.6048L11.6463 -0.0915403L11.5503 -0.69391L11.4081 -0.468751L11.1584 -0.864133V-0.0734467L0.624567 16.6048L0.147708 17.3598L0.947267 16.9621Z" fill="#FEFEFE" stroke="#10172E" stroke-width="0.5"/>
</svg>
