<?xml version="1.0" encoding="UTF-8"?>
<svg width="64px" height="64px" viewBox="0 0 64 64" version="1.1" xmlns="http://www.w3.org/2000/svg" xmlns:xlink="http://www.w3.org/1999/xlink">
    <!-- Generator: Sketch 47.1 (45422) - http://www.bohemiancoding.com/sketch -->
    <title>H2O_Logo_2017</title>
    <desc>Created with Sketch.</desc>
    <defs/>
    <g id="Page-1-Copy" stroke="none" stroke-width="1" fill="none" fill-rule="evenodd">
        <g id="H2O_Logo_2017">
            <polygon id="Fill-1" fill="#FFE52B" points="0 64 64 64 64 0 0 0"/>
            <path d="M55.846,22.3953556 C55.258,22.3953556 54.7646667,22.8866889 54.7646667,23.4722444 C54.7646667,24.0769111 55.258,24.5493556 55.846,24.5493556 C56.434,24.5493556 56.9273333,24.0769111 56.9273333,23.4722444 C56.9273333,22.8866889 56.434,22.3953556 55.846,22.3953556 L55.846,22.3953556 Z M55.0873333,35.6971333 L56.6048889,35.6971333 L56.6048889,26.8166889 L55.0873333,26.8166889 L55.0873333,35.6971333 Z M47.5564444,27.9691333 C49.4344444,27.9691333 50.5535556,29.4051333 50.5535556,31.1813556 C50.5535556,32.9762444 49.5291111,34.5444667 47.5753333,34.5444667 C45.6784444,34.5444667 44.654,32.9006889 44.654,31.1624667 C44.654,29.4995778 45.7922222,27.9691333 47.5564444,27.9691333 L47.5564444,27.9691333 Z M51.9951111,26.8166889 L50.4775556,26.8166889 L50.4775556,28.0826889 L50.4397778,28.0826889 C49.7,27.1378 48.5997778,26.5711333 47.3855556,26.5711333 C44.7108889,26.5711333 43.0984444,28.7438 43.0984444,31.2758 C43.0984444,33.7320222 44.7488889,35.9426889 47.3666667,35.9426889 C48.6186667,35.9426889 49.662,35.4513556 50.4397778,34.4689111 L50.4775556,34.4689111 L50.4775556,35.6971333 L51.9951111,35.6971333 L51.9951111,26.8166889 Z M40.5277778,33.8264667 C39.9395556,33.8264667 39.4653333,34.2989111 39.4653333,34.8658 C39.4653333,35.4513556 39.9395556,35.9426889 40.5277778,35.9426889 C41.1157778,35.9426889 41.59,35.4513556 41.59,34.8658 C41.59,34.2989111 41.1157778,33.8264667 40.5277778,33.8264667 L40.5277778,33.8264667 Z" id="Fill-2" fill="#808080"/>
            <polygon id="Fill-4" fill="#000000" points="9.99384444 28.8913111 9.99384444 24.4057556 6.99028889 24.4057556 6.99028889 36.0279778 9.99384444 36.0279778 9.99384444 31.2650889 14.3307333 31.2650889 14.3307333 36.0279778 17.3342889 36.0279778 17.3342889 24.4057556 14.3307333 24.4057556 14.3307333 28.8913111"/>
            <g id="Group-9" transform="translate(18.826667, 24.000000)" fill="#231F20">
                <path d="M3.97184444,15.6741333 L5.26273333,14.4643556 C6.11251111,13.6874667 6.60895556,12.9881333 6.60895556,11.7896889 C6.60895556,9.96946667 5.1414,8.81502222 3.39806667,8.81502222 C1.43406667,8.81502222 0.220288889,10.1136889 0.154066667,12.0336889 L2.5374,12.0336889 C2.5154,11.9116889 2.50428889,11.7896889 2.50428889,11.6785778 C2.50428889,11.1125778 2.82428889,10.6574667 3.40917778,10.6574667 C3.98295556,10.6574667 4.35806667,11.2123556 4.35806667,11.7452444 C4.35806667,12.5110222 3.89451111,13.2656889 3.40917778,13.7983556 L0.0105111111,17.5165778 L6.69717778,17.5165778 L6.69717778,15.6741333 L3.97184444,15.6741333" id="Fill-5"/>
                <path d="M13.4017333,2.94913333 C15.1946222,2.94913333 16.6657333,4.41357778 16.6657333,6.01646667 C16.6657333,8.02046667 15.1946222,9.48468889 13.4017333,9.48468889 C11.6088444,9.48468889 10.1377333,8.02046667 10.1377333,6.01646667 C10.1377333,4.41357778 11.6088444,2.94913333 13.4017333,2.94913333 M13.4017333,0.0204666667 C10.0764,0.0204666667 7.01151111,2.48668889 7.01151111,6.00113333 C7.01151111,9.76224444 9.69328889,12.4133556 13.4017333,12.4133556 C17.1101778,12.4133556 19.7919556,9.76224444 19.7919556,6.00113333 C19.7919556,2.48668889 16.7270667,0.0204666667 13.4017333,0.0204666667" id="Fill-7"/>
            </g>
        </g>
    </g>
</svg>