<svg viewBox="0 0 642 398" xmlns="http://www.w3.org/2000/svg" xmlns:xlink="http://www.w3.org/1999/xlink"><defs><path id="a" d="m10.5 209.5c-15.5-9.1-13.5-25 4.5-35.5l245.4-143.3c18-10.5 45.2-11.7 60.8-2.5l254.2 148.3c15.6 9.1 13.7 25-4.3 35.5l-245.5 143.3c-18 10.5-45.3 11.7-60.9 2.5z"/><path id="b" d="m391.7 110.1a68.8 68.8 0 0 1 -7.1 24.4 86.6 86.6 0 0 1 -5 8.8l-1.4 2-2.8 3.8-1.2 1.7-5 6-1.5 1.4a120 120 0 0 1 -4.4 4.4l-2.2 2a138.6 138.6 0 0 1 -11.5 9.3l-3.3 2.3c-1 .7-2 1.5-3.1 2.1l-3.6 2.3-4.5 2.8a201 201 0 0 1 -29.4 14l-1.7.7c-4.5 1.7-9.3 3.3-14 4.8l-10.1 2.9-7.7 2c-3.6.9-7.2 1.6-10.9 2.4l-7.9 1.6-3.3.5c-4.5.7-9 1.4-13.6 1.9l-4 .5c-5.2.5-10.5 1-15.9 1.3l-2.9.2-10.8.3a331.2 331.2 0 0 1 -67.6-5.7l-10.8-2.1-2.5-.6c-5-1.2-10-2.5-14.8-4l-4.1-1.3c-4-1.2-8-2.6-12-4l-3.3-1.3c-3.6-1.4-7-2.9-10.5-4.4l-5-2.2a203 203 0 0 1 -14.4-7.5c-38.6-22.3-57.9-51.6-57.8-80.8l-.1 22.4c0 29.2 19.2 58.5 57.9 80.8 4.6 2.7 9.4 5.2 14.3 7.5l5.1 2.2 8.8 3.8 1.6.6 3.4 1.3a253 253 0 0 0 12 4l4 1.3 2.8.9 12 3 2.6.7 5.9 1.3 4.8.8 10.4 1.8 4.2.8 4.6.5c3.2.4 6.5.8 9.8 1 1.5.2 3 .5 4.6.6l4.4.2c3.3.3 6.6.4 10 .6l5 .2h20c1.8-.1 3.6-.3 5.5-.3l2.9-.2 13.3-1 2.6-.3 4-.5c4.5-.5 9-1.2 13.5-2l3.4-.4 1.5-.3c2.2-.4 4.2-1 6.4-1.3l10.8-2.4 7.7-2c3.4-1 6.8-1.9 10.1-3l2.2-.5 11.9-4.2 1.6-.7a224.2 224.2 0 0 0 31.8-15.4l2.2-1.4 3.5-2.2 3.1-2.2a151.8 151.8 0 0 0 14.9-11.6l1.1-1 1-1 4.4-4.4 1.5-1.5c1.8-2 3.5-4 5-6 .1 0 .2 0 .3-.2l1-1.4 2.8-3.8 1.3-2 2.2-3.5.6-1 .7-1.4a92.3 92.3 0 0 0 4-8.4c0-.4.3-.9.5-1.3l.4-1.2a68.2 68.2 0 0 0 2.4-8.3l.3-1.6.2-1a75.2 75.2 0 0 0 1-8.5l.1-1.7v-1.7l.1-22.5-.1 3.4-.2 3z"/><path id="c" d="m334.2 33.3c-76.8-44.4-201-44.4-277.2 0-76.3 44.3-75.9 116.1 1 160.5 76.7 44.3 200.8 44.3 277 0 76.4-44.4 76-116.2-.8-160.5"/><path id="d" d="m62.2 31.5c4.3-2.5 10.7-2.7 14.4-.6l16 9.4h47.2v10.2c-.4 1.3-1.8 2.6-4.2 3.8l-58 33.8c-4.2 2.5-10.7 2.7-14.4.6l-60-35c-1.8-1-2.7-1.9-3-3.9-.3-1.3-.3-4.5 0-9.6h47z"/><path id="e" d="m33 7.3h-.2-.1-.1l-.3.1-.4.2v8.8l.3-.2h.8l33.2 5.8v-8.8z"/><path id="f" d="m0 17.3.1-8.9 11.2 6.4 12-14.5-.1 8.8-12 14.5-11.1-6.3z"/><path id="g" d="m14 25.2v-8.8l7.5 4.3 1.7-2.2 8.7-11v8.9l-8.8 11-1.7 2z"/><path id="h" d="m68.1 20.8-26.9-4.7h-.2-.1-.3-.2v8.9l.2-.1a1.6 1.6 0 0 1 .3 0 1 1 0 0 1 .2 0l27 4.8z"/><path id="i" d="m24.3 31v-8.7l7.7 4.4 8.4-10.5v8.8l-8.4 10.5z"/><path id="j" d="m0 16v9l13.7-16v-9z"/><path id="k" d="m57.7 40a.8.8 0 0 1 -.3 0l-3.4-.7-19.2-11v8.7l19.2 11 3.4.7h.1a.8.8 0 0 0 .1 0l.5-.1v-8.8c0 .1-.2.2-.4.1"/><path id="l" d="m62.2 31.5c4.3-2.5 10.7-2.7 14.4-.6l16 9.4h47.2v10.2c-.4 1.3-1.8 2.6-4.2 3.8l-58 33.8c-4.2 2.5-10.7 2.7-14.4.6l-60-35c-1.8-1-2.7-1.9-3-3.9-.3-1.3-.3-4.5 0-9.6h47z"/><linearGradient id="m" x1=".8%" x2="99.2%" y1="33.4%" y2="66.5%"><stop offset="0" stop-color="#3db1d4" stop-opacity=".5"/><stop offset="1" stop-color="#3933f1" stop-opacity=".5"/></linearGradient><linearGradient id="n" x1="0%" x2="100%" y1="33.2%" y2="65.8%"><stop offset="0" stop-color="#f4cbff"/><stop offset="1" stop-color="#ffe8e8"/></linearGradient><linearGradient id="o" x1="50%" x2="50%" y1="0%" y2="100%"><stop offset="0" stop-color="#7b89ff"/><stop offset=".574" stop-color="#d97bea"/><stop offset="1" stop-color="#23a1fe"/></linearGradient><linearGradient id="p"><stop offset="0" stop-color="#7257c6"/><stop offset=".446" stop-color="#887adc"/><stop offset="1" stop-color="#a176c7"/></linearGradient><linearGradient id="q" x1="9%" x2="102.3%" xlink:href="#p" y1="42.4%" y2="55.9%"/><linearGradient id="r"><stop offset="0" stop-color="#a176c7"/><stop offset="1" stop-color="#7161d0"/></linearGradient><linearGradient id="s" x1="9.7%" x2="101.4%" xlink:href="#r" y1="9%" y2="82.1%"/><linearGradient id="t"><stop offset="0" stop-color="#ffe2ed"/><stop offset=".727" stop-color="#c99dff"/><stop offset="1" stop-color="#b7a0ff"/></linearGradient><linearGradient id="u" x1="8%" x2="94%" xlink:href="#t" y1="29.6%" y2="63.6%"/><linearGradient id="v" x1="8%" x2="94%" xlink:href="#t" y1="43.8%" y2="54.2%"/><linearGradient id="w" x1="22.7%" x2="84.8%" xlink:href="#r" y1="9%" y2="82.1%"/><linearGradient id="x" x1="9%" x2="102.3%" xlink:href="#p" y1="40.1%" y2="57.8%"/><linearGradient id="y" x1="21.3%" x2="86.6%" xlink:href="#r" y1="9%" y2="82.1%"/><linearGradient id="z" x1="8%" x2="94%" xlink:href="#t" y1="43.7%" y2="54.2%"/><linearGradient id="A" x1="37.5%" x2="65.9%" y1="9%" y2="82.1%"><stop offset="0" stop-color="#8aadf4"/><stop offset=".446" stop-color="#887adc"/><stop offset="1" stop-color="#a176c7"/></linearGradient><linearGradient id="B" x1="8%" x2="94%" xlink:href="#t" y1="33.1%" y2="61.2%"/><linearGradient id="C" x1="9%" x2="102.3%" xlink:href="#r" y1="18.2%" y2="74.8%"/><linearGradient id="D" x1="23.5%" x2="99.8%" y1="38.2%" y2="69%"><stop offset="0" stop-color="#80b3ff"/><stop offset="1" stop-color="#6282ff"/></linearGradient><linearGradient id="E" x1="9.1%" x2="100%" y1="48.1%" y2="60.1%"><stop offset="0" stop-color="#82c3ff"/><stop offset="1" stop-color="#5a71ff"/></linearGradient><linearGradient id="F"><stop offset="0" stop-color="#4e72b5"/><stop offset="1" stop-color="#707ed7"/></linearGradient><linearGradient id="G" x1="42.2%" x2="59.5%" xlink:href="#F" y1="35%" y2="130.1%"/><linearGradient id="H" x1="9.1%" x2="100%" xlink:href="#F" y1="35.2%" y2="128.9%"/><linearGradient id="I" x1="38.9%" x2="63.5%" xlink:href="#F" y1="35%" y2="130.1%"/><linearGradient id="J" x1="39.6%" x2="62.8%" xlink:href="#F" y1="35%" y2="130.1%"/><linearGradient id="K" x1="27.5%" x2="77.5%" xlink:href="#F" y1="35%" y2="130.1%"/><linearGradient id="L" x1="15.6%" x2="92.1%" xlink:href="#F" y1="35%" y2="130.1%"/><linearGradient id="M" x1="9.1%" x2="100%" xlink:href="#F" y1="38%" y2="113.8%"/><linearGradient id="N"><stop offset="0" stop-color="#6fa1fe"/><stop offset="1" stop-color="#707ed7"/></linearGradient><linearGradient id="O" x1="9.1%" x2="100%" xlink:href="#N" y1="35.9%" y2="125.2%"/><linearGradient id="P" x1="16.9%" x2="90.5%" xlink:href="#F" y1="35%" y2="130.1%"/><linearGradient id="Q" x1="22.9%" x2="83.2%" xlink:href="#N" y1="35%" y2="130.1%"/><linearGradient id="R" x1="39%" x2="63.5%" xlink:href="#F" y1="35%" y2="130.1%"/><linearGradient id="S" x1="29.9%" x2="74.6%" xlink:href="#F" y1="35%" y2="130.1%"/><linearGradient id="T" x1="9.1%" x2="100%" xlink:href="#F" y1="46.2%" y2="70.2%"/><linearGradient id="U" x1="23.4%" x2="99.4%" y1="33.6%" y2="76.2%"><stop offset="0" stop-color="#f8f7ff"/><stop offset="1" stop-color="#1ba7ff"/></linearGradient><linearGradient id="V" x1="23.4%" x2="100%" y1="33.6%" y2="76.5%"><stop offset="0" stop-color="#bed8ff"/><stop offset="1" stop-color="#8cb4f1"/></linearGradient><linearGradient id="W"><stop offset="0" stop-color="#deeaff"/><stop offset="1" stop-color="#f7e2ff"/></linearGradient><linearGradient id="X" x1="42%" x2="58%" xlink:href="#W" y1="0%" y2="97%"/><linearGradient id="Y" x1="0%" x2="100%" xlink:href="#W" y1="36.5%" y2="62.7%"/><linearGradient id="Z" x1="34.5%" x2="65.5%" xlink:href="#W" y1="0%" y2="97%"/><linearGradient id="aa" x1="35.7%" x2="64.3%" xlink:href="#W" y1="0%" y2="97%"/><linearGradient id="ab" x1="0%" x2="100%" xlink:href="#W" y1="36.9%" y2="62.4%"/><linearGradient id="ac" x1="41.2%" x2="58.8%" xlink:href="#W" y1="0%" y2="97%"/><filter id="ad" height="124.6%" width="114.4%" x="-7.2%" y="-10.9%"><feMorphology in="SourceAlpha" operator="dilate" radius="3.6" result="shadowSpreadOuter1"/><feOffset dy="5" in="shadowSpreadOuter1" result="shadowOffsetOuter1"/><feGaussianBlur in="shadowOffsetOuter1" result="shadowBlurOuter1" stdDeviation="12"/><feComposite in="shadowBlurOuter1" in2="SourceAlpha" operator="out" result="shadowBlurOuter1"/><feColorMatrix in="shadowBlurOuter1" values="0 0 0 0 0.138812586 0 0 0 0 0.269740709 0 0 0 0 0.453040082 0 0 0 0.160429414 0"/></filter><filter id="ae" height="119.1%" width="111.1%" x="-5.6%" y="-8.1%"><feOffset dx="7" dy="-10" in="SourceAlpha" result="shadowOffsetInner1"/><feComposite in="shadowOffsetInner1" in2="SourceAlpha" k2="-1" k3="1" operator="arithmetic" result="shadowInnerInner1"/><feColorMatrix in="shadowInnerInner1" result="shadowMatrixInner1" values="0 0 0 0 0.351813631 0 0 0 0 0.379419421 0 0 0 0 0.887652853 0 0 0 0.5 0"/><feOffset dx="-6" dy="9" in="SourceAlpha" result="shadowOffsetInner2"/><feComposite in="shadowOffsetInner2" in2="SourceAlpha" k2="-1" k3="1" operator="arithmetic" result="shadowInnerInner2"/><feColorMatrix in="shadowInnerInner2" result="shadowMatrixInner2" values="0 0 0 0 0.183008382 0 0 0 0 0.754064799 0 0 0 0 0.923488451 0 0 0 0.5 0"/><feMerge><feMergeNode in="shadowMatrixInner1"/><feMergeNode in="shadowMatrixInner2"/></feMerge></filter><filter id="af" height="233.7%" width="158%" x="-29%" y="-63.5%"><feMorphology in="SourceAlpha" operator="dilate" radius=".6" result="shadowSpreadOuter1"/><feOffset dy="2" in="shadowSpreadOuter1" result="shadowOffsetOuter1"/><feGaussianBlur in="shadowOffsetOuter1" result="shadowBlurOuter1" stdDeviation="13"/><feComposite in="shadowBlurOuter1" in2="SourceAlpha" operator="out" result="shadowBlurOuter1"/><feColorMatrix in="shadowBlurOuter1" values="0 0 0 0 0.240838068 0 0 0 0 0.173897187 0 0 0 0 0.411401721 0 0 0 0.59650896 0"/></filter><filter id="ag" height="228.9%" width="155.4%" x="-27.7%" y="-37.3%"><feOffset dy="4" in="SourceAlpha" result="shadowOffsetOuter1"/><feGaussianBlur in="shadowOffsetOuter1" result="shadowBlurOuter1" stdDeviation="2.5"/><feColorMatrix in="shadowBlurOuter1" values="0 0 0 0 0.134046184 0 0 0 0 0.222129666 0 0 0 0 0.813547328 0 0 0 0.138904065 0"/></filter><filter id="ah" height="181.5%" width="182.1%" x="-41.1%" y="-23.6%"><feOffset dy="4" in="SourceAlpha" result="shadowOffsetOuter1"/><feGaussianBlur in="shadowOffsetOuter1" result="shadowBlurOuter1" stdDeviation="2.5"/><feColorMatrix in="shadowBlurOuter1" values="0 0 0 0 0.134046184 0 0 0 0 0.222129666 0 0 0 0 0.813547328 0 0 0 0.138904065 0"/></filter><filter id="ai" height="186.8%" width="206.3%" x="-53.1%" y="-25.1%"><feOffset dy="4" in="SourceAlpha" result="shadowOffsetOuter1"/><feGaussianBlur in="shadowOffsetOuter1" result="shadowBlurOuter1" stdDeviation="2.5"/><feColorMatrix in="shadowBlurOuter1" values="0 0 0 0 0.134046184 0 0 0 0 0.222129666 0 0 0 0 0.813547328 0 0 0 0.138904065 0"/></filter><filter id="aj" height="239.4%" width="168.6%" x="-34.3%" y="-40.4%"><feOffset dy="4" in="SourceAlpha" result="shadowOffsetOuter1"/><feGaussianBlur in="shadowOffsetOuter1" result="shadowBlurOuter1" stdDeviation="2.5"/><feColorMatrix in="shadowBlurOuter1" values="0 0 0 0 0.134046184 0 0 0 0 0.222129666 0 0 0 0 0.813547328 0 0 0 0.138904065 0"/></filter><filter id="ak" height="198.2%" width="217.4%" x="-58.7%" y="-28.4%"><feOffset dy="4" in="SourceAlpha" result="shadowOffsetOuter1"/><feGaussianBlur in="shadowOffsetOuter1" result="shadowBlurOuter1" stdDeviation="2.5"/><feColorMatrix in="shadowBlurOuter1" values="0 0 0 0 0.134046184 0 0 0 0 0.222129666 0 0 0 0 0.813547328 0 0 0 0.138904065 0"/></filter><filter id="al" height="176.4%" width="238.7%" x="-69.3%" y="-22.1%"><feOffset dy="4" in="SourceAlpha" result="shadowOffsetOuter1"/><feGaussianBlur in="shadowOffsetOuter1" result="shadowBlurOuter1" stdDeviation="2.5"/><feColorMatrix in="shadowBlurOuter1" values="0 0 0 0 0.134046184 0 0 0 0 0.222129666 0 0 0 0 0.813547328 0 0 0 0.138904065 0"/></filter><filter id="am" height="192.3%" width="181.3%" x="-40.6%" y="-26.7%"><feOffset dy="4" in="SourceAlpha" result="shadowOffsetOuter1"/><feGaussianBlur in="shadowOffsetOuter1" result="shadowBlurOuter1" stdDeviation="2.5"/><feColorMatrix in="shadowBlurOuter1" values="0 0 0 0 0.134046184 0 0 0 0 0.222129666 0 0 0 0 0.813547328 0 0 0 0.138904065 0"/></filter><filter id="an" height="233.7%" width="158%" x="-29%" y="-63.5%"><feMorphology in="SourceAlpha" operator="dilate" radius=".6" result="shadowSpreadOuter1"/><feOffset dy="2" in="shadowSpreadOuter1" result="shadowOffsetOuter1"/><feGaussianBlur in="shadowOffsetOuter1" result="shadowBlurOuter1" stdDeviation="13"/><feComposite in="shadowBlurOuter1" in2="SourceAlpha" operator="out" result="shadowBlurOuter1"/><feColorMatrix in="shadowBlurOuter1" values="0 0 0 0 0.240838068 0 0 0 0 0.173897187 0 0 0 0 0.411401721 0 0 0 0.59650896 0"/></filter><pattern id="ao" height="6.5" patternUnits="userSpaceOnUse" width="6.5" x="-6.5" y="15.5"/><pattern id="ap" height="129.9" patternUnits="userSpaceOnUse" width="129.9" x="-129.9" y="-27.3"/><mask id="aq" fill="#fff"><use fill="#fff" fill-rule="evenodd" xlink:href="#c"/></mask><mask id="ar" fill="#fff"><path d="m.2 9.8v-9.7-.1" fill="#fff" fill-rule="evenodd"/></mask><mask id="as" fill="#fff"><path d="m.2 9.8.2-9.6-.2-.2" fill="#fff" fill-rule="evenodd"/></mask><mask id="at" fill="#fff"><path d="m0 0h23.2v14.8h-23.2z" fill="#fff" fill-rule="evenodd"/></mask><mask id="au" fill="#fff"><path d="m0 0h13.7v24.9h-13.7z" fill="#fff" fill-rule="evenodd"/></mask><mask id="av" fill="#fff"><path d="m0 0h37v21.5h-37z" fill="#fff" fill-rule="evenodd"/></mask><mask id="aw" fill="#fff"><path d="m.3 1v7.7c0-.3 0-.6-.2-1v-7.7" fill="#fff" fill-rule="evenodd"/></mask><mask id="ax" fill="#fff"><path d="m.2 7.7v-7.7z" fill="#fff" fill-rule="evenodd"/></mask><mask id="ay" fill="#fff"><path d="m0 0h75.2v26.8h-75.2z" fill="#fff" fill-rule="evenodd"/></mask><mask id="az" fill="#fff"><path d="m.4 1.3v7l.1-.7v-.6-7 1.3" fill="#fff" fill-rule="evenodd"/></mask><mask id="aA" fill="#fff"><path d="m.4 1.3v7l.1-.7v-.6-7 1.3" fill="#fff" fill-rule="evenodd"/></mask><mask id="aB" fill="#fff"><path d="m.4 1.3v7l.1-.7v-.6-7 1.3" fill="#fff" fill-rule="evenodd"/></mask><mask id="aC" fill="#fff"><path d="m.5 1v6.8c.2-.2 0-.7 0-1v-6.8z" fill="#fff" fill-rule="evenodd"/></mask><mask id="aD" fill="#fff"><path d="m.5 1v6.8c.2-.2 0-.7 0-1v-6.8z" fill="#fff" fill-rule="evenodd"/></mask><mask id="aE" fill="#fff"><path d="m.4 1.2v-1.2z" fill="#fff" fill-rule="evenodd"/></mask><mask id="aF" fill="#fff"><path d="m0 1v6.7c0 1 .2 2 .7 3v-1.4-4.8-1.5c0-.3-.2-.5-.3-.7-.3-.7-.4-1.5-.4-2.3z" fill="#fff" fill-rule="evenodd"/></mask><mask id="aG" fill="#fff"><path d="m.4 1.1v6.9l.2-.5v-.5-7c-.5.2-.2.8-.2 1.1" fill="#fff" fill-rule="evenodd"/></mask><mask id="aH" fill="#fff"><path d="m.4 1.1v6.9l.2-.5v-.5-7c-.5.2-.2.8-.2 1.1" fill="#fff" fill-rule="evenodd"/></mask><mask id="aI" fill="#fff"><path d="m.4 1.1v6.9l.2-.5v-.5-7c-.5.2-.2.8-.2 1.1" fill="#fff" fill-rule="evenodd"/></mask><mask id="aJ" fill="#fff"><path d="m.4 1.1v6.9l.2-.5v-.5-7c-.5.2-.2.8-.2 1.1" fill="#fff" fill-rule="evenodd"/></mask><mask id="aK" fill="#fff"><path d="m0 0h63.7v158.7h-63.7z" fill="#fff" fill-rule="evenodd"/></mask></defs><g fill="none" fill-rule="evenodd"><g transform="translate(28 1)"><use fill="#000" filter="url(#ad)" xlink:href="#a"/><use fill="url(#ao)" fill-opacity=".4" xlink:href="#a"/><use fill="#000" filter="url(#ae)" xlink:href="#a"/><path d="m291.6 20.3a57.2 57.2 0 0 1 30.5 6.3l254.2 148.3c4.2 2.5 7.1 5.3 9 8.4 2 3.4 2.8 7 2.4 10.7-.9 6.8-6 14-15.7 19.6l-245.5 143.3a71.1 71.1 0 0 1 -32.2 8.8 57.2 57.2 0 0 1 -30.5-6.3l-254.2-148.4a24.8 24.8 0 0 1 -9-8.3c-2-3.4-2.7-7-2.3-10.7.9-6.8 6-14 15.7-19.6l245.4-143.4a71.2 71.2 0 0 1 32.2-8.8z" stroke="url(#m)" stroke-width="3.6"/></g><g transform="translate(129.8 72.7)"><use fill="#544e99" fill-opacity=".5" xlink:href="#b"/><use fill="url(#ap)" fill-opacity=".2" xlink:href="#b"/><use fill="url(#n)" xlink:href="#c"/><g mask="url(#aq)" opacity=".4"><path d="m548.4.5c-.9.5-1.1 1.3-.7 1.9l-65.8 38v47.9l-16 9.2v52.1l-63 38-8.6-4.9 50.4-30.8v-28.5l-.2-.1-48.2-27.8v-9.7l27.3-15.7c1.2.5 2.8.4 3.9-.2s1.1-1.7 0-2.4c-1.2-.7-3.1-.7-4.3 0-1 .6-1.1 1.5-.3 2.2l-27.2 15.7v10.6h.1l48.2 27.9v27.7l-50.4 30.9-3.4-13v-20.8l21.6-12.4v-14.3l-.2-.1-45.5-26.2c.9-.7.8-1.7-.3-2.3-1.1-.7-3-.7-4.2 0s-1.2 1.8 0 2.5c1 .6 2.7.6 3.9.1l45.6 26.4v13.5l-21 12-.6 21.2-8-4.7-13.3 7.7-12-7v-16.7l-.2-.1-31.7-18.3v-16c.6 0 1.3-.2 1.8-.5 1.2-.6 1.2-1.7 0-2.4s-3.1-.7-4.3 0-1.2 1.8 0 2.4c.5.3 1.2.5 1.8.5v16.3h.2l31.7 18.3v16l-51.5-29.6v-31.5l28-16.2h25.7l44.2-25.5c1.2.5 2.8.5 3.9-.1 1.1-.7 1.1-1.8 0-2.5-1.2-.7-3.1-.7-4.3 0-1 .6-1.1 1.6-.3 2.3l-43.7 25.1h-24.5l81-46.7c1.3.5 3 .5 4-.1 1.1-.7 1.1-1.8 0-2.5-1.2-.7-3.1-.7-4.3 0-1 .6-1.1 1.6-.3 2.3l-110.2 63.4v32.3h.2l64.1 37-12.9 7.5-109.5-63.1v-37.7h-.2l-37.3-21.6c.9-.6.8-1.6-.3-2.2-1.1-.7-3-.7-4.2 0s-1.2 1.8 0 2.5c1 .6 2.7.6 3.9.1l37.4 21.6v37.7h.2l109.3 63.1-12.3 7-108.3-62.2h-64.6l-40.4-23.3v-35.9c.4 0 .8-.2 1.2-.4 1.2-.7 1.2-1.8 0-2.4-1.2-.7-3-.7-4.3 0-1.1.6-1.1 1.7 0 2.4.7.4 1.6.6 2.4.5v36l.2.2 40.7 23.4h64.6l91.5 52.7h-18.4l-31.2-18h-24.2l-47 33a4.8 4.8 0 0 0 -4 .2c-1.1.7-1.1 1.8 0 2.5 1.2.7 3.1.7 4.3 0 1-.6 1.2-1.6.3-2.3l46.7-32.7h23.7l31.2 18h19.7l15.3 8.8-32.9 18.9-9.3-5.4v-14.1l-23.7-13.7c.9-.6.8-1.6-.3-2.2-1.2-.7-3-.7-4.2 0s-1.2 1.8 0 2.4c1 .7 2.7.7 3.8.2l23.7 13.7v13.3l-25.1-14.5h-12l-14.4 8.2a4.8 4.8 0 0 0 -3.8.2c-1.2.7-1.2 1.8 0 2.4 1.1.7 3 .7 4.2 0 1-.6 1.2-1.5.3-2.2l13.9-8h11.6l34.8 20-6.3 3.7 20.1 11.6-9.4 5.5h-14.3l-10.2-6c.8-.6.7-1.5-.4-2.1-1.1-.7-3-.7-4.2 0s-1.2 1.8 0 2.4c1 .7 2.7.7 4 .2l10.6 6.2h13.3l-24 13.8-56.7-32.6h-41.1l-23 13.3a4.8 4.8 0 0 0 -3.8.1c-1.2.7-1.2 1.8 0 2.5 1.1.7 3 .7 4.2 0 1-.6 1.2-1.6.3-2.3l22.6-13h40.4l43.7 25.2h-18.7l-18.2-10.4c.8-.7.7-1.6-.3-2.2-1.2-.7-3-.7-4.3 0-1.1.6-1.1 1.7 0 2.4 1 .6 2.7.7 4 .2l18.7 10.8h20l11.4 6.5-28.8 16.6h-92l-71.4-41.3c.8-.6.7-1.6-.3-2.2-1.2-.7-3-.7-4.3 0-1.1.7-1.1 1.8 0 2.5 1 .6 2.7.6 4 .1l71.8 41.6h91l-11.4 6.6 77.4-43.9 8.6 5-81.1 46.7h-59.5l-71.7 41.3h-99.1l-19.2-11.1v.8l19 10.9h99.6l45-26v15.4l-29.6 17a4.8 4.8 0 0 0 -3.9.2c-1.1.7-1.1 1.8 0 2.5 1.2.7 3.1.7 4.3 0 1-.6 1.1-1.6.3-2.3l29.6-17v-16h-.1l26.1-15.1h59.4l81.5-47 9.8 5.6-158.2 91.1v16.5h.7v-16.2l158.1-91.2 12 7-81.5 47v8.4l-14.5 8.3v19.5l-28 16.1a4.8 4.8 0 0 0 -4 .2c-.4.3-.6.6-.7.9h5.8c0-.3-.2-.5-.5-.7l28-16.1v-19.4l13.9-8v31l8.1 4.7-14.7 8.5h1.4l14-8 14 8h1.3l-23.5-13.6v-39.3l81.6-47 11 6.3-57.8 33.2a4.8 4.8 0 0 0 -3.8.2c-1.2.7-1.2 1.8 0 2.5 1.1.6 3 .6 4.2 0 1-.6 1.2-1.6.3-2.3l57.8-33.2 5 2.8 5.6 3.2-69 39.8h-18.8c-.1-.3-.4-.6-.8-.8-1.2-.7-3.1-.7-4.3 0-1.2.6-1.2 1.7 0 2.4s3 .7 4.3 0c.4-.2.7-.6.8-.9h19l69.5-40 4.2 2.4 3.3-1.9 16.6 9.5v13.3l-13.7 7.9h-21.5l-23.6 13.6a4.8 4.8 0 0 0 -3.8.1c-1.2.7-1.2 1.8 0 2.5 1.1.7 3 .7 4.2 0 1-.6 1.2-1.6.3-2.3l23.1-13.3h20.2l-40.2 23.2a4.8 4.8 0 0 0 -4 .1c-1.1.7-1.1 1.8 0 2.5 1.2.6 3.1.6 4.3 0 1-.6 1.2-1.6.4-2.2l50.1-29v6.5l-29.8 17.2v12.1l-24.3 14a4.8 4.8 0 0 0 -3.9.2c-1.2.6-1.2 1.7 0 2.4s3 .7 4.3 0c1-.6 1.1-1.5.3-2.2l24.2-14v-12.2l29.9-17.1v-7.2l4.2-2.4v-14l-16.6-9.6 10.9-6.3 34 19.7v22.3l-23 13.3a4.7 4.7 0 0 0 -4 .1c-1.2.7-1.2 1.8 0 2.5 1.1.7 3 .7 4.2 0 1-.6 1.2-1.5.4-2.2l22.4-13v18l-17.7 10.3v21.9h.7v-21.5l17-9.9v31.4h.7v-73.6l-34.1-19.6 5.8-11 50.9 29.6v61l21.3 12.4v1.2h.6v-1.6l-21.4-12.3v-61.1l-50.9-29.7 15.5-1.2 60 34.6v52.1l33.3 19.2h1.3l-33.9-19.5v-52.2l-60-34.6 14.6-8.4 88.9 24.8.2-.7-88.4-24.5 17-9.8 36.6 21h58.8l21.1 12.2v-.8l-4.6-2.6-1.2-.7-15.2-8.7h-58.7l-10.2-6h25l12.5-7.2h52.2l.2.1 11.1-.8h-62.3l14.1-8c1.2.4 2.8.3 3.9-.3 1.2-.6 1.2-1.7 0-2.4s-3-.7-4.3 0c-1 .6-1.1 1.5-.3 2.2l-27.3 15.8h-26l-24.7-14.2 9.1-5.3-5.8-3.4h17l22.3 12.9c-.8.7-.7 1.6.3 2.2 1.2.7 3.1.7 4.3 0s1.2-1.8 0-2.4c-1-.6-2.7-.7-3.9-.2l-22.8-13.1h-18.4l-12.5-7.2 7.7-4.5h13.6l12-6.9h9l.1-.6h-9.3l-12 6.9h-12.2l24.5-14.2h13.5l29.3 17.7h52v-.7h-51.8l-29.5-17.6h-13.6l-33.8 19.5-9-5.1 38.4-22.9h27l22.1 13.6h47.6v-.7h-47.4l-21-13h69.2v-.6h-97.7l-38.7 23-10-5.7-.7-.4-17.8.8 63-38v-52.2l102-58.7v-.8l-86 49.5v-47.1l65.7-37.7s0 0 0 0c1.3.7 3.2.7 4.3 0 1.2-.6 1.2-1.7 0-2.4-1.1-.7-3-.7-4.2 0z" stroke="url(#o)" stroke-width=".9" transform="translate(-178 -114.5)"/></g></g><g transform="translate(208 90.8)"><use fill="#000" filter="url(#af)" xlink:href="#d"/><use fill="#a3c0ff" fill-opacity=".3" stroke="#545082" stroke-width="1.1" xlink:href="#d"/></g><path d="m271.2 171-60.7-35.5c-3.7-2.1-3.2-6 1-8.4l58.6-34.2c4.3-2.5 10.8-2.8 14.6-.6l60.6 35.4c3.7 2.1 3.3 6-1 8.4l-58.6 34.2c-4.3 2.5-10.8 2.8-14.5.6" fill="#3f4f94" fill-opacity=".9" stroke="#81adf5" stroke-width="1.3"/><path d="m.3 0v9.8h-.1v-9.8" fill="#70519c" mask="url(#ar)" transform="translate(237.4 158.5)"/><path d="m.3.1v9.8l-.1-.1v-9.8z" fill="#70519c" mask="url(#as)" transform="translate(231.7 165.2)"/><path d="m307.5 119.3-3.6 4.3v8.8l3.5-4.2a.5.5 0 0 0 .1-.1v-8.9" fill="#7d62ba"/><g transform="translate(237.7 110.3)"><use fill="#000" filter="url(#ag)" xlink:href="#e"/><use fill="url(#q)" xlink:href="#e"/></g><g transform="translate(237.7 110.3)"><use fill="#000" filter="url(#ah)" xlink:href="#f"/><use fill="url(#s)" xlink:href="#f"/></g><path d="m23.2.3-12 14.5-11-6.4c-.2 0-.2 0 0-.1l5-6c-.2 0 0-.1.1 0l17.5-2.3h.3z" fill="url(#u)" mask="url(#at)" transform="translate(237.7 110.3)"/><path d="m278.3 126.4v8.8l-.2.1v-8.8h.2" fill="#7c62b9"/><path d="m21.5 20.7-7.5-4.3 12.4-15.1c0-.2.3-.3.5-.3h.7l41.7 7.4h.3l.2.3c.1 0 0 .2 0 .4l-3.6 4.1-33.2-5.9c-.3 0-.8 0-1.1.3l-8.7 11-1.7 2z" fill="url(#v)" transform="translate(237.7 110.3)"/><g transform="translate(237.7 110.3)"><use fill="#000" filter="url(#ai)" xlink:href="#g"/><use fill="url(#w)" xlink:href="#g"/></g><path d="m309.2 127v.1l-3.4 4v8.9l3.3-4a.2.2 0 0 0 .1-.1v-9z" fill="#917dcc"/><g transform="translate(237.7 110.3)"><use fill="#000" filter="url(#aj)" xlink:href="#h"/><use fill="url(#x)" xlink:href="#h"/></g><g transform="translate(237.7 110.3)"><use fill="#000" filter="url(#ak)" xlink:href="#i"/><use fill="url(#y)" xlink:href="#i"/></g><path d="m32 26.7-7.7-4.4 9.9-12.3c.2-.2.6-.3 1-.2l36 6.3.2.1c.2.2.2.4 0 .5l-3.3 4-26.9-4.7c-.1-.1-.6 0-.8 0l-8.4 10.8z" fill="url(#z)" transform="translate(237.7 110.3)"/><g mask="url(#au)" transform="translate(295.8 134.2)"><use fill="#000" filter="url(#al)" xlink:href="#j"/><use fill="url(#A)" xlink:href="#j"/></g><path d="m19.2 20.7-19.2-11 7.7-9.5.4-.2h.5l28 5h.3l.1.2-13.6 16.1c0 .2-.5.3-.8.1z" fill="url(#B)" mask="url(#av)" transform="translate(272.5 128.9)"/><path d="m295.9 150.2v8.8z" fill="#7456a5"/><path d="m295.9 150.2v8.8z" fill="#7558a8"/><path d="m295.9 150.2v8.8-8.7" fill="#7659ab"/><path d="m295.9 150.3v8.8z" fill="#775bae"/><path d="m295.9 150.3v8.8z" fill="#795db0"/><path d="m295.8 150.3v8.8z" fill="#7a5eb3"/><path d="m295.8 150.3v8.8z" fill="#7b60b6"/><path d="m295.8 150.3v8.8h-.1v-8.7" fill="#7c62b9"/><path d="m295.7 150.4v8.8h-.1v-8.8z" fill="#7b60b6"/><path d="m295.6 150.4v8.8z" fill="#7a5eb3"/><path d="m295.6 150.4v8.8h-.1v-8.8" fill="#795db0"/><path d="m295.5 150.4v8.8z" fill="#775bae"/><path d="m295.5 150.4v8.8h-.1v-8.8" fill="#7659ab"/><path d="m295.4 150.4v8.8z" fill="#7558a8"/><g transform="translate(237.7 110.3)"><use fill="#000" filter="url(#am)" xlink:href="#k"/><use fill="url(#C)" xlink:href="#k"/></g><g transform="translate(300 144.1)"><use fill="#000" filter="url(#an)" xlink:href="#l"/><use fill="#a3c0ff" fill-opacity=".3" stroke="#545082" stroke-width="1.1" xlink:href="#l"/></g><path d="m363.2 224.2-60.7-35.4c-3.7-2.1-3.2-6 1-8.5l58.6-34.1c4.3-2.5 10.8-2.8 14.5-.6l60.7 35.4c3.7 2.1 3.2 6-1 8.4l-58.6 34.2c-4.3 2.5-10.8 2.8-14.5.6" fill="#3f4f94" fill-opacity=".9" stroke="#81adf5" stroke-width="1.3"/><path d="m.3 1v7.7c0-.3 0-.6-.2-1v-7.7z" fill="#4569b8" mask="url(#aw)" transform="translate(405 182.2)"/><path d="m.2 0v7.7z" fill="#4569b8" mask="url(#ax)" transform="translate(332.8 186.6)"/><path d="m63.4 7a3 3 0 0 0 -1.1-1l-.4-.2-.3-.2h-.2l-.2-.2h-.1l-.2-.1h-.2l-25.7-5.2-.4-.1h-.2-.2a7.6 7.6 0 0 0 -1-.1h-.3-.4l-.2.1-.5.1h-.1l-.3.1h-.4l-23.1 8.7-.4.2c-.2 0-.2.1-.3.2l-.2.1h-.2c0 .1 0 .2-.2.2v.1a3 3 0 0 0 -.3.3l-.1.1-.2.2v.2l-.1.1v.2l-3 15.5v7.7l2.9-15.4v-.2a2 2 0 0 1 .3-.5l.1-.1.3-.3.1-.1.2-.2h.2c0-.1 0-.2.2-.2l.2-.1h.1c.1-.2.3-.2.4-.3l23.1-8.5.6-.1.6-.2h.7a7.8 7.8 0 0 1 1.2 0h.9l25.7 5.2a5.5 5.5 0 0 1 .7.3h.2l.2.2h.1l.3.2c.5.3 1 .6 1.2 1l9 14.7v-7.7z" fill="url(#D)" transform="translate(332.8 160.5)"/><path d="m75.2.1v.4l-.2.5-.2.4a3.4 3.4 0 0 1 -.5.7l-14.5 13.2-.2.2a7.3 7.3 0 0 1 -1 .6h-.1l-.4.3h-.2a10 10 0 0 1 -2.4.7l-1 .1-27 1.8h-.8-1a12 12 0 0 1 -1.2-.1h-.3l-.4-.2h-.3l-.3-.1a8.5 8.5 0 0 1 -.8-.3l-.2-.1a6.6 6.6 0 0 1 -1-.5l-18.9-10.9c-1.5-1-2.3-2.1-2.3-3.3v7.7c0 1.2.8 2.4 2.2 3.3l19 11a5.5 5.5 0 0 0 1 .4l.2.1.2.1h.1l.5.2h.2l.4.2h.3l.4.1h.4l.3.1h2.2l27.1-1.7 1-.2h.2a12.6 12.6 0 0 0 1.2-.3h.2l.1-.1a8 8 0 0 0 .6-.2l.2-.1.4-.2h.2l.5-.3a7.2 7.2 0 0 0 .7-.5l14.5-13.4.2-.2.2-.4.2-.4.2-.4v-.4-7.9.1" fill="url(#E)" mask="url(#ay)" transform="translate(333 183.1)"/><path d="m.6 0v6.9c0 .3 0 .7-.2 1v-6.7l.3-1.2" fill="#597dcc" mask="url(#az)" transform="translate(367.5 164.3)"/><path d="m.5.3v6.7l-.3 1.3.1-6.9v-1.1" fill="#597dcc" mask="url(#aA)" transform="translate(367.5 164.3)"/><path d="m.4.5v6.8a321 321 0 0 1 0-5.8z" fill="#5478c7" mask="url(#aB)" transform="translate(367.5 164.3)"/><path d="m.5 0v7c0 .2.2.7 0 1v-7z" fill="#5e82d1" mask="url(#aC)" transform="translate(367.5 165)"/><path d="m.5 0v7c0 .2.2.7 0 1v-7c0-.2-.3-.7 0-1" fill="#6387d6" mask="url(#aD)" transform="translate(367.5 165)"/><path d="m.5 0v6.9l-.2 1.1v-6.9-1.1" fill="#597dcc" mask="url(#aE)" transform="translate(367.5 165.1)"/><path d="m43.3.2c-.2.5-1 .7-1.4 1l-2.4 1-.5.5-.2.4c-.2.1-.2.1-.2.4v7.5c0-.2.2-.2.3-.3v-.2c.2-.3.4-.4.6-.5.8-.5 1.6-.8 2.5-1.2.4-.2 1.1-.4 1.3-.9v-.4-5.6-1.9z" fill="url(#G)" transform="translate(345.6 168.2)"/><path d="m32.2 3.1c-2.8-1-5.8-1.5-8.8-1.5v7.6c0 .1-.2 0 .1.1h1.9a27 27 0 0 1 7.6 1.9v-7.4-.4z" fill="url(#H)" transform="translate(345.6 168.2)"/><path d="m350.7 173v7.8c-.3-.1-.4 0-.4-.3v-.5-6.1-1l.4.2" fill="#4569b8"/><path d="m5 12.6-1-.4c-1.1-.3-2.4-.3-3.5-1-.4-.2-.5-.6-.5-1v-2.9-4.6c0 .6.7.8 1.1 1l2 .6c.6 0 1.2.3 1.7.5.2 0 .3.1.3.2v-.1c.1 0 .3.2.3.4v7.8c0-.3-.3-.4-.3-.6z" fill="url(#I)" transform="translate(345.6 168.2)"/><path d="m351.5 173.7v7.8l-.6-.3v-.3-1.8-4.5-1.1z" fill="#4e72c1"/><path d="m14.6 9.3v-6.5l-.1-1-.5-1c-.1-.2-.3-.5-.3-.8v5.8l-.7.2a26.4 26.4 0 0 0 -5.3 1.7c-.7.3-1.3.6-1.8 1-.3.1-.3 0-.3.3v7.5c2.6-1.7 5.6-2.6 8.7-3l.4 4.6v-7.5-1.3" fill="url(#J)" transform="translate(351 164.3)"/><path d="m381.5 173.3c1.7 1.3 3.1 3.1 3 5.3v7.7-.3a6 6 0 0 0 -1.6-3.6l-.3-.3-.6-.6-.2-.2-.3-.2-.3-.2-.5.4-3.3 2-1.3 1c-.3.1-.6.2-.6.6v-7.6c0-.2 0-.5.3-.6l5.5-3.5z" fill="#5478c7"/><path d="m369.8 177.3v-.1" fill="#779bea"/><path d="m369.8 177.3a7026.3 7026.3 0 0 0 0 6.7v1h-.6l-.8.1h-1a7016.4 7016.4 0 0 0 0-6.6c0-.2-.2-1 0-1h.5l.8-.1 1-.1" fill="#779bea"/><path d="m371.5 178.2v7.8l-.8-.5-.6-.3-.3-.2v-1-5.2-1.4l1.7 1z" fill="#496dbc"/><path d="m384.6 178.6v7.8a6 6 0 0 0 -1.7-4 9.5 9.5 0 0 0 -1.4-1.3l-.3-.2v-.5-5.5-1.7c1.8 1.3 3.4 3.1 3.4 5.4" fill="#4569b8"/><path d="m367.3 177.4v7.7c0 .2-.3.4-.4.5l-.8.8v-3.7-2.6-1-.4c0-.2.3-.4.4-.5z" fill="#7ea2f1"/><path d="m354.6 175v6.9c0 .4 0 .7-.2 1v-6.8c0-.4 0-.8.2-1.1" fill="#6d91e0"/><path d="m8.2 2.7-3-1.2-2.2-1c-.3 0-.5-.1-.8-.3l-.5-.2h-.1l-.4.5-.8 1.5a6 6 0 0 0 -.4 2v7.6a5.5 5.5 0 0 1 .8-2.9l.3-.5.5-.6.2.2c.3 0 .6.2.8.3l4.6 1.9c.4.2 1.4.4 1.4 1v-7c0-.6.1-1-.4-1.3" fill="url(#K)" transform="translate(353 175)"/><path d="m43.1 5.3c-.1.9-1.4.9-2 .8-1 0-1.9-.2-2.8-.3-.7 0-1.4-.3-2 0h-.7l-.3.1v7.7h.6l.8-.2c1.1 0 2.3.2 3.4.4.8.1 2.9.4 3-.8v-2-3.5z" fill="url(#L)" transform="translate(353 175)"/><path d="m26.7 5.7h-2.7c-.6 0-2-.2-2.2.6v7.7c0-.7 1.2-.7 1.7-.7h2.4l3.5.1h1.9a11616.8 11616.8 0 0 1 0-6.7v-.7c0-.2 0-.2-.2-.2h-4.3" fill="url(#M)" transform="translate(353 175)"/><path d="m.7 2.9v7.7c-.8-1.4-.7-3-.7-4.5v-4.9-1.2c0 1 .2 2 .7 2.9" fill="#4569b8" mask="url(#aF)" transform="translate(349.3 178.9)"/><path d="m20.8 1.1c-.4-.9-2-.4-2.8-.2l-4.6.7-1.6.3c-.3 0-.3 0-.3.3v7.5l7.5-1.3c.7-.1 1.7 0 1.7.9v-7-1.2" fill="url(#O)" transform="translate(343.1 181)"/><path d="m7.4 2.7h-1l-1.3.2-1.7.5-1.5.3c-.6 0-1.9 0-1.9-.8v6.8c0 .3 0 1.1.4 1.3.8.6 2 .3 3 0s2.4-.8 3.6-.7l1-.1v-.5-2.4-4.8h-.6" fill="url(#P)" transform="translate(343.1 181)"/><path d="m388.2 181v7.6l-.2.6-.7 1.2c-.5.7-1.1 1.4-1.8 2v-3.6-2.6-1-.4c0-.2.4-.5.6-.6a11.8 11.8 0 0 0 2.1-3.3" fill="#597dcc"/><path d="m27.8 2.2c-.6-.3-1.4-.4-2 0-.3 0-.4.3-.6.6l-2.3 3.2-.6.7v7.8l1.5-2 1.6-2.4c.6-.7 1.9-.5 2.5 0l2.4 2 2.2 1.7v-6-1.4-.4l-.4-.2-.5-.5-1.6-1.2-2.3-1.9" fill="url(#Q)" transform="translate(343.1 181)"/><path d="m7 1.2c-1 1.6-2.4 3-4 4-.8.6-1.7 1-2.6 1.5-.4.2-.4.1-.4.5v7.5c1.9-.9 3.7-2 5.1-3.4.7-.7 1.3-1.5 1.8-2.4.3-.4.6-.8.6-1.3v-5.6-2a9 9 0 0 1 -.5 1.2" fill="url(#R)" transform="translate(380.7 180.9)"/><path d="m.6 0v6.8c0 .3.2.8-.1 1v-6.8c0-.2-.3-.8 0-1" fill="#688cdb" mask="url(#aG)" transform="translate(380.9 188.1)"/><path d="m.5 0v7c0 .3.2.7 0 1v-7c0-.2-.3-.7 0-1" fill="#6387d6" mask="url(#aH)" transform="translate(380.9 188.1)"/><path d="m.5.1v6.9l-.2 1v-6.9c.1-.3-.1-.7.1-1.1" fill="#5e82d1" mask="url(#aI)" transform="translate(380.9 188.1)"/><path d="m.4.2v-.2" fill="#597dcc" mask="url(#aJ)" transform="translate(380.9 188.1)"/><path d="m357.5 188v7.7a17 17 0 0 1 -5.8-3.7c-.2-.2-.5-.5-.6-.8v-.5-5.5-1.7c1.6 2 4 3.5 6.4 4.5" fill="#4569b8"/><path d="m28 30.1c-3.7-1-7.5-2.5-9.9-5.6v7.7c0 .3.5.6.7.9l1.1 1a16.6 16.6 0 0 0 6 3.2c.6.2 1.2.2 1.7.5.3 0 .2.1.2.3l.1.5v-.6-.7-1.9-4.2-1" fill="url(#S)" transform="translate(333 159)"/><path d="m45.2 29.9h.1l.4.2.3.1c.5.1.8.5 1 .8l1 1 .2.4.3.3.4.3.5.2c.6 0 1.5.1 1.7-.6v-.2 7.1c0 .5.1.9-.2 1.2-.4.4-1.1.3-1.5.2-.6-.1-1-.4-1.3-1-.4-.6-1-1.3-1.7-1.8-.2-.2-.5-.1-.7-.2l-.5-.3-.4.1a29.3 29.3 0 0 1 -8.5 1.2 37 37 0 0 1 -4-.2l-1-.1v-.1l-.4.4h-.1c-.4.1-.6.2-.8.5l-.5 1.2-.2.4-.2.7c-.4.8-1.7 1-2.4.6-.8-.3-.7-1-.7-1.5v-7l.1.3c.1.3.6.5.9.6.7.1 1.7 0 2-.7.2-.2.3-.5.3-.8v-.2l.3-.5c.2-.6.6-1.3 1.3-1.3l.3-.4.6.1c4.5.5 9.1.2 13.4-1z" fill="url(#T)" transform="translate(333 159)"/><path d="m36.8 18.3-1.4.1c-.3 0-.8 0-1 .2l-.7.5-.5.5.1.4.5.8c0 .2 0 .2.3.2l.8.2.6.1c.2 0 .5.2.7.1l.4-.1 1-.3c.1 0 .5-.1.6-.3l.1-.3.2-1c0-.2 0-.1-.2-.3l-1-.5zm11.5-4c-1.8 1-3.6 2.2-5.4 3.4-.8.5.1 1.1.7 1.2l.8.1 4.1.4 3.1.3c0-2.3-1.5-4.2-3.3-5.5m-12.3-3.4.7 2.4.5 1.5c0 .3 0 .6.3.9.5.5 1.5.5 2.1.2l.7-.4 3-1.6 2.3-1.2a26.7 26.7 0 0 0 -9.6-1.9m-7.3 17.3 1.3-2.5.8-1.5c.2-.4.4-.9-.2-1.2-.7-.5-1.8-.1-2.5 0l-3.8.7-2.6.4c.9 1 2 1.9 3.2 2.5 1.2.7 2.5 1 3.8 1.6m-.9-8c.6 0 1.2-.7.6-1.1-.1-.2-.3-.2-.4-.3l-1.7-.7-4.4-1.7s-.2-.2-.3-.1c-.2 0-.5.6-.6.7l-.5 1a5.6 5.6 0 0 0 -.4 3c0 .1.1 1 .3 1h.2l.8-.3 2.4-.5zm18 6.8c2.2-1 4.5-2.6 5.4-5h-5.5l-2-.1c-.6 0-1.2 0-1.7.3-.5.4-.1.7.2 1l1.2 1.3zm-6.3 1.8c1 0 2-.3 3.1-.6l-4.2-3.4-.6-.5c-.6-.3-1.7-.3-2.2.2l-1.5 2-1.6 2.4c2.3.2 4.6.2 7 0m-7.2-17.7c-3 .5-6.1 1.4-8.7 3.1l5.5 1.8c.5 0 .9.2 1.3.3.3.1.6.3 1 .3.6 0 1.3-.3 1.3-1l-.1-1.3zm18.6 21c.4.3.3.9-.1 1.2s-1.3.1-1.8 0c-.4-.2-.7-.6-1-1-.3-.5-.7-1-1.2-1.4-.2-.2-.4-.4-.8-.5-.2 0-.3 0-.5-.2l-.3-.1h-.5a26.3 26.3 0 0 1 -4.5 1 35 35 0 0 1 -8.4 0h-.6l-.4.3c-.2 0-.4 0-.6.2l-.4.8-.8 1.7c-.3.5-.8.8-1.4.8s-1.4 0-1.6-.7c-.2-.5.2-1 .6-1.3l1-1.4.2-.4v-.3-.5a27 27 0 0 1 -6-2.4 14.7 14.7 0 0 1 -3.6-3c-.2-.2-.1-.2-.3-.2l-.4.1h-1.1l-1.7.4-2 .5c-.7.2-2.2.4-2.6-.4s1-1.2 1.5-1.2l3-.4 1-.2.4-.1.3-.3.7-.1a6.2 6.2 0 0 1 -.6-4.1c.3-1.5 1.1-2.8 2-4h-.2l-.3-.3c-.1-.3-.4-.4-.7-.4l-1-.4-1.7-.5c-.3 0-.5-.1-.8-.3l-.5-.1c-.4-.2-.8-.7-.5-1 .4-.5 1-.6 1.6-.6 1 .1 2.1.8 3 1.2.7.3 1.4.6 2.1.6h.5l.4.2c.2 0 .4-.3.6-.4a16 16 0 0 1 2.2-1.4 26 26 0 0 1 8.2-2.4c.2 0 .8 0 1-.2v-.3c.2-.2.3-.2.3-.5 0-.6-.3-1.3-.6-1.9-.3-.4-.5-.7-.2-1.2.6-.7 2.3-.8 2.8.1.3.4.1 1 .1 1.5v1c.1.3.2.5.5.6l.2.1v.3h1a35 35 0 0 1 10.2 1.8l2 .8c.2.1.2 0 .4 0l.4-.2h.5l.9-.5 1.5-1a3 3 0 0 1 2.9-.9c.4.1.9.4.8 1 0 .3-.5.5-.8.7l-1.6.6-1.6.9-.4.3v.2l-.3.3a10 10 0 0 1 4.1 5.1c.2.6.3 1.1.3 1.7v.7l.6.1c.2 0 .2 0 .3.2.3.2.7.2 1 .2h4.1c.4 0 1 .2 1.3.5.4.5 0 1-.4 1.1-.6.3-1.3.2-1.9.2l-1.5-.3-2.3-.2-.9.2h-.4c-.2 0-.3 0-.4.2l-.4.9a14.4 14.4 0 0 1 -7 5.8l.2.2v.3c0 .4.6.8.9 1l1.1.9a7.6 7.6 0 0 1 .8.6" fill="url(#U)" transform="translate(333 159)"/><path d="m54 40 1-.2c1-.3 1.8-.6 2.5-1l14.4-13.3c.6-.7.7-1.5.3-2.3l-9-14.7a3 3 0 0 0 -1.1-1l-1.6-.7-25.8-5.1a7.5 7.5 0 0 0 -3.8.2l-23.2 8.4c-1.1.5-1.9 1.2-2 2l-3 15.4c0 .8.5 1.6 1.4 2.2l19.1 11a3.5 3.5 0 0 0 1 .4 5.2 5.2 0 0 0 1 .3h.3a6.7 6.7 0 0 0 1.6 0l20.4-1.3zm5.8-.5-.2.2c-1.3 1-3 1.5-5 1.7l-27.2 1.8a10.2 10.2 0 0 1 -6.1-1.3l-19-10.9c-1.6-1-2.3-2.1-2.3-3.3v-.1l3-15.6c.3-1.3 1.5-2.3 3.2-3l23.2-8.4c2-.6 4.2-.8 6.2-.4l25.8 5.1.5.1 2 1c1 .5 1.5 1 1.8 1.6l9 14.7c.7 1.3.5 2.5-.4 3.5z" fill="url(#V)" transform="translate(333 159)"/><path d="m0 71.1v-71.1c39.2 21.8 63.7 53 63.7 87.6v71.1c0-34.5-24.5-65.7-63.7-87.6m24 2.8v-44.7c-4.5-3.6-9.3-7-14.4-10.2v44.7c5.1 3.2 10 6.6 14.4 10.2m18.2 17.6v-44.7c-3.4-4-7.1-7.9-11.2-11.6v44.7c4 3.7 7.8 7.6 11.2 11.6m21.3 49.3v-44.7a82 82 0 0 0 -16.4-43v44.7a82 82 0 0 1 16.4 43" fill="url(#X)" fill-opacity=".6" mask="url(#aK)" transform="translate(459.4 32.7)"/><path d="m127.4 7.4c22.5-5 47-7.6 72.4-7.4 34 .4 66 5.9 93.6 15.3v71a303.1 303.1 0 0 0 -93.6-15.2c-25.4-.2-49.9 2.4-72.4 7.4v-71zm29.2 44.7v-41.1l-9.2 1.2v41.2zm52-2.2v-32.9a335.5 335.5 0 0 0 -9.8-.2v33a292.3 292.3 0 0 1 9.9.1zm-35 .6v-28.8l-9.5.8v28.8zm17.4-.7v-23l-9.8.4v22.8c3.3-.2 6.5-.3 9.8-.3zm35 1.2v-22.8l-9.6-.8v23zm49 8.5v-15.5l-8.8-2.2v15.5l8.7 2.2zm-32-6.5v-11.3l-9.5-1.3v11.4zm16.2 15.7v-12.9l-9-1.6v12.8c3 .5 6 1 9 1.7z" fill="url(#Y)" fill-opacity=".6" transform="translate(128.6 1)"/><path d="m0 103.4c7.7-34.7 40-64.6 86-83.1v71c-46 18.7-78.3 48.6-86 83.3v-71zm12.3.5v-14.3a88 88 0 0 0 -9.7 19v42.4a88 88 0 0 1 9.7-19v-14.4l3.7-5.2v7.7c2.5-3.3 5.2-6.5 8.1-9.6v-7.7a166.5 166.5 0 0 1 50-34.9v-13.7a207.4 207.4 0 0 0 -15.5 8 155.7 155.7 0 0 0 -34.6 26.8v-7.7c-3 3.1-5.6 6.3-8.1 9.6v7.7c-1.3 1.7-2.6 3.5-3.7 5.3z" fill="url(#Z)" fill-opacity=".6" transform="translate(128.6 1)"/><g fill="#42e8e0"><path d="m140.8 104.9 3.7-5.3v13.8l-3.7 5.2v-13.6zm11.9-14.9 1.1-1.2v13.8a147.5 147.5 0 0 1 33.3-25.6v-13.7c1.7-1 3.3-2 5-2.8v13.7c3.4-1.8 6.9-3.6 10.5-5.3v-13.7 13.7a166.5 166.5 0 0 0 -50 34.9v-13.8z" fill-opacity=".3"/><path d="m192.1 60.5a209 209 0 0 1 10.5-5.3v13.7c-3.6 1.7-7 3.5-10.5 5.3zm-38.3 28.3c6.9-7 14.9-13.6 23.9-19.6v13.8c-9 6-17 12.6-23.9 19.6z"/><path d="m177.7 69.2 9.4-6v13.8l-9.4 6z" fill-opacity=".3"/><path d="m131.2 109.6a88 88 0 0 1 9.6-19v14.3a88 88 0 0 0 -9.6 19v13.8a88 88 0 0 1 9.6-19v14.3a88 88 0 0 0 -9.6 19z"/><path d="m131.2 124a88 88 0 0 1 9.6-19.1v13.7a88 88 0 0 0 -9.6 19.1z"/><path d="m144.5 91.9c2.5-3.3 5.2-6.5 8.2-9.6v7.7c-3 3.1-5.7 6.3-8.2 9.6v-7.6zm0 21.5c2.5-3.3 5.2-6.5 8.2-9.6v7.7c-3 3.1-5.7 6.3-8.2 9.6z" fill-opacity=".3"/><path d="m144.5 99.6c2.5-3.3 5.2-6.5 8.2-9.6v13.8c-3 3.1-5.7 6.3-8.2 9.6z" fill-opacity=".3"/><path d="m506.6 85.8a82 82 0 0 1 16.3 43v44.7a82 82 0 0 0 -16.3-43zm-16.2-17.9c4.1 3.7 7.9 7.6 11.3 11.6v44.7c-3.4-4-7.2-7.9-11.3-11.6zm-21.4-16.2c5.2 3.2 10 6.7 14.4 10.2v44.7c-4.4-3.6-9.2-7-14.3-10.2v-44.7zm-74.2-8.9 8.7 2.2v15.5l-8.7-2.2zm-16.1 12.4 9 1.6v12.9l-9-1.7zm-16.7-13.8 9.5 1.3v11.3l-9.4-1.2v-11.4zm-17-13 9.6.8v22.8l-9.7-.7v-22.9zm-17.6-10.6h1l8.9.2v33l-8.9-.3h-1zm-17.6 10.4c3.2-.2 6.5-.3 9.8-.3v22.9c-3.3 0-6.6.1-9.8.3v-23.1zm-17.2-4.7 9.6-.8v28.8l-9.6.8zm-16.6-10.3c3-.4 6-.9 9.2-1.2v41l-9.3 1.3v-41.1z"/></g><path d="m83.1 95.7c-45.3-19.2-76.5-49.4-83.1-84.1v71c6.6 34.8 37.8 65 83.1 84.2zm-79.6-11.1v-50l2.3 5.7v50zm10.4 19.7v-44.3l3.8 5.3v44.3a106 106 0 0 1 -3.8-5.3zm-6-9.7v-34c1 1.9 2 3.7 3.2 5.5v34a92.3 92.3 0 0 1 -3.1-5.5zm21.6 27.8v-31.4a139 139 0 0 0 5.2 4.7v31.4zm-8.4-8.8v-29l4.5 5v29zm28.8 25v-26.2l6.4 4.1v26.1zm-10.9-8v-22.1l6 4.5v22.2l-5.9-4.5zm22.5 15v-12l7 3.8v12a201 201 0 0 1 -7-3.8z" fill="url(#aa)" fill-opacity=".6" transform="translate(128 122.5)"/><path d="m290.4 103.2a307 307 0 0 1 -97 14c-24.4-.2-47.7-3-69.2-8.2v71.1c21.5 5.1 44.8 8 69.2 8.3 35 .4 68.2-4.8 97-14.1zm-39.4 67.5v-47.2a294 294 0 0 0 21.4-4.5v47.2a294 294 0 0 1 -21.4 4.5zm-107 .2v-44.7c7.5 1.2 15 2.2 22.7 3v44.6c-7.7-.7-15.2-1.7-22.6-2.9zm35.4 3.8v-29.2a334.5 334.5 0 0 0 23.8.4v29.3a331.2 331.2 0 0 1 -23.8-.5zm36.6 0v-16c7.8-.5 15.4-1.2 23-2.2v16a320 320 0 0 1 -23 2.2z" fill="url(#ab)" fill-opacity=".6" transform="translate(128 122.5)"/><path d="m395 71.1v-71.1c-1 34.8-26.6 65.8-66.6 87.2v71.1c40-21.3 65.6-52.3 66.6-87.2m-56 52.4v-13.7c31.6-19.6 52.2-45.8 55.5-74.8v13.8c-3.3 29-23.9 55.1-55.5 74.7" fill="url(#ac)" fill-opacity=".6" transform="translate(128 122.5)"/><path d="m522.6 157.5c-3.3 29-24 55.2-55.5 74.7v13.8c31.6-19.6 52.2-45.7 55.5-74.8zm-227.9 94.1c-7.7-.7-15.3-1.7-22.6-2.9v44.7a314 314 0 0 0 22.6 3zm72.3 27.4c-7.6 1-15.2 1.7-23 2.1v16c7.8-.4 15.4-1.1 23-2zm33.4-37.5a294 294 0 0 1 -21.4 4.5v47.2a294 294 0 0 0 21.4-4.5zm-69.2 26.9a331.2 331.2 0 0 1 -23.8-.4v29.2a332.4 332.4 0 0 0 23.8.4zm-197.3-105.7c-.9-1.8-1.6-3.7-2.3-5.6v50c.7 1.9 1.4 3.8 2.3 5.6zm5.3 25.9a92 92 0 0 1 -3.1-5.5v34l3 5.5v-34zm6.6-.8-3.9-5.3v44.3c1.3 1.8 2.5 3.5 4 5.2v-44.2zm7.9 24.2c-1.6-1.6-3.1-3.2-4.6-5v29c1.5 1.8 3 3.4 4.6 5zm9.1 6.2-5.2-4.7v31.4l5.2 4.7zm10.2 17.3-5.8-4.4v22.1l5.9 4.4v-22.1zm11.4 3.5-6.5-4.1v26.1l6.5 4.1zm12.3 21-7-3.8v12l7 3.8z" fill="#42e8e0"/></g></svg>