<svg xmlns="http://www.w3.org/2000/svg" viewBox="0 0 340 54"><g fill-rule="nonzero" fill="none"><path d="M80.8 23.6c2.7 0 5-1.1 6.7-3.3l3.6 3.7a13 13 0 01-10 4.8 13 13 0 01-9.5-3.6 12.1 12.1 0 01-3.7-9.2c0-3.7 1.2-6.8 3.8-9.3A13 13 0 0181 3a13 13 0 0110.3 4.8l-3.5 4a8.1 8.1 0 00-6.5-3.4c-2.1 0-4 .7-5.4 2a7 7 0 00-2.3 5.6c0 2.4.7 4.2 2.1 5.7 1.4 1.1 3 1.9 5 1.9zM95.5 28.5v-25h5.6v20h10.7v5zM136.2 25a13 13 0 01-9.3 3.7 13 13 0 01-9.4-3.7 12.3 12.3 0 01-3.8-9.2c0-3.7 1.3-6.7 3.8-9.1a13 13 0 019.4-3.8 13 13 0 019.3 3.8c2.6 2.4 3.8 5.5 3.8 9.1 0 3.7-1.2 6.8-3.8 9.2zm-1.9-9.2c0-2.2-.8-4-2.2-5.7a6.8 6.8 0 00-5.3-2.3c-2.1 0-3.9.7-5.3 2.3a8.2 8.2 0 00-2.2 5.7c0 2.2.7 4.2 2.2 5.8a6.8 6.8 0 005.3 2.3c2.1 0 3.9-.7 5.3-2.3a7.9 7.9 0 002.2-5.8zM151.4 22c1 1.3 2.2 1.8 3.8 1.8 1.6 0 2.9-.5 3.7-1.7 1-1.2 1.4-2.8 1.4-4.7V3.5h5.5v14c0 3.6-1 6.4-3 8.4-2 1.9-4.6 3-7.7 3-3.1 0-5.7-1.1-7.7-3-2-2-3-4.8-3-8.4v-14h5.5v13.9a8 8 0 001.5 4.7zM190.8 6.7c2.3 2.2 3.6 5.3 3.6 9.1 0 4-1.2 7-3.5 9.3-2.3 2.3-5.9 3.4-10.6 3.4h-8.7v-25h8.9c4.5 0 8 1 10.3 3.2zm-4 15c1.3-1.3 2-3.3 2-5.7 0-2.4-.7-4.4-2-5.6-1.4-1.4-3.5-2-6.4-2h-3.1v15.2h3.5c2.6 0 4.5-.7 6-2zM226.2 3.5h5.6v25h-5.6l-12-15.7v15.7h-5.5v-25h5.2l12.3 16zM255.8 28.5l-2.4-5.4H243l-2.4 5.4h-6l10.8-25h5.4l10.8 25h-5.7zM248.3 11l-3.1 7.2h6.2l-3.1-7.2zM273.5 8.3v20.3h-5.6V8.3h-7V3.5h19.7v4.8zM284.6 3.5h5.6v25h-5.6zM305.6 19.4l6.4-16h6l-10 25h-4.7l-10-25h6zM339 3.5v5h-12.4v5h11.2v4.9h-11.2v5.2h12.9v5H321v-25h18zM74.4 49.8c1.5 0 2.7-.6 3.8-1.9l2 2.1a7.4 7.4 0 01-5.7 2.7c-2.2 0-4-.6-5.3-2a6.8 6.8 0 01-2-5.1 7 7 0 012-5.2 7.1 7.1 0 015.2-2.2c2.3 0 4.3.9 5.9 2.7l-2 2.1a4.5 4.5 0 00-3.7-1.8c-1.2 0-2.2.4-3 1.2a4 4 0 00-1.3 3c0 1.4.4 2.5 1.2 3.2.7.9 1.8 1.2 2.9 1.2zM94 50.6a7.5 7.5 0 01-5.1 2.1 7 7 0 01-5.3-2 6.8 6.8 0 01-2-5.2c0-2 .6-3.8 2-5.1a7.5 7.5 0 015.3-2.2 7 7 0 015.2 2.2 6.8 6.8 0 012 5c0 2.1-.6 3.9-2 5.2zm-1-5.1c0-1.3-.3-2.4-1.1-3.2a4 4 0 00-3-1.4c-1.1 0-2.2.5-3 1.4-.8.8-1 2-1 3.2 0 1.3.3 2.3 1 3.2a4 4 0 003 1.3c1.2 0 2.2-.4 3-1.3.8-.8 1.2-2 1.2-3.2zM111.5 43.7l-3.8 7.7h-1.9l-3.8-7.7v8.9H99V38.5h4.2l3.6 7.7 3.7-7.7h4.2v14h-3.1zM127.7 39.8c1 .9 1.5 2.2 1.5 4 0 1.7-.5 3-1.5 3.7-1 .9-2.5 1.2-4.6 1.2h-1.9v3.9h-3V38.5h4.9c2 0 3.6.5 4.6 1.3zm-2.3 5.5c.4-.4.6-1 .6-1.8 0-.9-.2-1.4-.7-1.7-.5-.4-1.3-.5-2.3-.5h-1.8V46h2.1c1 0 1.7-.3 2.1-.7zM135.4 49c.5.6 1.3 1 2.1 1s1.6-.4 2.1-1c.5-.7.8-1.6.8-2.8v-7.7h3v7.8c0 2-.5 3.7-1.6 4.8a5.8 5.8 0 01-4.3 1.6c-1.8 0-3.2-.6-4.3-1.7a6.4 6.4 0 01-1.7-4.8v-7.8h3.1v7.8c0 1.2.3 2.2.8 2.7zM152.7 41.3v11.3h-3.1V41.3h-4v-2.7h11.1v2.7zM159 38.6h3.1v14H159zM175.4 38.6h3v14h-3l-6.7-8.7v8.8h-3.1V38.6h3l6.8 9v-9zM191.1 45.5h3.1v5a7.6 7.6 0 01-5.8 2.3c-2 0-3.8-.7-5.2-2a6.8 6.8 0 01-2.1-5.1 7 7 0 012-5.3 7 7 0 015.2-2c2 0 3.8.6 5.3 2l-1.6 2.3a4 4 0 00-1.8-1c-.5-.3-1.1-.4-1.7-.4-1.2 0-2.2.4-3 1.2-.9.8-1.3 1.8-1.3 3.2 0 1.3.4 2.3 1.2 3.2.7.7 1.7 1.1 2.8 1.1 1 0 2-.1 2.7-.5v-4h.2zM212 38.6v2.8h-6.5v3h6.1v2.8h-6.1v5.5h-3.2V38.6zM226.4 50.6a7.5 7.5 0 01-5.2 2.1 7 7 0 01-5.2-2 6.8 6.8 0 01-2.1-5.2c0-2 .7-3.8 2-5.1a7.5 7.5 0 015.3-2.2 7 7 0 015.2 2.2 6.8 6.8 0 012.1 5c0 2.1-.6 3.9-2 5.2zm-1-5.1c0-1.3-.5-2.4-1.2-3.2a4 4 0 00-3-1.4c-1.2 0-2.2.5-3 1.4-.8.8-1.1 2-1.1 3.2 0 1.3.4 2.3 1.2 3.2a4 4 0 003 1.3c1.1 0 2.1-.4 2.9-1.3.8-.8 1.1-2 1.1-3.2zM235 49c.5.6 1.2 1 2 1 1 0 1.7-.4 2.2-1 .5-.7.7-1.6.7-2.8v-7.7h3.1v7.8c0 2-.5 3.7-1.6 4.8a5.8 5.8 0 01-4.3 1.6c-1.8 0-3.2-.6-4.3-1.7a6.4 6.4 0 01-1.7-4.8v-7.8h3.1v7.8c0 1.2.3 2.2.8 2.7zM256.1 38.6h3.1v14h-3l-6.7-8.7v8.8h-3.2V38.6h3l6.9 9v-9zM273.4 40.4c1.3 1.3 2 3 2 5.2a7 7 0 01-2 5.1c-1.2 1.3-3.2 2-5.9 2h-4.8V38.6h5c2.5 0 4.4.6 5.7 1.8zm-2.3 8.4c.8-.8 1.2-1.8 1.2-3.1 0-1.4-.4-2.5-1.2-3.2-.7-.8-2-1.1-3.5-1.1h-1.8v8.5h2c1.5-.1 2.6-.4 3.3-1.1zM287.7 52.6l-1.2-3h-6l-1.2 3h-3.4l6.1-14.1h3l6.1 14h-3.4zm-4.2-9.9l-1.8 4h3.6l-1.8-4zM297.7 41.3v11.3h-3.1V41.3h-4v-2.7h11v2.7zM304 38.6h3v14h-3zM322.3 50.6a7.5 7.5 0 01-5.2 2.1 7 7 0 01-5.3-2 6.8 6.8 0 01-2-5.2c0-2 .6-3.8 2-5.1a7.5 7.5 0 015.3-2.2 7 7 0 015.2 2.2 6.8 6.8 0 012.1 5c0 2.1-.7 3.9-2.1 5.2zm-1-5.1c0-1.3-.4-2.4-1.2-3.2a4 4 0 00-3-1.4c-1.1 0-2.1.5-2.9 1.4-.8.8-1.2 2-1.2 3.2 0 1.3.4 2.3 1.2 3.2a4 4 0 003 1.3c1.1 0 2.1-.4 2.9-1.3.8-.8 1.2-2 1.2-3.2zM336.9 38.6h3.1v14h-3.1l-6.7-8.7v8.8h-3.1V38.6h3l6.9 9z" fill="currentColor"/><path fill="#436CAB" d="M7.7 36H0v18h18v-7.8H7.7zM46.3 36v10.2H36V54h18V36h-7.8zM0 18h7.8-.1V7.7H18V0H0zM36 0v7.8h10.3V18H54V0z"/><g opacity=".8" fill="#75C5D5"><path d="M35 18L24.7 7.8H36V0H18v7.8L28.2 18zM25.7 36H19l8.5 8.5 1.7 1.7H18V54h18v-7.8l-5.1-5zM46.3 18v11.2l-1.8-1.7L36 19v6.8l5 5 5.2 5.2H54V18zM18 28.2L7.8 18H0v18h7.7V24.8L18 35z"/></g></g></svg>