<svg version="1.1" viewBox="0 0 380 82" xmlns="http://www.w3.org/2000/svg">
 <g fill="none" fill-rule="evenodd">
  <path d="m198.3 50.3-2.8 0.2c-0.9 0.2-1.7 0.4-2.5 0.8-0.7 0.3-1.4 0.9-1.8 1.5-0.5 0.7-0.7 1.6-0.7 2.5 0 0.6 0 1.3 0.2 1.9 0.3 0.8 0.9 1.6 1.6 2 1.3 0.8 3 1.2 5 1.2 2.6 0 4.5-0.2 5.8-0.4v-9a16.4 16.4 0 0 0-4.8-0.7zm86-13.2c-2.7 0-4.9 1-6.4 3s-2.3 4.9-2.3 8.4 0.8 6.3 2.3 8.4c1.5 2 3.7 3 6.4 3s4.9-1 6.4-3 2.3-4.9 2.3-8.4-0.8-6.3-2.3-8.3-3.7-3.1-6.4-3.1z"/>
  <path d="m276.5 44a6 6 0 0 0-5.5 3.5c-0.8 1.5-1.2 3.1-1.2 4.8-0.1 2.7 0 5.4 1.5 7.7 1.2 1.9 3.2 3 5.3 3 2.2 0 4.2-1.1 5.3-3 1.3-2 1.6-4.2 1.6-6.6 0-2-0.2-4.1-1.3-6a6 6 0 0 0-5.7-3.4zm-66.1 11.5c-2-0.4-4-0.4-6.1 0-2.4 0.4-3.5 1.7-3.5 3.6 0 2.1 1 3.2 3.5 3.7 2 0.3 4.1 0.1 6.2 0 0.6-0.1 0.7-0.3 0.7-0.8v-5.6c0-0.5-0.1-0.8-0.8-0.9z"/>
  <path d="m191 45.8h-15c-0.7 0-0.9-0.2-0.9-0.9v-10.7c0-0.8 0.3-1 1.1-1h17.9l0.7-0.1v-5.3l-0.8-0.2h-25c-0.7 0-1 0.2-1 1l0.1 19.7v19.7c0 0.7 0.1 1 0.8 0.9h5.4c0.8 0 0.9-0.2 0.9-0.9v-15.6c0-0.8 0.1-1 1-1h15c0.7 0 0.9-0.2 0.8-0.8v-3.9c0-0.7-0.1-1-1-1zm99.3 5.7c-0.7-6.1-4.6-11.8-12-12.6-6-0.6-11.6 2.2-14 8a18.7 18.7 0 0 0-1 10.8 13.2 13.2 0 0 0 13.2 11.3 13 13 0 0 0 12.9-9c0.8-2.8 1.1-5.6 0.8-8.5zm-8.4 8.9a6.3 6.3 0 0 1-10.6 0c-1.5-2.3-1.7-5-1.6-7.6 0-1.7 0.5-3.3 1.3-4.7a6 6 0 0 1 5.5-3.5 6 6 0 0 1 5.8 3.4c1 1.8 1.3 3.9 1.3 5.8 0 2.4-0.4 4.6-1.7 6.6zm-64.9-13c-0.6-4.4-3-7.2-7.2-8.1-4.3-1-8.4-0.4-12.5 0.7-0.5 0.1-0.5 0.4-0.4 0.7l0.6 4.1c0 0.7 0.3 0.8 0.9 0.6 2.5-0.8 5.2-1 7.8-0.8 2.3 0.2 3.9 1.6 4.3 3.7 0.2 0.7 0.3 1.5 0.3 2.2 0 0.6-0.1 0.8-0.7 0.6-3.2-0.7-6.5-0.6-9.7 0.3a8.8 8.8 0 0 0-5 13.5c1.7 2.6 4.3 3.5 7.1 3.9 4.8 0.5 9.4 0 14-1 0.6 0 0.7-0.3 0.7-0.7v-9.8c-0.2-2.9 0.2-6.4-0.2-9.9zm-6.2 9.4v5.9c0 0.5-0.1 0.7-0.7 0.7-2 0.3-4 0.4-6 0-2.4-0.4-3.3-1.5-3.3-3.8 0-2 1-3.3 3.3-3.8 2-0.4 4-0.4 6 0 0.6 0.2 0.7 0.4 0.7 1zm48.7 5.9c0-0.7-0.3-0.7-0.8-0.5-2.2 0.8-4.5 1-6.9 0.9-3.3-0.2-5.4-1.8-6.4-5-1-2.8-1-5.8 0-8.6 1-3 3.1-4.6 6.3-4.8 2-0.2 4.2 0.1 6.1 0.9 0.6 0.2 0.7 0 0.8-0.5l1.1-4c0.2-0.7 0-0.9-0.6-1-2.6-1-5.3-1.4-8-1.2-4.5 0.3-8 2-10.6 5.7-1.9 2.9-2.7 6-2.6 9.7 0 1.2 0.1 2.5 0.4 3.7 0.8 4.2 2.8 7.5 6.7 9.4 4.9 2.3 9.8 1.9 14.8 0.3 0.5-0.1 0.5-0.4 0.4-0.8zm-25.3 0.6c-2.1-0.5-3-1.3-3.2-3.4v-1.2l-0.1-31.8v-0.6c0-0.4-0.1-0.5-0.5-0.4l-5.4 0.9c-0.8 0-1 0.3-1 1l0.1 16.7v16.9c0.1 3.6 1.8 5.7 5 6.8 1.5 0.5 3.1 0.7 4.7 0.8 0.6 0 0.7-0.2 0.8-0.7l0.6-3.6c0.2-1.2 0.2-1.2-1-1.4zm-92.2-39.5-4 4-14.4 14.2-17 16.8-5.8 6c-1 0.9-1 1.8-0.3 2.6s1.7 0.9 2.6 0.2l1.7-1.5 37-37a2 2 0 0 1 1.2-0.6l7-1.2a20 20 0 0 0-6.3-4c-0.6-0.3-1.3 0-1.7 0.4zm3.4 12.5c0.2-0.3 0.3-0.6 0.3-1 0-1.3-1.4-2-2.7-1.5a3943015 3943015 0 0 1-32.2 32.2c-0.6 1-0.6 1.7 0.2 2.4 0.7 0.8 1.4 0.8 2.4 0.1a83442 83442 0 0 0 32-32.2zm-21.7-4c0.4 0.4 0.8 0.8 1.4 1.1 0.7 0.4 1.4 0.2 2-0.4 0.5-0.5 0.7-1.3 0.3-2l-0.9-1-29-29c-0.2-0.4-0.7-0.7-1.2-1-1.3-0.1-2.3 0.6-2.3 1.6s0.4 1.5 0.9 2l2.6 2.4 26.2 26.2zm11.8 24.2a157994 157994 0 0 1 9.7-9.6c0.7-0.9 0.6-1.7 0-2.3-0.8-0.7-1.6-0.8-2.4-0.2l-1 0.9-11.4 11.1c-1.4 1.5-1.4 2.6 0 4l6.6 6.6c1.3 1.3 2.7 2.3 4.6 2 0.9 0 1.7 0 2.6-0.2 0.8-0.1 1.4-0.9 1.4-1.7 0-1-0.5-1.5-1.4-1.6-0.5-0.1-1-0.2-1.5-0.1a4 4 0 0 1-3-1.2l-4.7-4.7c-0.7-0.8-0.8-1.4 0-2.3l0.6-0.7zm-15.4-17.8c1.2 0.4 2.3-0.3 2.3-1.5 0-0.6-0.3-1.2-0.7-1.6l-21.9-21.9c-0.4-0.4-0.9-0.8-1.3-0.8-1.3 0.1-2.1 1.1-1.9 2.1 0.2 0.7 0.6 1.2 1.1 1.7l20.8 20.9c0.5 0.4 1 0.8 1.6 1zm-7.3 3.5 1.6 1.4c0.5 0.4 1.3 0.5 1.9 0.2s1-1 1-1.6c0-1-0.7-1.6-1.3-2.2l-13-13a4 4 0 0 0-1.4-1c-0.7-0.3-1.5 0-2 0.5-0.6 0.7-0.5 1.4 0 2 0.3 0.7 0.8 1.3 1.3 1.8l12 12z" fill="currentColor" fill-rule="nonzero"/>
 </g>
</svg>
