<svg viewBox="0 0 656 422" xmlns="http://www.w3.org/2000/svg" xmlns:xlink="http://www.w3.org/1999/xlink"><defs><path id="a" d="m293.2 30-1.8.1a25.5 25.5 0 0 0 -25-21.5c-5.7 0-11 2-15.2 5.3a26.5 26.5 0 0 0 -23.1-13.9 27 27 0 0 0 -26.5 30.1h-1.8a27 27 0 0 0 -26.8 27.3 27 27 0 0 0 26.7 27.3h93.4a27 27 0 0 0 26.6-27.3 27 27 0 0 0 -26.5-27.4"/><path id="b" d="m434.7 293.7h-1.7a24 24 0 0 0 -24-18.7c-5.5 0-10.6 1.7-14.7 4.5a26 26 0 0 0 -22.3-12c-14.2 0-25.7 10.6-25.7 23.8 0 .8 0 1.6.2 2.4h-1.8c-14.1 0-25.6 10.7-25.6 23.8 0 13.2 11.5 23.9 25.6 23.9h90c14.2 0 25.7-10.7 25.7-23.9 0-13.1-11.5-23.8-25.7-23.8"/><path id="c" d="m222 58.1c-1.2 0-2.3 0-3.5.2a46 46 0 0 0 -46-36.7 48.3 48.3 0 0 0 -28.1 8.9 49.7 49.7 0 0 0 -42.9-23.6 48 48 0 0 0 -49 51.4l-3.3-.2a48 48 0 0 0 -49.2 46.6 48 48 0 0 0 49.2 46.6h172.8a48 48 0 0 0 49.2-46.6 48 48 0 0 0 -49.2-46.6"/><path id="d" d="m613.1 286.5-3 .1a40.1 40.1 0 0 0 -40-31.9 42 42 0 0 0 -24.5 7.8 43.3 43.3 0 0 0 -37.3-20.6 41.7 41.7 0 0 0 -42.6 44.7h-3a41.7 41.7 0 0 0 -42.9 40.4 41.7 41.7 0 0 0 43 40.6h150.2a41.7 41.7 0 0 0 43-40.6 41.7 41.7 0 0 0 -42.9-40.5"/><path id="e" d="m61.7 14.6a5 5 0 0 0 -2.5-2.9l-23.6-11.3c-.6-.3-1.3-.4-2-.4-.5 0-1.2 0-1.8.2l-23.6 11.4c-1.2.5-2 1.5-2.3 2.9l-5.9 25.5a5 5 0 0 0 .8 3.7l16.4 20.3c1 1 2.3 1.5 3.6 1.6h26c1.3.2 2.7-.5 3.5-1.6l16.3-20.3c.8-1.1 1-2.4 1-3.7l-6-25.5z"/><path id="f" d="m61.7 14.6a5 5 0 0 0 -2.5-2.9l-23.6-11.3c-.6-.3-1.3-.4-2-.4-.5 0-1.2 0-1.8.2l-23.6 11.4c-1.2.5-2 1.5-2.3 2.9l-5.9 25.5a5 5 0 0 0 .8 3.7l16.4 20.3c1 1 2.3 1.5 3.6 1.6h26c1.3.2 2.7-.5 3.5-1.6l16.3-20.3c.8-1.1 1-2.4 1-3.7l-6-25.5z"/><pattern id="g" height="6.5" patternUnits="userSpaceOnUse" width="6.5" x="166.6" y="-6.5"/><pattern id="h" height="6.5" patternUnits="userSpaceOnUse" width="6.5" x="312.6" y="260.9"/><pattern id="i" height="6.5" patternUnits="userSpaceOnUse" width="6.5" x="-6.5" y=".4"/><pattern id="j" height="6.5" patternUnits="userSpaceOnUse" width="6.5" x="413.3" y="235.4"/><pattern id="k" height="101.4%" width="100%" y="-1.4%"/><pattern id="l" height="101.4%" width="100%" y="-1.4%"/><linearGradient id="m" x1="53.2%" x2="42.1%" y1="35.5%" y2="30.5%"><stop offset="0" stop-color="#0052cc"/><stop offset=".43" stop-color="#004fc3"/><stop offset="1" stop-color="#0049b0"/></linearGradient><linearGradient id="n" x1="-1341.1%" x2="193.7%" y1="-1016.5%" y2="160.5%"><stop offset="0" stop-color="#0052cc"/><stop offset=".48" stop-color="#0065ff"/><stop offset=".75" stop-color="#1475ff"/><stop offset=".96" stop-color="#2684ff"/></linearGradient><filter id="o" height="118.3%" width="117.8%" x="-8.9%" y="-9.1%"><feGaussianBlur in="SourceAlpha" result="shadowBlurInner1" stdDeviation="5.5"/><feOffset dy="1" in="shadowBlurInner1" result="shadowOffsetInner1"/><feComposite in="shadowOffsetInner1" in2="SourceAlpha" k2="-1" k3="1" operator="arithmetic" result="shadowInnerInner1"/><feColorMatrix in="shadowInnerInner1" values="0 0 0 0 0 0 0 0 0 0 0 0 0 0 0 0 0 0 0.298295455 0"/></filter><filter id="p" height="118.3%" width="117.8%" x="-8.9%" y="-9.1%"><feGaussianBlur in="SourceAlpha" result="shadowBlurInner1" stdDeviation="5.5"/><feOffset dy="1" in="shadowBlurInner1" result="shadowOffsetInner1"/><feComposite in="shadowOffsetInner1" in2="SourceAlpha" k2="-1" k3="1" operator="arithmetic" result="shadowInnerInner1"/><feColorMatrix in="shadowInnerInner1" values="0 0 0 0 0 0 0 0 0 0 0 0 0 0 0 0 0 0 0.298295455 0"/></filter><mask id="q" fill="#fff"><path d="m3 .1a3 3 0 0 0 -3 3.6l3.5 9.3c.3.8 1.1 1.4 2 1.4h4.7l11.2-14.4-18.5.1z" fill="#fff" fill-rule="evenodd"/></mask></defs><g fill="none" fill-rule="evenodd" opacity=".8"><g transform="translate(0 6.7)"><g opacity=".6"><use fill="#cbe3ff" xlink:href="#a"/><use fill="url(#g)" fill-opacity=".4" xlink:href="#a"/></g><g opacity=".8"><use fill="#cbe3ff" xlink:href="#b"/><use fill="url(#h)" fill-opacity=".4" xlink:href="#b"/></g><g><use fill="#cbe3ff" xlink:href="#c"/><use fill="url(#i)" fill-opacity=".4" xlink:href="#c"/></g><g><use fill="#cbe3ff" xlink:href="#d"/><use fill="url(#j)" fill-opacity=".4" xlink:href="#d"/></g></g><path d="m436.5 166.7c-9.7 0-19 3.2-26.6 9.1l-2.4 2-2.7 2.6-30.8 30.6 34.2 33.3 1.5 1.2a44 44 0 0 0 69.2-23l1.3-7a44 44 0 0 0 -43.8-48.6v-.1zm-145.4 44.7-34.3-33.5-1.5-1.3a43.9 43.9 0 0 0 -70.9 35 44 44 0 0 0 70.7 34.7l2.4-2"/><path d="m393.9 85.1-2-9z" fill="url(#m)" fill-rule="nonzero" transform="matrix(.92050485 .39073113 -.39073113 .92050485 206.477978 1.928316)"/><path d="m534.2 240.2a103.8 103.8 0 0 0 4.4-30 102 102 0 0 0 -164.9-80l-4.5 3.9-5 4.9 36.1 5.1 4.5 36.1 2.6-2.6 2.4-2a44 44 0 0 1 70.7 34.7l-.2 5-.5 3.4c4.8 3.2 7.4 26.7 18.5 31.1 13.6 5.7 35.3-7.6 36-9.6zm-407.8-28.4a102 102 0 0 0 164.9 80l4.5-3.9 3-3-4.4-36.2-36.1-5.2-.8.7-2.4 2a44 44 0 0 1 -70.7-34.6z" fill="#5a6f8d" stroke="#bed4ef" stroke-width="1.5"/><path d="m58.1 186v.1z" fill="url(#n)" fill-rule="nonzero" transform="matrix(.92050485 .39073113 -.39073113 .92050485 206.477978 1.928316)"/><path d="m135 170.2 16.3 32.6 36-6.8-52.3-26z"/><path d="m332.4 170.6-35.7-34.9-1.3-1.2a102 102 0 0 0 -160.4 35.5s0 0 0 0l16.2 32.7 36-6.8a44 44 0 0 1 68-19.4l1.5 1.3 34.3 33.5 58.5 56.8 42.2-40-59.4-57.6z" fill="#5a6f8d" stroke="#bed4ef" stroke-width="1.5"/><path d="m534.2 240.2-35.2 9-19-31.3-1 4.6a44 44 0 0 1 -69.4 23l-1.6-1.2-34-33.4-41.3 40.9 35.5 34.5 1.4 1.3a102 102 0 0 0 164.2-46z" fill="#5a6f8d" stroke="#bed4ef" stroke-width="1.5"/><path d="m397 189-4.7-36.3-36.1-5-23.2 23-65.4 64.6-1 1 36 5 4.7 36.3 25.8-25.7 40.5-40 23.3-23z" fill="#5a6f8d" stroke="#bed4ef" stroke-width="1.5"/><g fill-rule="nonzero" transform="translate(195.8 178)"><use fill="#316ce5" xlink:href="#e"/><use fill="url(#k)" fill-opacity=".3" xlink:href="#e"/><use fill="#000" filter="url(#o)" xlink:href="#e"/></g><path d="m253.8 217h-.1l-.3-.1-1-.1h-.5l-2.6-.5a1 1 0 0 1 -.6-.6l-.6-.1c.3-2.3.2-4.6-.3-6.9-.5-2.2-1.5-4.4-2.7-6.4l.5-.4v-.1c0-.2 0-.6.2-.7a13.8 13.8 0 0 1 2.6-1.8l.9-.5.2-.1v-.2c.7-.5.8-1.5.3-2.2-.2-.3-.7-.5-1-.5-.5 0-.8.2-1.2.4l-.3.2a5 5 0 0 0 -.6.7c0 .2-.2.3-.3.3-.5.7-1.2 1.3-2 1.7a1 1 0 0 1 -.4.2h-.3l-.7.3-2-1.9a19.7 19.7 0 0 0 -10-4v-.6c-.3-.1-.4-.3-.4-.6l.1-2.6.1-.6c0-.3 0-.6.2-.9v-.5c0-.7-.6-1.5-1.4-1.6-.4 0-.9.2-1.3.6-.3.3-.4.7-.4 1v.4l.1 1v.5c.2.9.2 1.7.2 2.7l-.3.6v.1l-.1.7c-.9 0-1.7.2-2.6.3-3.7.8-7 2.8-9.5 5.5l-.5-.3h-.4l-.5-.1c-.7-.5-1.4-1.2-1.9-1.8l-.3-.3-.6-.7c-.1 0-.2 0-.3-.2-.3-.3-.7-.4-1.1-.4-.5 0-.9.1-1 .5-.6.7-.4 1.7.2 2.2l.3.2.9.5.4.2c.8.5 1.6 1 2.2 1.6.2.1.3.5.2.7l.5.4-.2.4a18.6 18.6 0 0 0 -2.7 12.7l-.7.2c-.1.3-.3.4-.6.6l-2.6.5h-.5l-.9.1-.3.1h-.2c-.8.2-1.3 1-1.2 1.9.2.7.9 1.1 1.6 1h.3l.1-.1h.3l.9-.3.4-.2h.1l2.6-.7c.3 0 .5.1.7.3h.7a18.8 18.8 0 0 0 8.5 10.5l-.4.5c.2.3.2.6.1.9-.3.7-.7 1.5-1.2 2.2v.1c0 .2-.2.2-.3.4-.2.1-.3.5-.6.8l-.1.2c-.5.9-.2 1.8.5 2.2l.6.1c.6 0 1.1-.4 1.4-.9h.1c0-.2 0-.2.2-.3l.3-.9.1-.4 1-2.4c.2-.3.4-.4.7-.5l.3-.7a18 18 0 0 0 11 .7l2.4-.7.3.5v.1c.3 0 .6.2.7.5.4.8.8 1.5 1 2.4l.2.5c0 .3.1.7.3.9l.1.2.1.1c.3.5.9 1 1.5 1l.6-.2c.3-.2.6-.5.7-.9v-1.1l-.2-.1-.1-.3-.6-.7c0-.2-.1-.3-.3-.4v-.2c-.5-.7-.9-1.5-1.2-2.2v-.8h.2l-.3-.7c4-2.4 7-6.2 8.4-10.6h.6l.7-.2c1 .1 1.8.4 2.5.7h.1l.5.1.8.4.3.1h.2c.1.2.2.2.4.2.7 0 1.3-.5 1.5-1.1 0-.9-.7-1.5-1.4-1.7zm-22.3-2.4-2 1-2.2-1-.5-2.2 1.4-1.9h2.4l1.4 1.9zm12.6-5c.4 1.6.5 3.2.3 4.9l-7.3-2.1c-.7-.2-1.1-.9-1-1.6l.3-.5 5.8-5.3c.9 1.4 1.5 3 1.9 4.6zm-4.2-7.5-6.3 4.5c-.6.3-1.3.2-1.7-.3a.7.7 0 0 1 -.3-.5l-.4-7.9c3.4.4 6.4 1.9 8.7 4.2zm-14-4 1.6-.3-.4 7.8c0 .7-.6 1.2-1.3 1.2l-.6-.1-6.5-4.6c2-2 4.5-3.3 7.2-4zm-9.4 6.9 5.7 5.1c.6.5.6 1.3.2 1.8l-.6.4-7.5 2.2c-.3-3.3.5-6.6 2.2-9.5zm-1.3 13.1 7.6-1.3c.7 0 1.3.4 1.4 1l-.1.8-3 7.1a15.3 15.3 0 0 1 -6-7.6zm17.5 9.7a15.5 15.5 0 0 1 -8.2-.4l3.8-7c.4-.4 1-.6 1.6-.3l.6.6 3.7 6.8zm9.5-6.8a14.8 14.8 0 0 1 -4.7 4.7l-3-7.3c-.1-.7.2-1.3.7-1.5l.7-.2 7.7 1.3c-.4 1.1-.8 2.1-1.4 3z" fill="#fff" fill-rule="nonzero"/><g fill-rule="nonzero" transform="translate(402.3 178)"><use fill="#5b3bb4" xlink:href="#f"/><use fill="url(#l)" fill-opacity=".3" xlink:href="#f"/><use fill="#000" filter="url(#p)" xlink:href="#f"/></g><g fill="#fff" fill-rule="nonzero"><path d="m459.2 223.4c.2 0 .3-.3.2-.5l-5.6-16.3a.3.3 0 0 0 -.4-.2l-14.6 7.7a.3.3 0 0 0 -.2.4l3.5 9.7h15.3z"/><path d="m436 213.7c0-.2 0-.4.3-.5l13.9-7.3-1.5-4.1a.4.4 0 0 0 -.5-.3l-18.6 9.8c-.3 0-.4.3-.3.6l4.5 12.3h6.1l-3.8-10.5z"/><path d="m426.7 211c0-.2 0-.5.3-.6l17.1-9-1.4-4.3a.5.5 0 0 0 -.7-.3l-21.6 11.4a.5.5 0 0 0 -.3.6l5.6 15.4h5.9zm-8.5-1.5 5.4 14.7h-8.9-.2l-2-6.2v-.2l5.4-8.3a.2.2 0 0 1 .3 0"/></g><path d="m456.8 97.8-22.7.2-.2-23.1c0-1.4 1.1-2.5 2.5-2.5l17.8-.2c1.3 0 2.5 1.1 2.5 2.5z" fill="#5d8ced"/><path d="m441 72.4s1.7 2 1.7 6.1l.2 11.8h5v-12s-.4-4.1 2.9-7.2l-5.6.1z" fill="#6a3d7f"/><path d="m445.1 77.2a2.8 2.8 0 0 1 -2.7-2.7l-.1-8.5c0-.2.2-.3.4-.3h4.7c.3 0 .4 0 .4.3v8.4c.1 1.5-1.1 2.8-2.7 2.8" fill="#ffc4f8"/><path d="m453.7 61.4v-.9c0-4.9-4-8.8-8.8-8.8-4.9 0-8.9 4-8.9 8.8v3.6l.1.7a9 9 0 1 0 17.6-3.4" fill="#ffd9c4"/><path d="m442.2 65.2a.7.7 0 1 1 -1.4 0 .7.7 0 0 1 1.4 0m6.4 0a.7.7 0 1 1 -1.3 0 .7.7 0 0 1 1.3 0" fill="#6a3d7f"/><path d="m445.6 108-11.2 5.3 2 34h-4l-8-34.9c-.3-1.5.3-3.1 1.7-4l10.5-6.4z" fill="#c3b5ff"/><path d="m436 63.3a1.7 1.7 0 0 0 0 3.3zm17.6 0a1.7 1.7 0 0 1 0 3.3z" fill="#ff96d0"/><path d="m442.8 106.7h5.1v-27.4h-5z" fill="#6a3d7f"/><path d="m457.8 55.3a16.3 16.3 0 0 0 -10.2-3.6l.1-2.5c-3.8 0-7.4 3.8-10.3 6 2.5 3 6.2 6 10.2 6s7.7-2.9 10.2-6" fill="#a866ed"/><path d="m421.5 93.3c-.3-.5-.4-1.1-.3-1.7a84.2 84.2 0 0 1 10.9-17.7c.6-.7 3.7-1.4 3.7-1.4l.4 8.2-8.3 9.8c-.5.6-.6 1.5-.3 2.2l6.5 13.3-3.4 1z" fill="#9cbdff"/><path d="m451.3 102 10.6 6.5c1.3.8 2 2.4 1.6 4l-8 34.8h-4l2-34-11.1-5.2 9-6z" fill="#c3b5ff"/><path d="m467.8 93c.2-.5.4-1 .3-1.5-1-5-9.2-17-9.6-17.6-.6-.7-3.8-1.4-3.8-1.4l-.3 8.2 7 9.5c.5.7.7 1.5.4 2.2l-5.4 13.6 3.4 1z" fill="#9cbdff"/><path d="m435.7 106.1a2.9 2.9 0 1 1 -5.8 0 2.9 2.9 0 0 1 5.8 0m25.1.6a2.9 2.9 0 1 0 -5.7-.4 2.9 2.9 0 0 0 5.7.4" fill="#ffc4f8"/><path d="m456.6 93.6v12.4s-7 2.6-8 2.5c-1-.2-1-11-1-11l1.3-3.3zm-22.5 0v12.4s7 2.6 8 2.5c1-.2 1-11 1-11l-1.2-3.3z" fill="#a682ff"/><path d="m436.5 147.3.5 5s-5.1 8.6-7.2 8.8c-2 .2-1.1-3.4 0-5l3.5-5.1.8-3.7zm15.7 0-.6 5s5.2 8.6 7.2 8.8 1.2-3.4 0-5l-3.4-5.1-.9-3.7z" fill="#aea0ff"/><path d="m432.5 109.5h26.1c1 0 1.9-.7 2.1-1.6l2.2-9.5a3 3 0 0 0 -3-3.5l-29.9.3a3 3 0 0 0 -2.9 3.5l3.4 9.4c.3.9 1 1.4 2 1.4" fill="#fff"/><path d="m3 .1a3 3 0 0 0 -3 3.6l3.5 9.3c.3.8 1.1 1.4 2 1.4h4.7l11.2-14.4-18.5.1z" fill="#dfdef6" mask="url(#q)" transform="translate(427 95)"/><path d="m447.4 103.4c0 1.4-1.2 2.5-2.7 2.5-1.4 0-2.6-1.1-2.6-2.5 0-1.3 1.2-2.4 2.6-2.4 1.5 0 2.7 1.1 2.7 2.4" fill="#ac92ea"/></g></svg>