<svg version="1.1" viewBox="0 0 314.26 314.26" xmlns="http://www.w3.org/2000/svg" style="background-color:#fff">
 <defs>
  <style>.cls-1{fill:#e00;}</style>
 </defs>
 <g transform="translate(18.005 41.502)">
  <path class="cls-1" d="m271.25 3.7014h-59.348a4.9996 4.9996 0 0 0-5 5v40.793h-42.299l5.4972-9.5215a4.9997 4.9997 0 0 0-1.8301-6.8301l-51.396-29.674a4.9989 4.9989 0 0 0-6.8301 1.8301l-20.748 35.937-0.0021 0.0029-0.0015 0.0033-20.511 35.527-9.2e-4 0.0012-6.1e-4 0.0014-66.115 114.51a4.9997 4.9997 0 0 0 1.8301 6.8301l51.396 29.674a4.9989 4.9989 0 0 0 6.8301-1.8301l84.833-146.94v144.44a4.9996 4.9996 0 0 0 5 5h118.7a4.9996 4.9996 0 0 0 5-5v-214.76a4.9996 4.9996 0 0 0-5-5zm-54.348 50.793v-9.5654h49.348v31.028h-49.348zm-10 131.27h-49.348v-24.19h49.348zm10-15.589v-84.221h49.348v84.221zm49.348-156.48v21.228h-49.348v-21.228zm-143.57 88.412-42.736-24.674 15.514-26.871 42.736 24.674zm-6.4727-87.484 42.736 24.674-15.75 27.279-42.736-24.674zm-59.643 202-42.736-24.674 61.115-105.86 42.736 24.674zm102.27-157.13h48.072v92.082h-49.348v-89.873zm-1.2752 136.27h49.348v22.692h-49.348zm59.348 22.692v-38.281h49.348v38.281z"/>
 </g>
</svg>
