<svg xmlns="http://www.w3.org/2000/svg" viewBox="-2.5 -2.5 505.7 89.6"><path d="M79.8 18.8a6.5 6.5 0 00-3.2-3.7L46.1.5c-.8-.4-1.7-.5-2.5-.5s-1.7 0-2.5.2L10.6 14.9c-1.5.7-2.6 2-3 3.7L.1 51.5c-.3 1.7.1 3.4 1.1 4.8l21.1 26.1c1.2 1.2 2.9 2 4.6 2.1h33.6a5 5 0 004.6-2.1l21.1-26.1c1-1.4 1.4-3.1 1.2-4.8l-7.6-32.7z" fill="#326de6"/><path d="M75.1 50.2l-.2-.1-.4-.1-1.2-.1-.6-.1h-.1c-1.1-.1-2.3-.3-3.4-.6-.3-.1-.6-.4-.7-.7.1 0 0 0 0 0l-.8-.2a26 26 0 00-.4-8.8 27 27 0 00-3.5-8.2l.6-.6v-.1c0-.3.1-.7.3-.9a18 18 0 012.8-2l.6-.3 1.1-.6.3-.2c.1-.1 0-.1 0-.2.9-.7 1.1-1.9.4-2.8a2 2 0 00-1.4-.7c-.5 0-1 .2-1.4.5l-.1.1-.3.2-.8.9-.4.4c-.7.8-1.6 1.6-2.5 2.2l-.6.2-.4-.1h-.1l-.8.5-2.5-2.4a25.6 25.6 0 00-13-5.2l-.1-.8v.1c-.3-.2-.4-.5-.5-.8 0-1.1 0-2.2.2-3.4v-.1l.1-.6.2-1.2v-.6c.1-1-.7-2-1.7-2.1-.6-.1-1.2.2-1.7.7a2 2 0 00-.6 1.4v.5l.2 1.2.1.6v.1c.2 1.1.2 2.2.2 3.4-.1.3-.2.6-.5.8v.2l-.1.8-3.4.5c-4.7 1-9 3.5-12.3 7l-.6-.4H25l-.4.1-.6-.2c-.9-.7-1.8-1.5-2.5-2.3l-.4-.4-.8-.9-.3-.2-.1-.1c-.4-.3-.9-.5-1.4-.5-.6 0-1.1.2-1.4.7-.6.9-.4 2.1.4 2.8l.1.1.3.2 1.1.6.6.3c1 .6 2 1.2 2.8 2 .2.2.4.6.3.9v-.1l.6.6-.3.5A23.7 23.7 0 0019.5 48l-.8.2-.1.1c-.1.3-.4.5-.7.7-1.1.3-2.2.5-3.4.6l-.6.1-1.2.1-.4.1-.2.1a2 2 0 00-1.6 2.3c.2.9 1.1 1.5 2 1.4l.5-.1.1-.1c0-.1.3 0 .4 0l1.1-.4.6-.2h.1c1.1-.4 2.1-.7 3.3-.9h.1c.3 0 .6.1.8.3l.1.1.9-.1a24.1 24.1 0 0010.9 13.5l-.5.7.1.1c.2.3.2.7.1 1-.4 1-1 2-1.6 2.9v.1l-.4.5-.7 1-.2.3-.1.1a2 2 0 00.8 2.7l.7.2c.8 0 1.5-.5 1.9-1.2l.1-.1.2-.3.4-1.1.2-.6c.3-1.1.8-2.1 1.3-3.1.2-.3.5-.5.8-.6l.1-.1.4-.8a23.5 23.5 0 0014.1.9c1.1-.2 2.2-.6 3.2-.9l.4.7.1.1c.3.1.6.3.8.6.5 1 1 2 1.3 3.1v.1l.2.6.4 1.1.2.3.1.1c.4.7 1.1 1.2 1.9 1.2l.8-.2c.4-.2.8-.6.9-1.1.1-.5.1-1-.1-1.5l-.1-.1-.2-.3-.7-1-.4-.5v-.2c-.7-.9-1.2-1.9-1.6-2.9-.1-.3-.1-.7.1-1l.1-.1-.3-.8c5.1-3.1 9-7.9 10.8-13.6l.8.1.1-.1c.2-.2.5-.3.8-.3h.1c1.1.2 2.2.5 3.2.9h.1l.6.2 1.1.5.4.1.2.1.5.1c.9 0 1.7-.6 2-1.4a2.4 2.4 0 00-1.8-2.1zm-28.9-3.1l-2.7 1.3-2.7-1.3-.7-2.9 1.9-2.4h3l1.9 2.4-.7 2.9zm16.3-6.5c.5 2.1.6 4.2.4 6.3l-9.5-2.7c-.9-.2-1.4-1.1-1.2-2l.4-.7 7.5-6.8c1.1 1.8 1.9 3.8 2.4 5.9zM57.1 31l-8.2 5.8c-.7.4-1.7.3-2.2-.4a1 1 0 01-.3-.7l-.6-10.1c4.4.5 8.3 2.4 11.3 5.4zM39 25.9l2-.4-.5 10c0 .9-.8 1.6-1.7 1.6l-.8-.2-8.3-5.9c2.6-2.5 5.8-4.3 9.3-5.1zm-12.2 8.8l7.4 6.6c.7.6.8 1.6.2 2.3-.2.3-.4.4-.8.5l-9.7 2.8a21 21 0 012.9-12.2zm-1.7 16.9l9.9-1.7c.8 0 1.6.5 1.7 1.3.1.3.1.7-.1 1l-3.8 9.2a19.7 19.7 0 01-7.7-9.8zM47.8 64a20.2 20.2 0 01-10.6-.5l4.9-8.9c.5-.6 1.3-.8 2-.4l.8.7 4.8 8.7-1.9.4zM60 55.3a19 19 0 01-6 6l-3.9-9.4c-.2-.8.2-1.6.9-1.9l.9-.2 10 1.7a15 15 0 01-1.9 3.8z" fill="#fff"/><path fill="currentColor" d="M484.5 62.5a10 10 0 004.2-.6c.8-.4 1.3-1.3 1.2-2.2-.1-1-.7-1.9-1.6-2.2-1.5-.9-3.2-1.7-4.9-2.2-1.7-.6-3.2-1.3-4.6-2-1.3-.6-2.4-1.4-3.5-2.4-1-1-1.7-2.1-2.2-3.4-.6-1.5-.8-3.1-.8-4.7-.1-3.3 1.4-6.5 4-8.5 2.7-2.1 6.3-3.1 10.9-3.1 2.2 0 4.5.2 6.7.7 1.7.3 3.4.7 5.1 1.3l-1.9 8.5-4.1-1.2c-1.6-.4-3.3-.5-4.9-.5-3.4 0-5.1.9-5.1 2.8l.2 1.2c.2.4.5.7.9 1l1.7 1c.7.4 1.7.8 2.9 1.2 2 .7 4 1.6 5.8 2.6a11 11 0 013.6 2.8c.9.9 1.5 2 1.9 3.3.4 1.4.6 2.8.6 4.2a9.6 9.6 0 01-4.3 8.6 21.3 21.3 0 01-12 2.9c-2.9.1-5.7-.2-8.5-.9l-4.6-1.4 1.8-8.8c1.8.7 3.7 1.3 5.6 1.7 2 .1 3.9.3 5.9.3m-55.1-11c-.1-3 .5-6 1.5-8.8a19 19 0 014.1-6.4 17.9 17.9 0 0112.6-5.1c5.4 0 9.7 1.7 12.8 5 3.1 3.3 4.7 8.2 4.7 14.6l-.1 2.1-.1 2h-24.4a7.2 7.2 0 003.1 5.3 13 13 0 007.4 2c1.9 0 3.9-.2 5.8-.5 1.6-.3 3.2-.8 4.7-1.5L463 69c-.7.4-1.5.6-2.3.9-1.1.3-2.2.6-3.3.7l-3.8.6-4.1.2a23 23 0 01-9-1.5c-2.4-.9-4.5-2.3-6.3-4.1-1.7-1.8-2.9-4-3.7-6.3a32 32 0 01-1.1-8m25.3-4.1c0-.9-.2-1.8-.5-2.7-.2-.9-.7-1.6-1.2-2.3a6.8 6.8 0 00-2.1-1.7c-1-.5-2-.7-3.1-.7s-2.1.2-3.1.7a7 7 0 00-2.2 1.6c-.6.7-1.1 1.5-1.4 2.4l-.6 2.7h14.2m-54.6-24.8l10.8-1.7v11.2h13v9h-13v13.4a10 10 0 001.2 5.4c.8 1.3 2.4 2 4.9 2a19.8 19.8 0 006.9-1.2l1.5 8.4a28.8 28.8 0 01-10.3 2c-2.5.1-5-.3-7.3-1.2-1.8-.7-3.4-1.9-4.6-3.3a14 14 0 01-2.5-5.2c-.5-2.2-.7-4.5-.6-6.7V22.6m-43.7 28.9c-.1-3 .5-6 1.5-8.8a19 19 0 014.1-6.4 17.9 17.9 0 0112.6-5.1c5.4 0 9.7 1.7 12.8 5 3.1 3.3 4.7 8.2 4.7 14.6l-.1 2.1-.1 2h-24.5a7.2 7.2 0 003.1 5.3 13 13 0 007.4 2c1.9 0 3.9-.2 5.8-.5 1.6-.3 3.2-.8 4.8-1.5L390 69c-.7.4-1.5.6-2.3.9-1.1.3-2.2.6-3.3.7l-3.8.6-4.1.2a23 23 0 01-9-1.5c-2.4-.9-4.5-2.3-6.3-4.1-1.7-1.8-2.9-4-3.7-6.3a25 25 0 01-1.1-8m25.3-4.1c0-.9-.2-1.8-.5-2.7-.2-.9-.7-1.6-1.2-2.3a6.8 6.8 0 00-2.1-1.7c-1-.5-2-.7-3.1-.7a6.7 6.7 0 00-5.2 2.3c-.6.7-1.1 1.5-1.4 2.4l-.6 2.7h14.1m-66.3-14a55.8 55.8 0 0116.2-2.2 22 22 0 018 1.3c2 .7 3.8 1.9 5.1 3.5 1.3 1.6 2.2 3.5 2.7 5.5.6 2.3.8 4.7.8 7.1v21.5h-10.7V50c0-3.5-.5-5.9-1.4-7.4-.9-1.4-2.6-2.2-5.1-2.2l-2.5.1-2.3.2v29.4h-10.8V33.4m-7.6 8.3l-3.4-.7a20 20 0 00-4.2-.4l-2.5.2-2.1.4v29.1h-10.8V34.1a52.7 52.7 0 0115.6-2.8l2.1.1 2.5.3a25.7 25.7 0 014.6 1l-1.8 9m-67.1 9.8c-.1-3 .5-6 1.5-8.8a19 19 0 014.1-6.4 17.9 17.9 0 0112.6-5.1c5.4 0 9.7 1.7 12.8 5 3.1 3.3 4.7 8.2 4.7 14.5l-.1 2.1-.1 2h-24.5a7.2 7.2 0 003.1 5.3 13 13 0 007.4 2 25.4 25.4 0 0010.5-1.9l1.5 8.8c-.7.4-1.5.6-2.3.9-1.1.3-2.2.6-3.3.7l-3.8.6-4.1.2a23 23 0 01-9-1.5c-2.4-.9-4.5-2.3-6.3-4.1-1.7-1.8-2.9-4-3.7-6.3-.6-2.7-1-5.3-1-8m25.4-4.1c0-.9-.2-1.8-.5-2.7-.2-.9-.7-1.6-1.2-2.3a6.8 6.8 0 00-2.1-1.7c-1-.5-2-.7-3.1-.7s-2.1.2-3.1.7a7 7 0 00-2.2 1.6c-.6.7-1.1 1.5-1.4 2.4l-.6 2.7h14.2m-42.9 3.5c0-7-2.6-10.4-7.7-10.4-1.1 0-2.2.1-3.3.4-.9.2-1.8.6-2.6 1.1v19.6a30.3 30.3 0 004.7.4c2.6.2 5.1-.9 6.7-3 1.5-2.4 2.3-5.2 2.2-8.1m11 .4c0 2.8-.4 5.6-1.4 8.3a16.9 16.9 0 01-10 10.4 24 24 0 01-8.4 1.4l-4.1-.2-4.2-.4-3.9-.7a13 13 0 01-3.3-.9V15.7l10.8-1.7v19a20 20 0 0115.2-.1c2 .9 3.8 2.3 5.2 4 1.5 1.9 2.6 4 3.2 6.3.6 2.5.9 5.3.9 8.1m-45.6 17.6a55.8 55.8 0 01-16.2 2.1c-2.8.1-5.5-.4-8.1-1.3-2-.8-3.7-2-5.1-3.6a15 15 0 01-2.7-5.7 29 29 0 01-.8-7.2V32.1h10.8V52c0 3.5.5 6 1.4 7.5.9 1.5 2.6 2.3 5.1 2.3l2.5-.1c.9-.1 1.6-.1 2.3-.3V32.1h10.8v36.8m-63-23l3.3-3.6 3.3-3.7 3-3.5 2.5-2.9h12.8l-7.5 8.5c-2.5 2.7-5.1 5.5-8 8.3a137.3 137.3 0 0113 16.1c1.2 1.9 2.2 3.7 3 5.3h-12.4l-2.7-4.1-3.1-4.6a49.4 49.4 0 00-7.2-7.9v16.7h-10.8V15.7l10.8-1.7v31.9"/></svg>