<svg xmlns="http://www.w3.org/2000/svg" xmlns:xlink="http://www.w3.org/1999/xlink" viewBox="0 0 324 86"><defs><linearGradient x1="15.5%" y1="0%" x2="84.5%" y2="100%" id="c"><stop stop-color="#70A1FF" offset="0%"/><stop stop-color="#645BFF" offset="100%"/></linearGradient><linearGradient x1="50%" y1="0%" x2="50%" y2="100%" id="d"><stop stop-color="#C8B9FF" offset="0%"/><stop stop-color="#83A4FF" offset="100%"/></linearGradient><linearGradient x1="68.2%" y1="31.6%" x2="37.7%" y2="68.4%" id="e"><stop stop-color="#9852FF" offset="0%"/><stop stop-color="#2A58D6" offset="100%"/></linearGradient><linearGradient x1="50%" y1="0%" x2="50%" y2="100%" id="f"><stop stop-color="#C8B9FF" offset="0%"/><stop stop-color="#83A4FF" offset="100%"/></linearGradient><linearGradient x1="37.7%" y1="0%" x2="62.3%" y2="100%" id="g"><stop stop-color="#70A1FF" offset="0%"/><stop stop-color="#645BFF" offset="100%"/></linearGradient><linearGradient x1="65.2%" y1="0%" x2="39.8%" y2="100%" id="h"><stop stop-color="#9852FF" offset="0%"/><stop stop-color="#2A58D6" offset="100%"/></linearGradient><linearGradient x1="50%" y1="0%" x2="50%" y2="100%" id="i"><stop stop-color="#C8B9FF" offset="0%"/><stop stop-color="#83A4FF" offset="100%"/></linearGradient><linearGradient x1="22.7%" y1="0%" x2="80.7%" y2="87.6%" id="k"><stop stop-color="#F1FCFF" offset="0%"/><stop stop-color="#B5D4FF" offset="100%"/></linearGradient><linearGradient x1="12.5%" y1="35.4%" x2="112.5%" y2="64.6%" id="l"><stop stop-color="#591D7D" offset="0%"/><stop stop-color="#404CF8" offset="100%"/></linearGradient><path d="M46.7 1.9l25.7 12.4a9 9 0 014.9 6l6.3 28A9 9 0 0182 56L64.1 78.4a9 9 0 01-7 3.3H28.6a9 9 0 01-7-3.3L3.7 55.9A9 9 0 012 48.4l6.4-28a9 9 0 014.8-6L39 1.8a9 9 0 017.8 0z" id="a"/><path id="j" d="M42.6 17.2l21 10.1 5.1 22.8-14.5 18.2H31L16.5 50.1l5.2-22.8z"/></defs><g fill="none" fill-rule="evenodd"><g><mask id="b" fill="#fff"><use xlink:href="#a"/></mask><g mask="url(#b)"><path d="M42.8 0l24.5 11L75 42l-6.5 8.3-7-30.6c-.3-1-1-2-2-2.4L33.3 4.4 42.8 0z" fill="url(#c)" transform="rotate(.2 42.5 97.6)"/><path d="M74.1 40.9L67.3 11l11.4 3 3.7 28.8-19 25.4h-9.2l19.3-24.5c.6-.8.9-2 .6-3z" fill="url(#d)" transform="rotate(.2 42.5 97.6)"/><path d="M84.6 52.3l-18 23.4-30.5.2-5.7-7.6h31.3c1.1 0 2.1-.6 2.8-1.5L82.4 43l2.2 9.4z" fill="url(#e)" transform="rotate(.2 42.5 97.6)"/><path d="M38.3 75.4H68l-7.4 7.4-28.2-.2-.5-1.6-17.5-22.4 2-8.3 19.1 23.8c.7.9 1.7 1.4 2.8 1.3z" fill="url(#f)" transform="rotate(.2 42.5 97.6)"/><path d="M15.6 60l18.6 22.5h-11L6.5 59.8 13.3 31l8.3-4.2L15 57c-.2 1 0 2.2.7 3z" fill="url(#g)" transform="rotate(.2 42.5 97.6)"/><path d="M0 52.6l6.6-27.1 27.3-12.6 8.8 4.3L15 30.6c-1 .5-1.6 1.3-1.9 2.3L6.5 59.7 5 59.2 0 52.6z" fill="url(#h)" transform="rotate(.2 42.5 97.6)"/><path d="M33.2 4.4l26.3 13c1 .4 1.6 1.2 1.8 2.2l2 8-28-13.9c-1-.4-2-.5-3 0L6.6 25.5 8.2 16l25-11.6z" fill="url(#i)" transform="rotate(.2 42.5 97.6)"/></g><mask id="m" fill="#fff"><use xlink:href="#j"/></mask><use fill="url(#k)" xlink:href="#j"/><path d="M51.3 31.6L39.8 50.5a.8.8 0 01-1.3.1l-5-5.4a.8.8 0 00-.7-.2h-9.4a.8.8 0 00-.7 1.3l11.5 14.3c.2.2.4.3.7.3h9c.4 0 .6-.1.8-.4l16.7-28a.8.8 0 00-.7-1.3H52c-.3 0-.6.1-.7.4z" fill="url(#l)" mask="url(#m)"/></g><path d="M111.4 57.1V40.8h.1L126.3 57h6.4L116.4 40l15.4-14.5h-6.2l-14.1 14v-14H107V57h4.4zm30.7.6a7.8 7.8 0 006.9-4 39 39 0 00.2 3.4h4a45 45 0 01-.2-4.5V35.9h-4.2v11.3c0 2.1-.5 3.8-1.5 5a5 5 0 01-4.1 2c-1 0-1.8-.2-2.4-.6a4 4 0 01-1.5-1.4 6 6 0 01-.8-2l-.2-2.5V35.9h-4.2v13.2c0 1.2.2 2.3.5 3.3s.8 2 1.4 2.8c.7.8 1.5 1.4 2.5 1.8 1 .5 2.2.7 3.6.7zm29.6 0c1.6 0 3-.3 4.4-.9a10 10 0 005.5-6 12.5 12.5 0 00-2.2-12.2 10 10 0 00-7.6-3.2 9 9 0 00-7.6 3.7h-.1V23.3h-4.2v33.8h4v-3.3h.1c.9 1.3 2 2.2 3.3 3 1.4.6 2.8 1 4.4 1zm-.7-3.5a6.7 6.7 0 01-5.2-2.3 8.3 8.3 0 010-10.7 6.9 6.9 0 015.2-2.4 7 7 0 013 .7c.9.4 1.6 1 2.2 1.7.6.7 1 1.5 1.4 2.4a9.3 9.3 0 010 5.8c-.3.9-.8 1.7-1.4 2.4a6.7 6.7 0 01-5.2 2.4zm26.4 3.5a10.5 10.5 0 009.1-4.3l-2.9-2.4c-.6.9-1.4 1.7-2.5 2.3a7 7 0 01-3.7 1 7 7 0 01-6.2-4c-.4-.8-.6-1.6-.6-2.5h16.8v-1.4c0-1.7-.2-3.3-.7-4.6a9.9 9.9 0 00-2-3.5c-1-1-2-1.7-3.3-2.2-1.2-.5-2.6-.7-4.2-.7a11.3 11.3 0 00-7.8 3c-1 1-1.8 2.3-2.3 3.6-.6 1.4-.8 3-.8 4.6 0 1.6.2 3.2.8 4.5A10.3 10.3 0 00193 57c1.3.5 2.8.8 4.4.8zm5.8-13h-12.6c0-.9.2-1.7.6-2.4a6.7 6.7 0 013.5-3.2c.8-.3 1.6-.4 2.5-.4 1 0 1.9.1 2.6.4a5.3 5.3 0 013 3.2l.4 2.4zM231.5 57v-3.9h-14.2V25.5H213V57h18.6zM237 31c.8 0 1.5-.3 2-.8.6-.5.8-1.1.8-2 0-.7-.2-1.3-.8-1.9-.5-.5-1.2-.7-2-.7a2.7 2.7 0 00-2.7 2.7c0 .7.2 1.4.8 1.9.5.5 1.2.8 2 .8zm2.1 26.1V36H235v21.2h4.2zm11 0V46c0-2.2.5-3.8 1.6-5.1a5 5 0 014-2c1 0 1.9.3 2.5.6a4 4 0 011.5 1.5c.3.6.6 1.2.7 2l.2 2.5V57h4.2V44c0-1.2-.1-2.3-.5-3.4-.3-1-.8-2-1.4-2.7a7.2 7.2 0 00-2.5-1.8c-1-.5-2.1-.7-3.5-.7a8 8 0 00-5.8 2.4c-.5.5-.8 1-1 1.6h-.2a39 39 0 00-.2-3.5h-4a45 45 0 01.2 4.6v16.6h4.2zm28 .4a11.3 11.3 0 003.6-.6l-.2-3.4-1.2.4-1.2.1c-1 0-1.8-.3-2.3-.8-.5-.6-.7-1.5-.7-2.8v-11h5.6v-3.5h-5.6v-6H272v6h-4v3.5h4v11.5c0 2.2.6 3.8 1.6 5 1 1 2.6 1.6 4.6 1.6zm17.2.2a10.5 10.5 0 009.1-4.3l-3-2.4a7 7 0 01-6.2 3.2 7 7 0 01-6.2-3.9c-.4-.8-.6-1.6-.6-2.5h16.8v-1.4c0-1.7-.2-3.3-.7-4.6a9.9 9.9 0 00-2-3.5c-.9-1-2-1.7-3.2-2.2-1.3-.5-2.7-.7-4.2-.7a11.3 11.3 0 00-7.9 3c-1 1-1.7 2.3-2.3 3.6-.5 1.4-.8 3-.8 4.6 0 1.6.3 3.2.9 4.5A10.3 10.3 0 00291 57c1.3.5 2.8.8 4.4.8zm5.7-13h-12.6c0-.9.3-1.7.7-2.4a6.7 6.7 0 013.4-3.2c.8-.3 1.7-.4 2.6-.4a5.3 5.3 0 015.5 3.6c.2.7.4 1.5.4 2.4zM315 57V46c0-.9 0-1.8.3-2.6s.6-1.5 1.1-2.1a5.4 5.4 0 014.5-2.1 8 8 0 012 .2l.1-3.9-1.6-.1c-1.5 0-2.8.3-4 1.1-1 .8-2 1.8-2.5 3h-.2a42 42 0 00-.1-3.6h-4a45 45 0 01.2 4.6v16.6h4.2z" fill="currentColor" fill-rule="nonzero"/></g></svg>