<svg xmlns="http://www.w3.org/2000/svg" viewBox="0 0 693.96 230.56"><defs><style>.cls-1{fill:#fff;}</style></defs><g id="Three_lines" data-name="Three lines"><path class="cls-1" d="M301.80672,3.759h25.44043c11.12109,0,18.64062,6.72071,18.64062,16.56055,0,7.36035-4.47949,13.041-11.52051,15.36035L346.84773,59.761h-9.28027L325.96785,36.8H310.20711V59.761h-8.40039Zm8.40039,7.36036v18.7207h16.32031c6.56055,0,10.87988-3.75977,10.87988-9.36035,0-5.67969-4.31933-9.36035-10.87988-9.36035Z"/><path class="cls-1" d="M370.68758,60.48068a20.95457,20.95457,0,0,1-21.36133-21.12011c0-11.76075,8.96094-20.96094,20.40136-20.96094,11.2002,0,19.67969,9.28027,19.67969,21.28027v2.32031H357.24715a13.73555,13.73555,0,0,0,13.75976,11.68067,15.83726,15.83726,0,0,0,10.32031-3.60059l5.12012,5.04A24.28222,24.28222,0,0,1,370.68758,60.48068ZM357.32722,36.00021h24.16016c-1.20019-6.24023-6-10.87988-11.91992-10.87988C363.4073,25.12033,358.52644,29.51975,357.32722,36.00021Z"/><path class="cls-1" d="M428.36726,55.92111a19.2353,19.2353,0,0,1-12.48047,4.4795c-11.5205,0-20.56054-9.2002-20.56054-21.04a20.72351,20.72351,0,0,1,32.96094-16.96094V3.759l8-1.75976V59.761h-7.91993Zm-11.36035-2.48047a14.67544,14.67544,0,0,0,11.28028-4.87988V30.08029a14.89023,14.89023,0,0,0-11.28028-4.80078,13.635,13.635,0,0,0-13.84082,14.001A13.76906,13.76906,0,0,0,417.00691,53.44064Z"/><path class="cls-1" d="M463.40633,3.759h8.40039V27.76h29.75976V3.759h8.40039V59.761h-8.40039V35.36057H471.80672V59.761h-8.40039Z"/><path class="cls-1" d="M517.56551,48.08029c0-7.67968,6.24023-12.40039,16.48046-12.40039a28.741,28.741,0,0,1,11.12012,2.24024V33.59982c0-5.75976-3.43945-8.63964-9.91992-8.63964-3.75977,0-7.60059,1.04-12.64063,3.43945l-2.96-6c6.08008-2.87988,11.36036-4.16016,16.72071-4.16016,10.56054,0,16.64062,5.2002,16.64062,14.56055V59.761h-7.84082V56.24045a19.31649,19.31649,0,0,1-12.63965,4.24023C523.64558,60.48068,517.56551,55.44064,517.56551,48.08029Zm16.80078,6.48047a15.65893,15.65893,0,0,0,10.7998-3.83984v-7.041a21.15458,21.15458,0,0,0-10.48047-2.47949c-5.83984,0-9.43945,2.63965-9.43945,6.71973C525.24617,51.84006,528.92586,54.56076,534.36629,54.56076Z"/><path class="cls-1" d="M565.88679,25.76h-8.64062V19.04025h8.64062V8.63986l7.91993-1.91992V19.04025h12.001V25.76h-12.001V47.84006c0,4.16015,1.68066,5.68066,6,5.68066a15.7262,15.7262,0,0,0,5.84082-.96v6.71973a26.4748,26.4748,0,0,1-7.60059,1.20019c-7.91992,0-12.16016-3.75976-12.16016-10.7998Z"/><path class="cls-1" d="M328.6075,144.64084c-16.56055,0-29.60059-12.7207-29.60059-28.88086s13.04-28.88086,29.60059-28.88086c16.64062,0,29.68066,12.7207,29.68066,28.88086S345.24812,144.64084,328.6075,144.64084Zm0-47.12109c-10,0-17.68067,7.83984-17.68067,18.24023,0,10.32031,7.68067,18.24023,17.68067,18.24023,10.08008,0,17.76074-7.91992,17.76074-18.24023C346.36824,105.35959,338.68758,97.51975,328.6075,97.51975Z"/><path class="cls-1" d="M365.4864,102.07932h10.79981v3.44043a18.9042,18.9042,0,0,1,11.83984-4,21.401,21.401,0,0,1-.31933,42.80078,20.71541,20.71541,0,0,1-11.36036-3.2793v19.44043h-10.96Zm10.96,12.7207v16.40039a14.03468,14.03468,0,0,0,9.91993,3.83984,12.08034,12.08034,0,1,0,0-24.16015A13.44047,13.44047,0,0,0,376.44636,114.8Z"/><path class="cls-1" d="M436.84578,144.56076c-12.64063,0-22.40137-9.44043-22.40137-21.60058a21.27649,21.27649,0,0,1,21.44043-21.60059c11.84082,0,20.64063,9.60059,20.64063,22.40039v2.87988h-31.04a12.00928,12.00928,0,0,0,11.83984,8.72071,13.12263,13.12263,0,0,0,9.2002-3.36036l7.20019,6.56055A24.985,24.985,0,0,1,436.84578,144.56076ZM425.40535,118.8h20.40039c-1.36035-4.96-5.36035-8.40039-10.16016-8.40039C430.60554,110.39963,426.76472,113.6799,425.40535,118.8Z"/><path class="cls-1" d="M463.24519,102.07932h10.96v3.28027a17.89345,17.89345,0,0,1,11.67969-4.08008c9.68067,0,16.48047,6.80078,16.48047,16.56055V143.761h-10.96V119.44064c0-5.28027-3.36035-8.7207-8.64063-8.7207a9.98456,9.98456,0,0,0-8.55957,4.16016V143.761h-10.96Z"/><path class="cls-1" d="M513.24422,126.56076c6.55957,5.67969,12.24023,8.16016,18.96,8.16016,6.96,0,11.44043-2.72071,11.44043-7.041,0-3.83984-2.56055-5.75976-9.2002-6.87988l-11.12012-1.91992c-9.60058-1.59961-14.64062-6.79981-14.64062-14.96,0-10.48047,8.48047-16.96094,22.08008-16.96094A38.90565,38.90565,0,0,1,553.88484,94.8l-6.24023,8.63965c-6-4.55957-11.60059-6.71973-17.68067-6.71973-6.24023,0-10.24023,2.47949-10.24023,6.32031,0,3.43946,2.24023,5.19922,8,6.08008l10.56055,1.75977c11.20019,1.83984,16.7207,7.12011,16.7207,15.75976,0,10.96094-9.2002,17.9209-23.60059,17.9209a37.12376,37.12376,0,0,1-24.80078-9.68066Z"/><path class="cls-1" d="M561.24324,87.759l10.96-2.39941v20a17.89345,17.89345,0,0,1,11.67969-4.08008c9.68066,0,16.48047,6.80078,16.48047,16.56055V143.761h-10.96V119.44064c0-5.28027-3.36036-8.7207-8.64063-8.7207a9.98454,9.98454,0,0,0-8.55957,4.16016V143.761h-10.96Z"/><path class="cls-1" d="M607.88191,90.87912a6.24024,6.24024,0,1,1,6.24024,6.24024A6.24851,6.24851,0,0,1,607.88191,90.87912ZM619.64168,143.761h-10.96V102.07932h10.96Z"/><path class="cls-1" d="M634.60066,102.07932v-4c0-9.35938,5.60059-14.4795,15.84082-14.4795a26.73787,26.73787,0,0,1,6.47949.71973v9.2002a24.17187,24.17187,0,0,0-5.12011-.64063c-4.15918,0-6.23926,1.76074-6.23926,5.44043v3.75977H656.921v9.20019H645.5616V143.761H634.60066V111.27951h-9.28027v-9.20019Z"/><path class="cls-1" d="M669.16023,111.27951h-8.56054v-9.20019h8.56054V91.43967l10.96-2.48047v13.12012H691.961v9.20019H680.12019V129.76c0,3.9209,1.52051,5.36035,5.76075,5.36035a16.86607,16.86607,0,0,0,5.83984-.96v8.96094a34.01821,34.01821,0,0,1-8.48047,1.2793c-9.28027,0-14.08008-4.23926-14.08008-12.4004Z"/><path class="cls-1" d="M344.20808,210.72092l7.59961,7.51953a30.776,30.776,0,0,1-22.96,10.32031c-16.88086,0-29.84082-12.56055-29.84082-28.80078,0-16.32031,13.04-28.87988,29.84082-28.87988,9.04,0,18.08008,4.08008,23.28028,10.47949l-7.83985,7.76074a19.50608,19.50608,0,0,0-15.44043-7.60058c-10.16015,0-17.9209,7.84082-17.9209,18.24023A17.80253,17.80253,0,0,0,329.16707,217.841,19.22607,19.22607,0,0,0,344.20808,210.72092Z"/><path class="cls-1" d="M376.6075,185.27951c12.48047,0,22.24023,9.52051,22.24023,21.68067s-9.75976,21.60058-22.24023,21.60058-22.24121-9.44043-22.24121-21.60058S364.127,185.27951,376.6075,185.27951ZM388.127,206.96018c0-6.87989-5.04-12.16016-11.51953-12.16016-6.40039,0-11.52051,5.28027-11.52051,12.16016,0,6.7207,5.04,12.08105,11.52051,12.08105C383.087,219.04123,388.127,213.68088,388.127,206.96018Z"/><path class="cls-1" d="M405.56648,186.08029h10.96v3.12012a16.21011,16.21011,0,0,1,10.88086-3.9209,14.962,14.962,0,0,1,12.55957,6.24024,17.15212,17.15212,0,0,1,13.76074-6.24024c9.36036,0,15.91993,6.80078,15.91993,16.56055V227.761h-10.96V203.44064c0-5.28027-3.04-8.7207-7.83985-8.7207a9.3835,9.3835,0,0,0-8,4.16016,17.8289,17.8289,0,0,1,.23926,2.96V227.761h-10.96V203.44064c0-5.28027-3.04-8.7207-7.83984-8.7207a9.30277,9.30277,0,0,0-7.76075,3.76074V227.761h-10.96Z"/><path class="cls-1" d="M478.046,186.08029h10.96v3.12012a16.20755,16.20755,0,0,1,10.87988-3.9209,14.96257,14.96257,0,0,1,12.56054,6.24024,17.15078,17.15078,0,0,1,13.76075-6.24024c9.35937,0,15.91992,6.80078,15.91992,16.56055V227.761h-10.96V203.44064c0-5.28027-3.04-8.7207-7.84082-8.7207a9.3847,9.3847,0,0,0-8,4.16016,17.7241,17.7241,0,0,1,.24023,2.96V227.761h-10.96V203.44064c0-5.28027-3.04-8.7207-7.84082-8.7207a9.301,9.301,0,0,0-7.75976,3.76074V227.761h-10.96Z"/><path class="cls-1" d="M570.84578,185.27951c12.48047,0,22.24023,9.52051,22.24023,21.68067s-9.75976,21.60058-22.24023,21.60058-22.24121-9.44043-22.24121-21.60058S558.36531,185.27951,570.84578,185.27951Zm11.51953,21.68067c0-6.87989-5.04-12.16016-11.51953-12.16016-6.40039,0-11.52051,5.28027-11.52051,12.16016,0,6.7207,5.04,12.08105,11.52051,12.08105C577.32527,219.04123,582.36531,213.68088,582.36531,206.96018Z"/><path class="cls-1" d="M599.80476,186.08029h10.96v3.28028a17.88969,17.88969,0,0,1,11.68067-4.08106c9.67969,0,16.48047,6.80078,16.48047,16.56055V227.761h-10.96V203.44064c0-5.28027-3.36036-8.7207-8.64063-8.7207a9.98633,9.98633,0,0,0-8.56055,4.16016V227.761h-10.96Z"/><path class="cls-1" d="M649.16414,215.52072c4.87988,3.2002,9.12012,4.71973,13.51953,4.71973,4.88086,0,8.08105-1.75977,8.08105-4.39941,0-2.16016-1.60058-3.36036-5.20019-3.9209l-8.001-1.19922c-8.23926-1.28028-12.63965-5.36035-12.63965-12.08106,0-8.08007,6.71973-13.20019,17.36036-13.20019a30.75177,30.75177,0,0,1,17.12011,5.20019l-5.28027,7.04c-4.55957-2.71972-8.63965-4-12.87988-4-4,0-6.56055,1.60059-6.56055,4.08008,0,2.24023,1.60059,3.36035,5.68066,3.91992l8,1.2002c8.16016,1.20019,12.71973,5.44043,12.71973,11.9209,0,7.83984-7.75977,13.75976-18.24023,13.75976-7.59961,0-14.40039-2-19.12012-5.75976Z"/><path class="cls-1" d="M271.25476,3.70142H211.9071a4.99963,4.99963,0,0,0-5,5v40.793h-42.299l5.4972-9.52148a4.99968,4.99968,0,0,0-1.83008-6.83008L116.87878,3.469a4.99889,4.99889,0,0,0-6.83007,1.83008L89.30078,41.2356l-.00207.00293-.00147.00329L68.786,76.76855l-.00092.00123-.00061.0014L2.6698,191.2854a4.99968,4.99968,0,0,0,1.83008,6.83008l51.39648,29.67383a4.9989,4.9989,0,0,0,6.83008-1.83008l84.833-146.93555V223.45923a4.99962,4.99962,0,0,0,5,5H271.25476a4.99962,4.99962,0,0,0,5-5V8.70142A4.99962,4.99962,0,0,0,271.25476,3.70142Zm-54.34766,50.793V44.929h49.34766V75.95728H216.9071Zm-10,131.27247H157.55945V161.57642H206.9071Zm10-15.58887V85.95728h49.34766V170.178ZM266.25476,13.70142V34.929H216.9071V13.70142ZM122.68158,102.11359,79.94531,77.43976l15.51386-26.871L138.1955,75.24261Zm-6.47272-87.48444L158.94519,39.303,143.19543,66.58246,100.45917,41.90857Zm-59.64258,202L13.83,191.95532,74.94537,86.09991l42.73627,24.67389ZM158.83466,59.49438H206.9071v92.082H157.55945V61.70312Zm-1.27521,136.27247H206.9071v22.69238H157.55945Zm59.34765,22.69238V180.178h49.34766v38.28125Z"/></g></svg>