<svg viewBox="0 0 128 116" xmlns="http://www.w3.org/2000/svg"><g fill="none" fill-rule="evenodd" opacity=".6"><path d="m125.7 59.6-11.7-44.3-35.1-14.3z" fill="#c3e1e6"/><path d="m75.8 78.3 39.6 5.6 10.3-24.3z" fill="#9bc8d5"/><path d="m76.5 98.2 34.7 15.2 4.2-29.5z" fill="#87bdcc"/><path d="m76.5 98.2 39-14.3-39.7-5.6z" fill="#8ec1cf"/><path d="m72.3 43.8 53.4 15.8-46.8-58.6z" fill="#b7dbe0"/><path d="m75.8 78.3 49.9-18.7-53.4-15.8z" fill="#9cced5"/><path d="m50.3 53.9 8.2 21.5 13.8-31.6z" fill="#9accd4"/><path d="m58.5 75.4 17.3 3-3.5-34.6z" fill="#91c8d1"/><path d="m58.7 97.3 17-19-17.2-2.9z" fill="#90c2d0"/><path d="m58.7 97.3 17.8 1-.7-20z" fill="#8dc0cf"/><path d="m50.3 53.9 22-10.1 6.7-42.8z" fill="#b4dadf"/><path d="m52 10.3-1.7 43.6 28.6-52.9z" fill="#bcdde2"/><path d="m26.8 23 23.5 30.9 1.6-43.6z" fill="#c5e2e7"/><path d="m29.4 50 20.9 4-23.5-31z" fill="#a2d0d1"/><path d="m29.4 99.5 29.3-2.2-.2-21.9z" fill="#8bc0ce"/><path d="m16.5 76.2 42-.8-8.2-21.4z" fill="#88c3cd"/><path d="m16.5 76.2 12.9 23.3 29-24z" fill="#c5e2e7"/><path d="m16.5 76.2 33.8-22.3-21-3.8z" fill="#87c3cc"/><path d="m1 50.3 28.4-.2-2.6-27.2z" fill="#bedee3"/><path d="m1 50.3 15.5 25.9 12.9-26.2z" fill="#bedee3"/><g stroke="#fff"><path d="m79.2 2 46.8 58.6-11.7-44.3zm-2.4 97.2 34.7 15.2 4.2-29.5z"/><path d="m76 79.3.8 20 39-14.4zm3.2-77.3-6.6 42.8 53.4 15.8zm-28.6 52.9 8.2 21.5 13.8-31.6zm8.2 21.5.2 22 17-19z"/><path d="m76 79.3-17 19 17.8 1zm-23.8-68-1.6 43.6 28.6-52.9z"/></g><path d="m29.7 51 20.9 4-23.5-31z" fill="#bedee3"/><path d="m27.1 24 2.6 27 20.9 4zm-10.3 53.2 12.9 23.3 29-24z" stroke="#fff"/><path d="m16.8 77.2 33.8-22.3-21-3.8z" fill="#bedee3"/><path d="m29.7 51-13 26.2 33.9-22.3z" stroke="#fff"/><path d="m27.1 24-25.8 27.2 28.4-.2zm-25.8 27.3 15.5 25.9 12.9-26.2z" stroke="#fff"/></g></svg>