<svg viewBox="0 0 138 112" xmlns="http://www.w3.org/2000/svg" xmlns:xlink="http://www.w3.org/1999/xlink"><mask id="a" fill="#fff"><path d="m20.4 0 6.6 32.6-27-12.6z" fill="#fff" fill-rule="evenodd"/></mask><mask id="b" fill="#fff"><path d="m0 0 27 12.8-14.5 17.4z" fill="#fff" fill-rule="evenodd"/></mask><mask id="c" fill="#fff"><path d="m15.4 0 4.6 15-20 1z" fill="#fff" fill-rule="evenodd"/></mask><mask id="d" fill="#fff"><path d="m20.4 0-20.4 19.9.3-19z" fill="#fff" fill-rule="evenodd"/></mask><mask id="e" fill="#fff"><path d="m0 0 12.5 30.2-10.8 5.5z" fill="#fff" fill-rule="evenodd"/></mask><mask id="f" fill="#fff"><path d="m0 0 17.5 16.9-15.4 16z" fill="#fff" fill-rule="evenodd"/></mask><mask id="g" fill="#fff"><path d="m24.6 0-.3 19-24.3-13.8z" fill="#fff" fill-rule="evenodd"/></mask><mask id="h" fill="#fff"><path d="m22.5 0 2 32.8-24.5 5.2z" fill="#fff" fill-rule="evenodd"/></mask><mask id="i" fill="#fff"><path d="m26.5 0 1.7 35.7-28.2-20.4z" fill="#fff" fill-rule="evenodd"/></mask><mask id="j" fill="#fff"><path d="m1 0 28.2 20.3-29.2-2z" fill="#fff" fill-rule="evenodd"/></mask><mask id="k" fill="#fff"><path d="m30 0-22.5 38-7.5-26.1z" fill="#fff" fill-rule="evenodd"/></mask><mask id="l" fill="#fff"><path d="m2.3 0 24.2 13.8-26.5 15.3z" fill="#fff" fill-rule="evenodd"/></mask><mask id="m" fill="#fff"><path d="m17.8 0-2.3 29.1-15.5-11.1z" fill="#fff" fill-rule="evenodd"/></mask><mask id="n" fill="#fff"><path d="m11.8 0 7.5 26.1-19.3-26.1z" fill="#fff" fill-rule="evenodd"/></mask><mask id="o" fill="#fff"><path d="m18.7 0-1 18.4-17.7-10.7z" fill="#fff" fill-rule="evenodd"/></mask><mask id="p" fill="#fff"><path d="m31.8 0-17.8 18-14-13z" fill="#fff" fill-rule="evenodd"/></mask><mask id="q" fill="#fff"><path d="m12.5 0 19.3 26.1-31.8 5z" fill="#fff" fill-rule="evenodd"/></mask><mask id="r" fill="#fff"><path d="m3.2 0 15.5 11.2-18.7 7.8z" fill="#fff" fill-rule="evenodd"/></mask><mask id="s" fill="#fff"><path d="m19.1 0-12.5 31.1-6.6-3.6z" fill="#fff" fill-rule="evenodd"/></mask><mask id="t" fill="#fff"><path d="m0 0 29 8.4-19.3 27.6z" fill="#fff" fill-rule="evenodd"/></mask><mask id="u" fill="#fff"><path d="m0 0 36 1-3 18.8z" fill="#fff" fill-rule="evenodd"/></mask><mask id="v" fill="#fff"><path d="m22 0 14 12.9-36-1z" fill="#fff" fill-rule="evenodd"/></mask><mask id="w" fill="#fff"><path d="m15.4 0 6.6 3.6-22 12z" fill="#fff" fill-rule="evenodd"/></mask><mask id="x" fill="#fff"><path d="m20.2 0 9.8 35.9-30-1.8z" fill="#fff" fill-rule="evenodd"/></mask><mask id="y" fill="#fff"><path d="m0 0 30 1.8-15.4 15.7z" fill="#fff" fill-rule="evenodd"/></mask><mask id="z" fill="#fff"><path d="m0 0 24.9 3.2-15 26.1z" fill="#fff" fill-rule="evenodd"/></mask><mask id="A" fill="#fff"><path d="m10.3 0 14.6 17.5-24.9-3.2z" fill="#fff" fill-rule="evenodd"/></mask><g fill="none" fill-rule="evenodd" opacity=".7"><path d="m-5.2 37.8h37.3v-43h-37.3z" fill="#a6d7df" mask="url(#a)" transform="matrix(1 0 0 -1 103 71)"/><path d="m-5.2 35.4h37.3v-40.6h-37.3z" fill="#a1d3d6" mask="url(#b)" transform="matrix(1 0 0 -1 103 51.2)"/><path d="m-5.2 21.1h30.4v-26.3h-30.4z" fill="#aad9e1" mask="url(#c)" transform="matrix(1 0 0 -1 103.3 86)"/><path d="m-5.2 25h30.7v-30.1h-30.7z" fill="#acdae1" mask="url(#d)" transform="matrix(1 0 0 -1 103 71)"/><path d="m-5.2 40.9h22.9v-46h-22.9z" fill="#9fd2d5" mask="url(#e)" transform="matrix(1 0 0 -1 103 51.2)"/><path d="m-5.2 38h27.9v-43.2h-27.9z" fill="#acdae1" mask="url(#f)" transform="matrix(1 0 0 -1 101.2 103)"/><path d="m-5.2 24.2h35v-29.4h-35z" fill="#b2dde3" mask="url(#g)" transform="matrix(1 0 0 -1 78.7 70.1)"/><path d="m-5.2 43.2h35v-48.4h-35z" fill="#b4dee4" mask="url(#h)" transform="matrix(1 0 0 -1 78.7 103)"/><path d="m-5.2 40.9h38.6v-46h-38.6z" fill="#a8d6d9" mask="url(#i)" transform="matrix(1 0 0 -1 76.4 51.2)"/><path d="m-5.2 25.5h39.6v-30.7h-39.6z" fill="#a7d6d8" mask="url(#j)" transform="matrix(1 0 0 -1 75.4 35.8)"/><path d="m-5.2 43.2h40.4v-48.4h-40.4z" fill="#bae0e6" mask="url(#k)" transform="matrix(1 0 0 -1 71.2 103)"/><path d="m-5.2 34.3h36.9v-39.5h-36.9z" fill="#b5dddf" mask="url(#l)" transform="matrix(1 0 0 -1 76.4 65)"/><path d="m-5.2 34.3h28.2v-39.5h-28.2z" fill="#bde0e2" mask="url(#m)" transform="matrix(1 0 0 -1 61 65)"/><path d="m-5.2 31.3h29.7v-36.5h-29.7z" fill="#c2e4e9" mask="url(#n)" transform="matrix(1 0 0 -1 59.4 91)"/><path d="m-5.2 23.5h29v-28.7h-29z" fill="#b3dcde" mask="url(#o)" transform="matrix(1 0 0 -1 57.8 35.8)"/><path d="m-5.2 23h42.2v-28.1h-42.2z" fill="#c6e6eb" mask="url(#p)" transform="matrix(1 0 0 -1 46.9 65)"/><path d="m-5.2 36.3h42.2v-41.5h-42.2z" fill="#c8e6eb" mask="url(#q)" transform="matrix(1 0 0 -1 46.9 91)"/><path d="m-5.2 24.2h29v-29.4h-29z" fill="#bbdfe1" mask="url(#r)" transform="matrix(1 0 0 -1 57.8 47)"/><path d="m-5.2 36.3h29.5v-41.5h-29.5z" fill="#d3ecef" mask="url(#s)" transform="matrix(1 0 0 -1 40.3 91)"/><path d="m-5.2 41h39.3v-46.1h-39.3z" fill="#d3ebef" mask="url(#t)" transform="matrix(1 0 0 -1 30.5 99.5)"/><path d="m-5.2 25h46.4v-30.1h-46.4z" fill="#cde8e9" mask="url(#u)" transform="matrix(1 0 0 -1 24.9 48)"/><path d="m-5.2 18h46.4v-23.1h-46.4z" fill="#d3ecef" mask="url(#v)" transform="matrix(1 0 0 -1 24.9 60)"/><path d="m-5.2 20.8h32.4v-26h-32.4z" fill="#dbeff2" mask="url(#w)" transform="matrix(1 0 0 -1 24.9 63.6)"/><path d="m-5.2 41h40.4v-46.1h-40.4z" fill="#e0f1f4" mask="url(#x)" transform="matrix(1 0 0 -1 10.3 99.5)"/><path d="m-5.2 22.6h40.4v-27.8h-40.4z" fill="#e6f4f6" mask="url(#y)" transform="matrix(1 0 0 -1 10.3 65.4)"/><path d="m-5.2 34.5h35.2v-39.7h-35.2z" fill="#e7f4f6" mask="url(#z)" transform="matrix(1 0 0 -1 0 51.2)"/><path d="m-5.2 22.6h35.2v-27.8h-35.2z" fill="#eaf5f7" mask="url(#A)" transform="matrix(1 0 0 -1 0 65.4)"/><g stroke="#fff" stroke-width=".9"><path d="m130.4 78.1-20.4-19.9 27-12.7z"/><path d="m110 58.2 12.5-30.2 14.5 17.5z"/><path d="m125.7 93.1-15.4-16 20 1z"/><path d="m110.3 77.2-.3-19 20.4 19.9z"/><path d="m110 58.2 1.7-35.7 10.8 5.5z"/><path d="m108.2 110 2.1-32.8 15.4 16z"/><path d="m85.7 72 24.3-13.8.3 19z"/><path d="m110 58.2-26.5-15.2 28.2-20.4z"/><path d="m83.5 42.9-1-18.4 29.2-2z"/><path d="m78.2 98.1h-11.8l19.3-26z"/><path d="m64.8 35.1 17.6-10.6 1 18.4z"/><path d="m54 67 14-12.9 17.7 18z"/><path d="m66.4 98.1-12.4-31 31.8 5z"/><path d="m68 54.1-3.2-19 18.7 7.9z"/><path d="m64.8 35.1 1.5-28 16.1 17.4z"/><path d="m47.3 70.7 6.6-3.7 12.5 31.1z"/><path d="m37.5 106.6 9.8-36 19.1 27.5z"/><path d="m47.3 70.7-15.4-15.7 22 12z"/><path d="m37.5 106.6-20.2-34.1 30-1.8z"/><path d="m17.3 72.5 14.6-17.5 15.4 15.7z"/><path d="m17.3 72.5-10.3-14.3 25-3.2z"/></g></g></svg>