<svg viewBox="0 0 134 109" xmlns="http://www.w3.org/2000/svg" xmlns:xlink="http://www.w3.org/1999/xlink"><mask id="a" fill="#fff"><path d="m19.7 0 6.4 31.5-26.1-12.3z" fill="#fff" fill-rule="evenodd"/></mask><mask id="b" fill="#fff"><path d="m0 0 26.1 12.3-14 16.8z" fill="#fff" fill-rule="evenodd"/></mask><mask id="c" fill="#fff"><path d="m14.9 0 4.5 14.5-19.4.9z" fill="#fff" fill-rule="evenodd"/></mask><mask id="d" fill="#fff"><path d="m19.7 0-19.7 19.2.3-18.3z" fill="#fff" fill-rule="evenodd"/></mask><mask id="e" fill="#fff"><path d="m0 0 12.1 29.1-10.5 5.3z" fill="#fff" fill-rule="evenodd"/></mask><mask id="f" fill="#fff"><path d="m0 0 17 16.3-15 15.4z" fill="#fff" fill-rule="evenodd"/></mask><mask id="g" fill="#fff"><path d="m23.8 0-.3 18.3-23.5-13.3z" fill="#fff" fill-rule="evenodd"/></mask><mask id="h" fill="#fff"><path d="m21.7 0 2.1 31.7-23.8 5z" fill="#fff" fill-rule="evenodd"/></mask><mask id="i" fill="#fff"><path d="m25.7 0 1.6 34.4-27.3-19.6z" fill="#fff" fill-rule="evenodd"/></mask><mask id="j" fill="#fff"><path d="m1 0 27.3 19.6-28.3-1.9z" fill="#fff" fill-rule="evenodd"/></mask><mask id="k" fill="#fff"><path d="m29 0-21.7 36.6-7.3-25.2z" fill="#fff" fill-rule="evenodd"/></mask><mask id="l" fill="#fff"><path d="m2.2 0 23.5 13.3-25.7 14.8z" fill="#fff" fill-rule="evenodd"/></mask><mask id="m" fill="#fff"><path d="m17.2 0-2.2 28.1-15-10.8z" fill="#fff" fill-rule="evenodd"/></mask><mask id="n" fill="#fff"><path d="m11.4 0 7.3 25.2-18.7-25.2z" fill="#fff" fill-rule="evenodd"/></mask><mask id="o" fill="#fff"><path d="m18.1 0-1 17.7-17.1-10.2z" fill="#fff" fill-rule="evenodd"/></mask><mask id="p" fill="#fff"><path d="m30.8 0-17.2 17.3-13.6-12.5z" fill="#fff" fill-rule="evenodd"/></mask><mask id="q" fill="#fff"><path d="m12.1 0 18.7 25.2-30.8 4.8z" fill="#fff" fill-rule="evenodd"/></mask><mask id="r" fill="#fff"><path d="m3 0 15.1 10.8-18.1 7.5z" fill="#fff" fill-rule="evenodd"/></mask><mask id="s" fill="#fff"><path d="m0 0 17 10.3-15.4 16.7z" fill="#fff" fill-rule="evenodd"/></mask><mask id="t" fill="#fff"><path d="m26.4 0 1.6 27-28-12.7z" fill="#fff" fill-rule="evenodd"/></mask><mask id="u" fill="#fff"><path d="m18.5 0-12 30-6.5-3.5z" fill="#fff" fill-rule="evenodd"/></mask><mask id="v" fill="#fff"><path d="m0 0 28 8.1-18.5 26.5z" fill="#fff" fill-rule="evenodd"/></mask><mask id="w" fill="#fff"><path d="m0 0 34.9.9-3 18.3z" fill="#fff" fill-rule="evenodd"/></mask><mask id="x" fill="#fff"><path d="m21.3 0 13.7 12.4-35-.8z" fill="#fff" fill-rule="evenodd"/></mask><mask id="y" fill="#fff"><path d="m0 0 31.8 19.2-26.4 14.2z" fill="#fff" fill-rule="evenodd"/></mask><mask id="z" fill="#fff"><path d="m14.9 0 6.4 3.5-21.3 11.6z" fill="#fff" fill-rule="evenodd"/></mask><mask id="A" fill="#fff"><path d="m14.5 0 5.4 33.4-19.9-8.2z" fill="#fff" fill-rule="evenodd"/></mask><mask id="B" fill="#fff"><path d="m19.6 0 9.4 34.6-29-1.6z" fill="#fff" fill-rule="evenodd"/></mask><mask id="C" fill="#fff"><path d="m0 0 29 1.8-14.8 15z" fill="#fff" fill-rule="evenodd"/></mask><mask id="D" fill="#fff"><path d="m0 0 24.1 3-14.5 25.4z" fill="#fff" fill-rule="evenodd"/></mask><mask id="E" fill="#fff"><path d="m10 0 14 16.8-24-3z" fill="#fff" fill-rule="evenodd"/></mask><g fill="none" fill-rule="evenodd" opacity=".5"><path d="m-5 36.5h36.1v-41.5h-36.1z" fill="#a6d7df" mask="url(#a)" transform="translate(99.7 39.6)"/><path d="m-5 34.1h36.1v-39.1h-36.1z" fill="#a1d3d6" mask="url(#b)" transform="translate(99.7 58.8)"/><path d="m-5 20.4h29.4v-25.4h-29.4z" fill="#aad9e1" mask="url(#c)" transform="translate(100 25)"/><path d="m-5 24.2h29.7v-29.2h-29.7z" fill="#acdae1" mask="url(#d)" transform="translate(99.7 39.6)"/><path d="m-5 39.4h22.1v-44.4h-22.1z" fill="#9fd2d5" mask="url(#e)" transform="translate(99.7 58.8)"/><path d="m-5 36.7h27v-41.7h-27z" fill="#acdae1" mask="url(#f)" transform="translate(98 8.8)"/><path d="m-5 23.3h33.8v-28.3h-33.8z" fill="#b2dde3" mask="url(#g)" transform="translate(76.2 40.5)"/><path d="m-5 41.6h33.8v-46.6h-33.8z" fill="#b4dee4" mask="url(#h)" transform="translate(76.2 8.8)"/><path d="m-5 39.4h37.3v-44.4h-37.3z" fill="#a8d6d9" mask="url(#i)" transform="translate(74 58.8)"/><path d="m-5 24.6h38.3v-29.6h-38.3z" fill="#a7d6d8" mask="url(#j)" transform="translate(73 73.6)"/><path d="m-5 41.6h39v-46.6h-39z" fill="#bae0e6" mask="url(#k)" transform="translate(69 8.8)"/><path d="m-5 33.1h35.7v-38.1h-35.7z" fill="#b5dddf" mask="url(#l)" transform="translate(74 45.4)"/><path d="m-5 33.1h27.2v-38.1h-27.2z" fill="#bde0e2" mask="url(#m)" transform="translate(59 45.4)"/><path d="m-5 30.2h28.7v-35.2h-28.7z" fill="#c2e4e9" mask="url(#n)" transform="translate(57.5 20.3)"/><path d="m-5 22.7h28.1v-27.7h-28.1z" fill="#b3dcde" mask="url(#o)" transform="translate(56 73.6)"/><path d="m-5 22.3h40.8v-27.3h-40.8z" fill="#c6e6eb" mask="url(#p)" transform="translate(45.4 45.4)"/><path d="m-5 35h40.8v-40h-40.8z" fill="#c8e6eb" mask="url(#q)" transform="translate(45.4 20.3)"/><path d="m-5 23.3h28.1v-28.3h-28.1z" fill="#bbdfe1" mask="url(#r)" transform="translate(56 62.7)"/><path d="m-5 32h27v-37h-27z" fill="#b4d8e0" mask="url(#s)" transform="translate(56 81)"/><path d="m-5 32h37.9v-37h-37.9z" fill="#bedee5" mask="url(#t)" transform="translate(29.5 81)"/><path d="m-5 35h28.5v-40h-28.5z" fill="#d3ecef" mask="url(#u)" transform="translate(39 20.3)"/><path d="m-5 39.6h38v-44.6h-38z" fill="#d3ebef" mask="url(#v)" transform="translate(29.5 12.1)"/><path d="m-5 24.2h44.9v-29.2h-44.9z" fill="#cde8e9" mask="url(#w)" transform="translate(24.1 61.8)"/><path d="m-5 17.4h44.9v-22.4h-44.9z" fill="#d3ecef" mask="url(#x)" transform="translate(24.1 50.3)"/><path d="m-5 38.4h41.8v-43.4h-41.8z" fill="#cee8ea" mask="url(#y)" transform="translate(24.1 61.8)"/><path d="m-5 20h31.3v-25h-31.3z" fill="#dbeff2" mask="url(#z)" transform="translate(24.1 46.8)"/><path d="m-5 38.4h29.9v-43.4h-29.9z" fill="#dbeeef" mask="url(#A)" transform="translate(9.6 61.8)"/><path d="m-5 39.6h39v-44.6h-39z" fill="#e0f1f4" mask="url(#B)" transform="translate(10 12.1)"/><path d="m-5 21.8h39v-26.8h-39z" fill="#e6f4f6" mask="url(#C)" transform="translate(10 45)"/><path d="m-5 33.3h34.1v-38.3h-34.1z" fill="#e7f4f6" mask="url(#D)" transform="translate(0 58.8)"/><path d="m-5 21.8h34.1v-26.8h-34.1z" fill="#eaf5f7" mask="url(#E)" transform="translate(0 45)"/><g stroke="#fff" stroke-width=".8"><path d="m126.2 32.8-19.7 19.2 26.2 12.3z"/><path d="m106.5 52 12.2 29 14-16.8z"/><path d="m121.7 18.3-14.9 15.4 19.4-1z"/><path d="m106.8 33.7-.3 18.3 19.7-19.2z"/><path d="m106.5 52 1.6 34.4 10.6-5.3z"/><path d="m104.8 2 2 31.7 15-15.4z"/><path d="m83 38.6 23.5 13.4.3-18.3z"/><path d="m106.5 52-25.7 14.8 27.3 19.6z"/><path d="m80.8 66.8-1 17.7 28.3 1.9z"/><path d="m75.7 13.5h-11.4l18.7 25.1z"/><path d="m62.7 74.2 17.1 10.3 1-17.7z"/><path d="m52.2 43.5 13.6 12.4 17.2-17.3z"/><path d="m64.3 13.5-12 30 30.7-4.9z"/><path d="m65.8 56-3 18.2 18-7.4z"/><path d="m62.7 74.2 1.5 27.1 15.6-16.8z"/><path d="m45.8 40 6.4 3.5 12.1-30z"/><path d="m36.3 5.3 9.5 34.7 18.5-26.5z"/><path d="m45.8 40-14.9 15 21.3-11.5z"/><path d="m31 55-14.6 25.2 19.8 8.2z"/><path d="m36.3 5.3-19.5 32.9 29 1.8z"/><path d="m16.8 38.2 14.1 16.8 14.9-15z"/><path d="m6.8 52 9.7 28.2 14.4-25.2z"/><path d="m16.8 38.2-10 13.8 24.2 3z"/></g></g></svg>