<svg xmlns="http://www.w3.org/2000/svg" viewBox="0 0 29 28"><g fill="currentColor" fill-rule="evenodd"><path d="M8.9 0c.2.1.4.3.4.6s-.2.5-.5.6c-.3 0-.5-.1-.6-.4-.1-.2 0-.5.1-.7l.2-.1H9zM29 11.9l-.1.1c-.3.3-.6.3-.9 0a.6.6 0 010-.8c.3-.2.6-.2.9.1l.1.2v.4z"/><path d="M20.2 21.6a4 4 0 003.7-2.2 4 4 0 00-.3-4.3c-.3-.5-.3-.6.1-1a2 2 0 00.5-2.2 2 2 0 00-1.6-1.4c-.6 0-.8-.3-.7-.9a4 4 0 00-1.4-4 3.9 3.9 0 00-4.2-.5l-.8-.1c-2.8-2-6.3-.6-7.2 2.6-.1.4-.3.6-.7.6A3.2 3.2 0 005 12.9c.3.6.3.7 0 1.1a3.5 3.5 0 002 5.8c.5 0 .6.3.6.7v.3a3.5 3.5 0 005.8 2.7c.5-.4.7-.4 1.2 0 .7.9 1.5 1.2 2.6 1 1-.3 1.6-1 1.9-2.1.2-.9.2-.9 1-.8h.1m3-12.1c2.1.6 3.2 3.2 1.5 5.1.2.7.6 1.3.7 2a5.2 5.2 0 01-5 6.1c-.2 0-.3.1-.4.3-.6 2-2.5 3-4.3 2.5a4 4 0 01-1.7-1c-1.6 1.3-3.3 1.6-5 .7a4.6 4.6 0 01-2.6-4.4l-1.2-.5a4.5 4.5 0 01-1.4-6.6c.2-.2.2-.4 0-.6A4.2 4.2 0 017 7c.3 0 .4 0 .5-.3 1.2-3.5 5.2-5 8.4-3 .1.1.3.1.4 0 3-1.2 7 1 7 4.9v.8" stroke="currentColor"/><path d="M16.2 3c-.6 0-1.1-.6-1.1-1.2 0-.7.5-1.2 1.1-1.2.7 0 1.2.5 1.2 1.2 0 .6-.5 1.1-1.2 1.1M1.2 11.7c.6 0 1.1.5 1.1 1.1a1.2 1.2 0 11-2.3 0c0-.6.5-1.1 1.2-1.1M22 24c.7 0 1.2.5 1.2 1.1 0 .6-.5 1.2-1.2 1.2-.6 0-1.1-.6-1.1-1.2 0-.7.5-1.2 1.2-1.2M24.4 8.2c0-.7.5-1.2 1.1-1.2.7 0 1.2.5 1.2 1.2 0 .6-.6 1.1-1.2 1.1s-1.1-.5-1.1-1.1M27.8 14.9c0 .5-.4.9-.9.8a.9.9 0 01-.8-.8c0-.5.4-1 .9-.9.5 0 .8.4.8.9M13.6 26.3c.5 0 .9.3.9.8s-.4 1-.9.9a.9.9 0 01-.8-.9c0-.5.4-.8.8-.8M6.4 5c0 .5-.4.8-1 .8a.9.9 0 01-.8-.9c0-.4.5-.8 1-.8.4 0 .8.4.8.9M5.2 22.8c0 .3-.3.6-.6.5a.6.6 0 01-.5-.6c0-.3.3-.5.6-.5s.5.3.5.6M17.3 9.3c.4-.3 1-.5 1.5-.5.8 0 1.4.5 1.5 1.3a4 4 0 01-.4 2l-1.6 3.5-.3 1c-.1.8.3 1.4 1.2 1.5h.4c.5.1.7.5.7 1 0 .4-.4.7-.8.7-.7 0-1.5 0-2.2-.3-1.6-.6-2-2-1.4-3.4l1.9-4 .1-.2c.1-.3 0-.6-.3-.8a.6.6 0 00-.7.3l-.3.6-2.4 5.4c-.3.5-.8.8-1.3.6-.6-.2-.9-.8-.6-1.4l1.5-3.8v-.3c.2-.4 0-.7-.3-.8a.6.6 0 00-.7.3l-.2.3-2.1 5.8c-.4 1-1.4 1.4-2.3 1-1-.3-1.4-1.2-1.2-2.1l.6-1.7L9 10.4c.4-1.4 1.5-1.8 2.8-1.6l1.2.4c.4.2.7.1 1-.2l.4-.4c1-.7 2.1-.5 2.6.5l.2.2"/></g></svg>