<svg xmlns="http://www.w3.org/2000/svg" viewBox="0 0 238 242"><defs><linearGradient x1="27.9%" y1="0%" x2="91.4%" y2="100%" id="a"><stop stop-color="#B397FF" offset="0%"/><stop stop-color="#4F46B0" offset="100%"/></linearGradient><filter x="-51.2%" y="-51.2%" width="202.3%" height="202.3%" filterUnits="objectBoundingBox" id="b"><feOffset dy="2" in="SourceAlpha" result="shadowOffsetOuter1"/><feGaussianBlur stdDeviation="16" in="shadowOffsetOuter1" result="shadowBlurOuter1"/><feColorMatrix values="0 0 0 0 1 0 0 0 0 0.491503311 0 0 0 0 0.851256071 0 0 0 1 0" in="shadowBlurOuter1" result="shadowMatrixOuter1"/><feMerge><feMergeNode in="shadowMatrixOuter1"/><feMergeNode in="SourceGraphic"/></feMerge></filter></defs><g fill="none" fill-rule="evenodd"><path d="M120 5l64.7 31.2a24 24 0 0113 16.3l16 70.1a24 24 0 01-4.7 20.3l-44.8 56.2a24 24 0 01-18.7 9h-72a24 24 0 01-18.7-9L10 143a24 24 0 01-4.7-20.3l16-70.1a24 24 0 0113-16.3L99.1 5a24 24 0 0120.8 0z" fill="url(#a)" transform="translate(10 12)"/><g filter="url(#b)" transform="translate(55 57)" fill-rule="nonzero"><path d="M31.2 9.2a9.6 9.6 0 1110 16.5 45.2 45.2 0 1023.3-6.5 9.6 9.6 0 110-19.2 64.5 64.5 0 11-33.3 9.2z" fill="#FB53C2"/><path d="M34.5 14.6a3.4 3.4 0 113.5 5.8A51.4 51.4 0 1064.5 13a3.4 3.4 0 010-6.8 58.3 58.3 0 11-30 8.4z" fill="#FFF"/></g></g></svg>