<svg x="47" viewBox="47 0 600 125" xmlns="http://www.w3.org/2000/svg"><path d="M262.4 35.3c10.8 0 20.1 3.8 27.7 11.3a37 37 0 0111.5 27.5 39 39 0 01-11.6 28.1 37.4 37.4 0 01-27.7 11.8 36.8 36.8 0 01-27.3-11.8 38.2 38.2 0 01-11.5-27.8c0-10.8 3.8-20 11.3-27.7a37.6 37.6 0 0127.6-11.4zm-25 39.4c0 7 2.5 13.1 7.5 18.3a23.8 23.8 0 0035.4.2c5-5.1 7.5-11.4 7.5-18.6s-2.5-13.4-7.5-18.7a23.5 23.5 0 00-35.3 0c-5 5.3-7.6 11.5-7.6 18.8z" fill="#f22b29"/><path d="M325.3 63.6L325.2.4h-13.4v112.4h13.5V81.5zm50.4 44.2c0-5.9-1.5-11.6-4.4-17a39.7 39.7 0 00-8.1-11.3 27.6 27.6 0 00-5.8-4.1l-4.4-2.5a37.2 37.2 0 0021.5-28.7l1.2-6.7h-14.1l-.9 5.1c-1.3 6.9-5 12.7-11.2 17.4a34 34 0 01-15.9 6.8v12.7c6.8.8 12.5 3.1 17.2 6.9 6 4.8 9.5 11.6 10.4 20.3l.6 6.1H376zM448.3.4v72.1c0 8-2.5 14.8-7.6 20.3a24.3 24.3 0 01-18.5 8.3c-7 0-13.1-2.5-18-7.6-5-5.1-7.5-11-7.5-17.8 0-7.5 2.8-13.7 8.3-18.7a28.8 28.8 0 0122.5-7.4l4.3.7a70 70 0 018.1 3v-14a46 46 0 00-16.2-3.1 40.2 40.2 0 00-29 10.8c-7.5 7.2-11.3 16.6-11.3 28.1s3.7 20.9 11.1 28.1a39.3 39.3 0 0028.7 10.8c10.2 0 18.6-2.8 25.1-8.3v8.3h13.6V.4z" fill="currentColor"/></svg>