<svg id="Logos" xmlns="http://www.w3.org/2000/svg" viewBox="0 0 213.54 191.65"><defs><style>.cls-1{fill:#e00;}.cls-2{fill:#fff;}</style></defs><path class="cls-1" d="M50.67,143.42a4.23,4.23,0,0,0,3.8,4.2c12.3,1.1,42.3,7,47.5,20.8a.3.3,0,0,0,0,.1h10.13l0-.1c5.1-13.9,35.1-20.1,47.3-21.4,2.2-.2,3.2-2,3.2-4.2V18.92a4.38,4.38,0,0,0-4.3-4.2c-32.3.2-46.1,13.9-52,24.3-6-10.3-19.8-23.9-52.2-23.7a4.23,4.23,0,0,0-4.2,4.2Zm60-92.2a21,21,0,0,1,1.4-4.7c3.1-7.5,12.6-21.8,42.2-23.1l.1,22.8v8.4l.5,84.6c-9,1.4-31.4,5.6-43.6,16.5l-.6-100.8Zm-9.6-4.7a15.87,15.87,0,0,1,1.2,4.2l.1,4.2.6,100.8c-12.4-10.7-34.8-14.7-43.8-15.9l-.5-93-.1-23C88.67,24.82,98.17,39.22,101.07,46.52Z"/><polygon class="cls-2" points="50.17 54.92 50.17 46.52 50.17 46.72 50.17 54.92"/><path d="M185.07,46.52h-22.4v8.4h18.2v113.6H32.67V54.92h17.5v-8.4H28.47a4.23,4.23,0,0,0-4.2,4.2v122a4.23,4.23,0,0,0,4.2,4.2h156.6a4.23,4.23,0,0,0,4.2-4.2v-122A4.23,4.23,0,0,0,185.07,46.52Z"/></svg>