<svg viewBox="0 0 150 35" xmlns="http://www.w3.org/2000/svg"><g fill="none"><path d="m142 22.4c0 3 1.8 4.3 5 4.3 1 0 2-.1 2.9-.4v-3.3c-.6.2-1.3.3-2 .3-1.2 0-1.7-.5-1.7-1.7v-5.1h3.8v-3.5h-3.8v-4.3l-4.2.9v3.4h-2.8v3.5h2.8v6zm-13 .1c0-.9 1-1.3 2.3-1.3.8 0 1.7 0 2.5.3v1.7c-.8.5-1.7.7-2.6.7-1.4 0-2.2-.5-2.2-1.4m1.3 4.3c1.3 0 2.6-.3 3.8-1v.8h4v-8.7c0-3.3-2.1-5.1-5.9-5.1-2 0-4.1.5-6.4 1.5l1.5 3c1.6-.7 3-1 4.1-1 1.8 0 2.6.6 2.6 2v.6c-1-.3-2-.4-3-.4-3.6 0-5.7 1.5-5.7 4s2 4.3 5 4.3m-22.7-.2h4.5v-7h7.4v7h4.4v-18h-4.4v7h-7.4v-7h-4.5zm-16.9-6.8c0-2 1.6-3.4 3.6-3.4 1 0 2.1.3 3 1v4.7a4 4 0 0 1 -3 1.1c-2 0-3.6-1.5-3.6-3.4m6.6 6.8h4v-18.8l-4 .9v5a7 7 0 0 0 -3.6-.9 7 7 0 1 0 -.2 14h.1c1.3 0 2.6-.5 3.7-1.3v1zm-19-10.4a3 3 0 0 1 2.9 2.1h-5.7a2.8 2.8 0 0 1 2.8-2.1m-7 3.6c0 4 3.2 7 7.4 7 2.3 0 4-.6 5.7-2l-2.8-2.5c-.6.7-1.5 1-2.7 1-1.4.1-2.8-.7-3.3-2h9.7v-1.1c0-4.3-3-7.4-7-7.4a7 7 0 0 0 -7 7m-7.2-7.4c1.5 0 2.3 1 2.3 2 0 1.1-.8 2-2.3 2h-4.4v-4zm-8.8 14.1h4.4v-6.5h3.4l3.4 6.5h5l-4-7.1c2-.9 3.4-2.9 3.4-5 0-3.3-2.5-5.8-6.4-5.8h-9.2v18z" fill="#fff"/><path d="m31.1 20.2c3.1 0 7.5-.7 7.5-4.3v-.8l-1.8-7.9c-.5-1.7-.8-2.5-3.9-4a35.4 35.4 0 0 0 -9-3.2c-1.5 0-2 1.8-3.6 1.8-1.7 0-2.9-1.3-4.4-1.3s-2.5 1-3.2 3l-2.3 6.6v.5c-.1 2.2 8.8 9.5 20.7 9.6m8-2.8.4 2.5c0 3.4-3.8 5.3-8.9 5.3-11.5 0-21.5-6.7-21.5-11.1 0-.6.1-1.2.4-1.8-4.2.2-9.5 1-9.5 5.6 0 7.7 18.3 17.1 32.8 17.1 11 0 13.9-5 13.9-9 0-3-2.7-6.5-7.6-8.6" fill="#e00"/><path d="m39.1 17.4.4 2.5c0 3.4-3.8 5.3-8.9 5.3-11.5 0-21.5-6.7-21.5-11.1 0-.6.1-1.2.4-1.8l.9-2.2v.5c0 2.2 8.8 9.5 20.7 9.5 3.1 0 7.5-.6 7.5-4.2v-.8z" fill="#000"/></g></svg>