<svg viewBox="0 0 97 97" xmlns="http://www.w3.org/2000/svg"><g transform="translate(-14 -14)"><path d="m34.4 75.3a10.2 10.2 0 0 1 -20.4 0c0-5.6 4.6-10.2 10.2-10.2h10.2zm5.1 0a10.2 10.2 0 0 1 20.4 0v25.5a10.2 10.2 0 0 1 -20.4 0z" fill="#e01e5a"/><path d="m49.7 34.4a10.2 10.2 0 0 1 0-20.4c5.6 0 10.2 4.6 10.2 10.2v10.2zm0 5.1a10.2 10.2 0 0 1 0 20.4h-25.5a10.2 10.2 0 0 1 0-20.4z" fill="#36c5f0"/><path d="m90.6 49.7a10.2 10.2 0 0 1 20.4 0c0 5.6-4.6 10.2-10.2 10.2h-10.2zm-5.1 0a10.2 10.2 0 0 1 -20.4 0v-25.5a10.2 10.2 0 0 1 20.4 0z" fill="#2eb67d"/><path d="m75.3 90.6a10.2 10.2 0 0 1 0 20.4c-5.6 0-10.2-4.6-10.2-10.2v-10.2zm0-5.1a10.2 10.2 0 0 1 0-20.4h25.5a10.2 10.2 0 0 1 0 20.4z" fill="#ecb22e"/></g></svg>