<svg xmlns="http://www.w3.org/2000/svg" viewBox="0 0 211 42"><g fill="currentColor"><path d="M96 34.6c.9 0 1.8-.1 2.7-.4a7 7 0 002.4-1.2 5.9 5.9 0 002.2-4.8 5.4 5.4 0 00-2-4.4 35.5 35.5 0 00-5.9-2.4 6 6 0 01-1.4-.7l-1-1c-.2-.4-.3-.9-.3-1.5s.2-1 .4-1.5c.3-.4.6-.8 1-1a4 4 0 011.3-.7 5.6 5.6 0 013.9.4 4 4 0 011.7 1.4l2-2a7 7 0 00-2.5-1.8c-1-.5-2.3-.7-3.5-.7-.9 0-1.7.1-2.6.4a7 7 0 00-2.3 1c-.7.6-1.3 1.2-1.7 2-.5.7-.7 1.6-.7 2.7a5.1 5.1 0 001.7 4.1 7 7 0 001.8 1c.7.4 1.4.6 2 .8a109.4 109.4 0 013.6 1.4c.4.3.8.7 1 1.1a3.2 3.2 0 01-1 4.4c-.3.3-.8.5-1.3.6a5.5 5.5 0 01-4.2-.4c-.8-.5-1.5-1-2-1.8l-2.3 2c.8 1 1.8 1.7 3 2.2 1.3.5 2.6.8 4 .8zm15.3-.3a7.6 7.6 0 002.4-.4v-2.3l-.9.3h-.8c-.7 0-1.2-.1-1.6-.5-.3-.4-.4-1-.4-1.8v-7.4h3.7v-2.3H110v-4.1h-2.8v4h-2.7v2.4h2.7v7.7c0 1.4.3 2.6 1 3.3.7.7 1.8 1.1 3.1 1.1zm9 .1c1.1 0 2-.2 2.9-.6.8-.4 1.4-1 2-1.8 0 .7.1 1.4.3 2h2.5l-.2-1.2V25a5 5 0 00-.4-2.1 4.8 4.8 0 00-2.9-3 9.2 9.2 0 00-5.9.1 9 9 0 00-2.5 1.6l1.5 1.8a5.7 5.7 0 014-1.6c1 0 1.9.2 2.5.7.7.5 1 1.3 1 2.4v.4l-3.6.1c-1.1.1-2.2.3-3.1.6-1 .4-1.7.9-2.3 1.5-.6.6-.9 1.5-.9 2.5 0 .9.2 1.6.5 2.1.3.6.8 1 1.3 1.4l1.6.7 1.8.2zm.7-2.2l-1-.1c-.4 0-.7-.2-1-.4l-.7-.7a2 2 0 01-.2-1c0-.6.2-1 .6-1.4.4-.4.9-.7 1.5-.9a27.3 27.3 0 014.2-.4h.7v.7a5 5 0 01-1 3c-.8.8-1.8 1.2-3.1 1.2zm17.8 2.3c1.2 0 2.2-.2 3-.6 1-.4 1.7-1 2.3-1.7l-1.9-1.7a4 4 0 01-1.4 1.2 6 6 0 01-2 .4 4.5 4.5 0 01-3.4-1.6 5 5 0 01-1-1.6 6 6 0 011-5.5c.4-.5.9-.9 1.4-1.1a4.4 4.4 0 014 0c.5.3 1 .7 1.3 1.2l2-1.7a5.4 5.4 0 00-2.3-1.7 7.9 7.9 0 00-6 0 7.1 7.1 0 00-4 3.8 8 8 0 00-.6 3c0 1.2.2 2.2.6 3.1a7 7 0 004 4c1 .3 2 .5 3 .5zm10.6-.4v-7.4h.1L156 34h4l-7.3-7.8 6.6-6.4h-3.7l-6 6.1V11.4h-2.9v22.7h2.8zm15.7 0v-9.5h3.1l5.4 9.5h3.6l-5.9-9.8a6 6 0 003.7-1.8 5 5 0 001.5-3.8c0-1-.2-2-.6-2.7a5 5 0 00-1.7-1.8c-.7-.5-1.5-.8-2.4-1a13 13 0 00-2.9-.3h-6.8V34h3zm3.4-12H165v-6.7h3.6l1.8.1c.6.1 1.1.3 1.5.6.5.2.8.6 1 1 .3.5.5 1 .5 1.6a3 3 0 01-.4 1.6 3 3 0 01-1.1 1 6 6 0 01-1.6.7l-2 .1zm17.8 12.4c1.1 0 2.1-.2 3-.6a7.3 7.3 0 004.7-7c0-1-.2-2-.6-3a7 7 0 00-4-3.9c-1-.3-2-.5-3-.5a7.3 7.3 0 00-7 4.4c-.5 1-.7 2-.7 3a7.7 7.7 0 002.2 5.4c.6.7 1.5 1.2 2.4 1.6 1 .4 2 .6 3 .6zm0-2.4c-.7 0-1.4-.2-2-.4-.6-.3-1-.7-1.5-1.2a5 5 0 01-.9-1.6 6 6 0 011-5.5 4.4 4.4 0 013.4-1.6c.8 0 1.5.2 2 .4a5 5 0 012.4 2.8 6 6 0 01-.9 5.5c-.4.5-.9.9-1.5 1.2-.5.2-1.2.4-2 .4zm12.4 2l4-5.6 4 5.6h3.4l-5.7-7.5 5.1-6.7h-3.2l-3.6 4.8-3.4-4.8h-3.5l5.2 6.7-5.7 7.5h3.4zM73.6 40.7c.3-.1.5-.4.4-.7l-9-25s-.1-.2-.3-.2c0-.1-.2-.1-.4 0l-23 11.6c-.2.2-.3.5-.2.7L46.7 42h24l3-1.3z"/><path d="M37.2 25.8c-.1-.3 0-.6.3-.7l22-11.1-2.3-6.4-.4-.4h-.5l-29.4 15c-.3.1-.5.5-.4.9L33.6 42h9.6l-6-16.2z"/><path d="M22.5 21.7c-.1-.3 0-.7.4-.8L49.9 7 47.6.5c0-.2-.2-.3-.4-.4h-.6l-34 17.3c-.5.2-.7.6-.5 1L20.9 42H30l-7.6-20.3zM9 19.4L17.6 42h-14s-.2 0-.2-.2L0 32.4v-.2l8.6-12.8a.3.3 0 01.5 0z"/></g></svg>