<svg height="9.3604in" viewBox="0 0 898.59 898.59" width="9.3604in" xmlns="http://www.w3.org/2000/svg"><g fill="#385cad"><path d="m894.29 704.64a6.66 6.66 0 0 0 3.92-8.47l-107.43-309.45a6.46 6.46 0 0 0 -8.4-3.77l-278.72 145.2a6.66 6.66 0 0 0 -3.92 8.47l67.55 184.38h291.55z"/><path d="m451.62 520.28a6.66 6.66 0 0 1 3.92-8.47l265.85-138.5-27.31-78.71a8.25 8.25 0 0 0 -10.74-4.81l-356.18 185.55a8.51 8.51 0 0 0 -5 10.82l86 234.84h117z"/><path d="m273.12 469.81a8.51 8.51 0 0 1 5-10.82l328.17-170.94-28.39-81.8a9.57 9.57 0 0 0 -12.46-5.59l-413.25 215.28a9.86 9.86 0 0 0 -5.81 12.55l107.18 292.51h111.6z"/><path d="m110.16 440.78 102.56 280.22-169.59.08a3.3 3.3 0 0 1 -3.14-2.24l-39.81-116.43a3.34 3.34 0 0 1 .33-2.84l103.78-159.41a3.32 3.32 0 0 1 5.87.62z"/></g></svg>