<svg viewBox="0 0 170 124" xmlns="http://www.w3.org/2000/svg"><g fill="#5a7396"><path d="m155.3 100.4c.6-.2.8-.7.6-1.3l-17-48a1 1 0 0 0 -.5-.6 1 1 0 0 0 -.8 0l-44 22.5a1 1 0 0 0 -.6 1.3l10.6 28.7h46.1z"/><path d="m85.4 71.8a1 1 0 0 1 .6-1.3l42-21.6-4.3-12.2c-.1-.3-.4-.6-.7-.7-.3-.2-.7-.2-1 0l-56.3 28.8c-.7.3-1 1-.8 1.7l13.6 36.5h18.5z"/><path d="m57.2 64c-.3-.7 0-1.5.7-1.7l52-26.6-4.6-12.7c-.1-.4-.4-.7-.8-.9h-1.1l-65.4 33.5c-.7.3-1.2 1.1-.9 2l17 45.4h17.6zm-25.8-4.6 16.2 43.6h-26.8a.5.5 0 0 1 -.5-.3l-6.3-18.1v-.6l16.5-24.8a.5.5 0 0 1 1 .1z"/></g></svg>