<svg enable-background="new 0 0 400 400" version="1.1" viewBox="0 0 202.27 141.55" xmlns="http://www.w3.org/2000/svg">
 <g transform="translate(-48.863 -79.223)">
  <rect width="300" height="300" ry="49.138" fill="#fff"/>
  <g transform="matrix(5.9026 0 0 5.9026 521.4 -711.32)">
   <path transform="matrix(.16942 0 0 .16942 -88.333 120.51)" d="m149.94 79.223s-63.219 5.9e-5 -79.086 4.123c-8.4958 2.3738-15.491 9.3695-17.865 17.99-4.123 15.867-4.123 48.727-4.123 48.727s9.4e-5 32.984 4.123 48.602c2.3738 8.6206 9.2445 15.491 17.865 17.865 15.992 4.2479 79.086 4.248 79.086 4.248s63.344-5e-5 79.211-4.123c8.6208-2.3738 15.491-9.1197 17.74-17.865 4.2479-15.742 4.248-48.602 4.248-48.602s0.12484-32.984-4.248-48.852c-2.2489-8.6207-9.1194-15.491-17.74-17.74-15.867-4.3728-79.211-4.373-79.211-4.373zm-20.115 40.48 52.6 30.359-52.6 30.234z" fill="#f00"/>
  </g>
 </g>
</svg>
