<?xml version="1.0" encoding="UTF-8"?>
<!-- Aegon UK Logo  -->
<!DOCTYPE svg PUBLIC "-//W3C//DTD SVG 1.1//EN" "http://www.w3.org/Graphics/SVG/1.1/DTD/svg11.dtd">
<svg version="1.1" id="logo" xmlns="http://www.w3.org/2000/svg" xmlns:xlink="http://www.w3.org/1999/xlink" x="0px" y="0px" width="190" height="70" viewBox="0 0 319 117" enable-background="new 0 0 319 117" xml:space="preserve">
<polygon fill="#1D1D1B" points="120.1,101.5 117.6,94 281.8,94 281.8,101.5 "/>
<polygon fill="#0069B4" points="86.5,1 1,29.6 29.6,115.1 105,89.8 98,69.8 75,69.9 71.7,79 59.9,79 79.6,18.9 92.5,18.9 "/>
<polygon fill="#1D1D1B" points="144.1,29.1 113,29.1 113,42 136.6,42 136.6,51.7 113,51.7 113,68.8 146.6,68.8 146.6,79 112.6,79   101.8,46.7 101.8,18.9 144.1,18.9 "/>
<g>
	<path fill="#1D1D1B" d="M281.6,18.9c0,0,23.5,37.4,24.1,38.5c0.7,1,1.4,2.8,1.4,2.8h0.3c0,0-0.6-1.1-0.6-2.6V18.9H318V79h-11.2   l-24-38.6c0,0-0.7-0.7-1-2.2c0,0-0.2,0-0.2,0c0.4,1.3,0.4,2.2,0.4,2.2V79h-11.1V18.9H281.6z"/>
	<path fill="#1D1D1B" d="M175.8,56.2V46.2l24.6,0V79h-9.5c0,0,0-3.3,0-4.2c0-0.9,0.5-1.8,0.5-1.8l-0.3,0c-0.1,0.3-0.7,1.3-1,1.6   c-3.3,3.8-10.7,5.5-14.5,5.5C156.3,80.1,147,65.7,147,49s10-31.7,28.7-31.7c11.7,0,21.8,7.5,24.7,17c0,0.1-10.2,4.6-10.2,4.5   c-1.6-5.3-7.2-11.2-14.6-11.2c-8.8,0-16.8,6.8-16.8,21.4c0,14.6,8.1,20.6,16.9,20.6c9,0,14.4-7.2,14.7-13.4L175.8,56.2z"/>
	<path fill="#1D1D1B" d="M218.8,48.6c0,10.8,5.1,21.2,16.9,21.2c11,0,16.6-10.5,16.6-21.2c0-11.4-6.2-21.3-16.6-21.2   C224,27.4,218.8,37.2,218.8,48.6 M263.9,48.8c0,15.4-9.6,31.4-28.3,31.4c-18.9,0-28.4-16.1-28.3-31.4c0.1-17.2,10.6-31.4,28.3-31.4   C253.9,17.4,263.9,33.2,263.9,48.8"/>
</g>
<polygon fill="#0069B4" points="94.8,59.7 77.6,59.7 85.9,33.1 "/>
</svg>