<svg id="Layer_1" data-name="Layer 1" xmlns="http://www.w3.org/2000/svg" viewBox="0 0 322.838 95.2">
  <defs>
    <style>
      .cls-1 {
        fill: #005e78;
      }

      .cls-2 {
        fill: #f5720f;
      }
    </style>
  </defs>
  <title>645b8a49-4ea8-42c6-8137-400a23ecc592</title>
  <g>
    <path class="cls-1" d="M43.7,67.6a13.942,13.942,0,0,1-1.8,3.8,12.03,12.03,0,0,1-2.6,3q-6.5-.8-9.5-5.7Q23.3,75,15.6,75A17.448,17.448,0,0,1,8.75,73.75a14.039,14.039,0,0,1-4.9-3.35,13.626,13.626,0,0,1-2.9-4.8A16.733,16.733,0,0,1,0,60a17.421,17.421,0,0,1,1.45-7.35,14.124,14.124,0,0,1,4.1-5.25,18.856,18.856,0,0,1,6.2-3.2,26.088,26.088,0,0,1,7.75-1.1q5.4,0,8.4.3V40.7q0-7.6-7.4-7.6-5,0-15.2,3.5-2.8-3.1-3.4-9.3a55.5,55.5,0,0,1,21.9-4.5q7.5,0,12.3,4.2t4.8,12.7V60.2Q40.9,65.5,43.7,67.6ZM18.5,65.1q5,0,9.4-4.4V52q-1.6-.1-3.1-.2t-2.9-.1q-4.4,0-6.7,1.65T12.9,58.8a6.667,6.667,0,0,0,1.5,4.65A5.261,5.261,0,0,0,18.5,65.1Z"/>
    <path class="cls-1" d="M72.4,74.5a21.81,21.81,0,0,1-10.3-2.7V87.1q0,4.5-1.6,6.3T55,95.2H49.9l-.6-.7V24.1l.6-.7h3.7A7.463,7.463,0,0,1,61,28.3a18.8,18.8,0,0,1,13.8-5.7,14.3,14.3,0,0,1,12.7,6.95Q92,36.5,92,48.6a35.062,35.062,0,0,1-1.55,10.8,25.791,25.791,0,0,1-4.2,8.15,18.593,18.593,0,0,1-6.2,5.15A16.686,16.686,0,0,1,72.4,74.5ZM71.2,33.2q-5.4,0-9.1,5.2V61.6q4.4,2.9,8,2.9,4.2,0,6.4-4.25T78.7,48.3q0-7.8-2.1-11.45T71.2,33.2Z"/>
    <path class="cls-1" d="M120.8,74.5a21.81,21.81,0,0,1-10.3-2.7V87.1q0,4.5-1.6,6.3t-5.5,1.8H98.3l-.6-.7V24.1l.6-.7H102a7.463,7.463,0,0,1,7.4,4.9,18.8,18.8,0,0,1,13.8-5.7,14.3,14.3,0,0,1,12.7,6.95q4.5,6.951,4.5,19.05a35.062,35.062,0,0,1-1.55,10.8,25.791,25.791,0,0,1-4.2,8.15,18.593,18.593,0,0,1-6.2,5.15A16.686,16.686,0,0,1,120.8,74.5Zm-1.2-41.3q-5.4,0-9.1,5.2V61.6q4.4,2.9,8,2.9,4.2,0,6.4-4.25t2.2-11.95q0-7.8-2.1-11.45T119.6,33.2Z"/>
    <path class="cls-1" d="M215.108,67.6a13.942,13.942,0,0,1-1.8,3.8,12.03,12.03,0,0,1-2.6,3q-6.5-.8-9.5-5.7-6.5,6.3-14.2,6.3a17.448,17.448,0,0,1-6.851-1.25,14.039,14.039,0,0,1-4.9-3.35,13.626,13.626,0,0,1-2.9-4.8,16.733,16.733,0,0,1-.95-5.6,17.421,17.421,0,0,1,1.45-7.35,14.124,14.124,0,0,1,4.1-5.25,18.856,18.856,0,0,1,6.2-3.2,26.088,26.088,0,0,1,7.75-1.1q5.4,0,8.4.3V40.7q0-7.6-7.4-7.6-5,0-15.2,3.5-2.8-3.1-3.4-9.3a55.5,55.5,0,0,1,21.9-4.5q7.5,0,12.3,4.2t4.8,12.7V60.2Q212.308,65.5,215.108,67.6Zm-25.2-2.5q5,0,9.4-4.4V52q-1.6-.1-3.1-.2t-2.9-.1q-4.4,0-6.7,1.65t-2.3,5.45a6.667,6.667,0,0,0,1.5,4.65A5.261,5.261,0,0,0,189.908,65.1Z"/>
    <path class="cls-1" d="M221.234,16.8a6.838,6.838,0,0,1,1.6-6.2,6.685,6.685,0,0,1,5.5-1.8h5l.7.6v14.54l11.1-.04,1.83,9.4-12.929.054V59.4q0,4.6,4.3,4.6h6.2a18.051,18.051,0,0,1,1,5.7,12.493,12.493,0,0,1-.3,3.5,82.144,82.144,0,0,1-12,.9c-3.769,0-6.578-.724-8.9-2.95-3.344-3.2-3.177-8.025-3.1-9.25Z"/>
    <path class="cls-1" d="M271.337,34.1V73.6a23.222,23.222,0,0,1-3.149.4q-1.651.1-3.351.1t-3.35-.1a26.191,26.191,0,0,1-3.25-.4V38.8q0-5.5-4.5-5.5l-.851.054L251.152,24.1h0c1.532-.133,4.235-.25,5.536-.35s2.415-.15,3.35-.15h1.7a9.06,9.06,0,0,1,7.05,2.8A11.011,11.011,0,0,1,271.337,34.1Z"/>
    <path class="cls-1" d="M308.939,24a19.216,19.216,0,0,1,5.2-.6,25.409,25.409,0,0,1,6.5.9l.3,1-14.1,21.9,16,24.3a15.885,15.885,0,0,1-8.8,2.9,8.027,8.027,0,0,1-7-3.9l-8.2-12.5-9.3,15.6a20.23,20.23,0,0,1-5.7.6,16.443,16.443,0,0,1-6.4-1.1l-.4-.8,15.5-24.1L278.239,26a15.053,15.053,0,0,1,8.9-3,6.686,6.686,0,0,1,3.8.95,10.719,10.719,0,0,1,2.8,3.15l6.9,10.5Z"/>
    <path class="cls-1" d="M162.769,64l3.333-.035h0l1.726,9.056A90.6,90.6,0,0,1,156.969,74.1q-5.8,0-8.5-2.95t-2.7-9.25V.7l.7-.7h5q3.9,0,5.5,1.85t1.6,6.25V59.4Q158.569,64,162.769,64Z"/>
    <circle class="cls-2" cx="262.938" cy="12.07" r="7.447"/>
  </g>
</svg>