<?xml version="1.0" encoding="UTF-8"?>
<!-- Generator: Adobe Illustrator 18.0.0, SVG Export Plug-In . SVG Version: 6.00 Build 0)  -->
<!DOCTYPE svg PUBLIC "-//W3C//DTD SVG 1.1//EN" "http://www.w3.org/Graphics/SVG/1.1/DTD/svg11.dtd">
<svg version="1.1" id="Calque_1" xmlns="http://www.w3.org/2000/svg" xmlns:xlink="http://www.w3.org/1999/xlink" x="0px" y="0px" viewBox="0 0 183.9 70" enable-background="new 0 0 183.9 70" xml:space="preserve">
<g>
	<rect x="0" y="1.2" fill="#1C4B98" width="42.4" height="42.4"/>
	<polygon fill="#C30847" points="26.3,22.1 42.4,1.2 40.1,1.2 23.9,22.1  "/>
	<g>
		<rect x="-37.9" y="0" fill="none" width="266.7" height="70"/>
		<path fill="#FFFFFF" d="M32.4,31.5c0.7,2.1,2.3,7.5,2.9,7.9h-4c0,0,0-0.8-0.2-1.4c-0.2-0.6-1.6-5.3-1.6-5.3h-6.4l-1,1.4    c0,0,1.2,3.8,1.3,3.9c0.1,0.3,0.7,1.3,0.7,1.3h-3.8c0,0-0.1-0.6-0.1-0.8c0-0.2-0.4-1.3-0.4-1.3s-0.9,1-1.1,1.4    c-0.2,0.4-0.3,0.7-0.3,0.7h-3c0,0-0.1-0.6-0.1-0.8c0-0.2-0.4-1.3-0.4-1.3s-0.8,1-1.1,1.5c-0.2,0.4-0.3,0.7-0.3,0.7h-3    c0,0,0.8-0.8,1.1-1.1c0.5-0.6,2.3-3,2.3-3l-0.7-2.6H6.8c0,0-3.6,4.7-3.7,4.9c-0.1,0.1-1.2,1.6-1.2,1.8H0v-1.2c0,0,0.1-0.1,0.1-0.1    c0.1,0,2.7-3.4,5.2-6.6c2.2-2.8,4.3-5.6,4.5-5.9c0.4-0.6,1.1-2,1.1-2H14c0,0,0.1,1.3,0.2,1.6c0.1,0.3,2.1,6.8,2.1,6.9l1.1-1.4    l-1.9-5.8c0,0-0.4-1.1-0.6-1.3h3.8c0,0,0,0.6,0.1,1c0.2,0.5,1,3.4,1,3.4s2.6-3.3,2.8-3.5c0.3-0.4,0.3-1,0.3-1h3.2    c0,0-0.6,0.4-1.6,1.7c-0.3,0.4-3.7,4.7-3.7,4.7s0.3,1,0.4,1.5c0,0.1,0.1,0.2,0.1,0.2c0,0,0.1-0.1,0.2-0.2c0.9-1.1,4.8-6.3,5-6.7    c0.2-0.4,0.5-0.8,0.6-1.2h3.1c0,0,0.1,0.9,0.2,1.2L32.4,31.5z M27.7,26.6c-0.5,1-3.1,4.2-3.1,4.2h4.2c0,0-0.8-2.5-1-3.1    C27.7,27.3,27.8,26.7,27.7,26.6C27.8,26.6,27.8,26.5,27.7,26.6 M11.4,26.6c-0.5,1-3.1,4.2-3.1,4.2h4.2c0,0-0.8-2.5-1-3.1    C11.5,27.3,11.5,26.7,11.4,26.6C11.5,26.6,11.5,26.5,11.4,26.6 M17.8,36.5l1.2-1.6c-0.1-0.1-0.8-2.1-0.8-2.1l-1.1,1.5L17.8,36.5z"/>
		<path fill="#1C4B98" d="M82,62.8c0.1,0.9,1.2,1.3,2.1,1.3c0.7,0,1.7-0.3,1.7-1.1c0-0.7-0.7-0.9-1.3-1l-1.1-0.2    c-1.1-0.2-2-0.7-2-1.9c0-1.4,1.3-2,2.6-2c1.2,0,2.4,0.5,2.7,1.7l-1,0.2c-0.3-0.8-1-1.1-1.8-1.1c-0.6,0-1.5,0.2-1.5,1    c0,0.7,0.6,0.9,1.2,1l1,0.2c0.5,0.1,1,0.2,1.4,0.5c0.5,0.4,0.8,0.9,0.8,1.6c0,1.6-1.5,2.1-2.9,2.1c-1.3,0-2.7-0.6-3-2L82,62.8z"/>
		<path fill="#1C4B98" d="M93.1,64.8v-4c0-0.4,0-1-0.1-1.4c-0.2-0.5-0.7-0.8-1.2-0.8c-0.5,0-1.1,0.3-1.4,0.7    c-0.5,0.6-0.5,1.2-0.5,1.9v3.5h-1.1v-9.3h1.1v3.7h0c0.4-0.9,1.1-1.4,2.1-1.4c0.7,0,1.4,0.3,1.8,1c0.4,0.7,0.4,1.3,0.4,2.1v4H93.1z    "/>
		<path fill="#1C4B98" d="M100.8,60.6v-0.3c0-1.2-0.5-1.7-1.7-1.7c-0.9,0-1.7,0.3-1.9,1.2l-1-0.2c0.2-1.4,1.7-1.9,3-1.9    c0.7,0,1.6,0.1,2.1,0.7c0.6,0.6,0.6,1.5,0.6,2.3v2.7c0,0.5,0,1,0.1,1.4h-1.1l-0.1-1.3c-0.5,1-1.3,1.4-2.4,1.4    c-1.3,0-2.4-0.7-2.4-2.1c0-0.8,0.5-1.6,1.3-1.9c0.8-0.4,1.8-0.4,2.6-0.4H100.8z M100.8,61.4h-0.9c-1.1,0-2.8,0.1-2.8,1.6    c0,0.9,0.7,1.2,1.5,1.2c1.3,0,2.2-1.1,2.2-2.3V61.4z"/>
		<path fill="#1C4B98" d="M105,58v1.6h0c0.3-0.9,0.9-1.8,2-1.8l0.4,0v1h-0.2c-0.8,0-1.4,0.4-1.8,1.1c-0.3,0.5-0.3,0.9-0.3,1.5v3.5    h-1.1V58H105z"/>
		<path fill="#1C4B98" d="M114.3,62.9c-0.4,1.3-1.6,2-2.9,2c-2.1,0-3.2-1.7-3.2-3.6c0-1.9,1.1-3.6,3.2-3.6c2.1,0,3.1,1.8,3,3.7h-5    c0,0.5,0,1,0.3,1.6c0.3,0.6,1,1,1.8,1c0.9,0,1.5-0.5,1.8-1.3L114.3,62.9z M113.3,60.7c0-1.1-0.6-2.1-1.8-2.1c-1.2,0-1.9,1-1.9,2.1    H113.3z"/>
		<path fill="#1C4B98" d="M120.8,55.5h1.1v9.3h-1v-1.2h0c-0.4,0.9-1.1,1.4-2.2,1.4c-0.9,0-1.6-0.4-2.1-1.2c-0.5-0.7-0.7-1.6-0.7-2.4    c0-1.7,0.9-3.6,2.8-3.6c0.9,0,1.5,0.4,2,1.1V55.5z M120.8,60.8c0-0.5-0.1-1-0.4-1.4c-0.3-0.5-0.9-0.8-1.5-0.8    c-0.6,0-1.1,0.4-1.4,0.9c-0.3,0.5-0.4,1.2-0.4,1.8c0,1.1,0.3,2.8,1.8,2.8c0.6,0,1.2-0.3,1.5-0.8c0.3-0.4,0.4-0.9,0.4-1.4V60.8z"/>
		<path fill="#1C4B98" d="M129.1,62.8c0.1,0.9,1.2,1.3,2.1,1.3c0.7,0,1.7-0.3,1.7-1.1c0-0.7-0.7-0.9-1.3-1l-1.1-0.2    c-1.1-0.2-2-0.7-2-1.9c0-1.4,1.3-2,2.6-2c1.2,0,2.4,0.5,2.7,1.7l-1,0.2c-0.3-0.8-1-1.1-1.8-1.1c-0.6,0-1.5,0.2-1.5,1    c0,0.7,0.6,0.9,1.2,1l1,0.2c0.5,0.1,1,0.2,1.4,0.5c0.5,0.4,0.8,0.9,0.8,1.6c0,1.6-1.5,2.1-2.9,2.1c-1.3,0-2.7-0.6-3-2L129.1,62.8z    "/>
		<path fill="#1C4B98" d="M138.6,57.8c2,0,3,1.8,3,3.6c0,1.9-1.1,3.6-3.2,3.6c-2.1,0-3-1.8-3-3.6C135.4,59.4,136.5,57.8,138.6,57.8     M137,63.2c0.3,0.5,0.9,0.9,1.5,0.9c0.7,0,1.3-0.4,1.6-1c0.3-0.5,0.3-1.2,0.3-1.8c0-0.6-0.1-1.3-0.4-1.9c-0.3-0.5-0.9-0.8-1.5-0.8    c-0.7,0-1.3,0.4-1.6,1c-0.3,0.5-0.3,1.2-0.3,1.7C136.6,62,136.7,62.7,137,63.2"/>
		<rect x="143.6" y="55.5" fill="#1C4B98" width="1.1" height="9.3"/>
		<path fill="#1C4B98" d="M152.4,64.8h-1v-1.4h0c-0.3,0.9-1.2,1.5-2.1,1.5c-0.7,0-1.3-0.2-1.8-0.8c-0.5-0.6-0.5-1.4-0.5-2.1V58h1.1    v4.2c0,0.4,0,0.9,0.2,1.3c0.2,0.4,0.7,0.6,1.1,0.6c0.6,0,1.1-0.3,1.4-0.7c0.4-0.5,0.5-1.1,0.5-1.7V58h1.1V64.8z"/>
		<path fill="#1C4B98" d="M158,64.9l-1,0.1c-1.5,0-1.9-0.9-1.9-2.2v-4h-1.2v-0.8h1.2v-1.7l1.1-0.1v1.8h1.5v0.8h-1.5v4.2    c0,0.8,0.2,1.2,1.1,1.2L158,64V64.9z"/>
		<path fill="#1C4B98" d="M160.6,56.7h-1.2v-1.2h1.2V56.7z M160.6,64.8h-1.1V58h1.1V64.8z"/>
		<path fill="#1C4B98" d="M165.7,57.8c2,0,3,1.8,3,3.6c0,1.9-1.1,3.6-3.2,3.6c-2.1,0-3-1.8-3-3.6C162.6,59.4,163.7,57.8,165.7,57.8     M164.1,63.2c0.3,0.5,0.9,0.9,1.5,0.9c0.7,0,1.3-0.4,1.6-1c0.3-0.5,0.3-1.2,0.3-1.8c0-0.6-0.1-1.3-0.4-1.9    c-0.3-0.5-0.9-0.8-1.5-0.8c-0.7,0-1.3,0.4-1.6,1c-0.3,0.5-0.3,1.2-0.3,1.7C163.7,62,163.8,62.7,164.1,63.2"/>
		<path fill="#1C4B98" d="M171.6,59.2L171.6,59.2c0.4-0.9,1.2-1.4,2.2-1.4c0.8,0,1.5,0.4,1.9,1.1c0.4,0.6,0.3,1.5,0.3,2.2v3.8H175    v-4.3c0-0.4,0-0.9-0.2-1.3c-0.2-0.4-0.7-0.6-1.2-0.6c-0.6,0-1.1,0.3-1.4,0.7c-0.4,0.5-0.5,1.2-0.5,1.9v3.6h-1.1V58h1V59.2z"/>
		<path fill="#1C4B98" d="M178.9,62.8c0.1,0.9,1.2,1.3,2.1,1.3c0.7,0,1.7-0.3,1.7-1.1c0-0.7-0.7-0.9-1.3-1l-1.1-0.2    c-1.1-0.2-2-0.7-2-1.9c0-1.4,1.3-2,2.6-2c1.2,0,2.4,0.5,2.7,1.7l-1,0.2c-0.3-0.8-1-1.1-1.8-1.1c-0.6,0-1.5,0.2-1.5,1    c0,0.7,0.6,0.9,1.2,1l1,0.2c0.5,0.1,1,0.2,1.4,0.5c0.5,0.4,0.8,0.9,0.8,1.6c0,1.6-1.5,2.1-2.9,2.1c-1.3,0-2.7-0.6-3-2L178.9,62.8z    "/>
		<path fill="#1C4B98" d="M2.3,59.4c0.2-1,0.7-1.6,1.8-1.6l0.4,0v2.4c-0.2,0-0.3-0.1-0.5-0.1c-0.4,0-0.9,0.1-1.1,0.5    c-0.2,0.3-0.2,0.8-0.2,1.2v3H0v-6.9h2.3L2.3,59.4L2.3,59.4z"/>
		<path fill="#1C4B98" d="M12.4,62.6C12,64.2,10.5,65,8.8,65c-1,0-2-0.2-2.8-0.9c-0.7-0.7-1.1-1.6-1.1-2.6c0-0.9,0.4-1.9,1-2.6    c0.7-0.7,1.8-1.1,2.7-1.1c2.3,0,3.7,1.5,3.7,3.8v0.4H7.8c0,0.7,0.2,1.3,1.1,1.3c0.6,0,0.9-0.2,1.1-0.8L12.4,62.6z M9.7,60.6    c0-0.7-0.2-1.2-1-1.2c-0.7,0-1,0.6-1,1.2H9.7z"/>
		<path fill="#1C4B98" d="M17.5,64.9v-0.9h0c-0.4,0.8-1,1.1-1.8,1.1c-2,0-2.7-1.9-2.7-3.6c0-1.8,0.7-3.6,2.8-3.6    c0.7,0,1.2,0.3,1.7,0.7v-2.9H20v9.3H17.5z M17.4,60.6c0-0.3,0-0.6-0.2-0.8c-0.1-0.2-0.4-0.3-0.6-0.3c-0.5,0-0.7,0.3-0.8,0.7    c-0.1,0.4-0.1,0.9-0.1,1.3c0,0.6,0,1.7,0.9,1.7c0.3,0,0.4-0.1,0.6-0.4c0.2-0.3,0.2-0.5,0.2-0.9V60.6z"/>
		<path fill="#1C4B98" d="M28.4,62.6C28,64.2,26.5,65,24.8,65c-1,0-2-0.2-2.8-0.9c-0.7-0.7-1.1-1.6-1.1-2.6c0-0.9,0.4-1.9,1-2.6    c0.7-0.7,1.8-1.1,2.7-1.1c2.3,0,3.7,1.5,3.7,3.8v0.4h-4.6c0,0.7,0.2,1.3,1.1,1.3c0.6,0,0.9-0.2,1.1-0.8L28.4,62.6z M25.7,60.6    c0-0.7-0.2-1.2-1-1.2c-0.7,0-1,0.6-1,1.2H25.7z"/>
		<path fill="#1C4B98" d="M32.3,64.9h-2.7v-5h-1v-1.7h1v-0.1c0-0.7,0-1.3,0.5-1.9c0.5-0.6,1.4-0.8,2.2-0.8c0.7,0,1.3,0.1,2,0.2v1.7    c-0.6-0.1-1-0.1-1.4-0.1c-0.5,0-0.7,0.3-0.6,1H34v1.7h-1.7V64.9z"/>
		<path fill="#1C4B98" d="M37.4,57.3h-2.7v-1.8h2.7V57.3z M37.4,64.9h-2.7v-6.9h2.7V64.9z"/>
		<path fill="#1C4B98" d="M38.7,57.9h2.5v1h0c0.3-0.8,1.1-1.1,2-1.1c0.7,0,1.4,0.2,1.8,0.7c0.4,0.6,0.4,1.4,0.4,2.1v4.3h-2.7v-4.2    c0-0.4,0-1-0.6-1c-0.7,0-0.8,0.6-0.8,1.2v4h-2.7V57.9z"/>
		<path fill="#1C4B98" d="M49.4,57.3h-2.7v-1.8h2.7V57.3z M49.4,64.9h-2.7v-6.9h2.7V64.9z"/>
		<path fill="#1C4B98" d="M50.7,57.9h2.5v1h0c0.3-0.8,1.1-1.1,2-1.1c0.7,0,1.4,0.2,1.8,0.7c0.4,0.6,0.4,1.4,0.4,2.1v4.3h-2.7v-4.2    c0-0.4,0-1-0.6-1c-0.7,0-0.8,0.6-0.8,1.2v4h-2.7V57.9z"/>
		<path fill="#1C4B98" d="M59.7,61.6c-0.7-0.3-1.1-0.8-1.1-1.6c0-1.8,2-2.2,3.4-2.2c0.4,0,0.9,0,1.3,0.1c0.1-1,0.6-1.6,1.7-1.6    c0.3,0,0.6,0,1,0.1l-0.1,1.9c-0.3,0-0.4,0-0.7,0c-0.2,0-0.6,0-0.8,0.3c0.5,0.4,0.8,0.9,0.8,1.6c0,1.7-1.8,2.1-3.2,2.1    c-0.2,0-0.4,0-0.6,0c-0.4,0-0.6,0.1-0.6,0.3c0,0.3,0.2,0.3,0.7,0.3l1.9,0.1c0.6,0,1.2,0.1,1.7,0.5c0.5,0.4,0.8,1.1,0.8,1.7    c0,1-0.7,1.6-1.5,1.9c-0.7,0.3-1.8,0.3-2.6,0.3c-1.2,0-3.7-0.1-3.7-1.7c0-0.7,0.4-1.1,1-1.3c-0.4-0.3-0.6-0.6-0.6-1.1    C58.3,62.3,59,61.8,59.7,61.6 M60.8,65.7c0.4,0.1,0.9,0.1,1.3,0.1c0.4,0,1.4,0.1,1.4-0.5c0-0.5-0.5-0.4-0.8-0.4    c-0.6,0-1.2-0.1-1.8-0.1c-0.3,0-0.7,0-0.7,0.4C60.2,65.5,60.5,65.7,60.8,65.7 M62.7,60c0-0.5-0.3-0.9-0.8-0.9    c-0.5,0-0.8,0.4-0.8,0.9c0,0.6,0.3,0.8,0.9,0.8C62.4,60.8,62.7,60.5,62.7,60"/>
		<polygon fill="#C30847" points="70.2,67 79.1,55.5 77,55.5 68,67   "/>
		<polygon fill="#C30847" points="0,47 183.8,47 183.8,47.9 0,47.9   "/>
		<path fill="#1C4B98" d="M62.9,26.6c-1-0.4-2.1-0.7-3.3-0.7c-1.5,0-2.6,0.7-2.6,1.8c0,2.4,6.1,4.1,6.1,7.8c0,1.7-1.2,4.2-5.6,4.2    c-1.5,0-3-0.3-4.4-0.6l-0.3-2.9c1.3,0.6,2.7,1,4.2,1c1.1,0,2.6-0.4,2.6-1.8c0-2.5-6.1-4.2-6.1-8c0-2.8,2.7-4,5.4-4    c1.2,0,2.5,0.2,3.7,0.4L62.9,26.6z"/>
		<path fill="#1C4B98" d="M83.2,31.2c0,5.6-3.8,8.5-9.1,8.5c-4.8,0-8.7-2.5-8.7-7.6c0-5.6,3.9-8.7,9.3-8.7    C79.5,23.4,83.2,26.1,83.2,31.2 M68.9,31.8c0,3.2,2.1,5.3,5.3,5.3c3.5,0,5.4-2.5,5.4-5.9c0-3.1-1.9-5.4-5.1-5.4    C71,25.9,68.9,28.4,68.9,31.8"/>
		<path fill="#1C4B98" d="M96.4,39.4h-11c0.5-5.2,0.7-10.5,0.8-15.7h3.7c-0.1,1.4-0.6,10.2-0.7,13.2H92c1.5,0,3,0,4.5-0.1L96.4,39.4    z"/>
		<path fill="#1C4B98" d="M113.2,23.7c-0.1,1-0.5,6.9-0.6,10.2c0,1.9-0.6,5.8-7.6,5.8c-5.1,0-7.1-2.3-7.1-4.8    c0-2.2,0.4-6.1,0.5-11.2h3.6c-0.2,2.4-0.6,7.8-0.6,9.7c0,2.5,1.1,3.8,3.7,3.8c2.9,0,3.7-1.7,3.9-4.3c0.2-3.2,0.4-6.2,0.5-9.2    H113.2z"/>
		<path fill="#1C4B98" d="M127.8,23.7l-0.1,2.6c-1.5-0.1-2.9-0.1-4.9-0.1c-0.2,4-0.5,8.1-0.5,13.2h-3.7c0.3-3.9,0.5-8.7,0.7-13.2    c-3.4,0-3.8,0.1-4.9,0.1l0.1-2.6H127.8z"/>
		<path fill="#1C4B98" d="M128.7,39.4c0.3-4.8,0.6-9.4,0.6-15.7h3.7c-0.3,4.5-0.5,8.9-0.6,15.7H128.7z"/>
		<path fill="#1C4B98" d="M153.3,31.2c0,5.6-3.8,8.5-9.2,8.5c-4.8,0-8.7-2.5-8.7-7.6c0-5.6,3.9-8.7,9.3-8.7    C149.5,23.4,153.3,26.1,153.3,31.2 M138.9,31.8c0,3.2,2.1,5.3,5.3,5.3c3.5,0,5.4-2.5,5.4-5.9c0-3.1-1.9-5.4-5.1-5.4    C141,25.9,138.9,28.4,138.9,31.8"/>
		<path fill="#1C4B98" d="M159.1,27.7L159.1,27.7c-0.2,3.2-0.4,7.6-0.4,11.7h-3.3c0.5-5.2,0.7-10.5,0.8-15.7h4.3    c2.3,4.1,4.9,7.9,7.2,11.9h0c0.2-3.7,0.4-8,0.4-11.9h3.3c-0.4,5.1-0.7,10.5-0.8,15.7h-4.2L159.1,27.7z"/>
		<path fill="#1C4B98" d="M183.7,26.6c-1-0.4-2.1-0.7-3.3-0.7c-1.5,0-2.6,0.7-2.6,1.8c0,2.4,6.1,4.1,6.1,7.8c0,1.7-1.2,4.2-5.6,4.2    c-1.5,0-3-0.3-4.4-0.6l-0.3-2.9c1.3,0.6,2.7,1,4.2,1c1.1,0,2.6-0.4,2.6-1.8c0-2.5-6.1-4.2-6.1-8c0-2.8,2.7-4,5.4-4    c1.2,0,2.5,0.2,3.7,0.4L183.7,26.6z"/>
		<path fill="#1C4B98" d="M68.6,12.1c-0.2,2.5-0.3,5-0.4,8.6c-2,0.4-4,0.7-6.1,0.7c-6.1,0-9.1-2.7-9.1-7.6c0-4.2,2.7-8.7,9.8-8.7    c1.8,0,3.5,0.2,5.3,0.6l0.1,2.8c-1.6-0.5-3.3-0.9-4.9-0.9c-3.9,0-6.7,2.2-6.7,6.3c0,3.4,2.1,5,5.4,5c1,0,2.1-0.2,3.1-0.4l0.2-4.1    h-2.9l0.1-2.3H68.6z"/>
		<path fill="#1C4B98" d="M83.6,21.1h-3.8c-1.1-3-2.6-5.8-4-8.7c0.5,0.1,0.9,0.1,1.4,0.1c1.8,0,3.5-0.8,3.5-2.8    c0-1.8-1.7-2.1-3.1-2.1c-0.8,0-1.7,0-2.5,0.1c-0.1,2.1-0.4,10.9-0.4,13.3h-3.6c0.5-5.2,0.7-10.5,0.7-15.7H79c2.7,0,5.1,1,5.1,3.9    c0,2.8-1.8,4.1-4.3,4.6L83.6,21.1z"/>
		<path fill="#1C4B98" d="M103.6,12.9c0,5.6-3.8,8.5-9.1,8.5c-4.8,0-8.7-2.5-8.7-7.6c0-5.6,3.9-8.7,9.3-8.7    C99.9,5.1,103.6,7.8,103.6,12.9 M89.3,13.6c0,3.2,2.1,5.3,5.3,5.3c3.5,0,5.4-2.5,5.4-5.9c0-3.1-1.9-5.4-5.1-5.4    C91.4,7.6,89.3,10.2,89.3,13.6"/>
		<path fill="#1C4B98" d="M121,5.4c-0.1,1-0.5,6.9-0.6,10.2c0,1.9-0.6,5.8-7.6,5.8c-5.1,0-7.1-2.3-7.1-4.8c0-2.2,0.4-6.1,0.5-11.2    h3.6c-0.2,2.4-0.6,7.8-0.6,9.7c0,2.5,1.1,3.8,3.7,3.8c2.9,0,3.7-1.7,3.9-4.3c0.2-3.2,0.4-6.2,0.5-9.2H121z"/>
		<path fill="#1C4B98" d="M127.7,12.2c0.4,0.1,0.9,0.1,1.3,0.1c2.2,0,3.3-1,3.3-2.7c0-1.5-0.8-1.9-2.5-1.9c-0.8,0-1.7,0-2.5,0.1    c-0.1,1.5-0.4,9.4-0.4,13.3h-3.4c0.3-2.7,0.7-11.8,0.7-15.7h7.5c3.1,0,4.1,2.5,4.1,4.1c0,3.3-2.6,5.1-5.7,5.1    c-0.6,0-1.1,0-1.7-0.1L127.7,12.2z"/>
	</g>
</g>
</svg>