<svg id="Layer_1" data-name="Layer 1" xmlns="http://www.w3.org/2000/svg" viewBox="0 0 311.72 83.14"><defs><style>.cls-1{fill:#231f20;}.cls-2{fill:#0093d0;}.cls-3{fill:#fff;}</style></defs><title>logo</title><path class="cls-1" d="M113.06,27.39a4.88,4.88,0,0,0-5,4.77v.31a4.93,4.93,0,0,0,4.73,5.12h.36a5,5,0,0,0,5.23-4.75,2.18,2.18,0,0,0,0-.25,5,5,0,0,0-4.83-5.17h-.45Zm.11.53c2,0,2.1,2.2,2.1,4.63,0,2.65-.14,4.48-2.08,4.48s-2.13-1.81-2.13-5c0-2.25.24-4.15,2.11-4.15Z"/><path class="cls-1" d="M125.52,25.33c0,.2,0,1.14,1.23,1.14a1.16,1.16,0,0,0,1.3-1,1,1,0,0,0,0-.25c0-.83-.54-2.23-3.29-2.23a5.2,5.2,0,0,0-2.33.46c-1.48.74-1.48,2.19-1.5,3.31v.9h-1.51v.53h1.51v8.67h-1.51v.52h6v-.52h-1.61V28.18h1.65v-.53h-1.74V25.29c0-.83,0-1.75.93-1.75.66,0,.88.5.88,1v.79Z"/><path class="cls-1" d="M134.19,35.26l-.58,1.59H132v.52h4.36v-.52h-2l.48-1.47.94-2.73h3.62l.92,2.71.48,1.49h-2v.52h7.13v-.52h-1.59l-.62-1.59-3.91-10.58-.6-1.66h-.67l-4.35,12.24Zm5-3.21H136l1.2-3.35.22-.64.18-.65,1.61,4.64Z"/><path class="cls-1" d="M146.2,23.2v.52h1.52V36.85h-1.51v.52h5.86v-.52h-1.35V23.13c-.89.06-1.17.06-2.11.08Z"/><path class="cls-1" d="M161.28,30.69c0-1.45-.09-3.3-4.08-3.3-2.31,0-3.19.53-3.65,1a2,2,0,0,0-.6,1.3.91.91,0,0,0,.86,1,.69.69,0,0,0,.2,0c1,0,1.18-.61,1.18-1.09a1.36,1.36,0,0,1,.31-1.12,2,2,0,0,1,1.4-.46c1.55,0,1.59,1.08,1.61,1.78V30.8c-.81.26-1.61.52-2.43.7a17,17,0,0,0-2,.46,2.49,2.49,0,0,0-1.83,2.59c0,2,1.33,3,3.22,3a3.12,3.12,0,0,0,3.07-1.61,1.65,1.65,0,0,0,1.75,1.54h.13a17.86,17.86,0,0,0,2.37-.12v-.58h-.44c-1,0-1.06-1.05-1.06-1.55V30.69Zm-2.75,2.12c0,1.65-.08,3.82-1.93,3.82-1.49,0-1.49-1.57-1.49-2,0-2.09,1-2.43,2.47-2.93.32-.1.62-.22.95-.34v1.46Z"/><path class="cls-1" d="M162.22,23.2v.52h1.5V37.37h2.89V35.92a2,2,0,0,0,.54.81,3.16,3.16,0,0,0,2.21.82,4.83,4.83,0,0,0,4.57-5.08h0c0-2.69-1.78-5.06-4.37-5.06a3.36,3.36,0,0,0-2.41.91,4.83,4.83,0,0,0-.54.72V23.12a19,19,0,0,1-2,.08Zm6.5,5.08c1.77,0,2,1.74,2,4.23,0,1.87,0,4.22-2.09,4.22a1.72,1.72,0,0,1-1.72-1.17,9.9,9.9,0,0,1-.34-3.51c0-1.83.18-2.63.78-3.21a1.93,1.93,0,0,1,1.4-.56Z"/><path class="cls-1" d="M183.61,30.69c0-1.45-.08-3.3-4.07-3.3-2.31,0-3.19.53-3.65,1a1.9,1.9,0,0,0-.61,1.3.92.92,0,0,0,.88,1h.19c1,0,1.18-.61,1.18-1.09a1.39,1.39,0,0,1,.3-1.12,2,2,0,0,1,1.41-.46c1.54,0,1.58,1.08,1.6,1.78V30.8c-.8.26-1.6.52-2.42.7a17,17,0,0,0-2,.46,2.47,2.47,0,0,0-1.83,2.59,2.88,2.88,0,0,0,2.74,3,3.7,3.7,0,0,0,.47,0,3.1,3.1,0,0,0,3.07-1.61,1.66,1.66,0,0,0,1.76,1.56h.09a17.94,17.94,0,0,0,2.37-.12v-.58h-.44c-1,0-1.07-1-1.07-1.55V30.69Zm-2.75,2.12c0,1.65-.08,3.82-1.92,3.82-1.49,0-1.49-1.57-1.49-2,0-2.09,1-2.43,2.47-2.93.32-.1.62-.22.94-.34v1.46Z"/><path class="cls-1" d="M190.23,27.57c-1.15.06-1.43.08-2.65.08h-1.77v.53h1.5v8.69h-1.5v.52h5.91v-.52h-1.46V32c.06-1.34.13-2.27.84-2.95a2,2,0,0,1,1.46-.6c1.45,0,1.47,1.18,1.49,2.77v5.64h-1.47v.52h5.9v-.52H197V32c.06-1.36.12-2.25.82-2.93a2.1,2.1,0,0,1,1.51-.64,1.27,1.27,0,0,1,1.26.82,9.64,9.64,0,0,1,.2,2.27v5.33h-1.48v.52h5.9v-.52h-1.49V31.33c0-1.29,0-2.31-.74-3a3,3,0,0,0-2.39-.85,4.13,4.13,0,0,0-2.93,1,3.09,3.09,0,0,0-.72,1.1,2.34,2.34,0,0,0-1.51-1.91A4.89,4.89,0,0,0,194,27.4a4.27,4.27,0,0,0-3.31,1.18,2.57,2.57,0,0,0-.57.78V27.57Z"/><path class="cls-1" d="M214.35,30.69c0-1.45-.08-3.3-4.08-3.3-2.3,0-3.19.53-3.65,1a2,2,0,0,0-.6,1.3.91.91,0,0,0,.86,1,.69.69,0,0,0,.2,0c1,0,1.19-.61,1.19-1.09a1.39,1.39,0,0,1,.3-1.12A2,2,0,0,1,210,28c1.55,0,1.59,1.08,1.61,1.78V30.8c-.8.26-1.61.52-2.43.7a19.94,19.94,0,0,0-2,.46,2.47,2.47,0,0,0-1.82,2.59c0,2,1.32,3,3.21,3a3.1,3.1,0,0,0,3.07-1.61,1.65,1.65,0,0,0,1.77,1.54h.12a17.8,17.8,0,0,0,2.36-.12v-.58h-.44c-1,0-1.06-1.05-1.06-1.55V30.69Zm-2.75,2.12c0,1.65-.08,3.82-1.93,3.82-1.48,0-1.48-1.57-1.48-2,0-2.09,1-2.43,2.47-2.93.32-.1.62-.22.94-.34v1.46Z"/><path class="cls-1" d="M107.48,2.13h2V15.27h-2v.52h8a5.21,5.21,0,0,0,3.84-1.22,3.7,3.7,0,0,0,1.06-2.65,3.51,3.51,0,0,0-1.06-2.59A5.31,5.31,0,0,0,115.52,8a4.69,4.69,0,0,0,3.1-1.23,3,3,0,0,0,.86-2.12,2.77,2.77,0,0,0-1.57-2.57,6.33,6.33,0,0,0-2.51-.43h-8v.51Zm6.57.08c1.54,0,2.25.46,2.25,2.73a3.19,3.19,0,0,1-.53,2.1,2.45,2.45,0,0,1-1.86.65h-1.33V2.21Zm-.44,6.06a4,4,0,0,1,2.49.56c.62.48,1,1.3,1,2.85a4.16,4.16,0,0,1-.82,2.79,3,3,0,0,1-2.09.72h-1.57V8.28Z"/><path class="cls-1" d="M121.62,1.61v.52h1.51V15.25h-1.51v.52h5.87v-.52H126.1V1.53c-.88.06-1.16.06-2.11.08Z"/><path class="cls-1" d="M127.57,6.07v.52H129l.05,1.47v4.73a4.08,4.08,0,0,0,.28,1.89A2.92,2.92,0,0,0,132.17,16a4.32,4.32,0,0,0,3.67-1.68l.06,1.54c1-.06,1.42-.08,2.71-.08h1.52v-.54h-1.41V6c-1.17.06-1.51.06-2.67.08h-1.73v.52h1.49v5.12a3.54,3.54,0,0,1-.76,2.71,2.16,2.16,0,0,1-1.47.58,1.5,1.5,0,0,1-1.47-.9,4.94,4.94,0,0,1-.2-1.75V6c-1,.06-1.3.06-2.34.08Z"/><path class="cls-1" d="M150.38,12.71a3.58,3.58,0,0,1-3.27,2.47,2.44,2.44,0,0,1-1.79-.68c-.84-.88-.88-2.43-.9-4.13h6.7A4.31,4.31,0,0,0,150,7.13a5.14,5.14,0,0,0-8.63,3.68A5,5,0,0,0,151,13l-.6-.26Zm-5.94-3c.06-1.7.14-3.41,1.84-3.41s1.79,1.85,1.77,3.41Z"/><path class="cls-1" d="M165.08,10.81h-.66A4.61,4.61,0,0,1,163,13.88a4.63,4.63,0,0,1-3.35,1.5A3.69,3.69,0,0,1,157,14.3c-1-1.06-1.38-2.81-1.38-5.64s.44-4.53,1.44-5.53A4.1,4.1,0,0,1,159.92,2a4.14,4.14,0,0,1,3,1.28,5.07,5.07,0,0,1,1.49,3.23H165v-4a13.54,13.54,0,0,0-5.31-1.21,7.18,7.18,0,0,0-7.52,6.84,5,5,0,0,0,0,.55,7,7,0,0,0,6.69,7.3h.52a15.83,15.83,0,0,0,5.64-1.2v-4Z"/><path class="cls-1" d="M170.88,13.64V11.25a7.62,7.62,0,0,1,.72-3.73c.27-.41.63-.73.89-.73.06,0,.36,0,.36.42,0,.1-.06.61-.06.71a1.22,1.22,0,0,0,1.12,1.32H174c.45,0,1.25-.2,1.25-1.42a1.81,1.81,0,0,0-1.66-1.93h-.17a2.62,2.62,0,0,0-1.85.8A2.74,2.74,0,0,0,170.88,8V6c-.84.06-1.14.06-2.06.08h-2.25v.52H168v8.67h-1.46v.52h5.88v-.52h-1.53V13.64Z"/><path class="cls-1" d="M180.64,5.81a4.9,4.9,0,0,0-5.06,4.73v.35A4.92,4.92,0,0,0,180.3,16h.38a5,5,0,0,0,5.23-4.75,2.18,2.18,0,0,0,0-.25,5,5,0,0,0-4.83-5.17h-.45Zm.1.52c2,0,2.11,2.21,2.11,4.64,0,2.65-.14,4.47-2.09,4.47s-2.13-1.8-2.13-4.95C178.63,8.24,178.88,6.33,180.74,6.33Z"/><path class="cls-1" d="M187.72,12.13v3.19a9.33,9.33,0,0,0,3.37.75c2.41,0,4-1.39,4-3.5,0-1.84-1.26-2.53-2.48-3-.36-.14-2-.72-2.27-.86a1.09,1.09,0,0,1-.74-1,1.4,1.4,0,0,1,1.55-1.23h0A2.62,2.62,0,0,1,193.47,8a5.1,5.1,0,0,1,.3,1.08h.6V6.46a8.82,8.82,0,0,0-3-.64c-1.38,0-3.59.58-3.59,3.11,0,2.13,1.51,2.67,3.29,3.33,1.28.46,2.17.82,2.17,1.73s-.78,1.46-2,1.46a2.9,2.9,0,0,1-2.57-1.69,4.43,4.43,0,0,1-.46-1.67Z"/><path class="cls-1" d="M196.4,12.13v3.19a9.33,9.33,0,0,0,3.37.75c2.41,0,4-1.39,4-3.5,0-1.84-1.26-2.53-2.49-3-.36-.14-1.94-.72-2.26-.86a1.09,1.09,0,0,1-.75-1,1.41,1.41,0,0,1,1.57-1.23h0A2.65,2.65,0,0,1,202.15,8a5.1,5.1,0,0,1,.3,1.08h.6V6.46a8.82,8.82,0,0,0-3-.64c-1.39,0-3.59.58-3.59,3.11,0,2.13,1.5,2.67,3.29,3.33,1.28.46,2.17.82,2.17,1.73s-.79,1.46-2,1.46a2.89,2.89,0,0,1-2.57-1.64,4.62,4.62,0,0,1-.38-1.68Z"/><path class="cls-1" d="M207.3,2.13h1.95V15.27H207.3v.52h8a5.21,5.21,0,0,0,3.84-1.22,3.7,3.7,0,0,0,1.06-2.65,3.51,3.51,0,0,0-1.06-2.59A5.31,5.31,0,0,0,215.34,8a4.65,4.65,0,0,0,3.09-1.23,3,3,0,0,0,.87-2.12A2.81,2.81,0,0,0,217.72,2a6.33,6.33,0,0,0-2.51-.43h-8v.52Zm6.57.08c1.54,0,2.24.46,2.24,2.73a3.25,3.25,0,0,1-.52,2.1,2.45,2.45,0,0,1-1.86.65H212.4V2.21Zm-.45,6.06a4,4,0,0,1,2.49.56c.63.48,1,1.3,1,2.85a4.12,4.12,0,0,1-.83,2.79,3,3,0,0,1-2.08.72h-1.53V8.28Z"/><path class="cls-1" d="M221.36,1.61v.52h1.51V15.25h-1.51v.52h5.86v-.52h-1.38V1.53c-.89.06-1.17.06-2.11.08Z"/><path class="cls-1" d="M227.72,6.07v.52h1.47v6.2a4.08,4.08,0,0,0,.28,1.89A2.92,2.92,0,0,0,232.28,16,4.32,4.32,0,0,0,236,14.32l.06,1.54c1-.06,1.43-.08,2.71-.08h1.53v-.54H238.8V6c-1.16.06-1.51.06-2.67.08H234.4v.52h1.49v5.12a3.54,3.54,0,0,1-.76,2.71,2.11,2.11,0,0,1-1.47.58,1.48,1.48,0,0,1-1.46-.9,4.94,4.94,0,0,1-.2-1.75V6c-1,.06-1.31.06-2.35.08Z"/><path class="cls-1" d="M250.46,12.71a3.56,3.56,0,0,1-3.27,2.47,2.44,2.44,0,0,1-1.79-.68c-.84-.88-.88-2.43-.9-4.13h6.7A4.31,4.31,0,0,0,250,7.13a5.14,5.14,0,0,0-8.63,3.68A5,5,0,0,0,251.06,13l-.6-.26Zm-5.94-3c.06-1.7.14-3.41,1.85-3.41s1.78,1.85,1.76,3.41Z"/><path class="cls-1" d="M252.19,11l.12,4.11a12.53,12.53,0,0,0,4.36.94c3.39,0,5.42-1.9,5.42-4.49,0-2.75-2.19-3.79-3.93-4.5-.69-.28-1.37-.52-2.05-.84a2.38,2.38,0,0,1-1.69-2A2.12,2.12,0,0,1,256.56,2h.16a3.77,3.77,0,0,1,2.63,1.22,4.28,4.28,0,0,1,1.14,2.33h.65l-.2-3.37a9.63,9.63,0,0,0-3.84-.89c-2.79,0-4.78,1.67-4.78,4.16a4,4,0,0,0,2.28,3.64,14.36,14.36,0,0,0,1.39.62c3,1.25,4.13,1.73,4.13,3.19s-1.34,2.41-2.93,2.41a4.18,4.18,0,0,1-3.83-2.55,6,6,0,0,1-.54-1.8Z"/><path class="cls-1" d="M263,1.61v.52h1.46V15.26H263v.52h5.86v-.52h-1.5V10.13a3.88,3.88,0,0,1,.8-2.75,2.18,2.18,0,0,1,1.5-.64c1.57,0,1.57,1.57,1.57,2.35v6.22h-1.63v.52h5.88v-.52h-1.38V9.13a3.32,3.32,0,0,0-.84-2.39,3.47,3.47,0,0,0-2.56-.93,4.56,4.56,0,0,0-1.47.22,3,3,0,0,0-1.9,1.5v-6c-.91.06-1.15.08-2.17.08Z"/><path class="cls-1" d="M276.23,6.07v.52h1.49v8.67h-1.51v.52h5.87v-.52h-1.36V6c-1,.06-1.38.06-2.55.08ZM278,4.22A1.58,1.58,0,0,0,280.25,2a1.58,1.58,0,0,0-2.69,1.16h0A1.58,1.58,0,0,0,278,4.25Z"/><path class="cls-1" d="M292.16,12.71a3.58,3.58,0,0,1-3.27,2.47,2.44,2.44,0,0,1-1.79-.68c-.84-.88-.88-2.43-.9-4.13h6.7a4.35,4.35,0,0,0-1.18-3.24,5.14,5.14,0,0,0-8.63,3.68A5,5,0,0,0,292.72,13l-.6-.26Zm-5.94-3c.06-1.7.14-3.41,1.84-3.41s1.79,1.85,1.77,3.41Z"/><path class="cls-1" d="M293.29,1.61v.52h1.51V15.25h-1.51v.52h5.86v-.52h-1.38V1.53c-.89.06-1.17.06-2.11.08Z"/><path class="cls-1" d="M305.9,1.61v.52h1.49v5.3a1.27,1.27,0,0,0-.43-.66,3.09,3.09,0,0,0-2.36-.86c-2.59,0-4.48,2-4.48,5.18,0,2.21,1.21,4.93,4.22,4.93a3.46,3.46,0,0,0,3-1.46v1.32c.94-.06,1.3-.06,2.43-.08h2v-.54h-1.4V1.5c-.91.06-1.27.08-2.43.08Zm-.56,5.08c2.13,0,2.13,2.19,2.13,4,0,2.53-.16,3.23-.71,3.79a2.08,2.08,0,0,1-1.54.64c-1.85,0-1.91-1.92-1.91-4.23,0-1.89.1-3.07.68-3.68A1.84,1.84,0,0,1,305.34,6.69Z"/><polygon class="cls-2" points="36.02 50.49 36.02 36.61 49.91 36.61 49.91 14.42 36.02 14.42 36.02 0.54 13.89 0.54 13.89 14.42 0 14.42 0 36.61 13.89 36.61 13.89 50.49 36.02 50.49 36.02 50.49"/><path class="cls-3" d="M12.15,20.72l9.21.89A2,2,0,0,1,23,23.88a1.84,1.84,0,0,1-.21.65L16.52,36.36h0a13.76,13.76,0,0,1-4.38-15.62Z"/><path class="cls-3" d="M25,13.59a1.76,1.76,0,0,0-1.74,1.78,1.78,1.78,0,0,0,.33,1c.65.84.78,1.09.74,1.88s-.64,1.48-2,1.51h-9.8A13.7,13.7,0,0,1,25,11.86"/><path class="cls-2" d="M13.52,22.75l7,.64c.5,0,.54.25.43.54l-4.89,9.31A11.79,11.79,0,0,1,13.52,22.75Z"/><path class="cls-2" d="M21.72,14.21a3.07,3.07,0,0,0,.53,3.39.16.16,0,0,1,0,.22.16.16,0,0,1-.08.06H16A11.83,11.83,0,0,1,21.72,14.21Z"/><path class="cls-3" d="M37.84,20.72l-9.21.89A2,2,0,0,0,27,23.88a1.84,1.84,0,0,0,.21.65l6.31,11.83h0a13.7,13.7,0,0,0,4.38-15.62Z"/><path class="cls-3" d="M25,13.59a1.76,1.76,0,0,1,1.74,1.78,1.78,1.78,0,0,1-.33,1,2.33,2.33,0,0,0-.74,1.88c0,.66.64,1.48,2,1.51h9.76A13.72,13.72,0,0,0,25,11.86"/><path class="cls-2" d="M36.47,22.75l-7,.64c-.5,0-.54.25-.42.54l4.88,9.31a11.77,11.77,0,0,0,2.51-10.49Z"/><path class="cls-2" d="M28.28,14.21a3,3,0,0,1-.56,3.39.15.15,0,0,0-.06.22.12.12,0,0,0,.06.06h6.17a11.84,11.84,0,0,0-5.69-3.67Z"/><path class="cls-3" d="M25,39.26A13.74,13.74,0,0,0,32.54,37h0L25.85,27a1,1,0,0,0-1.71,0L17.45,37h0A13.77,13.77,0,0,0,25,39.26Z"/><path class="cls-2" d="M77.32,51c9.6-5.3,15.4-13.73,18.4-23,3.11-9.6,2.59-21-1-28a37.59,37.59,0,0,1-17.4,4.09A37.13,37.13,0,0,1,59.93,0c-3.6,7.08-4.12,18.44-1,28,3,9.26,8.81,17.69,18.4,23Z"/><path class="cls-3" d="M77.32,46.74c7.89-4.89,12.1-11.89,14.79-19.8,2.39-7,3-15.22.35-21.63a43.5,43.5,0,0,1-8.41,2.1A44.45,44.45,0,0,1,77.33,8h0a44.45,44.45,0,0,1-6.72-.54,43.5,43.5,0,0,1-8.41-2.1c-2.63,6.41-2,14.62.35,21.63,2.69,7.91,6.9,14.91,14.79,19.8Z"/><path class="cls-2" d="M77.32,44.8c5.34-3.36,11.39-11,13.81-21,1.29-5.31,1.65-11.29,0-16A54.77,54.77,0,0,1,84.2,9.28a56,56,0,0,1-6.84.55h0a56,56,0,0,1-6.84-.55A54.77,54.77,0,0,1,63.59,7.8c-1.68,4.74-1.32,10.72,0,16,2.42,10,8.47,17.64,13.81,21Z"/><path class="cls-3" d="M71.87,13.36a3.77,3.77,0,0,0-1.62,4.92,5.74,5.74,0,0,0,3.7,3,10.9,10.9,0,0,0,2.47.35,14.38,14.38,0,0,1,2.93.33.79.79,0,0,1,.26,1.47.78.78,0,0,1-.21.09c0,.86-.08,2.58-.08,2.58s4.18-.39,3.48-4.16a3.43,3.43,0,0,0-1.69-2.24c-2.1-1-4.39-.57-6.56-1.27-.73-.23-1.74-.59-1.93-1.4-.08-.33,0-1,.32-1.09.55-.17,1.15.28,1.94.47a2.69,2.69,0,0,0,1.38,0c.17-.05.43-.12.45-.22s-.22-.16-.32-.22a6.92,6.92,0,0,0-.76-.28,9.1,9.1,0,0,1-1.3-.62,6.36,6.36,0,0,1,1.51,0A7.6,7.6,0,0,0,77.49,15c.07,0,.22-.07.15-.18s-.31-.28-.45-.46a2.53,2.53,0,0,0-1-1,5.14,5.14,0,0,0-4.29.05Z"/><path class="cls-3" d="M78.86,26.79V22.4a10.31,10.31,0,0,0-1.36-.17c-1-.07-1.49-.05-1.49-.05v.37a2.11,2.11,0,0,0-.58.34c0,.06-.16.23-.1.39a16,16,0,0,1,1.12,3.3c.77.11,1.45.08,2.38.21Z"/><path class="cls-3" d="M73.61,26.13a2.61,2.61,0,0,0,2.18,2.94,27.38,27.38,0,0,0,3,.41,1.83,1.83,0,0,1,.61.11.46.46,0,0,1,.3.29.43.43,0,0,1-.07.42,1,1,0,0,1-.41.21l-.06,2.07a3.5,3.5,0,0,0,1.48-.45,2.32,2.32,0,0,0,1.18-1.5,2.41,2.41,0,0,0-.45-2.1,3.22,3.22,0,0,0-1.51-1A18.91,18.91,0,0,0,76,27a.44.44,0,0,1-.38-.36.51.51,0,0,1,.26-.47l-.31-1A11.5,11.5,0,0,0,75.12,24,2.52,2.52,0,0,0,73.61,26.13Z"/><path class="cls-3" d="M78.72,30v3.72l-.93-.43-.92-.38V29.76c.83.1,1.21.11,1.91.2Z"/><path class="cls-3" d="M74.59,32a2.23,2.23,0,0,0,1.13,2.88c.53.26,1.23.49,1.8.71s1.55.83,1.62,1.12a.28.28,0,0,1-.16.36v1.45A2.8,2.8,0,0,0,80,38a1.82,1.82,0,0,0,.68-1.52c0-.79-.37-1.41-1.5-2.07a27.69,27.69,0,0,0-2.75-1.31.4.4,0,0,1-.18-.43.38.38,0,0,1,.14-.21V30.81a4,4,0,0,0-.94.3,2.1,2.1,0,0,0-.88.89Z"/><path class="cls-3" d="M78.6,37c0-.12,0-.14-.08-.22a2.85,2.85,0,0,0-.7-.49,6.71,6.71,0,0,0-.83-.36s0,3.8.11,5.77c0,.44.26.56.69.58a.64.64,0,0,0,.69-.49C78.48,41.11,78.58,38.38,78.6,37Z"/><path class="cls-3" d="M79,12.47c.19.14.19.16.24.43.13.61,0,1.56.12,2a.19.19,0,0,0,.26.1.05.05,0,0,0,0,0,27.31,27.31,0,0,1,2.27-1.6c.4-.18,1.51.38,1.25,1.22-.12.39-.3.45-.54.7-.5.52-1.2,1-1.81,1.67a10.15,10.15,0,0,0-1.24,1.3c-.1.16-.27.38-.27.38-1.18-.24-2.38-.19-3.3-.38v-1.4s.94-.15,1.12-.62A.33.33,0,0,0,77,16a2.61,2.61,0,0,0-.52-.28,9.08,9.08,0,0,1,2.44.7.47.47,0,0,0,0-.4.81.81,0,0,0-.52-.26c-.56-.14-2.07-.33-2.07-.33a9.34,9.34,0,0,0,1.29-.1c.28,0,.52-.1.58-.2s-.06-.36-.26-.58a5.34,5.34,0,0,1-.39-.44,4.88,4.88,0,0,0-.61-.75,5.87,5.87,0,0,0-.75-.47,2.41,2.41,0,0,1,0-1,.5.5,0,0,1,.55-.27A6.86,6.86,0,0,0,79,12.5Z"/><path class="cls-2" d="M76,13.89a1.21,1.21,0,0,1-.49.28c-.39.07-.33-.27-.6-.46s-.32,0-.47-.24a2.56,2.56,0,0,1,1.73.4.17.17,0,0,0-.17,0Z"/><path class="cls-2" d="M24.8,29.28a.23.23,0,0,1,.32-.07.23.23,0,0,1,.07.07l4.61,7.06a11.83,11.83,0,0,1-9.61,0l4.61-7.06a.23.23,0,0,1,.32-.07.23.23,0,0,1,.07.07"/><path class="cls-3" d="M76.07,38.35a2.5,2.5,0,0,0-.68,1.5,1.88,1.88,0,0,0,.33,1.28.31.31,0,0,0,.39.2.31.31,0,0,0,.2-.2c.1-.23,0-.45,0-1a.9.9,0,0,1,.36-.57v-1.7a2.8,2.8,0,0,0-.57.46Z"/><path class="cls-2" d="M39.38,46a2.08,2.08,0,0,0,0,2.92,2.06,2.06,0,0,0,2.91,0,2.1,2.1,0,0,0,0-2.92,2.06,2.06,0,0,0-2.91,0Zm3.14,3.12a2.4,2.4,0,0,1-3.38,0h0a2.34,2.34,0,0,1-.69-1.69,2.39,2.39,0,1,1,4.07,1.69Zm-1.24-2.6a1.35,1.35,0,0,0-.56-.09h-.39v.94h.39a1.54,1.54,0,0,0,.43-.05.42.42,0,0,0,.28-.41.4.4,0,0,0-.18-.39Zm-.5-.41a2.19,2.19,0,0,1,.72.09.67.67,0,0,1,.41.67.58.58,0,0,1-.26.51,1.07,1.07,0,0,1-.38.13.62.62,0,0,1,.45.26.7.7,0,0,1,.15.4v.53h-.43v-.29a.66.66,0,0,0-.25-.6,1,1,0,0,0-.52-.08h-.36v1h-.46V46.13Z"/><path class="cls-2" d="M86.86,46a2.08,2.08,0,0,0,1.35,3.52h.06a2,2,0,0,0,1.45-.6A2.06,2.06,0,0,0,86.81,46ZM90,49.13a2.38,2.38,0,0,1-3.37,0h0a2.35,2.35,0,1,1,4-1.56A2.43,2.43,0,0,1,90,49.13Zm-1.28-2.57a1.28,1.28,0,0,0-.55-.09h-.4v.94h.42a1.61,1.61,0,0,0,.44,0A.41.41,0,0,0,88.9,47,.4.4,0,0,0,88.72,46.56Zm-.45-.43a2.13,2.13,0,0,1,.71.09.65.65,0,0,1,.41.67.53.53,0,0,1-.26.51,1.07,1.07,0,0,1-.38.13.62.62,0,0,1,.45.26.7.7,0,0,1,.15.4v.39a.33.33,0,0,0,0,.14h-.43V48.4a.64.64,0,0,0-.25-.6,1,1,0,0,0-.51-.08h-.37v1h-.46V46.13Z"/><path class="cls-2" d="M16.31,68.21h-1.8l.48-2h6.13l-.46,2h-2.1l.51,10.49L25.25,68h1.09l1.85,10.77L33.3,68.21h-2l.42-2.08h6.16l-.48,2H35.8L28.24,83H27L25,72.39,18.58,83H17.37Z"/><path class="cls-2" d="M36.14,78.06v.38c0,1.65,1.32,2.74,3.3,2.74a7.12,7.12,0,0,0,3.59-1l-.43,2.08A7.32,7.32,0,0,1,39,83c-2.61,0-5-1.65-5-4.64,0-3.7,2.73-6.68,6-6.68,2.66,0,4.41,1.52,4.41,4.07a7.06,7.06,0,0,1-.4,2.28Zm.31-1.59h5.67a3,3,0,0,0,.15-.94c0-1.14-.76-2-2.33-2A3.89,3.89,0,0,0,36.45,76.47Z"/><path class="cls-2" d="M50.21,78.19a6.52,6.52,0,0,1,6.35-6.48c2.41,0,4,1.47,4,3.06a1.57,1.57,0,0,1-1.41,1.71h-.09a1.29,1.29,0,0,1-1.28-1.3v-.06a1.33,1.33,0,0,1,.46-1,2.18,2.18,0,0,0-1.73-.61A4.28,4.28,0,0,0,52.43,78h0a2.94,2.94,0,0,0,2.75,3.12h.37a6.08,6.08,0,0,0,3.67-1.37v2a6.52,6.52,0,0,1-3.82,1.19C52.46,83,50.21,81.23,50.21,78.19Z"/><path class="cls-2" d="M61.07,78.19a6.39,6.39,0,0,1,6.19-6.48,4.67,4.67,0,0,1,4.91,4.42,3.23,3.23,0,0,1,0,.44A6.37,6.37,0,0,1,66,83a4.69,4.69,0,0,1-4.92-4.43Zm8.87-1.65a2.72,2.72,0,0,0-2.42-3h-.36c-2.13,0-3.86,2-3.86,4.61a2.74,2.74,0,0,0,2.45,3h.34C68.22,81.18,69.94,79.13,69.94,76.54Z"/><path class="cls-2" d="M75,73.78h-1.9l.48-1.87h3.34l1.27,8.69A15.64,15.64,0,0,0,82,74.67a1.52,1.52,0,1,1,.46-3,1.71,1.71,0,0,1,1.69,1.75,2.11,2.11,0,0,1,0,.25c0,2.3-2.38,6-5.93,9.47H76.72Z"/><path class="cls-2" d="M87.22,78.06v.38c0,1.65,1.32,2.74,3.29,2.74a7.12,7.12,0,0,0,3.6-1l-.39,2.09A7.32,7.32,0,0,1,90.1,83c-2.61,0-5-1.65-5-4.64,0-3.7,2.74-6.68,6-6.68,2.66,0,4.41,1.52,4.41,4.07a7.07,7.07,0,0,1-.41,2.28Zm.3-1.59H93.2a3,3,0,0,0,.15-.94c0-1.14-.76-2-2.33-2A3.91,3.91,0,0,0,87.52,76.47Z"/><path class="cls-2" d="M99,73.78H97l.48-1.87h3.9L100.67,75c1.34-2.15,2.61-3.24,3.8-3.24a1.54,1.54,0,0,1,.33,3.06h-.23a1.47,1.47,0,0,1-1.47-1.12,6.78,6.78,0,0,0-2.91,4.26L99,82.83H96.72Z"/><path class="cls-2" d="M112.43,73.78h-2l.48-1.87h3.42l.48,8.28,3.91-7.06H120l1.47,7.24c1.47-2.25,2.74-4.38,2.92-5.82a1.41,1.41,0,0,1-1.12-1.39,1.45,1.45,0,0,1,1.45-1.45h0a1.71,1.71,0,0,1,1.71,1.73,1.21,1.21,0,0,1,0,.19c0,1.85-1.62,5-4.86,9.5h-1.32l-1.52-6.66-3.88,6.66h-1.47Z"/><path class="cls-2" d="M130,66.13h-2.05l.48-1.88h4.18L130.32,74a4.52,4.52,0,0,1,3.52-2.31,2.89,2.89,0,0,1,3,2.79,1.5,1.5,0,0,1,0,.3,5.6,5.6,0,0,1-.28,1.77l-.84,3.28a4.16,4.16,0,0,0-.13.86c0,.51.25.81.66.81s.91-.38,1.42-1.77l1,.35c-.59,2-1.6,2.91-3,2.91a2.1,2.1,0,0,1-2.32-1.86c0-.1,0-.21,0-.31a5.07,5.07,0,0,1,.18-1.22l.91-3.32a3.46,3.46,0,0,0,.15-1.11,1.54,1.54,0,0,0-1.49-1.6,1.08,1.08,0,0,0-.18,0c-1.34,0-2.66,1.11-3.16,3.37l-1.37,5.88h-2.23Z"/><path class="cls-2" d="M139.46,78.67c0-3.72,2.59-7,5.76-7a3.43,3.43,0,0,1,3.26,2.58l.71-2.43h2.08l-1.93,7.77a5.26,5.26,0,0,0-.2,1.12c0,.48.23.76.66.76s.91-.38,1.42-1.77l1,.35c-.66,2.18-1.8,2.91-3,2.91a2,2,0,0,1-2.11-1.89c0-.1,0-.21,0-.31v-.13a5,5,0,0,1-3.9,2.36C141,83,139.46,81.33,139.46,78.67ZM148,76.34c0-1.62-.81-2.68-2.49-2.68-2.12,0-3.72,2.3-3.72,4.76,0,1.6.79,2.71,2.31,2.71,2.22,0,3.9-2.41,3.9-4.79Z"/><path class="cls-2" d="M157.72,73.78l-1.39,5.6a4.24,4.24,0,0,0-.15,1,.82.82,0,0,0,.72.92H157a4.06,4.06,0,0,0,2.18-1l.78,1.06A5.54,5.54,0,0,1,156.33,83a2.2,2.2,0,0,1-2.4-2,1.69,1.69,0,0,1,0-.32,7.35,7.35,0,0,1,.18-1.32l1.39-5.6h-2l.43-1.87h2l.63-2.48,2.43-.84-.83,3.32h3.34L161,73.77Z"/><path class="cls-2" d="M168.47,73.78h-2l.48-1.87h3.9l-.61,2.56c.89-1.52,2.21-2.74,3.65-2.74a2.69,2.69,0,0,1,2.76,2.6v.11c1-1.67,2.38-2.71,3.7-2.71a2.81,2.81,0,0,1,2.85,2.77,1.74,1.74,0,0,1,0,.32,6.61,6.61,0,0,1-.28,1.77L182,79.81a6.61,6.61,0,0,0-.15.89c0,.51.25.81.68.81s.92-.38,1.42-1.77l1,.35c-.58,2-1.62,2.91-3,2.91a2.1,2.1,0,0,1-2.32-1.86c0-.1,0-.21,0-.31a5.88,5.88,0,0,1,.17-1.25l.91-3.19a3.58,3.58,0,0,0,.21-1.21,1.49,1.49,0,0,0-1.35-1.6h-.15c-1.26,0-2.48,1.17-3.06,3.47l-1.47,5.78h-2.23l1.65-6.41a7,7,0,0,0,.17-1.29,1.48,1.48,0,0,0-1.39-1.55H173c-1.27,0-2.53,1.19-3.09,3.45l-1.45,5.8h-2.23Z"/><path class="cls-2" d="M185.78,78.67c0-3.72,2.58-7,5.75-7a3.42,3.42,0,0,1,3.27,2.58l.71-2.43h2.07l-1.92,7.77a4.7,4.7,0,0,0-.2,1.12c0,.48.22.76.65.76s.92-.38,1.42-1.77l1,.35c-.66,2.18-1.8,2.91-3,2.91a2,2,0,0,1-2.12-1.88c0-.1,0-.21,0-.32v-.13a4.92,4.92,0,0,1-3.9,2.36C187.32,83,185.78,81.33,185.78,78.67Zm8.51-2.33c0-1.62-.81-2.68-2.48-2.68-2.13,0-3.73,2.3-3.73,4.76,0,1.6.79,2.71,2.31,2.71,2.23,0,3.9-2.41,3.9-4.79Z"/><path class="cls-2" d="M204.05,73.78l-1.4,5.6a4.24,4.24,0,0,0-.15,1,.82.82,0,0,0,.72.92h.14a4,4,0,0,0,2.18-1l.79,1.06A5.49,5.49,0,0,1,202.65,83a2.18,2.18,0,0,1-2.39-2,1.82,1.82,0,0,1,0-.33,7.34,7.34,0,0,1,.17-1.32l1.4-5.6h-2l.43-1.87h2l.64-2.48,2.43-.84-.84,3.32h3.35l-.49,1.87Z"/><path class="cls-2" d="M212.33,73.78l-1.39,5.6a4.24,4.24,0,0,0-.15,1,.82.82,0,0,0,.72.92h.14a4.06,4.06,0,0,0,2.18-1l.78,1.06A5.54,5.54,0,0,1,210.94,83a2.2,2.2,0,0,1-2.4-2,1.69,1.69,0,0,1,0-.32,7.35,7.35,0,0,1,.18-1.32l1.39-5.6h-2l.43-1.87h2l.63-2.48,2.43-.84-.83,3.32h3.34l-.48,1.87Z"/><path class="cls-2" d="M217.72,78.06v.38c0,1.65,1.31,2.74,3.29,2.74a7.12,7.12,0,0,0,3.6-1l-.43,2.08a7.36,7.36,0,0,1-3.63.76c-2.61,0-5-1.65-5-4.64,0-3.7,2.73-6.68,6-6.68,2.66,0,4.41,1.52,4.41,4.07a7.07,7.07,0,0,1-.41,2.28Zm.3-1.59h5.7a3,3,0,0,0,.15-.94c0-1.14-.76-2-2.33-2A3.9,3.9,0,0,0,218,76.47Z"/><path class="cls-2" d="M229.51,73.78h-2l.48-1.87h3.9l-.7,3.06c1.34-2.15,2.6-3.24,3.8-3.24a1.54,1.54,0,0,1,.33,3.06h-.23a1.46,1.46,0,0,1-1.47-1.12,6.77,6.77,0,0,0-2.9,4.26l-1.21,4.89h-2.23Z"/><path class="cls-2" d="M236.93,81.64a2.05,2.05,0,0,1-.68-1.45,1.33,1.33,0,0,1,1.24-1.42h0a1.19,1.19,0,0,1,.92,1.93,1.65,1.65,0,0,0,.41.28,4.77,4.77,0,0,0,2,.43c1.14,0,2.11-.46,2.11-1.34s-1-1.37-2.26-1.94c-1.52-.69-3-1.45-3-3.2s1.5-3.26,4.21-3.26a4.91,4.91,0,0,1,3.47,1.21A2.05,2.05,0,0,1,246,74.3a1.3,1.3,0,0,1-1.21,1.39h0a1.21,1.21,0,0,1-1-1.92,1.38,1.38,0,0,0-.38-.2,3.9,3.9,0,0,0-1.47-.26c-1.11,0-2,.46-2,1.24s1.09,1.32,2.36,1.9c1.49.69,2.94,1.5,2.94,3.2,0,2.15-1.75,3.34-4.34,3.34A5.6,5.6,0,0,1,236.93,81.64Z"/><path class="cls-2" d="M246.66,81.23a1.78,1.78,0,1,1,1.77,1.8A1.78,1.78,0,0,1,246.66,81.23Z"/></svg>