<?xml version="1.0" encoding="UTF-8"?>
<!-- Generator: Adobe Illustrator 16.0.0, SVG Export Plug-In . SVG Version: 6.00 Build 0)  -->
<!DOCTYPE svg PUBLIC "-//W3C//DTD SVG 1.1//EN" "http://www.w3.org/Graphics/SVG/1.1/DTD/svg11.dtd">
<svg version="1.1" xmlns="http://www.w3.org/2000/svg" xmlns:xlink="http://www.w3.org/1999/xlink" x="0px" y="0px" width="212.6px" height="283.5px" viewBox="0 0 212.6 283.5" enable-background="new 0 0 212.6 283.5" xml:space="preserve">
<g id="Layer_1">
	<path fill="#009900" d="M211.6,194.7c-6.8-7.3-14.3-13.5-22.2-18.5c7.8-5,15.3-11.3,22.1-18.6c-8.9-4.5-18.1-7.8-27.2-9.8   c5.6-7.4,10.5-15.9,14.5-25c-9.9-1.2-19.6-1.1-28.9,0.1c2.8-8.9,4.5-18.5,5-28.5c-9.7,2.3-18.9,5.6-27.1,9.9   c-0.5-9.3-2.1-18.9-5-28.5c-8.3,5.5-15.8,11.8-22.1,18.6c-3.6-8.6-8.5-17-14.5-25c-6,8-10.8,16.5-14.4,25.1   C85.5,87.6,78,81.3,69.7,75.9l0,0c-2.9,9.5-4.5,19.1-5,28.4c-8.3-4.3-17.4-7.6-27.1-9.9c0.6,10,2.3,19.6,5.1,28.5   c-9.3-1.2-19-1.2-29,0c3.9,9.2,8.8,17.6,14.5,25c-9.1,2.1-18.3,5.4-27.2,9.9c6.8,7.3,14.3,13.5,22.2,18.5   c-7.8,5-15.3,11.3-22.1,18.6c8.9,4.5,18.1,7.8,27.2,9.8c-5.6,7.4-10.5,15.9-14.5,25c9.9,1.2,19.6,1.1,28.8,0   c-2.8,8.9-4.5,18.5-5,28.4c9.7-2.3,18.9-5.6,27.1-9.9c0.4,9.3,2.1,18.9,5,28.5c8.3-5.5,15.8-11.7,22.1-18.6   c3.6,8.6,8.5,17.1,14.5,25.1c6-8,10.8-16.5,14.4-25.1c6.3,6.9,13.8,13.2,22.2,18.6c2.9-9.5,4.5-19.1,5-28.5   c8.3,4.3,17.5,7.6,27.2,9.9c-0.6-10-2.3-19.5-5.1-28.4c9.2,1.2,19,1.2,28.9,0c-3.9-9.2-8.8-17.6-14.5-25   C193.5,202.5,202.7,199.2,211.6,194.7z"/>
	<path fill="#99CC00" d="M184.4,204.6c-5.2-6.8-11.1-12.8-17.5-17.7c7.7-2.4,15.2-6.1,22.5-10.7c-7.3-4.6-14.8-8.2-22.5-10.6   c6.4-4.9,12.2-10.9,17.5-17.8c-8.4-1.9-16.7-2.7-24.8-2.3c4.3-6.8,7.8-14.4,10.3-22.7c-8.5,1.1-16.6,3.2-24.1,6.3   c1.7-7.9,2.4-16.2,1.9-24.9c-7.6,4-14.5,8.7-20.4,14.2c-1.1-8-3.3-16.1-6.7-24c-5.9,6.4-10.7,13.2-14.4,20.4   c-3.7-7.1-8.6-14-14.5-20.3c-3.3,7.9-5.5,16-6.5,23.9c-5.9-5.4-12.9-10.2-20.6-14.1c-0.4,8.6,0.3,17,2,24.9   c-7.4-3.1-15.5-5.1-24.1-6.2c2.6,8.2,6.1,15.8,10.4,22.6c-8-0.3-16.4,0.5-24.9,2.4c5.2,6.8,11.1,12.8,17.5,17.7   c-7.7,2.4-15.2,6.1-22.5,10.7c7.3,4.6,14.8,8.2,22.5,10.6c-6.4,4.9-12.2,10.9-17.5,17.8c8.4,1.9,16.7,2.7,24.7,2.3   c-4.3,6.8-7.8,14.4-10.3,22.7c8.5-1.1,16.7-3.2,24.1-6.3c-1.7,7.8-2.4,16.2-2,24.8c7.7-4,14.6-8.7,20.5-14.1c1.1,8,3.3,16.1,6.6,24   c5.8-6.4,10.7-13.2,14.4-20.3c3.7,7.1,8.6,14,14.5,20.3c3.3-7.9,5.5-16,6.6-24c5.9,5.4,12.9,10.2,20.6,14.1c0.4-8.6-0.3-17-2-24.8   c7.4,3.1,15.6,5.1,24.1,6.2c-2.6-8.2-6.1-15.8-10.4-22.6C167.6,207.3,176,206.5,184.4,204.6z"/>
	<path id="_x0032_" fill="#FFFF00" d="M147.8,176.3c6.7-2.5,13.2-6.1,19.2-10.7c-7.2-2.3-14.5-3.4-21.6-3.5   c5.5-4.6,10.3-10.2,14.3-16.6c-7.5,0.3-14.8,1.7-21.5,4.2c3.6-6.2,6.2-13.1,7.8-20.5c-7,2.9-13.3,6.7-18.8,11.3   c1.2-7.1,1.3-14.5,0.3-22c-5.6,5.1-10.3,10.9-13.9,17.1c-1.3-7.1-3.7-14.1-7.2-20.8c-3.4,6.7-5.9,13.6-7.1,20.6   c-3.6-6.2-8.3-11.9-13.9-17c-1,7.5-0.9,14.9,0.3,22c-5.5-4.6-11.9-8.4-18.9-11.2c1.6,7.4,4.2,14.3,7.8,20.5   c-6.7-2.4-14-3.8-21.5-4.1c4.1,6.4,8.9,11.9,14.3,16.6c-7.2,0-14.5,1.2-21.7,3.5c6,4.6,12.4,8.2,19.2,10.6   c-6.7,2.5-13.2,6.1-19.2,10.7c7.2,2.2,14.5,3.4,21.6,3.5c-5.5,4.6-10.3,10.2-14.4,16.6c7.5-0.3,14.8-1.7,21.5-4.1   c-3.6,6.2-6.2,13.2-7.8,20.5c7-2.9,13.3-6.7,18.8-11.3c-1.2,7.1-1.3,14.4-0.3,21.9c5.6-5.1,10.3-10.8,13.9-17   c1.3,7.1,3.7,14,7.2,20.7c3.5-6.7,5.9-13.6,7.2-20.7c3.6,6.2,8.3,11.9,13.9,17c1-7.5,0.9-14.9-0.3-21.9c5.5,4.6,11.9,8.4,18.9,11.3   c-1.6-7.4-4.2-14.3-7.8-20.5c6.8,2.4,14,3.8,21.6,4.1c-4.1-6.4-8.9-11.9-14.4-16.6c7.2,0,14.5-1.2,21.7-3.5   C160.9,182.3,154.5,178.7,147.8,176.3z"/>
	<path id="_x0031_" fill="#FFFFFF" d="M127.3,179.9c7,0,13.9-1.3,20.4-3.7c-6.6-2.4-13.4-3.7-20.4-3.7c6.6-2.4,12.6-6,17.9-10.5   c-7,0-13.9,1.1-20.5,3.5c5.4-4.5,9.8-9.9,13.3-16c-6.6,2.4-12.6,5.8-18,10.3c3.5-6.1,5.8-12.7,7-19.5c-5.4,4.5-9.9,9.8-13.5,15.9   c1.2-6.9,1.1-13.9-0.1-20.8c-3.5,6-5.9,12.5-7.1,19.3c-1.2-6.9-3.7-13.5-7.2-19.5c-1.2,6.9-1.3,13.9-0.1,20.8   c-3.5-6.1-8.1-11.4-13.4-15.9c1.2,6.9,3.5,13.5,7,19.5c-5.4-4.5-11.5-7.9-18-10.3c3.5,6.1,7.9,11.4,13.3,16   c-6.6-2.4-13.5-3.5-20.4-3.5c5.3,4.5,11.3,8,17.9,10.5c-7,0-13.9,1.3-20.5,3.7c6.6,2.4,13.4,3.7,20.4,3.7c-6.6,2.4-12.6,6-18,10.5   c7,0,13.9-1.1,20.5-3.5c-5.4,4.5-9.8,9.9-13.3,16c6.6-2.4,12.7-5.8,18-10.3c-3.5,6.1-5.8,12.7-7,19.6c5.4-4.5,9.9-9.8,13.4-15.8   c-1.2,6.9-1.1,13.9,0.1,20.7c3.5-6,6-12.6,7.2-19.4c1.2,6.9,3.7,13.4,7.2,19.5c1.2-6.9,1.3-13.8,0.1-20.7   c3.5,6.1,8.1,11.4,13.4,15.8c-1.2-6.9-3.5-13.4-7-19.5c5.4,4.5,11.5,7.9,18.1,10.3c-3.5-6.1-7.9-11.4-13.3-16   c6.6,2.4,13.5,3.5,20.5,3.5C139.9,185.9,133.9,182.4,127.3,179.9z"/>
</g>
<g id="Layer_2">
	<g>
		<path fill="#009900" d="M163.6,33.5c0,6.1-2.2,14.5-10.8,14.5c-10.4,0-10.4-11.7-10.4-14.1c0-2.4,0-14.8,10.7-14.8    C162.8,19,163.6,29.8,163.6,33.5z M142.6,1h-7v44.8l-0.2,6.7h6.7l0.2-5.6c0.7,1.1,1.6,2.4,3.6,3.8c3.2,2.2,6.5,2.4,8.3,2.4    c5.1,0,10.1-2.2,13.1-6.4c1.9-2.4,3.6-6.4,3.6-13.6c0-8.2-2.5-11.9-4.4-14c-3.4-3.9-8.1-4.8-11.8-4.8c-8.5,0-11.2,4.7-12.2,6.4V1    L142.6,1z"/>
		<path fill="#009900" d="M182.9,35c0-3.3,0-15.1,11.1-15.1c8.2,0,10.2,7,10.2,13.7c0,2.7-0.4,8-3,11.7c-2.4,3.3-6.1,3.6-7.9,3.6    C183.6,48.8,182.9,39.5,182.9,35z M176.3,66.8h6.9V48.4c2,3.3,6,5.6,11.4,5.6c8.9,0,17-6.1,17-20c0-13.8-7.6-19.3-15.6-19.3    c-3,0-9.2,0.9-12.7,6.8l-0.1-6.2h-7c0.1,3.6,0.2,4.5,0.2,6.1L176.3,66.8L176.3,66.8z"/>
	</g>
</g>
</svg>