<?xml version="1.0" encoding="UTF-8" standalone="no"?>
<!-- Generator: Adobe Illustrator 18.1.1, SVG Export Plug-In . SVG Version: 6.00 Build 0)  -->

<svg
   xmlns:dc="http://purl.org/dc/elements/1.1/"
   xmlns:cc="http://creativecommons.org/ns#"
   xmlns:rdf="http://www.w3.org/1999/02/22-rdf-syntax-ns#"
   xmlns:svg="http://www.w3.org/2000/svg"
   xmlns="http://www.w3.org/2000/svg"
   xmlns:sodipodi="http://sodipodi.sourceforge.net/DTD/sodipodi-0.dtd"
   xmlns:inkscape="http://www.inkscape.org/namespaces/inkscape"
   version="1.1"
   id="Ebene_1"
   x="0px"
   y="0px"
   viewBox="0 0 215.1 92.4"
   enable-background="new 0 0 215.1 92.4"
   xml:space="preserve"
   inkscape:version="0.91 r13725"
   sodipodi:docname="cloudssky.svg"><metadata
     id="metadata17"><rdf:RDF><cc:Work
         rdf:about=""><dc:format>image/svg+xml</dc:format><dc:type
           rdf:resource="http://purl.org/dc/dcmitype/StillImage" /><dc:title></dc:title></cc:Work></rdf:RDF></metadata><defs
     id="defs15" /><sodipodi:namedview
     bordercolor="#666666"
     borderopacity="1"
     objecttolerance="10"
     gridtolerance="10"
     guidetolerance="10"
     inkscape:pageopacity="0"
     inkscape:pageshadow="2"
     inkscape:window-width="640"
     inkscape:window-height="480"
     id="namedview13"
     showgrid="false"
     inkscape:zoom="3.3116883"
     inkscape:cx="10.167649"
     inkscape:cy="45.596079"
     inkscape:current-layer="Ebene_1" /><g
     id="g3"><path
       fill="#00B1E6"
       d="M110.7,60c0,0-1.7-12.8-8.7-25c-3.6-6.2-12.4-19-30.2-24.9c-18-6-40-0.9-47,1.8c-13.1,5.1-24.7,14-24.7,14   S20.5,0,54.9,0c31.9,0,45,14.2,53.3,24.9c5.1,6.6,8.7,15.6,8.7,15.6s7.4-4.7,19.2-2.9c9.6,1.4,17.2,6.9,21,13.8   c3.2,5.7,3.1,8.8,3.1,8.8s-9.1-13.3-25.5-14.5S110.7,60,110.7,60"
       id="path5" /><path
       fill="#84D0F0"
       d="M118,33.6c0,0,3.3-9.9,15.6-14.3c5.3-1.9,10-2.3,14.7-2.3c5.5,0,11,0.8,16.7,3c9.6,3.7,14.3,9.1,17.4,13.6   c3.3,4.7,6.8,11.4,6.8,11.4s2.7-2.4,9.6-2.6c8.3-0.3,11.8,4.6,13,6.3c2.5,3.7,3.3,8.4,3.3,8.4s-5.7-10.7-15.7-9.3   c-8.3,1.2-15,9.3-15,9.3s-1.2-6.2-4.5-13.1c-2.1-4.2-5.3-8.8-8.7-12.2c-9.1-9.1-25.8-10.1-33.9-8.7C123.3,25.6,118,33.6,118,33.6"
       id="path7" /><path
       fill="#009EE0"
       d="M197.3,64.3h-6.4l9.2,17.1V92h5.8V81.2l9.2-16.9h-6.3L203,75.7L197.3,64.3z M181.6,76.6l9.6-12.2h-6.5   l-7.5,9.4L175,77V64.3h-5.9V92h5.9v-9.9l2.5-1.8l7.2,11.6h6.7L181.6,76.6z M163,79.7c-1-1.2-2.7-2.5-5.3-3.7   c-2-0.9-3.2-1.6-3.7-1.9c-0.5-0.4-0.9-0.7-1.1-1.1c-0.2-0.4-0.4-0.8-0.4-1.4c0-0.8,0.3-1.5,0.9-2c0.6-0.5,1.4-0.8,2.6-0.8   c0.9,0,1.9,0.1,2.8,0.4c1,0.2,2.2,0.7,3.7,1.3l1.9-4.6c-1.4-0.6-2.8-1.1-4.1-1.4c-1.3-0.3-2.7-0.5-4.1-0.5c-2.9,0-5.2,0.7-6.9,2.1   c-1.7,1.4-2.5,3.3-2.5,5.8c0,1.3,0.3,2.4,0.8,3.4c0.5,1,1.2,1.8,2,2.6c0.8,0.7,2.1,1.5,3.8,2.3c1.8,0.9,3,1.5,3.6,1.9   c0.6,0.4,1,0.8,1.3,1.2c0.3,0.4,0.5,0.9,0.5,1.4c0,1-0.3,1.7-1,2.2c-0.7,0.5-1.7,0.7-3,0.7c-1.1,0-2.3-0.2-3.5-0.5   c-1.3-0.3-2.9-0.9-4.7-1.8v5.4c2.3,1.1,4.9,1.7,7.8,1.7c3.2,0,5.7-0.7,7.5-2.2c1.8-1.4,2.7-3.4,2.7-5.9C164.5,82.5,164,81,163,79.7   "
       id="path9" /><path
       fill="#707173"
       d="M140.8,81.6c-0.5-0.9-1.3-1.7-2.4-2.4c-1.1-0.7-2.7-1.4-4.9-2.2c-2.1-0.7-3.5-1.4-4.3-1.9   c-0.8-0.5-1.5-1.1-1.8-1.8c-0.4-0.7-0.6-1.5-0.6-2.5c0-1.6,0.6-2.9,1.8-3.9c1.2-0.9,2.8-1.4,4.9-1.4c2.1,0,4.3,0.5,6.6,1.4l0.7-1.7   c-2.3-1-4.7-1.5-7.3-1.5c-2.5,0-4.6,0.7-6.2,2c-1.6,1.3-2.4,3-2.4,5.1c0,1.9,0.5,3.4,1.6,4.5c1.1,1.1,3,2.2,5.9,3.1   c1.9,0.7,3.4,1.3,4.4,1.8c1,0.6,1.7,1.2,2.2,1.9c0.4,0.7,0.7,1.6,0.7,2.6c0,1.7-0.7,3.1-2,4.1c-1.3,1-3.1,1.6-5.4,1.6   c-3.1,0-5.6-0.4-7.6-1.3v1.9c1.8,0.7,4.4,1.1,7.8,1.1c2.8,0,5.1-0.7,6.8-2c1.7-1.3,2.5-3.2,2.5-5.5   C141.6,83.6,141.3,82.5,140.8,81.6 M106.3,90.3h-4.6V66h5.1c3.9,0,6.8,1,8.9,3c2,2,3,5,3,8.9C118.6,86.2,114.5,90.3,106.3,90.3    M117.3,67.8c-2.3-2.3-5.7-3.5-10.1-3.5h-7.5V92h6.6c4.7,0,8.3-1.2,10.7-3.6c2.4-2.4,3.6-5.9,3.6-10.5   C120.7,73.5,119.6,70.1,117.3,67.8 M91.1,64.3v18.1c0,2.6-0.7,4.6-2.2,6.1c-1.4,1.5-3.5,2.2-6.1,2.2c-2.7,0-4.8-0.7-6.3-2.2   c-1.5-1.5-2.2-3.6-2.2-6.2V64.3h-1.9v17.8c0,3.2,0.9,5.7,2.7,7.5c1.8,1.8,4.3,2.7,7.5,2.7c3.3,0,5.9-0.9,7.7-2.7s2.8-4.3,2.8-7.5   V64.3H91.1z M47.2,69c1.8-2.1,4.3-3.2,7.6-3.2c3.3,0,5.8,1.1,7.6,3.2c1.8,2.1,2.6,5.2,2.6,9.2c0,4-0.9,7.1-2.6,9.2   c-1.8,2.1-4.3,3.2-7.6,3.2c-3.3,0-5.8-1.1-7.6-3.2c-1.8-2.2-2.6-5.2-2.6-9.2C44.5,74.2,45.4,71.1,47.2,69 M63.8,67.7   c-2.2-2.5-5.2-3.8-9.1-3.8c-3.8,0-6.9,1.3-9.1,3.8c-2.2,2.5-3.3,6-3.3,10.4c0,4.4,1.1,7.9,3.3,10.4c2.2,2.6,5.2,3.8,9.1,3.8   c3.9,0,6.9-1.3,9.1-3.8c2.2-2.6,3.3-6,3.3-10.4C67.1,73.7,66,70.3,63.8,67.7 M39.9,92v-1.8H26.7V64.3h-1.9V92H39.9z M19.6,67.2   l0.8-1.7c-2.1-1-4.5-1.5-7.2-1.5c-2.6,0-5,0.6-7,1.7s-3.5,2.8-4.6,5C0.5,72.8,0,75.3,0,78.1c0,4.5,1.1,8,3.3,10.5   c2.2,2.5,5.3,3.8,9.2,3.8c2.7,0,5-0.3,6.8-1v-1.7c-1.9,0.6-4.1,0.9-6.4,0.9c-3.5,0-6.2-1.1-8.1-3.3c-1.9-2.2-2.8-5.2-2.8-9.2   c0-3.9,1-6.9,3-9.1c2-2.2,4.7-3.3,8.2-3.3C15.5,65.7,17.6,66.2,19.6,67.2"
       id="path11" /></g></svg>