<svg xmlns="http://www.w3.org/2000/svg" xmlns:xlink="http://www.w3.org/1999/xlink" version="1.1" x="0px" y="0px" viewBox="0 0 226.5 78" enable-background="new 0 0 226.5 78" xml:space="preserve"><style>.style0{fill:	#1C2254;}</style><path d="M14.1 75.9c-1.7 0-3.5 0.1-5.4 0.2c-1.9 0.1-3.5 0.2-4.9 0.2c-0.3 0-0.7 0-1.3-0.1c-0.5-0.1-0.8-0.4-0.8-1 c0-0.5 0.3-0.9 0.8-1.4c0.5-0.5 1.7-0.8 3.4-1.1c0.6-0.1 1.2-0.2 1.8-0.4c0.6-0.2 1.2-0.5 1.7-1c0.5-0.5 0.9-1.2 1.2-2.1 c0.3-0.9 0.5-2.2 0.5-3.9V11.7c0-0.5-0.3-0.9-0.8-1.2c-0.5-0.3-1.2-0.5-2-0.6C7.6 9.9 6.7 9.8 5.9 9.7C5 9.7 4.2 9.7 3.4 9.6 C2.1 9.4 1.2 9.3 0.7 9.2C0.2 9.1 0 8.7 0 8.1C0 7.6 0.2 7.3 0.5 7c0.3-0.3 0.7-0.5 1.2-0.6c0.5-0.1 0.9-0.2 1.4-0.2 c0.5 0 0.9-0.1 1.3-0.1h10.4c2.8 0 5.6-0.1 8.5-0.3c2.9-0.2 6.1-0.3 9.8-0.3c6 0 11.6 0.8 16.9 2.3c5.2 1.5 9.8 3.9 13.7 7.1 c3.9 3.2 7 7.3 9.3 12.3c2.3 5 3.4 10.9 3.4 17.7c0 4.3-0.9 8.3-2.8 12.1c-1.9 3.8-4.4 7.1-7.6 9.9c-3.2 2.8-6.9 5-11.2 6.7 c-4.3 1.6-8.9 2.4-13.7 2.4H14.1 M21 61.7c0 2 0.4 3.7 1.3 5.1c0.8 1.4 1.9 2.6 3.3 3.6c1.4 1 2.9 1.7 4.7 2.1 c1.8 0.5 3.5 0.7 5.4 0.7c1.5 0 3.3-0.2 5.4-0.7c2.1-0.5 4.2-1.2 6.4-2.1c2.2-0.9 4.4-2.2 6.6-3.8c2.2-1.6 4.2-3.5 5.9-5.8 c1.7-2.2 3.2-4.9 4.2-7.9c1.1-3 1.6-6.4 1.6-10.3c0-3.9-0.5-7.4-1.6-10.6c-1.1-3.2-2.5-6-4.3-8.5c-1.8-2.5-3.9-4.7-6.3-6.5 c-2.4-1.8-4.9-3.3-7.5-4.6c-2.6-1.2-5.2-2.1-7.9-2.7C35.4 9.3 32.9 9 30.6 9c-2.4 0-4.2 0.1-5.5 0.3c-1.3 0.2-2.2 0.5-2.9 0.9 c-0.6 0.3-1 0.7-1.1 1.2c-0.1 0.5-0.2 0.9-0.2 1.3V61.7z" class="style0"/><path d="M99.6 78c-2.7 0-4.9-0.4-6.7-1.1c-1.8-0.8-3.2-1.9-4.2-3.3c-1-1.4-1.7-3.2-2.2-5.1c-0.4-2-0.6-4.2-0.6-6.6 c0-1.7 0-3.7 0.1-5.8c0-2.1 0.1-4.3 0.1-6.4c0-2.2 0-4.3 0.1-6.4c0-2.1 0.1-4 0.1-5.6c0-0.8-0.4-1.4-1.1-1.6 c-0.8-0.2-1.5-0.4-2.2-0.6c-1.4-0.4-2.3-0.7-2.7-0.9c-0.5-0.2-0.7-0.5-0.7-0.9c0-0.5 0.3-0.8 0.8-0.9c0.5-0.1 1.2-0.1 2.1-0.1 c0.8 0 1.7 0 2.5 0.1c0.8 0.1 1.6 0.1 2.5 0.1c0.8 0 1.7 0 2.5-0.1c0.8-0.1 1.7-0.1 2.5-0.1c0.8 0 1.2 0.2 1.4 0.5 c0.2 0.3 0.3 0.9 0.3 1.7c0 5.1 0 10.2-0.1 15.2c-0.1 5.1-0.1 10.1-0.1 15.2c0 2.4 0.8 4.2 2.4 5.4c1.6 1.3 3.8 1.9 6.6 1.9 c3.2 0 5.7-0.3 7.5-0.9c1.8-0.6 3.1-1.4 4-2.3c0.9-0.9 1.5-2 1.8-3.2c0.3-1.2 0.4-2.4 0.4-3.5c0-4.1 0-8.2 0.1-12.2 c0.1-4 0.1-8.1 0.1-12.2c0-0.3-0.1-0.6-0.2-0.8c-0.1-0.2-0.4-0.4-0.8-0.6c-0.4-0.2-1-0.3-1.8-0.5c-0.8-0.2-1.8-0.5-3.2-0.9 c-0.5-0.2-1.1-0.4-2-0.7c-0.9-0.3-1.3-0.7-1.3-1.1c0-0.4 0.3-0.6 0.8-0.7c0.5-0.1 1.1-0.2 1.7-0.2c1 0 2 0 2.9 0.1 c0.9 0.1 1.9 0.1 2.9 0.1c1.1 0 2.3 0 3.4-0.1c1.1-0.1 2.2-0.1 3.4-0.1c0.4 0 0.9 0.1 1.5 0.4c0.6 0.3 0.9 0.9 0.9 2 c0 5.8-0.1 11.5-0.2 17.3c-0.1 5.7-0.2 11.5-0.2 17.3c0 1.2 0.4 2 1.1 2.3c0.7 0.3 1.3 0.5 1.9 0.5c2.2 0 3.7 0 4.6 0.1 c0.9 0.1 1.3 0.4 1.3 1c0 0.5-0.2 0.8-0.5 0.9c-0.3 0.2-0.9 0.3-1.8 0.5c-4 0.6-7.2 1.2-9.5 1.6c-2.3 0.5-3.7 0.7-4.3 0.7 c-0.4 0-0.7-0.2-0.8-0.5c-0.1-0.3-0.1-0.8-0.1-1.3v-2.6c0-0.9-0.3-1.4-0.8-1.4c-0.5 0-1.1 0.3-1.9 1c-0.8 0.7-1.9 1.5-3.3 2.3 c-1.3 0.9-2.9 1.6-4.7 2.3C103.9 77.6 101.9 78 99.6 78" class="style0"/><path d="M142.9 11c0-1.5-0.3-2.6-0.9-3.2c-0.6-0.6-1.2-1.1-1.9-1.4c-0.7-0.3-1.4-0.5-1.9-0.6c-0.6-0.2-0.9-0.5-0.9-1 c0-0.4 0.2-0.7 0.6-0.9c0.4-0.2 1-0.4 1.8-0.7l7.8-3c0.3-0.1 0.6-0.2 0.9-0.2s0.6 0 1 0c0.3 0 0.6 0.1 0.9 0.4 c0.3 0.3 0.4 0.8 0.4 1.7v46.9c0 1.2 0.3 1.8 1 1.8c0.2 0 0.7-0.2 1.8-0.7c1-0.5 2.2-1.1 3.6-1.9c1.4-0.8 2.8-1.7 4.4-2.7 c1.6-1 3-1.9 4.3-2.9c1.3-0.9 2.4-1.7 3.2-2.5c0.9-0.7 1.3-1.3 1.3-1.7c0-0.8-0.2-1.4-0.7-1.8c-0.5-0.4-0.9-0.8-1.5-1 c-0.5-0.3-1-0.5-1.5-0.8c-0.5-0.3-0.7-0.6-0.7-1.1c0-0.3 0.2-0.6 0.5-0.8c0.3-0.2 0.7-0.3 1.1-0.3c1.2 0 2.6 0 4.2 0.1 c1.6 0.1 3.1 0.1 4.6 0.1c1.4 0 2.9 0 4.5-0.1c1.6-0.1 2.9-0.1 4-0.1c0.5 0 1 0.1 1.5 0.2c0.5 0.2 0.7 0.5 0.7 1.1 c0 0.3-0.2 0.6-0.6 0.9c-0.4 0.3-0.9 0.5-1.5 0.7c-0.6 0.2-1.2 0.4-1.9 0.6c-0.6 0.2-1.2 0.4-1.5 0.5c-0.8 0.4-2.4 1.2-4.8 2.6 c-2.4 1.3-4.9 2.8-7.4 4.3c-2.5 1.5-4.8 2.9-6.8 4.3c-2 1.3-3 2.1-3 2.5c0 0.4 0.1 0.7 0.3 1c0.2 0.3 0.4 0.5 0.6 0.6L180 69.8 c1.1 1.1 2.3 1.9 3.4 2.4c1.1 0.5 2.1 1 2.9 1.3c0.8 0.3 1.5 0.6 2 0.9c0.5 0.2 0.7 0.5 0.7 0.9c0 0.8-1 1.1-3 1.1 c-1.2 0-2.5-0.1-4-0.2c-1.4-0.1-3-0.2-4.8-0.2c-1.5 0-3 0.1-4.3 0.2c-1.4 0.1-2.7 0.2-4.1 0.2c-1.2 0-2.1-0.1-2.6-0.2 c-0.5-0.1-0.8-0.4-0.8-1c0-0.5 0.3-0.9 0.9-1.1c0.6-0.2 1.4-0.4 2.4-0.5c0.6-0.1 1.1-0.3 1.5-0.6c0.4-0.3 0.6-0.6 0.6-1 c0-0.4-0.4-1-1.3-1.8l-17.2-16.3c-0.5-0.5-0.8-0.7-1-0.7c-0.5 0-0.8 0.2-0.8 0.6V70c0 1.3 0.3 2.2 0.9 2.7c0.6 0.5 1.1 0.8 1.7 1 c0.9 0.3 1.7 0.5 2.3 0.6c0.6 0.1 1 0.4 1 1c0 0.5-0.3 0.8-0.9 0.9c-0.6 0.2-1.2 0.2-1.8 0.2c-1.4 0-2.7-0.1-3.9-0.2 c-1.2-0.1-2.5-0.2-3.8-0.2c-1.4 0-2.8 0.1-4.4 0.2c-1.6 0.1-2.8 0.2-3.8 0.2c-0.4 0-0.9-0.1-1.7-0.2c-0.7-0.1-1.1-0.4-1.1-1 c0-0.5 0.2-0.9 0.6-1.1c0.4-0.2 0.9-0.4 1.5-0.5c0.8-0.2 1.5-0.4 2.2-0.6c0.7-0.2 1.3-0.4 1.8-0.7c0.5-0.3 0.9-0.8 1.2-1.4 c0.3-0.6 0.4-1.5 0.4-2.7V11" class="style0"/><path d="M196.5 49.5c-0.1 0.4-0.2 0.9-0.2 1.6c0 0.7 0 1.5 0 2.4c0 2.4 0.2 4.8 0.6 7.1c0.4 2.3 1.2 4.3 2.4 6 c1.2 1.7 2.8 3.2 5 4.3c2.2 1.1 5 1.6 8.5 1.6c2.2 0 3.9-0.2 5.1-0.7c1.2-0.5 2.2-1 2.8-1.5c0.7-0.6 1.2-1.1 1.6-1.6 c0.4-0.5 0.8-0.7 1.3-0.7c0.7 0 1 0.3 1 0.9c0 0.2-0.3 0.8-0.9 1.8c-0.6 1-1.6 2-3 3.1c-1.4 1.1-3.1 2.1-5.2 3 c-2.1 0.9-4.6 1.3-7.6 1.3c-6.3 0-11.2-2.1-14.6-6.2c-3.4-4.1-5.1-9.8-5.1-16.9c0-2.7 0.4-5.4 1.3-8.3c0.8-2.9 2.1-5.4 3.8-7.8 c1.7-2.3 3.8-4.2 6.4-5.8c2.6-1.5 5.7-2.3 9.2-2.3c3.3 0 6 0.6 8.2 1.8c2.2 1.2 4 2.7 5.4 4.4c1.4 1.7 2.4 3.5 3 5.3 c0.6 1.8 0.9 3.3 0.9 4.6c0 1.1-0.1 1.8-0.4 2.1c-0.3 0.3-0.9 0.5-1.9 0.5H196.5 M207.3 46c2.5 0 4.5-0.1 6-0.3 c1.5-0.2 2.7-0.5 3.5-1c0.8-0.5 1.4-1 1.7-1.7c0.3-0.7 0.4-1.6 0.4-2.6c0-2-0.8-3.6-2.4-5c-1.6-1.3-3.6-2-6-2 c-2.1 0-3.9 0.4-5.5 1.3c-1.6 0.9-3 1.9-4.1 3.1c-1.1 1.2-2 2.5-2.6 3.8c-0.6 1.3-0.9 2.4-0.9 3.3c0 0.2 0.1 0.4 0.2 0.5 c0.1 0.1 0.5 0.2 1.1 0.3c0.6 0.1 1.6 0.1 3 0.2C203 46 204.9 46 207.3 46z" class="style0"/></svg>