<?xml version="1.0" encoding="utf-8"?>
<!-- Generator: Adobe Illustrator 22.0.1, SVG Export Plug-In . SVG Version: 6.00 Build 0)  -->
<svg version="1.1" id="Layer_1" xmlns="http://www.w3.org/2000/svg" xmlns:xlink="http://www.w3.org/1999/xlink" x="0px" y="0px"
	 width="267.3px" height="35.6px" viewBox="0 0 267.3 35.6" style="enable-background:new 0 0 267.3 35.6;" xml:space="preserve">
<style type="text/css">
	.st0{fill:#1B459C;}
	.st1{fill:#00AE64;}
	.st2{fill:#FFFFFF;}
</style>
<title>Page 1</title>
<desc>Created with Sketch.</desc>
<g>
	<path class="st0" d="M63.7,18.1c0,1.5-1.4,1.9-3.1,1.9h-4.3v4c1.5,0.3,2.2,0.9,2.2,1.3v0.1h-5.1V12.3c-0.9-0.3-1.6-0.9-1.6-1.3
		v-0.1h13.3v3.6H65c-0.4,0-1-0.7-1.3-1.6h-7.4v4.9h7.4L63.7,18.1z"/>
	<path class="st0" d="M71.4,25.4h-5.3v-0.1c0-0.4,0.6-1,1.3-1.3v-9.4c-0.7-0.2-1.3-0.9-1.3-1.3v-0.1h5.3v0.1c0,0.4-0.6,1-1.3,1.3V24
		c0.7,0.2,1.3,0.9,1.3,1.3V25.4z"/>
	<path class="st0" d="M84,18.8c0,1.5-1.4,1.9-3.1,1.9H77V24c1,0.2,1.8,0.9,1.8,1.3v0.1h-4.4V14.6c-0.7-0.2-1.3-0.9-1.3-1.3v-0.1
		h12.8v3.3h-0.1c-0.4,0-1-0.6-1.3-1.3H77v3.6L84,18.8L84,18.8z"/>
	<path class="st0" d="M99.3,13.2v3.3h-0.1c-0.4,0-1-0.6-1.3-1.3h-3.5V24c1,0.2,1.8,0.9,1.8,1.3v0.1H90v-0.1c0-0.4,0.8-1,1.8-1.3
		v-8.8h-3.4c-0.2,0.7-0.9,1.3-1.3,1.3H87v-3.3H99.3z"/>
	<path class="st0" d="M104.6,18.2c1.2-0.3,2.5-0.4,3.7-0.3c1.3,0,2.5,0.1,3.8,0.3v-3.6c-0.7-0.2-1.3-0.9-1.3-1.3v-0.1h5.3v0.1
		c0,0.4-0.6,1-1.3,1.3V24c0.7,0.2,1.3,0.9,1.3,1.3v0.1h-3.9v-5c-1.2-0.2-2.5-0.4-3.8-0.3c-1.2,0-2.5,0.1-3.7,0.3V24
		c0.7,0.2,1.3,0.9,1.3,1.3v0.1h-4V14.6c-0.7-0.2-1.3-0.9-1.3-1.3v-0.1h5.3v0.1c0,0.4-0.6,1-1.3,1.3L104.6,18.2z"/>
	<path class="st0" d="M139,10.9v3.6h0c-0.4,0-1.1-0.7-1.4-1.6h-4.4v11c0.9,0.3,1.6,0.9,1.6,1.3v0h-6v0c0-0.4,0.7-1.1,1.6-1.3V13
		h-4.4c-0.3,0.9-0.9,1.6-1.3,1.6h-0.1v-3.6H139z"/>
	<path class="st0" d="M144.3,18.2c1.2-0.3,2.5-0.4,3.7-0.3c1.3,0,2.5,0.1,3.8,0.3v-3.6c-0.7-0.2-1.3-0.9-1.3-1.3v-0.1h5.3v0.1
		c0,0.4-0.6,1-1.3,1.3V24c0.7,0.2,1.3,0.9,1.3,1.3v0.1h-4v-5c-1.2-0.2-2.5-0.4-3.8-0.3c-1.2,0-2.5,0.1-3.7,0.3V24
		c0.7,0.2,1.3,0.9,1.3,1.3v0.1h-4V14.6c-0.7-0.2-1.3-0.9-1.3-1.3v-0.1h5.3v0.1c0,0.4-0.6,1-1.3,1.3L144.3,18.2z"/>
	<path class="st0" d="M162.6,25.4h-5.3v-0.1c0-0.4,0.6-1,1.3-1.3v-9.4c-0.7-0.2-1.3-0.9-1.3-1.3v-0.1h5.3v0.1c0,0.4-0.6,1-1.3,1.3
		V24c0.7,0.2,1.3,0.9,1.3,1.3V25.4z"/>
	<path class="st0" d="M169.5,25.4h-3.9V14.6c-0.7-0.2-1.3-0.9-1.3-1.3v-0.1h8.6c3,0,4.9,1,4.9,3.6c0,2-1.3,3.1-3.3,3.4l2.6,3.8
		c0.7,0.1,1.5,0.8,1.5,1.3v0.1h-3.7l-3.3-5h-3.3V24c0.7,0.2,1.3,0.9,1.3,1.3L169.5,25.4z M172.5,18.6c2.2,0,2.7-0.7,2.7-1.7
		s-0.4-1.7-2.7-1.7h-4.2v3.4H172.5z"/>
	<path class="st0" d="M180.7,14.6c-0.7-0.2-1.3-0.9-1.3-1.3v-0.1h8.5c3.4,0,6,2,6,6.1s-2.6,6.1-6,6.1h-7.2L180.7,14.6z M186.9,23.4
		c2.9,0,4.3-0.9,4.3-4.1s-1.4-4.1-4.3-4.1h-3.6v8.2H186.9z"/>
	<path class="st1" d="M40.1,10.7C40,4.8,35.3,0,29.4,0H0v25c0,5.9,4.8,10.6,10.7,10.7h29.4V10.7z"/>
	<path class="st2" d="M29.4,1.9H1.9V25c0,4.8,3.9,8.7,8.7,8.7h27.5V10.6C38.1,5.8,34.2,1.9,29.4,1.9"/>
	<path class="st0" d="M29.3,3.2H3.2V25c0,4.2,3.4,7.5,7.5,7.5h26.2V10.7C36.9,6.6,33.5,3.2,29.3,3.2"/>
	<path class="st2" d="M18,29l6-22.8l-1.4,0l-6,22.9L18,29z M30.2,21.2c1-0.2,1.9-0.6,2.6-1.4c0.6-0.8,0.9-1.8,0.6-2.8
		c-0.2-0.9-0.8-1.7-1.6-2.3c-0.7-0.5-1.5-0.8-2.3-0.8h-6.4c1.6,0.5,2.8,1.7,3.3,3.3c0,0,1,3.1-3.2,4c0,0-0.1,0,0,0
		c0.8,0.3,1.5,0.8,2.2,1.5c0.5,0.5,0.8,1.2,1,1.8c0.7,3.3-3.3,4.1-3.3,4.1h6.2c2.2,0,3.1-1.2,3.3-1.4c0.7-0.7,1-1.7,0.8-2.7
		c-0.2-0.8-0.6-1.6-1.3-2.1C31.6,21.9,30.9,21.5,30.2,21.2L30.2,21.2 M17,19.8c0.6-0.6,0.8-1.9,0.5-3c-0.3-1-0.9-1.9-1.7-2.5
		c-0.7-0.5-1.5-0.9-2.4-1l-6.8,0c1.7,0.5,3,1.8,3.6,3.5c0.7,3.5-3.3,4.2-3.3,4.2h7.5C15.3,21,16.3,20.6,17,19.8 M16.3,6.8l-0.1,5.1
		H6.5V6.8L16.3,6.8z"/>
	<path class="st0" d="M212.6,23.1c2.5,0,3.4-0.7,3.4-2s-0.9-2.1-3.4-2.1H207v4.1H212.6z M212.5,16.7c1.8,0,3.1-0.4,3.1-1.9
		c0-1.4-1.3-1.6-3.1-1.6H207v3.5L212.5,16.7z M212.8,11c3.4,0,5.6,0.9,5.6,3.6c0,1.7-1.2,2.8-3.2,3.3c2.3,0.4,3.6,1.6,3.6,3.5
		c0,2.3-2,4.1-5.4,4.1h-9.4v-13c-0.9-0.3-1.5-0.9-1.5-1.3V11L212.8,11z"/>
	<path class="st0" d="M235.9,14.6c-0.7-0.2-1.3-0.9-1.3-1.3v-0.1h3.8l8,8.3v-6.9c-0.7-0.2-1.3-0.9-1.3-1.3v-0.1h5v0.1
		c0,0.4-0.6,1-1.3,1.3V24c0.7,0.2,1.3,0.9,1.3,1.3v0.1h-3.5l-8.3-8.5V24c0.7,0.2,1.3,0.9,1.3,1.3v0.1h-3.7V14.6z"/>
	<path class="st0" d="M261,14.4c-0.3-0.3-0.6-0.6-0.6-1.1v-0.1h5v0.1c0,0.6-0.8,1.2-1.4,1.3l-4.4,3.7l4.9,5.7
		c0.6,0.2,1.5,0.7,1.5,1.3v0.1h-3.7l-4.6-5.6l-1.9,1.5V24c0.7,0.2,1.3,0.9,1.3,1.3v0.1h-3.9V14.6c-0.7-0.2-1.3-0.9-1.3-1.3v-0.1h5.2
		v0.1c0,0.4-0.6,1-1.3,1.3v4.2L261,14.4z"/>
	<path class="st0" d="M226.2,16.2l-1.9,4.2c1.4-0.1,2.8-0.1,4.1,0l-2-4.3H226.2z M223.9,25.3v0.1h-5.1v-0.1c0-0.6,0.8-1.2,1.4-1.3
		l4.4-9.5c-0.5-0.2-1-0.7-1-1.1v-0.1h5.8v0.1c0,0.4-0.6,0.9-1,1.1l4.7,9.5c0.6,0.1,1.4,0.7,1.4,1.3v0.1H229v-0.1
		c0-0.6,0.7-1.1,1.2-1.2l-0.7-1.5c-2-0.3-4.1-0.3-6.1,0l-0.7,1.5C223.4,24.1,223.9,24.6,223.9,25.3"/>
</g>
</svg>
