<svg width="84px" height="29px" viewBox="0 0 84 29" version="1.1" xmlns="http://www.w3.org/2000/svg" xmlns:xlink="http://www.w3.org/1999/xlink">
				<defs>
					<path d="M27.7518668,16.5679612 C28.2159608,17.1431128 28.7456858,17.6721174 29.3375232,18.1560979 C30.5176886,19.1195612 31.9228683,19.8770519 33.5542301,20.427438 C35.1855981,20.9778302 36.9611164,21.2535862 38.879611,21.2535862 L48.3830215,21.2535862 L49.2890867,20.0617531 L52.5364421,15.7902119 L38.880785,15.7902119 C37.9549386,15.7902119 37.09472,15.6686545 36.3013033,15.4244108 C35.5078865,15.181293 34.818775,14.8368764 34.2339688,14.39229 C33.6491626,13.9477036 33.1979537,13.4130691 32.8780131,12.7883925 C32.5580663,12.163719 32.3986798,11.4703849 32.3986798,10.7072704 C32.3986798,9.9452788 32.5639234,9.24631785 32.8944169,8.61038755 C33.2249105,7.97558018 33.677287,7.42969498 34.2503726,6.97385181 C34.8234645,6.51913157 35.5078865,6.16346124 36.3013033,5.91021572 C37.09472,5.65584115 37.9549386,5.52865693 38.880785,5.52865693 L53.9451343,5.52865693 C54.0330357,4.86121131 54.208826,4.20839736 54.4877476,3.5825948 C54.9131674,2.62813637 55.5718191,1.83238053 56.4226586,1.19194783 C57.1129378,0.673074015 57.9051806,0.288138801 58.7302436,0 L38.880785,0 C36.962284,0 35.186772,0.248744645 33.555404,0.746233934 C31.924036,1.24372322 30.5176886,1.9539379 29.3386971,2.8746321 C28.7456858,3.33722811 28.2171347,3.84597419 27.7530376,4.39973822 C27.4541872,4.75653453 27.1811228,5.13246646 26.935012,5.52640496 C26.8025791,5.73800742 26.6783514,5.95523674 26.5611547,6.17809292 C25.8884502,7.45895833 25.5520995,8.87263789 25.5520995,10.4191316 C25.5520995,11.9656222 25.8884502,13.3995634 26.5611547,14.7232009 C26.6783514,14.9528099 26.8025791,15.1779181 26.935012,15.3973963 C27.1799488,15.8082215 27.4530164,16.1976591 27.7518668,16.5679612 L27.7518668,16.5679612 Z M20.1200717,0.00225043897 L26.933838,0.00225043897 L26.933838,4.13073503 C26.5142754,4.65861366 26.1451108,5.22363448 25.8286795,5.82692347 C25.0739401,7.26423952 24.731726,8.81410812 24.731726,10.4213805 C24.731726,12.0466625 25.0821452,13.6100368 25.8239931,15.0709893 C26.1415952,15.6945399 26.5119338,16.2820713 26.933838,16.8313375 L26.933838,21.2535862 L20.1200717,21.2535862 L20.1200717,13.0573988 L6.95546215,13.0573988 L6.95546215,21.2535862 L0.0748939701,21.2535862 L0.0748939701,0.00225043897 L6.95546215,0.00225043897 L6.95546215,7.5309938 L20.1200717,7.5309938 L20.1200717,0.00225043897 L20.1200717,0.00225043897 Z M56.6429835,21.2547122 L74.5071487,21.2547122 C76.1830513,21.2547122 77.6222064,21.0960096 78.8234714,20.7786105 C80.0259041,20.4612053 81.0115149,20.0053621 81.783832,19.4122039 C82.5561617,18.8190427 83.1175205,18.0885664 83.4702813,17.2207751 C83.823042,16.3529838 84,15.3782638 84,14.297744 C84,12.349433 83.294491,10.8929844 81.8834603,9.92952113 C80.4724172,8.96605788 78.4097659,8.48432625 75.6978545,8.48432625 L63.6583229,8.48432625 C62.8649125,8.48432625 62.2742491,8.37289969 61.8886681,8.15116643 C61.5030996,7.92831025 61.309719,7.54224752 61.309719,6.99185838 C61.309719,6.72735913 61.3542536,6.50224792 61.4433226,6.31653393 C61.5394228,6.11393629 61.6882689,5.95861163 61.8886681,5.84831105 C62.2742491,5.6367086 62.8649125,5.5309089 63.6583229,5.5309089 L79.0062928,5.5309089 L83.405821,0.00337642339 L64.1880542,0.00337642339 C62.5121517,0.00337642339 61.0729841,0.162077502 59.8717316,0.479479658 C58.6692989,0.796883345 57.6883713,1.24147126 56.9277685,1.81324492 C56.1671657,2.38502164 55.6046267,3.07835267 55.2413193,3.8943701 C55.0139633,4.40424216 54.8569185,4.95012736 54.7725326,5.5309089 C54.7350292,5.78640639 54.7116005,6.04865673 54.7010539,6.31653393 C54.6975383,6.41333187 54.6951904,6.51125274 54.6951904,6.61029959 C54.6951904,7.520863 54.860434,8.35263809 55.1909213,9.10449889 C55.5214211,9.85635968 56.0288789,10.4967939 56.7121269,11.0269245 C57.3953749,11.5559261 58.2555935,11.9690002 59.2927825,12.2661438 C60.3287914,12.5621614 61.5640317,12.7107302 62.9973484,12.7107302 L75.0368675,12.7107302 C75.8525515,12.7107302 76.4479107,12.8277897 76.8229325,13.0607767 C77.1979668,13.2937637 77.3854714,13.6854502 77.3854714,14.2358394 C77.3854714,14.7862285 77.1979668,15.183545 76.8229325,15.4266597 C76.4479107,15.6697805 75.8525515,15.7924639 75.0368675,15.7924639 L60.7964104,15.7924639 L56.6429835,21.2547122 L56.6429835,21.2547122 Z M51.6762236,21.2547122 L50.0577501,21.2547122 L50.7805356,20.303699 L54.2099937,15.7913379 L55.8284671,15.7913379 L52.2213668,20.5374326 L51.6762236,21.2547122 L51.6762236,21.2547122 Z M54.9694288,21.2547122 L53.3509553,21.2547122 L53.712279,20.7792897 L57.503202,15.7913379 L59.1216755,15.7913379 L55.1531165,21.0130233 L54.9694288,21.2547122 Z M5.24542474,27.5741086 L4.70498704,28.8753319 C4.60961568,28.8363731 4.55398238,28.8207896 4.43476819,28.8207896 C4.07712559,28.8207896 3.52874028,29 2.85319315,29 C1.00139927,29 -1.13686838e-13,27.9403212 -1.13686838e-13,26.5455968 C-1.13686838e-13,25.2209982 0.906027909,23.9041914 2.91677406,23.9041914 C3.7830639,23.9041914 4.39503012,24.1613194 4.6255109,24.1613194 C4.68909181,24.1613194 4.72882988,24.1457359 4.76856794,24.1067771 L4.96725827,24.1067771 L5.00699634,25.3924169 L4.76856794,25.3924169 C4.47450625,24.589866 3.83074958,24.1535276 2.94856451,24.1535276 C1.75642253,24.1535276 0.961661202,25.0262043 0.961661202,26.3430111 C0.961661202,27.7065685 1.87563672,28.7194968 3.09162155,28.7194968 C3.87048765,28.7194968 4.56193,28.3143255 5.00699634,27.5741086 L5.24542474,27.5741086 Z M13.0111778,26.5845556 C13.0111778,25.0262043 14.2271626,23.9041914 15.9120566,23.9041914 C17.6287411,23.9041914 18.8129355,24.909328 18.8129355,26.3663864 C18.8129355,27.7689025 17.6684791,29 15.8802662,29 C14.219215,29 13.0111778,27.9792799 13.0111778,26.5845556 Z M13.972839,26.3741782 C13.972839,27.9403212 14.9980811,28.7506638 16.007428,28.7506638 C17.1121462,28.7506638 17.8512743,27.8701953 17.8512743,26.5611803 C17.8512743,25.1508724 17.0167749,24.1535276 15.8484757,24.1535276 C14.7040194,24.1535276 13.972839,25.0106208 13.972839,26.3741782 Z M26.4912648,28.8753319 L26.4912648,28.6649545 C26.9840168,28.6649545 27.1270738,28.5792452 27.1747595,27.9013624 L27.3655022,25.0339961 C27.4131879,24.3405298 27.3257642,24.2392369 26.8648026,24.2392369 L26.8648026,24.0288595 L28.335111,24.0288595 L30.0517955,27.6364427 L31.6731086,24.0288595 L33.143417,24.0288595 L33.143417,24.2392369 C32.6983507,24.2392369 32.6029793,24.332738 32.6347698,24.6911588 L32.9208839,28.2364079 C32.9526743,28.6337875 33.103679,28.6649545 33.5725882,28.6649545 L33.5725882,28.8753319 L31.315466,28.8753319 L31.315466,28.6649545 C31.9671703,28.6649545 32.0784369,28.5091194 32.014856,27.6831932 L31.8002704,24.8080351 L31.7843752,24.8080351 L29.9484765,28.8753319 L29.6782577,28.8753319 L27.8105686,24.909328 L27.7946733,24.909328 L27.6039306,27.7922778 C27.5482973,28.6259957 27.7310924,28.6259957 28.2556349,28.6649545 L28.2556349,28.8753319 L26.4912648,28.8753319 Z M41.0681224,28.8753319 L41.0681224,28.6649545 C41.6165077,28.6415792 41.7357219,28.5324946 41.7357219,27.8390283 L41.7357219,25.0651631 C41.7357219,24.3093628 41.6006124,24.2392369 40.972751,24.2392369 L40.972751,24.0288595 C41.2032318,24.0288595 41.6006124,24.013276 41.7913552,24.0054843 C42.1728406,23.9899007 42.6973831,23.9665255 42.8483877,23.9665255 C44.3504866,23.9665255 45.1611432,24.301571 45.1611432,25.3690416 C45.1611432,26.2806771 44.3902247,26.9118093 43.2696112,26.9118093 C43.0550257,26.9118093 42.8404401,26.8962258 42.6179069,26.857267 L42.6179069,27.9247376 C42.6179069,28.5247029 42.7768592,28.6571627 43.5159872,28.6649545 L43.5159872,28.8753319 L41.0681224,28.8753319 Z M42.6179069,24.2080699 L42.6179069,26.6235144 C42.7212259,26.6390979 42.8404401,26.6624731 42.9596543,26.6624731 C43.6908347,26.6624731 44.199482,26.1170502 44.199482,25.3534581 C44.199482,24.8314104 43.9610536,24.1846947 43.00734,24.1846947 C42.8563353,24.1846947 42.7371211,24.1924864 42.6179069,24.2080699 Z M51.6552781,28.8753319 L51.6552781,28.6649545 C52.1877682,28.6571627 52.2910872,28.5714534 52.5136203,27.9636964 L53.9521383,24.0989853 L53.8885574,23.9041914 L54.7786901,23.9041914 L56.3284747,27.9636964 C56.5589555,28.5714534 56.6384316,28.6649545 57.1391312,28.6649545 L57.1391312,28.8753319 L54.7786901,28.8753319 L54.7786901,28.6649545 C55.4065516,28.6649545 55.5813991,28.6026204 55.5813991,28.3766595 C55.5813991,28.2987419 55.5496086,28.1662821 55.4701325,27.9636964 L55.088647,26.9975186 L53.2686436,26.9975186 L52.8792106,28.0338222 C52.8235773,28.1818656 52.7997344,28.2831584 52.7997344,28.361076 C52.7997344,28.5870369 52.9586867,28.6883298 53.5944957,28.6649545 L53.5944957,28.8753319 L51.6552781,28.8753319 Z M53.4196483,26.6079308 L54.9376424,26.6079308 L54.1746715,24.6366165 L53.4196483,26.6079308 Z M69.5224476,28.9220824 L65.6360647,24.909328 L65.6360647,27.9013624 C65.6360647,28.5091194 65.7155409,28.7039133 66.430826,28.6649545 L66.430826,28.8753319 L64.5313465,28.8753319 L64.5313465,28.6649545 C65.1035746,28.680538 65.198946,28.5013276 65.198946,27.9948634 L65.198946,24.4885731 C65.0082033,24.3249463 64.8333558,24.2626122 64.5313465,24.2392369 L64.5313465,24.0288595 L65.9698645,24.0288595 L69.5145,27.6987767 L69.5145,24.909328 C69.5145,24.3249463 69.4191286,24.2314452 68.7276863,24.2392369 L68.7276863,24.0288595 L70.6510087,24.0288595 L70.6510087,24.2392369 C70.1185186,24.2392369 69.9516187,24.332738 69.9516187,24.9249115 L69.9516187,28.9220824 L69.5224476,28.9220824 Z M80.5387745,26.9741434 L79.0446232,24.8703692 C78.6472425,24.3093628 78.5439235,24.2626122 78.0511715,24.2392369 L78.0511715,24.0288595 L80.4434031,24.0288595 L80.4434031,24.2392369 C80.014232,24.2392369 79.8870702,24.3249463 79.8870702,24.4651979 C79.8870702,24.5664907 79.9506511,24.6989506 80.157289,24.9872455 L81.1984264,26.444304 L82.1044543,25.0339961 C82.2872494,24.7457011 82.3667255,24.589866 82.3667255,24.4807814 C82.3667255,24.3093628 82.2157209,24.2392369 81.8580783,24.2392369 L81.8580783,24.0288595 L83.7257674,24.0288595 L83.7257674,24.2392369 C83.1455916,24.301571 83.0025346,24.4028638 82.4938873,25.2054147 L81.4209595,26.9040176 L81.4209595,27.9870717 C81.4209595,28.5636617 81.5163309,28.6649545 82.1759828,28.6649545 L82.1759828,28.8753319 L79.7758036,28.8753319 L79.7758036,28.6649545 C80.3798222,28.6649545 80.5387745,28.6104122 80.5387745,27.9636964 L80.5387745,26.9741434 Z" id="path-1"></path>
				</defs>
				<g stroke="none" stroke-width="1" fill="none" fill-rule="evenodd">
					<g transform="translate(-51.000000, -21.000000)">
						<rect x="0" y="0" width="1440" height="5104"></rect>
						<g id="menu">
							<g id="hcs-svg-g-logo" transform="translate(51.000000, 21.000000)">
								<mask id="mask-2" fill="white">
									<use xlink:href="#path-1"></use>
								</mask>
								<use id="hcs-company-logo" fill="#E4002B" fill-rule="evenodd" xlink:href="#path-1"></use>
							</g>
						</g>
					</g>
				</g>
			</svg>