<?xml version="1.0" encoding="utf-8"?>
<svg viewBox="96 96 401.2 182.9" xmlns="http://www.w3.org/2000/svg">
  <defs>
    <style type="text/css">
	.st0{fill:#1E1E1E;}
	.st1{fill:none;}
</style>
  </defs>
  <g id="kpn_logo">
    <g>
      <path class="st0" d="M257.7,168.1c-5.4-5.4-15.3-11.8-32.2-11.8c-3.1,0-6.2,0.2-9.1,0.6l-0.9,0.1l0.3,0.9c0.8,2.6,1.4,5.5,1.8,8.4 l0.1,0.8l0.8-0.1c2.4-0.3,4.7-0.4,7-0.4c13.4,0,21,4.8,25,8.8c4.2,4.2,6.5,9.6,6.5,15c0,6.9-3.6,15.6-7.2,24.1 c-1.7,4.2-4.9,12.3-6.7,19.2c-3.3,13.1-8.8,35-21.9,35c-4.3,0-9.4-2.4-15.5-7.2c-3.3,1.9-6.8,3.4-10.5,4.6 c9.8,8.7,18.1,12.8,26,12.8c21.2,0,28.1-27.8,31.8-42.7c1.1-4.6,3.3-10.8,6.2-17.7c3.9-9.4,8-19.1,8-28 C267.2,182.3,263.8,174.2,257.7,168.1z"/>
      <path class="st0" d="M212,148.2l0.9-0.2c2.9-0.5,5.9-0.8,9.1-1c0.3,0,0.6,0,0.9,0C208.8,113.8,173.1,96,152.7,96 c-27.1,0-36.7,27.6-36.7,53.4c0,12,4.1,24.6,7.5,33l0.3,0.8l0.8-0.3c2.4-1.1,5-2.1,8-3.2l0.8-0.3l-0.3-0.8 c-4.3-10.6-6.8-21.3-6.8-29.2c0-16.5,4-30,11.1-37c4.1-4.1,9.1-6.1,15.4-6.1C168.8,106.3,199,121.2,212,148.2z"/>
      <path class="st0" d="M190.8,247.3l-0.4-0.4l-0.5,0.2c-5.5,2-11.1,2.9-17.2,2.9c-20,0-41.8-8.9-55.6-22.8 c-6.9-6.9-10.9-14.3-10.9-20.2c0-8.1,3-14.1,9.4-19c-1.2-2.9-2.6-6.3-3.8-9.9C101.2,185.2,96,194.7,96,207 c0,8.7,4.9,18.5,13.9,27.5c12.4,12.5,35.5,25.8,62.9,25.8c8.6,0,16.8-1.7,24.4-5l1.1-0.5l-0.8-0.8 C195.1,251.7,192.9,249.4,190.8,247.3z"/>
      <g>
        <path class="st0" d="M467.8,169c-10.7,0-19.7,2-27.8,5.2v54h18.1v-43.3c2.6-1.2,5.9-1.8,9.3-1.8c9.8,0,11.7,6,11.7,17l0,28.1 h18.1v-30.8C497.1,180.1,491.4,169,467.8,169z"/>
        <rect x="293.9" y="148.9" class="st0" width="18.1" height="79.3"/>
        <polygon class="st0" points="332.8,228.2 354.2,228.2 331.7,196.3 352.3,171.1 331.7,171.1 312,197 &#9;&#9;&#9;"/>
        <path class="st0" d="M392.7,182.8c7.9,0,13.1,4.9,13.1,16.3c0,11-4.1,17-13.9,17c-2.8,0-6.3-0.6-8.1-1.3v-30.3 C386.3,183.4,389.4,182.8,392.7,182.8z M365.7,174.2v76.2h18.1v-21.7c3.9,0.7,6.9,0.9,10.3,0.9c19.9,0,30.4-11.4,30.4-30.5 c0-19.2-10.3-30-31.6-30C383.2,169,373.2,171.1,365.7,174.2z"/>
      </g>
      <path class="st0" d="M179.1,175.9v-9c-2.1-0.6-4.7-0.9-7.3-0.9c-10.5,0-15.6,7.1-15.6,14.2c0,6.8,2.5,13.3,11.9,27.9 c3.8-0.5,7.6-0.8,11.4-0.9c-8.2-15.2-10.2-20.6-10.2-24.5c0-4.5,2.6-6.8,7.9-6.8C178,175.9,178.6,175.9,179.1,175.9z"/>
      <path class="st0" d="M150.6,189.1c-0.8-2-1.3-5.3-1.6-7.7c-8.3-0.3-14.6,4.5-14.6,11.2c0,5.4,2.8,10.2,14.2,19.9 c2.9-1,6.8-2.1,10.1-2.8c-11.2-10.5-13-13.3-13-16.4C145.9,191.1,147.5,189.6,150.6,189.1z"/>
      <path class="st0" d="M186.8,175.9v-9c2.1-0.6,4.7-0.9,7.3-0.9c10.4,0,15.6,7.1,15.6,14.2c0,6.8-2.5,13.3-11.9,27.9 c-3.8-0.5-7.6-0.8-11.4-0.9c8.2-15.2,10.2-20.6,10.2-24.5c0-4.5-2.6-6.8-7.9-6.8C188,175.9,187.4,175.9,186.8,175.9z"/>
      <path class="st0" d="M215.3,189.1c0.8-2,1.3-5.3,1.6-7.7c8.3-0.3,14.6,4.5,14.6,11.2c0,5.4-2.8,10.2-14.2,19.9 c-2.9-1-6.8-2.1-10.1-2.8c11.2-10.5,13-13.3,13-16.4C220,191.1,218.4,189.6,215.3,189.1z"/>
      <path class="st0" d="M183,226.2c8.4,0,17,1.1,25.9,3.8l3-10c-10-3-19.8-4.2-29-4.2c-9.2,0-18.9,1.2-29,4.2l3,10 C166,227.3,174.6,226.2,183,226.2z"/>
      <rect x="176.4" y="145.3" transform="matrix(0.7072 -0.7071 0.7071 0.7072 -53.7838 173.8349)" class="st0" width="13.1" height="13.1"/>
    </g>
  </g>
</svg>