<?xml version="1.0" encoding="windows-1252"?>
<!DOCTYPE svg PUBLIC "-//W3C//DTD SVG 1.1//EN" "http://www.w3.org/Graphics/SVG/1.1/DTD/svg11.dtd">
<svg version="1.1" id="CMYK" xmlns="http://www.w3.org/2000/svg" xmlns:xlink="http://www.w3.org/1999/xlink" x="0px" y="0px" viewBox="0 0 308.647 70.895" style="enable-background:new 0 0 308.647 70.895;" xml:space="preserve">
<g>
  <g>
    <g>
      <rect x="37.038" y="0" style="fill:#FCB32D;" width="4.22" height="4.228"/>
      <rect x="29.629" y="0" style="fill:#EF4250;" width="4.221" height="4.228"/>
      <rect x="37.038" y="7.411" style="fill:#EF4250;" width="4.22" height="4.224"/>
      <rect x="29.629" y="7.411" style="fill:#9D1C32;" width="4.221" height="4.224"/>
      <rect x="51.852" y="14.815" style="fill:#FCB32D;" width="4.224" height="4.227"/>
      <rect x="44.445" y="22.225" style="fill:#B5772A;" width="4.221" height="4.224"/>
      <rect x="44.445" y="14.815" style="fill:#EF4250;" width="4.221" height="4.227"/>
      <rect x="51.852" y="7.411" style="fill:#EF4250;" width="4.224" height="4.224"/>
      <rect x="44.445" y="7.411" style="fill:#9D1C32;" width="4.221" height="4.224"/>
      <rect x="66.669" y="14.815" style="fill:#FCB32D;" width="4.221" height="4.227"/>
      <rect x="81.481" y="14.815" style="fill:#B5772A;" width="4.223" height="4.227"/>
      <rect x="59.261" y="14.815" style="fill:#EF4250;" width="4.221" height="4.227"/>
      <rect x="66.669" y="7.411" style="fill:#EF4250;" width="4.221" height="4.224"/>
      <rect x="44.445" y="0" style="fill:#9D1C32;" width="4.221" height="4.228"/>
      <rect x="37.038" y="14.815" style="fill:#FCB32D;" width="4.22" height="4.227"/>
      <rect x="22.221" y="7.411" style="fill:#FCB32D;" width="4.227" height="4.224"/>
      <rect x="29.629" y="14.815" style="fill:#EF4250;" width="4.221" height="4.227"/>
      <rect x="37.038" y="22.225" style="fill:#B5772A;" width="4.22" height="4.224"/>
      <rect x="22.221" y="14.815" style="fill:#B5772A;" width="4.227" height="4.227"/>
      <rect x="29.629" y="22.225" style="fill:#9D1C32;" width="4.221" height="4.224"/>
      <rect x="51.852" y="29.633" style="fill:#B5772A;" width="4.224" height="4.221"/>
      <rect x="44.445" y="29.633" style="fill:#EF4250;" width="4.221" height="4.221"/>
      <rect x="51.852" y="22.225" style="fill:#EF4250;" width="4.224" height="4.224"/>
      <rect x="44.445" y="66.67" style="fill:#B5772A;" width="4.221" height="4.225"/>
      <rect x="37.038" y="66.67" style="fill:#B5772A;" width="4.22" height="4.225"/>
      <rect x="51.852" y="66.67" style="fill:#EF4250;" width="4.224" height="4.225"/>
      <rect x="59.261" y="59.26" style="fill:#EF4250;" width="4.221" height="4.227"/>
      <rect x="37.038" y="29.633" style="fill:#FCB32D;" width="4.22" height="4.221"/>
      <rect x="37.038" y="59.375" style="fill:#FCB32D;" width="4.22" height="4.22"/>
      <rect x="29.629" y="29.633" style="fill:#EF4250;" width="4.221" height="4.221"/>
      <rect x="37.038" y="37.037" style="fill:#B5772A;" width="4.22" height="4.229"/>
      <rect x="29.629" y="37.037" style="fill:#9D1C32;" width="4.221" height="4.229"/>
      <rect x="51.852" y="44.445" style="fill:#FCB32D;" width="4.224" height="4.228"/>
      <rect x="44.445" y="51.854" style="fill:#B5772A;" width="4.221" height="4.227"/>
      <rect x="44.445" y="44.445" style="fill:#EF4250;" width="4.221" height="4.228"/>
      <rect x="51.852" y="37.037" style="fill:#EF4250;" width="4.224" height="4.229"/>
      <rect x="44.445" y="37.037" style="fill:#9D1C32;" width="4.221" height="4.229"/>
      <rect x="37.038" y="44.445" style="fill:#FCB32D;" width="4.22" height="4.228"/>
      <rect x="29.629" y="44.445" style="fill:#B5772A;" width="4.221" height="4.228"/>
      <rect x="14.813" y="22.225" style="fill:#B5772A;" width="4.225" height="4.224"/>
      <rect x="22.221" y="29.633" style="fill:#FCB32D;" width="4.227" height="4.221"/>
      <rect x="29.629" y="59.26" style="fill:#EF4250;" width="4.221" height="4.227"/>
      <rect x="14.813" y="29.633" style="fill:#EF4250;" width="4.225" height="4.221"/>
      <rect x="22.221" y="22.225" style="fill:#EF4250;" width="4.227" height="4.224"/>
      <rect x="7.406" y="29.633" style="fill:#FCB32D;" width="4.221" height="4.221"/>
      <rect x="0" y="29.633" style="fill:#EF4250;" width="4.221" height="4.221"/>
      <rect x="7.406" y="37.037" style="fill:#EF4250;" width="4.221" height="4.229"/>
      <rect x="0" y="37.037" style="fill:#9D1C32;" width="4.221" height="4.229"/>
      <rect x="22.221" y="44.445" style="fill:#FCB32D;" width="4.227" height="4.228"/>
      <rect x="14.813" y="44.445" style="fill:#EF4250;" width="4.225" height="4.228"/>
      <rect x="22.221" y="37.037" style="fill:#EF4250;" width="4.227" height="4.229"/>
      <rect x="22.221" y="51.854" style="fill:#EF4250;" width="4.227" height="4.227"/>
      <rect x="14.813" y="37.037" style="fill:#B5772A;" width="4.225" height="4.229"/>
      <rect x="7.406" y="51.854" style="fill:#EF4250;" width="4.221" height="4.227"/>
      <rect x="14.813" y="51.854" style="fill:#9D1C32;" width="4.225" height="4.227"/>
      <rect x="7.406" y="44.445" style="fill:#FCB32D;" width="4.221" height="4.228"/>
      <rect x="0" y="44.445" style="fill:#EF4250;" width="4.221" height="4.228"/>
      <rect x="74.071" y="7.411" style="fill:#9D1C32;" width="4.225" height="4.224"/>
      <rect x="74.071" y="14.815" style="fill:#EF4250;" width="4.225" height="4.227"/>
      <rect x="74.071" y="51.854" style="fill:#FCB32D;" width="4.225" height="4.227"/>
      <rect x="59.261" y="51.854" style="fill:#B5772A;" width="4.221" height="4.227"/>
      <rect x="74.071" y="59.26" style="fill:#EF4250;" width="4.225" height="4.227"/>
      <rect x="66.669" y="59.26" style="fill:#9D1C32;" width="4.221" height="4.227"/>
      <rect x="66.669" y="51.854" style="fill:#EF4250;" width="4.221" height="4.227"/>
      <rect x="81.481" y="51.854" style="fill:#EF4250;" width="4.223" height="4.227"/>
      <rect x="103.707" y="29.633" style="fill:#EF4250;" width="4.22" height="4.221"/>
      <rect x="96.298" y="29.633" style="fill:#FCB32D;" width="4.221" height="4.221"/>
      <rect x="88.892" y="29.633" style="fill:#EF4250;" width="4.221" height="4.221"/>
      <rect x="96.298" y="37.037" style="fill:#EF4250;" width="4.221" height="4.229"/>
      <rect x="88.892" y="37.037" style="fill:#9D1C32;" width="4.221" height="4.229"/>
      <rect x="59.261" y="44.445" style="fill:#EF4250;" width="4.221" height="4.228"/>
      <rect x="103.707" y="37.037" style="fill:#9D1C32;" width="4.22" height="4.229"/>
      <rect x="66.669" y="44.445" style="fill:#FCB32D;" width="4.221" height="4.228"/>
      <rect x="74.071" y="44.445" style="fill:#EF4250;" width="4.225" height="4.228"/>
      <rect x="81.481" y="29.633" style="fill:#FCB32D;" width="4.223" height="4.221"/>
      <rect x="74.071" y="29.633" style="fill:#9D1C32;" width="4.225" height="4.221"/>
      <rect x="66.669" y="29.633" style="fill:#FCB32D;" width="4.221" height="4.221"/>
      <rect x="59.261" y="29.633" style="fill:#EF4250;" width="4.221" height="4.221"/>
      <rect x="66.669" y="37.037" style="fill:#9D1C32;" width="4.221" height="4.229"/>
      <rect x="59.261" y="37.037" style="fill:#B5772A;" width="4.221" height="4.229"/>
      <rect x="81.481" y="44.445" style="fill:#FCB32D;" width="4.223" height="4.228"/>
      <rect x="88.892" y="44.445" style="fill:#EF4250;" width="4.221" height="4.228"/>
      <rect x="81.481" y="37.037" style="fill:#EF4250;" width="4.223" height="4.229"/>
      <rect x="74.071" y="37.037" style="fill:#B5772A;" width="4.225" height="4.229"/>
      <rect x="96.298" y="44.445" style="fill:#FCB32D;" width="4.221" height="4.228"/>
      <rect x="103.707" y="44.445" style="fill:#EF4250;" width="4.22" height="4.228"/>
      <rect x="59.261" y="22.225" style="fill:#FCB32D;" width="4.221" height="4.224"/>
      <rect x="66.669" y="22.225" style="fill:#EF4250;" width="4.221" height="4.224"/>
      <rect x="74.071" y="22.225" style="fill:#FCB32D;" width="4.225" height="4.224"/>
      <rect x="81.481" y="22.225" style="fill:#EF4250;" width="4.223" height="4.224"/>
      <rect x="88.892" y="22.225" style="fill:#FCB32D;" width="4.221" height="4.224"/>
      <rect x="96.298" y="22.225" style="fill:#EF4250;" width="4.221" height="4.224"/>
      <rect x="88.892" y="51.854" style="fill:#EF4250;" width="4.221" height="4.227"/>
      <rect x="96.298" y="51.854" style="fill:#FCB32D;" width="4.221" height="4.227"/>
      <rect x="37.038" y="51.854" style="fill:#B5772A;" width="4.22" height="4.227"/>
      <rect x="29.629" y="51.854" style="fill:#9D1C32;" width="4.221" height="4.227"/>
      <rect x="51.852" y="59.26" style="fill:#B5772A;" width="4.224" height="4.227"/>
      <rect x="44.445" y="59.26" style="fill:#EF4250;" width="4.221" height="4.227"/>
      <rect x="51.852" y="51.854" style="fill:#FCB32D;" width="4.224" height="4.227"/>
    </g>
  </g>
  <g>
    <g>
      <g>
        <g>
          <g>
            <g>
              <path d="M127.19,46.577v-8.84c0-1.992-1.262-2.666-2.412-2.666c-1.151,0-2.441,0.674-2.441,2.666v8.84h-3.648v-14.62h3.564                 v1.347c0.954-1.01,2.3-1.515,3.647-1.515c1.459,0,2.638,0.477,3.452,1.29c1.177,1.179,1.487,2.554,1.487,4.154v9.345H127.19z                 "/>
              <path d="M142.902,46.577v-1.348c-0.954,1.011-2.301,1.516-3.648,1.516c-1.46,0-2.637-0.478-3.452-1.291                 c-1.18-1.178-1.487-2.554-1.487-4.151v-9.346h3.647v8.839c0,1.994,1.264,2.666,2.415,2.666c1.15,0,2.441-0.672,2.441-2.666                 v-8.839h3.648v14.62H142.902z"/>
              <path d="M157.768,46.577v-1.263c-0.981,0.983-1.908,1.403-3.591,1.403c-1.656,0-2.862-0.42-3.731-1.291                 c-0.787-0.813-1.208-1.992-1.208-3.283c0-2.33,1.601-4.237,4.995-4.237h3.451v-0.73c0-1.6-0.786-2.301-2.722-2.301                 c-1.402,0-2.048,0.338-2.805,1.208l-2.33-2.273c1.432-1.571,2.835-2.02,5.276-2.02c4.098,0,6.229,1.739,6.229,5.164v9.625                 H157.768z M157.684,40.404h-2.89c-1.319,0-2.048,0.616-2.048,1.655c0,1.01,0.673,1.685,2.105,1.685                 c1.009,0,1.655-0.086,2.3-0.702c0.393-0.366,0.533-0.956,0.533-1.854V40.404z"/>
              <path d="M170.028,52.105c-2.244,0-3.787-0.449-5.305-1.907l2.273-2.303c0.812,0.786,1.627,1.123,2.861,1.123                 c2.189,0,2.947-1.544,2.947-3.031v-1.486c-0.955,1.066-2.049,1.46-3.48,1.46c-1.43,0-2.664-0.478-3.479-1.292                 c-1.375-1.375-1.486-3.255-1.486-5.808c0-2.555,0.111-4.408,1.486-5.783c0.814-0.813,2.076-1.29,3.508-1.29                 c1.543,0,2.553,0.421,3.562,1.543v-1.375h3.537v14.087C176.454,49.552,173.956,52.105,170.028,52.105z M170.393,35.071                 c-2.162,0-2.387,1.854-2.387,3.79c0,1.934,0.225,3.814,2.387,3.814c2.158,0,2.412-1.88,2.412-3.814                 C172.806,36.925,172.552,35.071,170.393,35.071z"/>
              <path d="M183.128,40.404c0,1.88,1.15,3.254,3.199,3.254c1.598,0,2.387-0.448,3.311-1.374l2.217,2.16                 c-1.486,1.487-2.918,2.301-5.557,2.301c-3.451,0-6.76-1.571-6.76-7.491c0-4.771,2.58-7.465,6.369-7.465                 c4.066,0,6.369,2.975,6.369,6.989v1.627H183.128z M188.347,36.334c-0.393-0.869-1.205-1.515-2.439-1.515                 c-1.236,0-2.051,0.646-2.441,1.515c-0.225,0.533-0.309,0.927-0.338,1.572h5.557                 C188.655,37.261,188.571,36.867,188.347,36.334z"/>
              <path d="M205.458,46.301v-8.72c0-2.505-1.354-3.771-3.482-3.771c-2.131,0-3.512,1.295-3.512,3.771v8.72h-2.072V32.142h2.072                 v1.553c1.008-1.152,2.389-1.727,3.971-1.727c1.527,0,2.762,0.461,3.627,1.323c1.006,0.98,1.467,2.304,1.467,3.943v9.066                 H205.458z"/>
              <path d="M213.198,39.769c0,3.107,1.467,4.891,4.17,4.891c1.641,0,2.59-0.488,3.713-1.612l1.41,1.239                 c-1.439,1.438-2.764,2.188-5.18,2.188c-3.742,0-6.188-2.246-6.188-7.253c0-4.575,2.217-7.252,5.814-7.252                 c3.652,0,5.812,2.648,5.812,6.85v0.95H213.198z M220.245,35.854c-0.547-1.295-1.811-2.129-3.307-2.129                 c-1.498,0-2.764,0.834-3.312,2.129c-0.314,0.776-0.373,1.21-0.428,2.36h7.482C220.622,37.063,220.563,36.63,220.245,35.854z"/>
              <path d="M230.833,46.301c-2.418,0-3.629-1.7-3.629-3.799v-8.691h-1.781v-1.583h1.781v-4.432h2.074v4.432h3.021v1.583h-3.021                 v8.634c0,1.295,0.604,2.069,1.926,2.069h1.096v1.787H230.833z"/>
              <path d="M249.593,46.301h-1.93l-3.713-10.994l-3.682,10.994h-1.93l-4.488-14.159h2.242l3.254,11.368l3.713-11.368h1.785                 l3.74,11.368l3.223-11.368h2.246L249.593,46.301z"/>
              <path d="M265.61,44.861c-0.978,0.976-2.33,1.612-4.057,1.612c-1.728,0-3.08-0.636-4.059-1.612                 c-1.437-1.467-1.727-3.453-1.727-5.641c0-2.187,0.289-4.172,1.727-5.64c0.979-0.978,2.33-1.612,4.059-1.612                 c1.727,0,3.078,0.635,4.057,1.612c1.441,1.468,1.727,3.454,1.727,5.64C267.337,41.408,267.052,43.395,265.61,44.861z                  M264.143,34.846c-0.662-0.661-1.582-1.036-2.59-1.036c-1.006,0-1.898,0.375-2.562,1.036                 c-1.035,1.036-1.148,2.792-1.148,4.375c0,1.582,0.113,3.34,1.148,4.374c0.664,0.662,1.557,1.035,2.562,1.035                 c1.008,0,1.928-0.373,2.59-1.035c1.035-1.034,1.121-2.792,1.121-4.374C265.265,37.639,265.179,35.882,264.143,34.846z"/>
              <path d="M279.392,34.846c-0.777-0.776-1.354-1.036-2.447-1.036c-2.072,0-3.397,1.641-3.397,3.798v8.692h-2.07V32.142h2.07                 v1.726c0.777-1.179,2.332-1.9,3.973-1.9c1.351,0,2.389,0.317,3.394,1.323L279.392,34.846z"/>
              <path d="M292.626,46.301l-4.49-7.251l-2.762,3.165v4.086H283.3V25.81h2.074v13.698l6.387-7.366h2.592l-4.805,5.41                 l5.639,8.749H292.626z"/>
              <path d="M302.893,46.474c-2.387,0-4.258-0.549-5.812-2.046l1.383-1.381c1.121,1.181,2.645,1.642,4.4,1.642                 c2.332,0,3.771-0.835,3.771-2.505c0-1.235-0.717-1.926-2.359-2.071l-2.332-0.2c-2.762-0.231-4.23-1.468-4.23-3.799                 c0-2.59,2.188-4.145,5.209-4.145c2.014,0,3.828,0.49,5.094,1.525l-1.352,1.353c-1.01-0.776-2.303-1.122-3.771-1.122                 c-2.07,0-3.164,0.892-3.164,2.33c0,1.21,0.691,1.928,2.473,2.072l2.274,0.202c2.478,0.231,4.172,1.179,4.172,3.827                 C308.647,44.891,306.319,46.474,302.893,46.474z"/>
            </g>
          </g>
        </g>
      </g>
    </g>
  </g>
</g>
</svg>