<?xml version="1.0" encoding="iso-8859-1"?>
<!-- Generator: Adobe Illustrator 16.0.4, SVG Export Plug-In . SVG Version: 6.00 Build 0)  -->
<!DOCTYPE svg PUBLIC "-//W3C//DTD SVG 1.1//EN" "http://www.w3.org/Graphics/SVG/1.1/DTD/svg11.dtd">
<svg version="1.1" id="Ebene_1" xmlns="http://www.w3.org/2000/svg" xmlns:xlink="http://www.w3.org/1999/xlink" x="0px" y="0px"
	 width="286.3px" height="110.55px" viewBox="0 0 286.3 110.55" style="enable-background:new 0 0 286.3 110.55;"
	 xml:space="preserve">
<g>
	<path d="M276.789,99.973h4.559v5.681c-1.324,0.292-2.567,0.437-3.731,0.437c-2.306,0-4.072-0.701-5.301-2.102
		c-1.229-1.401-1.843-3.448-1.843-6.141c0-2.562,0.682-4.581,2.046-6.057c1.363-1.477,3.218-2.215,5.564-2.215
		c1.784,0,3.569,0.412,5.354,1.234l1.264-2.997c-2.056-0.885-4.231-1.326-6.527-1.326c-3.57,0-6.372,1.002-8.408,3.006
		c-2.035,2.004-3.053,4.779-3.053,8.325c0,3.596,0.901,6.381,2.707,8.354c1.805,1.975,4.371,2.961,7.7,2.961
		c1.414,0,2.73-0.091,3.948-0.271c1.219-0.182,2.49-0.488,3.813-0.92v-11.06h-8.093V99.973z M262.236,86.803h-3.294v11.542
		c0,0.814,0.03,1.947,0.09,3.398c0.061,1.452,0.101,2.293,0.12,2.523h-0.09l-10.784-17.464h-4.362v22.029h3.265V97.381
		c0-1.547-0.07-3.255-0.211-5.123l-0.075-0.979h0.121l10.813,17.554h4.407V86.803z M238.403,86.803h-3.595v22.029h3.595V86.803z
		 M225.001,89.892h6.467v-3.089h-16.53v3.089h6.468v18.94h3.596V89.892z M216.849,108.832v-3.088h-9.311V86.803h-3.595v22.029
		H216.849z M194.971,86.803v13.908c0,3.566-1.695,5.349-5.084,5.349c-1.745,0-3.038-0.432-3.88-1.296
		c-0.844-0.863-1.265-2.205-1.265-4.022V86.803h-3.609v14.194c0,2.532,0.757,4.52,2.271,5.967c1.515,1.447,3.635,2.17,6.363,2.17
		c1.835,0,3.411-0.329,4.729-0.986c1.318-0.658,2.326-1.598,3.023-2.818c0.697-1.22,1.045-2.645,1.045-4.272V86.803H194.971z
		 M176.835,100.259c-0.352-0.732-0.902-1.391-1.654-1.974s-1.936-1.21-3.55-1.884c-1.435-0.593-2.427-1.069-2.979-1.432
		c-0.551-0.361-0.947-0.746-1.188-1.152c-0.24-0.407-0.361-0.896-0.361-1.47c0-0.834,0.301-1.504,0.903-2.011
		c0.601-0.508,1.482-0.761,2.646-0.761c1.534,0,3.279,0.412,5.234,1.234l1.143-2.938c-2.086-0.924-4.181-1.386-6.287-1.386
		c-2.195,0-3.945,0.526-5.249,1.582c-1.304,1.055-1.955,2.501-1.955,4.339c0,1.467,0.411,2.723,1.233,3.767
		c0.822,1.045,2.236,1.975,4.241,2.788c1.946,0.783,3.229,1.462,3.851,2.034c0.621,0.573,0.933,1.271,0.933,2.095
		c0,0.914-0.339,1.643-1.016,2.185c-0.677,0.543-1.727,0.813-3.15,0.813c-0.974,0-2.023-0.136-3.151-0.407
		c-1.128-0.271-2.194-0.643-3.196-1.114v3.405c1.584,0.773,3.619,1.16,6.106,1.16s4.437-0.558,5.851-1.673s2.121-2.652,2.121-4.611
		C177.361,101.856,177.186,100.992,176.835,100.259 M158.901,86.803h-3.294v11.542c0,0.814,0.03,1.947,0.09,3.398
		c0.061,1.452,0.101,2.293,0.12,2.523h-0.09l-10.784-17.464h-4.362v22.029h3.264V97.381c0-1.547-0.07-3.255-0.211-5.123
		l-0.075-0.979h0.12l10.814,17.554h4.407V86.803z M120.948,91.64c1.098-1.396,2.725-2.094,4.881-2.094
		c2.135,0,3.742,0.698,4.82,2.094c1.078,1.396,1.617,3.446,1.617,6.148c0,2.742-0.544,4.806-1.632,6.193
		c-1.088,1.386-2.7,2.078-4.836,2.078c-2.145,0-3.765-0.7-4.858-2.102c-1.093-1.401-1.639-3.458-1.639-6.17
		C119.301,95.086,119.851,93.036,120.948,91.64 M133.41,89.425c-1.785-1.979-4.312-2.968-7.58-2.968
		c-3.319,0-5.874,0.974-7.664,2.923c-1.789,1.949-2.684,4.741-2.684,8.378c0,3.636,0.889,6.441,2.669,8.415
		c1.78,1.975,4.329,2.961,7.648,2.961c3.279,0,5.814-0.995,7.604-2.983c1.789-1.989,2.684-4.776,2.684-8.362
		C136.086,94.192,135.194,91.404,133.41,89.425 M109.909,89.975c0.827,0.267,1.612,0.575,2.354,0.928l1.293-2.999
		c-1.905-0.944-3.98-1.416-6.226-1.416c-2.136,0-3.996,0.457-5.58,1.371c-1.585,0.914-2.796,2.229-3.633,3.947
		c-0.837,1.718-1.256,3.722-1.256,6.013c0,3.636,0.863,6.431,2.587,8.385c1.725,1.954,4.197,2.931,7.415,2.931
		c2.186,0,4.142-0.327,5.866-0.979v-3.089c-0.942,0.292-1.85,0.529-2.722,0.716c-0.872,0.186-1.775,0.278-2.707,0.278
		c-2.156,0-3.803-0.692-4.941-2.078c-1.138-1.388-1.707-3.432-1.707-6.134c0-2.582,0.591-4.605,1.774-6.071
		c1.183-1.468,2.808-2.2,4.874-2.2C108.211,89.576,109.082,89.709,109.909,89.975 M86.354,105.744H74.923l11.13-16.409v-2.532
		H70.922v3.089h10.785l-11.085,16.439v2.501h15.732V105.744z M61.908,89.892h6.467v-3.089h-16.53v3.089h6.468v18.94h3.595V89.892z
		 M48.521,86.803h-3.595v22.029h3.595V86.803z M30.112,89.817h2.497c1.634,0,2.837,0.311,3.609,0.934
		c0.772,0.623,1.158,1.567,1.158,2.833c0,1.366-0.431,2.371-1.293,3.013c-0.863,0.644-2.216,0.965-4.061,0.965h-1.91V89.817z
		 M39.023,88.491c-1.368-1.125-3.427-1.688-6.174-1.688h-6.332v22.029h3.595v-8.242h2.286c2.777,0,4.918-0.612,6.422-1.838
		c1.504-1.225,2.256-2.988,2.256-5.289C41.077,91.273,40.393,89.616,39.023,88.491 M6.884,91.64
		c1.098-1.396,2.725-2.094,4.881-2.094c2.135,0,3.742,0.698,4.82,2.094c1.078,1.396,1.617,3.446,1.617,6.148
		c0,2.742-0.544,4.806-1.632,6.193c-1.088,1.386-2.7,2.078-4.836,2.078c-2.145,0-3.765-0.7-4.858-2.102
		c-1.093-1.401-1.639-3.458-1.639-6.17C5.237,95.086,5.787,93.036,6.884,91.64 M19.346,89.425c-1.785-1.979-4.312-2.968-7.58-2.968
		c-3.32,0-5.874,0.974-7.664,2.923s-2.684,4.741-2.684,8.378c0,3.636,0.889,6.441,2.669,8.415c1.78,1.975,4.329,2.961,7.648,2.961
		c3.279,0,5.814-0.995,7.603-2.983c1.79-1.989,2.685-4.776,2.685-8.362C22.022,94.192,21.13,91.404,19.346,89.425"/>
</g>
<path style="fill:#003A6F;" d="M143.149,11.438l33.23,58.009l-66.459,0.002L143.149,11.438z M143.149,1.417l-41.81,72.993
	l83.621-0.003L143.149,1.417z"/>
<g>
	<path style="fill:#0068B4;" d="M150.342,67.322c0.521-8.562,4.116-16.289,9.736-22.066l-2.559-4.466
		c-7.066,6.765-11.638,16.114-12.188,26.532H150.342z M184.96,34.725v-4.961c-7.29,0-14.115,1.975-19.985,5.405l2.479,4.327
		C172.598,36.482,178.567,34.725,184.96,34.725"/>
	<path style="fill:#F7AD00;" d="M155.359,37.018l-2.517-4.394c-9.773,8.526-16.126,20.859-16.722,34.699h4.959
		C141.654,55.326,147.048,44.604,155.359,37.018 M184.96,25.512v-4.96c-8.956,0-17.343,2.419-24.562,6.623l2.465,4.304
		C169.354,27.692,176.901,25.512,184.96,25.512"/>
	<path style="fill:#E82000;" d="M150.689,28.862l-2.511-4.383c-12.504,10.235-20.645,25.577-21.268,42.843h4.959
		C132.48,51.901,139.658,38.181,150.689,28.862 M184.96,16.299v-4.961c-10.623,0-20.572,2.865-29.141,7.843l2.465,4.304
		C166.127,18.924,175.234,16.299,184.96,16.299"/>
</g>
</svg>
