<?xml version="1.0" encoding="UTF-8"?>
<!-- Generator: Adobe Illustrator 16.0.4, SVG Export Plug-In . SVG Version: 6.00 Build 0)  -->
<!DOCTYPE svg PUBLIC "-//W3C//DTD SVG 1.1//EN" "http://www.w3.org/Graphics/SVG/1.1/DTD/svg11.dtd">
<svg version="1.1" id="Layer_1" xmlns="http://www.w3.org/2000/svg" xmlns:xlink="http://www.w3.org/1999/xlink" x="0px" y="0px" width="581.745px" height="219.047px" viewBox="0 0 581.745 219.047" enable-background="new 0 0 581.745 219.047" xml:space="preserve">
<polygon fill="#3C5986" points="0,98.689 452.677,0 581.745,134.76 450.791,52.194 "/>
<g>
	<path fill="#3C5986" d="M25.11,141.007c0.748-0.718,1.496-1.436,2.244-2.035c3.89-2.992,10.922-5.505,19.6-5.505   c19.15,0,33.962,11.609,33.962,32.436c0,12.808-7.032,32.676-33.813,32.676c-8.677,0-13.166-2.273-19.3-5.267v25.735H4.613v-83.906   H25.11V141.007z M43.363,146.513c-4.189,0-8.528,1.437-11.819,5.027c-3.292,3.471-4.788,8.856-4.788,14.723   c0,7.9,2.543,12.808,5.536,15.439c2.693,2.273,6.583,3.592,10.323,3.592c11.221,0,16.159-9.696,16.159-19.51   c0-8.26-2.843-16.997-12.269-18.912C45.458,146.633,44.41,146.513,43.363,146.513z"/>
	<path fill="#3C5986" d="M167.092,181.463c-2.693,3.23-5.386,6.344-9.427,9.335c-6.731,5.028-16.905,8.858-29.473,8.858   c-23.191,0-39.499-11.85-39.499-32.317c0-15.081,9.277-34.472,40.098-34.472c4.637,0,18.102,0.359,28.128,8.978   c10.172,8.737,10.771,20.946,11.071,28.007h-55.806c-0.15,7.781,5.386,15.561,17.802,15.561c12.569,0,16.907-6.583,19.75-11.012   L167.092,181.463z M144.2,158.362c-0.449-2.633-1.047-6.104-4.337-8.856c-2.843-2.274-7.184-3.471-11.221-3.471   c-5.536,0-9.427,2.154-11.67,4.068c-3.143,2.755-3.892,5.627-4.637,8.26H144.2z"/>
	<path fill="#3C5986" d="M179.508,152.617c0.449-4.31,1.198-9.456,8.229-13.884c7.182-4.548,16.457-5.506,25.584-5.506   c9.575,0,32.765,1.796,32.765,17.954v36.387c0,6.702,0.45,7.66,2.246,9.815h-22.592v-5.745c-5.835,3.471-12.418,7.42-23.938,7.42   c-17.954,0-25.585-10.293-25.585-19.03c0-10.054,10.026-15.799,16.459-17.954c6.283-2.154,21.096-4.309,30.819-5.745v-3.352   c-0.298-2.874-0.598-7.66-8.826-7.66c-10.174,0-11.519,5.026-12.118,7.301H179.508z M208.685,171.408   c-3.892,1.198-9.876,2.993-9.876,7.781c0,2.992,3.292,6.344,8.678,6.344c2.843,0,5.536-0.839,7.929-2.035   c7.631-3.83,7.931-9.575,8.079-16.039L208.685,171.408z"/>
	<path fill="#3C5986" d="M265.386,112.879h22.592v43.449l25.283-21.425h27.681l-26.932,22.263l30.372,40.217H317.75l-20.047-26.931   l-9.875,7.42v19.511h-22.442V112.879z"/>
	<path fill="#3C5986" d="M393.304,128.319c5.686-0.358,10.922-0.599,16.755-2.992c6.585-2.753,8.528-5.865,10.473-9.097h18.255   v81.152h-24.09v-59.248c-5.534,1.915-6.881,2.394-21.393,2.633V128.319z"/>
	<path fill="#3C5986" d="M527.208,157.166c0,18.432-7.629,42.011-36.806,42.011c-4.487,0-16.757-0.119-26.184-11.25   c-5.981-6.941-8.975-16.878-8.975-31.718c0-7.661,1.045-18.792,8.079-28.248c2.243-2.993,9.723-12.568,26.63-13.047   C523.766,113.957,527.208,145.555,527.208,157.166z M477.386,160.158c0,9.335,1.795,24.177,13.914,24.177   c5.387,0,8.229-2.633,10.173-6.701c2.244-5.027,3.292-13.167,3.292-20.229c0-8.02-1.198-17.715-4.786-22.741   c-2.247-3.232-5.386-4.908-9.428-4.788C480.529,130.234,477.386,141.845,477.386,160.158z"/>
</g>
<g>
	<path fill="#4C5455" d="M537.656,124.868h-2.34v7.032h-1.584v-7.032h-2.292v-1.44h6.216V124.868z"/>
	<path fill="#4C5455" d="M546.704,123.428v8.472h-1.548l0.144-6.96l-1.824,6.96h-1.428l-1.836-6.96l0.156,6.96h-1.548v-8.472h2.304   l1.656,6.288l1.62-6.288H546.704z"/>
</g>
</svg>