<?xml version="1.0" encoding="utf-8"?>
<!-- Generator: Adobe Illustrator 22.1.0, SVG Export Plug-In . SVG Version: 6.00 Build 0)  -->
<svg version="1.1" id="Layer_1" xmlns="http://www.w3.org/2000/svg" xmlns:xlink="http://www.w3.org/1999/xlink" x="0px" y="0px"
	 viewBox="0 0 276.3 52.3" style="enable-background:new 0 0 276.3 52.3;" xml:space="preserve">
<style type="text/css">
	.st0{fill:#00497B;}
</style>
<path class="st0" d="M51.9,39.7h-8.7V37h-0.1c-1.5,2.4-4.5,3.5-7.4,3.5c-7.3,0-12.4-6.1-12.4-13.1s5-13.1,12.3-13.1
	c2.8,0,5.8,1.1,7.6,3.2l2.3-2.4h6.4C51.9,15.1,51.9,39.7,51.9,39.7z M32.3,27.5c0,3.1,2.1,5.5,5.6,5.5s5.6-2.4,5.6-5.5
	c0-3-2.1-5.5-5.6-5.5C34.3,21.9,32.3,24.5,32.3,27.5z"/>
<path class="st0" d="M65,39.7h-8.7V0H65V39.7z"/>
<path class="st0" d="M78.1,39.7h-8.7V0h8.7V39.7z"/>
<circle class="st0" cx="86.9" cy="7" r="4.9"/>
<rect x="82.6" y="15.2" class="st0" width="8.7" height="24.5"/>
<path class="st0" d="M104.4,18.4L104.4,18.4c2.1-3,4.5-4,7.9-4c6.6,0,9.2,4.2,9.2,10.2v15.1h-8.7v-12c0-2.3,0.4-6.5-3.9-6.5
	c-3.5,0-4.5,2.6-4.5,5.7v12.8h-8.7V15.2h5.6L104.4,18.4z"/>
<path class="st0" d="M152.8,37.3c0,10.4-5.2,14.6-14.2,14.6c-5.6,0-13.2-2.9-14-9.4h9.8c0.2,0.9,0.9,1.5,1.6,1.9s1.7,0.6,2.5,0.6
	c4.7,0,5.6-3.1,5.6-7v-1.1c-2.2,2.2-4.5,3.3-7.8,3.3c-7.2,0-12.1-5.5-12.1-12.5c0-7.2,5.1-13.3,12.6-13.3c2.9,0,5.5,1,7.2,3.4h0.1
	l2.6-2.6h6.1L152.8,37.3L152.8,37.3z M133.2,27.3c0,3.1,2.1,5.5,5.6,5.5s5.6-2.4,5.6-5.5c0-3-2.1-5.5-5.6-5.5S133.2,24.3,133.2,27.3
	z"/>
<rect x="56.3" y="42.3" class="st0" width="21.7" height="6.3"/>
<path class="st0" d="M14.2,24.1c-1.2-0.2-3.9-0.5-3.9-2.2c0-1.2,1.7-1.7,2.7-1.7c0.9,0,1.9,0.2,2.8,0.5l4.8-4.8
	c-2.5-1.1-5.3-1.6-8.1-1.6C7.1,14.3,1.7,17,1.7,23c0,4.4,2.7,5.7,5.5,6.5c2.7,0.7,5.5,0.8,5.5,2.7c0,1.3-1.6,1.9-2.7,1.9
	c-1.5,0-3.4-0.6-5-1.4l-5,5c3,1.8,6.4,2.8,9.9,2.8c5.7,0,11.6-2.7,11.6-9.1C21.3,26.9,18.2,24.9,14.2,24.1z"/>
<g>
	<g>
		<path class="st0" d="M187.2,37.5c0,3.6-0.1,6.9-2.3,9.9c-2.2,3-5.6,4.5-9.3,4.5c-6.1,0-11.2-3.6-11.6-10h2.3
			c0.3,4.9,4.4,7.9,9.1,7.9c2.9,0,5.8-1,7.5-3.5c1.8-2.7,2.1-5.7,2.1-8.9v-2.9h-0.1c-2.1,2.8-5.6,4.6-9.1,4.6
			c-6.8,0-11.4-5.7-11.4-12.3c0-6.7,4.8-12.2,11.7-12.2c3.8,0,6.6,1.6,8.8,4.6h0.1v-4.1h2.3v22.4H187.2z M166.6,26.8
			c0,5.4,3.6,10.3,9.2,10.3c6,0,9.2-4.9,9.2-10.5c0-5.4-3.7-9.7-9.4-9.7C170.3,16.8,166.6,21.7,166.6,26.8z"/>
		<path class="st0" d="M195.3,18.2h0.1c0.9-2.1,2.6-3.6,5.1-3.6c0.9,0,1.7,0.2,2.5,0.6l-1.2,2c-0.6-0.3-1-0.5-1.6-0.5
			c-5.1,0-4.8,6.4-4.8,9.8v12h-2.3V15.2h2.3v3H195.3z"/>
		<path class="st0" d="M227.6,26.9c0,7-5.4,12.2-12.3,12.2c-6.7,0-12.2-5.5-12.2-12.2s5.4-12.3,12.2-12.3
			C222.2,14.7,227.6,20,227.6,26.9z M205.4,27c0,5.3,4.2,10,9.7,10c5.7,0,10.2-4.4,10.2-10c0-5.8-4.4-10.1-10.2-10.1
			C209.6,16.8,205.4,21.5,205.4,27z"/>
		<path class="st0" d="M248,15.2v14.1c0,2.4,0.1,4.8-1.4,6.8c-1.6,2.1-4.4,3.1-7,3.1s-5.4-1-7-3.1c-1.5-2-1.4-4.4-1.4-6.8V15.2h2.3
			v13.2c0,4.5,0.5,8.6,6.1,8.6s6.1-4.1,6.1-8.6V15.2H248z"/>
		<path class="st0" d="M255.7,19.4h0.1c1.7-3,5.5-4.7,8.9-4.7c7.2,0,11.6,5.6,11.6,12.4c0,6.9-4.4,12-11.5,12c-3.6,0-7.1-1.6-9-4.6
			h-0.1v17.8h-2.3V15.2h2.3V19.4z M255.6,27.4c0,5.5,3.7,9.6,9.3,9.6c5.5,0,9.1-4.6,9.1-9.8c0-5.4-3.5-10.4-9.2-10.4
			C258.8,16.8,255.6,21.8,255.6,27.4z"/>
	</g>
</g>
</svg>
