<?xml version="1.0" encoding="UTF-8" standalone="no"?>
<svg xmlns:dc="http://purl.org/dc/elements/1.1/" xmlns:cc="http://creativecommons.org/ns#" xmlns:rdf="http://www.w3.org/1999/02/22-rdf-syntax-ns#" xmlns:svg="http://www.w3.org/2000/svg" xmlns="http://www.w3.org/2000/svg" xmlns:sodipodi="http://sodipodi.sourceforge.net/DTD/sodipodi-0.dtd" xmlns:inkscape="http://www.inkscape.org/namespaces/inkscape" width="290pt" height="99pt" viewBox="0 0 290 99" version="1.1" id="svg2" inkscape:version="0.91 r13725" sodipodi:docname="secnix_NEW.svg">
  <metadata id="metadata28">
    <rdf:RDF>
      <cc:Work rdf:about="">
        <dc:format>image/svg+xml</dc:format>
        <dc:type rdf:resource="http://purl.org/dc/dcmitype/StillImage"/>
      </cc:Work>
    </rdf:RDF>
  </metadata>
  <defs id="defs26"/>
  <sodipodi:namedview pagecolor="#ffffff" bordercolor="#666666" borderopacity="1" objecttolerance="10" gridtolerance="10" guidetolerance="10" inkscape:pageopacity="0" inkscape:pageshadow="2" inkscape:window-width="1280" inkscape:window-height="948" id="namedview24" showgrid="false" inkscape:zoom="2.3875826" inkscape:cx="182.16681" inkscape:cy="58.310246" inkscape:window-x="0" inkscape:window-y="0" inkscape:window-maximized="1" inkscape:current-layer="svg2" showguides="true" inkscape:guide-bbox="true">
    <sodipodi:guide position="85.767974,53.841912" orientation="0,1" id="guide3400"/>
    <sodipodi:guide position="55.559641,57.810458" orientation="1,0" id="guide3402"/>
    <sodipodi:guide position="78.304739,57.57353" orientation="1,0" id="guide3404"/>
  </sodipodi:namedview>
  <path d=" M 190.17 11.11 C 193.02 6.43 199.07 5.28 204.12 6.18 C 213.00 7.65 220.75 12.79 227.65 18.32 C 239.94 28.69 250.09 41.71 256.69 56.39 C 260.02 64.27 262.76 72.92 261.38 81.55 C 260.63 86.44 257.09 91.21 251.99 92.03 C 243.47 93.52 235.43 89.28 228.40 84.98 C 233.38 86.73 238.56 89.42 243.98 88.19 C 247.49 87.48 250.20 84.50 251.08 81.11 C 252.39 76.37 251.50 71.37 250.23 66.73 C 247.68 57.90 243.08 49.79 237.68 42.40 C 231.02 33.46 222.99 25.34 213.29 19.72 C 208.66 17.12 203.39 14.95 197.97 15.57 C 194.64 15.95 191.70 18.27 190.45 21.36 C 188.81 25.38 189.47 29.80 189.58 34.00 C 187.91 26.58 186.01 18.06 190.17 11.11 Z" id="path6" fill="#faa969"/>
  <path d="M 85.376953 27.792969 C 77.186401 27.644409 68.853516 30.951172 63.400391 37.099609 C 54.887891 46.537109 52.949609 60.525391 56.162109 72.525391 C 58.524609 81.687891 65.262891 89.775391 74.212891 93.087891 C 83.450391 96.762891 94.063281 94.7625 102.55078 90.0625 C 105.32578 88.9 105.51211 85.774609 106.03711 83.224609 C 97.374609 81.862109 88.874219 88.399609 80.386719 84.412109 C 72.699219 81.124609 70.2375 72.287891 69.4375 64.712891 C 81.325 64.612891 93.212891 64.800781 105.08789 64.675781 C 107.22539 64.675781 110.53672 64.225391 110.26172 61.337891 C 110.56172 50.800391 108.1875 38.675781 99.3125 31.925781 C 95.154688 29.216406 90.291284 27.882104 85.376953 27.792969 z M 83.591797 37.048828 C 96.770922 37.493068 95.512281 47.340865 97.363281 55.855469 L 70.115234 55.855469 C 70.115234 55.855469 70.412671 36.604587 83.591797 37.048828 z " transform="scale(0.8,0.8)" id="path8" style="fill:#53bee7;fill-opacity:1"/>
  <path d=" M 9.41 25.48 C 18.01 20.73 28.66 22.02 37.52 25.42 C 38.28 29.81 39.93 34.15 39.65 38.64 C 38.12 40.28 35.47 40.50 33.60 39.33 C 31.17 36.39 30.99 31.69 27.29 29.81 C 22.67 27.48 14.18 29.66 15.02 36.02 C 16.68 40.69 21.96 42.36 26.12 44.13 C 31.27 46.02 36.84 48.24 39.96 53.05 C 44.24 59.70 42.32 70.38 34.59 73.61 C 24.89 77.95 13.64 75.99 4.12 72.12 C 3.40 67.81 2.07 63.56 2.09 59.16 C 3.56 57.56 5.88 57.51 7.87 57.90 C 10.60 61.04 10.61 66.42 14.97 68.04 C 18.91 69.50 23.61 69.27 27.32 67.28 C 30.45 65.45 32.62 60.30 29.42 57.56 C 23.23 52.03 13.89 51.95 7.95 46.00 C 2.06 40.70 2.19 29.56 9.41 25.48 Z" id="path10" fill="#53bee7"/>
  <path d=" M 105.42 25.44 C 113.46 21.15 122.86 23.09 131.24 25.19 C 131.25 28.48 131.45 31.79 131.10 35.07 C 131.15 37.97 126.85 38.92 125.24 36.79 C 122.81 34.49 121.88 30.06 117.99 29.81 C 113.38 29.04 109.11 32.06 106.78 35.82 C 103.08 41.81 102.13 49.33 103.61 56.15 C 104.99 62.52 110.42 67.84 116.93 68.71 C 121.38 69.56 125.69 67.82 130.04 67.23 C 131.80 66.98 133.64 68.13 133.52 70.06 C 132.20 73.00 128.76 73.93 125.97 74.89 C 115.51 78.28 102.50 75.29 96.06 65.97 C 87.55 53.11 91.31 32.77 105.42 25.44 Z" id="path12" fill="#53bee7"/>
  <path d=" M 154.12 28.39 C 159.31 24.71 165.50 21.75 172.04 22.84 C 179.62 23.39 185.05 30.67 185.16 37.96 C 185.42 48.08 185.14 58.22 185.26 68.35 C 187.47 69.48 190.65 69.88 191.72 72.42 C 192.24 74.59 190.04 75.97 188.13 75.89 C 182.10 76.08 176.04 76.24 170.03 75.78 C 167.87 75.63 166.52 72.94 168.10 71.29 C 169.83 69.92 171.98 69.25 173.97 68.36 C 173.97 59.22 174.09 50.07 173.97 40.92 C 174.08 36.70 171.47 31.96 166.96 31.41 C 162.02 31.14 157.81 34.22 153.72 36.56 C 153.86 47.16 153.59 57.77 153.87 68.36 C 156.15 69.67 160.88 70.38 159.91 73.95 C 159.94 75.78 157.35 75.66 156.07 75.93 C 150.14 75.97 144.13 76.42 138.24 75.64 C 135.97 75.40 136.04 73.14 136.42 71.40 C 138.26 70.05 140.43 69.24 142.49 68.28 C 142.49 56.02 142.52 43.77 142.47 31.51 C 140.20 30.98 137.93 30.43 135.69 29.79 C 137.02 23.01 145.55 23.19 150.95 23.57 C 153.66 23.48 153.67 26.49 154.12 28.39 Z" id="path14" fill="#53bee7"/>
  <path d=" M 197.26 24.27 C 201.18 22.72 205.69 22.15 209.79 23.25 C 211.78 23.91 211.31 26.36 211.52 28.00 C 211.51 41.10 211.47 54.20 211.52 67.31 C 213.38 68.44 215.45 69.37 216.99 70.96 C 218.30 72.38 217.98 75.33 215.80 75.64 C 210.92 76.43 205.94 75.86 201.03 76.04 C 198.74 75.86 196.04 76.40 194.17 74.75 C 192.12 70.65 197.76 69.11 200.04 66.92 C 200.55 55.00 200.14 43.03 200.20 31.10 C 198.10 30.52 195.64 30.56 193.93 29.02 C 192.83 26.66 195.46 25.11 197.26 24.27 Z" id="path16" fill="#52bee7"/>
  <path d=" M 250.21 27.73 C 249.06 26.11 249.90 23.46 252.06 23.44 C 257.67 23.04 263.34 23.11 268.97 23.39 C 271.02 23.19 272.55 25.59 271.38 27.31 C 268.81 29.91 264.62 30.38 262.52 33.55 C 259.27 38.05 256.23 42.69 252.95 47.16 C 251.42 44.69 249.88 42.22 248.32 39.77 C 250.48 36.71 252.61 33.63 254.81 30.60 C 253.24 29.69 251.58 28.92 250.21 27.73 Z" id="path18" fill="#faa969"/>
  <path d=" M 229.08 66.04 C 233.23 60.47 237.15 54.72 241.31 49.15 C 242.80 51.75 244.27 54.37 245.70 57.00 C 242.89 60.81 240.10 64.64 237.24 68.42 C 239.04 69.77 242.49 70.25 242.31 73.07 C 242.45 75.43 239.78 75.67 238.04 75.73 C 232.13 75.87 226.19 75.91 220.30 75.29 C 220.40 73.89 220.66 72.53 221.08 71.20 C 223.57 69.19 227.15 68.76 229.08 66.04 Z" id="path22" fill="#faa969"/>
</svg>