<svg xmlns="http://www.w3.org/2000/svg" width="198.425" height="29.792" viewBox="0 0 198.425 29.792">
<style type="text/css">.six{fill:#DE3919;}</style>
<path class="six" d="M20.816 6.798c1.664-1.982 4.158-3.24 6.95-3.24h6.223v4.536h-6.225c-1.395 0-2.643.63-3.475 1.62l-11.146 13.28c-1.664 1.98-4.158 3.24-6.948 3.24H-.027v-4.536h6.223c1.394 0 2.64-.63 3.474-1.62l11.146-13.28zM38.523 3.557h4.762v22.677h-4.762zM60.995 6.798l3.835 4.57 3.836-4.57c1.664-1.982 4.16-3.24 6.95-3.24h6.222v4.536h-6.223c-1.396 0-2.642.63-3.474 1.62l-4.35 5.182 4.35 5.182c.833.99 2.08 1.62 3.475 1.62h6.223v4.536h-6.223c-2.79 0-5.285-1.26-6.95-3.24l-3.835-4.57-3.835 4.57c-1.664 1.98-4.16 3.24-6.948 3.24h-6.225v-4.536h6.225c1.394 0 2.64-.63 3.472-1.62l4.35-5.182-4.35-5.183c-.833-.99-2.08-1.62-3.473-1.62h-6.225V3.558h6.225c2.79 0 5.284 1.26 6.948 3.24"/></svg>