<svg xmlns="http://www.w3.org/2000/svg" viewBox="-15885 -15979 200 57.4"><defs><style>.a{fill:#0066b3;}.b{fill:#003d7b;}.c{fill:#0083ca;}.d{fill:#00aeef;}.e{fill:#849daa;}</style></defs><g transform="translate(-16000 -16001.975)"><g transform="translate(115 22.975)"><path class="a" d="M24.086,78.819V97.952L0,84.033V64.9Z" transform="translate(0 -40.552)"/><path class="b" d="M64.2,95.314v19.133l24.123-13.919L71.178,91.3Z" transform="translate(-40.114 -57.048)"/><path class="c" d="M64.2,19.133V0L88.323,13.919V33.052Z" transform="translate(-40.114)"/><path class="a" d="M24.086,19.133V0L0,13.919l17.107,9.229Z"/><path class="d" d="M0,72.536,24.086,59.518,0,46.5Z" transform="translate(0 -29.055)"/><path class="e" d="M88.323,37.1,64.2,50.118,88.323,63.136Z" transform="translate(-40.114 -23.181)"/></g><rect class="d" width="1.801" height="48.096" transform="translate(178.777 27.701)"/><g transform="translate(196.073 34.53)"><path class="b" d="M216.1,61.037V58.223h2.288v3c0,3.3,1.426,4.765,4.765,4.765h8.516c3.3,0,4.765-1.463,4.765-4.765V57.81c0-2.626-.938-3.752-4.014-4.5l-9.9-2.476c-4.127-1.05-6.265-2.364-6.265-6.565V41.641c0-4.727,2.251-6.941,6.94-6.941h8.141c4.727,0,6.941,2.251,6.941,6.941v2.289h-2.289V41.453c0-3.339-1.463-4.765-4.765-4.765h-7.953c-3.339,0-4.765,1.426-4.765,4.765v2.664c0,2.626.9,3.752,4.014,4.539l9.9,2.476c4.089,1.05,6.265,2.364,6.265,6.565v3.376c0,4.727-2.251,6.941-6.941,6.941h-8.7C218.313,67.977,216.1,65.726,216.1,61.037Z" transform="translate(-216.1 -33.237)"/><path class="b" d="M287.3,54.9h2.289l6.078,23.373L302.719,54.9h2.251l7.091,23.373L318.138,54.9h2.176l-7.053,25.7h-2.514l-6.9-22.885L296.9,80.6h-2.514Z" transform="translate(-260.588 -45.859)"/><path class="b" d="M389.3,33.3h2.664v3.376H389.3Zm.263,8.1h2.176V67.1h-2.176Z" transform="translate(-324.322 -32.362)"/><path class="b" d="M414.7,73.408v-.675h2.138v.75c0,3.6,1.426,5.027,4.577,5.027h5.327c3.189,0,4.577-1.463,4.577-5.515,0-2.851-1.125-3.752-4.089-4.389l-6.415-1.2c-3.752-.75-5.74-2.289-5.74-5.815,0-4.652,2.176-6.79,6.678-6.79h4.464c4.464,0,6.678,2.138,6.678,6.9v.338h-2.138v-.413c0-3.414-1.388-4.8-4.577-4.8h-4.314c-3.151,0-4.577,1.388-4.577,4.727,0,2.476,1.276,3.376,3.9,3.9l6.415,1.2c4.089.825,5.965,2.326,5.965,6.34,0,5.327-2.176,7.578-6.678,7.578h-5.477C416.876,80.536,414.7,78.4,414.7,73.408Z" transform="translate(-340.192 -45.796)"/><path class="b" d="M482.4,30.8h2.176V43.33c2.7-2.439,4.952-3.752,9.342-3.752,5.327,0,7.5,2.138,7.5,6.678V65.578h-2.176V46.107c0-3.151-1.388-4.577-5.365-4.577-4.052,0-6.34,1.088-9.267,3.489V65.54h-2.176V30.8Z" transform="translate(-382.494 -30.8)"/></g></g></svg>