<svg id="svg4329" xmlns="http://www.w3.org/2000/svg" xmlns:xlink="http://www.w3.org/1999/xlink" width="1337.9" height="832" viewBox="0 0 1337.9 832">
  <defs>
    <style>.cls-1{fill:url(#linear-gradient);}.cls-2,.cls-4{isolation:isolate;}.cls-3{fill:#fff;}.cls-4{opacity:0.6;}</style>
    <linearGradient id="linear-gradient" x1="2914.08" y1="-8618.6" x2="2040.8" y2="-7068.88" gradientTransform="translate(-341.3 6247.35) scale(0.41 0.75)" gradientUnits="userSpaceOnUse">
      <stop offset="0" stop-color="#e09d2a"/><stop offset="0.47" stop-color="#12a154" stop-opacity="0.99"/>
      <stop offset="1" stop-color="#2fa8b4"/>
    </linearGradient>
  </defs>
  <title>kinvolk_logo</title>
  <path id="rect4138-7-2" class="cls-1" d="M-0.2,84.5L1335.5,0l-4.1,832L-2.4,722.2Z" transform="translate(2.4)"/>
  <g class="cls-2">
    <g class="cls-2">
      <path class="cls-3" d="M156.54,235.52h10.6V429.07h0.71L255.43,321.7h12.72l-54.39,66.4L278,490.52H266L207.4,396.58,167.13,443.9v46.62h-10.6v-255Z" transform="translate(2.4)"/>
    </g>
    <g class="cls-2">
      <path class="cls-3" d="M282.56,266.6c0-7.77,5.65-12,12-12s12,4.24,12,12A12,12,0,1,1,282.56,266.6Zm6.36,55.1h10.6V490.52h-10.6V321.7Z" transform="translate(2.4)"/>
    </g>
    <g class="cls-2">
      <path class="cls-3" d="M327.12,321.7h9.18l1.41,26.84h0.71c17.66-17.66,35.32-31.08,58.63-31.08,34.61,0,50.86,20.49,50.86,64.28V490.52h-10.6V383.15c0-37.44-12-55.8-41-55.8-21.19,0-36.73,11.3-58.63,33.91V490.52h-10.6V321.7Z" transform="translate(2.4)"/>
    </g>
    <g class="cls-2">
      <path class="cls-3" d="M441.21,313.93H502l19.07,77q6.36,26.49,12.71,55.1h1.41q6.36-28.61,12.71-55.1l19.07-77h57.92l-55.8,176.6H499.14Z" transform="translate(2.4)"/>
    </g>
    <g class="cls-2">
      <path class="cls-3" d="M703.38,309.69c45.21,0,87.59,33.91,87.59,92.54s-42.38,92.54-87.59,92.54-87.59-33.91-87.59-92.54S658.17,309.69,703.38,309.69Zm0,136.33c18.37,0,25.43-17,25.43-43.8s-7.06-43.8-25.43-43.8-25.43,17-25.43,43.8S685,446,703.38,446Z" transform="translate(2.4)"/>
    </g>
    <g class="cls-2">
      <path class="cls-3" d="M801.57,244.7h60.75V430.48c0,12,5.65,15.54,9.89,15.54a21.77,21.77,0,0,0,6.36-.71l7.06,44.5c-6.36,2.83-16.25,4.94-29.67,4.94-41,0-54.39-26.84-54.39-66.4V244.7Z" transform="translate(2.4)"/>
    </g>
    <g class="cls-2">
      <path class="cls-3" d="M895.49,244.7h59.34V375.38h1.41L1005,313.93h65.69l-62.87,73.46,66.4,103.13h-65.69l-35.32-62.87-18.37,20.49v42.38H895.49V244.7Z" transform="translate(2.4)"/>
    </g>
    <g class="cls-4">
      <path class="cls-3" d="M1085.42,465.67c6.87,0,12.1,5.4,12.1,12.75s-5.23,12.75-12.1,12.75-12.26-5.4-12.26-12.75S1078.55,465.67,1085.42,465.67Z" transform="translate(2.4)"/>
    </g>
    <g class="cls-4">
      <path class="cls-3" d="M1100.42,385.55c0-6.38,4.91-10.79,11.61-10.79s11.61,4.42,11.61,10.79c0,6.21-4.91,10.63-11.61,10.63S1100.42,391.76,1100.42,385.55Zm2.13,24.69h18.8v80.29h-18.8V410.24Z" transform="translate(2.4)"/>
    </g>
    <g class="cls-4">
      <path class="cls-3" d="M1168.12,408.28c20.11,0,38.26,15.37,38.26,42.19,0,26.65-18.15,42-38.26,42-19.95,0-38.1-15.37-38.1-42C1130,423.65,1148.17,408.28,1168.12,408.28Zm0,68.84c11.77,0,19-10.63,19-26.65,0-16.19-7.2-26.82-19-26.82s-18.8,10.63-18.8,26.82C1149.32,466.49,1156.35,477.12,1168.12,477.12Z" transform="translate(2.4)"/>
    </g>
  </g>
</svg>
