<svg width="123" height="33" viewBox="0 0 123 33" fill="none" xmlns="http://www.w3.org/2000/svg">
<path d="M95.2041 0.742188C91.6361 0.742188 88.7138 3.4946 88.2721 7.02855H89.3934C89.8352 4.14022 92.2478 1.9315 95.2041 1.9315C98.4322 1.9315 101.049 4.61595 101.049 7.91204C101.049 9.06737 100.709 10.1887 99.8254 11.5479L88.0002 22.7275V24.5284H102.136V23.3391H89.0876L100.607 12.4314C101.626 11.1402 102.136 9.50912 102.136 7.91204C102.136 3.97032 99.0439 0.742188 95.2041 0.742188Z" fill="#3A5670"/>
<path d="M113.165 0.742188C108.714 0.742188 105.112 4.48003 105.112 9.06737V16.3052C105.112 20.8925 108.714 24.5964 113.165 24.5964C117.617 24.5964 121.219 20.8925 121.219 16.3052V9.06737C121.219 4.48003 117.617 0.742188 113.165 0.742188ZM119.995 16.3052C119.995 20.145 116.937 23.3051 113.165 23.3051C109.393 23.3051 106.335 20.145 106.335 16.3052V9.06737C106.335 5.19361 109.393 2.06742 113.165 2.06742C116.937 2.06742 119.995 5.19361 119.995 9.06737V16.3052Z" fill="#3A5670"/>
<path fill-rule="evenodd" clip-rule="evenodd" d="M87.5389 6.93344C88.0237 3.0549 91.2386 0 95.2039 0C99.4769 0 102.875 3.58458 102.875 7.90855C102.875 9.65679 102.318 11.4528 101.187 12.8857L101.153 12.9276L90.9419 22.5969H102.875V25.2636H87.2613V24.0743H87.2329L87.2613 24.0474V22.4058L99.2527 11.0691C100.039 9.83815 100.31 8.87345 100.31 7.90855C100.31 5.00376 98.0075 2.66672 95.2039 2.66672C92.6341 2.66672 90.5134 4.58721 90.1234 7.13674L90.0275 7.76377H87.4351L87.5389 6.93344ZM104.373 9.06388C104.373 4.09271 108.282 0 113.165 0C118.048 0 121.957 4.09271 121.957 9.06388V16.3017C121.957 21.2769 118.044 25.3316 113.165 25.3316C108.286 25.3316 104.373 21.2769 104.373 16.3017V9.06388ZM113.165 2.80264C109.818 2.80264 107.074 5.58145 107.074 9.06388V16.3017C107.074 19.7525 109.82 22.5629 113.165 22.5629C116.51 22.5629 119.256 19.7525 119.256 16.3017V9.06388C119.256 5.58145 116.512 2.80264 113.165 2.80264Z" fill="#3A5670"/>
<path d="M1.93677 1.45703V25.2772H14.3736V23.918H3.4319V1.45703H1.93677Z" fill="#3A5670"/>
<path d="M30.0295 2.85023V1.55897H16.5053V25.2772H29.7236V23.918H17.8645V14.3696H27.1411V13.0443H17.8645V2.85023H30.0295Z" fill="#3A5670"/>
<path d="M52.2781 1.45703H50.8509L42.152 21.7093L33.521 1.45703H32.0258L42.152 25.2093L52.2781 1.45703Z" fill="#3A5670"/>
<path d="M67.8544 2.85023V1.55897H54.3302V25.2772H67.5485V23.918H55.6894V14.3696H64.966V13.0443H55.6894V2.85023H67.8544Z" fill="#3A5670"/>
<path d="M69.9542 1.45703V25.2772H82.391V23.918H71.4494V1.45703H69.9542Z" fill="#3A5670"/>
<path d="M122.625 29.0469H0V32.0017H122.625V29.0469Z" fill="#56CCF2"/>
</svg>
