<svg xmlns="http://www.w3.org/2000/svg" viewBox="0 0 770.87 200"><title>Asset 21</title><path d="M219.82,64.9a43,43,0,0,1,7.81-14.47,38,38,0,0,1,13-10,45.18,45.18,0,0,1,36.09,0,38,38,0,0,1,13,10,42.81,42.81,0,0,1,7.81,14.47,56.8,56.8,0,0,1,0,34,42.81,42.81,0,0,1-7.81,14.47,37.39,37.39,0,0,1-13,10,46,46,0,0,1-36.09,0,37.39,37.39,0,0,1-13-10,43,43,0,0,1-7.81-14.47,57,57,0,0,1,0-34Zm10.6,29.92a35,35,0,0,0,5.33,11.44,27.29,27.29,0,0,0,9.32,8.18,31.32,31.32,0,0,0,27.13,0,27.23,27.23,0,0,0,9.33-8.18,35.23,35.23,0,0,0,5.33-11.44,50.08,50.08,0,0,0,0-25.8,35.23,35.23,0,0,0-5.33-11.44,27.23,27.23,0,0,0-9.33-8.18,31.32,31.32,0,0,0-27.13,0,27.29,27.29,0,0,0-9.32,8.18A35,35,0,0,0,230.42,69a49.79,49.79,0,0,0,0,25.8Z"/><path d="M371.68,118.8q-8.83,8.3-25.19,8.29-16.71,0-26.1-7.93T311,93.91V38.68h11.51V93.91q0,11.63,6.18,17.62t17.8,6q11,0,16.77-6T369,93.91V38.68h11.5V93.91Q380.52,110.5,371.68,118.8Z"/><path d="M387.52,48.37V38.68h69.15v9.69H427.85v76.79H416.34V48.37Z"/><path d="M512.77,50.92a26.72,26.72,0,0,0-15.68-4.61,28,28,0,0,0-13.26,2.91A26.14,26.14,0,0,0,474.74,57a33.6,33.6,0,0,0-5.26,11.2,49.71,49.71,0,0,0-1.7,13.08,55.57,55.57,0,0,0,1.7,14,33.31,33.31,0,0,0,5.26,11.51,26,26,0,0,0,9.15,7.81,28.41,28.41,0,0,0,13.32,2.91,25.71,25.71,0,0,0,10.11-1.88,22.85,22.85,0,0,0,7.63-5.21,23.92,23.92,0,0,0,5-7.93,33,33,0,0,0,2.18-9.93h11.5Q532,108.93,522.4,118t-26.16,9.08a41.68,41.68,0,0,1-17.56-3.45,34.32,34.32,0,0,1-12.47-9.51,40.45,40.45,0,0,1-7.45-14.29,60.78,60.78,0,0,1-2.49-17.68,57.55,57.55,0,0,1,2.67-17.74A42.59,42.59,0,0,1,466.75,50a36.34,36.34,0,0,1,12.84-9.75,41.38,41.38,0,0,1,17.62-3.58,44.53,44.53,0,0,1,12.84,1.82,34.61,34.61,0,0,1,10.78,5.33,30.08,30.08,0,0,1,7.87,8.78,32.23,32.23,0,0,1,4.12,12.17H521.31Q519.38,55.53,512.77,50.92Z"/><path d="M543.05,64.9a42.81,42.81,0,0,1,7.81-14.47,38,38,0,0,1,13-10,45.18,45.18,0,0,1,36.09,0,38,38,0,0,1,13,10,43,43,0,0,1,7.81,14.47,57,57,0,0,1,0,34,43,43,0,0,1-7.81,14.47,37.39,37.39,0,0,1-13,10,46,46,0,0,1-36.09,0,37.39,37.39,0,0,1-13-10,42.81,42.81,0,0,1-7.81-14.47,57,57,0,0,1,0-34Zm10.6,29.92A35,35,0,0,0,559,106.26a27.32,27.32,0,0,0,9.33,8.18,31.32,31.32,0,0,0,27.13,0,27.29,27.29,0,0,0,9.32-8.18,34.82,34.82,0,0,0,5.33-11.44,49.79,49.79,0,0,0,0-25.8,34.82,34.82,0,0,0-5.33-11.44,27.29,27.29,0,0,0-9.32-8.18,31.32,31.32,0,0,0-27.13,0A27.32,27.32,0,0,0,559,57.58,35,35,0,0,0,553.65,69a49.79,49.79,0,0,0,0,25.8Z"/><path d="M646.49,38.68v76.79h45.78v9.69H635V38.68Z"/><path d="M729.33,38.68q20,0,30.76,10.18t10.78,31a70.18,70.18,0,0,1-2.42,19.32,36.24,36.24,0,0,1-7.51,14.17,32.59,32.59,0,0,1-13,8.78,51.9,51.9,0,0,1-18.65,3H699.66V38.68Zm1,76.79c1.29,0,2.9-.1,4.84-.3a27.48,27.48,0,0,0,6.18-1.46,28.09,28.09,0,0,0,6.48-3.33,21.89,21.89,0,0,0,5.75-5.93,33.24,33.24,0,0,0,4.18-9.39,49.37,49.37,0,0,0,1.63-13.62,57.88,57.88,0,0,0-1.51-13.87,26.65,26.65,0,0,0-5-10.42,21.87,21.87,0,0,0-8.9-6.54,35.49,35.49,0,0,0-13.44-2.24H711.16v67.1Z"/><path d="M252.77,150.18a8.15,8.15,0,0,0-4.91-1.4,11.12,11.12,0,0,0-2.38.25,6.48,6.48,0,0,0-2.08.8,4.15,4.15,0,0,0-1.45,1.52,4.61,4.61,0,0,0-.55,2.36,3,3,0,0,0,.79,2.16,5.77,5.77,0,0,0,2.1,1.35,17.48,17.48,0,0,0,3,.87c1.1.23,2.22.48,3.37.75s2.26.58,3.37.94a11.24,11.24,0,0,1,3,1.48,6.93,6.93,0,0,1,2.1,2.34,8.2,8.2,0,0,1-.24,7.49,8.38,8.38,0,0,1-2.64,2.66,11.44,11.44,0,0,1-3.62,1.5,17.41,17.41,0,0,1-4,.46,16.57,16.57,0,0,1-4.58-.61,11.28,11.28,0,0,1-3.8-1.83,8.66,8.66,0,0,1-2.58-3.15,10,10,0,0,1-.95-4.54h3.63a6.27,6.27,0,0,0,2.57,5.29,7.88,7.88,0,0,0,2.68,1.25,12.25,12.25,0,0,0,3.15.4,14.38,14.38,0,0,0,2.6-.24,7.59,7.59,0,0,0,2.36-.83,4.42,4.42,0,0,0,2.35-4.18,3.65,3.65,0,0,0-.79-2.42,5.85,5.85,0,0,0-2.1-1.51,15.23,15.23,0,0,0-3-1l-3.37-.75c-1.14-.25-2.27-.55-3.37-.89a12.19,12.19,0,0,1-3-1.33,6.41,6.41,0,0,1-2.1-2.14,6.33,6.33,0,0,1-.78-3.29,7.64,7.64,0,0,1,.88-3.77,7.78,7.78,0,0,1,2.37-2.63,10.8,10.8,0,0,1,3.35-1.53,14.58,14.58,0,0,1,3.85-.51,15.44,15.44,0,0,1,4.12.53,9.37,9.37,0,0,1,3.33,1.65,8,8,0,0,1,2.26,2.85,10.11,10.11,0,0,1,.91,4.1H255A6,6,0,0,0,252.77,150.18Z"/><path d="M299.49,155a14.39,14.39,0,0,1,2.6-4.82,12.7,12.7,0,0,1,4.32-3.35,15,15,0,0,1,12,0,12.51,12.51,0,0,1,4.32,3.35,14.24,14.24,0,0,1,2.61,4.82,18.91,18.91,0,0,1,0,11.34,14.28,14.28,0,0,1-2.61,4.83,12.34,12.34,0,0,1-4.32,3.33,15.32,15.32,0,0,1-12,0,12.53,12.53,0,0,1-4.32-3.33,14.44,14.44,0,0,1-2.6-4.83,18.91,18.91,0,0,1,0-11.34ZM303,165a11.75,11.75,0,0,0,1.78,3.82,9,9,0,0,0,3.11,2.72,10.43,10.43,0,0,0,9,0,9.08,9.08,0,0,0,3.11-2.72,11.75,11.75,0,0,0,1.78-3.82,16.79,16.79,0,0,0,0-8.6,11.7,11.7,0,0,0-1.78-3.81,9.21,9.21,0,0,0-3.11-2.73,10.43,10.43,0,0,0-9,0,9.12,9.12,0,0,0-3.11,2.73,11.7,11.7,0,0,0-1.78,3.81,16.79,16.79,0,0,0,0,8.6Z"/><path d="M370.67,146.24v25.6h15.26v3.22H366.84V146.24Z"/><path d="M444.5,173q-2.94,2.76-8.39,2.76t-8.7-2.64c-2.09-1.77-3.13-4.57-3.13-8.42V146.24h3.83v18.41a7.83,7.83,0,0,0,2.06,5.87,8.16,8.16,0,0,0,5.94,2,7.36,7.36,0,0,0,5.59-2,8.15,8.15,0,0,0,1.92-5.87V146.24h3.83v18.41C447.45,168.34,446.47,171.1,444.5,173Z"/><path d="M486.48,149.47v-3.23h23v3.23h-9.61v25.59h-3.83V149.47Z"/><path d="M552.53,146.24v28.82h-3.84V146.24Z"/><path d="M594.11,155a14,14,0,0,1,2.6-4.82,12.7,12.7,0,0,1,4.32-3.35,15,15,0,0,1,12,0,12.7,12.7,0,0,1,4.32,3.35A14.21,14.21,0,0,1,620,155a18.91,18.91,0,0,1,0,11.34,14.26,14.26,0,0,1-2.6,4.83,12.53,12.53,0,0,1-4.32,3.33,15.32,15.32,0,0,1-12,0,12.53,12.53,0,0,1-4.32-3.33,14.09,14.09,0,0,1-2.6-4.83,18.91,18.91,0,0,1,0-11.34Zm3.53,10a11.54,11.54,0,0,0,1.78,3.82,9,9,0,0,0,3.1,2.72,10.45,10.45,0,0,0,9.05,0,9,9,0,0,0,3.1-2.72,11.75,11.75,0,0,0,1.78-3.82,16.5,16.5,0,0,0,0-8.6,11.7,11.7,0,0,0-1.78-3.81,9.09,9.09,0,0,0-3.1-2.73,10.45,10.45,0,0,0-9.05,0,9.09,9.09,0,0,0-3.1,2.73,11.49,11.49,0,0,0-1.78,3.81,16.5,16.5,0,0,0,0,8.6Z"/><path d="M665.51,146.24l15.18,23.37h.08V146.24h3.63v28.82h-4.2l-15.06-23.13h-.08v23.13h-3.63V146.24Z"/><path d="M741,150.18a8.15,8.15,0,0,0-4.91-1.4,11.19,11.19,0,0,0-2.38.25,6.48,6.48,0,0,0-2.08.8,4.23,4.23,0,0,0-1.45,1.52,4.71,4.71,0,0,0-.55,2.36,3,3,0,0,0,.79,2.16,6,6,0,0,0,2.1,1.35,17.48,17.48,0,0,0,3,.87c1.1.23,2.22.48,3.37.75s2.27.58,3.37.94a11.46,11.46,0,0,1,3,1.48,7.15,7.15,0,0,1,2.1,2.34,7.29,7.29,0,0,1,.78,3.55,7.21,7.21,0,0,1-1,3.94,8.28,8.28,0,0,1-2.64,2.66,11.48,11.48,0,0,1-3.61,1.5,17.56,17.56,0,0,1-4,.46,16.62,16.62,0,0,1-4.58-.61,11.28,11.28,0,0,1-3.8-1.83,8.66,8.66,0,0,1-2.58-3.15,10.16,10.16,0,0,1-1-4.54h3.63a6.27,6.27,0,0,0,2.57,5.29,7.88,7.88,0,0,0,2.68,1.25,12.25,12.25,0,0,0,3.15.4,14.38,14.38,0,0,0,2.6-.24,7.65,7.65,0,0,0,2.37-.83,4.69,4.69,0,0,0,1.69-1.59,4.76,4.76,0,0,0,.65-2.59,3.6,3.6,0,0,0-.79-2.42,5.68,5.68,0,0,0-2.1-1.51,15,15,0,0,0-3-1l-3.37-.75c-1.14-.25-2.26-.55-3.37-.89a12,12,0,0,1-3-1.33,6,6,0,0,1-2.89-5.43,7.54,7.54,0,0,1,.89-3.77,7.75,7.75,0,0,1,2.36-2.63,10.8,10.8,0,0,1,3.35-1.53,14.64,14.64,0,0,1,3.85-.51,15.38,15.38,0,0,1,4.12.53,9.29,9.29,0,0,1,3.33,1.65,8,8,0,0,1,2.26,2.85,10.11,10.11,0,0,1,.91,4.1h-3.63A6,6,0,0,0,741,150.18Z"/><path d="M124.47,6.46c9.1,0,22,3,34.68,15.33,12.85,12.52,15.09,31,13.19,34.5,9.47.35,15.29,15.23,15.72,29.13-2.86-6-6.47-7.61-8.84-7.61-1.39,0-2.35.58-2.48,1.16,9.81,1.35,12,21.29,10,39.77-2.53,22.81-14.4,45.22-25.28,47.74,1.58-4.22.82-9-.7-9.34.33,9.34-31.34,36.4-67.93,36.4a69.88,69.88,0,0,1-9.09-.57c-4.71-.6-4.47-1.16-2.14-1.94,4-1.35,9.15-4.3,10.23-6.72a32.69,32.69,0,0,1-14,3.3c-8.7,0-16.86-3.89-24.47-10.51s-8-11.44-7.93-12.84c-2.69,1.28-1.52,6.65-.12,11-11.79-2.1-19-19.91-21.44-28a32.28,32.28,0,0,1-1.61-13.45c-2,.9-4.24,6.12-4.31,9.87-9-9.08-11.72-36-11.48-46.23.41-18,10.16-30,14.5-30a2.85,2.85,0,0,1,.29,0A7.36,7.36,0,0,0,18.74,67a11.86,11.86,0,0,0-6.59,2.11c1.76-25.95,32.54-47.86,44.48-47.86a6.51,6.51,0,0,1,2.41.4c.38-2.66-1.61-5.92-5.92-6.61-.37-.06-.64-.36-.17-.68C60.2,9.44,74.52,6.56,87.61,6.56c12.66,0,24.16,2.69,27,8.85,2.09-3,.47-7.79.47-7.79a36.27,36.27,0,0,1,9.38-1.16m0-6.46a42.1,42.1,0,0,0-11.09,1.39A6.44,6.44,0,0,0,110,3.68C102.78.72,93.77.11,87.61.11,76,.11,59,2.43,49.33,9a6.86,6.86,0,0,0-2.93,7.15,7.76,7.76,0,0,0,.29,1C30,24,7.32,45,5.71,68.67a6.35,6.35,0,0,0,.88,3.71A52.69,52.69,0,0,0,0,97.22C-.17,105,1.59,136.3,13.38,148.15A6.42,6.42,0,0,0,18,150.06h0c2.45,7.9,10.35,28.71,26.17,31.53a6.27,6.27,0,0,0,1.14.1,6.41,6.41,0,0,0,2.79-.64c.33.31.67.61,1,.92,8,6.91,16.21,10.9,24.63,11.86,1.25,4.54,6.51,5.22,9.14,5.55a79.42,79.42,0,0,0,9.91.62c27.24,0,52.82-13.83,66.14-27.57a6.41,6.41,0,0,0,2.49.51,6.52,6.52,0,0,0,1.45-.17c15.43-3.56,27.71-30.45,30.25-53.33.63-5.65,1.59-18.4-.78-29.2a6.47,6.47,0,0,0,2.16-5c-.43-14.1-5.69-28.52-15.12-33.53-.2-9.73-5.29-24.33-15.74-34.51C149.08,3,134.3,0,124.47,0Z"/><path d="M80.29,115.72H50.85c-3.27,0-5,3.34-4,7.34S51.08,130,54.14,130H81.8c3,0,5.28-3,5-6.89S83.55,115.72,80.29,115.72Z"/><path d="M148.1,115.72H118.64c-3.24,0-6,3.34-6.1,7.34s2.25,6.89,5.29,6.89H145.5c3.05,0,6.16-3,7-6.89S151.36,115.72,148.1,115.72Z"/><path d="M147.13,95.41a63.2,63.2,0,0,0-7.34-1.12,34,34,0,0,0-11.54-3.24c3.14-7.28,17-6.14,20.6-.46,3-10.31-13.94-18.75-32.37-11.88-2.26-4.58,4.14-14.13,11.28-14.51-4.89-6.5-32.71-2.3-44,10.31-1.5-9.17,8.28-20.24,14.29-23.3C93.17,47,65.35,66.87,63.84,78a8.63,8.63,0,0,1-3.38-11.08C53.69,72.6,46.54,81,44.67,96.28a14.56,14.56,0,0,1-6-4.89A76.25,76.25,0,0,0,37.23,103c-4.49,5.11-6.08,12.23-4.4,20.89a38.32,38.32,0,0,0,2.36,7.67c2.68,10.07,9.69,19.78,19.93,24.67.78.38,1.55.72,2.31,1,10.92,11,25.38,17.66,41.25,17.66,15.41,0,29.49-6.31,40.28-16.72,14.55-5.11,21.21-14.17,23.92-23.11a37.48,37.48,0,0,0,3.62-11.42C168.67,109,161.61,98.69,147.13,95.41Zm15.23,27.65c-1.94,13.2-10.92,22.25-20.56,25.24-8.19,2.55-20.93.38-25.25-1.44-3.63-1.52-5.5-4.59-7.47-7.6-1.19-1.91-2.32-3.95-3.26-5.79-2.87-5.7-10-7.59-15.39-5.13-.43.2-.09.82.33.75a11.63,11.63,0,0,1,8.75,2.3c-7.19.37-8.29,12.3-15.46,15.14-4.28,1.69-17,4.32-25.33,1.77-9.8-3-19.2-12-21.78-25.24-2.69-13.78,4.19-21,15-23.5,10-2.3,32.26-2.12,47.06-2.12s37.1-.18,47.21,2.12C157.17,102,164.4,109.28,162.36,123.06Z"/></svg>