<?xml version="1.0" encoding="utf-8"?>
<!-- Generator: Adobe Illustrator 18.1.1, SVG Export Plug-In . SVG Version: 6.00 Build 0)  -->
<svg version="1.1" id="Layer_1" xmlns="http://www.w3.org/2000/svg" xmlns:xlink="http://www.w3.org/1999/xlink" x="0px" y="0px"
	 viewBox="0 0 85.4 75.9" enable-background="new 0 0 85.4 75.9" xml:space="preserve">
<path fill="#242424" d="M14.5,62.9c0,3-2.3,6.2-6.8,6.2H0.1V48.8h7.4c4.1,0,6.3,2.2,6.3,4.9c0,2-1.3,3.8-3.2,4.5
	C12.8,58.6,14.5,60.3,14.5,62.9 M7,56.9c1.5,0,2.6-1,2.6-2.4c0-1.6-1.3-2.2-2.5-2.2h-3v4.6H7z M7.1,65.6c1.8,0,3.3-1,3.3-2.8
	c0-1.7-1.4-2.5-3.2-2.5H4.1v5.3H7.1z"/>
<path fill="#242424" d="M20.7,56.4c0.6-1.5,2.1-2.1,3.2-2.1c0.8,0,1.7,0.1,2.2,0.4l-0.8,3.7c-0.5-0.2-1.1-0.4-1.7-0.4
	c-2,0-2.8,1.2-2.8,3.3v7.8h-4V54.4h3.9V56.4z"/>
<path fill="#242424" d="M30.4,47.1c1.5,0,2.7,1.2,2.7,2.7c0,1.4-1.2,2.6-2.7,2.6c-1.4,0-2.6-1.2-2.6-2.6
	C27.7,48.4,28.9,47.1,30.4,47.1 M32.4,69.1h-4V54.4h4V69.1z"/>
<path fill="#242424" d="M46.8,56.4v-7.7h4v20.3h-3.9v-1.8c-1.1,1.3-2.5,2.1-4.6,2.1c-3.7,0-7.4-2.6-7.4-7.7c0-5.1,3.6-7.6,7.2-7.6
	C44.2,54.1,45.9,54.9,46.8,56.4 M46.8,61.7c0-3.2-2.1-4.4-4.1-4.4c-2.3,0-4,1.5-4,4.3c0,2.7,1.6,4.4,4,4.4
	C45,66.1,46.8,64.7,46.8,61.7"/>
<path fill="#242424" d="M69.1,68.2c0,5.1-4,7.7-8.1,7.7c-3.4,0-6.5-1.8-7.6-5l3.6-1.4c0.6,2.1,2.4,3,4.3,3c2.2,0,4-1.4,4-4v-1.9
	c-0.9,1.4-2.5,2.4-4.7,2.4c-3.6,0-7.3-2.4-7.3-7.4c0-5,3.8-7.5,7.5-7.5c2.1,0,3.7,0.8,4.4,2.2v-1.8h3.9V68.2z M65.1,61.5
	c0-2.7-2-4.1-4-4.1c-2,0-4,1.4-4,4.2c0,2.9,1.9,4.1,3.8,4.1C63.1,65.6,65.1,64.1,65.1,61.5"/>
<path fill="#242424" d="M85.3,63.3H75.2c0.3,2,2.2,2.7,3.7,2.7c1.6,0,3-0.6,4-1.9l2.4,2.4c-1.6,2-3.9,3-6.4,3
	c-3.9,0-7.7-2.5-7.7-7.6c0-5.1,3.7-7.7,7.5-7.7c3.6,0,6.8,2.4,6.8,7.4C85.4,61.9,85.4,62.5,85.3,63.3 M81.7,60.3
	c-0.2-1.9-1.5-2.9-3.2-2.9c-1.9,0-3.1,1.2-3.3,2.9H81.7z"/>
<path fill="#242424" d="M2.4,40.5c-0.4,0-0.8-0.1-1.2-0.3C0.5,39.7,0,38.9,0,38.1V24.6c0-9,7.3-16.4,16.3-16.5
	C19.2,3.3,24.5,0,30.5,0c9.1,0,16.5,7.4,16.5,16.5V30c0,0.9-0.5,1.7-1.2,2.1l-14,8.1c-0.7,0.4-1.7,0.4-2.4,0
	c-0.7-0.4-1.2-1.2-1.2-2.1V24.6c0-5.4-3.7-10-8.8-11.3c-0.3,1-0.4,2.1-0.4,3.2V30c0,0.9-0.5,1.7-1.2,2.1l-14,8.1
	C3.2,40.4,2.8,40.5,2.4,40.5 M14.4,13.1c-5.4,1-9.5,5.7-9.5,11.4v9.3l9.2-5.3V16.5C14,15.3,14.2,14.2,14.4,13.1 M21.6,8.9
	c6.5,2.2,11.3,8.4,11.3,15.6v9.3l9.2-5.3V16.5c0-6.4-5.2-11.6-11.6-11.6C26.9,4.8,23.8,6.4,21.6,8.9"/>
</svg>
