<?xml version="1.0" encoding="UTF-8"?><svg id="a" xmlns="http://www.w3.org/2000/svg" viewBox="0 0 483 153.65"><defs><style>.c{fill:#ff462d;}</style></defs><path id="b" class="c" d="M460.95,0V115.24h-13.51V0h13.51ZM187.66,36.63c-11.48-.73-21.49,7.74-22.66,19.18h-.66v-17.4h-13.53V115.24h13.52v-47.85c0-12.94,6.89-18.86,18.44-18.86,13.22,0,19.13,6.55,19.13,19.55v47.16h13.51v-48.92c-.02-18.34-10.39-29.68-27.75-29.68ZM104.95,113.17h-.44l-23.46-74.76h-14.01l24.83,76.83h12.43l-12.68,38.41h13.5l37.2-115.24h-14l-23.38,74.76Zm296.63,0h-.44l-23.46-74.76h-14.01l24.83,76.83h12.43l-12.68,38.41h13.49l37.2-115.24h-14.01l-23.36,74.76ZM28.14,76.83L61.49,38.41h-16.44L13.94,75.49h-.43V0H0V115.24H13.52v-37.7h12.84l25.97,37.7h15.66l-26.89-38.41h-12.96Zm303.54-21h-.66v-17.41h-13.52V115.24h13.52v-47.99c0-12.94,7.34-17.67,19.91-17.67,2.82-.03,5.63,.28,8.38,.9v-13.06c-2.08-.62-4.24-.9-6.41-.81-11.07-.29-20.41,8.17-21.22,19.21ZM286.62,0h13.51V115.24h-13.51v-17.4h-.65c-1.29,10.72-9.52,19.18-25.11,19.18-19.02,0-32.53-15.09-32.53-40.19s13.51-40.19,32.53-40.19c15.59,0,23.82,8.45,25.11,19.18h.65V0Zm0,66.68c0-12.94-9.76-18.15-21.88-18.15-12.77,0-22.32,7.94-22.32,28.3s9.55,28.3,22.32,28.3c12.11,0,21.88-5.22,21.88-18.15v-20.3Zm180.37,40.44v.91h2.45v7.21h1.15v-7.2h2.45v-.91h-6.06Zm13.52,0l-2.02,8.01h-.02l-1.92-8.01h-2.22l-.23,8.12h1.09l.24-8.01h.02l1.99,8.01h2.03l2.12-8.01h.02l.24,8.01h1.15l-.27-8.11h-2.22Z"/></svg>