<svg version="1.1" id="Layer_1" xmlns="http://www.w3.org/2000/svg" x="0" y="0" viewBox="0 0 164 40.7" xml:space="preserve"><style>.st0{fill:#fa6624}.st1{fill:#1a59d1}</style><path class="st0" d="M57.3 11.3h-6.5v-5h6.5v5zm-6.5 2.5h6.5v19.8h-6.5V13.8zM60.3 6.3h6.5v27.3h-6.5zM69.7 6.3h6.5v27.3h-6.5zM98.6 33.7h-6.3V31h-.1c-1.3 2-3.6 3.3-6 3.3-5.7 0-7.3-3.3-7.3-8.5v-12h6.5v11.5c0 2.6 1.1 3.6 3.2 3.6 1.4 0 3.6-.9 3.6-4.4V13.8h6.5l-.1 19.9zM101 13.8h6.3v2.7h.1c1.2-2 3.4-3.3 5.7-3.3 2.5 0 4.7.8 5.8 3.2 1.4-2.1 3.7-3.3 6.2-3.2 6.3 0 7 4.8 7 8.6v11.9h-6.5V22c0-2.1-1-3.4-2.7-3.4-2.8 0-3 2.1-3 5.4v9.7h-6.5V22.4c0-2.3-.7-3.8-2.4-3.8-2.3 0-3.3 1.3-3.3 5.4v9.7h-6.5l-.2-19.9zM141.3 11.3h-6.5v-5h6.5v5zm-6.5 2.5h6.5v19.8h-6.5V13.8zM153.4 13.2c5.8 0 10.5 4.6 10.6 10.4 0 5.8-4.6 10.5-10.4 10.6-5.8 0-10.5-4.6-10.6-10.4v-.1c-.2-5.6 4.2-10.3 9.8-10.5h.6zm0 16c3 0 4-3 4-5.5s-1-5.5-4-5.5-3.9 3-3.9 5.5.9 5.5 3.9 5.5"/><path class="st1" d="M40.7 2.4C40.7 1 39.6 0 38.3 0H16.1v4h20.5v21.2h4.1V2.4zM36.6 30.9v5.7h-5.7v4.1h7.4c1.4 0 2.4-1.1 2.4-2.4v-7.4h-4.1zM4 4h6.5V0h-8C1.1 0 0 1 0 2.4v11.2h4V4zM4 36.6V19.2H0v19c0 1.4 1.1 2.4 2.4 2.4h12.8v-4.1L4 36.6z"/><path class="st0" d="M31.5 25.2h-5.2L24 23.1v-6.5l2-1.3h5.4c.6 0 1-.5 1-1V9c0-.6-.5-1-1-1H26c-.6 0-1 .5-1 1v5l-2.3 1.4h-6.4l-3.5-3.2V9.4c0-.4-.3-.6-.6-.6H8.8c-.4 0-.6.3-.6.6v3.5c0 .4.3.6.6.6h3.1l3.3 3v6.4L11.8 25h-3c-.4 0-.6.3-.6.6v3.7c0 .4.3.6.6.6h3.5c.4 0 .6-.3.6-.6v-2.9l3.5-2.1h6.5l2.3 2.1v5.2c0 .6.5 1 1 1h5.4c.6 0 1-.5 1-1v-5.4c0-.6-.5-1-1.1-1"/></svg>