<?xml version="1.0" encoding="utf-8"?>
<!-- Generator: Adobe Illustrator 14.0.0, SVG Export Plug-In . SVG Version: 6.00 Build 43363)  -->
<!DOCTYPE svg PUBLIC "-//W3C//DTD SVG 1.1//EN" "http://www.w3.org/Graphics/SVG/1.1/DTD/svg11.dtd">
<svg version="1.1"
	 id="svg2" xmlns:dc="http://purl.org/dc/elements/1.1/" xmlns:cc="http://creativecommons.org/ns#" xmlns:rdf="http://www.w3.org/1999/02/22-rdf-syntax-ns#" xmlns:svg="http://www.w3.org/2000/svg"
	 xmlns="http://www.w3.org/2000/svg" xmlns:xlink="http://www.w3.org/1999/xlink" x="0px" y="0px" width="446.611px"
	 height="89.644px" viewBox="234.627 242.896 446.611 89.644" enable-background="new 234.627 242.896 446.611 89.644"
	 xml:space="preserve">
<g id="g7054_1_" transform="translate(-379,411)">
	<g id="g4317_1_" transform="matrix(0.54444382,0,0,0.54444382,414.19751,386.32252)">
		<g id="g4347_1_" transform="matrix(1.8829142,0,0,1.8829142,-694.78245,-201.35576)">
			<g id="g4349_1_" transform="scale(1,-1)">
				<path id="path4351_1_" fill="#FFFFFF" d="M696.998,402.076c0,3.218-0.435,6.074-1.304,8.572
					c-0.834,2.536-2.025,4.674-3.578,6.416c-1.514,1.779-3.349,3.122-5.506,4.031c-2.12,0.946-4.466,1.418-7.041,1.418
					c-2.609,0-4.995-0.472-7.151-1.418c-2.158-0.948-4.012-2.309-5.563-4.088c-1.553-1.741-2.763-3.879-3.635-6.415
					c-0.833-2.537-1.246-5.412-1.246-8.629c0-3.218,0.413-6.094,1.246-8.629c0.874-2.498,2.065-4.636,3.578-6.415
					c1.551-1.741,3.388-3.086,5.506-4.031c2.159-0.909,4.542-1.363,7.152-1.363c2.574,0,4.94,0.473,7.095,1.419
					c2.159,0.947,4.013,2.29,5.565,4.031c1.553,1.779,2.743,3.936,3.575,6.472C696.562,395.984,696.998,398.859,696.998,402.076z
					 M688.823,401.963c0-4.05-0.853-7.154-2.555-9.31c-1.665-2.158-3.898-3.237-6.7-3.237c-2.801,0-5.07,1.098-6.81,3.293
					c-1.741,2.195-2.612,5.318-2.612,9.367c0,4.05,0.833,7.154,2.498,9.31c1.703,2.158,3.955,3.237,6.756,3.237
					c2.801,0,5.072-1.098,6.813-3.293C687.952,409.134,688.823,406.012,688.823,401.963z"/>
				<path id="path4353_1_" fill="#FFFFFF" d="M738.61,409.285c0,2.12-0.359,3.954-1.077,5.507c-0.72,1.589-1.703,2.914-2.953,3.973
					c-1.246,1.06-2.703,1.837-4.369,2.329c-1.665,0.53-3.427,0.795-5.281,0.795h-17.37V382.15h7.945v14.079h8.743
					c2.044,0,3.936,0.247,5.678,0.739c1.779,0.491,3.311,1.267,4.597,2.327c1.288,1.058,2.29,2.403,3.01,4.03
					C738.249,404.99,738.61,406.977,738.61,409.285L738.61,409.285z M730.435,409.116c0-3.445-1.894-5.166-5.679-5.166h-9.252
					v10.218h9.139c1.778,0,3.176-0.416,4.201-1.249C729.905,412.124,730.435,410.856,730.435,409.116z"/>
				<path id="path4355_1_" fill="#FFFFFF" d="M777.156,382.15v7.777h-20.495v9.594h11.41v7.721h-11.41v6.869h19.643v7.777h-27.591
					V382.15H777.156z"/>
				<path id="path4357_1_" fill="#FFFFFF" d="M820.357,382.15v39.738h-7.834v-16.803c0-0.568,0-1.268,0-2.101
					c0.04-0.833,0.059-1.683,0.059-2.554c0-0.833,0-1.627,0-2.384c0.036-0.719,0.055-1.268,0.055-1.646
					c-0.268,0.53-0.68,1.211-1.248,2.043c-0.531,0.872-1.04,1.683-1.535,2.44l-14.078,21.005h-7.608V382.15h7.834v17.483
					c0,0.568-0.019,1.268-0.059,2.1c0,0.833,0,1.664,0,2.497c0,0.872-0.017,1.667-0.057,2.385c0,0.757,0,1.325,0,1.704
					c0.265-0.531,0.663-1.231,1.193-2.1c0.568-0.833,1.097-1.627,1.589-2.385l14.59-21.684H820.357L820.357,382.15z"/>
			</g>
			<g id="g4359_1_" transform="scale(1,-1)">
				<path id="path4361_1_" fill="#FFFFFF" d="M857.654,392.597c0,1.475-0.189,2.781-0.568,3.917
					c-0.379,1.135-1.021,2.177-1.93,3.122c-0.871,0.947-2.044,1.816-3.519,2.612c-1.478,0.794-3.313,1.589-5.508,2.385
					c-2.006,0.718-3.633,1.381-4.881,1.986c-1.21,0.606-2.155,1.211-2.839,1.816c-0.682,0.644-1.135,1.288-1.362,1.932
					c-0.225,0.681-0.341,1.437-0.341,2.27c0,0.794,0.133,1.532,0.398,2.213c0.303,0.719,0.756,1.344,1.364,1.874
					c0.642,0.531,1.458,0.947,2.441,1.249c0.985,0.341,2.158,0.511,3.519,0.511c2.006,0,3.729-0.322,5.167-0.965
					c1.477-0.606,2.932-1.515,4.372-2.725l2.839,3.463c-1.665,1.323-3.445,2.364-5.337,3.123c-1.854,0.755-4.106,1.135-6.756,1.135
					c-1.854,0-3.559-0.226-5.108-0.681c-1.515-0.453-2.82-1.135-3.917-2.044c-1.058-0.871-1.892-1.93-2.498-3.178
					c-0.606-1.249-0.909-2.669-0.909-4.259c0-1.438,0.189-2.705,0.568-3.803c0.415-1.098,1.057-2.101,1.93-3.008
					c0.909-0.872,2.082-1.704,3.519-2.498c1.478-0.757,3.292-1.514,5.451-2.271c1.817-0.643,3.33-1.286,4.542-1.93
					c1.211-0.605,2.177-1.23,2.894-1.873c0.756-0.643,1.288-1.343,1.591-2.101c0.301-0.757,0.453-1.59,0.453-2.498
					c0-2.12-0.774-3.785-2.328-4.996c-1.513-1.211-3.595-1.816-6.242-1.816c-2.044,0-3.936,0.434-5.679,1.306
					c-1.741,0.872-3.367,2.025-4.881,3.463l-2.952-3.293c1.589-1.59,3.519-2.913,5.79-3.973c2.308-1.021,4.826-1.533,7.549-1.533
					c2.082,0,3.936,0.284,5.563,0.852c1.627,0.568,3.01,1.343,4.144,2.327c1.135,0.984,1.987,2.158,2.555,3.52
					C857.351,389.587,857.654,391.044,857.654,392.597z"/>
				<path id="path4363_1_" fill="#FFFFFF" d="M898.016,382.15v39.738h-4.428v-16.974h-19.755v16.974h-4.426V382.15h4.426v18.733
					h19.755V382.15H898.016z"/>
				<path id="path4365_1_" fill="#FFFFFF" d="M915.729,382.15v39.738h-4.428V382.15H915.729z"/>
				<path id="path4367_1_" fill="#FFFFFF" d="M952.346,417.857v4.031h-23.333v-39.739h4.428v18.506h10.9v4.031h-10.9v13.172
					L952.346,417.857L952.346,417.857z"/>
				<path id="path4369_1_" fill="#FFFFFF" d="M988.053,417.857v4.031h-27.82v-4.031h11.694V382.15h4.428v35.707H988.053z"/>
			</g>
		</g>
	</g>
	<g id="g4371_1_" transform="matrix(2.7494428,0,0,2.7494428,688.89238,308.67025)">
	</g>
	<g id="g4375_1_" transform="matrix(2.7494428,0,0,2.7494428,697.68757,297.64004)">
	</g>
	<g id="g4379_1_" transform="matrix(2.7494428,0,0,2.7494428,714.19714,311.49035)">
	</g>
	<g id="g4383_1_" transform="matrix(2.7494428,0,0,2.7494428,723.5557,308.70709)">
	</g>
	<g id="g4387_1_" transform="matrix(2.7494428,0,0,2.7494428,735.17017,307.45637)">
	</g>
	<g id="g4391_1_" transform="matrix(2.7494428,0,0,2.7494428,751.6814,300.9006)">
	</g>
	<g id="g4395_1_" transform="matrix(2.7494428,0,0,2.7494428,761.53238,304.84743)">
	</g>
	<g id="g4399_1_" transform="matrix(2.7494428,0,0,2.7494428,770.09827,301.13018)">
		<path id="path4401_1_" fill="#FFFFFF" d="M20.593-139.648c-0.2,0.113-0.482,0.193-0.809,0.193c-0.586,0-0.946-0.36-0.946-1.114
			v-2.427h-0.6v-0.754h0.6v-1.201l0.809-0.433v1.634h1.042v0.754h-1.042v2.284c0,0.392,0.129,0.505,0.433,0.505
			c0.216,0,0.457-0.08,0.609-0.169L20.593-139.648L20.593-139.648z M16.699-141.338c-0.224-0.113-0.514-0.185-0.962-0.185
			c-0.529,0-0.865,0.241-0.865,0.625c0,0.417,0.265,0.699,0.808,0.699c0.441,0,0.826-0.274,1.018-0.537v-0.602H16.699z
			 M16.699-139.544v-0.415c-0.288,0.287-0.698,0.504-1.154,0.504c-0.681,0-1.457-0.385-1.457-1.419c0-0.936,0.721-1.361,1.675-1.361
			c0.392,0,0.703,0.056,0.936,0.16v-0.313c0-0.456-0.281-0.712-0.793-0.712c-0.434,0-0.769,0.08-1.098,0.265l-0.32-0.625
			c0.4-0.249,0.848-0.378,1.441-0.378c0.938,0,1.579,0.457,1.579,1.411v2.882h-0.809V-139.544z M12.22-139.543v-2.515H9.64v2.515
			H8.8v-5.609h0.84v2.267h2.58v-2.269h0.841v5.609H12.22V-139.543z M4.712-142.524c-0.185-0.249-0.568-0.551-0.986-0.551
			c-0.592,0-0.912,0.448-0.912,1.336c0,1.059,0.335,1.523,0.945,1.523c0.392,0,0.737-0.264,0.953-0.536V-142.524z M4.705-139.544
			v-0.4c-0.304,0.28-0.656,0.489-1.096,0.489c-0.908,0-1.62-0.656-1.62-2.259c0-1.443,0.786-2.124,1.66-2.124
			c0.425,0,0.825,0.225,1.056,0.481v-1.602l0.818-0.425v5.84H4.705z M-0.567-143.093c-0.553,0-0.889,0.385-0.961,1.057h1.954
			C0.386-142.611,0.114-143.093-0.567-143.093 M1.235-141.354h-2.78c0.089,0.809,0.543,1.154,1.057,1.154
			c0.354,0,0.634-0.127,0.913-0.336l0.49,0.529c-0.369,0.353-0.811,0.553-1.451,0.553c-0.986,0-1.819-0.794-1.819-2.188
			c0-1.426,0.754-2.195,1.843-2.195c1.193,0,1.77,0.969,1.77,2.108C1.259-141.578,1.243-141.443,1.235-141.354 M-4.822-144.358
			h-1.634v1.803h1.634c0.561,0,0.953-0.289,0.953-0.898C-3.869-144.038-4.253-144.358-4.822-144.358 M-4.253-141.834l1.145,2.291
			h-0.969l-1.113-2.22h-1.267v2.22h-0.825v-5.609h2.459c0.977,0,1.802,0.521,1.802,1.675C-3.02-142.579-3.493-142.026-4.253-141.834
			 M-12.329-138.061h-0.874l0.609-1.562l-1.546-4.126h0.906l0.688,2.059c0.13,0.369,0.321,0.994,0.37,1.226
			c0.071-0.249,0.247-0.849,0.376-1.21l0.713-2.075h0.874L-12.329-138.061z M-16.326-143.075c-0.393,0-0.737,0.264-0.954,0.536v1.77
			c0.185,0.249,0.57,0.554,0.987,0.554c0.592,0,0.914-0.449,0.914-1.337C-15.381-142.613-15.717-143.075-16.326-143.075
			 M-16.214-139.454c-0.425,0-0.825-0.225-1.057-0.481v0.392h-0.818v-5.415l0.818-0.425v2.033c0.305-0.278,0.657-0.487,1.098-0.487
			c0.905,0,1.618,0.657,1.618,2.259C-14.555-140.135-15.34-139.454-16.214-139.454"/>
	</g>
	<g id="g4403_1_" transform="matrix(2.7494428,0,0,2.7494428,774.42177,312.09166)">
		<path id="path4405_1_" fill="#FFFFFF" d="M20.986-148.618c-0.026-0.022-0.063-0.032-0.112-0.032h-0.203v0.259h0.191
			c0.109,0,0.161-0.042,0.161-0.129C21.023-148.564,21.01-148.595,20.986-148.618 M21.077-148.378
			c-0.031,0.038-0.075,0.063-0.127,0.075l0.171,0.329h-0.12l-0.165-0.32h-0.165v0.32h-0.103v-0.767h0.311
			c0.07,0,0.129,0.018,0.175,0.054c0.048,0.035,0.071,0.091,0.071,0.166C21.126-148.463,21.109-148.414,21.077-148.378
			 M21.372-148.59c-0.031-0.075-0.074-0.139-0.128-0.193c-0.053-0.053-0.116-0.094-0.19-0.123c-0.072-0.031-0.153-0.045-0.238-0.045
			c-0.082,0-0.161,0.014-0.234,0.045c-0.074,0.029-0.136,0.07-0.192,0.123c-0.053,0.054-0.094,0.118-0.127,0.193
			c-0.03,0.074-0.045,0.156-0.045,0.246c0,0.089,0.015,0.171,0.045,0.246c0.033,0.074,0.075,0.137,0.127,0.19
			c0.055,0.054,0.118,0.095,0.192,0.125c0.073,0.029,0.151,0.044,0.234,0.044c0.085,0,0.166-0.015,0.238-0.044
			c0.074-0.03,0.137-0.071,0.19-0.125c0.054-0.053,0.097-0.116,0.128-0.19c0.031-0.075,0.045-0.157,0.045-0.246
			C21.417-148.434,21.403-148.517,21.372-148.59 M21.459-148.06c-0.036,0.084-0.084,0.157-0.146,0.219
			c-0.063,0.06-0.136,0.107-0.22,0.141c-0.085,0.033-0.176,0.05-0.276,0.05c-0.097,0-0.188-0.017-0.273-0.05
			c-0.084-0.034-0.158-0.081-0.22-0.141c-0.063-0.061-0.111-0.135-0.146-0.219c-0.035-0.086-0.051-0.181-0.051-0.284
			c0-0.105,0.018-0.199,0.051-0.284c0.036-0.086,0.084-0.159,0.146-0.22c0.062-0.061,0.136-0.108,0.22-0.141
			c0.085-0.034,0.176-0.05,0.273-0.05c0.1,0,0.192,0.016,0.276,0.05c0.084,0.034,0.158,0.08,0.22,0.141
			c0.063,0.061,0.11,0.134,0.146,0.22c0.035,0.085,0.053,0.179,0.053,0.284C21.512-148.242,21.494-148.147,21.459-148.06"/>
	</g>
	<g id="g4407_1_" transform="matrix(2.7494428,0,0,2.7494428,955.14594,358.68082)">
		<path id="path4409_1_" fill="#FFFFFF" d="M37.418-186.744c-0.038-0.032-0.094-0.05-0.168-0.05h-0.311v0.396h0.292
			c0.166,0,0.246-0.066,0.246-0.197C37.477-186.662,37.459-186.711,37.418-186.744 M37.559-186.378
			c-0.048,0.056-0.115,0.094-0.196,0.115l0.261,0.5h-0.183l-0.251-0.489h-0.252v0.489h-0.155v-1.169h0.472
			c0.106,0,0.195,0.028,0.266,0.081c0.075,0.056,0.11,0.14,0.11,0.255C37.632-186.508,37.607-186.434,37.559-186.378
			 M38.007-186.703c-0.046-0.114-0.11-0.211-0.193-0.291c-0.081-0.081-0.178-0.145-0.291-0.19c-0.111-0.045-0.231-0.068-0.361-0.068
			c-0.128,0-0.248,0.023-0.359,0.068c-0.112,0.045-0.207,0.109-0.289,0.19c-0.084,0.08-0.147,0.178-0.195,0.291
			c-0.046,0.113-0.07,0.238-0.07,0.375c0,0.136,0.024,0.261,0.07,0.375c0.048,0.114,0.111,0.211,0.195,0.291
			c0.082,0.081,0.178,0.144,0.289,0.189c0.111,0.047,0.231,0.067,0.359,0.067c0.13,0,0.25-0.021,0.361-0.067
			c0.113-0.045,0.21-0.107,0.291-0.189c0.082-0.08,0.146-0.178,0.193-0.291c0.048-0.114,0.072-0.239,0.072-0.375
			C38.079-186.465,38.055-186.59,38.007-186.703 M38.141-185.895c-0.053,0.129-0.127,0.241-0.222,0.333
			c-0.096,0.093-0.206,0.164-0.335,0.215c-0.129,0.051-0.269,0.076-0.421,0.076c-0.15,0-0.289-0.025-0.419-0.076
			c-0.129-0.052-0.239-0.123-0.335-0.215c-0.094-0.092-0.169-0.205-0.222-0.333c-0.055-0.13-0.082-0.275-0.082-0.433
			c0-0.159,0.028-0.303,0.082-0.433c0.053-0.13,0.128-0.241,0.222-0.334c0.096-0.094,0.206-0.164,0.335-0.216
			c0.13-0.05,0.269-0.076,0.419-0.076c0.152,0,0.292,0.026,0.421,0.076c0.129,0.053,0.239,0.123,0.335,0.216
			c0.095,0.092,0.169,0.204,0.222,0.334c0.054,0.13,0.082,0.274,0.082,0.433C38.222-186.17,38.195-186.025,38.141-185.895"/>
	</g>
	<g id="g354">
		<g id="g356">
			<g id="g3921_1_" transform="translate(-189.13862,237.44066)">
				<g id="g3927_1_" transform="translate(304.9634,416.0308)">
					<path id="path3929_1_" fill="#C32034" d="M518.464-792.273l-11.425,4.157c0.146,1.832,0.462,3.641,0.906,5.414l10.852-3.952
						C518.445-788.488,518.319-790.38,518.464-792.273"/>
				</g>
				<g id="g3931_1_" transform="translate(418.7466,444.5015)">
					<path id="path3933_1_" fill="#C32034" d="M455.169-833.377c-0.796-1.645-1.718-3.232-2.786-4.729l-11.422,4.157
						c1.329,1.359,2.444,2.888,3.356,4.522L455.169-833.377L455.169-833.377z"/>
				</g>
				<g id="g3935_1_" transform="translate(362.1055,451.793)">
					<path id="path3937_1_" fill="#DB212F" d="M486.677-843.904c2.376,1.109,4.435,2.622,6.17,4.396l11.422-4.158
						c-3.164-4.438-7.473-8.148-12.753-10.613c-16.328-7.614-35.81-0.523-43.423,15.802c-2.464,5.284-3.38,10.896-2.95,16.33
						l11.424-4.157c0.189-2.475,0.794-4.955,1.901-7.333C463.415-844.246,476.069-848.85,486.677-843.904"/>
				</g>
				<g id="g3939_1_" transform="translate(282.8599,395.0469)">
					<path id="path3941_1_" fill="#EA2227" d="M530.76-761.978l-10.854,3.953c0.998,3.958,2.727,7.717,5.104,11.063l11.399-4.149
						C533.481-754.115,531.536-757.917,530.76-761.978"/>
				</g>
				<g id="g3943_1_" transform="translate(389.5596,404.7539)">
					<path id="path3945_1_" fill="#DB212F" d="M471.405-775.992c-0.182,2.474-0.807,4.955-1.917,7.335
						c-4.947,10.609-17.601,15.213-28.209,10.266c-2.379-1.109-4.453-2.61-6.184-4.387l-11.398,4.15
						c3.156,4.439,7.462,8.15,12.745,10.616c16.329,7.613,35.808,0.522,43.421-15.805c2.466-5.283,3.376-10.894,2.94-16.323
						L471.405-775.992L471.405-775.992z"/>
				</g>
				<g id="g3947_1_" transform="translate(395.8906,436.1816)">
					<path id="path3949_1_" fill="#EA2227" d="M467.883-821.365l-10.853,3.951c2.016,3.611,2.968,7.771,2.656,11.953l11.398-4.147
						C470.759-813.699,469.667-817.692,467.883-821.365"/>
				</g>
				<g id="g3951_1_" transform="translate(279.2158,406.6621)">
					<path id="path3953_1_" fill="#AD213A" d="M532.786-778.747l11.396-4.11l-0.047,2.254l-10.995,4.088L532.786-778.747
						L532.786-778.747z"/>
				</g>
				<g id="g3955_1_" transform="translate(386.7266,445.8594)">
					<path id="path3957_1_" fill="#AD213A" d="M472.981-835.338l11.575-3.911l1.204,1.787l-11.246,3.914L472.981-835.338
						L472.981-835.338z"/>
				</g>
				<g id="g3959_1_" transform="translate(282.0435,365.709)">
					<path id="path3961_1_" fill="#BA2034" d="M531.213-719.622l11.411-4.088l3.451,3.206l-11.966,4.422L531.213-719.622z"/>
				</g>
				<g id="g3963_1_" transform="translate(415.6782,414.0278)">
					<path id="path3965_1_" fill="#BA2034" d="M456.875-789.381l-11.589,4.115l-0.854,4.567l12.357-4.335L456.875-789.381z"/>
				</g>
			</g>
		</g>
	</g>
</g>
<g id="flowRoot3413" transform="translate(0,-3.3340358e-5)">
</g>
</svg>
