<?xml version="1.0" encoding="UTF-8"?>
<svg width="178px" height="36px" viewBox="0 0 178 36" version="1.1" xmlns="http://www.w3.org/2000/svg" xmlns:xlink="http://www.w3.org/1999/xlink">
    <title>TELUS_TAGLINE_HORIZONTAL_EN</title>
    <g id="Page-1" stroke="none" stroke-width="1" fill="none" fill-rule="evenodd">
        <g id="TELUS_TAGLINE_HORIZONTAL_EN" fill-rule="nonzero">
            <g id="Group" transform="translate(-0.000000, -0.000000)">
                <polyline id="Path" fill="#4B286D" points="73.1960444 6.64789409 73.1960444 4.06288828 64.1864586 4.06288828 64.1864586 17.3542961 73.1960444 17.3542961 73.1960444 14.6624298 67.8380522 14.6624298 67.8380522 11.7110452 72.2955833 11.7110452 72.2955833 9.13112801 67.8380522 9.13112801 67.8380522 6.64789409 73.1960444 6.64789409"></polyline>
                <polyline id="Path" fill="#4B286D" points="89.0958988 14.7336701 83.4642858 14.7336701 83.4642858 4.06288828 79.767918 4.06288828 79.767918 17.3542961 89.0958988 17.3542961 89.0958988 14.7336701"></polyline>
                <path d="M118.845939,9.12603942 C116.353503,8.55102829 115.482891,8.48487656 115.482891,7.47224634 C115.482891,6.53085643 116.716672,6.23571797 117.428086,6.23571797 C118.582268,6.23571797 119.935448,6.51050205 121.313501,7.238171 L122.318435,4.79055724 C120.905557,3.99673656 119.084736,3.67106654 117.333562,3.67106654 C113.895891,3.67106654 111.587527,5.09587289 111.493003,7.87933387 C111.393504,10.4134537 113.408349,11.3650208 115.263995,11.7568426 C117.049992,12.1333985 118.860864,12.4590686 118.900663,13.5429391 C118.935488,14.5453922 118.054926,14.972834 116.393302,14.972834 C114.856051,14.972834 113.423273,14.4690632 111.960645,13.8431662 L111.109934,16.4994123 C112.786483,17.2321698 114.492882,17.6341687 116.254004,17.6341687 C118.696691,17.6341687 120.477714,17.2474356 121.791094,15.9854643 C122.701504,15.1204033 123,14.0772414 123,13.0798771 C122.995025,10.9782877 121.71647,9.79264521 118.845939,9.12603942" id="Path" fill="#4B286D"></path>
                <polyline id="Path" fill="#4B286D" points="58.9428895 6.68351425 58.9428895 4.06288828 47.6100146 4.06288828 47.6100146 6.68351425 51.4357305 6.68351425 51.4357305 17.3542961 55.1121987 17.3542961 55.1121987 6.68351425 58.9428895 6.68351425"></polyline>
                <path d="M101.69738,4.06288828 L101.69738,12.5099545 C101.69738,13.1714717 101.69738,13.3546612 101.65758,13.6141795 C101.543157,14.4181773 100.777019,14.8863279 99.5581623,14.9015937 C98.6577012,14.8863279 97.9960365,14.6166325 97.6875914,14.133216 C97.5333685,13.8838749 97.4587446,13.4411673 97.4587446,12.728764 L97.4587446,4.06288828 L93.6280538,4.06288828 L93.6280538,13.2274462 C93.6280538,14.4995948 93.7922263,15.0695173 94.3543927,15.7920977 C95.2797287,16.9777401 97.0806508,17.5985486 99.5681117,17.5985486 C99.5929866,17.5985486 99.6228358,17.5985486 99.6477108,17.5985486 C99.6626354,17.5985486 99.6825351,17.5985486 99.7024349,17.5985486 C103.025683,17.5985486 104.742032,16.2704255 105.239524,15.0288086 C105.48827,14.4283545 105.50817,14.1433932 105.50817,12.9272192 L105.50817,4.06288828 L101.69738,4.06288828" id="Path" fill="#4B286D"></path>
                <g transform="translate(-0.000000, -0.000000)">
                    <path d="M49.3363129,0.419454905 L27.8545947,4.79564583 L27.8545947,6.32731266 L27.9242437,6.30695828 C42.1176994,2.78056257 49.3363129,0.658618828 49.396012,0.643353046 C49.4756108,0.622998669 49.5054603,0.556846946 49.4955105,0.505961004 C49.4855606,0.449986469 49.4258616,0.404189123 49.3363129,0.419454905" id="Path" fill="#4B286D"></path>
                    <path d="M31.3071914,1.64071749 C31.6405113,1.42190794 31.7350348,1.55929999 31.6355363,1.8035525 C31.4763388,2.19537425 30.75,4.57683629 25.3422586,9.11586224 C23.9293804,10.2964161 22.9294209,10.9630219 20.8946772,12.1944616 C24.2229008,7.42644898 29.0834008,3.12149837 31.3071914,1.64071749 M31.8693577,0.00219018812 C30.8246239,0.0632533174 28.8893788,1.64580609 27.8297201,2.587196 C23.6010355,6.32731266 20.461859,9.76720228 18.1733943,13.3648383 C13.4074179,15.9752871 7.33801165,18.6569762 1.30342987,20.753477 L1.15915709,20.8043629 L-7.10542736e-15,24 L0.66166478,23.7353931 C4.49733053,22.2393464 10.9000566,19.4304424 16.7057919,16.3111343 C16.3774471,17.2016382 16.2132746,18.0209019 16.2132746,18.7689252 C16.2132746,19.3286707 16.3028232,19.8426186 16.4868953,20.3158579 C16.8500648,21.2521592 17.5714286,21.9645623 18.5664132,22.3716499 C20.0539153,22.9771926 22.0787089,22.9924584 24.3920482,22.2749666 C30.297282,20.4430727 37.3069487,14.8201762 38.8342502,13.7006856 L38.8889743,13.6599767 C38.9486734,13.6141795 38.9536484,13.5480277 38.9287737,13.5022303 C38.8939492,13.4513444 38.8243003,13.4360786 38.7695762,13.4716987 L38.7695762,13.4716987 L38.7695762,13.4716987 L38.6949523,13.5174961 C37.0582026,14.5199492 29.1033004,19.349025 23.9293804,20.7687427 C21.297646,21.4913231 19.2877771,21.0944128 18.5315887,20.0105422 C18.2679179,19.6390748 18.1435447,19.1709242 18.1435447,18.6264446 C18.1435447,17.5629284 18.6310872,16.2042739 19.5812976,14.6980499 C20.4519091,14.1891906 21.2628216,13.6955969 21.9941352,13.2274462 C27.0387073,10.3269476 32.8543925,4.68878536 33.0981638,1.24889574 C33.0981638,1.22345277 33.0981638,1.19800981 33.0981638,1.17256683 C33.0981638,0.877428375 32.9737907,0.572112728 32.7499191,0.343125993 C32.5210727,0.10396207 32.2076525,-0.0181641884 31.8693577,0.00219018812 Z" id="Shape" fill="#66CC00"></path>
                </g>
                <polyline id="Path" fill="#4B286D" points="27.7849458 4.81091162 5.18386993 9.77737951 4.30828345 12.1842845 27.8545947 6.32731266 27.8894192 6.31713547 27.8894192 4.78546865 27.7849458 4.81091162"></polyline>
            </g>
            <g id="Group" transform="translate(52.000000, 27.000000)" fill="#4B286D">
                <path d="M0,6.01094891 L0,0.0187695516 L0.839733419,0.0187695516 L0.839733419,5.94056309 C0.839733419,6.20802919 0.954696926,6.37226278 1.35456998,6.37226278 L1.75444304,6.37226278 L1.75444304,7.03388947 C1.55450651,7.05265902 1.3645668,7.0620438 1.21961283,7.0620438 C0.459854015,7.0620438 0,6.7898853 0,6.01094891 Z" id="Path"></path>
                <path d="M7.08275152,4.76746611 L2.96905745,4.76746611 C3.05403047,5.91240876 3.69382736,6.43326382 4.63852746,6.43326382 C5.40328468,6.43326382 5.88813076,6.05787278 6.07807046,5.48540146 L6.94779436,5.48540146 C6.68787688,6.4426486 5.90812441,7.15119917 4.61853381,7.15119917 C3.1390035,7.15119917 2.09933355,6.13764338 2.09933355,4.49061522 C2.09933355,2.89520334 3.09401778,1.83003128 4.59854015,1.83003128 C6.21302762,1.83003128 7.08774993,3.03128259 7.08774993,4.49061522 L7.08774993,4.76746611 L7.08275152,4.76746611 Z M2.9890511,4.05891554 L6.17803873,4.05891554 C6.0930657,3.22367049 5.55823549,2.55265902 4.59354174,2.55265902 C3.7488099,2.55265902 3.12900667,3.05474453 2.9890511,4.05891554 Z" id="Shape"></path>
                <path d="M9.2320692,2.64181439 L9.2320692,5.94056309 C9.2320692,6.20802919 9.36702636,6.37226278 9.85187247,6.37226278 L10.3467154,6.37226278 L10.3467154,7.03388947 C10.1167883,7.05265902 9.91685176,7.0620438 9.74690572,7.0620438 C8.90717234,7.0620438 8.39233578,6.78519291 8.39233578,6.00625652 L8.39233578,2.63712201 L7.50261823,2.63712201 L7.50261823,1.94734098 L8.39233578,1.94734098 L8.39233578,0.506777894 L9.2320692,0.506777894 L9.2320692,1.94734098 L10.3467154,1.94734098 L10.3467154,2.63712201 L9.2320692,2.63712201 L9.2320692,2.64181439 Z" id="Path"></path>
                <path d="M12.6059981,0.835245047 C12.6059981,1.75964547 12.121152,2.18665277 11.4513647,2.31334723 L11.346398,2.33211679 L11.346398,1.81126173 L11.4213742,1.80187695 C11.746271,1.71272158 11.9462076,1.53441084 11.9861948,1.04171012 L11.9212155,1.04171012 C11.5963186,1.04171012 11.346398,0.835245047 11.346398,0.539624609 C11.346398,0.234619395 11.5963186,0.0187695516 11.9212155,0.0187695516 C12.351079,0.0187695516 12.6059981,0.305005214 12.6059981,0.835245047 Z" id="Path"></path>
                <path d="M12.6509839,5.41970803 L13.5007141,5.41970803 C13.5956839,6.18925965 13.995557,6.47549531 14.9502539,6.47549531 C15.8649635,6.47549531 16.2498414,6.18925965 16.2498414,5.68717414 C16.2498414,5.23670491 15.9549349,5.02554745 15.0102349,4.86131387 L14.5053951,4.7721585 C13.3307681,4.56569343 12.8159314,4.06360792 12.8159314,3.27528676 C12.8159314,2.40719499 13.5506982,1.83472367 14.7903047,1.83472367 C16.2398445,1.83472367 16.9746112,2.43534932 16.994605,3.51929093 L16.1548715,3.51929093 C16.1148842,2.73096977 15.6200413,2.51511992 14.7903047,2.51511992 C14.0655348,2.51511992 13.6556649,2.79197081 13.6556649,3.26590198 C13.6556649,3.74921794 14.0555379,3.92752868 14.745319,4.05422315 L15.2251666,4.14337852 C16.559743,4.38738269 17.0945732,4.81439 17.0945732,5.64025026 C17.0945732,6.60688217 16.2748334,7.15589156 14.9452555,7.15589156 C13.5756903,7.15119917 12.7359569,6.61157456 12.6509839,5.41970803 Z" id="Path"></path>
                <path d="M27.5962393,3.58498436 L27.5962393,7.03388947 L26.7565059,7.03388947 L26.7565059,3.66475496 C26.7565059,2.87643379 26.3366392,2.54327425 25.6218661,2.54327425 C24.9420819,2.54327425 24.2373056,3.03597497 24.2373056,4.25599583 L24.2373056,7.03388947 L23.3975722,7.03388947 L23.3975722,3.66475496 C23.3975722,2.87643379 22.9677087,2.54327425 22.2629324,2.54327425 C21.6031419,2.54327425 20.878372,3.03597497 20.878372,4.25599583 L20.878372,7.03388947 L20.0386386,7.03388947 L20.0386386,1.95203337 L20.8383847,1.95203337 L20.8383847,2.70281543 C21.1632815,2.18196038 21.6781181,1.83468118 22.402888,1.83468118 C23.2626151,1.83468118 23.8074421,2.22888425 24.072358,2.79197081 C24.4072517,2.22888425 24.9770708,1.83468118 25.741828,1.83468118 C27.0014281,1.83003128 27.5962393,2.5995829 27.5962393,3.58498436 Z" id="Path"></path>
                <path d="M33.6493177,6.39572471 L33.6493177,7.03858186 C33.5143606,7.05735141 33.3444145,7.06673619 33.1894637,7.06673619 C32.5896542,7.06673619 32.3197398,6.82273201 32.2747541,6.33941606 C31.8948747,6.87904067 31.2900667,7.15589156 30.5103142,7.15589156 C29.3356871,7.15589156 28.6009204,6.62565173 28.6009204,5.66840459 C28.6009204,4.87069865 29.1157569,4.24191867 30.6052841,4.09176225 L31.3800381,4.01199166 C31.9248652,3.95099061 32.2297684,3.7632951 32.2297684,3.31282586 C32.2297684,2.78258603 31.934862,2.51511992 31.0101556,2.51511992 C30.0854491,2.51511992 29.7005712,2.75912409 29.6455887,3.51929093 L28.8058554,3.51929093 C28.8708347,2.53388947 29.4256585,1.83472367 31.0101556,1.83472367 C32.5096795,1.83472367 33.0445098,2.45411888 33.0445098,3.31282586 L33.0445098,6.15172054 C33.0445098,6.31126173 33.1394796,6.39572471 33.3394161,6.39572471 L33.6493177,6.39572471 Z M32.2297684,5.02554745 L32.2297684,4.42492179 C32.0598224,4.5422315 31.8298953,4.61261731 31.5149953,4.64077164 L30.725246,4.729927 C29.7405586,4.83785193 29.4656459,5.15224192 29.4656459,5.64494265 C29.4656459,6.14702815 29.8005395,6.48488008 30.5453031,6.48488008 C31.3600445,6.48488008 32.2297684,6.02971846 32.2297684,5.02554745 Z" id="Shape"></path>
                <polygon id="Path" points="36.2584894 4.30291971 35.2937957 5.15224192 35.2937957 7.03388947 34.4540623 7.03388947 34.4540623 0.0187695516 35.2937957 0.0187695516 35.2937957 4.22314911 37.8029991 1.94734098 38.9176453 1.94734098 36.858299 3.78206465 39.0625992 7.03388947 38.0879087 7.03388947"></polygon>
                <path d="M44.2409553,4.76746611 L40.1272613,4.76746611 C40.2122343,5.91240876 40.8520312,6.43326382 41.7967312,6.43326382 C42.5614884,6.43326382 43.0463346,6.05787278 43.2362742,5.48540146 L44.1059981,5.48540146 C43.8410823,6.4426486 43.0663282,7.15119917 41.7767376,7.15119917 C40.2972073,7.15119917 39.2575374,6.13764338 39.2575374,4.49061522 C39.2575374,2.89520334 40.25722,1.83003128 41.756744,1.83003128 C43.3712314,1.83003128 44.2409553,3.03128259 44.2409553,4.49061522 L44.2409553,4.76746611 L44.2409553,4.76746611 Z M40.1472549,4.05891554 L43.3362425,4.05891554 C43.2512695,3.22367049 42.7164393,2.55265902 41.7517456,2.55265902 C40.9070137,2.55265902 40.2872104,3.05474453 40.1472549,4.05891554 Z" id="Shape"></path>
                <path d="M48.5995716,2.64181439 L48.5995716,5.94056309 C48.5995716,6.20802919 48.7345288,6.37226278 49.2193749,6.37226278 L49.7142178,6.37226278 L49.7142178,7.03388947 C49.4842907,7.05265902 49.2843543,7.0620438 49.1144082,7.0620438 C48.2746748,7.0620438 47.7598382,6.78519291 47.7598382,6.00625652 L47.7598382,2.63712201 L46.8651222,2.63712201 L46.8651222,1.94734098 L47.7598382,1.94734098 L47.7598382,0.506777894 L48.5995716,0.506777894 L48.5995716,1.94734098 L49.7092194,1.94734098 L49.7092194,2.63712201 L48.5995716,2.63712201 L48.5995716,2.64181439 Z" id="Path"></path>
                <path d="M55.027531,3.59436914 L55.027531,7.03388947 L54.1877976,7.03388947 L54.1877976,3.67413973 C54.1877976,2.88581856 53.7279436,2.54327425 52.9481912,2.54327425 C52.2434149,2.54327425 51.458664,3.03597497 51.458664,4.15745568 L51.458664,7.03388947 L50.6189305,7.03388947 L50.6189305,0.0187695516 L51.458664,0.0187695516 L51.458664,2.65119916 C51.8135514,2.17726799 52.3833704,1.83472367 53.1181372,1.83472367 C54.3227548,1.83003128 55.027531,2.47288843 55.027531,3.59436914 Z" id="Path"></path>
                <path d="M60.9206602,4.76746611 L56.8069661,4.76746611 C56.8919392,5.91240876 57.5317361,6.43326382 58.4764361,6.43326382 C59.2411934,6.43326382 59.7260394,6.05787278 59.9159791,5.48540146 L60.7857031,5.48540146 C60.5207872,6.4426486 59.7460331,7.15119917 58.4564425,7.15119917 C56.9769122,7.15119917 55.9372423,6.13764338 55.9372423,4.49061522 C55.9372423,2.89520334 56.9319264,1.83003128 58.4364488,1.83003128 C60.0509363,1.83003128 60.9256586,3.03128259 60.9256586,4.49061522 L60.9256586,4.76746611 L60.9206602,4.76746611 Z M56.8319582,4.05891554 L60.0209458,4.05891554 C59.9359728,3.22367049 59.4011426,2.55265902 58.4364488,2.55265902 C57.5867186,2.55265902 56.9669153,3.05474453 56.8319582,4.05891554 Z" id="Shape"></path>
                <path d="M65.2792765,1.40771637 L65.2792765,1.94734098 L66.4339099,1.94734098 L66.4339099,2.63712201 L65.2792765,2.63712201 L65.2792765,7.02919708 L64.4395431,7.02919708 L64.4395431,2.63712201 L63.5448271,2.63712201 L63.5448271,1.94734098 L64.4395431,1.94734098 L64.4395431,1.42648593 C64.4395431,0.530239833 64.8794035,0 65.9490639,0 C66.1040147,0 66.3589338,0.00938477579 66.4838941,0.0187695516 L66.4838941,0.689781023 L66.0040464,0.689781023 C65.5192004,0.689781023 65.2792765,0.947862356 65.2792765,1.40771637 Z" id="Path"></path>
                <path d="M71.6972391,1.95203337 L71.6972391,7.03388947 L70.897493,7.03388947 L70.897493,6.27372263 C70.5426057,6.78519291 69.9527929,7.15119917 69.1980324,7.15119917 C67.9934149,7.15119917 67.2886387,6.50834202 67.2886387,5.38686132 L67.2886387,1.94734098 L68.128372,1.94734098 L68.128372,5.30709072 C68.128372,6.09541189 68.588226,6.43795621 69.3679785,6.43795621 C70.0727548,6.43795621 70.8575057,5.94525547 70.8575057,4.82377476 L70.8575057,1.94734098 L71.6972391,1.94734098 L71.6972391,1.95203337 Z" id="Path"></path>
                <path d="M74.321406,2.64181439 L74.321406,5.94056309 C74.321406,6.20802919 74.4563632,6.37226278 74.9412093,6.37226278 L75.4360522,6.37226278 L75.4360522,7.03388947 C75.2061251,7.05265902 75.0061887,7.0620438 74.8362426,7.0620438 C73.9965091,7.0620438 73.4816726,6.78519291 73.4816726,6.00625652 L73.4816726,2.63712201 L72.591955,2.63712201 L72.591955,1.94734098 L73.4816726,1.94734098 L73.4816726,0.506777894 L74.321406,0.506777894 L74.321406,1.94734098 L75.4360522,1.94734098 L75.4360522,2.63712201 L74.321406,2.63712201 L74.321406,2.64181439 Z" id="Path"></path>
                <path d="M80.7243734,1.95203337 L80.7243734,7.03388947 L79.9246273,7.03388947 L79.9246273,6.27372263 C79.5697399,6.78519291 78.9799271,7.15119917 78.2251667,7.15119917 C77.0205491,7.15119917 76.3157729,6.50834202 76.3157729,5.38686132 L76.3157729,1.94734098 L77.1555063,1.94734098 L77.1555063,5.30709072 C77.1555063,6.09541189 77.6153603,6.43795621 78.3951127,6.43795621 C79.0998891,6.43795621 79.8846399,5.94525547 79.8846399,4.82377476 L79.8846399,1.94734098 L80.7243734,1.94734098 L80.7243734,1.95203337 Z" id="Path"></path>
                <path d="M84.7430976,1.88164755 L84.7430976,2.64181439 L84.5331642,2.64181439 C83.453507,2.64181439 82.7587276,3.15328468 82.7587276,4.13868613 L82.7587276,7.03388947 L81.9189941,7.03388947 L81.9189941,1.95203337 L82.7187402,1.95203337 L82.7187402,2.84827946 C83.0236434,2.31803962 83.5784673,1.87226277 84.4631864,1.87226277 C84.5431611,1.87226277 84.6231356,1.87226277 84.7430976,1.88164755 Z" id="Path"></path>
                <path d="M90.0814029,4.76746611 L85.9677088,4.76746611 C86.0526819,5.91240876 86.6924787,6.43326382 87.6371788,6.43326382 C88.401936,6.43326382 88.8867821,6.05787278 89.0767218,5.48540146 L89.9464457,5.48540146 C89.6815299,6.4426486 88.9067758,7.15119917 87.6171852,7.15119917 C86.1376549,7.15119917 85.0979849,6.13764338 85.0979849,4.49061522 C85.0979849,2.89520334 86.0926691,1.83003128 87.5971915,1.83003128 C89.211679,1.83003128 90.0814029,3.03128259 90.0814029,4.49061522 L90.0814029,4.76746611 L90.0814029,4.76746611 Z M85.9927008,4.05891554 L89.1816885,4.05891554 C89.0967155,3.22367049 88.5618853,2.55265902 87.5971915,2.55265902 C86.7474613,2.55265902 86.127658,3.05474453 85.9927008,4.05891554 Z" id="Shape"></path>
                <path d="M94.4400192,1.40771637 L94.4400192,1.94734098 L95.5946527,1.94734098 L95.5946527,2.63712201 L94.4400192,2.63712201 L94.4400192,7.02919708 L93.6002858,7.02919708 L93.6002858,2.63712201 L92.7105682,2.63712201 L92.7105682,1.94734098 L93.6002858,1.94734098 L93.6002858,1.42648593 C93.6002858,0.530239833 94.0401461,0 95.1098064,0 C95.2697553,0 95.5196765,0.00938477579 95.6446366,0.0187695516 L95.6446366,0.689781023 L95.1597903,0.689781023 C94.679943,0.689781023 94.4400192,0.947862356 94.4400192,1.40771637 Z" id="Path"></path>
                <path d="M99.273485,1.88164755 L99.273485,2.64181439 L99.0635513,2.64181439 C97.9838945,2.64181439 97.2891145,3.15328468 97.2891145,4.13868613 L97.2891145,7.03388947 L96.4493816,7.03388947 L96.4493816,1.95203337 L97.2491271,1.95203337 L97.2491271,2.84827946 C97.5540308,2.31803962 98.1088547,1.87226277 98.9935737,1.87226277 C99.0735486,1.87226277 99.1585212,1.87226277 99.273485,1.88164755 Z" id="Path"></path>
                <path d="M99.953269,0.699165798 C99.953269,0.412930135 100.237685,0.168925965 100.596049,0.168925965 C100.943038,0.168925965 101.238831,0.403545359 101.238831,0.699165798 C101.238831,0.985401463 100.954414,1.22940563 100.596049,1.22940563 C100.249062,1.22940563 99.953269,0.99478624 99.953269,0.699165798 Z M100.118231,1.95203337 L101.073869,1.95203337 L101.073869,7.03388947 L100.118231,7.03388947 L100.118231,1.95203337 Z" id="Shape"></path>
                <path d="M106.816091,4.76746611 L102.702396,4.76746611 C102.78737,5.91240876 103.427166,6.43326382 104.371866,6.43326382 C105.136623,6.43326382 105.621469,6.05787278 105.811409,5.48540146 L106.681133,5.48540146 C106.416217,6.4426486 105.641463,7.15119917 104.351873,7.15119917 C102.872342,7.15119917 101.832672,6.13764338 101.832672,4.49061522 C101.832672,2.89520334 102.827356,1.83003128 104.331879,1.83003128 C105.946367,1.83003128 106.821088,3.03128259 106.821088,4.49061522 L106.821088,4.76746611 L106.816091,4.76746611 Z M102.72239,4.05891554 L105.911378,4.05891554 C105.826404,3.22367049 105.291574,2.55265902 104.32688,2.55265902 C103.47715,2.55265902 102.857347,3.05474453 102.72239,4.05891554 Z" id="Shape"></path>
                <path d="M112.149397,3.59436914 L112.149397,7.03388947 L111.309663,7.03388947 L111.309663,3.67413973 C111.309663,2.88581856 110.84981,2.54327425 110.070057,2.54327425 C109.365281,2.54327425 108.58053,3.03597497 108.58053,4.15745568 L108.58053,7.03388947 L107.740796,7.03388947 L107.740796,1.95203337 L108.540543,1.95203337 L108.540543,2.71220021 C108.89543,2.20072993 109.485243,1.83467292 110.240003,1.83467292 C111.44962,1.83003128 112.149397,2.47288843 112.149397,3.59436914 Z" id="Path"></path>
                <path d="M118.25246,0.0187695516 L118.25246,7.03388947 L117.452714,7.03388947 L117.452714,6.2455683 C117.042844,6.8274244 116.403047,7.15119917 115.598302,7.15119917 C114.078784,7.15119917 113.079102,6.11418144 113.079102,4.49061522 C113.079102,2.86704901 114.073787,1.83003128 115.598302,1.83003128 C116.383053,1.83003128 117.002856,2.13503649 117.412726,2.67935349 L117.412726,0.0187695516 L118.25246,0.0187695516 Z M117.447715,4.49061522 C117.447715,3.26120959 116.752936,2.53858186 115.703269,2.53858186 C114.653602,2.53858186 113.963821,3.2987487 113.963821,4.52815433 C113.963821,5.75755996 114.653602,6.43795621 115.703269,6.43795621 C116.752936,6.43795621 117.447715,5.72471324 117.447715,4.49061522 Z" id="Shape"></path>
                <path d="M119.337116,6.01094891 L119.337116,0.0187695516 L120.176848,0.0187695516 L120.176848,5.94056309 C120.176848,6.20802919 120.291812,6.37226278 120.691686,6.37226278 L121.091559,6.37226278 L121.091559,7.03388947 C120.891622,7.05265902 120.701682,7.0620438 120.556728,7.0620438 C119.796969,7.0620438 119.337116,6.7898853 119.337116,6.01094891 Z" id="Path"></path>
                <path d="M126,1.95203337 L123.710727,7.8362878 C123.365837,8.73253389 122.806014,9 121.946287,9 C121.776341,9 121.62139,8.99061519 121.441447,8.97184565 L121.441447,8.31021898 L121.93629,8.31021898 C122.47112,8.31021898 122.75603,8.08498436 122.920978,7.681439 C122.980959,7.53128259 123.045938,7.36704901 123.110918,7.20750782 L121.076563,1.95672575 L122.00127,1.95672575 L122.766027,4.0729927 C123.040939,4.81439 123.29086,5.54171012 123.540781,6.26903024 C123.780704,5.54171012 124.045621,4.80031283 124.315535,4.06360792 L125.080292,1.95672575 L126,1.95672575 L126,1.95203337 Z" id="Path"></path>
            </g>
        </g>
    </g>
</svg>